<svg width="34" height="34" viewBox="0 0 34 34" fill="none" xmlns="http://www.w3.org/2000/svg">
<circle cx="31.5" cy="2.5" r="2.5" fill="#FA5858"/>
<g clip-path="url(#clip0_37_156)">
<path d="M16.85 31.9999C16.3457 32.0012 15.8461 31.9032 15.3797 31.7114C14.9133 31.5197 14.4893 31.2379 14.1318 30.8823C13.7743 30.5266 13.4903 30.1041 13.2961 29.6387C13.1019 29.1733 13.0013 28.6742 13 28.1699C13 27.9047 13.1054 27.6504 13.2929 27.4628C13.4804 27.2753 13.7348 27.1699 14 27.1699C14.2652 27.1699 14.5196 27.2753 14.7071 27.4628C14.8946 27.6504 15 27.9047 15 28.1699C15.0342 28.6332 15.2424 29.0664 15.5828 29.3825C15.9231 29.6987 16.3705 29.8744 16.835 29.8744C17.2995 29.8744 17.7469 29.6987 18.0872 29.3825C18.4276 29.0664 18.6358 28.6332 18.67 28.1699C18.67 27.9047 18.7754 27.6504 18.9629 27.4628C19.1504 27.2753 19.4048 27.1699 19.67 27.1699C19.9352 27.1699 20.1896 27.2753 20.3771 27.4628C20.5646 27.6504 20.67 27.9047 20.67 28.1699C20.6674 29.1832 20.2644 30.1543 19.5488 30.8717C18.8333 31.5891 17.8632 31.9946 16.85 31.9999Z" fill="#EC5538"/>
<path d="M29.71 25.4401H4.00003C3.73482 25.4401 3.48046 25.3347 3.29293 25.1472C3.10539 24.9596 3.00003 24.7053 3.00003 24.4401V22.2301C2.99863 22.0611 3.04008 21.8944 3.12053 21.7458C3.20097 21.5972 3.31778 21.4713 3.46003 21.3801C4.3276 20.8379 5.04211 20.0828 5.53568 19.1867C6.02925 18.2906 6.28548 17.2831 6.28003 16.2601V12.5701C6.27832 11.1215 6.57409 9.68802 7.14901 8.35843C7.72393 7.02884 8.56576 5.83148 9.62234 4.84053C10.6789 3.84958 11.9277 3.08615 13.2914 2.59756C14.6551 2.10896 16.1046 1.90559 17.55 2.00006C20.272 2.22545 22.8067 3.47662 24.6411 5.50032C26.4754 7.52402 27.4723 10.1691 27.43 12.9001V16.2601C27.4235 17.2822 27.6782 18.289 28.17 19.185C28.6618 20.0811 29.3743 20.8367 30.24 21.3801C30.3841 21.4701 30.5029 21.5954 30.5852 21.7442C30.6674 21.8929 30.7104 22.0601 30.71 22.2301V24.4401C30.71 24.7053 30.6047 24.9596 30.4171 25.1472C30.2296 25.3347 29.9753 25.4401 29.71 25.4401ZM5.00003 23.4401H28.71V22.7501C27.6895 22.0043 26.8602 21.0274 26.29 19.8993C25.7199 18.7712 25.4252 17.524 25.43 16.2601V12.9001C25.4664 10.6827 24.6613 8.53388 23.177 6.88624C21.6926 5.23859 19.6392 4.21448 17.43 4.02006C16.2585 3.94059 15.0831 4.10273 13.9768 4.49643C12.8705 4.89012 11.8569 5.50697 10.9989 6.30869C10.1409 7.11041 9.45686 8.07989 8.98916 9.15699C8.52145 10.2341 8.28008 11.3958 8.28003 12.5701V16.2601C8.28489 17.524 7.99018 18.7712 7.42004 19.8993C6.84991 21.0274 6.02059 22.0043 5.00003 22.7501V23.4401Z" fill="#797979"/>
<path d="M27.5196 21.1401H16.8496C16.5844 21.1401 16.33 21.0348 16.1425 20.8472C15.955 20.6597 15.8496 20.4054 15.8496 20.1401C15.8496 19.8749 15.955 19.6206 16.1425 19.433C16.33 19.2455 16.5844 19.1401 16.8496 19.1401H27.5196C27.7848 19.1401 28.0392 19.2455 28.2267 19.433C28.4143 19.6206 28.5196 19.8749 28.5196 20.1401C28.5196 20.4054 28.4143 20.6597 28.2267 20.8472C28.0392 21.0348 27.7848 21.1401 27.5196 21.1401Z" fill="#797979"/>
</g>
<defs>
<clipPath id="clip0_37_156">
<rect width="27.71" height="30" fill="white" transform="translate(3 2)"/>
</clipPath>
</defs>
</svg>
