<svg xmlns="http://www.w3.org/2000/svg" viewBox="0 0 300 93.14"><g id="레이어_2" data-name="레이어 2"><g id="레이어_1-2" data-name="레이어 1"><g id="레이어_2-2" data-name="레이어 2"><g id="레이어_2-2-2" data-name="레이어 2-2"><path d="M43.3,36.08H0v53H43.3c5.5,0,9.42-2.87,11.65-8.54a27.74,27.74,0,0,0,1.74-8.87V53.42A27.71,27.71,0,0,0,55,44.59C52.72,38.94,48.8,36.08,43.3,36.08ZM44.46,71.7c0,.62-.09,6-3.24,6H11.3V47.45H41.22c3.15,0,3.24,5.36,3.24,6Z"/><rect x="65.46" y="36.08" width="11.3" height="53.03"/><path d="M113.4,34.79c-.26,0-26.76.14-27.87,11.43V78.9c1.11,11.3,27.61,11.43,27.87,11.43s26.77-.13,27.88-11.43v-22H108.92l8.58,11.37H130v6.11l-.1.19c-2.61,4.91-15.06,5.06-16.48,5.06S99.56,79.48,97,74.57l-.1-.19V50.77l.1-.19c2.6-5,15.06-5.13,16.47-5.13s13.87.14,16.48,5.13l.1.19v.41h11.3v-5C140.16,34.92,113.67,34.79,113.4,34.79Z"/><path d="M207.6,34.79c-.27,0-26.76.14-27.88,11.43V78.9c1.12,11.3,27.61,11.43,27.88,11.43s26.76-.13,27.88-11.43V46.22C234.36,34.92,207.86,34.79,207.6,34.79Zm16.54,39.77c-2.68,4.9-15.13,5-16.54,5s-13.87-.15-16.48-5.06l-.1-.19V50.77l.1-.19c2.61-5,15.06-5.13,16.48-5.13s13.87.14,16.47,5.13l.1.19.08,23.6Z"/><path d="M288.6,50.57l.1.19v.5H300v-5c-1.19-11.3-27.61-11.43-27.88-11.43s-26.76.14-27.88,11.43V78.9c1.12,11.3,27.61,11.43,27.88,11.43S298.81,90.2,300,78.9v-5H288.7v.49l-.1.19c-2.61,4.91-15.07,5.06-16.48,5.06s-13.87-.15-16.47-5.06l-.11-.19V50.76l.11-.19c2.6-4.91,15.06-5,16.47-5S286,45.66,288.6,50.57Z"/><rect x="156.27" y="83.46" width="8.47" height="9.68"/><rect x="156.27" y="21.34" width="8.47" height="58.74"/><rect x="156.27" width="8.47" height="1.94"/><path d="M195.68,18.29c-6.41-5.54-15-9.31-24.53-10.93v8.89c11.45,1.17,22,4.22,30.41,8.82A29.09,29.09,0,0,0,195.68,18.29Z"/><path d="M121.12,22.7a19.76,19.76,0,0,0-1.68,2.39h.06a58.2,58.2,0,0,1,5.32-2.61,85.94,85.94,0,0,1,25-6.2V7.35C137.86,9.38,127.56,14.83,121.12,22.7Z"/><path d="M166.86,18.11a1.21,1.21,0,0,0,1.1-1.32V6.29A1.22,1.22,0,0,0,166.86,5h-12.7a1.21,1.21,0,0,0-1.1,1.32v10.5a1.21,1.21,0,0,0,1.1,1.32Z"/></g></g></g></g></svg>