<svg xmlns="http://www.w3.org/2000/svg" xmlns:xlink="http://www.w3.org/1999/xlink" viewBox="0 0 100 115.47"><defs><style>.cls-1{fill:url(#무제_그라디언트_37);}.cls-2{fill:url(#무제_그라디언트_45);}.cls-3{fill:url(#무제_그라디언트_42);}.cls-4{fill:url(#무제_그라디언트_45-2);}.cls-5{fill:url(#무제_그라디언트_42-2);}</style><linearGradient id="무제_그라디언트_37" x1="50" y1="115.47" x2="50" gradientUnits="userSpaceOnUse"><stop offset="0" stop-color="#6d54d3"/><stop offset="0.48" stop-color="#17b0ff"/><stop offset="1" stop-color="#00dddb"/></linearGradient><linearGradient id="무제_그라디언트_45" x1="21.78" y1="29.71" x2="52.89" y2="61.25" gradientUnits="userSpaceOnUse"><stop offset="0" stop-color="#6d54d3"/><stop offset="0.48" stop-color="#17b0ff"/><stop offset="1" stop-color="#07d0e5"/></linearGradient><linearGradient id="무제_그라디언트_42" x1="-8820.49" y1="29.71" x2="-8789.38" y2="61.25" gradientTransform="matrix(-1, 0, 0, 1, -8742.27, 0)" gradientUnits="userSpaceOnUse"><stop offset="0" stop-color="#6d54d3"/><stop offset="0.48" stop-color="#17b0ff"/><stop offset="1" stop-color="#00ffdb"/></linearGradient><linearGradient id="무제_그라디언트_45-2" x1="-8820.49" y1="-8629.06" x2="-8789.38" y2="-8597.52" gradientTransform="translate(-8742.27 -8543.31) rotate(180)" xlink:href="#무제_그라디언트_45"/><linearGradient id="무제_그라디언트_42-2" x1="21.78" y1="-8629.06" x2="52.89" y2="-8597.52" gradientTransform="matrix(1, 0, 0, -1, 0, -8543.31)" xlink:href="#무제_그라디언트_42"/></defs><g id="레이어_2" data-name="레이어 2"><g id="레이어_1-2" data-name="레이어 1"><path class="cls-1" d="M50,115.47,0,86.6V28.87L50,0l50,28.87V86.6ZM2.72,85,50,112.33,97.28,85V30.44L50,3.14,2.72,30.44Z"/><path class="cls-2" d="M57,57.73A31.38,31.38,0,0,0,25.64,26.35V54.22l3.52,3.51Z"/><path class="cls-3" d="M43,57.73A31.38,31.38,0,0,1,74.36,26.35V54.22l-3.52,3.51Z"/><path class="cls-4" d="M43,57.73A31.38,31.38,0,0,0,74.36,89.12V61.25l-3.52-3.52Z"/><path class="cls-5" d="M57,57.73A31.38,31.38,0,0,1,25.64,89.12V61.25l3.52-3.52Z"/></g></g></svg>