<svg xmlns="http://www.w3.org/2000/svg" xmlns:xlink="http://www.w3.org/1999/xlink" viewBox="0 0 400 134.52"><defs><style>.cls-1{fill:url(#무제_그라디언트_37);}.cls-2{fill:url(#무제_그라디언트_45);}.cls-3{fill:url(#무제_그라디언트_42);}.cls-4{fill:url(#무제_그라디언트_45-2);}.cls-5{fill:url(#무제_그라디언트_42-2);}</style><linearGradient id="무제_그라디언트_37" x1="58.25" y1="134.52" x2="58.25" gradientUnits="userSpaceOnUse"><stop offset="0" stop-color="#6d54d3"/><stop offset="0.48" stop-color="#17b0ff"/><stop offset="1" stop-color="#00dddb"/></linearGradient><linearGradient id="무제_그라디언트_45" x1="25.37" y1="34.61" x2="61.61" y2="71.36" gradientUnits="userSpaceOnUse"><stop offset="0" stop-color="#6d54d3"/><stop offset="0.48" stop-color="#17b0ff"/><stop offset="1" stop-color="#07d0e5"/></linearGradient><linearGradient id="무제_그라디언트_42" x1="-8359.54" y1="34.61" x2="-8323.29" y2="71.36" gradientTransform="matrix(-1, 0, 0, 1, -8268.41, 0)" gradientUnits="userSpaceOnUse"><stop offset="0" stop-color="#6d54d3"/><stop offset="0.48" stop-color="#17b0ff"/><stop offset="1" stop-color="#00ffdb"/></linearGradient><linearGradient id="무제_그라디언트_45-2" x1="-8359.54" y1="-7892.16" x2="-8323.29" y2="-7855.42" gradientTransform="translate(-8268.41 -7792.26) rotate(180)" xlink:href="#무제_그라디언트_45"/><linearGradient id="무제_그라디언트_42-2" x1="25.37" y1="-7892.16" x2="61.61" y2="-7855.42" gradientTransform="matrix(1, 0, 0, -1, 0, -7792.26)" xlink:href="#무제_그라디언트_42"/></defs><g id="레이어_2" data-name="레이어 2"><g id="레이어_1-2" data-name="레이어 1"><path d="M166.51,82.31l-.11-19.19-9.31,15.62h-4.55l-9.25-15.1V82.31h-9.47V46.11h8.43L155,67l12.42-20.89h8.43l.1,36.2Z"/><path d="M183.16,46.11H193.4v36.2H183.16Z"/><path d="M235.13,46.11v36.2H226.7L210.72,63V82.31h-10V46.11h8.43l16,19.29V46.11Z"/><path d="M250.08,54.23H239V46.11h32.42v8.12H260.32V82.31H250.08Z"/><path d="M331.12,46.11l-11.74,36.2h-11l-6.93-22-7.24,22h-11l-11.74-36.2h10.55l7.29,23.11L297,46.11h9.41l7.29,23.32,7.6-23.32Z"/><path d="M354.7,75.27H339.39l-2.84,7H326.1l16-36.2h10.08l16,36.2H357.54Zm-3-7.55L347,56.14l-4.65,11.58Z"/><path d="M386.14,69.33v13H375.9V69.17L362.09,46.11H372.9l8.59,14.37,8.58-14.37H400Z"/><path class="cls-1" d="M58.25,134.52,0,100.89V33.63L58.25,0l58.24,33.63v67.26ZM3.17,99.06l55.08,31.8,55.08-31.8V35.46L58.25,3.66,3.17,35.46Z"/><path class="cls-2" d="M66.43,67.26A36.56,36.56,0,0,0,29.87,30.7V63.16l4.1,4.1Z"/><path class="cls-3" d="M50.06,67.26A36.56,36.56,0,0,1,86.62,30.7V63.16l-4.1,4.1Z"/><path class="cls-4" d="M50.06,67.26a36.55,36.55,0,0,0,36.56,36.55V71.36l-4.1-4.1Z"/><path class="cls-5" d="M66.43,67.26a36.55,36.55,0,0,1-36.56,36.55V71.36l4.1-4.1Z"/></g></g></svg>