<svg width="30" height="30" viewBox="0 0 30 30" fill="none" xmlns="http://www.w3.org/2000/svg">
<g clip-path="url(#clip0_188_533)">
<path d="M13.5938 22.4438H5.4C5.0403 22.4438 4.69533 22.3009 4.44099 22.0466C4.18664 21.7922 4.04375 21.4472 4.04375 21.0875V12.0625C4.48509 11.9178 4.88863 11.6766 5.225 11.3563C5.79669 11.9189 6.56665 12.2342 7.36875 12.2342C8.17085 12.2342 8.94081 11.9189 9.5125 11.3563C10.0834 11.9204 10.8537 12.2368 11.6562 12.2368C12.4588 12.2368 13.2291 11.9204 13.8 11.3563C14.369 11.9215 15.1386 12.2388 15.9406 12.2388C16.7427 12.2388 17.5122 11.9215 18.0813 11.3563C18.6529 11.9189 19.4229 12.2342 20.225 12.2342C21.0271 12.2342 21.7971 11.9189 22.3688 11.3563C22.7069 11.6774 23.1127 11.9187 23.5562 12.0625V13.75C24.2088 13.9161 24.8385 14.1617 25.4312 14.4813V12.075C26.0575 11.8794 26.6049 11.489 26.9939 10.9607C27.3828 10.4323 27.593 9.79361 27.5938 9.13754L26.0562 2.30004C25.9097 1.64589 25.5442 1.06137 25.0203 0.643146C24.4963 0.224922 23.8454 -0.00195399 23.175 3.82083e-05H4.425C3.75356 -0.00338148 3.10113 0.222842 2.57593 0.641183C2.05073 1.05952 1.68433 1.64484 1.5375 2.30004L0 8.93129V9.13754C0.00215662 9.79416 0.213595 10.433 0.603601 10.9612C0.993608 11.4895 1.54187 11.8796 2.16875 12.075V21.0875C2.16793 21.5124 2.2509 21.9332 2.41292 22.326C2.57494 22.7188 2.81282 23.0757 3.11295 23.3764C3.41308 23.6771 3.76957 23.9157 4.16201 24.0785C4.55445 24.2413 4.97514 24.325 5.4 24.325H14.0375C13.8121 23.7188 13.663 23.0869 13.5938 22.4438V22.4438ZM4.41875 1.87504H5.38125L4.3 9.00004V9.13754C4.31243 9.45911 4.19661 9.77246 3.97801 10.0086C3.75942 10.2448 3.45595 10.3845 3.13437 10.3969C2.8128 10.4093 2.49946 10.2935 2.26328 10.0749C2.0271 9.85633 1.88743 9.55286 1.875 9.23129L3.36875 2.71879C3.42038 2.47902 3.55291 2.26431 3.74409 2.11068C3.93528 1.95704 4.17349 1.87384 4.41875 1.87504ZM23.1687 1.87504C23.4131 1.87354 23.6507 1.95585 23.8417 2.10824C24.0328 2.26064 24.1659 2.47393 24.2188 2.71254L25.7125 9.22504C25.682 9.53079 25.5359 9.81338 25.3041 10.0151C25.0723 10.2168 24.7723 10.3225 24.4653 10.3105C24.1582 10.2986 23.8673 10.1699 23.6519 9.95073C23.4365 9.73158 23.3129 9.43849 23.3063 9.13129L22.2125 1.87504H23.1687ZM21.4313 9.20004C21.4028 9.50462 21.2597 9.78701 21.0309 9.99006C20.8021 10.1931 20.5047 10.3017 20.1989 10.2937C19.8931 10.2858 19.6017 10.1619 19.3838 9.94728C19.1658 9.73263 19.0376 9.44318 19.025 9.13754L18.4687 1.87504H20.3437L21.4313 9.20004ZM17.1438 9.16879C17.1182 9.47286 16.9784 9.75595 16.7524 9.96103C16.5265 10.1661 16.2312 10.2779 15.9261 10.274C15.621 10.27 15.3287 10.1506 15.1081 9.93967C14.8876 9.7288 14.7551 9.44217 14.7375 9.13754V1.87504H16.6125L17.1438 9.16879ZM12.8625 9.13754C12.8666 9.45746 12.7435 9.76592 12.5202 9.99506C12.297 10.2242 11.9918 10.3553 11.6719 10.3594C11.352 10.3636 11.0435 10.2404 10.8144 10.0172C10.5852 9.79387 10.4541 9.48871 10.45 9.16879L11.0063 1.87504H12.8813L12.8625 9.13754ZM8.575 9.06879V9.13754C8.58329 9.45746 8.46415 9.76756 8.24379 9.99964C8.02344 10.2317 7.71992 10.3668 7.4 10.375C7.08008 10.3833 6.76998 10.2642 6.5379 10.0438C6.30582 9.82348 6.17079 9.51996 6.1625 9.20004L7.28125 1.87504H9.125L8.575 9.06879Z" fill="#A5A5A5"/>
<path d="M29.7242 28.3938L26.8242 25.4813C27.8262 24.1427 28.2839 22.4742 28.1051 20.8117C27.9263 19.1492 27.1243 17.6162 25.8606 16.5213C24.5969 15.4263 22.9654 14.8508 21.2944 14.9105C19.6234 14.9702 18.0371 15.6607 16.8547 16.843C15.6724 18.0253 14.9819 19.6117 14.9222 21.2827C14.8625 22.9537 15.438 24.5852 16.533 25.8489C17.6279 27.1126 19.1609 27.9146 20.8234 28.0933C22.4859 28.2721 24.1544 27.8145 25.493 26.8125L28.3992 29.725C28.4866 29.812 28.5903 29.8809 28.7044 29.9279C28.8184 29.9748 28.9406 29.9988 29.0639 29.9985C29.1873 29.9982 29.3093 29.9736 29.4232 29.9262C29.537 29.8787 29.6403 29.8093 29.7273 29.7219C29.8143 29.6345 29.8833 29.5308 29.9302 29.4167C29.9771 29.3027 30.0011 29.1805 30.0008 29.0572C30.0006 28.9338 29.976 28.8118 29.9285 28.6979C29.8811 28.5841 29.8116 28.4808 29.7242 28.3938V28.3938ZM16.8742 21.55C16.8755 20.6222 17.1516 19.7156 17.6679 18.9446C18.1841 18.1737 18.9172 17.5731 19.7746 17.2186C20.632 16.8641 21.5753 16.7717 22.4852 16.953C23.3951 17.1343 24.2309 17.5812 24.8869 18.2373C25.543 18.8933 25.9899 19.7291 26.1712 20.639C26.3525 21.5489 26.2601 22.4922 25.9056 23.3496C25.5511 24.207 24.9505 24.9401 24.1796 25.4564C23.4086 25.9726 22.502 26.2488 21.5742 26.25C20.3282 26.2483 19.1337 25.7526 18.2526 24.8716C17.3716 23.9905 16.8759 22.796 16.8742 21.55V21.55Z" fill="#A5A5A5"/>
</g>
<defs>
<clipPath id="clip0_188_533">
<rect width="30" height="30" fill="white"/>
</clipPath>
</defs>
</svg>
