<svg width="30" height="30" viewBox="0 0 30 30" fill="none" xmlns="http://www.w3.org/2000/svg">
<g clip-path="url(#clip0_188_527)">
<path d="M29.9875 5.41875V2.075C29.9875 1.52576 29.7697 0.998918 29.382 0.609959C28.9942 0.221 28.468 0.00165435 27.9187 0H11.9875C11.4372 0 10.9094 0.218615 10.5202 0.607753C10.1311 0.996891 9.9125 1.52468 9.9125 2.075V5.41875C9.9125 5.49375 9.9125 5.5625 9.9125 5.6375H9.60625C9.057 5.6375 8.53016 5.85525 8.1412 6.24304C7.75224 6.63083 7.5329 7.15701 7.53125 7.70625V8.55625C8.14628 8.40161 8.77368 8.30123 9.40625 8.25625V7.70625C9.40788 7.64932 9.43163 7.59528 9.47248 7.5556C9.51333 7.51591 9.56804 7.49373 9.62499 7.49375H21.9875V11.275H18.1125C18.72 11.8398 19.2648 12.4684 19.7375 13.15H24.3625V16.9H21.4562C21.6098 17.5155 21.7123 18.1426 21.7625 18.775H24.3625V22.525H21.4375C21.2856 23.1674 21.0765 23.7949 20.8125 24.4H27.9687C28.5087 24.3869 29.0221 24.1632 29.3994 23.7767C29.7766 23.3901 29.9877 22.8714 29.9875 22.3313V18.9812C29.9897 18.5742 29.87 18.1759 29.6437 17.8375C29.8683 17.4983 29.9878 17.1005 29.9875 16.6937V13.3438C29.9875 12.7951 29.7695 12.2689 29.3816 11.8809C28.9936 11.493 28.4674 11.275 27.9187 11.275H27.6125C27.6125 11.2 27.6125 11.1313 27.6125 11.0563V7.70625C27.6125 7.63125 27.6125 7.5625 27.6125 7.49375H27.9187C28.468 7.4921 28.9942 7.27275 29.382 6.88379C29.7697 6.49483 29.9875 5.96799 29.9875 5.41875V5.41875ZM11.975 5.6375C11.917 5.6375 11.8613 5.61445 11.8203 5.57343C11.7793 5.53241 11.7562 5.47677 11.7562 5.41875V2.075C11.7562 2.01698 11.7793 1.96134 11.8203 1.92032C11.8613 1.8793 11.917 1.85625 11.975 1.85625H24.3625V5.60625L11.975 5.6375ZM25.7812 11.0563C25.7812 11.1143 25.7582 11.1699 25.7172 11.2109C25.6761 11.252 25.6205 11.275 25.5625 11.275H23.8312V7.49375H25.5625C25.6194 7.49373 25.6742 7.51591 25.715 7.5556C25.7559 7.59528 25.7796 7.64932 25.7812 7.70625V11.0563ZM28.1375 22.3063C28.1359 22.3632 28.1121 22.4172 28.0713 22.4569C28.0304 22.4966 27.9757 22.5188 27.9187 22.5188H26.1875V18.7688H27.9187C27.9768 18.7688 28.0324 18.7918 28.0734 18.8328C28.1144 18.8738 28.1375 18.9295 28.1375 18.9875V22.3063ZM27.9187 13.1062C27.9757 13.1062 28.0304 13.1284 28.0713 13.1681C28.1121 13.2078 28.1359 13.2618 28.1375 13.3187V16.6688C28.1359 16.7257 28.1121 16.7797 28.0713 16.8194C28.0304 16.8591 27.9757 16.8813 27.9187 16.8813H26.1875V13.1313L27.9187 13.1062ZM26.1875 5.60625V1.85625H27.9187C27.9768 1.85625 28.0324 1.8793 28.0734 1.92032C28.1144 1.96134 28.1375 2.01698 28.1375 2.075V5.41875C28.1375 5.47677 28.1144 5.53241 28.0734 5.57343C28.0324 5.61445 27.9768 5.6375 27.9187 5.6375L26.1875 5.60625Z" fill="#A5A5A5"/>
<path d="M10.3133 11.2376C11.9866 11.2364 13.6226 11.7316 15.0143 12.6606C16.406 13.5896 17.4908 14.9106 18.1315 16.4564C18.7721 18.0022 18.9397 19.7033 18.6131 21.3444C18.2865 22.9855 17.4804 24.4928 16.2968 25.6755C15.1131 26.8583 13.6052 27.6633 11.9639 27.9887C10.3225 28.3141 8.62154 28.1452 7.07622 27.5034C5.5309 26.8617 4.21071 25.7759 3.28275 24.3835C2.3548 22.9911 1.86079 21.3546 1.86327 19.6814C1.86492 17.4391 2.75638 15.2892 4.34188 13.7037C5.92737 12.1182 8.07729 11.2268 10.3195 11.2251M10.3195 9.35011C8.2799 9.34641 6.28499 9.9476 4.58706 11.0777C2.88912 12.2077 1.56442 13.8159 0.780465 15.6989C-0.00348608 17.5818 -0.211475 19.6549 0.182798 21.6561C0.57707 23.6572 1.55589 25.4965 2.9955 26.9414C4.4351 28.3862 6.27083 29.3717 8.27053 29.7733C10.2702 30.1748 12.3441 29.9744 14.2299 29.1973C16.1156 28.4202 17.7286 27.1013 18.8649 25.4075C20.0011 23.7137 20.6096 21.721 20.6133 19.6814C20.6133 16.9474 19.5276 14.3253 17.595 12.3915C15.6624 10.4577 13.041 9.37052 10.307 9.36886L10.3195 9.35011Z" fill="#A5A5A5"/>
<path d="M10.9382 14.5688C10.9932 14.5662 11.0482 14.5749 11.0997 14.5942C11.1513 14.6136 11.1984 14.6432 11.2382 14.6813C11.3058 14.7571 11.3435 14.8548 11.3444 14.9563V15.2563C11.7147 15.3171 12.0759 15.4242 12.4194 15.5751C12.7238 15.7219 13.0058 15.9113 13.2569 16.1376C13.4747 16.3646 13.656 16.6239 13.7944 16.9063C13.9108 17.1901 13.9723 17.4934 13.9757 17.8V18.2C13.9762 18.2429 13.9663 18.2853 13.9466 18.3234C13.927 18.3616 13.8984 18.3943 13.8632 18.4188C13.7733 18.4853 13.662 18.5164 13.5507 18.5063H12.1444C12.035 18.5166 11.9256 18.4854 11.8382 18.4188C11.7973 18.3992 11.763 18.3681 11.7397 18.3292C11.7163 18.2903 11.7049 18.2454 11.7069 18.2V18.0251C11.7069 17.8728 11.6772 17.7221 11.6194 17.5813C11.5541 17.4514 11.4601 17.3381 11.3444 17.2501V19.1251C11.8132 19.2876 12.2257 19.425 12.5944 19.5625C12.9115 19.6846 13.2118 19.8463 13.4882 20.0438C13.7159 20.2345 13.9012 20.4708 14.0319 20.7375C14.1638 21.0694 14.2275 21.4243 14.2194 21.7813C14.2216 22.0953 14.151 22.4055 14.0132 22.6876C13.8666 22.9707 13.6671 23.2231 13.4257 23.4313C13.1578 23.6595 12.8563 23.845 12.5319 23.9813C12.1536 24.1265 11.7591 24.2251 11.3569 24.275V24.4376C11.3596 24.4883 11.3516 24.5391 11.3334 24.5866C11.3152 24.6341 11.2872 24.6772 11.2513 24.7131C11.2153 24.7491 11.1722 24.7771 11.1247 24.7953C11.0772 24.8135 11.0265 24.8215 10.9757 24.8188H9.72568C9.67694 24.8204 9.6284 24.8117 9.5832 24.7934C9.53799 24.7751 9.49712 24.7476 9.46318 24.7126C9.39684 24.6365 9.36119 24.5385 9.36318 24.4376V24.275C8.96104 24.2289 8.56752 24.1258 8.19443 23.9688C7.86041 23.8256 7.55051 23.6316 7.27568 23.3938C7.01148 23.186 6.7978 22.921 6.65068 22.6188C6.50155 22.3291 6.4264 22.0071 6.43192 21.6813V21.2875C6.43264 21.2434 6.44377 21.1999 6.46441 21.1609C6.48504 21.1218 6.51459 21.0881 6.55068 21.0625C6.64162 21.0038 6.74883 20.9754 6.85693 20.9813H8.38192C8.49318 20.9822 8.60257 21.0101 8.70068 21.0625C8.73756 21.0878 8.76806 21.1212 8.78976 21.1603C8.81146 21.1993 8.82376 21.2429 8.82568 21.2875V21.475C8.82508 21.6452 8.87276 21.8121 8.96318 21.9563C9.04901 22.1082 9.18322 22.227 9.34443 22.2938V20.25C9.15693 20.1875 8.97567 20.1188 8.79442 20.0438C8.59431 19.9733 8.39819 19.8919 8.20692 19.8001C7.73574 19.5913 7.3235 19.2692 7.00692 18.8626C6.73552 18.5053 6.60837 18.0592 6.65068 17.6126C6.6686 17.2861 6.73387 16.964 6.84443 16.6563C6.94946 16.3833 7.10894 16.1345 7.31318 15.9251C7.54551 15.7027 7.82247 15.5322 8.12568 15.4251C8.5191 15.2948 8.93006 15.2253 9.34443 15.2188V14.9626C9.34304 14.8617 9.37861 14.7639 9.44443 14.6876C9.47868 14.6533 9.51976 14.6267 9.56499 14.6095C9.61023 14.5923 9.6586 14.5848 9.70693 14.5876L10.9382 14.5688ZM9.02568 17.7251C9.03361 17.8349 9.07505 17.9396 9.14442 18.0251C9.19379 18.1262 9.26409 18.2157 9.35067 18.2876V17.1813C9.29198 17.1927 9.23633 17.2163 9.18739 17.2506C9.13844 17.2849 9.09729 17.3292 9.06661 17.3805C9.03594 17.4318 9.01644 17.489 9.00938 17.5484C9.00233 17.6078 9.00789 17.668 9.02568 17.7251V17.7251ZM11.8132 21.6313C11.8069 21.5095 11.7608 21.3931 11.6819 21.3001C11.5714 21.1955 11.4499 21.1033 11.3194 21.0251V22.2751C11.4633 22.2248 11.5893 22.1335 11.6819 22.0125C11.7666 21.9035 11.8127 21.7694 11.8132 21.6313V21.6313Z" fill="#A5A5A5"/>
</g>
<defs>
<clipPath id="clip0_188_527">
<rect width="30" height="30" fill="white"/>
</clipPath>
</defs>
</svg>
