<svg width="30" height="30" viewBox="0 0 30 30" fill="none" xmlns="http://www.w3.org/2000/svg">
<g clip-path="url(#clip0_188_547)">
<path d="M15 12.5625C13.3454 12.5527 11.7614 11.891 10.5914 10.721C9.42147 9.55107 8.75984 7.96707 8.75 6.3125C8.75821 4.65743 9.41933 3.07248 10.5897 1.90216C11.76 0.731832 13.3449 0.0707139 15 0.0625C16.6576 0.0625 18.2473 0.72098 19.4194 1.89308C20.5915 3.06518 21.25 4.6549 21.25 6.3125C21.2418 7.96757 20.5807 9.55251 19.4103 10.7228C18.24 11.8932 16.6551 12.5543 15 12.5625ZM15 1.8875C13.8422 1.89568 12.7342 2.35925 11.9155 3.17795C11.0968 3.99665 10.6332 5.10471 10.625 6.2625C10.6332 7.42029 11.0968 8.52834 11.9155 9.34705C12.7342 10.1658 13.8422 10.6293 15 10.6375C15.5745 10.6375 16.1434 10.5243 16.6742 10.3045C17.205 10.0846 17.6873 9.76235 18.0936 9.35609C18.4998 8.94983 18.8221 8.46754 19.042 7.93674C19.2618 7.40594 19.375 6.83703 19.375 6.2625C19.3766 5.68692 19.2647 5.11666 19.0456 4.58442C18.8264 4.05218 18.5044 3.56841 18.098 3.16082C17.6916 2.75324 17.2087 2.42986 16.6771 2.20922C16.1455 1.98857 15.5756 1.875 15 1.875V1.8875Z" fill="#A5A5A5"/>
<path d="M26.6563 29.9999H3.375V29.0624C3.375 20.9374 8.60001 14.3687 15.025 14.3687C21.45 14.3687 26.6813 20.9624 26.6813 29.0624L26.6563 29.9999ZM5.25 28.1249H24.7562C24.3875 21.4937 20.15 16.2499 15 16.2499C9.85 16.2499 5.61875 21.4937 5.25 28.1249Z" fill="#A5A5A5"/>
</g>
<defs>
<clipPath id="clip0_188_547">
<rect width="30" height="30" fill="white"/>
</clipPath>
</defs>
</svg>
