<svg width="30" height="30" viewBox="0 0 30 30" fill="none" xmlns="http://www.w3.org/2000/svg">
<path d="M22.5055 28.5813H7.50547C6.4059 28.5813 5.35128 28.1449 4.57319 27.368C3.79509 26.5911 3.35712 25.5371 3.35547 24.4375V9.50005L15.0055 1.2063L26.6555 9.50005V24.4375C26.6555 24.9822 26.5481 25.5216 26.3394 26.0247C26.1308 26.5279 25.825 26.985 25.4396 27.3698C25.0541 27.7547 24.5966 28.0598 24.0931 28.2677C23.5897 28.4756 23.0502 28.5821 22.5055 28.5813V28.5813ZM5.22422 10.4563V24.4313C5.22588 25.0336 5.46629 25.6106 5.89276 26.0359C6.31922 26.4612 6.89694 26.7 7.49922 26.7H22.4992C23.1004 26.6984 23.6765 26.4588 24.1017 26.0337C24.5268 25.6086 24.7663 25.0325 24.768 24.4313V10.4938L14.993 3.53755L5.22422 10.4563Z" fill="#A5A5A5"/>
<path d="M19.8258 28.5812H10.1758V20.9749C10.1774 19.6957 10.6863 18.4694 11.5908 17.5649C12.4953 16.6604 13.7216 16.1516 15.0008 16.1499C16.2799 16.1516 17.5062 16.6604 18.4107 17.5649C19.3153 18.4694 19.8241 19.6957 19.8258 20.9749V28.5812ZM12.0508 26.7062H17.9508V20.9749C17.9491 20.193 17.6378 19.4436 17.0849 18.8908C16.532 18.3379 15.7827 18.0266 15.0008 18.0249C14.2189 18.0266 13.4695 18.3379 12.9166 18.8908C12.3638 19.4436 12.0524 20.193 12.0508 20.9749V26.7062Z" fill="#A5A5A5"/>
<path d="M28.8945 13.3938L15.0008 3.5063L1.10078 13.3938L0.0195312 11.8688L15.0008 1.2063L29.982 11.8688L28.8945 13.3938Z" fill="#A5A5A5"/>
</svg>
