<svg width="26" height="26" viewBox="0 0 26 26" fill="none" xmlns="http://www.w3.org/2000/svg">
<g clip-path="url(#clip0_43_91)">
<path d="M10.1306 4.13486C11.3164 4.13486 12.4756 4.48649 13.4616 5.14528C14.4475 5.80408 15.2159 6.74048 15.6697 7.83602C16.1235 8.93157 16.2423 10.1371 16.0109 11.3001C15.7796 12.4631 15.2086 13.5314 14.3701 14.3699C13.5316 15.2084 12.4633 15.7794 11.3003 16.0107C10.1372 16.2421 8.93174 16.1234 7.8362 15.6696C6.74066 15.2158 5.80431 14.4473 5.14551 13.4614C4.48671 12.4754 4.13501 11.3162 4.13501 10.1304C4.13501 8.54029 4.76673 7.0153 5.89112 5.89092C7.0155 4.76653 8.54044 4.13486 10.1306 4.13486ZM10.1306 3.37696e-06C8.12661 -0.00163251 6.16717 0.591112 4.50015 1.70326C2.83312 2.81541 1.53346 4.397 0.765446 6.24795C-0.00256864 8.09889 -0.204353 10.136 0.185597 12.1017C0.575546 14.0673 1.5397 15.8732 2.95613 17.2908C4.37257 18.7083 6.17755 19.674 8.14288 20.0656C10.1082 20.4571 12.1455 20.257 13.9971 19.4905C15.8487 18.724 17.4313 17.4255 18.5448 15.7594C19.6583 14.0933 20.2527 12.1344 20.2527 10.1304C20.2527 7.44509 19.1866 4.86962 17.2885 2.97004C15.3905 1.07046 12.8159 0.00219547 10.1306 3.37696e-06Z" fill="#40AAF8"/>
<path d="M16.771 16.771L24.5363 24.5363" stroke="#40AAF8" stroke-width="4" stroke-miterlimit="10"/>
</g>
<defs>
<clipPath id="clip0_43_91">
<rect width="26" height="26" fill="white"/>
</clipPath>
</defs>
</svg>
