<svg width="32" height="32" viewBox="0 0 32 32" fill="none" xmlns="http://www.w3.org/2000/svg">
<g clip-path="url(#clip0_9_43)">
<path d="M12.4684 5.08906C13.9278 5.08906 15.3546 5.52183 16.5681 6.33266C17.7816 7.14349 18.7273 8.29597 19.2858 9.64433C19.8443 10.9927 19.9905 12.4764 19.7058 13.9078C19.421 15.3392 18.7183 16.654 17.6863 17.686C16.6543 18.718 15.3394 19.4208 13.908 19.7055C12.4766 19.9903 10.9929 19.8441 9.64455 19.2856C8.29619 18.7271 7.14376 17.7813 6.33293 16.5678C5.5221 15.3543 5.08925 13.9277 5.08925 12.4682C5.08925 10.5111 5.86675 8.63422 7.2506 7.25036C8.63446 5.8665 10.5113 5.08906 12.4684 5.08906ZM12.4684 4.15626e-06C10.002 -0.00200924 7.59036 0.727523 5.53864 2.09632C3.48692 3.46512 1.88733 5.4117 0.942085 7.68978C-0.00316375 9.96787 -0.251514 12.4751 0.228424 14.8944C0.708362 17.3136 1.89501 19.5362 3.63832 21.2809C5.38162 23.0257 7.60313 24.2142 10.022 24.6961C12.4409 25.178 14.9483 24.9317 17.2272 23.9883C19.5061 23.0449 21.4539 21.4468 22.8244 19.3962C24.1949 17.3456 24.9264 14.9346 24.9264 12.4682C24.9264 9.16319 23.6142 5.99338 21.2782 3.65544C18.9422 1.31749 15.7734 0.00270212 12.4684 4.15626e-06Z" fill="#C5C5C5"/>
<path fill-rule="evenodd" clip-rule="evenodd" d="M28.4307 31.9662L18.8735 22.409L22.409 18.8734L31.9662 28.4307L28.4307 31.9662Z" fill="#C5C5C5"/>
</g>
<defs>
<clipPath id="clip0_9_43">
<rect width="32" height="32" fill="white"/>
</clipPath>
</defs>
</svg>
