<svg width="20" height="20" viewBox="0 0 20 20" fill="none" xmlns="http://www.w3.org/2000/svg">
<g clip-path="url(#clip0_144_447)">
<path d="M9.9993 4.855H11.2818V2.2825V1H9.9993H8.7168V2.2825H9.9993V4.855Z" fill="#FA5858"/>
<path d="M10.0005 7.42752H11.283V6.14502H10.0005H8.71797V7.42752V8.71752H4.85547V10H7.42797V11.2825H8.71797V10H10.0005V8.71752V7.42752Z" fill="#FA5858"/>
<path d="M6.145 7.42751H7.4275V1H1V7.42751H6.145ZM2.29 2.27501H6.145V6.1375H2.29V2.27501Z" fill="#FA5858"/>
<path d="M17.7173 1H12.5723V7.42751H18.9998V1H17.7173ZM17.7173 6.14501H13.8548V2.27501H17.7173V6.14501Z" fill="#FA5858"/>
<path d="M4.85477 3.57251H3.57227V4.85501H4.85477V3.57251Z" fill="#FA5858"/>
<path d="M13.8548 12.5725H12.5723V19H18.9998V12.5725H13.8548ZM17.7173 17.71H13.8548V13.855H17.7173V17.71Z" fill="#FA5858"/>
<path d="M2.29 12.5725H1V19H7.4275V12.5725H2.29ZM6.145 17.71H2.29V13.855H6.145V17.71Z" fill="#FA5858"/>
<path d="M16.427 15.145H15.1445V16.4275H16.427V15.145Z" fill="#FA5858"/>
<path d="M4.8557 10H2.2832V11.2825H4.8557V10Z" fill="#FA5858"/>
<path d="M2.2825 8.71753H1V10H2.2825V8.71753Z" fill="#FA5858"/>
<path d="M9.9993 17.7175H8.7168V19H9.9993V17.7175Z" fill="#FA5858"/>
<path d="M12.5718 8.71753H11.2818V10H9.9993V11.2825V12.5725H8.7168V16.4275H9.9993V17.7175H11.2818V15.145H9.9993V13.855H11.2818V11.2825H15.1443V10H12.5718V8.71753Z" fill="#FA5858"/>
<path d="M18.9995 8.71753H15.1445V10H18.9995V8.71753Z" fill="#FA5858"/>
</g>
<defs>
<clipPath id="clip0_144_447">
<rect width="18" height="18" fill="white" transform="translate(1 1)"/>
</clipPath>
</defs>
</svg>
