<svg width="20" height="20" viewBox="0 0 20 20" fill="none" xmlns="http://www.w3.org/2000/svg">
<g clip-path="url(#clip0_137_352)">
<path d="M18.4049 5.03206H15.0945C15.52 4.48583 15.7513 3.81548 15.7524 3.1254V2.09778C15.7513 1.80696 15.6343 1.52837 15.4268 1.32273C15.2193 1.11709 14.9382 1.00109 14.6448 1L12.2546 1C11.8201 1 11.3912 1.09768 11.0003 1.28568C10.6094 1.47369 10.2666 1.74712 9.99766 2.0854C9.72856 1.74734 9.38571 1.47408 8.99483 1.2861C8.60395 1.09812 8.1752 1.00031 7.74074 1L5.35056 1C5.0568 1 4.77507 1.11566 4.56734 1.32153C4.35962 1.5274 4.24292 1.80663 4.24292 2.09778V3.1254C4.24215 3.81579 4.47366 4.48673 4.90085 5.03206H1.59041C1.16888 5.03425 0.765366 5.20174 0.468075 5.49793C0.170784 5.79412 0.0039005 6.19491 0.00390625 6.6127L0.00390625 16.7527C0.0039005 17.1705 0.170784 17.5713 0.468075 17.8675C0.765366 18.1637 1.16888 18.3312 1.59041 18.3333H18.4049C18.8264 18.3312 19.23 18.1637 19.5272 17.8675C19.8245 17.5713 19.9914 17.1705 19.9914 16.7527V6.6127C19.9914 6.19491 19.8245 5.79412 19.5272 5.49793C19.23 5.20174 18.8264 5.03425 18.4049 5.03206V5.03206ZM18.7422 6.6127V10.0298H12.1047V6.27016H18.4049C18.4951 6.27231 18.5809 6.30935 18.6439 6.37336C18.707 6.43736 18.7422 6.52326 18.7422 6.6127ZM12.2546 2.2381H14.5032V3.1254C14.5021 3.63146 14.2985 4.11641 13.937 4.47386C13.5756 4.83132 13.0858 5.03206 12.5752 5.03206H10.6223V3.85587C10.6234 3.42715 10.7957 3.01629 11.1016 2.71313C11.4075 2.40998 11.822 2.23918 12.2546 2.2381V2.2381ZM5.49214 3.1254V2.2381H7.74074C8.17332 2.23918 8.58786 2.40998 8.89374 2.71313C9.19962 3.01629 9.37195 3.42715 9.37305 3.85587V5.03206H7.4201C6.9095 5.03206 6.41974 4.83132 6.0583 4.47386C5.69686 4.11641 5.49325 3.63146 5.49214 3.1254V3.1254ZM1.59041 6.27016H7.89064V10.0298H1.25313V6.6127C1.2531 6.52326 1.28837 6.43736 1.35139 6.37336C1.41442 6.30935 1.5002 6.27231 1.59041 6.27016V6.27016ZM1.59041 17.0952C1.5002 17.0931 1.41442 17.056 1.35139 16.992C1.28837 16.928 1.2531 16.8421 1.25313 16.7527V11.2679H7.91563V17.0952H1.59041ZM9.13986 17.0952V6.27016H10.8555V17.0952H9.13986ZM18.4049 17.0952H12.1047V11.2679H18.7422V16.7527C18.7422 16.8421 18.707 16.928 18.6439 16.992C18.5809 17.056 18.4951 17.0931 18.4049 17.0952Z" fill="#FA5858"/>
</g>
<defs>
<clipPath id="clip0_137_352">
<rect width="20" height="17.3333" fill="white" transform="translate(0 1)"/>
</clipPath>
</defs>
</svg>
