<svg width="20" height="20" viewBox="0 0 20 20" fill="none" xmlns="http://www.w3.org/2000/svg">
<g clip-path="url(#clip0_137_312)">
<path d="M9.0625 14.9625H3.6C3.3602 14.9625 3.13022 14.8673 2.96066 14.6977C2.79109 14.5281 2.69583 14.2982 2.69583 14.0584V8.04169C2.99006 7.94522 3.25908 7.78438 3.48333 7.57086C3.86446 7.94594 4.37776 8.15616 4.9125 8.15616C5.44724 8.15616 5.96054 7.94594 6.34167 7.57086C6.72227 7.94694 7.23577 8.15784 7.77083 8.15784C8.3059 8.15784 8.8194 7.94694 9.2 7.57086C9.57936 7.94769 10.0924 8.15918 10.6271 8.15918C11.1618 8.15918 11.6748 7.94769 12.0542 7.57086C12.4353 7.94594 12.9486 8.15616 13.4833 8.15616C14.0181 8.15616 14.5314 7.94594 14.9125 7.57086C15.138 7.7849 15.4085 7.94578 15.7042 8.04169V9.16669C16.1392 9.27741 16.559 9.44114 16.9542 9.65419V8.05003C17.3717 7.91961 17.7366 7.65934 17.9959 7.30711C18.2552 6.95488 18.3953 6.52908 18.3958 6.09169L17.3708 1.53336C17.2731 1.09726 17.0294 0.70758 16.6802 0.428764C16.3309 0.149948 15.8969 -0.00130266 15.45 2.54722e-05H2.95C2.50237 -0.00225432 2.06742 0.148561 1.71729 0.427455C1.36715 0.706349 1.12288 1.09656 1.025 1.53336L0 5.95419V6.09169C0.00143775 6.52944 0.142396 6.95533 0.402401 7.30749C0.662405 7.65966 1.02791 7.91977 1.44583 8.05003V14.0584C1.44529 14.3416 1.5006 14.6222 1.60861 14.884C1.71662 15.1458 1.87521 15.3838 2.0753 15.5843C2.27539 15.7848 2.51304 15.9438 2.77467 16.0523C3.0363 16.1608 3.31676 16.2167 3.6 16.2167H9.35833C9.20806 15.8125 9.10869 15.3912 9.0625 14.9625V14.9625ZM2.94583 1.25003H3.5875L2.86667 6.00003V6.09169C2.87495 6.30608 2.79774 6.51497 2.65201 6.67242C2.50628 6.82988 2.30397 6.92299 2.08958 6.93128C1.8752 6.93956 1.6663 6.86235 1.50885 6.71662C1.3514 6.57089 1.25829 6.36858 1.25 6.15419L2.24583 1.81253C2.28025 1.65268 2.36861 1.50954 2.49606 1.40712C2.62352 1.3047 2.78233 1.24923 2.94583 1.25003ZM15.4458 1.25003C15.6088 1.24902 15.7671 1.3039 15.8945 1.4055C16.0219 1.5071 16.1106 1.64928 16.1458 1.80836L17.1417 6.15003C17.1213 6.35386 17.0239 6.54225 16.8694 6.67674C16.7149 6.81122 16.5149 6.88166 16.3102 6.87369C16.1055 6.86571 15.9115 6.77992 15.7679 6.63382C15.6244 6.48772 15.5419 6.29233 15.5375 6.08753L14.8083 1.25003H15.4458ZM14.2875 6.13336C14.2685 6.33641 14.1731 6.52468 14.0206 6.66004C13.8681 6.79541 13.6698 6.86777 13.4659 6.86247C13.2621 6.85718 13.0678 6.77462 12.9225 6.63152C12.7772 6.48842 12.6917 6.29546 12.6833 6.09169L12.3125 1.25003H13.5625L14.2875 6.13336ZM11.4292 6.11253C11.4121 6.31524 11.3189 6.50397 11.1683 6.64069C11.0176 6.7774 10.8208 6.85195 10.6174 6.84931C10.414 6.84667 10.2191 6.76703 10.0721 6.62645C9.92505 6.48587 9.83676 6.29478 9.825 6.09169V1.25003H11.075L11.4292 6.11253ZM8.575 6.09169C8.57776 6.30497 8.49569 6.51061 8.34683 6.66338C8.19797 6.81614 7.99453 6.90351 7.78125 6.90628C7.56797 6.90904 7.36233 6.82696 7.20957 6.67811C7.0568 6.52925 6.96943 6.3258 6.96667 6.11253L7.3375 1.25003H8.5875L8.575 6.09169ZM5.71667 6.04586V6.09169C5.72219 6.30497 5.64277 6.51171 5.49586 6.66643C5.34896 6.82114 5.14661 6.91117 4.93333 6.91669C4.72005 6.92222 4.51332 6.84279 4.3586 6.69589C4.20388 6.54899 4.11386 6.34664 4.10833 6.13336L4.85417 1.25003H6.08333L5.71667 6.04586Z" fill="#FA5858"/>
<path d="M19.8161 18.9292L17.8828 16.9875C18.5508 16.0951 18.8559 14.9828 18.7367 13.8745C18.6175 12.7662 18.0829 11.7441 17.2404 11.0142C16.398 10.2842 15.3103 9.90051 14.1963 9.94031C13.0823 9.98011 12.0247 10.4405 11.2365 11.2287C10.4483 12.0169 9.98792 13.0744 9.94813 14.1884C9.90833 15.3024 10.292 16.3902 11.022 17.2326C11.752 18.0751 12.774 18.6097 13.8823 18.7289C14.9906 18.8481 16.1029 18.543 16.9953 17.875L18.9328 19.8167C18.9911 19.8747 19.0602 19.9206 19.1362 19.9519C19.2123 19.9832 19.2937 19.9992 19.376 19.999C19.4582 19.9988 19.5395 19.9824 19.6154 19.9508C19.6913 19.9191 19.7602 19.8729 19.8182 19.8146C19.8762 19.7563 19.9222 19.6872 19.9535 19.6111C19.9848 19.5351 20.0008 19.4537 20.0006 19.3714C20.0004 19.2892 19.984 19.2079 19.9523 19.132C19.9207 19.0561 19.8744 18.9872 19.8161 18.9292V18.9292ZM11.2495 14.3667C11.2503 13.7481 11.4344 13.1437 11.7786 12.6298C12.1227 12.1158 12.6115 11.7154 13.1831 11.4791C13.7547 11.2427 14.3835 11.1811 14.9901 11.302C15.5967 11.4229 16.1539 11.7208 16.5913 12.1582C17.0287 12.5956 17.3266 13.1527 17.4475 13.7593C17.5684 14.366 17.5067 14.9948 17.2704 15.5664C17.0341 16.138 16.6337 16.6268 16.1197 16.9709C15.6058 17.3151 15.0013 17.4992 14.3828 17.5C13.5521 17.4989 12.7558 17.1684 12.1684 16.5811C11.5811 15.9937 11.2506 15.1973 11.2495 14.3667V14.3667Z" fill="#FA5858"/>
</g>
<defs>
<clipPath id="clip0_137_312">
<rect width="20" height="20" fill="white"/>
</clipPath>
</defs>
</svg>
