<svg width="20" height="20" viewBox="0 0 20 20" fill="none" xmlns="http://www.w3.org/2000/svg">
<g clip-path="url(#clip0_144_441)">
<path d="M10 1.25C11.7306 1.25 13.4223 1.76318 14.8612 2.72464C16.3002 3.6861 17.4217 5.05267 18.0839 6.65152C18.7462 8.25037 18.9195 10.0097 18.5819 11.707C18.2443 13.4044 17.4109 14.9635 16.1872 16.1872C14.9635 17.4109 13.4044 18.2443 11.707 18.5819C10.0097 18.9195 8.25038 18.7462 6.65152 18.0839C5.05267 17.4217 3.68611 16.3002 2.72465 14.8612C1.76318 13.4223 1.25001 11.7306 1.25001 10C1.25001 7.67936 2.17188 5.45376 3.81282 3.81282C5.45376 2.17187 7.67936 1.25 10 1.25M10 0C8.02219 0 6.08879 0.586487 4.4443 1.6853C2.79981 2.78412 1.51809 4.3459 0.761209 6.17317C0.00433286 8.00043 -0.193701 10.0111 0.192152 11.9509C0.578004 13.8907 1.53041 15.6725 2.92894 17.0711C4.32746 18.4696 6.10929 19.422 8.0491 19.8079C9.98891 20.1937 11.9996 19.9957 13.8268 19.2388C15.6541 18.4819 17.2159 17.2002 18.3147 15.5557C19.4135 13.9112 20 11.9778 20 10C20 7.34784 18.9464 4.80429 17.0711 2.92893C15.1957 1.05357 12.6522 0 10 0Z" fill="#FA5858"/>
<path d="M11.0381 11.7251C11.0415 11.8282 11.0041 11.9285 10.934 12.0042C10.8569 12.0722 10.7575 12.1093 10.6548 12.1084H8.96312C8.91381 12.1111 8.8645 12.1032 8.81851 12.0852C8.77251 12.0672 8.73089 12.0396 8.69646 12.0042C8.65812 11.969 8.62813 11.9257 8.60867 11.8774C8.58921 11.8291 8.58076 11.777 8.58396 11.7251V11.3084C8.57649 11.0132 8.63933 10.7204 8.76729 10.4542C8.88757 10.1983 9.0402 9.95882 9.22146 9.74174C9.40896 9.5459 9.60479 9.36257 9.81312 9.17507C10.0215 8.98757 10.2048 8.83757 10.3923 8.67923C10.5618 8.5397 10.7168 8.38335 10.8548 8.21257C10.9663 8.08907 11.0285 7.92894 11.0298 7.76257C11.0359 7.64981 11.0162 7.53714 10.9721 7.43316C10.9281 7.32918 10.8609 7.23663 10.7756 7.16257C10.5731 7.03701 10.3389 6.97195 10.1006 6.97507H9.95063C9.82652 6.97131 9.70296 6.99303 9.58758 7.0389C9.4722 7.08476 9.36745 7.1538 9.27979 7.24174C9.18744 7.33608 9.1154 7.44834 9.0681 7.5716C9.02081 7.69486 8.99926 7.8265 9.00479 7.9584V8.6084C9.00226 8.71279 8.96062 8.81242 8.88812 8.88757C8.85145 8.92399 8.80786 8.95271 8.75991 8.97203C8.71197 8.99135 8.66064 9.00088 8.60896 9.00007H6.96313C6.91297 9.00352 6.8627 8.99514 6.81638 8.9756C6.77006 8.95606 6.72899 8.9259 6.69646 8.88757C6.66094 8.85062 6.63337 8.80679 6.61546 8.75878C6.59754 8.71076 6.58966 8.65958 6.59229 8.6084V8.0209C6.58973 7.60991 6.672 7.20281 6.83396 6.82507C6.99185 6.45994 7.22466 6.13204 7.51729 5.86257C7.80294 5.58824 8.14188 5.37551 8.51313 5.23757C8.90219 5.09173 9.31429 5.01693 9.72979 5.01674H10.3423C11.1423 4.97455 11.9298 5.22816 12.5548 5.72924C12.8182 5.96113 13.0309 6.24481 13.1798 6.56257C13.3264 6.93111 13.4014 7.32426 13.4006 7.7209C13.408 8.0342 13.3644 8.34661 13.2715 8.6459C13.1961 8.88239 13.0955 9.11009 12.9715 9.32507C12.8443 9.51839 12.6915 9.69359 12.5173 9.8459C12.3548 9.9959 12.1923 10.1334 12.0423 10.2626C11.9488 10.3334 11.8636 10.4144 11.7881 10.5042C11.6715 10.6209 11.559 10.7501 11.4548 10.8751C11.3462 11.0029 11.2525 11.1427 11.1756 11.2917C11.088 11.4194 11.0401 11.5702 11.0381 11.7251V11.7251ZM10.6548 12.7667C10.7575 12.7659 10.8569 12.803 10.934 12.8709C11.0041 12.9466 11.0415 13.0469 11.0381 13.1501V14.6209C11.0412 14.6719 11.0334 14.7229 11.0152 14.7706C10.9969 14.8183 10.9687 14.8615 10.9324 14.8974C10.8961 14.9333 10.8526 14.961 10.8047 14.9788C10.7568 14.9965 10.7057 15.0037 10.6548 15.0001H8.96312C8.91381 15.0028 8.8645 14.9948 8.81851 14.9769C8.77251 14.9589 8.73089 14.9313 8.69646 14.8959C8.65976 14.8603 8.63082 14.8175 8.61146 14.7702C8.5921 14.7228 8.58274 14.672 8.58396 14.6209V13.1501C8.58076 13.0981 8.58921 13.0461 8.60867 12.9978C8.62813 12.9495 8.65812 12.9061 8.69646 12.8709C8.73151 12.8363 8.77322 12.8093 8.81907 12.7914C8.86492 12.7735 8.91393 12.7651 8.96312 12.7667H10.6548Z" fill="#FA5858"/>
</g>
<defs>
<clipPath id="clip0_144_441">
<rect width="20" height="20" fill="white"/>
</clipPath>
</defs>
</svg>
