<svg width="20" height="20" viewBox="0 0 20 20" fill="none" xmlns="http://www.w3.org/2000/svg">
<g clip-path="url(#clip0_144_501)">
<path d="M11.2506 1.25007L11.8606 3.86007L12.0106 4.46007L12.6006 4.72007C12.9478 4.86132 13.2824 5.03194 13.6006 5.23007L14.1306 5.59007L14.7606 5.41007L17.4506 4.61007L18.7006 6.61007L16.6206 8.41007L16.1406 8.83007L16.2006 9.44007C16.2006 9.65007 16.2006 9.81007 16.2006 9.96007C16.2006 10.1101 16.2006 10.2701 16.2006 10.4801L16.1406 11.1001L16.6206 11.5101L18.7006 13.3201L17.4506 15.3201L14.7606 14.5201L14.1306 14.3401L13.6006 14.6901C13.285 14.8956 12.9501 15.0698 12.6006 15.2101L12.0106 15.4701L11.8606 16.0701L11.2506 18.6701H8.7506L8.1306 16.0701L7.9906 15.4701L7.40061 15.2101C7.0511 15.0698 6.71617 14.8956 6.40061 14.6901L5.87061 14.3401L5.2406 14.5201L2.55061 15.3201L1.30061 13.3201L3.3806 11.5101L3.8606 11.1001L3.80061 10.4801C3.80061 10.2701 3.80061 10.1101 3.80061 9.96007C3.80061 9.81007 3.80061 9.65007 3.80061 9.44007L3.8606 8.83007L3.3806 8.41007L1.30061 6.61007L2.55061 4.61007L5.2406 5.41007L5.87061 5.59007L6.40061 5.23007C6.71883 5.03194 7.05337 4.86132 7.40061 4.72007L7.9906 4.46007L8.1306 3.86007L8.7506 1.25007H11.2506ZM11.3206 7.31398e-05H8.6806C8.40718 -0.00618764 8.13969 0.0803668 7.92177 0.245625C7.70385 0.410884 7.54834 0.645093 7.48061 0.910069L6.8406 3.58007C6.44067 3.75825 6.05605 3.96896 5.69061 4.21007L2.9206 3.39007C2.80467 3.3737 2.68728 3.37034 2.5706 3.38007C2.35877 3.37638 2.14962 3.42793 1.96375 3.52963C1.77789 3.63133 1.62172 3.77968 1.51061 3.96007L0.180604 6.13007C0.0425181 6.35761 -0.00920937 6.62719 0.0348445 6.88968C0.0788985 7.15216 0.215798 7.39008 0.420602 7.56007L2.5706 9.38007C2.5706 9.5934 2.5706 9.8034 2.5706 10.0101C2.5706 10.2167 2.5706 10.4267 2.5706 10.6401L0.440606 12.5001C0.235803 12.6701 0.0988951 12.908 0.0548412 13.1705C0.0107873 13.433 0.0625147 13.7025 0.200601 13.9301L1.5306 16.1001C1.64386 16.2785 1.80049 16.4252 1.98586 16.5267C2.17124 16.6281 2.37929 16.6809 2.5906 16.6801C2.71633 16.6797 2.84121 16.6595 2.9606 16.6201L5.73061 15.8001C6.09378 16.0449 6.47873 16.2558 6.8806 16.4301L7.5206 19.1101C7.58863 19.3741 7.74454 19.6071 7.96266 19.7707C8.18077 19.9343 8.44809 20.0187 8.7206 20.0101H11.3606C11.6331 20.0187 11.9004 19.9343 12.1186 19.7707C12.3367 19.6071 12.4926 19.3741 12.5606 19.1101L13.2006 16.4301C13.6025 16.2558 13.9874 16.0449 14.3506 15.8001L17.1206 16.6201C17.2398 16.6602 17.3648 16.6804 17.4906 16.6801C17.7019 16.6809 17.91 16.6281 18.0953 16.5267C18.2807 16.4252 18.4373 16.2785 18.5506 16.1001L19.8806 13.9301C20.0187 13.7025 20.0704 13.433 20.0264 13.1705C19.9823 12.908 19.8454 12.6701 19.6406 12.5001L17.5106 10.6401C17.5106 10.4401 17.5106 10.2301 17.5106 10.0101C17.5106 9.79007 17.5106 9.58007 17.5106 9.38007L19.6406 7.53007C19.8454 7.36008 19.9823 7.12216 20.0264 6.85968C20.0704 6.59719 20.0187 6.32761 19.8806 6.10007L18.5506 3.93007C18.4324 3.7492 18.2682 3.60296 18.075 3.50632C17.8817 3.40969 17.6662 3.36612 17.4506 3.38007C17.3257 3.38126 17.2014 3.39806 17.0806 3.43007L14.3106 4.25007C13.9452 4.00896 13.5605 3.79825 13.1606 3.62007L12.5706 0.910069C12.5029 0.645093 12.3474 0.410884 12.1294 0.245625C11.9115 0.0803668 11.644 -0.00618764 11.3706 7.31398e-05H11.3206Z" fill="#FA5858"/>
<path d="M9.8093 7.91996C10.3779 7.90379 10.9297 8.11361 11.3439 8.50346C11.7582 8.89331 12.001 9.43143 12.0193 9.99996C12.001 10.5694 11.7585 11.1085 11.3446 11.4999C10.9306 11.8914 10.3788 12.1034 9.8093 12.09C9.24073 12.1034 8.68999 11.891 8.27766 11.4993C7.86534 11.1076 7.62501 10.5685 7.6093 9.99996C7.61707 9.7189 7.68015 9.44212 7.79494 9.18544C7.90972 8.92877 8.07396 8.69724 8.27827 8.50407C8.48259 8.3109 8.72296 8.15989 8.98566 8.05967C9.24837 7.95944 9.52824 7.91197 9.8093 7.91996M9.8093 6.66996C9.35881 6.65663 8.91013 6.73221 8.48887 6.89238C8.06761 7.05255 7.68205 7.29417 7.35422 7.60343C7.02639 7.91268 6.76272 8.28352 6.57828 8.69473C6.39384 9.10594 6.29224 9.54947 6.2793 9.99996C6.28707 10.4543 6.38478 10.9026 6.56679 11.319C6.7488 11.7354 7.0115 12.1115 7.33971 12.4258C7.66793 12.7401 8.05516 12.9862 8.47903 13.15C8.90291 13.3137 9.35504 13.3919 9.8093 13.38C10.72 13.4042 11.6032 13.0661 12.265 12.4399C12.9268 11.8138 13.3131 10.9507 13.3393 10.04C13.3264 9.58947 13.2248 9.14593 13.0403 8.73472C12.8559 8.32351 12.5922 7.95269 12.2644 7.64343C11.9366 7.33417 11.551 7.09256 11.1297 6.93238C10.7085 6.77221 10.2598 6.69663 9.8093 6.70996V6.66996Z" fill="#FA5858"/>
</g>
<defs>
<clipPath id="clip0_144_501">
<rect width="20" height="20" fill="white"/>
</clipPath>
</defs>
</svg>
