<svg width="20" height="20" viewBox="0 0 20 20" fill="none" xmlns="http://www.w3.org/2000/svg">
<g clip-path="url(#clip0_144_458)">
<path d="M10.0005 7.98539e-06C8.55724 -0.00223377 7.15272 0.467582 6.00052 1.33802C4.84831 2.20846 4.01146 3.4319 3.61721 4.8223C3.22295 6.21271 3.29287 7.69401 3.81632 9.04098C4.33977 10.3879 5.28813 11.5269 6.51718 12.2846V16.6743C6.51882 16.9901 6.62294 17.2969 6.81384 17.5482C7.00473 17.7996 7.27206 17.9821 7.57551 18.068C7.71099 18.6094 8.0232 19.0899 8.46256 19.4332C8.90192 19.7765 9.44322 19.963 10.0005 19.963C10.5578 19.963 11.0991 19.7765 11.5385 19.4332C11.9778 19.0899 12.29 18.6094 12.4255 18.068C12.729 17.9821 12.9963 17.7996 13.1872 17.5482C13.3781 17.2969 13.4822 16.9901 13.4838 16.6743V12.2846C14.7129 11.5269 15.6612 10.3879 16.1847 9.04098C16.7082 7.69401 16.7781 6.21271 16.3838 4.8223C15.9896 3.4319 15.1527 2.20846 14.0005 1.33802C12.8483 0.467582 11.4438 -0.00223377 10.0005 7.98539e-06V7.98539e-06ZM10.0005 18.7482C9.78459 18.7463 9.57285 18.6884 9.38592 18.5802C9.19899 18.4719 9.04324 18.317 8.93384 18.1306H11.0672C10.9578 18.317 10.802 18.4719 10.6151 18.5802C10.4282 18.6884 10.2164 18.7463 10.0005 18.7482V18.7482ZM12.2338 16.6618C12.2338 16.6887 12.2286 16.7152 12.2183 16.7401C12.208 16.7649 12.193 16.7874 12.174 16.8064C12.1551 16.8254 12.1326 16.8404 12.1078 16.8507C12.083 16.861 12.0565 16.8663 12.0297 16.8663H7.97134C7.94453 16.8663 7.91798 16.861 7.89321 16.8507C7.86844 16.8404 7.84594 16.8254 7.82698 16.8064C7.80802 16.7874 7.79298 16.7649 7.78272 16.7401C7.77246 16.7152 7.76718 16.6887 7.76718 16.6618V15.6937H12.2338V16.6618ZM12.2338 13.2735V14.4419H7.76718V13.2819L12.2338 13.2735ZM10.0005 12.0301C8.93579 12.0301 7.89498 11.7139 7.00969 11.1215C6.12441 10.5291 5.43441 9.68709 5.02696 8.70198C4.61951 7.71687 4.5129 6.63288 4.72062 5.58709C4.92833 4.5413 5.44105 3.58068 6.19392 2.82671C6.94679 2.07274 7.90601 1.55927 8.95027 1.35125C9.99454 1.14323 11.0769 1.25 12.0606 1.65804C13.0443 2.06609 13.8851 2.75709 14.4766 3.64367C15.0681 4.53025 15.3838 5.57258 15.3838 6.63886C15.3816 8.06801 14.8138 9.438 13.8047 10.4486C12.7956 11.4591 11.4276 12.0278 10.0005 12.0301Z" fill="#FA5858"/>
<path d="M10.5171 8.30801H9.47544C9.44477 8.30684 9.41423 8.31261 9.3861 8.32489C9.35797 8.33718 9.33296 8.35565 9.31294 8.37894C9.29066 8.40133 9.27325 8.42808 9.26177 8.45752C9.2503 8.48695 9.24503 8.51845 9.24627 8.55003V9.443C9.24551 9.47452 9.25101 9.50587 9.26245 9.53524C9.2739 9.56462 9.29106 9.59141 9.31294 9.61408C9.33408 9.63541 9.35949 9.65202 9.38749 9.66281C9.4155 9.6736 9.44548 9.67832 9.47544 9.67667H10.5171C10.5798 9.67763 10.6407 9.65534 10.6879 9.61408C10.7098 9.59141 10.727 9.56462 10.7384 9.53524C10.7499 9.50587 10.7554 9.47452 10.7546 9.443V8.55003C10.7559 8.51845 10.7506 8.48695 10.7391 8.45752C10.7276 8.42808 10.7102 8.40133 10.6879 8.37894C10.6426 8.33355 10.5812 8.30804 10.5171 8.30801Z" fill="#FA5858"/>
<path d="M10.517 3.60945H9.47533C9.44537 3.6078 9.41539 3.61252 9.38739 3.62331C9.35938 3.6341 9.33397 3.65071 9.31283 3.67204C9.27111 3.71938 9.24749 3.78 9.24616 3.84312V7.66536C9.2454 7.69688 9.2509 7.72824 9.26234 7.75761C9.27379 7.78698 9.29095 7.81378 9.31283 7.83644C9.33376 7.85832 9.35903 7.87556 9.38702 7.88706C9.41501 7.89856 9.44509 7.90406 9.47533 7.90321H10.517C10.5802 7.90263 10.641 7.87887 10.6878 7.83644C10.7097 7.81378 10.7269 7.78698 10.7383 7.75761C10.7498 7.72824 10.7553 7.69688 10.7545 7.66536V3.84312C10.7532 3.78 10.7295 3.71938 10.6878 3.67204C10.6405 3.63078 10.5797 3.60849 10.517 3.60945V3.60945Z" fill="#FA5858"/>
<path d="M19.3759 6.01709H18.2051C18.0393 6.01709 17.8803 6.08304 17.7631 6.20042C17.6459 6.3178 17.5801 6.477 17.5801 6.643C17.5801 6.80901 17.6459 6.96821 17.7631 7.08559C17.8803 7.20297 18.0393 7.26892 18.2051 7.26892H19.3759C19.5417 7.26892 19.7006 7.20297 19.8179 7.08559C19.9351 6.96821 20.0009 6.80901 20.0009 6.643C20.0009 6.477 19.9351 6.3178 19.8179 6.20042C19.7006 6.08304 19.5417 6.01709 19.3759 6.01709Z" fill="#FA5858"/>
<path d="M18.6757 10.2692L17.6215 9.7476C17.4761 9.69581 17.3166 9.69975 17.1739 9.75866C17.0312 9.81758 16.9153 9.9273 16.8486 10.0667C16.7818 10.2061 16.7689 10.3653 16.8124 10.5136C16.8559 10.6619 16.9526 10.7889 17.084 10.8701L18.134 11.3917C18.2214 11.4326 18.3167 11.454 18.4132 11.4543C18.5537 11.4539 18.69 11.4061 18.8 11.3186C18.9101 11.2311 18.9875 11.109 19.0198 10.9721C19.052 10.8351 19.0373 10.6912 18.9779 10.5637C18.9185 10.4362 18.8179 10.3324 18.6923 10.2692H18.6757Z" fill="#FA5858"/>
<path d="M17.3456 3.60522C17.4413 3.6054 17.5356 3.5825 17.6206 3.53846L18.6748 3.01686C18.8234 2.94271 18.9365 2.81248 18.9893 2.6548C19.042 2.49711 19.0301 2.3249 18.956 2.17605C18.882 2.0272 18.7519 1.91391 18.5945 1.86108C18.437 1.80826 18.2651 1.82025 18.1164 1.8944L17.0831 2.43268C16.9553 2.49467 16.8523 2.59845 16.7912 2.72689C16.7301 2.85533 16.7145 3.00078 16.7471 3.13928C16.7796 3.27777 16.8582 3.40104 16.9701 3.48877C17.0819 3.5765 17.2202 3.62347 17.3623 3.62192L17.3456 3.60522Z" fill="#FA5858"/>
<path d="M2.42083 6.643C2.42083 6.477 2.35499 6.3178 2.23778 6.20042C2.12056 6.08304 1.96159 6.01709 1.79583 6.01709H0.625C0.45924 6.01709 0.300269 6.08304 0.183058 6.20042C0.065848 6.3178 0 6.477 0 6.643C0 6.80901 0.065848 6.96821 0.183058 7.08559C0.300269 7.20297 0.45924 7.26892 0.625 7.26892H1.79583C1.96159 7.26892 2.12056 7.20297 2.23778 7.08559C2.35499 6.96821 2.42083 6.80901 2.42083 6.643Z" fill="#FA5858"/>
<path d="M2.37877 9.74747L1.3246 10.2691C1.19907 10.3323 1.09849 10.4361 1.03908 10.5636C0.979667 10.6911 0.964903 10.835 0.997168 10.9719C1.02943 11.1089 1.10684 11.231 1.2169 11.3185C1.32696 11.4059 1.46325 11.4537 1.60377 11.4541C1.70027 11.4539 1.79554 11.4325 1.88294 11.3915L2.91627 10.8699C2.98986 10.8335 3.05557 10.7829 3.10964 10.721C3.16371 10.6592 3.20508 10.5872 3.23139 10.5093C3.2577 10.4315 3.26843 10.3492 3.26298 10.2671C3.25752 10.1851 3.23599 10.1049 3.1996 10.0312C3.16322 9.95752 3.11269 9.89171 3.05091 9.83756C2.98913 9.78341 2.9173 9.74199 2.83953 9.71564C2.76176 9.68929 2.67957 9.67854 2.59766 9.684C2.51574 9.68946 2.4357 9.71103 2.3621 9.74747H2.37877Z" fill="#FA5858"/>
<path d="M2.9162 2.43283L1.8662 1.91124C1.71757 1.83709 1.54562 1.82511 1.38816 1.87793C1.23071 1.93075 1.10066 2.04405 1.02662 2.1929C0.952581 2.34175 0.940618 2.51395 0.993363 2.67164C1.04611 2.82932 1.15924 2.95956 1.30787 3.03371L2.36204 3.5553C2.44702 3.59935 2.54135 3.62225 2.63704 3.62207C2.77909 3.62362 2.91743 3.57666 3.02927 3.48893C3.1411 3.40119 3.21975 3.27792 3.25226 3.13943C3.28477 3.00094 3.2692 2.85549 3.20811 2.72704C3.14703 2.5986 3.04407 2.49483 2.9162 2.43283V2.43283Z" fill="#FA5858"/>
</g>
<defs>
<clipPath id="clip0_144_458">
<rect width="20" height="20" fill="white"/>
</clipPath>
</defs>
</svg>
