<svg width="20" height="20" viewBox="0 0 20 20" fill="none" xmlns="http://www.w3.org/2000/svg">
<g clip-path="url(#clip0_137_304)">
<path d="M19.9996 3.6125V1.37917C19.9985 1.01373 19.8529 0.663569 19.5944 0.405163C19.336 0.146757 18.9859 0.00109907 18.6204 0L7.98711 0C7.62167 0.00109907 7.27151 0.146757 7.01311 0.405163C6.7547 0.663569 6.60904 1.01373 6.60794 1.37917V3.6125C6.60794 3.6625 6.60794 3.70833 6.60794 3.75833H6.41628C6.0505 3.75833 5.6997 3.90364 5.44106 4.16228C5.18241 4.42093 5.03711 4.77172 5.03711 5.1375V5.70417C5.44727 5.60099 5.86543 5.53269 6.28711 5.5V5.1375C6.288 5.10272 6.30165 5.06948 6.32548 5.04412C6.3493 5.01876 6.38162 5.00306 6.41628 5H14.6538V7.5H12.0829C12.4871 7.87733 12.8502 8.29632 13.1663 8.75H16.2454V11.2708H14.2871C14.3899 11.6811 14.4582 12.0992 14.4913 12.5208H16.2246V15.0417H14.2788C14.1756 15.4694 14.0362 15.8876 13.8621 16.2917H18.6204C18.8039 16.2911 18.9854 16.2541 19.1544 16.1828C19.3234 16.1115 19.4765 16.0073 19.6048 15.8762C19.7332 15.7452 19.8342 15.5899 19.902 15.4194C19.9697 15.249 20.0029 15.0667 19.9996 14.8833V12.6542C19.9991 12.3831 19.9195 12.1181 19.7704 11.8917C19.9184 11.6647 19.9979 11.4 19.9996 11.1292V8.89583C20.0013 8.71347 19.9668 8.53258 19.8983 8.36358C19.8298 8.19457 19.7285 8.04078 19.6004 7.91105C19.4722 7.78133 19.3196 7.67823 19.1514 7.60768C18.9833 7.53714 18.8028 7.50054 18.6204 7.5H18.4121C18.4164 7.45288 18.4164 7.40546 18.4121 7.35833V5.1375C18.4164 5.09038 18.4164 5.04296 18.4121 4.99583H18.6204C18.9866 4.99473 19.3374 4.8485 19.5959 4.58919C19.8544 4.32989 19.9996 3.97866 19.9996 3.6125V3.6125ZM7.98711 3.75C7.94916 3.74892 7.91313 3.73307 7.88667 3.70584C7.86022 3.67861 7.84543 3.64213 7.84544 3.60417V1.37917C7.84857 1.3438 7.86487 1.3109 7.89111 1.28698C7.91734 1.26306 7.95161 1.24986 7.98711 1.25H16.2246V3.75H7.98711ZM17.1913 7.3625C17.1913 7.40007 17.1763 7.43611 17.1498 7.46267C17.1232 7.48924 17.0872 7.50417 17.0496 7.50417H15.8913V5H17.0496C17.0872 5 17.1232 5.01493 17.1498 5.04149C17.1763 5.06806 17.1913 5.10409 17.1913 5.14167V7.3625ZM18.7621 14.8625C18.7621 14.9005 18.7473 14.9369 18.7209 14.9642C18.6944 14.9914 18.6584 15.0072 18.6204 15.0083H17.4621V12.5H18.6204C18.6584 12.5011 18.6944 12.5169 18.7209 12.5442C18.7473 12.5714 18.7621 12.6079 18.7621 12.6458V14.8625ZM18.6204 8.75C18.6584 8.75108 18.6944 8.76693 18.7209 8.79416C18.7473 8.82139 18.7621 8.85787 18.7621 8.89583V11.1292C18.7621 11.1667 18.7472 11.2028 18.7206 11.2293C18.694 11.2559 18.658 11.2708 18.6204 11.2708H17.4621V8.75H18.6204ZM17.4621 3.75V1.25H18.6204C18.658 1.25 18.694 1.26493 18.7206 1.29149C18.7472 1.31806 18.7621 1.35409 18.7621 1.39167V3.6125C18.7621 3.65047 18.7473 3.68694 18.7209 3.71417C18.6944 3.74141 18.6584 3.75725 18.6204 3.75833L17.4621 3.75Z" fill="#FA5858"/>
<path d="M6.87083 7.50001C7.98689 7.49671 9.0788 7.82475 10.0083 8.44256C10.9377 9.06038 11.6629 9.94017 12.0919 10.9705C12.5209 12.0008 12.6344 13.1353 12.4181 14.2301C12.2018 15.325 11.6653 16.3311 10.8768 17.1208C10.0882 17.9106 9.08292 18.4485 7.98835 18.6665C6.89378 18.8844 5.75915 18.7725 4.72821 18.3451C3.69726 17.9176 2.8164 17.1937 2.19721 16.2652C1.57801 15.3367 1.24836 14.2452 1.25 13.1292C1.25329 11.6387 1.84628 10.21 2.89944 9.15533C3.9526 8.10061 5.38035 7.50551 6.87083 7.50001M6.87083 6.25001C5.51144 6.25083 4.18281 6.65464 3.05286 7.41039C1.92291 8.16614 1.04237 9.23991 0.522534 10.496C0.0026982 11.7521 -0.133099 13.134 0.132308 14.4673C0.397714 15.8005 1.05241 17.0251 2.01364 17.9864C2.97488 18.9476 4.1995 19.6023 5.53274 19.8677C6.86597 20.1331 8.24795 19.9973 9.50403 19.4775C10.7601 18.9576 11.8339 18.0771 12.5896 16.9471C13.3454 15.8172 13.7492 14.4886 13.75 13.1292C13.7511 12.2255 13.5739 11.3304 13.2286 10.4953C12.8833 9.66022 12.3766 8.90143 11.7376 8.26242C11.0986 7.62341 10.3398 7.11674 9.50467 6.77142C8.66956 6.42609 7.77453 6.24891 6.87083 6.25001V6.25001Z" fill="#FA5858"/>
<path d="M6.15338 14.3874C6.22366 14.3875 6.2916 14.4126 6.34505 14.4582C6.39006 14.512 6.41508 14.5797 6.41588 14.6499V14.6957C6.41065 14.7732 6.42957 14.8503 6.47005 14.9166C6.49652 14.9729 6.53841 15.0206 6.59088 15.0541C6.63355 15.0859 6.68151 15.1098 6.73255 15.1249C6.77414 15.1284 6.81596 15.1284 6.85755 15.1249H7.05755H7.18255C7.23478 15.1063 7.28503 15.0826 7.33255 15.0541C7.38502 15.0206 7.42691 14.9729 7.45338 14.9166C7.48682 14.8479 7.50257 14.772 7.49922 14.6957V14.1374H6.32005C6.09982 14.1473 5.87996 14.1109 5.67468 14.0306C5.46941 13.9502 5.28329 13.8276 5.12838 13.6707C4.97093 13.5133 4.84751 13.3251 4.7658 13.118C4.68409 12.9108 4.64583 12.6891 4.65338 12.4666V11.4207C4.6454 11.1987 4.68349 10.9775 4.76524 10.771C4.84699 10.5645 4.97064 10.3771 5.12838 10.2207C5.28241 10.0622 5.46817 9.93789 5.67352 9.85603C5.87887 9.77418 6.09918 9.73659 6.32005 9.74573H7.41172C7.63904 9.74546 7.86466 9.78494 8.07838 9.86239C8.27756 9.94869 8.45962 10.0701 8.61588 10.2207C8.77392 10.3767 8.89748 10.5641 8.97858 10.7708C9.05968 10.9775 9.09652 11.1989 9.08672 11.4207V14.8374C9.09013 15.065 9.05055 15.2912 8.97005 15.5041C8.8831 15.6994 8.76331 15.8784 8.61588 16.0332C8.45962 16.1839 8.27756 16.3053 8.07838 16.3916C7.8652 16.471 7.63921 16.5106 7.41172 16.5082H6.41588C6.19309 16.5178 5.97077 16.4805 5.76333 16.3987C5.55589 16.3168 5.36796 16.1923 5.21172 16.0332C5.06274 15.8813 4.94522 15.7015 4.86588 15.5041C4.77896 15.2928 4.73641 15.0658 4.74088 14.8374V14.6499C4.73986 14.6142 4.74639 14.5786 4.76003 14.5456C4.77367 14.5126 4.79412 14.4828 4.82005 14.4582C4.84315 14.4343 4.87108 14.4157 4.90198 14.4035C4.93288 14.3912 4.96603 14.3858 4.99922 14.3874H6.15338ZM6.69088 11.1374H6.57422C6.52059 11.1524 6.46988 11.1764 6.42422 11.2082C6.37471 11.2433 6.33347 11.2888 6.30338 11.3416C6.27094 11.4135 6.25527 11.4919 6.25755 11.5707V12.2832C6.25223 12.3597 6.26809 12.4361 6.30338 12.5041C6.33108 12.5596 6.37271 12.607 6.42422 12.6416C6.46963 12.672 6.5206 12.6933 6.57422 12.7041C6.61297 12.7087 6.65213 12.7087 6.69088 12.7041H7.05755C7.09912 12.7082 7.14098 12.7082 7.18255 12.7041C7.23585 12.6922 7.28663 12.6711 7.33255 12.6416C7.38405 12.607 7.42569 12.5596 7.45338 12.5041C7.48867 12.4361 7.50453 12.3597 7.49922 12.2832V11.5874C7.50149 11.5085 7.48582 11.4302 7.45338 11.3582C7.4233 11.3055 7.38206 11.26 7.33255 11.2249C7.28599 11.1946 7.23553 11.1708 7.18255 11.1541H7.05755L6.69088 11.1374Z" fill="#FA5858"/>
<path d="M13.3004 11.6458H9.08789V12.8833H13.3004V11.6458Z" fill="#FA5858"/>
<path d="M13.3004 13.3708H9.08789V14.6084H13.3004V13.3708Z" fill="#FA5858"/>
</g>
<defs>
<clipPath id="clip0_137_304">
<rect width="20" height="20" fill="white"/>
</clipPath>
</defs>
</svg>
