<svg width="20" height="20" viewBox="0 0 20 20" fill="none" xmlns="http://www.w3.org/2000/svg">
<g clip-path="url(#clip0_137_369)">
<path d="M13.8336 1.09166C13.7425 1.03673 13.639 1.00564 13.5327 1.00127C13.4264 0.996897 13.3207 1.01939 13.2253 1.06666L4.13782 5.65H0.625316C0.542184 5.64943 0.459775 5.66546 0.382915 5.69714C0.306054 5.72883 0.236286 5.77552 0.177696 5.8345C0.119106 5.89348 0.0728704 5.96355 0.0416971 6.04062C0.0105239 6.11769 -0.00496085 6.2002 -0.0038505 6.28333V13.2083C-0.0038505 13.3741 0.0619975 13.5331 0.179208 13.6503C0.296418 13.7675 0.455389 13.8333 0.621149 13.8333H4.12115L13.2045 18.7583C13.2997 18.8095 13.4065 18.8351 13.5145 18.8326C13.6225 18.8302 13.728 18.7998 13.8208 18.7444C13.9136 18.6889 13.9904 18.6104 14.0437 18.5165C14.0971 18.4225 14.1252 18.3164 14.1253 18.2083V1.625C14.1253 1.51877 14.0986 1.41425 14.0477 1.32105C13.9967 1.22785 13.9231 1.14897 13.8336 1.09166V1.09166ZM1.24615 6.90833H3.65865V12.5833H1.24615V6.90833ZM12.8753 17.1583L4.90865 12.8333V6.66666L12.8795 2.64166L12.8753 17.1583Z" fill="#FA5858"/>
<path d="M19.3749 9.12085H15.9707C15.8049 9.12085 15.646 9.1867 15.5288 9.30391C15.4116 9.42112 15.3457 9.58009 15.3457 9.74585C15.3457 9.91161 15.4116 10.0706 15.5288 10.1878C15.646 10.305 15.8049 10.3708 15.9707 10.3708H19.3749C19.5406 10.3708 19.6996 10.305 19.8168 10.1878C19.934 10.0706 19.9999 9.91161 19.9999 9.74585C19.9999 9.58009 19.934 9.42112 19.8168 9.30391C19.6996 9.1867 19.5406 9.12085 19.3749 9.12085V9.12085Z" fill="#FA5858"/>
<path d="M15.9702 7.5583C16.1023 7.5586 16.2309 7.51621 16.3369 7.43746L19.416 5.1958C19.5503 5.098 19.6402 4.95087 19.666 4.78677C19.6918 4.62268 19.6513 4.45506 19.5535 4.3208C19.4557 4.18653 19.3086 4.09661 19.1445 4.07083C18.9804 4.04504 18.8128 4.0855 18.6785 4.1833L15.5994 6.42913C15.493 6.50708 15.414 6.6167 15.3737 6.74229C15.3333 6.86787 15.3338 7.003 15.375 7.12831C15.4161 7.25362 15.4959 7.3627 15.6028 7.43994C15.7097 7.51717 15.8383 7.5586 15.9702 7.5583Z" fill="#FA5858"/>
<path d="M19.416 14.2958L16.3369 12.05C16.2026 11.9522 16.035 11.9117 15.8709 11.9375C15.7068 11.9633 15.5597 12.0532 15.4619 12.1875C15.3641 12.3218 15.3236 12.4894 15.3494 12.6535C15.3752 12.8176 15.4651 12.9647 15.5994 13.0625L18.6785 15.3083C18.7858 15.3841 18.9139 15.4248 19.0452 15.425C19.1771 15.4253 19.3057 15.3839 19.4126 15.3066C19.5195 15.2294 19.5993 15.1203 19.6404 14.995C19.6816 14.8697 19.6821 14.7346 19.6417 14.609C19.6014 14.4834 19.5224 14.3738 19.416 14.2958V14.2958Z" fill="#FA5858"/>
</g>
<defs>
<clipPath id="clip0_137_369">
<rect width="20" height="17.8333" fill="white" transform="translate(0 1)"/>
</clipPath>
</defs>
</svg>
