<svg xmlns="http://www.w3.org/2000/svg" xmlns:xlink="http://www.w3.org/1999/xlink" viewBox="0 0 120 120"><defs><style>.cls-1{fill:url(#무제_그라디언트_37);}.cls-2{fill:url(#무제_그라디언트_15);}.cls-3{fill:url(#무제_그라디언트_13);}.cls-4{fill:url(#무제_그라디언트_15-2);}.cls-5{fill:url(#무제_그라디언트_13-2);}</style><linearGradient id="무제_그라디언트_37" x1="102.43" y1="102.43" x2="17.57" y2="17.57" gradientUnits="userSpaceOnUse"><stop offset="0" stop-color="#6d54d3"/><stop offset="0.48" stop-color="#17b0ff"/><stop offset="1" stop-color="#00dddb"/></linearGradient><linearGradient id="무제_그라디언트_15" x1="26.92" y1="27.17" x2="63.38" y2="64.13" gradientUnits="userSpaceOnUse"><stop offset="0" stop-color="#fff"/><stop offset="1" stop-color="#fff" stop-opacity="0.4"/></linearGradient><linearGradient id="무제_그라디언트_13" x1="-5993.96" y1="27.17" x2="-5957.5" y2="64.13" gradientTransform="matrix(-1, 0, 0, 1, -5900.88, 0)" gradientUnits="userSpaceOnUse"><stop offset="0" stop-color="#fff" stop-opacity="0.6"/><stop offset="1" stop-color="#fff"/></linearGradient><linearGradient id="무제_그라디언트_15-2" x1="-5993.96" y1="-9724.95" x2="-5957.5" y2="-9687.98" gradientTransform="translate(-5900.88 -9632.11) rotate(180)" xlink:href="#무제_그라디언트_15"/><linearGradient id="무제_그라디언트_13-2" x1="26.92" y1="-9724.95" x2="63.38" y2="-9687.98" gradientTransform="matrix(1, 0, 0, -1, 0, -9632.11)" xlink:href="#무제_그라디언트_13"/></defs><g id="레이어_2" data-name="레이어 2"><g id="레이어_1-2" data-name="레이어 1"><circle class="cls-1" cx="60" cy="60" r="60"/><path class="cls-2" d="M32.2,24V55.57l3.69,3.68H51a37.25,37.25,0,0,1,8-22.42A36,36,0,0,0,32.2,24Z"/><path class="cls-3" d="M52.52,59.25H84.11l3.69-3.68V24A36.08,36.08,0,0,0,52.52,59.25Z"/><path class="cls-4" d="M69,60.75a37.25,37.25,0,0,1-8,22.42A36,36,0,0,0,87.8,96V64.43l-3.69-3.68Z"/><path class="cls-5" d="M35.89,60.75,32.2,64.43V96A36.08,36.08,0,0,0,67.48,60.75Z"/></g></g></svg>