<svg xmlns="http://www.w3.org/2000/svg" xmlns:xlink="http://www.w3.org/1999/xlink" viewBox="0 0 40 40"><defs><style>.cls-1{fill:url(#Adsız_degrade);}.cls-2{fill:url(#Adsız_degrade_2);}.cls-3{fill:none;}</style><linearGradient id="Adsız_degrade" x1="23.5" y1="136.86" x2="23.5" y2="176.86" gradientTransform="translate(-3.5 -136.86)" gradientUnits="userSpaceOnUse"><stop offset="0" stop-color="#534bb1"/><stop offset="1" stop-color="#551bf9"/></linearGradient><linearGradient id="Adsız_degrade_2" x1="23.93" y1="144.09" x2="23.93" y2="170.48" gradientTransform="translate(-3.5 -136.86)" gradientUnits="userSpaceOnUse"><stop offset="0" stop-color="#fff"/><stop offset="1" stop-color="#fff" stop-opacity="0.82"/></linearGradient></defs><g id="레이어_2" data-name="레이어 2"><g id="레이어_2-2" data-name="레이어 2"><circle class="cls-1" cx="20" cy="20" r="20"/><path class="cls-2" d="M34.32,20.24H30.79A13.06,13.06,0,0,0,4.68,20c-.14,7.3,6.74,13.64,14.05,13.64h.93c6.46,0,15.12-5,16.47-11.18a1.83,1.83,0,0,0-1.43-2.16A1.64,1.64,0,0,0,34.32,20.24Zm-21.83.32a1.75,1.75,0,1,1-3.5,0V17.74a1.75,1.75,0,0,1,3.5,0Zm6.09,0a1.76,1.76,0,1,1-3.51,0V17.74a1.76,1.76,0,0,1,3.51,0Z"/><rect class="cls-3" width="40" height="40"/></g></g></svg>