<svg xmlns="http://www.w3.org/2000/svg" viewBox="0 0 40 40"><defs><style>.cls-1{fill:#3a99fb;}.cls-2{fill:none;}</style></defs><g id="레이어_2" data-name="레이어 2"><g id="레이어_2-2" data-name="레이어 2"><path class="cls-1" d="M8.19,12.53a17,17,0,0,1,23.62,0l.79.77a.82.82,0,0,1,0,1.16l-2.69,2.63a.42.42,0,0,1-.59,0L28.24,16a11.82,11.82,0,0,0-16.48,0L10.6,17.16a.42.42,0,0,1-.59,0L7.33,14.53a.79.79,0,0,1,0-1.15ZM37.37,18l2.39,2.34a.82.82,0,0,1,0,1.16L29,32a.85.85,0,0,1-1.18,0l-7.65-7.49a.22.22,0,0,0-.3,0L12.2,32A.85.85,0,0,1,11,32L.24,21.47a.82.82,0,0,1,0-1.16L2.63,18a.86.86,0,0,1,1.19,0l7.65,7.49a.21.21,0,0,0,.29,0L19.41,18a.85.85,0,0,1,1.18,0l7.65,7.49a.21.21,0,0,0,.29,0L36.18,18A.86.86,0,0,1,37.37,18Z"/><rect class="cls-2" width="40" height="40"/></g></g></svg>