<svg width="100" height="100" viewBox="0 0 100 100" fill="none" xmlns="http://www.w3.org/2000/svg">
<g clip-path="url(#clip0_129_20355)">
<path d="M77.24 67.23L78.04 71.51L73.69 71.86L71.99 71.99L71.86 73.69L71.51 78.04L67.23 77.24L65.55 76.93L64.98 78.54L63.52 82.65L59.59 80.77L58.05 80.04L57.08 81.45L54.61 85.04L51.3 82.21L50 81.1L48.7 82.21L45.39 85.04L42.92 81.45L41.95 80.04L40.41 80.77L36.48 82.65L35.02 78.54L34.45 76.93L32.77 77.24L28.49 78.04L28.14 73.69L28.01 71.99L26.31 71.86L21.96 71.51L22.76 67.23V67.21H20.73L19.59 73.33L26.15 73.85L26.67 80.41L33.14 79.21L35.33 85.41L41.27 82.58L45 88L50 83.73L55 88L58.73 82.58L64.67 85.41L66.86 79.21L73.33 80.41L73.85 73.85L80.41 73.33L79.27 67.21H77.24V67.23Z" fill="#616161"/>
<path d="M22.76 32.77L21.96 28.49L26.31 28.14L28.01 28.01L28.14 26.31L28.49 21.96L32.77 22.76L34.45 23.07L35.02 21.46L36.48 17.35L40.41 19.23L41.95 19.96L42.92 18.55L45.39 14.96L48.7 17.79L50 18.9L51.3 17.79L54.61 14.96L57.08 18.55L58.05 19.96L59.59 19.23L63.52 17.35L64.98 21.46L65.55 23.07L67.23 22.76L71.51 21.96L71.86 26.31L71.99 28.01L73.69 28.14L78.04 28.49L77.24 32.77V32.79H79.27L80.41 26.67L73.85 26.15L73.33 19.59L66.86 20.79L64.67 14.59L58.73 17.42L55 12L50 16.27L45 12L41.27 17.42L35.33 14.59L33.14 20.79L26.67 19.59L26.15 26.15L19.59 26.67L20.73 32.79H22.76V32.77Z" fill="#616161"/>
<path d="M50 26.0003C53.9908 25.9997 57.9187 26.9943 61.4283 28.894C64.9379 30.7937 67.9184 33.5386 70.1 36.8803L70.69 37.7903H88V62.2103H70.69L70.1 63.1203C67.9186 66.4608 64.9388 69.2049 61.4302 71.1042C57.9215 73.0035 53.9947 73.9981 50.005 73.9981C46.0153 73.9981 42.0885 73.0035 38.5798 71.1042C35.0712 69.2049 32.0914 66.4608 29.91 63.1203L29.32 62.2103H12V37.8203H29.32L29.91 36.9103C32.0907 33.57 35.0696 30.826 38.5773 28.9264C42.085 27.0267 46.0109 26.0313 50 26.0303M50 24.0303C45.6772 24.0308 41.4228 25.1092 37.6216 27.1678C33.8205 29.2264 30.5926 32.2002 28.23 35.8203H10V64.2403H28.23C30.5932 67.8594 33.8213 70.8323 37.6224 72.89C41.4235 74.9477 45.6777 76.0252 50 76.0252C54.3223 76.0252 58.5765 74.9477 62.3776 72.89C66.1787 70.8323 69.4069 67.8594 71.77 64.2403H90V35.8203H71.77C69.4074 32.2002 66.1796 29.2264 62.3784 27.1678C58.5773 25.1092 54.3228 24.0308 50 24.0303V24.0303Z" fill="#616161"/>
<path d="M50 32C53.5601 32 57.0402 33.0557 60.0003 35.0336C62.9604 37.0114 65.2675 39.8226 66.6298 43.1117C67.9922 46.4008 68.3487 50.02 67.6542 53.5117C66.9597 57.0033 65.2453 60.2106 62.7279 62.7279C60.2106 65.2453 57.0033 66.9596 53.5117 67.6541C50.02 68.3486 46.4008 67.9922 43.1117 66.6298C39.8226 65.2674 37.0115 62.9603 35.0336 60.0002C33.0557 57.0402 32 53.5601 32 50C32 45.2261 33.8965 40.6477 37.2721 37.2721C40.6478 33.8964 45.2261 32 50 32M50 30C46.0444 30 42.1776 31.173 38.8886 33.3706C35.5997 35.5682 33.0362 38.6918 31.5224 42.3463C30.0087 46.0009 29.6126 50.0222 30.3843 53.9018C31.156 57.7814 33.0608 61.3451 35.8579 64.1422C38.6549 66.9392 42.2186 68.844 46.0982 69.6157C49.9779 70.3874 53.9992 69.9914 57.6537 68.4776C61.3082 66.9638 64.4318 64.4004 66.6294 61.1114C68.827 57.8224 70 53.9556 70 50C70 44.6957 67.8929 39.6086 64.1422 35.8579C60.3914 32.1072 55.3044 30 50 30Z" fill="#448AFF"/>
<path d="M40.47 48.4299L47.87 55.8299L59.53 44.1699" stroke="#448AFF" stroke-width="4" stroke-miterlimit="10"/>
<path d="M16.04 44.1699H25.21" stroke="#448AFF" stroke-width="2" stroke-miterlimit="10"/>
<path d="M16.04 50H25.21" stroke="#448AFF" stroke-width="2" stroke-miterlimit="10"/>
<path d="M16.04 55.8301H25.21" stroke="#448AFF" stroke-width="2" stroke-miterlimit="10"/>
<path d="M83.96 44.1699H74.79" stroke="#448AFF" stroke-width="2" stroke-miterlimit="10"/>
<path d="M83.96 50H74.79" stroke="#448AFF" stroke-width="2" stroke-miterlimit="10"/>
<path d="M83.96 55.8301H74.79" stroke="#448AFF" stroke-width="2" stroke-miterlimit="10"/>
</g>
<defs>
<clipPath id="clip0_129_20355">
<rect width="80" height="76" fill="white" transform="translate(10 12)"/>
</clipPath>
</defs>
</svg>
