<svg width="100" height="100" viewBox="0 0 100 100" fill="none" xmlns="http://www.w3.org/2000/svg">
<path fill-rule="evenodd" clip-rule="evenodd" d="M72 31.8571C72 36.7038 70.4122 41.1821 67.7252 44.8064L50.0004 72.3333L32.2807 44.8144C29.5901 41.1886 28 36.7074 28 31.8571C28 19.7858 37.8497 10 50 10C62.1503 10 72 19.7858 72 31.8571ZM50 41.1667C55.0626 41.1667 59.1667 37.0626 59.1667 32C59.1667 26.9374 55.0626 22.8333 50 22.8333C44.9374 22.8333 40.8333 26.9374 40.8333 32C40.8333 37.0626 44.9374 41.1667 50 41.1667Z" fill="#448AFF"/>
<rect x="30" y="83" width="40" height="6" stroke="#616161" stroke-width="2"/>
</svg>
