<svg width="100" height="100" viewBox="0 0 100 100" fill="none" xmlns="http://www.w3.org/2000/svg">
<path d="M52.8399 72.9202H46.9199L44.9199 67.1602H54.8399L52.8399 72.9202Z" fill="#448AFF"/>
<path d="M46.9199 75.0801H52.8399L55.8399 90.0001H43.9199L46.9199 75.0801Z" fill="#448AFF"/>
<path d="M58.35 12C59.0337 12 59.7107 12.1348 60.3422 12.3968C60.9738 12.6587 61.5475 13.0426 62.0305 13.5266C62.5135 14.0105 62.8963 14.5849 63.157 15.217C63.4178 15.849 63.5513 16.5263 63.55 17.21V37.36C63.5473 39.7992 62.5772 42.1377 60.8524 43.8625C59.1277 45.5872 56.7892 46.5574 54.35 46.56H45.42C42.9799 46.5574 40.6404 45.5875 38.914 43.8631C37.1877 42.1386 36.2153 39.8001 36.21 37.36V17.21C36.21 15.8282 36.7589 14.503 37.736 13.526C38.713 12.5489 40.0382 12 41.42 12H58.35ZM58.35 10H41.42C39.5078 10 37.6739 10.7596 36.3217 12.1118C34.9696 13.4639 34.21 15.2978 34.21 17.21V37.36C34.2126 40.3313 35.3948 43.1801 37.4968 45.2802C39.5988 47.3803 42.4486 48.56 45.42 48.56H54.35C55.8208 48.56 57.2772 48.2703 58.636 47.7074C59.9949 47.1446 61.2296 46.3196 62.2696 45.2796C63.3096 44.2396 64.1346 43.0049 64.6974 41.646C65.2603 40.2872 65.55 38.8308 65.55 37.36V17.21C65.5513 16.2636 65.366 15.3263 65.0048 14.4516C64.6435 13.5769 64.1134 12.782 63.4447 12.1124C62.776 11.4427 61.9818 10.9115 61.1076 10.549C60.2334 10.1866 59.2963 10 58.35 10V10Z" fill="#616161"/>
<path d="M34.21 25.9305V23.9305C50.44 23.9305 53.63 16.2005 53.66 16.1205C53.7319 15.9341 53.8579 15.7736 54.0219 15.6595C54.1859 15.5454 54.3802 15.4831 54.58 15.4805C54.7791 15.4795 54.974 15.538 55.1397 15.6484C55.3054 15.7589 55.4343 15.9163 55.51 16.1005C55.63 16.3905 58.51 23.1905 65.51 23.1905V25.1905C59.4 25.1905 55.97 20.9805 54.51 18.5405C52.6 21.1705 47.29 25.9305 34.21 25.9305Z" fill="#616161"/>
<path d="M49.8798 64.23C49.7321 64.229 49.5865 64.1953 49.4533 64.1313C49.3202 64.0673 49.2029 63.9747 49.1098 63.86L42.3098 55.56C42.1737 55.3787 42.1031 55.1566 42.1098 54.93V47.71H44.1098V54.57L49.9098 61.65L55.7098 54.57V47.71H57.7098V54.93C57.7107 55.159 57.6331 55.3814 57.4898 55.56L50.6898 63.86C50.5926 63.98 50.4688 64.0759 50.3283 64.1401C50.1877 64.2043 50.0342 64.2351 49.8798 64.23Z" fill="#616161"/>
<path d="M83.77 91.0003H16C15.7348 91.0003 15.4804 90.895 15.2929 90.7074C15.1054 90.5199 15 90.2655 15 90.0003V75.0503C15.0047 71.8467 15.9919 68.7216 17.8283 66.0966C19.6647 63.4716 22.2621 61.473 25.27 60.3703L37.72 55.8203L38.41 57.7003L25.95 62.2503C23.3201 63.2062 21.0469 64.9462 19.4374 67.2352C17.828 69.5243 16.9598 72.2521 16.95 75.0503V89.0003H82.72V75.0503C82.714 72.2581 81.8531 69.5346 80.2531 67.2462C78.653 64.9579 76.3905 63.2144 73.77 62.2503L61.31 57.7003L62 55.8203L74.45 60.3703C77.4563 61.4754 80.052 63.4746 81.8881 66.0991C83.7241 68.7236 84.7124 71.8474 84.72 75.0503V90.0003C84.7203 90.2571 84.6219 90.5042 84.445 90.6903C84.2682 90.8765 84.0264 90.9875 83.77 91.0003Z" fill="#616161"/>
<path d="M42.5898 70C42.5001 70.0099 42.4096 70.0099 42.3199 70C42.167 69.9573 42.0265 69.8788 41.91 69.771C41.7935 69.6631 41.7043 69.5291 41.6498 69.38L37.1099 57.11C37.0517 56.9399 37.0405 56.7572 37.0775 56.5812C37.1145 56.4052 37.1982 56.2424 37.3199 56.11L42.3199 50.79L43.7698 52.17L39.1799 57.03L43.0099 67.39L49.2198 62.47L50.4698 64.04L43.1699 69.82C42.9999 69.9387 42.7972 70.0016 42.5898 70Z" fill="#616161"/>
<path d="M57.1797 69.9998C56.9554 70.0013 56.737 69.9273 56.5598 69.7898L49.2598 64.0098L50.5098 62.4398L56.7197 67.3598L60.5497 56.9998L55.9597 52.1398L57.4097 50.7598L62.4097 56.0798C62.5314 56.2122 62.6151 56.3749 62.6521 56.5509C62.6891 56.7269 62.6779 56.9096 62.6198 57.0798L58.1097 69.3498C58.0563 69.4977 57.9686 69.631 57.8539 69.7388C57.7393 69.8465 57.6008 69.9256 57.4498 69.9698C57.3611 69.9896 57.2706 69.9997 57.1797 69.9998V69.9998Z" fill="#616161"/>
<path d="M51.3397 43.7803H48.4297C48.1645 43.7803 47.9101 43.6749 47.7226 43.4874C47.5351 43.2998 47.4297 43.0455 47.4297 42.7803C47.4297 42.5151 47.5351 42.2607 47.7226 42.0732C47.9101 41.8856 48.1645 41.7803 48.4297 41.7803H51.3397C51.6049 41.7803 51.8593 41.8856 52.0468 42.0732C52.2344 42.2607 52.3397 42.5151 52.3397 42.7803C52.3397 43.0455 52.2344 43.2998 52.0468 43.4874C51.8593 43.6749 51.6049 43.7803 51.3397 43.7803Z" fill="#616161"/>
<path d="M74.9099 74.9297H63.1899V76.9297H74.9099V74.9297Z" fill="#616161"/>
<path fill-rule="evenodd" clip-rule="evenodd" d="M48.3599 36.3396H38.1099C37.8446 36.3396 37.5903 36.2343 37.4028 36.0467C37.2152 35.8592 37.1099 35.6048 37.1099 35.3396V32.3203H34.21V30.3203H37.1099V28.0996C37.1099 27.8344 37.2152 27.58 37.4028 27.3925C37.5903 27.205 37.8446 27.0996 38.1099 27.0996H48.3998C48.6651 27.0996 48.9195 27.205 49.107 27.3925C49.2945 27.58 49.3998 27.8344 49.3998 28.0996V30.3203H50.4097V28.0996C50.4097 27.8344 50.515 27.58 50.7026 27.3925C50.8901 27.205 51.1445 27.0996 51.4097 27.0996H61.6997C61.9649 27.0996 62.2193 27.205 62.4068 27.3925C62.5943 27.58 62.6997 27.8344 62.6997 28.0996V30.3203H65.5497V32.3203H62.6997V35.3396C62.6997 35.6048 62.5943 35.8592 62.4068 36.0467C62.2193 36.2343 61.9649 36.3396 61.6997 36.3396H51.4097C51.1445 36.3396 50.8901 36.2343 50.7026 36.0467C50.515 35.8592 50.4097 35.6048 50.4097 35.3396V32.3203H49.3998V35.3396C49.3999 35.4744 49.3729 35.6078 49.3201 35.7318C49.2674 35.8558 49.1901 35.9678 49.093 36.0612C48.9958 36.1546 48.8808 36.2274 48.7548 36.2753C48.6288 36.3231 48.4945 36.345 48.3599 36.3396ZM39.0699 34.3396H47.3599V29.0996H39.1099L39.0699 34.3396ZM52.4097 34.3396H60.6997V29.0996H52.4097V34.3396Z" fill="#448AFF"/>
</svg>
