<svg width="100" height="100" viewBox="0 0 100 100" fill="none" xmlns="http://www.w3.org/2000/svg">
<g clip-path="url(#clip0_129_20199)">
<path d="M21 70.3403H12.83C12.0596 70.3363 11.2975 70.1806 10.5874 69.8818C9.8773 69.5831 9.2331 69.1472 8.6916 68.5992C8.15011 68.0512 7.72197 67.4018 7.43172 66.6882C7.14146 65.9745 6.99475 65.2107 7.00001 64.4403V49.9203C6.99607 49.1507 7.14374 48.3879 7.43459 47.6754C7.72543 46.963 8.15378 46.3148 8.69514 45.7678C9.23651 45.2209 9.88027 44.7859 10.5897 44.4878C11.2992 44.1897 12.0605 44.0342 12.83 44.0303H21V70.3403ZM12.83 46.0603C11.8098 46.0682 10.8341 46.4797 10.1164 47.2049C9.39871 47.9301 8.99734 48.91 9.00002 49.9303V64.4403C8.99734 65.4606 9.39871 66.4404 10.1164 67.1656C10.8341 67.8908 11.8098 68.3023 12.83 68.3103H19V46.0503L12.83 46.0603Z" fill="#616161"/>
<path d="M87.17 70.34H79V44.04H87.17C87.9395 44.044 88.7008 44.1994 89.4103 44.4976C90.1197 44.7957 90.7635 45.2306 91.3049 45.7776C91.8462 46.3245 92.2746 46.9727 92.5654 47.6852C92.8563 48.3977 93.0039 49.1605 93 49.93V64.44C93.0053 65.2104 92.8586 65.9743 92.5683 66.6879C92.278 67.4016 91.8499 68.0509 91.3084 68.5989C90.7669 69.1469 90.1227 69.5828 89.4126 69.8816C88.7025 70.1803 87.9404 70.3361 87.17 70.34V70.34ZM81 68.34H87.17C87.6777 68.3361 88.1797 68.2321 88.6472 68.0338C89.1147 67.8356 89.5384 67.547 89.8942 67.1848C90.25 66.8225 90.5308 66.3935 90.7206 65.9225C90.9103 65.4516 91.0053 64.9478 91 64.44V49.92C91.0027 48.8997 90.6013 47.9199 89.8836 47.1947C89.1659 46.4695 88.1902 46.0579 87.17 46.05H81V68.34Z" fill="#616161"/>
<path d="M81 69.64H79V44.34C79 28.75 66 16.06 50 16.06C34 16.06 21 28.71 21 44.34V69.64H19V44.34C19 27.63 32.91 14.04 50 14.04C67.09 14.04 81 27.63 81 44.34V69.64Z" fill="#616161"/>
<path d="M67.6 82.8698H59.15V80.8698H67.6C70.6403 80.8513 73.5489 79.6265 75.6865 77.4644C77.8242 75.3024 79.016 72.3802 79 69.3398H81C81.0107 72.909 79.6064 76.3369 77.0948 78.8729C74.5833 81.4088 71.1691 82.846 67.6 82.8698Z" fill="#616161"/>
<path d="M56.0601 85.9997H43.9401C42.8421 85.9997 41.789 85.5635 41.0126 84.7871C40.2362 84.0107 39.8 82.9577 39.8 81.8597C39.8 80.7617 40.2362 79.7087 41.0126 78.9323C41.789 78.1559 42.8421 77.7197 43.9401 77.7197H56.0601C57.1581 77.7197 58.2111 78.1559 58.9875 78.9323C59.7639 79.7087 60.2001 80.7617 60.2001 81.8597C60.2001 82.9577 59.7639 84.0107 58.9875 84.7871C58.2111 85.5635 57.1581 85.9997 56.0601 85.9997V85.9997ZM43.9401 79.7497C43.4043 79.7866 42.9024 80.0254 42.5359 80.418C42.1694 80.8106 41.9656 81.3276 41.9656 81.8647C41.9656 82.4018 42.1694 82.9188 42.5359 83.3114C42.9024 83.704 43.4043 83.9429 43.9401 83.9797H56.0601C56.5959 83.9429 57.0977 83.704 57.4642 83.3114C57.8307 82.9188 58.0345 82.4018 58.0345 81.8647C58.0345 81.3276 57.8307 80.8106 57.4642 80.418C57.0977 80.0254 56.5959 79.7866 56.0601 79.7497H43.9401Z" fill="#616161"/>
<path d="M53.6699 55.6049C53.6825 55.7874 53.657 55.9705 53.595 56.1427C53.533 56.3148 53.436 56.4722 53.3099 56.6049C53.0327 56.8445 52.6763 56.9728 52.3099 56.9649H46.3099C46.1368 56.9733 45.9639 56.9456 45.8021 56.8837C45.6403 56.8217 45.4931 56.7267 45.3699 56.6049C45.2306 56.4804 45.1219 56.3253 45.0525 56.1518C44.9831 55.9783 44.9548 55.7911 44.9699 55.6049V54.1449C44.9466 53.1076 45.1694 52.0795 45.6199 51.1449C46.0454 50.2711 46.5797 49.4546 47.21 48.7149C47.8684 48.0129 48.5627 47.3453 49.2899 46.7149C50.0199 46.1449 50.6699 45.5349 51.2899 44.9649C51.8937 44.4893 52.4406 43.9457 52.9199 43.3449C53.3101 42.9108 53.5272 42.3485 53.53 41.7649C53.551 41.3702 53.4817 40.9759 53.3275 40.6121C53.1733 40.2482 52.9381 39.9242 52.6399 39.6648C51.9291 39.2244 51.1061 38.9987 50.2699 39.0149H49.7399C49.3039 39.0002 48.8694 39.0752 48.4635 39.2352C48.0576 39.3952 47.6888 39.6367 47.3799 39.9448C47.0486 40.2712 46.7886 40.6629 46.6165 41.0949C46.4444 41.527 46.3638 41.9901 46.3799 42.4549V44.7249C46.3799 45.0909 46.2346 45.4419 45.9758 45.7007C45.717 45.9595 45.3659 46.1049 44.9999 46.1049H39.21C39.0319 46.1163 38.8537 46.0851 38.6902 46.0138C38.5267 45.9424 38.3827 45.8331 38.2699 45.6948C38.1434 45.5626 38.0459 45.4053 37.9839 45.233C37.9219 45.0608 37.8967 44.8774 37.9099 44.6948V42.5849C37.8928 41.1243 38.1824 39.6765 38.7599 38.3349C39.3141 37.0556 40.1358 35.9099 41.1699 34.9749C42.1787 34.0185 43.3687 33.2739 44.6699 32.7849C46.0384 32.2718 47.4885 32.0109 48.9499 32.0149H51.1099C53.9419 31.8708 56.7272 32.779 58.9299 34.5649C59.8682 35.3971 60.6182 36.4198 61.1299 37.5649C61.6499 38.8516 61.9148 40.2271 61.9099 41.6149C61.9302 42.7117 61.7785 43.805 61.4599 44.8549C61.1693 45.6911 60.7869 46.4927 60.3199 47.2449C59.8749 47.9238 59.34 48.5394 58.7299 49.0749C58.1599 49.5949 57.5899 50.0749 57.0599 50.5649C56.731 50.8159 56.4293 51.1008 56.1599 51.4148C55.7499 51.8248 55.3499 52.2749 54.9799 52.7149C54.5921 53.1619 54.2566 53.6517 53.9799 54.1749C53.7503 54.6151 53.6432 55.109 53.6699 55.6049ZM52.3299 59.2449C52.6983 59.2357 53.0562 59.3681 53.3299 59.6149C53.4565 59.7471 53.5539 59.9045 53.6159 60.0767C53.6779 60.249 53.7031 60.4323 53.6899 60.6149V65.7549C53.7051 65.9347 53.6809 66.1156 53.6189 66.2851C53.557 66.4546 53.4588 66.6085 53.3312 66.7361C53.2036 66.8637 53.0497 66.9619 52.8802 67.0239C52.7107 67.0858 52.5297 67.1101 52.3499 67.0949H46.3499C46.1768 67.1033 46.0039 67.0756 45.8421 67.0137C45.6803 66.9517 45.5331 66.8567 45.4099 66.7349C45.2777 66.6049 45.1739 66.4489 45.105 66.2768C45.0362 66.1047 45.0038 65.9201 45.0099 65.7349V60.5849C44.9933 60.3985 45.0208 60.2108 45.0903 60.037C45.1598 59.8633 45.2693 59.7084 45.4099 59.5849C45.5311 59.4596 45.6777 59.3618 45.8398 59.298C46.002 59.2342 46.1759 59.2058 46.3499 59.2149L52.3299 59.2449Z" fill="#448AFF"/>
</g>
<defs>
<clipPath id="clip0_129_20199">
<rect width="86" height="72" fill="white" transform="translate(7 14)"/>
</clipPath>
</defs>
</svg>
