<svg width="100" height="100" viewBox="0 0 100 100" fill="none" xmlns="http://www.w3.org/2000/svg">
<g clip-path="url(#clip0_120_19472)">
<path d="M51 71.8496H49V85.1796H51V71.8496Z" fill="#616161"/>
<path d="M61.6399 84.0898H38.3599V86.0898H61.6399V84.0898Z" fill="#616161"/>
<path d="M84.09 16C85.1262 16.0026 86.1192 16.4154 86.8519 17.1481C87.5846 17.8808 87.9974 18.8738 88 19.91V66.09C87.9974 67.1262 87.5846 68.1192 86.8519 68.8519C86.1192 69.5846 85.1262 69.9974 84.09 70H15.91C14.873 70 13.8785 69.588 13.1453 68.8548C12.412 68.1215 12 67.127 12 66.09V19.91C12.0026 18.8738 12.4154 17.8808 13.1481 17.1481C13.8808 16.4154 14.8738 16.0026 15.91 16H84.09ZM84.09 14H15.91C14.3434 14.0026 12.8417 14.6261 11.7339 15.7339C10.6262 16.8417 10.0026 18.3434 10 19.91V66.09C10.0026 67.6566 10.6262 69.1583 11.7339 70.2661C12.8417 71.3738 14.3434 71.9974 15.91 72H84.09C85.6566 71.9974 87.1583 71.3738 88.2661 70.2661C89.3739 69.1583 89.9974 67.6566 90 66.09V19.91C89.9974 18.3434 89.3739 16.8417 88.2661 15.7339C87.1583 14.6261 85.6566 14.0026 84.09 14V14Z" fill="#616161"/>
<path d="M35.0799 29.2803C37.8805 29.2803 40.6182 30.1107 42.9468 31.6667C45.2754 33.2226 47.0903 35.4341 48.1621 38.0215C49.2338 40.6089 49.5142 43.456 48.9679 46.2027C48.4215 48.9495 47.0729 51.4726 45.0926 53.4529C43.1122 55.4332 40.5892 56.7818 37.8424 57.3282C35.0957 57.8746 32.2486 57.5941 29.6612 56.5224C27.0738 55.4507 24.8622 53.6357 23.3063 51.3071C21.7504 48.9785 20.9199 46.2408 20.9199 43.4403C20.9252 39.6864 22.4188 36.0879 25.0731 33.4335C27.7275 30.7791 31.3261 29.2856 35.0799 29.2803M35.0799 51.4003C36.6622 51.4003 38.2089 50.9311 39.5245 50.052C40.8401 49.173 41.8655 47.9235 42.471 46.4617C43.0765 44.9999 43.2349 43.3914 42.9262 41.8395C42.6176 40.2877 41.8556 38.8622 40.7368 37.7434C39.618 36.6246 38.1925 35.8627 36.6407 35.554C35.0888 35.2453 33.4803 35.4037 32.0185 36.0092C30.5566 36.6147 29.3072 37.6401 28.4282 38.9557C27.5491 40.2713 27.0799 41.818 27.0799 43.4003C27.0799 45.522 27.9228 47.5568 29.4231 49.0571C30.9234 50.5574 32.9582 51.4003 35.0799 51.4003ZM35.0799 27.2803C31.8838 27.2803 28.7594 28.228 26.1019 30.0037C23.4444 31.7794 21.3732 34.3033 20.1501 37.2561C18.9269 40.209 18.6069 43.4582 19.2304 46.5929C19.854 49.7277 21.3931 52.6071 23.6531 54.8671C25.9131 57.1271 28.7925 58.6662 31.9273 59.2898C35.062 59.9133 38.3113 59.5933 41.2641 58.3702C44.217 57.1471 46.7408 55.0758 48.5165 52.4183C50.2922 49.7608 51.24 46.6364 51.24 43.4403C51.2413 41.3177 50.8241 39.2158 50.0125 37.2545C49.2008 35.2933 48.0106 33.5113 46.5097 32.0105C45.0089 30.5096 43.2269 29.3193 41.2657 28.5077C39.3044 27.696 37.2025 27.279 35.0799 27.2803V27.2803ZM35.0799 49.4003C33.8932 49.4003 32.7332 49.0484 31.7465 48.3891C30.7598 47.7298 29.9908 46.7927 29.5366 45.6964C29.0825 44.6 28.9637 43.3936 29.1952 42.2297C29.4267 41.0658 29.9982 39.9967 30.8373 39.1576C31.6764 38.3185 32.7455 37.7471 33.9094 37.5156C35.0733 37.284 36.2797 37.4029 37.3761 37.857C38.4724 38.3111 39.4095 39.0802 40.0688 40.0669C40.728 41.0535 41.0799 42.2136 41.0799 43.4003C41.0799 44.9916 40.4478 46.5177 39.3226 47.6429C38.1974 48.7681 36.6712 49.4003 35.0799 49.4003Z" fill="#448AFF"/>
<path d="M77.3302 39.4805H59.2002V41.4805H77.3302V39.4805Z" fill="#616161"/>
<path d="M77.3302 50.1699H59.2002V52.1699H77.3302V50.1699Z" fill="#616161"/>
<path d="M77.3302 56.1396H59.2002V58.1396H77.3302V56.1396Z" fill="#616161"/>
<path d="M77.3302 26.8398L68.2602 33.9598L64.7102 31.6098L59.2002 36.3798H77.3302V26.8398Z" fill="#448AFF"/>
<path d="M36.0801 28.6104H34.0801V36.3904H36.0801V28.6104Z" fill="#448AFF"/>
<path d="M29.3841 47.7067L23.8828 53.208L25.297 54.6222L30.7983 49.1209L29.3841 47.7067Z" fill="#448AFF"/>
<path d="M40.7663 47.7176L39.3521 49.1318L44.8533 54.6331L46.2676 53.2189L40.7663 47.7176Z" fill="#448AFF"/>
<path d="M49.9099 42.4404H42.1299V44.4404H49.9099V42.4404Z" fill="#448AFF"/>
</g>
<defs>
<clipPath id="clip0_120_19472">
<rect width="80" height="72.09" fill="white" transform="translate(10 14)"/>
</clipPath>
</defs>
</svg>
