<svg width="24" height="24" viewBox="0 0 24 24" fill="none" xmlns="http://www.w3.org/2000/svg">
<path fill-rule="evenodd" clip-rule="evenodd" d="M16 9H8C7.44772 9 7 9.44772 7 10V17C7 17.5523 7.44772 18 8 18H16C16.5523 18 17 17.5523 17 17V10C17 9.44772 16.5523 9 16 9ZM8 8C6.89543 8 6 8.89543 6 10V17C6 18.1046 6.89543 19 8 19H16C17.1046 19 18 18.1046 18 17V10C18 8.89543 17.1046 8 16 8H8Z" fill="#616161"/>
<path fill-rule="evenodd" clip-rule="evenodd" d="M13 5H11C10.4477 5 10 5.44772 10 6V8H14V6C14 5.44772 13.5523 5 13 5ZM11 4C9.89543 4 9 4.89543 9 6V9H15V6C15 4.89543 14.1046 4 13 4H11Z" fill="#616161"/>
<path d="M13 12.5C13 13.0523 12.5523 13.5 12 13.5C11.4477 13.5 11 13.0523 11 12.5C11 11.9477 11.4477 11.5 12 11.5C12.5523 11.5 13 11.9477 13 12.5Z" fill="#616161"/>
<path d="M11.5 12.5H12.5V15.5H11.5V12.5Z" fill="#616161"/>
</svg>
