<svg width="50" height="50" viewBox="0 0 50 50" fill="none" xmlns="http://www.w3.org/2000/svg">
<rect width="50" height="50" fill="#448AFF"/>
<path fill-rule="evenodd" clip-rule="evenodd" d="M25 9.29297L30.3536 14.6465L29.6465 15.3536L25 10.7072L20.3536 15.3536L19.6465 14.6465L25 9.29297Z" fill="white"/>
<path d="M18.5717 26.065H10.5467V27.58H13.7717V37.105H15.3467V27.58H18.5717V26.065ZM24.2744 35.665C21.9044 35.665 20.3294 33.85 20.3294 31.585C20.3294 29.335 21.9044 27.52 24.2744 27.52C26.6144 27.52 28.2044 29.335 28.2044 31.585C28.2044 33.85 26.6144 35.665 24.2744 35.665ZM18.7694 31.585C18.7694 34.69 21.0344 37.225 24.2744 37.225C27.5144 37.225 29.7644 34.69 29.7644 31.585C29.7644 28.495 27.5144 25.945 24.2744 25.945C21.0344 25.945 18.7694 28.495 18.7694 31.585ZM35.8402 31.66H32.9002V27.625H35.8402C36.9502 27.625 37.8652 28.525 37.8652 29.635C37.8652 30.73 36.9502 31.66 35.8402 31.66ZM31.3252 37.105H32.9002V33.22H35.8252C37.8052 33.22 39.3802 31.6 39.3802 29.635C39.3802 27.655 37.8052 26.065 35.8252 26.065H31.3252V37.105Z" fill="white"/>
</svg>
