<svg width="100" height="100" viewBox="0 0 100 100" fill="none" xmlns="http://www.w3.org/2000/svg">
<g clip-path="url(#clip0_120_17464)">
<path d="M32.99 60.42C32.51 60.4185 32.0312 60.3716 31.56 60.28C30.2723 60.002 29.0926 59.3575 28.1628 58.4242C27.2331 57.4909 26.5931 56.3087 26.3199 55.02C26.0458 53.6786 26.1781 52.2858 26.7 51.02H15V22.21C15.0026 20.3003 15.7617 18.4695 17.1111 17.1182C18.4605 15.7669 20.2903 15.0053 22.2 15H51V30.49L49.38 29.21C48.8243 28.7675 48.1769 28.4544 47.485 28.2935C46.7931 28.1327 46.0739 28.128 45.38 28.28C44.474 28.4712 43.6427 28.9203 42.9862 29.5733C42.3297 30.2262 41.876 31.0551 41.6799 31.96V31.96C41.5323 32.6716 41.5455 33.4072 41.7185 34.1131C41.8915 34.819 42.22 35.4773 42.6799 36.04C43.1314 36.5958 43.7018 37.0433 44.349 37.3497C44.9962 37.656 45.7039 37.8133 46.4199 37.81C47.504 37.8243 48.5612 37.4719 49.4199 36.81L51.0399 35.53V51.02H39.34C39.6827 51.844 39.8595 52.7276 39.86 53.62C39.8616 54.634 39.636 55.6354 39.2 56.5508C38.7639 57.4662 38.1283 58.2723 37.34 58.91C36.1105 59.9054 34.5717 60.4395 32.99 60.42V60.42ZM16.99 49H30.48L29.22 50.62C28.7782 51.1763 28.4649 51.8233 28.3024 52.5148C28.1399 53.2063 28.1322 53.9252 28.28 54.62C28.4723 55.5254 28.9218 56.3561 29.5746 57.0124C30.2273 57.6687 31.0556 58.1227 31.96 58.32C32.6716 58.4676 33.4072 58.4545 34.113 58.2815C34.8189 58.1085 35.4772 57.78 36.0399 57.32C36.597 56.869 37.0461 56.2991 37.3541 55.6519C37.6621 55.0047 37.8213 54.2967 37.8199 53.58C37.8382 52.4953 37.4854 51.4368 36.8199 50.58L35.5399 48.96H49.0399V39.27C48.2153 39.6096 47.3317 39.7829 46.4399 39.78C45.4267 39.7835 44.4255 39.5599 43.51 39.1255C42.5945 38.6911 41.7882 38.0571 41.15 37.27C40.5051 36.4755 40.0464 35.5466 39.8076 34.5516C39.5688 33.5565 39.556 32.5206 39.77 31.52V31.52C40.0456 30.2339 40.6882 29.0553 41.62 28.127C42.5518 27.1987 43.7329 26.5606 45.02 26.29C46.3609 26.0199 47.7515 26.1485 49.02 26.66V16.96H22.22C20.8399 16.9626 19.5173 17.5127 18.5424 18.4895C17.5675 19.4663 17.02 20.79 17.02 22.17L16.99 49Z" fill="#616161"/>
<path d="M51.0001 85H22.22C20.3113 84.9973 18.4815 84.2379 17.1318 82.8882C15.7821 81.5385 15.0227 79.7087 15.02 77.8V49H30.51L29.22 50.62C28.7783 51.1762 28.4649 51.8233 28.3024 52.5148C28.1399 53.2063 28.1323 53.9252 28.28 54.62C28.4724 55.5254 28.9219 56.3561 29.5746 57.0124C30.2274 57.6687 31.0556 58.1227 31.96 58.32C32.6716 58.4683 33.4073 58.4555 34.1133 58.2825C34.8193 58.1095 35.4776 57.7806 36.04 57.32C36.5971 56.869 37.0462 56.299 37.3542 55.6518C37.6622 55.0047 37.8214 54.2967 37.82 53.58C37.8383 52.4952 37.4855 51.4368 36.82 50.58L35.54 48.96H51.04V60.66C51.8634 60.3152 52.7474 60.1384 53.6401 60.14C54.654 60.1384 55.6555 60.3639 56.5709 60.8C57.4863 61.236 58.2923 61.8716 58.93 62.66C59.573 63.4555 60.0306 64.3845 60.2693 65.3791C60.5081 66.3738 60.5219 67.4092 60.31 68.41C60.0302 69.6958 59.385 70.8734 58.4518 71.8012C57.5187 72.7291 56.3374 73.3676 55.05 73.64C53.7086 73.916 52.3154 73.7836 51.05 73.26L51.0001 85ZM17.0001 51V77.8C17.0001 79.1791 17.5479 80.5017 18.5231 81.4769C19.4983 82.4521 20.8209 83 22.2 83H49.0001V69.49L50.6201 70.77C51.1772 71.21 51.8246 71.5215 52.5161 71.6823C53.2075 71.843 53.926 71.8491 54.6201 71.7C55.5271 71.5111 56.3597 71.0628 57.0165 70.4094C57.6734 69.7561 58.1263 68.9259 58.32 68.02C58.4677 67.3083 58.4546 66.5727 58.2816 65.8669C58.1085 65.161 57.78 64.5026 57.32 63.94C56.8681 63.3839 56.2979 62.9357 55.6509 62.6277C55.004 62.3198 54.2965 62.16 53.58 62.16C52.4953 62.1417 51.4368 62.4945 50.58 63.16L49.0001 64.49V50.99H39.3C39.6427 51.814 39.8195 52.6975 39.82 53.59C39.8216 54.6039 39.5962 55.6054 39.1601 56.5208C38.724 57.4362 38.0884 58.2423 37.3 58.88C36.5068 59.5239 35.5799 59.9828 34.587 60.2232C33.594 60.4637 32.56 60.4797 31.5601 60.27C30.2724 59.9919 29.0926 59.3474 28.1629 58.4142C27.2332 57.4809 26.5931 56.2987 26.32 55.01C26.0464 53.6685 26.1787 52.2759 26.7 51.01L17.0001 51Z" fill="#616161"/>
<path d="M85.0002 51H69.5002L70.7802 49.38C71.2246 48.8253 71.5388 48.178 71.6998 47.4857C71.8607 46.7934 71.8643 46.0738 71.7101 45.38C71.5213 44.473 71.073 43.6404 70.4196 42.9835C69.7663 42.3266 68.9362 41.8738 68.0302 41.68V41.68C67.3202 41.5317 66.5859 41.5446 65.8815 41.7177C65.1772 41.8907 64.5206 42.2196 63.9601 42.68C63.4041 43.1319 62.9558 43.7021 62.6479 44.349C62.34 44.996 62.1802 45.7035 62.1801 46.42C62.1618 47.5047 62.5146 48.5632 63.1801 49.42L64.4501 51.04H48.9601V39.31C48.1355 39.6496 47.252 39.8229 46.3602 39.82C45.3469 39.8235 44.3457 39.5999 43.4302 39.1655C42.5148 38.7311 41.7083 38.0971 41.0701 37.31C40.4252 36.5155 39.9665 35.5866 39.7277 34.5916C39.4889 33.5965 39.4761 32.5606 39.6901 31.56C39.9657 30.2739 40.6083 29.0953 41.5401 28.167C42.4719 27.2387 43.653 26.6006 44.9401 26.33C46.281 26.0599 47.6716 26.1885 48.9401 26.7V15H77.7302C79.6408 15.0053 81.4716 15.7666 82.8226 17.1176C84.1736 18.4686 84.9349 20.2994 84.9401 22.21L85.0002 51ZM73.3001 49H83.0002V22.21C82.9975 20.829 82.4477 19.5054 81.4713 18.5289C80.4948 17.5524 79.1711 17.0026 77.7901 17H51.0002V30.49L49.3802 29.21C48.8221 28.7718 48.1746 28.4614 47.4835 28.3007C46.7923 28.14 46.0744 28.133 45.3802 28.28C44.4742 28.4712 43.6429 28.9203 42.9864 29.5733C42.3299 30.2262 41.8762 31.0551 41.6801 31.96C41.5325 32.6716 41.5457 33.4072 41.7187 34.1131C41.8917 34.819 42.2201 35.4773 42.6801 36.04C43.1316 36.5958 43.7019 37.0433 44.3492 37.3497C44.9964 37.656 45.7041 37.8133 46.4201 37.81C47.5042 37.8243 48.5614 37.4719 49.4201 36.81L51.0401 35.53V49.02H60.7302C60.3888 48.1959 60.2154 47.312 60.2202 46.42C60.2181 45.407 60.4424 44.4062 60.8767 43.491C61.3109 42.5758 61.9442 41.7691 62.7302 41.13C63.5257 40.487 64.4546 40.0295 65.4493 39.7907C66.444 39.552 67.4794 39.5381 68.4802 39.75C69.7671 40.0274 70.9459 40.6719 71.8741 41.6054C72.8023 42.539 73.4401 43.7215 73.7101 45.01C73.9698 46.3513 73.8271 47.7395 73.3001 49V49Z" fill="#616161"/>
<path d="M77.7899 84.9998H49V69.4898L50.62 70.7598C51.1759 71.2021 51.8229 71.5158 52.5145 71.6784C53.2061 71.8409 53.9252 71.8482 54.62 71.6998C55.5241 71.5069 56.3533 71.057 57.0079 70.4041C57.6625 69.7513 58.1146 68.9234 58.3099 68.0198V68.0198C58.4576 67.3081 58.4445 66.5725 58.2715 65.8667C58.0985 65.1608 57.7699 64.5024 57.3099 63.9398C56.858 63.3837 56.2878 62.9355 55.6409 62.6275C54.9939 62.3196 54.2865 62.1598 53.5699 62.1598C52.4852 62.1415 51.4268 62.4943 50.5699 63.1598L49 64.4898V48.9898H60.6899C60.3486 48.1657 60.1752 47.2817 60.1799 46.3898C60.18 45.3771 60.4052 44.3771 60.8394 43.4621C61.2735 42.5472 61.9056 41.7403 62.6899 41.0998C63.4859 40.4574 64.4149 40.0002 65.4094 39.7615C66.404 39.5228 67.4392 39.5086 68.4399 39.7198C69.7268 39.9972 70.9058 40.6417 71.834 41.5752C72.7622 42.5087 73.3999 43.6913 73.6699 44.9798C73.9442 46.3204 73.8155 47.7122 73.2999 48.9798H85V77.7798C85 79.6929 84.2406 81.5278 82.8888 82.8815C81.5369 84.2353 79.703 84.9971 77.7899 84.9998ZM51 82.9998H77.7899C79.17 82.9998 80.4937 82.4522 81.4705 81.4773C82.4472 80.5024 82.9974 79.1798 83 77.7998V50.9998H69.5L70.78 49.3798C71.2244 48.8251 71.5386 48.1777 71.6996 47.4855C71.8605 46.7932 71.8641 46.0736 71.71 45.3798C71.5207 44.4746 71.0735 43.6435 70.4222 42.987C69.771 42.3304 68.9435 41.8764 68.0399 41.6798C67.3283 41.5314 66.5926 41.5442 65.8866 41.7172C65.1806 41.8903 64.5223 42.2192 63.96 42.6798C63.4039 43.1317 62.9556 43.7018 62.6477 44.3488C62.3398 44.9958 62.18 45.7033 62.1799 46.4198C62.1616 47.5045 62.5145 48.5629 63.1799 49.4198L64.45 51.0398H50.96V60.7398C51.7833 60.395 52.6673 60.2182 53.5599 60.2198C54.5739 60.2182 55.5754 60.4437 56.4908 60.8798C57.4063 61.3158 58.2123 61.9514 58.85 62.7398C59.4928 63.5335 59.9502 64.4607 60.189 65.4537C60.4277 66.4468 60.4418 67.4806 60.23 68.4798C59.9527 69.7661 59.3097 70.945 58.3783 71.8746C57.4469 72.8041 56.2669 73.4449 54.98 73.7198C53.6385 73.9939 52.2458 73.8616 50.98 73.3398L51 82.9998Z" fill="#448AFF"/>
</g>
<defs>
<clipPath id="clip0_120_17464">
<rect width="70" height="70" fill="white" transform="translate(15 15)"/>
</clipPath>
</defs>
</svg>
