<?xml version="1.0" encoding="UTF-8"?><svg xmlns="http://www.w3.org/2000/svg" xmlns:xlink="http://www.w3.org/1999/xlink" viewBox="0 0 517.12 517.12"><defs><style>.f{fill:#fff;}.g{fill:none;stroke:#fff;stroke-miterlimit:10;stroke-width:5px;}.h{fill:url(#d);}.i{fill:url(#e);}</style><radialGradient id="d" cx="255" cy="514.56" fx="255" fy="514.56" r="494.07" gradientTransform="matrix(1, 0, 0, 1, 0, 0)" gradientUnits="userSpaceOnUse"><stop offset=".28" stop-color="#729eff"/><stop offset=".71" stop-color="#7a50ea"/><stop offset=".8" stop-color="#7c40e6"/></radialGradient><radialGradient id="e" cx="261.67" cy="258.56" fx="261.67" fy="258.56" r="270.03" gradientTransform="matrix(1, 0, 0, 1, 0, 0)" gradientUnits="userSpaceOnUse"><stop offset=".65" stop-color="#000" stop-opacity="0"/><stop offset="1" stop-color="#000" stop-opacity=".4"/></radialGradient></defs><g id="a"/><g id="b"><g id="c"><g><circle class="h" cx="258.56" cy="258.56" r="258.56"/><circle class="i" cx="258.56" cy="258.56" r="258.56"/><circle class="g" cx="258.56" cy="258.56" r="230.76"/><g><circle class="f" cx="234.23" cy="149.49" r="17.69"/><circle class="f" cx="234.23" cy="210.32" r="17.69"/><circle class="f" cx="185.56" cy="149.49" r="15.3"/><circle class="f" cx="331.56" cy="149.49" r="15.3" transform="translate(130.89 452.82) rotate(-80.78)"/><circle class="f" cx="234.23" cy="271.15" r="15.3"/><circle class="f" cx="234.23" cy="331.98" r="15.3"/><circle class="f" cx="282.89" cy="149.49" r="17.69" transform="translate(90.02 404.78) rotate(-80.78)"/><circle class="f" cx="282.89" cy="210.32" r="17.69" transform="translate(13.2 437.32) rotate(-76.72)"/><circle class="f" cx="282.89" cy="271.15" r="15.3"/><circle class="f" cx="282.89" cy="331.98" r="15.3"/><circle class="f" cx="380.22" cy="149.49" r="10.75" transform="translate(171.76 500.85) rotate(-80.78)"/><circle class="f" cx="331.56" cy="210.32" r="15.3"/><circle class="f" cx="380.22" cy="210.32" r="10.75" transform="translate(-37.35 330.46) rotate(-45)"/><circle class="f" cx="136.9" cy="149.49" r="10.75"/><circle class="f" cx="136.9" cy="210.32" r="10.75" transform="translate(-92.63 311.76) rotate(-80.78)"/><circle class="f" cx="234.23" cy="392.81" r="10.75" transform="translate(-201.89 530.52) rotate(-76.72)"/><circle class="f" cx="185.56" cy="210.32" r="15.3" transform="translate(-43.36 48.26) rotate(-13.28)"/><circle class="f" cx="282.89" cy="392.81" r="10.75"/></g></g></g></g></svg>