<svg xmlns="http://www.w3.org/2000/svg" viewBox="0 0 57.92 75.11"><defs><style>.cls-1{fill:#7c40e7;}</style></defs><g id="레이어_2" data-name="레이어 2"><g id="레이어_1-2" data-name="레이어 1"><path class="cls-1" d="M55.57,25.88H34.38A2.35,2.35,0,0,1,32,23.53V2.35A2.35,2.35,0,0,1,36,.69L57.23,21.87a2.35,2.35,0,0,1-1.66,4ZM36.73,21.19H49.9L36.73,8Z"/><path class="cls-1" d="M55.57,75.11H2.35A2.35,2.35,0,0,1,0,72.76V2.35A2.35,2.35,0,0,1,2.35,0h32A2.34,2.34,0,0,1,36,.69L57.23,21.87a2.36,2.36,0,0,1,.69,1.66V72.76A2.35,2.35,0,0,1,55.57,75.11ZM4.7,70.41H53.22V24.51L33.41,4.7H4.7Z"/><path class="cls-1" d="M45,39.9h-32a2.35,2.35,0,1,1,0-4.69H45a2.35,2.35,0,1,1,0,4.69Z"/><path class="cls-1" d="M45,49.93h-32a2.35,2.35,0,1,1,0-4.69H45a2.35,2.35,0,1,1,0,4.69Z"/><path class="cls-1" d="M45,60h-32a2.35,2.35,0,0,1,0-4.7H45A2.35,2.35,0,1,1,45,60Z"/></g></g></svg>