<svg xmlns="http://www.w3.org/2000/svg" viewBox="0 0 167 167.02"><defs><style>.cls-1{fill:#fff;}</style></defs><g id="레이어_2" data-name="레이어 2"><g id="레이어_1-2" data-name="레이어 1"><path class="cls-1" d="M123.41,0H43.59A43.64,43.64,0,0,0,0,43.6v79.81A43.65,43.65,0,0,0,43.59,167H68.35V108.13H46.67V82.93H68.35V60.85A30.63,30.63,0,0,1,99,30.22h21.33V54.35H105.39A10.57,10.57,0,0,0,94.82,64.92v17.8h23.6l-3.78,25H94.82V167h28.59A43.66,43.66,0,0,0,167,123.41V43.6A43.65,43.65,0,0,0,123.41,0Z"/></g></g></svg>