<svg xmlns="http://www.w3.org/2000/svg" viewBox="0 0 167 167.02"><defs><style>.cls-1{fill:#fff;}</style></defs><g id="레이어_2" data-name="레이어 2"><g id="레이어_1-2" data-name="레이어 1"><path class="cls-1" d="M123.41,0H43.59A43.64,43.64,0,0,0,0,43.6v79.81A43.65,43.65,0,0,0,43.59,167h79.82A43.66,43.66,0,0,0,167,123.41V43.6A43.65,43.65,0,0,0,123.41,0ZM54.85,120.85A37.35,37.35,0,1,1,92,83.51,37.2,37.2,0,0,1,54.85,120.85ZM114,118.63c-10.22,0-18.55-15.75-18.55-35.12S103.82,48.39,114,48.39s18.55,15.66,18.55,35.12S124.27,118.63,114,118.63ZM142.73,115c-3.62,0-6.51-14.1-6.51-31.49S139.11,52,142.73,52s6.52,14.09,6.52,31.49S146.36,115,142.73,115Z"/></g></g></svg>