<svg xmlns="http://www.w3.org/2000/svg" viewBox="0 0 118.38 105.25"><defs><style>.cls-1{fill:#fff;}</style></defs><g id="레이어_2" data-name="레이어 2"><g id="레이어_1-2" data-name="레이어 1"><path class="cls-1" d="M118.38,53.42a13,13,0,0,0-22-8.9A63.17,63.17,0,0,0,62.2,33.58L68,5.86l19,4A8.89,8.89,0,1,0,94.88.07a8.77,8.77,0,0,0-6.72,4.35L66.38.07a2.76,2.76,0,0,0-3.3,2.1v0L56.52,33.05A63.65,63.65,0,0,0,21.86,44,13,13,0,1,0,4.1,62.9a12.28,12.28,0,0,0,3.49,2.34,28.35,28.35,0,0,0,0,3.91c0,19.91,23.19,36.1,51.8,36.1s51.81-16.17,51.81-36.1a28.35,28.35,0,0,0,0-3.91A13,13,0,0,0,118.38,53.42ZM29.5,62.32a8.91,8.91,0,1,1,8.91,8.91A8.92,8.92,0,0,1,29.5,62.32ZM81.13,86.76a34.12,34.12,0,0,1-22,6.85,34.13,34.13,0,0,1-22-6.85,2.4,2.4,0,0,1,3.38-3.38A29.06,29.06,0,0,0,59.09,89a29.34,29.34,0,0,0,18.58-5.41,2.48,2.48,0,1,1,3.46,3.55h0v-.35ZM79.54,71.54a6.3,6.3,0,1,1,.38.33h-.44Z"/></g></g></svg>