<svg xmlns="http://www.w3.org/2000/svg" xmlns:xlink="http://www.w3.org/1999/xlink" viewBox="0 0 222.68 230.53"><defs><style>.cls-1{fill:url(#무제_그라디언트_40);}</style><linearGradient id="무제_그라디언트_40" x1="221.53" y1="198.17" x2="44" y2="20.65" gradientUnits="userSpaceOnUse"><stop offset="0" stop-color="aqua"/><stop offset="0.23" stop-color="#24caf8"/><stop offset="0.49" stop-color="#4798f2"/><stop offset="0.71" stop-color="#6073ee"/><stop offset="0.89" stop-color="#6f5deb"/><stop offset="1" stop-color="#7555ea"/></linearGradient></defs><g id="레이어_2" data-name="레이어 2"><g id="레이어_1-2" data-name="레이어 1"><path class="cls-1" d="M216.83,71.8h-1.59C207.75,12.82,175,0,126.06,0,97.44,0,64.52,10.69,51.58,55.18H16.15A16.17,16.17,0,0,0,0,71.33v44a16.16,16.16,0,0,0,16.15,16.15H46.42c1.21,26.46,5.53,50.29,21.22,62.8,9.4,7.5,22.11,10.1,37.85,7.77v28.49h11.7v-30.7c9.88-2.26,31.51-9.5,44.27-31l-10.07-6c-13.54,22.85-40.46,26.31-40.73,26.34v0a4.5,4.5,0,0,0-.63.07c-15.65,3.57-27.13,2.22-35.11-4.15-12.1-9.65-15.72-30.22-16.81-53.65h72.75A16.16,16.16,0,0,0,147,115.32v-.46h57.63c-1,12.89-3.24,24-6.57,31.51-1.39,3.13-3.14,6.73-5,10.59-6.94,14.3-15.58,32.09-15.58,45.63v27.94h11.7V202.59c0-10.85,8-27.3,14.41-40.51,1.95-4,3.75-7.73,5.19-11,4.78-10.8,6.8-24.66,7.61-36.24h.45a5.85,5.85,0,0,0,5.85-5.85V77.65A5.85,5.85,0,0,0,216.83,71.8ZM211,103.16H147V83.5h64ZM46.29,119.77H16.15a4.46,4.46,0,0,1-4.45-4.45v-44a4.45,4.45,0,0,1,4.45-4.44H93.69a4.44,4.44,0,0,1,4.44,4.44v44a4.45,4.45,0,0,1-4.44,4.45Zm62.85-52.88h21.73a4.45,4.45,0,0,1,4.44,4.44v44a4.46,4.46,0,0,1-4.44,4.45H109.14a15.93,15.93,0,0,0,.7-4.45v-44A15.91,15.91,0,0,0,109.14,66.89ZM126.06,11.7c43.91,0,70.58,10.39,77.38,60.1H147v-.47a16.17,16.17,0,0,0-16.14-16.15H63.71C73.16,26.05,93.77,11.7,126.06,11.7Z"/></g></g></svg>