<svg xmlns="http://www.w3.org/2000/svg" xmlns:xlink="http://www.w3.org/1999/xlink" viewBox="0 0 176.33 200.5"><defs><style>.cls-1{fill:#fff;}.cls-1,.cls-2{stroke:#434756;stroke-linejoin:round;}.cls-1,.cls-2,.cls-3,.cls-4,.cls-5{stroke-width:7px;}.cls-2,.cls-3,.cls-4,.cls-5{fill:none;}.cls-3,.cls-4,.cls-5{stroke-miterlimit:10;}.cls-3{stroke:url(#무제_그라디언트_27);}.cls-4{stroke:url(#무제_그라디언트_27-2);}.cls-5{stroke:url(#무제_그라디언트_27-3);}</style><linearGradient id="무제_그라디언트_27" x1="151.12" y1="47.37" x2="127.88" y2="24.13" gradientUnits="userSpaceOnUse"><stop offset="0" stop-color="#729fff"/><stop offset="0.13" stop-color="#748afa"/><stop offset="0.37" stop-color="#786af2"/><stop offset="0.6" stop-color="#7a53ec"/><stop offset="0.81" stop-color="#7b45e8"/><stop offset="1" stop-color="#7c40e7"/></linearGradient><linearGradient id="무제_그라디언트_27-2" x1="151.12" y1="111.87" x2="127.88" y2="88.62" xlink:href="#무제_그라디언트_27"/><linearGradient id="무제_그라디언트_27-3" x1="151.12" y1="176.37" x2="127.88" y2="153.12" xlink:href="#무제_그라디언트_27"/></defs><g id="레이어_2" data-name="레이어 2"><g id="레이어_1-2" data-name="레이어 1"><rect class="cls-1" x="3.5" y="3.5" width="169.33" height="64.5" rx="17.69"/><line class="cls-2" x1="31.06" y1="29.04" x2="31.06" y2="43.26"/><line class="cls-2" x1="51.06" y1="29.04" x2="51.06" y2="43.26"/><line class="cls-2" x1="71.06" y1="29.04" x2="71.06" y2="43.26"/><circle class="cls-3" cx="139.5" cy="35.75" r="12.94"/><rect class="cls-1" x="3.5" y="68" width="169.33" height="64.5" rx="17.69"/><line class="cls-2" x1="31.06" y1="93.54" x2="31.06" y2="107.76"/><line class="cls-2" x1="51.06" y1="93.54" x2="51.06" y2="107.76"/><line class="cls-2" x1="71.06" y1="93.54" x2="71.06" y2="107.76"/><circle class="cls-4" cx="139.5" cy="100.25" r="12.94"/><rect class="cls-1" x="3.5" y="132.5" width="169.33" height="64.5" rx="17.69"/><line class="cls-2" x1="31.06" y1="158.04" x2="31.06" y2="172.26"/><line class="cls-2" x1="51.06" y1="158.04" x2="51.06" y2="172.26"/><line class="cls-2" x1="71.06" y1="158.04" x2="71.06" y2="172.26"/><circle class="cls-5" cx="139.5" cy="164.75" r="12.94"/></g></g></svg>