<svg xmlns="http://www.w3.org/2000/svg" xmlns:xlink="http://www.w3.org/1999/xlink" viewBox="0 0 259.44 108.61"><defs><style>.cls-1{fill:#fff;stroke:#434756;stroke-linejoin:round;stroke-width:7px;}.cls-2{fill:url(#무제_그라디언트_26);}</style><linearGradient id="무제_그라디언트_26" x1="52.86" y1="54.3" x2="206.58" y2="54.3" gradientUnits="userSpaceOnUse"><stop offset="0" stop-color="#7c40e7"/><stop offset="0.19" stop-color="#7b45e8"/><stop offset="0.4" stop-color="#7a53ec"/><stop offset="0.63" stop-color="#786af2"/><stop offset="0.87" stop-color="#748afa"/><stop offset="1" stop-color="#729fff"/></linearGradient></defs><g id="레이어_2" data-name="레이어 2"><g id="레이어_1-2" data-name="레이어 1"><path class="cls-1" d="M199.11,3.5H60.33A31.14,31.14,0,0,0,29.2,34.64V74a31.14,31.14,0,0,0,31.13,31.14h16A75.52,75.52,0,0,0,129.72,83h0a75.52,75.52,0,0,0,53.4,22.12h16A31.14,31.14,0,0,0,230.24,74V34.64A31.14,31.14,0,0,0,199.11,3.5Z"/><path class="cls-2" d="M183.12,81.45a51.49,51.49,0,0,1-36.67-15.19L129.72,49.54,113,66.26A51.49,51.49,0,0,1,76.32,81.45h-16A7.48,7.48,0,0,1,52.86,74V34.64a7.48,7.48,0,0,1,7.47-7.48H199.11a7.48,7.48,0,0,1,7.47,7.48V74a7.48,7.48,0,0,1-7.47,7.48Z"/><rect class="cls-1" x="230.24" y="34.64" width="25.7" height="38.85"/><rect class="cls-1" x="3.5" y="34.64" width="25.7" height="38.85" transform="translate(32.7 108.12) rotate(-180)"/></g></g></svg>