<svg xmlns="http://www.w3.org/2000/svg" xmlns:xlink="http://www.w3.org/1999/xlink" viewBox="0 0 202.89 230.23"><defs><style>.cls-1{fill:url(#무제_그라디언트_40);}.cls-2{fill:url(#무제_그라디언트_40-2);}.cls-3{fill:url(#무제_그라디언트_40-3);}.cls-4{fill:url(#무제_그라디언트_40-4);}</style><linearGradient id="무제_그라디언트_40" x1="194.58" y1="208.25" x2="8.32" y2="21.99" gradientUnits="userSpaceOnUse"><stop offset="0" stop-color="aqua"/><stop offset="0.23" stop-color="#24caf8"/><stop offset="0.49" stop-color="#4798f2"/><stop offset="0.71" stop-color="#6073ee"/><stop offset="0.89" stop-color="#6f5deb"/><stop offset="1" stop-color="#7555ea"/></linearGradient><linearGradient id="무제_그라디언트_40-2" x1="108.33" y1="103.34" x2="94.56" y2="89.57" xlink:href="#무제_그라디언트_40"/><linearGradient id="무제_그라디언트_40-3" x1="108.33" y1="154.54" x2="94.56" y2="140.77" xlink:href="#무제_그라디언트_40"/><linearGradient id="무제_그라디언트_40-4" x1="108.33" y1="205.73" x2="94.56" y2="191.96" xlink:href="#무제_그라디언트_40"/></defs><g id="레이어_2" data-name="레이어 2"><g id="레이어_1-2" data-name="레이어 1"><path class="cls-1" d="M101.45,0C52.27,0,0,13.28,0,37.89V192.35C0,217,52.27,230.23,101.45,230.23S202.89,217,202.89,192.35V37.89C202.89,13.28,150.63,0,101.45,0Zm0,219.07c-55.94,0-90.29-15.56-90.29-26.72V159.13c18,13,54.93,19.87,90.29,19.87s72.3-6.87,90.28-19.87v33.22C191.73,203.51,157.39,219.07,101.45,219.07Zm0-207.91c55.94,0,90.28,15.57,90.28,26.73s-34.34,26.72-90.28,26.72S11.16,49.05,11.16,37.89,45.51,11.16,101.45,11.16Zm90.28,78.71c0,11.16-34.34,26.73-90.28,26.73S11.16,101,11.16,89.87v-34c18,13,54.93,19.86,90.29,19.86s72.3-6.86,90.28-19.86Zm0,51.24c0,11.16-34.34,26.73-90.28,26.73s-90.29-15.57-90.29-26.73V107.9c18,13,54.93,19.86,90.29,19.86s72.3-6.86,90.28-19.86Z"/><path class="cls-2" d="M107.33,90.87H95.57a5.58,5.58,0,0,0,0,11.16h11.76a5.58,5.58,0,0,0,0-11.16Z"/><path class="cls-3" d="M107.33,142.07H95.57a5.58,5.58,0,0,0,0,11.16h11.76a5.58,5.58,0,1,0,0-11.16Z"/><path class="cls-4" d="M107.33,193.27H95.57a5.58,5.58,0,1,0,0,11.16h11.76a5.58,5.58,0,1,0,0-11.16Z"/></g></g></svg>