<svg xmlns="http://www.w3.org/2000/svg" xmlns:xlink="http://www.w3.org/1999/xlink" viewBox="0 0 228.05 228.05"><defs><style>.cls-1,.cls-3{fill:#fff;}.cls-1,.cls-4{stroke:#434756;stroke-linejoin:round;stroke-width:7px;}.cls-2{fill:url(#무제_그라디언트_27);}.cls-3{font-size:53.51px;font-family:Rajdhani-Bold, Rajdhani;font-weight:700;}.cls-4{fill:none;}</style><linearGradient id="무제_그라디언트_27" x1="168.37" y1="168.37" x2="59.68" y2="59.68" gradientUnits="userSpaceOnUse"><stop offset="0" stop-color="#729fff"/><stop offset="0.13" stop-color="#748afa"/><stop offset="0.37" stop-color="#786af2"/><stop offset="0.6" stop-color="#7a53ec"/><stop offset="0.81" stop-color="#7b45e8"/><stop offset="1" stop-color="#7c40e7"/></linearGradient></defs><g id="레이어_2" data-name="레이어 2"><g id="레이어_1-2" data-name="레이어 1"><rect class="cls-1" x="29.36" y="29.36" width="169.33" height="169.33" rx="28.67"/><rect class="cls-2" x="55.7" y="55.7" width="116.64" height="116.64" rx="13.58"/><text class="cls-3" transform="translate(77.8 126.75)">API</text><line class="cls-4" x1="172.35" y1="17.18" x2="172.35"/><line class="cls-4" x1="152.93" y1="17.18" x2="152.93"/><line class="cls-4" x1="133.51" y1="17.18" x2="133.51"/><line class="cls-4" x1="114.09" y1="17.18" x2="114.09"/><line class="cls-4" x1="94.68" y1="17.18" x2="94.68"/><line class="cls-4" x1="75.26" y1="17.18" x2="75.26"/><line class="cls-4" x1="55.7" y1="17.18" x2="55.7"/><line class="cls-4" x1="17.18" y1="55.7" y2="55.7"/><line class="cls-4" x1="17.18" y1="75.12" y2="75.12"/><line class="cls-4" x1="17.18" y1="94.54" y2="94.54"/><line class="cls-4" x1="17.18" y1="113.95" y2="113.95"/><line class="cls-4" x1="17.18" y1="133.37" y2="133.37"/><line class="cls-4" x1="17.18" y1="152.79" y2="152.79"/><line class="cls-4" x1="17.18" y1="172.35" y2="172.35"/><line class="cls-4" x1="55.7" y1="210.86" x2="55.7" y2="228.05"/><line class="cls-4" x1="75.12" y1="210.86" x2="75.12" y2="228.05"/><line class="cls-4" x1="94.54" y1="210.86" x2="94.54" y2="228.05"/><line class="cls-4" x1="113.95" y1="210.86" x2="113.95" y2="228.05"/><line class="cls-4" x1="133.37" y1="210.86" x2="133.37" y2="228.05"/><line class="cls-4" x1="152.79" y1="210.86" x2="152.79" y2="228.05"/><line class="cls-4" x1="172.35" y1="210.86" x2="172.35" y2="228.05"/><line class="cls-4" x1="210.86" y1="172.35" x2="228.05" y2="172.35"/><line class="cls-4" x1="210.86" y1="152.93" x2="228.05" y2="152.93"/><line class="cls-4" x1="210.86" y1="133.51" x2="228.05" y2="133.51"/><line class="cls-4" x1="210.86" y1="114.09" x2="228.05" y2="114.09"/><line class="cls-4" x1="210.86" y1="94.68" x2="228.05" y2="94.68"/><line class="cls-4" x1="210.86" y1="75.26" x2="228.05" y2="75.26"/><line class="cls-4" x1="210.86" y1="55.7" x2="228.05" y2="55.7"/></g></g></svg>