<svg xmlns="http://www.w3.org/2000/svg" xmlns:xlink="http://www.w3.org/1999/xlink" viewBox="0 0 240.7 214.69"><defs><style>.cls-1{fill:url(#무제_그라디언트_41);}</style><radialGradient id="무제_그라디언트_41" cx="120.35" cy="134.51" r="114.03" gradientUnits="userSpaceOnUse"><stop offset="0" stop-color="aqua"/><stop offset="0.23" stop-color="#24caf8"/><stop offset="0.49" stop-color="#4798f2"/><stop offset="0.71" stop-color="#6073ee"/><stop offset="0.89" stop-color="#6f5deb"/><stop offset="1" stop-color="#7555ea"/></radialGradient></defs><g id="레이어_2" data-name="레이어 2"><g id="레이어_1-2" data-name="레이어 1"><path class="cls-1" d="M184.36,99.47a6.32,6.32,0,0,0-.43-1c-.09-.14-.21-.26-.3-.39a6.2,6.2,0,0,0-.62-.81c-.11-.11-.25-.18-.36-.28a6.33,6.33,0,0,0-.83-.64L123.31,62.08a5.84,5.84,0,0,0-5.91,0L58.89,96.31a5.89,5.89,0,0,0-.84.65c-.11.09-.25.17-.35.27a6.37,6.37,0,0,0-.63.82c-.09.13-.21.24-.29.38a5.36,5.36,0,0,0-.45,1.08c0,.11-.1.21-.13.32a5.94,5.94,0,0,0-.2,1.53v67.46a5.85,5.85,0,0,0,2.89,5.05L117.4,208.1h0a210.07,210.07,0,0,1,1.41.58,5.89,5.89,0,0,0,1.5.2,6,6,0,0,0,1.51-.2,5.39,5.39,0,0,0,.75-.31,4.67,4.67,0,0,0,.65-.27h0l58.51-34.23a5.85,5.85,0,0,0,2.89-5.05V101.36a5.94,5.94,0,0,0-.2-1.53C184.47,99.7,184.4,99.59,184.36,99.47Zm-17.09,1.89L120.35,128.8,73.44,101.36l46.91-27.45ZM67.7,111.56l46.8,27.37v53.91L67.7,165.46Zm58.51,81.28V138.93L173,111.56v53.9ZM106.56,27.33,98.31,19,115.77,1.7A5.86,5.86,0,0,1,119.9,0h0a5.87,5.87,0,0,1,4.13,1.73l17.17,17.33L132.9,27.3l-7.15-7.23V49.85H114V19.9Zm133.2,179.74a5.87,5.87,0,0,1-3.69,2.54l-23.85,5.08-2.44-11.45,9.94-2.12L194.66,185l6.33-9.85,25.2,16.19L224,181.05l11.45-2.45,5.14,24.06A5.82,5.82,0,0,1,239.76,207.07ZM46,185,21,201.12l10,2.12-2.44,11.45L4.63,209.61a5.85,5.85,0,0,1-4.5-7L5.28,178.6l11.44,2.45-2.2,10.32,25.2-16.19Z"/></g></g></svg>