<svg xmlns="http://www.w3.org/2000/svg" xmlns:xlink="http://www.w3.org/1999/xlink" viewBox="0 0 241.47 241.46"><defs><style>.cls-1{fill:url(#무제_그라디언트_40);}</style><linearGradient id="무제_그라디언트_40" x1="206.09" y1="206.07" x2="35.38" y2="35.37" gradientUnits="userSpaceOnUse"><stop offset="0" stop-color="aqua"/><stop offset="0.23" stop-color="#24caf8"/><stop offset="0.49" stop-color="#4798f2"/><stop offset="0.71" stop-color="#6073ee"/><stop offset="0.89" stop-color="#6f5deb"/><stop offset="1" stop-color="#7555ea"/></linearGradient></defs><g id="레이어_2" data-name="레이어 2"><g id="레이어_1-2" data-name="레이어 1"><path class="cls-1" d="M239.86,101.13a5.85,5.85,0,0,0-4.72-4.82l-22.22-4.08a96.29,96.29,0,0,0-6.86-16.52L218.88,57.1a5.85,5.85,0,0,0-.06-6.74,121,121,0,0,0-27.73-27.72,5.85,5.85,0,0,0-6.73-.07L165.75,35.4a95.31,95.31,0,0,0-16.52-6.86L145.15,6.31a5.85,5.85,0,0,0-4.82-4.71,121,121,0,0,0-39.19,0,5.83,5.83,0,0,0-4.82,4.71L92.24,28.54A95.73,95.73,0,0,0,75.71,35.4L57.11,22.57a5.85,5.85,0,0,0-6.73.07A121,121,0,0,0,22.65,50.36a5.86,5.86,0,0,0-.07,6.74L35.41,75.71a96,96,0,0,0-6.86,16.52L6.32,96.31a5.86,5.86,0,0,0-4.71,4.81,120.17,120.17,0,0,0,0,39.21,5.86,5.86,0,0,0,4.71,4.81l22.23,4.08a96,96,0,0,0,6.86,16.52L22.58,184.35a5.85,5.85,0,0,0,.07,6.73,121,121,0,0,0,27.73,27.73,5.87,5.87,0,0,0,6.73.07l18.61-12.83a96.29,96.29,0,0,0,16.52,6.86l4.08,22.22a5.86,5.86,0,0,0,4.81,4.72,120.11,120.11,0,0,0,39.2,0,5.87,5.87,0,0,0,4.82-4.72l4.08-22.22a96,96,0,0,0,16.52-6.86l18.61,12.83a5.87,5.87,0,0,0,6.73-.07,121,121,0,0,0,27.73-27.73,5.83,5.83,0,0,0,.06-6.73l-12.82-18.61a96.29,96.29,0,0,0,6.86-16.52l22.22-4.08a5.85,5.85,0,0,0,4.72-4.82,120,120,0,0,0,0-39.19Zm-11,33.26-21.66,4a5.87,5.87,0,0,0-4.6,4.25,84.85,84.85,0,0,1-8.52,20.54,5.84,5.84,0,0,0,.24,6.25l12.5,18.13a109.1,109.1,0,0,1-19.32,19.33l-18.13-12.51a5.86,5.86,0,0,0-6.25-.24,84.29,84.29,0,0,1-20.54,8.52,5.86,5.86,0,0,0-4.25,4.59l-4,21.66a107.22,107.22,0,0,1-27.32,0l-4-21.66a5.84,5.84,0,0,0-4.25-4.59,84.39,84.39,0,0,1-20.53-8.52,5.88,5.88,0,0,0-6.26.24L53.93,206.86A109.83,109.83,0,0,1,34.6,187.53L47.11,169.4a5.84,5.84,0,0,0,.24-6.25,84.32,84.32,0,0,1-8.53-20.54,5.86,5.86,0,0,0-4.59-4.25l-21.66-4a107.75,107.75,0,0,1,0-27.33l21.66-4a5.87,5.87,0,0,0,4.59-4.25A84.32,84.32,0,0,1,47.35,78.3a5.84,5.84,0,0,0-.24-6.25L34.6,53.91A109.44,109.44,0,0,1,53.93,34.59L72.05,47.1a5.88,5.88,0,0,0,6.26.24,84.36,84.36,0,0,1,20.54-8.52,5.87,5.87,0,0,0,4.24-4.6l4-21.66a108.6,108.6,0,0,1,27.32,0l4,21.66a5.88,5.88,0,0,0,4.25,4.6,84.13,84.13,0,0,1,20.53,8.52,5.88,5.88,0,0,0,6.26-.24l18.13-12.51a109.38,109.38,0,0,1,19.32,19.32l-12.5,18.14a5.84,5.84,0,0,0-.24,6.25,84.85,84.85,0,0,1,8.52,20.54,5.89,5.89,0,0,0,4.6,4.25l21.66,4a107.75,107.75,0,0,1,0,27.33Zm-108.17-82a68.33,68.33,0,1,0,68.34,68.33A68.42,68.42,0,0,0,120.73,52.39Zm0,125a56.63,56.63,0,1,1,56.63-56.63A56.69,56.69,0,0,1,120.73,177.35Zm34.44-75.2a7.21,7.21,0,0,0-.43-1c-.09-.14-.21-.26-.3-.4a6.84,6.84,0,0,0-.62-.8c-.11-.11-.25-.18-.37-.28a5.29,5.29,0,0,0-.83-.65L123.69,82.07a5.84,5.84,0,0,0-5.91,0L88.85,99a5.46,5.46,0,0,0-.85.65c-.11.1-.24.17-.35.28a5.43,5.43,0,0,0-.62.81c-.1.14-.22.25-.3.39a6.83,6.83,0,0,0-.45,1.08c0,.11-.1.21-.13.32A5.92,5.92,0,0,0,86,104v33.37a5.84,5.84,0,0,0,2.9,5.05l28.93,16.92,0,0h0a5.32,5.32,0,0,0,.66.26,4.4,4.4,0,0,0,.75.31,5.76,5.76,0,0,0,3,0,6,6,0,0,0,.7-.28c.24-.1.48-.17.71-.29h0l0,0,28.93-16.92a5.84,5.84,0,0,0,2.9-5.05V104a5.92,5.92,0,0,0-.2-1.52C155.28,102.39,155.21,102.28,155.17,102.15ZM138.08,104l-17.35,10.15L103.39,104,120.73,93.9ZM97.65,114.25l17.23,10.07v19.81L97.65,134.05Zm28.94,29.88V124.32l17.23-10.07v19.8Z"/></g></g></svg>