<svg xmlns="http://www.w3.org/2000/svg" xmlns:xlink="http://www.w3.org/1999/xlink" viewBox="0 0 218.52 219.77"><defs><style>.cls-1{fill:url(#무제_그라디언트_40);}</style><linearGradient id="무제_그라디언트_40" x1="197.93" y1="237.34" x2="21.06" y2="60.46" gradientUnits="userSpaceOnUse"><stop offset="0" stop-color="aqua"/><stop offset="0.23" stop-color="#24caf8"/><stop offset="0.49" stop-color="#4798f2"/><stop offset="0.71" stop-color="#6073ee"/><stop offset="0.89" stop-color="#6f5deb"/><stop offset="1" stop-color="#7555ea"/></linearGradient></defs><g id="레이어_2" data-name="레이어 2"><g id="레이어_1-2" data-name="레이어 1"><path class="cls-1" d="M217.77,211.92l-20.76-34L182.7,154.43l-13.11-21.5a5.16,5.16,0,0,0-4.41-2.47H56.79a5.18,5.18,0,0,0-4.33,2.34l-14,21.49L23.08,177.75l-22.24,34a5.17,5.17,0,0,0,4.32,8h208.2a5.17,5.17,0,0,0,4.41-7.85ZM77.18,209.44l5.75-23.7h53.14l5.37,23.7Zm48.71-68.66L128.42,152H91.13l2.71-11.17ZM85.44,175.41l3.19-13.13h42.13l3,13.13Zm58.88,0-.22-1-2.75-12.16h34l8,13.13ZM45.53,162.28H78l-3.19,13.13H37ZM139,152l-2.53-11.17h25.8L169.1,152ZM83.22,140.78,80.51,152H52.28l7.3-11.17Zm-53,45H72.31l-5.75,23.7H14.7ZM152,209.44l-5.37-23.7h43.05l14.46,23.7ZM59.31,87.67l48.26,22.15a4.75,4.75,0,0,0,.49.17c.13,0,.24.09.37.12a4.78,4.78,0,0,0,2.6,0c.12,0,.24-.08.36-.12a4,4,0,0,0,.49-.17l48.27-22.15a5.18,5.18,0,0,0,3-4.7V27.32a4.85,4.85,0,0,0-.2-1.38c0-.15-.11-.27-.16-.41a5,5,0,0,0-.39-.85,3.08,3.08,0,0,0-.3-.41,4.44,4.44,0,0,0-.56-.66,3.54,3.54,0,0,0-.42-.35c-.12-.09-.22-.21-.34-.29s-.25-.11-.37-.17-.17-.13-.26-.17L111.88.47a5.15,5.15,0,0,0-4.31,0L59.31,22.63c-.1,0-.17.12-.27.17s-.25.1-.37.17-.22.2-.33.29a3.65,3.65,0,0,0-.43.35,4.44,4.44,0,0,0-.56.66,4.33,4.33,0,0,0-.3.41,5,5,0,0,0-.39.85c0,.14-.12.26-.16.41a4.85,4.85,0,0,0-.2,1.38V83A5.19,5.19,0,0,0,59.31,87.67Zm7.31-52.3,37.95,17.42V97.08L66.62,79.66Zm48.27,61.71V52.79l37.94-17.42V79.66Zm30.73-69.76L109.73,43.8,73.83,27.32l35.9-16.48Z"/></g></g></svg>