<svg xmlns="http://www.w3.org/2000/svg" xmlns:xlink="http://www.w3.org/1999/xlink" viewBox="0 0 228.5 228.49"><defs><style>.cls-1{fill:url(#무제_그라디언트_40);}</style><linearGradient id="무제_그라디언트_40" x1="172.58" y1="172.57" x2="55.92" y2="55.92" gradientUnits="userSpaceOnUse"><stop offset="0" stop-color="aqua"/><stop offset="0.23" stop-color="#24caf8"/><stop offset="0.49" stop-color="#4798f2"/><stop offset="0.71" stop-color="#6073ee"/><stop offset="0.89" stop-color="#6f5deb"/><stop offset="1" stop-color="#7555ea"/></linearGradient></defs><g id="레이어_2" data-name="레이어 2"><g id="레이어_1-2" data-name="레이어 1"><path class="cls-1" d="M41.68,86.59,14,114.25,41.68,141.9l-8.22,8.21L1.7,118.36a5.82,5.82,0,0,1,0-8.22L33.46,78.38Zm185.11,23.55L195,78.38l-8.21,8.21,27.65,27.66L186.82,141.9l8.21,8.21,31.76-31.75A5.81,5.81,0,0,0,226.79,110.14ZM114.25,14,141.9,41.68l8.22-8.22L118.36,1.7a5.81,5.81,0,0,0-8.22,0L78.38,33.46l8.22,8.22Zm0,200.45L86.6,186.82,78.38,195l31.76,31.76a5.82,5.82,0,0,0,8.22,0L150.12,195l-8.22-8.21Zm62.5-141V155a5.81,5.81,0,0,1-5.81,5.81H57.56a6.08,6.08,0,0,1-1.42-.19l-.37-.12a5.67,5.67,0,0,1-1-.42,3.3,3.3,0,0,1-.32-.18,5.14,5.14,0,0,1-1.06-.85,1.63,1.63,0,0,1-.17-.2,5.23,5.23,0,0,1-.68-.94l-.13-.17a1.89,1.89,0,0,1-.06-.18,5.4,5.4,0,0,1-.43-1.16,1.27,1.27,0,0,1-.06-.18,6.08,6.08,0,0,1-.13-1.22V73.47a5.81,5.81,0,0,1,5.81-5.81H170.94A5.81,5.81,0,0,1,176.75,73.47Zm-11.62,5.81H63.37v56.61l22.15-33.11a6,6,0,0,1,9.66,0l20.31,30.36,10.64-14.93a5.8,5.8,0,0,1,9.46,0l22.07,31h7.47Zm-61.07,69.93,4.23-5.94L90.35,116.46,68.43,149.21Zm39.33,0L130.86,131.6l-12.54,17.61Zm-9.62-52.59A14.42,14.42,0,1,1,148.19,111,14.44,14.44,0,0,1,133.77,96.62Zm11.62,0a2.81,2.81,0,1,0,2.8-2.8A2.8,2.8,0,0,0,145.39,96.62Z"/></g></g></svg>