<svg xmlns="http://www.w3.org/2000/svg" viewBox="0 0 112.1 90.09"><defs><style>.cls-1{fill:#fff;}</style></defs><g id="레이어_2" data-name="레이어 2"><g id="레이어_1-2" data-name="레이어 1"><path class="cls-1" d="M111.8,11.89a56.49,56.49,0,0,1-7.87,8.91c-3.19,2.9-2.63,4.87-2.94,8.83A69.66,69.66,0,0,1,97.35,47,66,66,0,0,1,77.71,75.51C56.36,93.71,23.42,94.49,0,80c17.25.74,25-2.81,34-9.45-9-1.3-17.11-3.72-21.54-16.09a17.56,17.56,0,0,0,10.08-.13C14.18,51.66,4.4,47.63,4.4,31.62c3.53,2.12,8.29,3,10.36,2.74C3.55,26.57,2.64,13.55,7.74,3.84,15,14.6,41.6,29.7,53.72,27,52.38,16.15,58.24,5.13,69,1.45a25.63,25.63,0,0,1,18.11.42,20.22,20.22,0,0,1,6.49,4.21,1.79,1.79,0,0,0,.93.62,1.63,1.63,0,0,0,.79,0,81.1,81.1,0,0,0,12.59-5.11c.73-.41-3.71,10.14-9.77,12.7a100.6,100.6,0,0,0,11.77-3.67,2.39,2.39,0,0,1,1.54-.2C112.08,10.57,112.34,11.15,111.8,11.89Z"/></g></g></svg>