<svg width="22" height="22" viewBox="0 0 22 22" fill="none" xmlns="http://www.w3.org/2000/svg">
<path fill-rule="evenodd" clip-rule="evenodd" d="M11 21C16.5228 21 21 16.5228 21 11C21 5.47715 16.5228 1 11 1C5.47715 1 1 5.47715 1 11C1 16.5228 5.47715 21 11 21ZM11 22C17.0751 22 22 17.0751 22 11C22 4.92487 17.0751 0 11 0C4.92487 0 0 4.92487 0 11C0 17.0751 4.92487 22 11 22Z" fill="#D7DBE0"/>
<path fill-rule="evenodd" clip-rule="evenodd" d="M15.9507 7.76753C16.3342 8.16495 16.3229 8.79801 15.9255 9.18152L9.9842 14.9146L6.09034 11.3113C5.68498 10.9361 5.66047 10.3035 6.03558 9.8981C6.41069 9.49275 7.04338 9.46823 7.44874 9.84335L9.95544 12.1631L14.5367 7.74231C14.9341 7.35881 15.5672 7.3701 15.9507 7.76753Z" fill="#D7DBE0"/>
</svg>
