<svg width="64" height="64" viewBox="0 0 64 64" fill="none" xmlns="http://www.w3.org/2000/svg">
<path d="M32 61C16.0159 61 3 47.9841 3 32C3 16.0159 16.0159 3 32 3C47.9841 3 61 16.0159 61 32C61 47.9841 47.9841 61 32 61Z" fill="black"/>
<path fill-rule="evenodd" clip-rule="evenodd" d="M32 64C14.359 64 0 49.641 0 32C0 14.359 14.359 0 32 0C49.641 0 64 14.359 64 32C64 49.641 49.641 64 32 64ZM3 32C3 47.9841 16.0159 61 32 61C47.9841 61 61 47.9841 61 32C61 16.0159 47.9841 3 32 3C16.0159 3 3 16.0159 3 32Z" fill="#F5F7FA"/>
<path d="M31.9993 36.4617C30.7668 36.4617 29.7686 35.5258 29.7686 34.3704V21.8223C29.7686 20.6668 30.7668 19.731 31.9993 19.731C33.2318 19.731 34.2301 20.6668 34.2301 21.8223V34.3704C34.2301 35.5258 33.2318 36.4617 31.9993 36.4617Z" fill="white"/>
<path d="M31.9993 44.2689C33.2313 44.2689 34.2301 43.2702 34.2301 42.0381C34.2301 40.8061 33.2313 39.8074 31.9993 39.8074C30.7673 39.8074 29.7686 40.8061 29.7686 42.0381C29.7686 43.2702 30.7673 44.2689 31.9993 44.2689Z" fill="white"/>
</svg>
