<svg xmlns="http://www.w3.org/2000/svg" viewBox="0 0 30 30"><defs><style>.cls-1{fill:#fff;}.cls-2{fill:none;}</style></defs><g id="레이어_2" data-name="레이어 2"><g id="레이어_1-2" data-name="레이어 1"><path class="cls-1" d="M24.31,14.28H16.89V3.45h-1V14.28h-1V3.45h-1V14.28h-1V3.45h-1V14.28H4.44a.5.5,0,0,0-.5.5A10.42,10.42,0,0,0,9.47,24v2.57a.5.5,0,0,0,.5.5h8.81a.5.5,0,0,0,.5-.5V24a10.44,10.44,0,0,0,5.53-9.2A.5.5,0,0,0,24.31,14.28ZM10.47,26.05v-1.6a10.41,10.41,0,0,0,7.81,0v1.6Zm3.9-1.84A9.45,9.45,0,0,1,5,15.28H23.79A9.44,9.44,0,0,1,14.37,24.21Z"/><rect class="cls-1" x="8.17" y="5.68" width="2.63" height="1"/><rect class="cls-1" x="8.17" y="7.55" width="2.63" height="1"/><rect class="cls-1" x="17.94" y="5.68" width="7.62" height="1"/><rect class="cls-1" x="17.94" y="7.55" width="7.62" height="1"/><rect class="cls-2" width="30" height="30"/></g></g></svg>