<svg width="58" height="58" viewBox="0 0 58 58" fill="none" xmlns="http://www.w3.org/2000/svg">
<g clip-path="url(#clip0_2_64)">
<path fill-rule="evenodd" clip-rule="evenodd" d="M29.4597 20.5926C34.2372 21.6051 36.8697 24.5001 36.2097 30.1701C37.2147 30.3576 38.2497 30.5001 39.2472 30.6876C40.0422 23.5401 37.1247 19.1526 29.9547 17.3301C29.8047 18.4551 29.6247 19.3926 29.4297 20.5926H29.4597Z" fill="#B3B3B3"/>
<path fill-rule="evenodd" clip-rule="evenodd" d="M19.2521 24.7025L29.5571 38.6675C29.823 37.8731 30.2791 37.1557 30.8856 36.5779C31.4922 36.0001 32.2308 35.5794 33.0371 35.3525C33.7871 35.12 39.0371 39.53 39.2771 41.9225C37.4546 45.11 34.5446 48.0875 30.5471 46.61C23.7371 44.09 13.5297 28.61 12.1047 22.2725C11.2197 18.3575 16.1397 14.585 19.6047 14.585C21.6252 16.7275 23.0116 19.3888 23.6096 22.2725C23.087 22.9529 22.431 23.5194 21.6817 23.9372C20.9324 24.3551 20.1056 24.6155 19.2521 24.7025Z" fill="url(#paint0_linear_2_64)"/>
<path fill-rule="evenodd" clip-rule="evenodd" d="M42.6754 31.1825C43.9429 22.37 38.843 15.59 30.4805 13.9325C30.623 12.9575 30.758 11.975 30.9005 11C41.153 13.1675 47.0629 20.4875 45.7729 31.6475L42.6754 31.1825Z" fill="#B3B3B3"/>
<path fill-rule="evenodd" clip-rule="evenodd" d="M32.662 27.5071C32.617 27.8234 32.5101 28.1276 32.3473 28.4025C32.1845 28.6774 31.9691 28.9175 31.7135 29.1091C31.4578 29.3007 31.1669 29.4399 30.8574 29.519C30.5478 29.598 30.2258 29.6152 29.9096 29.5696C29.2725 29.4681 28.7017 29.1183 28.3221 28.5967C27.9426 28.0752 27.7852 27.4244 27.8846 26.7871C27.9295 26.4711 28.0365 26.1671 28.1994 25.8925C28.3623 25.618 28.5778 25.3784 28.8336 25.1874C29.0894 24.9964 29.3804 24.8579 29.6899 24.7798C29.9994 24.7016 30.3213 24.6854 30.637 24.7321C30.9526 24.7805 31.2555 24.8908 31.5283 25.0567C31.801 25.2226 32.0383 25.4407 32.2265 25.6986C32.4147 25.9565 32.55 26.249 32.6248 26.5594C32.6995 26.8697 32.7122 27.1918 32.662 27.5071Z" fill="#B3B3B3"/>
</g>
<defs>
<linearGradient id="paint0_linear_2_64" x1="25.6422" y1="47" x2="25.6422" y2="14.585" gradientUnits="userSpaceOnUse">
<stop stop-color="#3D3D3D"/>
<stop offset="1" stop-color="#757575"/>
</linearGradient>
<clipPath id="clip0_2_64">
<rect width="33.9525" height="36" fill="white" transform="translate(12 11)"/>
</clipPath>
</defs>
</svg>
