<svg width="58" height="58" viewBox="0 0 58 58" fill="none" xmlns="http://www.w3.org/2000/svg">
<g clip-path="url(#clip0_259_70)">
<path fill-rule="evenodd" clip-rule="evenodd" d="M41.065 23.54C41.065 30.4625 28.5325 47 28.5325 47C28.5325 47 16 30.5 16 23.54C16 20.2155 17.3201 17.027 19.6702 14.6755C22.0203 12.3241 25.208 11.002 28.5325 11C31.857 11.002 35.0447 12.3241 37.3948 14.6755C39.7449 17.027 41.065 20.2155 41.065 23.54Z" fill="url(#paint0_linear_259_70)"/>
<path opacity="0.25" fill-rule="evenodd" clip-rule="evenodd" d="M41.0657 23.54C41.0657 30.4625 28.5332 47 28.5332 47V11C31.8577 11.002 35.0454 12.3241 37.3955 14.6755C39.7456 17.027 41.0657 20.2155 41.0657 23.54Z" fill="black"/>
<path d="M28.5323 28.4073C31.3406 28.4073 33.6173 26.1307 33.6173 23.3223C33.6173 20.5139 31.3406 18.2373 28.5323 18.2373C25.7239 18.2373 23.4473 20.5139 23.4473 23.3223C23.4473 26.1307 25.7239 28.4073 28.5323 28.4073Z" fill="white"/>
</g>
<defs>
<linearGradient id="paint0_linear_259_70" x1="28.5325" y1="47" x2="28.5325" y2="11" gradientUnits="userSpaceOnUse">
<stop stop-color="#424242"/>
<stop offset="1" stop-color="#8B8B8B"/>
</linearGradient>
<clipPath id="clip0_259_70">
<rect width="25.0725" height="36" fill="white" transform="translate(16 11)"/>
</clipPath>
</defs>
</svg>
