<svg width="58" height="58" viewBox="0 0 58 58" fill="none" xmlns="http://www.w3.org/2000/svg">
<g clip-path="url(#clip0_2_71)">
<path d="M14.3601 22.3945H28.4226V35.9995H14.3601C13.9164 35.9995 13.477 35.9117 13.0674 35.7409C12.6577 35.5702 12.286 35.32 11.9736 35.0048C11.6612 34.6896 11.4143 34.3157 11.2472 33.9046C11.0802 33.4934 10.9962 33.0533 11.0001 32.6095V25.7545C11.0001 24.8634 11.3541 24.0088 11.9843 23.3787C12.6144 22.7485 13.469 22.3945 14.3601 22.3945Z" fill="url(#paint0_linear_2_71)"/>
<path d="M14.3601 22.3945V35.9995C13.9164 35.9995 13.477 35.9117 13.0674 35.7409C12.6577 35.5702 12.286 35.32 11.9736 35.0048C11.6612 34.6896 11.4143 34.3157 11.2472 33.9046C11.0802 33.4934 10.9962 33.0533 11.0001 32.6095V25.7545C11.0001 24.8634 11.3541 24.0088 11.9843 23.3787C12.6144 22.7485 13.469 22.3945 14.3601 22.3945Z" fill="url(#paint1_linear_2_71)"/>
<path fill-rule="evenodd" clip-rule="evenodd" d="M44.5169 43.365L28.4219 35.97V22.395L44.5169 15V43.365Z" fill="url(#paint2_linear_2_71)"/>
<path d="M44.5176 24.8096H45.8451C46.1501 24.8096 46.4428 24.9302 46.6591 25.1452C46.8755 25.3602 46.9981 25.652 47.0001 25.9571V32.3996C47.0001 32.7059 46.8784 32.9997 46.6618 33.2163C46.4452 33.4329 46.1514 33.5546 45.8451 33.5546H44.5176V24.8096Z" fill="url(#paint3_linear_2_71)"/>
<path opacity="0.25" d="M16.7305 27.6152H16.4455C16.2674 27.6152 16.123 27.7596 16.123 27.9377V30.4352C16.123 30.6133 16.2674 30.7577 16.4455 30.7577H16.7305C16.9087 30.7577 17.053 30.6133 17.053 30.4352V27.9377C17.053 27.7596 16.9087 27.6152 16.7305 27.6152Z" fill="black"/>
<path opacity="0.25" d="M18.3048 27.6152H18.0198C17.8417 27.6152 17.6973 27.7596 17.6973 27.9377V30.4352C17.6973 30.6133 17.8417 30.7577 18.0198 30.7577H18.3048C18.4829 30.7577 18.6273 30.6133 18.6273 30.4352V27.9377C18.6273 27.7596 18.4829 27.6152 18.3048 27.6152Z" fill="black"/>
<path opacity="0.25" d="M19.8868 27.6152H19.6018C19.4237 27.6152 19.2793 27.7596 19.2793 27.9377V30.4352C19.2793 30.6133 19.4237 30.7577 19.6018 30.7577H19.8868C20.0649 30.7577 20.2093 30.6133 20.2093 30.4352V27.9377C20.2093 27.7596 20.0649 27.6152 19.8868 27.6152Z" fill="black"/>
</g>
<defs>
<linearGradient id="paint0_linear_2_71" x1="19.7151" y1="35.9695" x2="19.7151" y2="22.3945" gradientUnits="userSpaceOnUse">
<stop stop-color="#949494"/>
<stop offset="1" stop-color="#DEDEDE"/>
</linearGradient>
<linearGradient id="paint1_linear_2_71" x1="12.6801" y1="35.9695" x2="12.6801" y2="22.3945" gradientUnits="userSpaceOnUse">
<stop stop-color="#3B3B3B"/>
<stop offset="1" stop-color="#AAAAAA"/>
</linearGradient>
<linearGradient id="paint2_linear_2_71" x1="36.4694" y1="43.365" x2="36.4694" y2="15" gradientUnits="userSpaceOnUse">
<stop stop-color="#1C1C1C"/>
<stop offset="1" stop-color="#AAAAAA"/>
</linearGradient>
<linearGradient id="paint3_linear_2_71" x1="45.7551" y1="33.5546" x2="45.7551" y2="24.8096" gradientUnits="userSpaceOnUse">
<stop stop-color="#949494"/>
<stop offset="1" stop-color="#DEDEDE"/>
</linearGradient>
<clipPath id="clip0_2_71">
<rect width="36" height="28.365" fill="white" transform="translate(11 15)"/>
</clipPath>
</defs>
</svg>
