<svg width="58" height="58" viewBox="0 0 58 58" fill="none" xmlns="http://www.w3.org/2000/svg">
<g clip-path="url(#clip0_259_78)">
<path fill-rule="evenodd" clip-rule="evenodd" d="M26.5247 18.1754L24.6197 14.4254C24.3925 13.9848 24.0483 13.6152 23.625 13.3573C23.2017 13.0993 22.7155 12.9628 22.2197 12.9629H14.8847C14.3454 12.9621 13.8184 13.1232 13.3717 13.4254C12.9251 13.7276 12.5795 14.157 12.3797 14.6579L11.6297 16.5329C11.2089 17.5979 10.9926 18.7327 10.9922 19.8779V40.8779C10.9922 41.8367 11.3731 42.7561 12.051 43.4341C12.7289 44.112 13.6484 44.4929 14.6072 44.4929H43.3847C43.8591 44.4929 44.3288 44.3993 44.767 44.2176C45.2051 44.0358 45.6031 43.7694 45.9382 43.4336C46.2733 43.0979 46.5389 42.6993 46.7198 42.2607C46.9006 41.8222 46.9932 41.3523 46.9922 40.8779V21.7904C46.9932 21.3167 46.9008 20.8473 46.7205 20.4093C46.5401 19.9712 46.2752 19.573 45.9409 19.2373C45.6066 18.9016 45.2095 18.6351 44.7722 18.4529C44.3349 18.2707 43.8659 18.1764 43.3922 18.1754H26.5247Z" fill="url(#paint0_linear_259_78)"/>
</g>
<defs>
<linearGradient id="paint0_linear_259_78" x1="28.9997" y1="44.5229" x2="28.9997" y2="13.0004" gradientUnits="userSpaceOnUse">
<stop stop-color="#666666"/>
<stop offset="0.07" stop-color="#949494"/>
<stop offset="1" stop-color="#CECECE"/>
</linearGradient>
<clipPath id="clip0_259_78">
<rect width="36" height="31.5225" fill="white" transform="translate(11 13)"/>
</clipPath>
</defs>
</svg>
