<svg width="58" height="58" viewBox="0 0 58 58" fill="none" xmlns="http://www.w3.org/2000/svg">
<g clip-path="url(#clip0_259_62)">
<path fill-rule="evenodd" clip-rule="evenodd" d="M18.2759 14.1227H33.1409C32.212 15.4398 31.7119 17.0111 31.7084 18.6227C31.7084 20.7113 32.5381 22.7144 34.0149 24.1912C35.4918 25.6681 37.4948 26.4977 39.5834 26.4977C39.7484 26.4977 39.9134 26.4977 40.0784 26.4977V41.9327C40.0764 42.7457 39.7526 43.5248 39.1777 44.0996C38.6029 44.6744 37.8238 44.9983 37.0109 45.0002H18.2609C17.4479 44.9983 16.6688 44.6744 16.094 44.0996C15.5192 43.5248 15.1953 42.7457 15.1934 41.9327V37.9802H17.6159C18.3021 37.9802 18.9603 37.7076 19.4455 37.2224C19.9308 36.7371 20.2034 36.079 20.2034 35.3927C20.2034 34.7065 19.9308 34.0483 19.4455 33.5631C18.9603 33.0778 18.3021 32.8052 17.6159 32.8052H15.2084V26.1452H17.8334C21.2159 26.1452 21.2159 21.0302 17.8334 21.0302H15.2084V17.1827C15.2104 16.3698 15.5342 15.5907 16.109 15.0159C16.6839 14.441 17.463 14.1172 18.2759 14.1152V14.1227Z" fill="url(#paint0_linear_259_62)"/>
<path fill-rule="evenodd" clip-rule="evenodd" d="M40.2207 11.9996C41.9814 11.9775 43.6794 12.6528 44.944 13.8781C46.2086 15.1034 46.9372 16.7791 46.9707 18.5396C46.9391 20.3008 46.2112 21.9777 44.9462 23.2034C43.6811 24.4291 41.982 25.1037 40.2207 25.0796C38.4594 25.1037 36.7603 24.4291 35.4953 23.2034C34.2303 21.9777 33.5023 20.3008 33.4707 18.5396C33.5023 16.7785 34.2303 15.1016 35.4953 13.8759C36.7603 12.6502 38.4594 11.9756 40.2207 11.9996Z" fill="#BDBDBD"/>
<path fill-rule="evenodd" clip-rule="evenodd" d="M39.1022 23.0103V19.6878H35.7422V17.4003H39.1022V14.0703H41.3372V17.4003H44.6972V19.6878H41.3372V23.0103H39.1022Z" fill="white"/>
<path fill-rule="evenodd" clip-rule="evenodd" d="M12.448 22.2451H17.5105C17.8419 22.3206 18.1378 22.5065 18.3497 22.7722C18.5617 23.0379 18.6772 23.3677 18.6772 23.7076C18.6772 24.0475 18.5617 24.3773 18.3497 24.643C18.1378 24.9088 17.8419 25.0946 17.5105 25.1701H12.448C12.1166 25.0946 11.8206 24.9088 11.6086 24.643C11.3967 24.3773 11.2812 24.0475 11.2812 23.7076C11.2812 23.3677 11.3967 23.0379 11.6086 22.7722C11.8206 22.5065 12.1166 22.3206 12.448 22.2451Z" fill="#BDBDBD"/>
<path fill-rule="evenodd" clip-rule="evenodd" d="M12.448 34.0049H17.5105C17.8419 34.0804 18.1378 34.2662 18.3497 34.532C18.5617 34.7977 18.6772 35.1275 18.6772 35.4674C18.6772 35.8073 18.5617 36.1371 18.3497 36.4028C18.1378 36.6685 17.8419 36.8544 17.5105 36.9299H12.448C12.1166 36.8544 11.8206 36.6685 11.6086 36.4028C11.3967 36.1371 11.2812 35.8073 11.2812 35.4674C11.2812 35.1275 11.3967 34.7977 11.6086 34.532C11.8206 34.2662 12.1166 34.0804 12.448 34.0049Z" fill="#BDBDBD"/>
<path d="M27.6426 28.1777C29.0923 28.1777 30.2676 27.0025 30.2676 25.5527C30.2676 24.103 29.0923 22.9277 27.6426 22.9277C26.1928 22.9277 25.0176 24.103 25.0176 25.5527C25.0176 27.0025 26.1928 28.1777 27.6426 28.1777Z" fill="white"/>
<path fill-rule="evenodd" clip-rule="evenodd" d="M32.9756 34.7622C32.9756 33.3479 32.4138 31.9916 31.4137 30.9915C30.4137 29.9915 29.0573 29.4297 27.6431 29.4297C26.2288 29.4297 24.8725 29.9915 23.8724 30.9915C22.8724 31.9916 22.3105 33.3479 22.3105 34.7622V36.2622H32.9756V34.7622Z" fill="white"/>
</g>
<defs>
<linearGradient id="paint0_linear_259_62" x1="27.6434" y1="45.0302" x2="27.6434" y2="14.1452" gradientUnits="userSpaceOnUse">
<stop stop-color="#3D3D3D"/>
<stop offset="1" stop-color="#757575"/>
</linearGradient>
<clipPath id="clip0_259_62">
<rect width="36" height="33.03" fill="white" transform="translate(11 12)"/>
</clipPath>
</defs>
</svg>
