<svg width="29" height="33" viewBox="0 0 29 33" fill="none" xmlns="http://www.w3.org/2000/svg">
<g clip-path="url(#clip0_450_716)">
<path d="M15.5 29.5C15.5 30.4283 15.1313 31.3185 14.4749 31.9749C13.8185 32.6313 12.9283 33 12 33C11.0717 33 10.1815 32.6313 9.52513 31.9749C8.86875 31.3185 8.5 30.4283 8.5 29.5" fill="white"/>
<path d="M12 5C14.5543 5 17.0039 6.01467 18.8101 7.82081C20.6162 9.62694 21.6309 12.0766 21.6309 14.6308V27.75H2.38086V14.6308C2.38086 12.0786 3.39393 9.63072 5.19754 7.82493C7.00115 6.01913 9.44779 5.00309 12 5V5Z" fill="white"/>
<path d="M2.29251 25.4517H21.7117C22.0127 25.4524 22.3107 25.5125 22.5885 25.6284C22.8664 25.7443 23.1187 25.9138 23.331 26.1272C23.5433 26.3407 23.7116 26.5938 23.8261 26.8722C23.9406 27.1507 23.9991 27.4489 23.9983 27.75V27.75H7.42222e-06C-0.000759873 27.4484 0.0579712 27.1497 0.172837 26.8709C0.287702 26.5921 0.456445 26.3387 0.669399 26.1252C0.882354 25.9117 1.13534 25.7423 1.41386 25.6267C1.69238 25.5111 1.99096 25.4517 2.29251 25.4517V25.4517Z" fill="white"/>
</g>
<circle cx="26" cy="3" r="3" fill="#CC1C0A"/>
<defs>
<clipPath id="clip0_450_716">
<rect width="23.9983" height="28" fill="white" transform="translate(0 5)"/>
</clipPath>
</defs>
</svg>
