<svg width="24" height="28" viewBox="0 0 24 28" fill="none" xmlns="http://www.w3.org/2000/svg">
<g clip-path="url(#clip0_294_1331)">
<path d="M15.5 24.5C15.5 25.4283 15.1313 26.3185 14.4749 26.9749C13.8185 27.6313 12.9283 28 12 28C11.0717 28 10.1815 27.6313 9.52513 26.9749C8.86875 26.3185 8.5 25.4283 8.5 24.5" fill="#777A7F"/>
<path d="M12 0C14.5543 0 17.0039 1.01467 18.8101 2.82081C20.6162 4.62694 21.6309 7.07658 21.6309 9.63083V22.75H2.38086V9.63083C2.38086 7.0786 3.39393 4.63072 5.19754 2.82493C7.00115 1.01913 9.44779 0.00309175 12 0Z" fill="#777A7F"/>
<path d="M2.29251 20.4517H21.7117C22.0127 20.4524 22.3107 20.5125 22.5885 20.6284C22.8664 20.7443 23.1187 20.9138 23.331 21.1272C23.5433 21.3407 23.7116 21.5938 23.8261 21.8722C23.9406 22.1507 23.9991 22.4489 23.9983 22.75H7.42222e-06C-0.000759873 22.4484 0.0579712 22.1497 0.172837 21.8709C0.287702 21.5921 0.456445 21.3387 0.669399 21.1252C0.882354 20.9117 1.13534 20.7423 1.41386 20.6267C1.69238 20.5111 1.99096 20.4517 2.29251 20.4517Z" fill="#777A7F"/>
</g>
<defs>
<clipPath id="clip0_294_1331">
<rect width="23.9983" height="28" fill="white"/>
</clipPath>
</defs>
</svg>
