<svg xmlns="http://www.w3.org/2000/svg" viewBox="0 0 30 30"><defs><style>.cls-1{fill:#a7acb2;}.cls-2{fill:none;}</style></defs><g id="레이어_2" data-name="레이어 2"><g id="레이어_1-2" data-name="레이어 1"><path class="cls-1" d="M23.61,9.13H6.39V5.24H23.61Zm-16.22-1H22.61V6.24H7.39Z"/><path class="cls-1" d="M22,6.24H8L9.45,2.61h11.1Zm-12.52-1h11l-.65-1.63H10.13Z"/><path class="cls-1" d="M20.07,27.39H9.93l-.8-6.11H20.87Zm-9.26-1h8.38l.54-4.11H10.27Z"/><path class="cls-1" d="M21.91,13.4H8.09l-.7-5.27H22.61ZM9,12.4H21l.43-3.27H8.53Z"/><path class="cls-1" d="M20.74,22.28H9.26L8,12.4H22Zm-10.6-1h9.72l1-7.88H9.1Z"/><rect class="cls-2" width="30" height="30"/></g></g></svg>