<svg xmlns="http://www.w3.org/2000/svg" viewBox="0 0 30 30"><defs><style>.cls-1{fill:none;}.cls-2{fill:#fff;}</style></defs><g id="레이어_2" data-name="레이어 2"><g id="레이어_1-2" data-name="레이어 1"><rect class="cls-1" width="30" height="30"/><path class="cls-2" d="M24.66,6.52l-.11,0a9.72,9.72,0,0,1-3-1.89,6.69,6.69,0,0,0-1.9-1.19,6.51,6.51,0,0,0-8.58,3.82,7.1,7.1,0,0,0-.22.79,6.29,6.29,0,0,0-1.11.37A6.45,6.45,0,0,0,6.24,12.1a5.88,5.88,0,0,0-.23.79,6.62,6.62,0,0,0-1.11.38A6.46,6.46,0,0,0,1.42,17a6.57,6.57,0,0,0,3.26,8.07,6.35,6.35,0,0,0,2.58.65,10.12,10.12,0,0,1,3.5.76l.11.05a7.58,7.58,0,0,0,2.82.56,6.49,6.49,0,0,0,2-.31A5.08,5.08,0,0,0,19,23.88a4.78,4.78,0,0,0,.35-1.74A5.39,5.39,0,0,0,23.8,19a4.77,4.77,0,0,0,.34-1.74A6.61,6.61,0,0,0,25.33,17a5.09,5.09,0,0,0,3.28-2.91C29.76,11.27,28,7.87,24.66,6.52Zm-.29.42-.09.5c2.82,1.15,4.34,4,3.41,6.27A4.13,4.13,0,0,1,25,16a5.42,5.42,0,0,1-1,.21,6.28,6.28,0,0,0-.27-.94,3.4,3.4,0,0,0,3-2,3.18,3.18,0,0,0-.3-2.85,5.23,5.23,0,0,0-2.57-2.15l-.25-.1A11.91,11.91,0,0,1,20.21,6a4.4,4.4,0,0,0-1.32-.83,4.55,4.55,0,0,0-6,2.62,5.57,5.57,0,0,0-1,0c0-.09,0-.19.07-.28a5.54,5.54,0,0,1,5.18-3.64,5.64,5.64,0,0,1,2.09.41,5.35,5.35,0,0,1,1.6,1,10.79,10.79,0,0,0,3.33,2.08l.18-.47ZM22.87,18.6a4.35,4.35,0,0,1-3.62,2.54,6.52,6.52,0,0,0-.27-.93,3.45,3.45,0,0,0,3-2,3.21,3.21,0,0,0-.3-2.85,5.28,5.28,0,0,0-2.58-2.16l-.24-.09a12.06,12.06,0,0,1-3.46-2.2,4.58,4.58,0,0,0-1.33-.83,4.5,4.5,0,0,0-3.56.06,4.45,4.45,0,0,0-2.4,2.56,6.81,6.81,0,0,0-1,0,2.76,2.76,0,0,1,.08-.27,5.46,5.46,0,0,1,2.94-3.17,5.66,5.66,0,0,1,2.24-.47,5.39,5.39,0,0,1,2.08.41,5.72,5.72,0,0,1,1.61,1,10.63,10.63,0,0,0,3.32,2.08l.1,0C22.28,13.49,23.81,16.3,22.87,18.6Zm-4.82,4.9a4.11,4.11,0,0,1-2.65,2.33,6.18,6.18,0,0,1-4.16-.23l-.09,0a10.93,10.93,0,0,0-3.84-.84,5.41,5.41,0,0,1-2.19-.55,5.56,5.56,0,0,1-2.76-6.83A5.54,5.54,0,0,1,7.54,13.7a5.55,5.55,0,0,1,2.08.41,5.28,5.28,0,0,1,1.61,1,10.86,10.86,0,0,0,3.32,2.08l.18-.47-.08.51A6.11,6.11,0,0,1,17.78,20,4.13,4.13,0,0,1,18.05,23.5ZM11.9,14.38a5.82,5.82,0,0,0-.84-.64.83.83,0,0,1,.74-.47.81.81,0,0,1,.31.06.83.83,0,0,1,.45,1.08.81.81,0,0,1-.24.31C12.18,14.61,12,14.5,11.9,14.38Zm1.59.4h0a1.82,1.82,0,0,0-3.31-1.5L10,13.19a5.62,5.62,0,0,0-.88-.28,3.5,3.5,0,0,1,1.8-1.83,3.58,3.58,0,0,1,1.44-.31,3.63,3.63,0,0,1,2.37.91,12.85,12.85,0,0,0,3.75,2.38l.25.1a4.23,4.23,0,0,1,2.08,1.73,2.21,2.21,0,0,1,.24,2,2.57,2.57,0,0,1-2.53,1.37h0A7.15,7.15,0,0,0,15,16.31l-.12,0a9.43,9.43,0,0,1-1.77-.94A1.84,1.84,0,0,0,13.49,14.78Zm9.82-.45a7.16,7.16,0,0,0-3.46-2.91l-.12-.05A9.21,9.21,0,0,1,18,10.43a2,2,0,0,0,.36-.54,1.83,1.83,0,0,0,0-1.4,1.8,1.8,0,0,0-1-1,1.84,1.84,0,0,0-1.4,0,1.78,1.78,0,0,0-.91.86l-.18-.09A6.92,6.92,0,0,0,13.94,8a3.49,3.49,0,0,1,3.23-2.13,3.44,3.44,0,0,1,1.34.26,3.69,3.69,0,0,1,1,.64A12.63,12.63,0,0,0,23.3,9.17l.24.1A4.25,4.25,0,0,1,25.63,11a2.24,2.24,0,0,1,.24,2,2.6,2.6,0,0,1-2.53,1.37Zm-6.6-4.85a7.25,7.25,0,0,0-.83-.63.84.84,0,0,1,.42-.41.88.88,0,0,1,.32-.07.7.7,0,0,1,.31.07.84.84,0,0,1,.45.44.86.86,0,0,1,0,.63.78.78,0,0,1-.25.32Z"/><path class="cls-2" d="M16.86,20.28a5.27,5.27,0,0,0-2.58-2.15L14,18a11.78,11.78,0,0,1-3.46-2.2,4.58,4.58,0,0,0-4.88-.77,4.49,4.49,0,0,0-2.43,2.61A4.57,4.57,0,0,0,5.54,23.3l.29.13a4.36,4.36,0,0,0,1.52.33,11.9,11.9,0,0,1,4,.85l.25.1a5.69,5.69,0,0,0,2.09.42,3.56,3.56,0,0,0,3.46-2A3.22,3.22,0,0,0,16.86,20.28Zm-.63,2.48a2.58,2.58,0,0,1-2.53,1.37A4.51,4.51,0,0,1,12,23.78l-.25-.1a13.13,13.13,0,0,0-4.35-.92A3.26,3.26,0,0,1,6.2,22.5L6,22.4A3.58,3.58,0,0,1,4.21,18a3.56,3.56,0,0,1,3.33-2.34,3.63,3.63,0,0,1,1.34.26,3.67,3.67,0,0,1,1,.65A13,13,0,0,0,13.67,19l.24.1A4.25,4.25,0,0,1,16,20.79,2.24,2.24,0,0,1,16.23,22.76Z"/><path class="cls-2" d="M8.67,19.68a1.82,1.82,0,1,0-2.37,1,1.79,1.79,0,0,0,.68.13A1.81,1.81,0,0,0,8.67,19.68Zm-.92-.38a.83.83,0,0,1-1.08.45A.82.82,0,0,1,7,18.17a.89.89,0,0,1,.31.06A.82.82,0,0,1,7.75,19.3Z"/></g></g></svg>