<svg xmlns="http://www.w3.org/2000/svg" viewBox="0 0 30 30"><defs><style>.cls-1{fill:#fff;}.cls-2{fill:none;}</style></defs><g id="레이어_2" data-name="레이어 2"><g id="레이어_1-2" data-name="레이어 1"><path class="cls-1" d="M26.16,9.75A6.6,6.6,0,0,0,23.24,4.9,6.56,6.56,0,0,0,13.11,9.57c-.27,2.19-2.24,5.14-3.07,6.3a.78.78,0,0,0,.08,1l.08.08L9.09,18.09A2.33,2.33,0,0,1,7,18.77a2.68,2.68,0,0,0-2.85,4A2.71,2.71,0,0,0,6,24a2.65,2.65,0,0,0,1.29,1.81,2.53,2.53,0,0,0,1.34.37,2.6,2.6,0,0,0,1.33-.36A2.67,2.67,0,0,0,11.23,23a2.29,2.29,0,0,1,.69-2.08L13,19.81l.08.08a.8.8,0,0,0,1,.08l.45-.32a17,17,0,0,1,6.08-2.79A6.5,6.5,0,0,0,24.26,15,6.6,6.6,0,0,0,26.16,9.75ZM12.32,19.1l-1.11,1.11a3.32,3.32,0,0,0-1,3A1.7,1.7,0,0,1,9.43,25a1.68,1.68,0,0,1-2.5-1.43v-.48H6.44A1.67,1.67,0,0,1,5,20.57a1.69,1.69,0,0,1,1.46-.85,1.24,1.24,0,0,1,.33,0,3.32,3.32,0,0,0,3-1l1.12-1.11Zm1.37-.05L11,16.31c1.1-1.56,2.88-4.35,3.15-6.62a5.57,5.57,0,1,1,6.41,6.18,18,18,0,0,0-6.51,3Z"/><rect class="cls-2" width="30" height="30"/></g></g></svg>