<svg xmlns="http://www.w3.org/2000/svg" viewBox="0 0 30 30"><defs><style>.cls-1{fill:#fff;}.cls-2{fill:none;}</style></defs><g id="레이어_2" data-name="레이어 2"><g id="레이어_1-2" data-name="레이어 1"><path class="cls-1" d="M26.79,12.22a7.34,7.34,0,0,0-14.28-1.84,4.93,4.93,0,0,0-9.27,1.84H3v.5c0,4.09,2.89,7.62,7,9.22v2.69H20V21.94c4.13-1.6,7-5.13,7-9.22v-.5Zm-7.45,8.9H10.66c-3.73-1.35-6.4-4.35-6.63-7.9H26C25.74,16.77,23.07,19.77,19.34,21.12Zm-.37,1v1.51H11V22.12ZM8.16,8.75a4,4,0,0,1,3.91,3.47H10.69a2.58,2.58,0,0,0-5.07,0H4.24A4,4,0,0,1,8.16,8.75ZM19.47,6.37a6.35,6.35,0,0,1,6.32,5.85h-1.4a4.94,4.94,0,0,0-9.84,0h-1.4A6.35,6.35,0,0,1,19.47,6.37ZM9.66,12.22h-3a1.58,1.58,0,0,1,3,0Zm9.81-1.09A1.59,1.59,0,0,1,21,12.22H18A1.59,1.59,0,0,1,19.47,11.13Zm0-1a2.6,2.6,0,0,0-2.54,2.09H15.55a3.95,3.95,0,0,1,7.84,0H22A2.6,2.6,0,0,0,19.47,10.13Z"/><rect class="cls-2" width="30" height="30"/></g></g></svg>