<svg xmlns="http://www.w3.org/2000/svg" viewBox="0 0 78 78"><defs><style>.cls-1{fill:#6540f8;}.cls-2{fill:none;}</style></defs><g id="레이어_2" data-name="레이어 2"><g id="레이어_2-2" data-name="레이어 2"><path class="cls-1" d="M62.9,27.14a3.37,3.37,0,0,1,3.62,3V43.64a3.37,3.37,0,0,1-3.62,3H46.28L43.93,44,43,43H34.91L34,44.11l-2.14,2.57H15.1a3.38,3.38,0,0,1-3.62-3V30.18a3.37,3.37,0,0,1,3.62-3H62.9m0-3H15.1a6.34,6.34,0,0,0-6.62,6V43.64a6.35,6.35,0,0,0,6.62,6H33.28l3-3.66h5.38l3.24,3.66h18a6.35,6.35,0,0,0,6.62-6V30.18a6.34,6.34,0,0,0-6.62-6Z"/><path class="cls-1" d="M48.51,42.83l-3.25-3.65H32.59l-3,3.65H18.31A2.23,2.23,0,0,1,16,40.7V33.11A2.23,2.23,0,0,1,18.31,31H59.69A2.23,2.23,0,0,1,62,33.11V40.7a2.23,2.23,0,0,1-2.33,2.13Z"/><path class="cls-1" d="M63,24.14H60c0-8.52-9.41-15.45-21-15.45S18,15.62,18,24.14H15C15,14,25.78,5.69,39,5.69S63,14,63,24.14Z"/><path class="cls-1" d="M39,72.31c-13.22,0-24-10.15-24-22.63h3c0,10.82,9.41,19.63,21,19.63S60,60.5,60,49.68h3C63,62.16,52.22,72.31,39,72.31Z"/><rect class="cls-2" width="78" height="78"/></g></g></svg>