<svg xmlns="http://www.w3.org/2000/svg" viewBox="0 0 78 78"><defs><style>.cls-1{fill:#f840e5;}.cls-2{fill:none;}</style></defs><g id="레이어_2" data-name="레이어 2"><g id="레이어_2-2" data-name="레이어 2"><path class="cls-1" d="M29.22,75.74l-9.58-9.59,1.06-1.06a5.51,5.51,0,0,0-7.79-7.79l-1.06,1.06L2.26,48.78,37.05,14,64,41Zm-5.43-9.68,5.43,5.43L59.76,41,37.05,18.24,6.51,48.78l5.43,5.43A8.51,8.51,0,0,1,23.79,66.06Z"/><path class="cls-1" d="M56.24,11.85,48.78,4.38,37.05,16.12,61.89,41,73.62,29.22l-7.47-7.46a7,7,0,0,1-9.91-9.91Z"/><path class="cls-1" d="M61.89,43.08l-27-27L48.78,2.26l9.58,9.59L57.3,12.91a5.51,5.51,0,0,0,7.79,7.79l1.06-1.06,9.59,9.58Zm-22.72-27L61.89,38.83l9.6-9.61-5.43-5.43A8.51,8.51,0,0,1,54.21,11.94L48.78,6.51Z"/><rect class="cls-1" x="18.73" y="36.19" width="23.33" height="3" transform="translate(-17.74 32.54) rotate(-45)"/><rect class="cls-1" x="29.94" y="49.22" width="14.52" height="3" transform="translate(-24.97 41.16) rotate(-45)"/><rect class="cls-1" x="26.04" y="46.83" width="7.26" height="3" transform="translate(-25.48 35.13) rotate(-44.99)"/><rect class="cls-2" width="78" height="78"/></g></g></svg>