<svg xmlns="http://www.w3.org/2000/svg" xmlns:xlink="http://www.w3.org/1999/xlink" viewBox="0 0 78 78"><defs><style>.cls-1{fill:none;}.cls-2{fill:#f90;}.cls-3{clip-path:url(#clip-path);}</style><clipPath id="clip-path"><rect class="cls-1" x="18.93" y="17.88" width="40.14" height="42.24"/></clipPath></defs><g id="레이어_2" data-name="레이어 2"><g id="레이어_2-2" data-name="레이어 2"><path class="cls-2" d="M49.3,72.31H28.7A11.28,11.28,0,0,1,17.43,61V17A11.28,11.28,0,0,1,28.7,5.69H49.3A11.28,11.28,0,0,1,60.57,17V61A11.28,11.28,0,0,1,49.3,72.31ZM28.7,8.69A8.28,8.28,0,0,0,20.43,17V61a8.28,8.28,0,0,0,8.27,8.27H49.3A8.28,8.28,0,0,0,57.57,61V17A8.28,8.28,0,0,0,49.3,8.69Z"/><path class="cls-2" d="M60.57,61.62H17.43V16.38H60.57Zm-40.14-3H57.57V19.38H20.43Z"/><path class="cls-2" d="M60.57,61.62H17.43V16.38H60.57Zm-40.14-3H57.57V19.38H20.43Z"/><path class="cls-2" d="M41.25,14h-4.5a1.5,1.5,0,0,1,0-3h4.5a1.5,1.5,0,0,1,0,3Z"/><g class="cls-3"><path class="cls-2" d="M30.85,72.31a12.7,12.7,0,1,1,12.69-12.7A12.72,12.72,0,0,1,30.85,72.31Zm0-22.39a9.7,9.7,0,1,0,9.69,9.69A9.71,9.71,0,0,0,30.85,49.92Z"/><path class="cls-2" d="M39.79,39.94v-7H37.38a8,8,0,0,1-8-8V16.38H60.57V32.9H48.89ZM32.35,19.38v5.48a5,5,0,0,0,5,5h5.41v3.93l5.07-3.93h9.71V19.38Z"/><path class="cls-2" d="M30.85,48.31a6.74,6.74,0,1,1,6.74-6.74A6.75,6.75,0,0,1,30.85,48.31Zm0-10.48a3.74,3.74,0,1,0,3.74,3.74A3.73,3.73,0,0,0,30.85,37.83Z"/></g><rect class="cls-1" width="78" height="78"/></g></g></svg>