<svg xmlns="http://www.w3.org/2000/svg" viewBox="0 0 78 78"><defs><style>.cls-1{fill:#1ad3bd;}.cls-2{fill:none;}</style></defs><g id="레이어_2" data-name="레이어 2"><g id="레이어_2-2" data-name="레이어 2"><path class="cls-1" d="M65.52,57.77h-53a9.06,9.06,0,0,1-9-9.05V13.91a9.06,9.06,0,0,1,9.05-9h53a9.06,9.06,0,0,1,9,9.05V48.72A9.06,9.06,0,0,1,65.52,57.77Zm-53-49.91a6.06,6.06,0,0,0-6.05,6.05V48.72a6.06,6.06,0,0,0,6.05,6.05h53a6.05,6.05,0,0,0,6-6.05V13.91a6.05,6.05,0,0,0-6-6Z"/><path class="cls-1" d="M39,73.14a1.5,1.5,0,0,1-1.5-1.5V56.27a1.5,1.5,0,0,1,3,0V71.64A1.5,1.5,0,0,1,39,73.14Z"/><path class="cls-1" d="M54.37,73.14H23.63a1.5,1.5,0,1,1,0-3H54.37a1.5,1.5,0,0,1,0,3Z"/><path class="cls-1" d="M54.08,49.09H23.92a3.84,3.84,0,0,1-3.83-3.83V24.92a3.83,3.83,0,0,1,3.83-3.82H54.08a3.83,3.83,0,0,1,3.83,3.82V45.26A3.84,3.84,0,0,1,54.08,49.09Zm-30.16-25a.83.83,0,0,0-.83.82V45.26a.83.83,0,0,0,.83.83H54.08a.83.83,0,0,0,.83-.83V24.92a.83.83,0,0,0-.83-.82Z"/><path class="cls-1" d="M44.37,49.09H33.63v-28H44.37Zm-7.74-3h4.74v-22H36.63Z"/><path class="cls-1" d="M35.13,33.46H21.59a1.5,1.5,0,1,1,0-3H35.13a1.5,1.5,0,0,1,0,3Z"/><path class="cls-1" d="M56.41,33.46H42.87a1.5,1.5,0,0,1,0-3H56.41a1.5,1.5,0,0,1,0,3Z"/><path class="cls-1" d="M40.5,24.1H32A4.08,4.08,0,0,1,28,20V16.19a2.66,2.66,0,0,1,2.66-2.65H32.7a7.81,7.81,0,0,1,7.8,7.8ZM31,16.54V20A1.07,1.07,0,0,0,32,21.1h5.45a4.8,4.8,0,0,0-4.79-4.56Z"/><path class="cls-1" d="M46,24.1H37.5V21.34a7.81,7.81,0,0,1,7.8-7.8h2.07A2.65,2.65,0,0,1,50,16.19V20A4.07,4.07,0,0,1,46,24.1Zm-5.46-3H46A1.07,1.07,0,0,0,47,20V16.54H45.3A4.81,4.81,0,0,0,40.5,21.1Zm6.87-4.56h0Z"/><rect class="cls-2" width="78" height="78"/></g></g></svg>