<svg xmlns="http://www.w3.org/2000/svg" viewBox="0 0 78 78"><defs><style>.cls-1{fill:#40aaf8;}.cls-2{fill:none;}</style></defs><g id="레이어_2" data-name="레이어 2"><g id="레이어_2-2" data-name="레이어 2"><path class="cls-1" d="M48.16,50.75a1.5,1.5,0,0,1-.1-3c16.71-1.2,26.7-5.39,26.7-8.75,0-1.51-2.61-4-10-6.07a1.51,1.51,0,0,1-1-1.85,1.49,1.49,0,0,1,1.85-1c8,2.23,12.17,5.33,12.17,9,0,7.11-15.88,10.77-29.49,11.74Z"/><path class="cls-1" d="M33,50.91h-.06C11.24,50.09.24,46.08.24,39c0-3.61,4.15-6.69,12-8.92A1.5,1.5,0,0,1,13.06,33C5.82,35,3.24,37.43,3.24,39c0,1.83,2.15,7.87,29.81,8.91a1.5,1.5,0,0,1,0,3Z"/><polygon class="cls-1" points="31.38 43.37 41.61 49.57 31.12 55.33 31.38 43.37"/><rect class="cls-2" width="78" height="78"/><path class="cls-1" d="M39,67.71A28.71,28.71,0,1,1,67.71,39,28.74,28.74,0,0,1,39,67.71Zm0-54.42A25.71,25.71,0,1,0,64.71,39,25.73,25.73,0,0,0,39,13.29Z"/><path class="cls-1" d="M39,67.71c-9.93,0-18-12.88-18-28.71s8.09-28.71,18-28.71S57,23.17,57,39,48.93,67.71,39,67.71Zm0-54.42c-8.28,0-15,11.53-15,25.71s6.74,25.71,15,25.71S54,53.18,54,39,47.28,13.29,39,13.29Z"/><path class="cls-1" d="M39,67.71a1.5,1.5,0,0,1-1.5-1.5V11.79a1.5,1.5,0,0,1,3,0V66.21A1.5,1.5,0,0,1,39,67.71Z"/></g></g></svg>