<svg xmlns="http://www.w3.org/2000/svg" viewBox="0 0 78 78"><defs><style>.cls-1{fill:#bd40f8;}.cls-2{fill:none;}</style></defs><g id="레이어_2" data-name="레이어 2"><g id="레이어_2-2" data-name="레이어 2"><path class="cls-1" d="M33.89,49.94a6.22,6.22,0,1,1,6.22-6.22A6.23,6.23,0,0,1,33.89,49.94Zm0-9.44a3.22,3.22,0,1,0,3.22,3.22A3.22,3.22,0,0,0,33.89,40.5Z"/><path class="cls-2" d="M40.82,30.69V18.22A26.44,26.44,0,1,0,59.59,37.56H47.7A6.88,6.88,0,0,1,40.82,30.69Z"/><path class="cls-1" d="M66.65,4.86h-19a6.88,6.88,0,0,0-6.88,6.87v3.4A29.47,29.47,0,1,0,62.66,37.56h4a6.88,6.88,0,0,0,6.88-6.87v-19A6.88,6.88,0,0,0,66.65,4.86Zm3.88,25.83a3.88,3.88,0,0,1-3.88,3.87h-19a3.88,3.88,0,0,1-3.88-3.87v-19A3.88,3.88,0,0,1,47.7,7.86h19a3.88,3.88,0,0,1,3.88,3.87Zm-10.21,13a26.41,26.41,0,1,1-19.5-25.5V30.69a6.88,6.88,0,0,0,6.88,6.87H59.59A26.63,26.63,0,0,1,60.32,43.72Z"/><ellipse class="cls-1" cx="55.34" cy="26.64" rx="4.3" ry="3.69" transform="translate(-5.97 22.98) rotate(-22.29)"/><path class="cls-1" d="M58.05,27.45a1.5,1.5,0,0,1-1.5-1.5V11.78l1.75.29c.16,0,4,.69,5.83,3.72a7.61,7.61,0,0,1,.42,6.56,1.5,1.5,0,1,1-2.85-.94,4.82,4.82,0,0,0-.12-4.05,4.71,4.71,0,0,0-2-1.73V26A1.5,1.5,0,0,1,58.05,27.45Z"/><path class="cls-1" d="M33.89,57.74a14,14,0,0,1-14-14,1.5,1.5,0,0,1,3,0,11,11,0,0,0,11,11,1.5,1.5,0,0,1,0,3Z"/><path class="cls-1" d="M33.89,65.38A21.69,21.69,0,0,1,12.23,43.72a1.5,1.5,0,0,1,3,0A18.68,18.68,0,0,0,33.89,62.38a1.5,1.5,0,1,1,0,3Z"/><rect class="cls-2" width="78" height="78"/></g></g></svg>