<svg xmlns="http://www.w3.org/2000/svg" viewBox="0 0 78 78"><defs><style>.cls-1{fill:#217aff;}.cls-2{fill:none;}</style></defs><g id="레이어_2" data-name="레이어 2"><g id="레이어_2-2" data-name="레이어 2"><path class="cls-1" d="M23.87,55.19h-11a2.16,2.16,0,1,1,0-4.31h11a2.16,2.16,0,1,1,0,4.31Z"/><path class="cls-1" d="M18.38,60.69a2.16,2.16,0,0,1-2.16-2.15v-11a2.16,2.16,0,0,1,4.31,0v11A2.15,2.15,0,0,1,18.38,60.69Z"/><circle class="cls-1" cx="59.62" cy="47.86" r="2.48"/><circle class="cls-1" cx="59.62" cy="58.21" r="2.48"/><circle class="cls-1" cx="54.45" cy="53.04" r="2.48"/><circle class="cls-1" cx="64.8" cy="53.04" r="2.48"/><path class="cls-1" d="M59.62,71.41A18.21,18.21,0,0,1,45,64.15l-.15-.2H33.13l-.15.2A18.36,18.36,0,0,1,0,53,18.4,18.4,0,0,1,18.38,34.66H37.59V7.36h3v27.3h19a18.38,18.38,0,1,1,0,36.75Zm-12.19-9.1A15.33,15.33,0,1,0,59.62,37.7H18.38A15.34,15.34,0,1,0,30.57,62.31l1.06-1.4H46.37Z"/><rect class="cls-2" width="78" height="78"/></g></g></svg>