<svg xmlns="http://www.w3.org/2000/svg" viewBox="0 0 30 30"><defs><style>.cls-1{fill:#fff;}.cls-2{fill:none;}</style></defs><g id="레이어_2" data-name="레이어 2"><g id="레이어_1-2" data-name="레이어 1"><path class="cls-1" d="M10,9,7.43,2.34,6.5,2.7,9,9.24A5.2,5.2,0,0,1,10,9Z"/><path class="cls-1" d="M11.18,9a3.84,3.84,0,0,1,7.64,0,4.93,4.93,0,0,1,.54-.05c.16,0,.31,0,.46,0a4.84,4.84,0,0,0-9.64,0c.15,0,.3,0,.46,0A4.93,4.93,0,0,1,11.18,9Z"/><path class="cls-1" d="M6.27,13.3h.55a3.85,3.85,0,0,1,7.63,0h.1A4.88,4.88,0,0,1,15,11.69,4.85,4.85,0,0,0,11.18,9a4.93,4.93,0,0,0-.54-.05c-.16,0-.31,0-.46,0L10,9a5.2,5.2,0,0,0-1,.24A4.85,4.85,0,0,0,5.77,13.8.5.5,0,0,1,6.27,13.3Z"/><path class="cls-1" d="M18.82,9a4.81,4.81,0,0,0-4.27,4.31h1a3.85,3.85,0,0,1,7.63,0h.55a.5.5,0,0,1,.5.5A4.86,4.86,0,0,0,19.82,9c-.15,0-.3,0-.46,0A4.93,4.93,0,0,0,18.82,9Z"/><polygon class="cls-1" points="15 26.89 15 26.89 15 26.89 14.5 26.89 14.5 26.39 10.92 26.39 10.92 26.89 10.92 27.39 19.08 27.39 19.08 26.39 15.5 26.39 15.5 26.89 15 26.89"/><path class="cls-1" d="M15,22.53h.5V23a9.23,9.23,0,0,0,8.73-9.2.5.5,0,0,0-.5-.5H6.27a.5.5,0,0,0-.5.5A9.23,9.23,0,0,0,14.5,23v-.47ZM6.79,14.3H23.21a8.22,8.22,0,0,1-16.42,0Z"/><polygon class="cls-1" points="15.5 22.53 15 22.53 14.5 22.53 14.5 23 14.5 26.39 14.5 26.89 15 26.89 15.5 26.89 15.5 26.39 15.5 23 15.5 22.53"/><rect class="cls-2" width="30" height="30"/></g></g></svg>