<svg width="44" height="34" viewBox="0 0 44 34" fill="none" xmlns="http://www.w3.org/2000/svg">
<g clip-path="url(#clip0_353_965)">
<path d="M13.4727 19.8326L14.5333 16.3765H12.4121L13.4727 19.8326Z" fill="white"/>
<path d="M21.7089 16.3765H19.5781L20.6483 19.8326L21.7089 16.3765Z" fill="white"/>
<path d="M26.944 -0.000123924C25.27 -0.00112824 23.6052 0.245954 22.0041 0.733008C19.4535 -0.0411823 16.7562 -0.209014 14.1287 0.242975C11.5012 0.694964 9.01657 1.75419 6.87402 3.33572C4.73146 4.91725 2.99063 6.97706 1.79112 9.34998C0.591606 11.7229 -0.0332031 14.3429 -0.0332031 16.9999C-0.0332031 19.6568 0.591606 22.2768 1.79112 24.6498C2.99063 27.0227 4.73146 29.0825 6.87402 30.664C9.01657 32.2456 11.5012 33.3048 14.1287 33.7568C16.7562 34.2088 19.4535 34.0409 22.0041 33.2667C24.5508 34.0335 27.2422 34.1957 29.863 33.7402C32.4838 33.2848 34.9612 32.2244 37.0971 30.6439C39.2329 29.0634 40.9679 27.0066 42.1631 24.6383C43.3583 22.2699 43.9806 19.6556 43.9802 17.0046C43.9828 12.4989 42.1896 8.17649 38.995 4.98775C35.8003 1.79902 31.4657 0.00492385 26.944 -0.000123924ZM17.0547 31.9623C14.0836 31.9623 11.1792 31.0843 8.70897 29.4392C6.2387 27.7942 4.31353 25.4561 3.17697 22.7206C2.0404 19.9852 1.74351 16.9753 2.32385 14.0716C2.90418 11.168 4.33566 8.50114 6.43723 6.40831C8.5388 4.31549 11.216 2.89074 14.1303 2.31431C17.0446 1.73787 20.0649 2.03563 22.8093 3.16992C25.5538 4.30422 27.8989 6.22408 29.5482 8.68668C31.1975 11.1493 32.0768 14.044 32.0749 17.0046C32.0699 20.9718 30.4855 24.7748 27.6694 27.5791C24.8534 30.3834 21.0359 31.9598 17.0547 31.9623ZM26.944 31.8576C26.4471 31.8576 25.9885 31.8576 25.463 31.7814C28.0793 30.2992 30.2549 28.1527 31.7684 25.5605C33.2818 22.9682 34.0791 20.0227 34.0791 17.0237C34.0791 14.0246 33.2818 11.0791 31.7684 8.48689C30.2549 5.89464 28.0793 3.74818 25.463 2.26591C25.9503 2.26591 26.4185 2.18974 26.944 2.18974C30.8331 2.28785 34.5298 3.89627 37.2457 6.67194C39.9616 9.44761 41.4816 13.1708 41.4816 17.0475C41.4816 20.9241 39.9616 24.6473 37.2457 27.423C34.5298 30.1987 30.8331 31.8071 26.944 31.9052V31.8576Z" fill="white"/>
<path d="M30.8822 17.0046C30.884 14.2794 30.0748 11.6148 28.5567 9.34789C27.0387 7.08101 24.88 5.31369 22.3539 4.26948C19.8277 3.22526 17.0475 2.95107 14.3649 3.48159C11.6823 4.0121 9.21789 5.32349 7.28335 7.24987C5.34882 9.17626 4.03108 11.6311 3.49683 14.3038C2.96259 16.9766 3.23583 19.7472 4.28199 22.2652C5.32816 24.7832 7.10024 26.9354 9.37409 28.4497C11.6479 29.964 14.3214 30.7722 17.0563 30.7722C20.7207 30.7697 24.2345 29.3187 26.8265 26.7376C29.4185 24.1565 30.8771 20.6561 30.8822 17.0046ZM7.67347 15.4241C7.67347 15.1716 7.77414 14.9295 7.95333 14.7509C8.13251 14.5723 8.37554 14.472 8.62895 14.472H9.83286L8.97293 11.6918C8.93617 11.5718 8.92358 11.4457 8.93589 11.3208C8.9482 11.196 8.98516 11.0747 9.04465 10.9641C9.10415 10.8535 9.185 10.7557 9.28255 10.6764C9.38011 10.597 9.49244 10.5376 9.6131 10.5017C9.85383 10.4302 10.1131 10.4561 10.3349 10.5737C10.5566 10.6913 10.723 10.8912 10.7979 11.1301L11.8298 14.472H15.1167L16.1486 11.1301C16.2099 10.9277 16.3371 10.7514 16.5101 10.629C16.6831 10.5066 16.8921 10.4451 17.1041 10.4541C17.3161 10.4451 17.525 10.5066 17.698 10.629C17.871 10.7514 17.9982 10.9277 18.0596 11.1301L19.0819 14.472H22.3784L23.4007 11.1301C23.4347 11.0072 23.4931 10.8923 23.5725 10.7923C23.6519 10.6923 23.7506 10.6092 23.8628 10.5479C23.975 10.4867 24.0984 10.4485 24.2257 10.4356C24.3531 10.4228 24.4816 10.4356 24.6039 10.4732C24.7262 10.5109 24.8396 10.5726 24.9374 10.6547C25.0353 10.7369 25.1156 10.8378 25.1736 10.9514C25.2316 11.0651 25.2661 11.1892 25.275 11.3164C25.284 11.4436 25.2672 11.5712 25.2257 11.6918L24.3753 14.472H25.5792C25.8326 14.472 26.0757 14.5723 26.2549 14.7509C26.434 14.9295 26.5347 15.1716 26.5347 15.4241C26.5347 15.6766 26.434 15.9188 26.2549 16.0974C26.0757 16.2759 25.8326 16.3762 25.5792 16.3762H23.7065L21.5566 23.3648C21.4953 23.5672 21.3681 23.7435 21.1951 23.8659C21.0221 23.9883 20.8131 24.0498 20.6012 24.0408C20.3892 24.0498 20.1802 23.9883 20.0072 23.8659C19.8342 23.7435 19.707 23.5672 19.6457 23.3648L17.5914 16.3762H16.5404L14.4001 23.3648C14.3422 23.5625 14.2215 23.7363 14.0561 23.8599C13.8907 23.9835 13.6895 24.0503 13.4828 24.0503C13.2761 24.0503 13.0749 23.9835 12.9095 23.8599C12.7441 23.7363 12.6234 23.5625 12.5655 23.3648L10.4253 16.3762H8.6385C8.51223 16.3775 8.38696 16.3538 8.26993 16.3065C8.1529 16.2592 8.04643 16.1893 7.95669 16.1008C7.86695 16.0122 7.79572 15.9068 7.74711 15.7907C7.69849 15.6746 7.67347 15.55 7.67347 15.4241Z" fill="white"/>
</g>
<defs>
<clipPath id="clip0_353_965">
<rect width="44" height="34" fill="white"/>
</clipPath>
</defs>
</svg>
