<svg xmlns="http://www.w3.org/2000/svg" viewBox="0 0 30 30"><defs><style>.cls-1{fill:#fff;}.cls-2{fill:none;}</style></defs><g id="레이어_2" data-name="레이어 2"><g id="레이어_1-2" data-name="레이어 1"><path class="cls-1" d="M26.81,12.72,22.4,8.31l.91-.91-.71-.71-.91.91L17.28,3.19a1.79,1.79,0,0,0-2.53,0l-1.3,1.3a1.8,1.8,0,0,0-.52,1.32,1.78,1.78,0,0,0-1.3.5l-1.3,1.3a1.78,1.78,0,0,0-.52,1.27v0a1.8,1.8,0,0,0-1.3.51l-1.3,1.31a1.77,1.77,0,0,0,0,2.52l4.41,4.41L5,24.3l.35.35L5.7,25l6.62-6.62,4.42,4.41a1.76,1.76,0,0,0,2.52,0l1.31-1.3a1.81,1.81,0,0,0,.52-1.26v0h0a1.79,1.79,0,0,0,1.27-.52l1.3-1.3a1.77,1.77,0,0,0,.52-1.3h0a1.77,1.77,0,0,0,1.26-.52l1.3-1.3a1.8,1.8,0,0,0,0-2.53ZM17.7,17.27c-.75-.63-.69-1.46-.52-2.65a3.07,3.07,0,0,0-.93-3.06,4.24,4.24,0,0,0-.87-.45,3.17,3.17,0,0,1-.71-.38A1.78,1.78,0,0,1,14,9.53a2.12,2.12,0,0,1,.69-1.67L17.57,5l7.61,7.57-4.75,4.75h0a1.62,1.62,0,0,1-.68.42A2.23,2.23,0,0,1,17.7,17.27ZM14.16,5.2l1.3-1.3A.76.76,0,0,1,16,3.67a.74.74,0,0,1,.55.23l.33.32L14.49,6.65l-.33-.34A.78.78,0,0,1,14.16,5.2ZM11,8.32,12.34,7a.8.8,0,0,1,1.11,0l.36.35A3,3,0,0,0,13,9.65a2.8,2.8,0,0,0,1.05,1.87A4.32,4.32,0,0,0,15,12a3,3,0,0,1,.67.34c.52.38.69,1.05.53,2.11,0,0,0,.06,0,.1L11,9.43a.75.75,0,0,1-.23-.55A.79.79,0,0,1,11,8.32Zm8.82,12.46-1.3,1.31a.83.83,0,0,1-1.12,0L7.91,12.56a.81.81,0,0,1,0-1.12l1.31-1.3a.78.78,0,0,1,.55-.23.8.8,0,0,1,.56.23l5.75,5.75a2.75,2.75,0,0,0,1,2.14,3.33,3.33,0,0,0,1.93.76l.88.88a.79.79,0,0,1,.23.56A.75.75,0,0,1,19.86,20.78ZM23,17.66,21.68,19a.78.78,0,0,1-1.11,0l-.37-.36a2.68,2.68,0,0,0,.94-.61l0,0c.24-.21.72-.67,1.67-1.61l.2.2A.78.78,0,0,1,23,17.66Zm3.12-3.12-1.3,1.3a.8.8,0,0,1-1.11,0l-.2-.2,2.42-2.41.19.2a.75.75,0,0,1,.23.55A.79.79,0,0,1,26.1,14.54Z"/><rect class="cls-2" width="30" height="30"/></g></g></svg>