<svg width="26" height="25" viewBox="0 0 26 25" fill="none" xmlns="http://www.w3.org/2000/svg">
<g clip-path="url(#clip0_450_748)">
<path d="M7.71105 0H2.10053L0 5.61053H6.30842L7.71105 0Z" fill="#A7ACB2"/>
<path d="M23.1329 5.61053L21.0324 0H15.4219L16.8245 5.61053H23.1329Z" fill="#A7ACB2"/>
<path d="M15.7771 5.61053L14.4771 0H8.65449L7.36133 5.61053H15.7771Z" fill="#A7ACB2"/>
<path d="M21.7105 13.7048V11.2348H23.0789V6.65747H16.832V11.2143H20.342V13.7048C20.7961 13.6441 21.2563 13.6441 21.7105 13.7048V13.7048Z" fill="#A7ACB2"/>
<path d="M17.6521 14.7241H2.80469V23.1331H16.4889C15.9868 22.5164 15.6165 21.8032 15.4009 21.0378C15.1853 20.2723 15.1289 19.4707 15.2354 18.6826C15.3418 17.8945 15.6088 17.1366 16.0198 16.4557C16.4307 15.7749 16.9769 15.1855 17.6247 14.7241H17.6521Z" fill="#A7ACB2"/>
<path d="M6.30842 11.2211V6.66431H0V11.2211H1.40263V23.1333H2.80526V11.2211H6.30842Z" fill="#A7ACB2"/>
<path d="M15.7771 6.66431H7.36133V11.2211H15.7771V6.66431Z" fill="#A7ACB2"/>
<path d="M25.5692 23.1194L24.4471 21.9631C24.99 21.2434 25.2852 20.3672 25.2887 19.4657C25.2991 18.5042 24.9842 17.5674 24.395 16.8075C23.8058 16.0476 22.977 15.5092 22.0433 15.2798C21.1095 15.0504 20.1256 15.1435 19.2513 15.5439C18.3771 15.9443 17.6639 16.6285 17.2277 17.4854C16.7914 18.3423 16.6577 19.3215 16.8482 20.264C17.0387 21.2065 17.5423 22.0569 18.2772 22.677C19.012 23.2972 19.9349 23.6506 20.896 23.68C21.8572 23.7094 22.8 23.413 23.5713 22.8389L24.6934 23.9678L24.9466 24.221C25.0034 24.2797 25.0714 24.3265 25.1466 24.3584C25.2219 24.3903 25.3028 24.4068 25.3845 24.4068C25.4662 24.4068 25.5471 24.3903 25.6223 24.3584C25.6976 24.3265 25.7656 24.2797 25.8224 24.221C25.9377 24.1044 26.0024 23.9471 26.0024 23.7831C26.0024 23.6191 25.9377 23.4617 25.8224 23.3452L25.5692 23.1194ZM21.0329 22.4352C20.4426 22.4352 19.8656 22.26 19.3748 21.9319C18.8841 21.6038 18.5018 21.1375 18.2762 20.592C18.0506 20.0465 17.9919 19.4464 18.1076 18.8675C18.2232 18.2886 18.508 17.7571 18.9259 17.3402C19.3438 16.9233 19.876 16.6397 20.4551 16.5254C21.0342 16.411 21.6343 16.4711 22.1793 16.6979C22.7242 16.9247 23.1897 17.3082 23.5166 17.7996C23.8436 18.2911 24.0174 18.8686 24.0161 19.4589C24.017 19.8515 23.9402 20.2403 23.7902 20.6031C23.6401 20.9659 23.4198 21.2954 23.1419 21.5727C22.864 21.85 22.534 22.0696 22.1708 22.2188C21.8077 22.368 21.4186 22.4438 21.0261 22.442L21.0329 22.4352Z" fill="#A7ACB2"/>
</g>
<defs>
<clipPath id="clip0_450_748">
<rect width="26" height="24.4332" fill="white"/>
</clipPath>
</defs>
</svg>
