<svg width="35" height="26" viewBox="0 0 35 26" fill="none" xmlns="http://www.w3.org/2000/svg">
<g clip-path="url(#clip0_450_740)">
<path d="M10.8911 15.1662L11.7022 12.5232H10.0801L10.8911 15.1662Z" fill="#A7ACB2"/>
<path d="M17.188 12.5232H15.5586L16.3769 15.1662L17.188 12.5232Z" fill="#A7ACB2"/>
<path d="M21.1921 -2.29596e-05C19.912 -0.00079097 18.6389 0.188155 17.4146 0.560607C15.4641 -0.0314205 13.4015 -0.159762 11.3922 0.185876C9.38295 0.531515 7.48292 1.34151 5.84449 2.55092C4.20607 3.76032 2.87484 5.33547 1.95757 7.15006C1.0403 8.96464 0.5625 10.9682 0.5625 13C0.5625 15.0318 1.0403 17.0353 1.95757 18.8499C2.87484 20.6645 4.20607 22.2396 5.84449 23.449C7.48292 24.6584 9.38295 25.4684 11.3922 25.8141C13.4015 26.1597 15.4641 26.0314 17.4146 25.4393C19.362 26.0257 21.4201 26.1497 23.4243 25.8014C25.4284 25.4531 27.3229 24.6422 28.9562 23.4336C30.5895 22.225 31.9163 20.6522 32.8302 18.8411C33.7442 17.03 34.2201 15.0308 34.2198 13.0036C34.2218 9.55803 32.8505 6.25268 30.4076 3.81424C27.9646 1.37579 24.6499 0.0038371 21.1921 -2.29596e-05V-2.29596e-05ZM13.6297 24.4419C11.3577 24.4419 9.13672 23.7704 7.24769 22.5124C5.35866 21.2545 3.88647 19.4665 3.01734 17.3747C2.1482 15.2829 1.92117 12.9812 2.36495 10.7607C2.80873 8.54033 3.9034 6.50094 5.51048 4.90055C7.11756 3.30015 9.16486 2.21064 11.3934 1.76983C13.622 1.32903 15.9317 1.55673 18.0303 2.42413C20.129 3.29153 21.9224 4.75966 23.1836 6.64283C24.4448 8.526 25.1172 10.7396 25.1158 13.0036C25.1119 16.0373 23.9003 18.9455 21.7469 21.09C19.5935 23.2345 16.6742 24.4399 13.6297 24.4419V24.4419ZM21.1921 24.3618C20.8122 24.3618 20.4615 24.3618 20.0596 24.3035C22.0603 23.17 23.724 21.5286 24.8814 19.5463C26.0387 17.564 26.6484 15.3115 26.6484 13.0182C26.6484 10.7248 26.0387 8.47236 24.8814 6.49005C23.724 4.50774 22.0603 2.86632 20.0596 1.73283C20.4322 1.73283 20.7902 1.67458 21.1921 1.67458C24.1661 1.74961 26.993 2.97957 29.0699 5.10214C31.1467 7.22472 32.3091 10.0719 32.3091 13.0364C32.3091 16.0009 31.1467 18.848 29.0699 20.9706C26.993 23.0932 24.1661 24.3232 21.1921 24.3982V24.3618Z" fill="#A7ACB2"/>
<path d="M24.202 13.0037C24.2035 10.9196 23.5846 8.88199 22.4238 7.14849C21.2629 5.41499 19.6122 4.06351 17.6804 3.26499C15.7486 2.46648 13.6226 2.2568 11.5712 2.66249C9.51981 3.06818 7.63525 4.07101 6.1559 5.54412C4.67655 7.01724 3.66887 8.89446 3.26033 10.9383C2.85179 12.9822 3.06074 15.1009 3.86075 17.0264C4.66075 18.9519 6.01588 20.5978 7.7547 21.7557C9.49353 22.9137 11.538 23.5318 13.6293 23.5318C16.4315 23.5299 19.1185 22.4203 21.1007 20.4465C23.0828 18.4727 24.1982 15.796 24.202 13.0037ZM6.45423 11.795C6.45423 11.6019 6.53121 11.4167 6.66824 11.2802C6.80526 11.1437 6.99111 11.0669 7.18489 11.0669H8.10553L7.44793 8.94091C7.41982 8.84913 7.4102 8.75272 7.41961 8.65721C7.42902 8.56171 7.45729 8.469 7.50278 8.38443C7.54828 8.29985 7.6101 8.22507 7.68471 8.16439C7.75931 8.1037 7.84521 8.05829 7.93748 8.0308C8.12157 7.97615 8.31985 7.99593 8.48942 8.08586C8.65898 8.1758 8.78619 8.32865 8.8435 8.51134L9.63262 11.0669H12.1461L12.9352 8.51134C12.9821 8.35657 13.0794 8.22177 13.2117 8.12817C13.344 8.03457 13.5038 7.9875 13.6659 7.99441C13.828 7.9875 13.9878 8.03457 14.1201 8.12817C14.2524 8.22177 14.3496 8.35657 14.3965 8.51134L15.1783 11.0669H17.6991L18.481 8.51134C18.5069 8.41734 18.5516 8.32952 18.6123 8.25304C18.673 8.17657 18.7485 8.113 18.8343 8.06615C18.9201 8.01931 19.0145 7.99011 19.1119 7.9803C19.2092 7.97049 19.3075 7.98027 19.401 8.00905C19.4945 8.03783 19.5813 8.08502 19.6561 8.14783C19.7309 8.21065 19.7923 8.2878 19.8367 8.37472C19.881 8.46163 19.9074 8.55653 19.9143 8.65379C19.9211 8.75106 19.9083 8.84868 19.8765 8.94091L19.2262 11.0669H20.1469C20.3406 11.0669 20.5265 11.1437 20.6635 11.2802C20.8005 11.4167 20.8775 11.6019 20.8775 11.795C20.8775 11.9881 20.8005 12.1733 20.6635 12.3099C20.5265 12.4464 20.3406 12.5231 20.1469 12.5231H18.7148L17.0708 17.8673C17.0239 18.022 16.9266 18.1569 16.7943 18.2505C16.662 18.3441 16.5022 18.3911 16.3401 18.3842C16.178 18.3911 16.0182 18.3441 15.8859 18.2505C15.7536 18.1569 15.6563 18.022 15.6094 17.8673L14.0385 12.5231H13.2348L11.5981 17.8673C11.5538 18.0185 11.4615 18.1514 11.3351 18.2459C11.2086 18.3404 11.0548 18.3915 10.8967 18.3915C10.7386 18.3915 10.5847 18.3404 10.4583 18.2459C10.3318 18.1514 10.2395 18.0185 10.1952 17.8673L8.55854 12.5231H7.1922C7.09563 12.5241 6.99984 12.5059 6.91034 12.4698C6.82085 12.4336 6.73944 12.3802 6.67081 12.3124C6.60219 12.2447 6.54771 12.1642 6.51054 12.0753C6.47336 11.9865 6.45423 11.8913 6.45423 11.795Z" fill="#A7ACB2"/>
</g>
<defs>
<clipPath id="clip0_450_740">
<rect width="33.6471" height="26" fill="white" transform="translate(0.587891)"/>
</clipPath>
</defs>
</svg>
