<svg xmlns="http://www.w3.org/2000/svg" viewBox="0 0 30 30"><defs><style>.cls-1{fill:#a7acb2;}.cls-2{fill:none;}</style></defs><g id="레이어_2" data-name="레이어 2"><g id="레이어_1-2" data-name="레이어 1"><path class="cls-1" d="M27.08,18.31a2.45,2.45,0,0,0-2.45-2.45h-.17V13.4H25a.5.5,0,0,0,.48-.35l.34-1.11A5.36,5.36,0,0,0,20.68,5H9.32a5.36,5.36,0,0,0-5.11,6.93l.34,1.11A.5.5,0,0,0,5,13.4h.51v2.46H5.37a2.48,2.48,0,0,0-.84,4.8v.5A3.84,3.84,0,0,0,8.36,25H21.64a3.84,3.84,0,0,0,3.83-3.83v-.51A2.46,2.46,0,0,0,27.08,18.31ZM5.53,21.16v-.35H24.47v.35A2.83,2.83,0,0,1,21.64,24H8.36A2.83,2.83,0,0,1,5.53,21.16Zm19.1-1.35H5.37a1.48,1.48,0,0,1,0-2.95h.22a2.73,2.73,0,0,0,4.93,1.07,2.73,2.73,0,0,0,4.48,0,2.73,2.73,0,0,0,4.48,0,2.73,2.73,0,0,0,4.93-1.07h.22a1.48,1.48,0,0,1,0,2.95ZM9.32,6H20.68a4.35,4.35,0,0,1,4.15,5.64l-.23.75H5.4l-.23-.75A4.35,4.35,0,0,1,9.32,6ZM14.5,13.4h5.76l-2.44,3ZM9.94,16.86A1.75,1.75,0,0,1,8.28,18.1a1.73,1.73,0,0,1-1.66-1.24Zm4.48,0a1.73,1.73,0,0,1-3.32,0Zm2.41,0,.71.64a.55.55,0,0,0,.34.13h0a.51.51,0,0,0,.35-.19l.47-.58h.16a1.73,1.73,0,0,1-3.32,0Zm6.55,0a1.73,1.73,0,0,1-1.66,1.24,1.75,1.75,0,0,1-1.66-1.24Zm-3.83-1,.8-1h3.11v1Zm3.91-2h-2.3l.38-.47h1.92ZM13,13.4l.53.47h-7V13.4ZM6.54,14.87h8.1l1.09,1H6.54Z"/><path class="cls-1" d="M15,10a.5.5,0,0,0,.5-.5V8.89a.5.5,0,0,0-1,0v.65A.5.5,0,0,0,15,10Z"/><path class="cls-1" d="M10.64,9.82a.39.39,0,0,0,.15,0,.5.5,0,0,0,.48-.34l.2-.63a.5.5,0,1,0-1-.3l-.19.62A.49.49,0,0,0,10.64,9.82Z"/><path class="cls-1" d="M18.73,9.5a.5.5,0,0,0,.48.34.39.39,0,0,0,.15,0,.49.49,0,0,0,.32-.63l-.19-.62a.5.5,0,1,0-1,.3Z"/><rect class="cls-2" width="30" height="30"/></g></g></svg>