<svg xmlns="http://www.w3.org/2000/svg" viewBox="0 0 30 30"><defs><style>.cls-1{fill:#fff;}.cls-2{fill:none;}</style></defs><g id="레이어_2" data-name="레이어 2"><g id="레이어_1-2" data-name="레이어 1"><path class="cls-1" d="M26.66,7.37a16.72,16.72,0,0,0-2-.89A18.67,18.67,0,0,0,21,5.57a20.78,20.78,0,0,0-4.07-.19h0a19.17,19.17,0,0,0-4.66.8h0A16.87,16.87,0,0,0,9.35,7.37a2.44,2.44,0,0,0-1,3.29,2.41,2.41,0,0,0,1.18,1.09h0l.16.05c0,.11,0,.22,0,.34a4.22,4.22,0,0,0,.28,1.47,19.5,19.5,0,0,0-3.65.72,17.66,17.66,0,0,0-2.92,1.19h0a2.44,2.44,0,0,0-1,3.3A2.35,2.35,0,0,0,3.5,19.89h0l.16.05c0,.12,0,.23,0,.34A4.36,4.36,0,0,0,8,24.65h7.67A4.36,4.36,0,0,0,20,20.29c0-.08,0-.16,0-.24a2.4,2.4,0,0,0,1.65-3.55h0A4.37,4.37,0,0,0,26,12.14a2,2,0,0,0,0-.24,2.43,2.43,0,0,0,.67-4.53Zm-1.81,3.42a13.38,13.38,0,0,0-1.62-.7L24.7,7.57a15.69,15.69,0,0,1,1.49.69h0a1.44,1.44,0,0,1,.6,1.94A1.45,1.45,0,0,1,24.85,10.79ZM25,12.14a3.37,3.37,0,0,1-3.36,3.36H20.6a14.23,14.23,0,0,0-2-.86A18.09,18.09,0,0,0,15,13.72a21.23,21.23,0,0,0-4-.19,3.37,3.37,0,0,1-.31-1.39c0-.07,0-.13,0-.2a2.34,2.34,0,0,0,1-.26,12.41,12.41,0,0,1,3-1.08,16,16,0,0,1,4.16-.36h0a15,15,0,0,1,3.59.61h0a12.23,12.23,0,0,1,2,.83,2.61,2.61,0,0,0,.61.22A2,2,0,0,1,25,12.14Zm-4.24,6.21a1.46,1.46,0,0,1-1.94.6,12.58,12.58,0,0,0-1.61-.71l1.47-2.52c.51.21,1,.44,1.49.69A1.43,1.43,0,0,1,20.78,18.35ZM19,20.29a3.36,3.36,0,0,1-3.35,3.36H8a3.36,3.36,0,0,1-3.36-3.36c0-.07,0-.13,0-.2a2.38,2.38,0,0,0,1-.26,12.06,12.06,0,0,1,3-1.07,15.22,15.22,0,0,1,4.17-.36h0a15,15,0,0,1,3.59.6h0a11.13,11.13,0,0,1,2,.82,2.61,2.61,0,0,0,.61.22A1.94,1.94,0,0,1,19,20.29ZM12.74,7.08A17.72,17.72,0,0,1,16,6.45L14.15,9.68a13.41,13.41,0,0,0-3,1.11,1.52,1.52,0,0,1-.68.17Zm11,.15L22.25,9.79a15.2,15.2,0,0,0-2.64-.49l1.57-2.69A18.41,18.41,0,0,1,23.74,7.23ZM20.1,6.47,18.9,8.54l-.41.69a16.13,16.13,0,0,0-3,.19l1.78-3A18.41,18.41,0,0,1,20.1,6.47ZM9.81,8.26a14.24,14.24,0,0,1,1.48-.68l-1.76,3a1.49,1.49,0,0,1-.31-.4,1.43,1.43,0,0,1,.59-1.94Zm7.93,7.12-1,1.72-.49.84a14.46,14.46,0,0,0-2.64-.48l1.56-2.7A18.21,18.21,0,0,1,17.74,15.38Zm-5.25,2a16,16,0,0,0-3,.18l1.77-3.05a18.49,18.49,0,0,1,2.87.1Zm-4.34.44a13,13,0,0,0-3,1.12,1.23,1.23,0,0,1-.67.16l2.26-3.88A18.41,18.41,0,0,1,10,14.6Zm-2.86-2.1-1.76,3a1.38,1.38,0,0,1-.32-.4,1.44,1.44,0,0,1,.6-1.94A14.24,14.24,0,0,1,5.29,15.73Z"/><rect class="cls-2" width="30" height="30"/></g></g></svg>