<svg width="13" height="18" viewBox="0 0 13 18" fill="none" xmlns="http://www.w3.org/2000/svg">
<path d="M2.01077 14.2207C2.55989 14.5437 3.13324 14.786 3.73082 14.9475C4.3284 15.109 4.99058 15.1898 5.71736 15.1898C6.28264 15.1898 6.78331 15.109 7.21938 14.9475C7.65545 14.786 8.02692 14.5195 8.33378 14.148C8.64065 13.7604 8.87483 13.2598 9.03634 12.646C9.214 12.0162 9.32705 11.2328 9.37551 10.2961C8.95559 10.7968 8.38223 11.1763 7.65545 11.4347C6.94482 11.6931 6.20996 11.8223 5.45087 11.8223C4.59489 11.8223 3.82773 11.6931 3.14939 11.4347C2.48721 11.1602 1.92194 10.7806 1.45357 10.2961C0.985195 9.81157 0.621803 9.23015 0.363392 8.55182C0.12113 7.85734 0 7.0821 0 6.22611V5.74159C0 4.93405 0.137281 4.18304 0.411844 3.48856C0.702557 2.77793 1.1144 2.1642 1.64738 1.64738C2.18035 1.13055 2.82638 0.726784 3.58546 0.43607C4.3607 0.145357 5.23284 0 6.20188 0C7.31629 0 8.26918 0.177658 9.06057 0.532975C9.85195 0.87214 10.498 1.36474 10.9987 2.01077C11.4993 2.6568 11.8627 3.44011 12.0888 4.3607C12.3311 5.26514 12.4522 6.27456 12.4522 7.38896V8.50337C12.4522 10.4253 12.2826 12.0081 11.9435 13.2517C11.6205 14.4791 11.1521 15.4482 10.5384 16.1588C9.94078 16.8533 9.214 17.3297 8.35801 17.5882C7.50202 17.8627 6.5572 18 5.52355 18C4.73217 18 3.92463 17.9031 3.10094 17.7093C2.27725 17.5316 1.53432 17.2248 0.87214 16.7887L2.01077 14.2207ZM9.32705 5.81427C9.32705 4.86137 9.06864 4.12651 8.55182 3.60969C8.03499 3.07672 7.27591 2.81023 6.27456 2.81023C5.20861 2.81023 4.40108 3.07672 3.85195 3.60969C3.31898 4.12651 3.05249 4.86945 3.05249 5.83849V6.10498C3.05249 7.12248 3.30283 7.88156 3.8035 8.38223C4.30417 8.86676 5.08748 9.10902 6.15343 9.10902C6.70256 9.10902 7.179 9.03634 7.58277 8.89098C7.98654 8.72948 8.31763 8.51952 8.57604 8.2611C8.83445 7.98654 9.02019 7.6716 9.13324 7.31629C9.26245 6.96097 9.32705 6.58143 9.32705 6.17766V5.81427Z" fill="white"/>
</svg>
