<svg width="12" height="18" viewBox="0 0 12 18" fill="none" xmlns="http://www.w3.org/2000/svg">
<path d="M0.484522 2.51952C1.06595 1.76043 1.76043 1.15478 2.56797 0.702557C3.3755 0.234186 4.40915 0 5.66891 0C6.4926 0 7.23553 0.10498 7.89771 0.31494C8.55989 0.5249 9.12517 0.823688 9.59354 1.21131C10.0619 1.58277 10.4253 2.04307 10.6837 2.59219C10.9421 3.12517 11.0713 3.71467 11.0713 4.3607V4.60296C11.0713 4.94213 11.031 5.31359 10.9502 5.71736C10.8856 6.10498 10.7564 6.48452 10.5626 6.85599C10.3688 7.21131 10.1104 7.5424 9.78735 7.84926C9.46433 8.15612 9.05249 8.40646 8.55182 8.60027C9.71467 8.81023 10.5707 9.27053 11.1198 9.98116C11.6689 10.6918 11.9435 11.5478 11.9435 12.5491V12.9125C11.9435 13.5747 11.8143 14.2127 11.5559 14.8264C11.2974 15.4401 10.9017 15.9812 10.3688 16.4495C9.85195 16.9179 9.18977 17.2894 8.38223 17.5639C7.59085 17.8546 6.66218 18 5.59623 18C4.57873 18 3.59354 17.8385 2.64065 17.5155C1.7039 17.2086 0.823688 16.7241 0 16.0619L1.52624 13.6393C1.94616 13.9462 2.32571 14.2046 2.66487 14.4145C3.02019 14.6245 3.35935 14.7941 3.68237 14.9233C4.00538 15.0363 4.32032 15.1171 4.62719 15.1655C4.93405 15.214 5.26514 15.2382 5.62046 15.2382C6.71871 15.2382 7.52625 15.0202 8.04307 14.5841C8.55989 14.148 8.8183 13.5424 8.8183 12.7672V12.4522C8.8183 11.5962 8.56797 10.9744 8.06729 10.5868C7.56662 10.183 6.75909 9.98116 5.64468 9.98116H3.29475V7.31629H5.3782C5.92732 7.31629 6.37147 7.25976 6.71063 7.1467C7.06595 7.0175 7.34051 6.84791 7.53432 6.63795C7.72813 6.41184 7.85734 6.14536 7.92194 5.83849C8.00269 5.51548 8.04307 5.16824 8.04307 4.79677V4.60296C8.04307 3.94078 7.82503 3.46433 7.38896 3.17362C6.96904 2.86676 6.39569 2.71332 5.66891 2.71332C4.92598 2.71332 4.32032 2.85061 3.85195 3.12517C3.39973 3.39973 2.97981 3.74697 2.59219 4.16689L0.484522 2.51952Z" fill="white"/>
</svg>
