<svg width="13" height="18" viewBox="0 0 13 18" fill="none" xmlns="http://www.w3.org/2000/svg">
<path d="M10.4415 3.77927C9.89233 3.45626 9.31898 3.214 8.7214 3.05249C8.12382 2.89098 7.46164 2.81023 6.73486 2.81023C6.28264 2.81023 5.84657 2.89098 5.42665 3.05249C5.02288 3.214 4.65141 3.48856 4.31225 3.87618C3.98923 4.24765 3.71467 4.74832 3.48856 5.3782C3.26245 5.99193 3.12517 6.76716 3.07672 7.7039C3.49664 7.20323 4.06191 6.82369 4.77254 6.56528C5.49933 6.30686 6.24226 6.17766 7.00135 6.17766C7.84118 6.17766 8.60027 6.31494 9.2786 6.5895C9.95693 6.84791 10.5303 7.22746 10.9987 7.72813C11.467 8.21265 11.8223 8.80215 12.0646 9.49664C12.323 10.1911 12.4522 10.9583 12.4522 11.7981V12.2826C12.4522 13.0902 12.3069 13.8493 12.0162 14.5599C11.7416 15.2544 11.3378 15.86 10.8048 16.3769C10.2719 16.8775 9.61777 17.2732 8.84253 17.5639C8.08345 17.8546 7.21938 18 6.25034 18C5.13594 18 4.18304 17.8223 3.39166 17.467C2.60027 17.1279 1.95424 16.6353 1.45357 15.9892C0.952894 15.3432 0.581427 14.568 0.339166 13.6635C0.113055 12.7429 0 11.7254 0 10.611V9.49664C0 7.5747 0.177658 6 0.532974 4.77254C0.904442 3.52894 1.40511 2.55989 2.03499 1.86541C2.66487 1.15478 3.39973 0.670256 4.23957 0.411844C5.07941 0.137281 5.97577 0 6.92867 0C7.72005 0 8.52759 0.0969046 9.35128 0.290714C10.175 0.468372 10.9179 0.775236 11.5801 1.21131L10.4415 3.77927ZM3.12517 12.1857C3.12517 13.1386 3.38358 13.8816 3.9004 14.4145C4.41723 14.9314 5.17631 15.1898 6.17766 15.1898C7.24361 15.1898 8.04307 14.9314 8.57604 14.4145C9.12517 13.8816 9.39973 13.1306 9.39973 12.1615V11.895C9.39973 10.8775 9.14939 10.1265 8.64872 9.64199C8.14805 9.14132 7.36474 8.89098 6.29879 8.89098C5.73351 8.89098 5.24899 8.97174 4.84522 9.13324C4.4576 9.2786 4.13459 9.48856 3.87618 9.76312C3.61777 10.0215 3.42396 10.3284 3.29475 10.6837C3.1817 11.039 3.12517 11.4186 3.12517 11.8223V12.1857Z" fill="white"/>
</svg>
