<svg width="13" height="18" viewBox="0 0 13 18" fill="none" xmlns="http://www.w3.org/2000/svg">
<path d="M3.63392 5.20861C3.63392 5.59623 3.70659 5.9354 3.85195 6.22611C3.99731 6.50067 4.18304 6.73486 4.40915 6.92867C4.65141 7.10633 4.9179 7.24361 5.20861 7.34051C5.49933 7.42127 5.79004 7.46164 6.08075 7.46164C6.38762 7.46164 6.67833 7.42127 6.95289 7.34051C7.24361 7.24361 7.50202 7.10633 7.72813 6.92867C7.95424 6.73486 8.1319 6.50067 8.2611 6.22611C8.40646 5.9354 8.47914 5.59623 8.47914 5.20861V4.96635C8.47914 4.20727 8.25303 3.64199 7.80081 3.27052C7.36474 2.88291 6.78331 2.6891 6.05653 2.6891C5.3782 2.6891 4.80485 2.88291 4.33647 3.27052C3.8681 3.64199 3.63392 4.20727 3.63392 4.96635V5.20861ZM3.19785 12.9125C3.19785 13.6716 3.46433 14.2611 3.99731 14.681C4.53028 15.0848 5.23284 15.2867 6.10498 15.2867C6.97712 15.2867 7.66353 15.0848 8.1642 14.681C8.66487 14.2611 8.91521 13.6716 8.91521 12.9125V12.6703C8.91521 12.2342 8.83446 11.8627 8.67295 11.5559C8.52759 11.249 8.32571 10.9906 8.06729 10.7806C7.82503 10.5707 7.53432 10.4172 7.19516 10.3203C6.85599 10.2234 6.4926 10.175 6.10498 10.175C5.71736 10.175 5.3459 10.2234 4.99058 10.3203C4.65141 10.4172 4.34455 10.5707 4.06999 10.7806C3.81158 10.9744 3.60161 11.2328 3.44011 11.5559C3.2786 11.8627 3.19785 12.2342 3.19785 12.6703V12.9125ZM0 12.6945C0 12.21 0.0807536 11.7577 0.242261 11.3378C0.403768 10.9018 0.613728 10.5141 0.87214 10.175C1.1467 9.81965 1.45357 9.52086 1.79273 9.2786C2.1319 9.03634 2.48721 8.85868 2.85868 8.74563C2.43876 8.53567 2.07537 8.28533 1.76851 7.99462C1.47779 7.68775 1.23553 7.37281 1.04172 7.0498C0.847914 6.71063 0.702557 6.37147 0.605653 6.0323C0.508748 5.69314 0.460296 5.3782 0.460296 5.08748V4.79677C0.460296 4.16689 0.565276 3.56931 0.775236 3.00404C1.00135 2.42261 1.34051 1.91386 1.79273 1.47779C2.2611 1.02557 2.84253 0.670256 3.53701 0.411844C4.24764 0.137281 5.07941 0 6.0323 0C6.96904 0 7.78466 0.137281 8.47914 0.411844C9.18977 0.670256 9.77927 1.02557 10.2476 1.47779C10.716 1.91386 11.0633 2.42261 11.2894 3.00404C11.5316 3.56931 11.6528 4.16689 11.6528 4.79677V5.08748C11.6528 5.3782 11.6043 5.68506 11.5074 6.00808C11.4266 6.33109 11.2894 6.6541 11.0956 6.97712C10.9018 7.30013 10.6514 7.61507 10.3446 7.92194C10.0538 8.2288 9.69852 8.50337 9.2786 8.74563C9.65007 8.85868 10.0054 9.04441 10.3446 9.30283C10.6999 9.54509 11.0067 9.8358 11.2651 10.175C11.5236 10.5141 11.7254 10.9018 11.8708 11.3378C12.0323 11.7577 12.1131 12.21 12.1131 12.6945V13.1063C12.1131 13.8008 11.9839 14.4468 11.7254 15.0444C11.467 15.642 11.0794 16.1588 10.5626 16.5949C10.0619 17.031 9.44011 17.3701 8.69718 17.6124C7.95424 17.8708 7.09825 18 6.12921 18C5.12786 18 4.23957 17.8708 3.46433 17.6124C2.70525 17.3701 2.06729 17.031 1.55047 16.5949C1.03365 16.1588 0.64603 15.642 0.387618 15.0444C0.129206 14.4468 0 13.8008 0 13.1063V12.6945Z" fill="white"/>
</svg>
