<svg width="13" height="18" viewBox="0 0 13 18" fill="none" xmlns="http://www.w3.org/2000/svg">
<path d="M9.44262 11.8033C9.44262 10.8525 9.16393 10.123 8.60656 9.61475C8.06557 9.10656 7.30328 8.85246 6.31967 8.85246C5.56557 8.85246 4.90984 8.9918 4.35246 9.27049C3.81148 9.54918 3.34426 9.87705 2.95082 10.2541H0.836065L1.40164 0H11.459V2.60656H4.22951L4.03279 7.22951C4.44262 6.98361 4.90984 6.77049 5.43443 6.59016C5.95902 6.40984 6.59016 6.31967 7.32787 6.31967C8.18033 6.31967 8.93443 6.46721 9.59016 6.76229C10.2459 7.05738 10.7951 7.45902 11.2377 7.96721C11.6967 8.45902 12.041 9.03279 12.2705 9.68852C12.5 10.3443 12.6148 11.0246 12.6148 11.7295V12.0984C12.6148 12.8033 12.4918 13.5082 12.2459 14.2131C12.0164 14.918 11.6393 15.5492 11.1148 16.1066C10.6066 16.6639 9.95082 17.1148 9.14754 17.459C8.36066 17.8197 7.40984 18 6.29508 18C5.01639 18 3.86885 17.8525 2.85246 17.5574C1.83607 17.2787 0.885246 16.7705 0 16.0328L1.52459 13.5492C1.93443 13.877 2.33607 14.1475 2.72951 14.3607C3.12295 14.5738 3.5082 14.7377 3.88525 14.8525C4.27869 14.9672 4.67213 15.0492 5.06557 15.0984C5.45902 15.1311 5.86066 15.1475 6.27049 15.1475C7.35246 15.1475 8.14754 14.8607 8.65574 14.2869C9.18033 13.6967 9.44262 12.959 9.44262 12.0738V11.8033Z" fill="white"/>
</svg>
