<svg width="13" height="18" viewBox="0 0 13 18" fill="none" xmlns="http://www.w3.org/2000/svg">
<path d="M12.8398 10.3446C12.8398 12.8318 12.3149 14.7295 11.2651 16.0377C10.2153 17.3459 8.63257 18 6.51682 18C4.43338 18 2.82638 17.3378 1.69583 16.0135C0.565276 14.6891 0 12.7995 0 10.3446V7.63122C0 5.17631 0.557201 3.29475 1.6716 1.98654C2.80215 0.66218 4.393 0 6.44414 0C8.51144 0 10.0942 0.66218 11.1925 1.98654C12.2907 3.29475 12.8398 5.17631 12.8398 7.63122V10.3446ZM9.71467 7.607C9.71467 6.60565 9.61776 5.79812 9.42396 5.18439C9.2463 4.57066 9.00404 4.10229 8.69717 3.77927C8.40646 3.44011 8.05922 3.214 7.65545 3.10094C7.26783 2.98789 6.86406 2.93136 6.44414 2.93136C6.04038 2.93136 5.63661 2.98789 5.23284 3.10094C4.84522 3.214 4.48991 3.44011 4.16689 3.77927C3.86003 4.11844 3.60969 4.59489 3.41588 5.20861C3.22207 5.82234 3.12517 6.6218 3.12517 7.607V10.3688C3.12517 11.3701 3.22207 12.1777 3.41588 12.7914C3.62584 13.4051 3.89233 13.8816 4.21534 14.2207C4.53836 14.5599 4.90175 14.786 5.30552 14.8991C5.70929 15.0121 6.11305 15.0686 6.51682 15.0686C6.93674 15.0686 7.34051 15.0121 7.72813 14.8991C8.11575 14.786 8.45491 14.568 8.74563 14.245C9.03634 13.9058 9.27052 13.4293 9.44818 12.8156C9.62584 12.2019 9.71467 11.3863 9.71467 10.3688V7.607Z" fill="white"/>
</svg>
