<svg width="30" height="24" viewBox="0 0 30 24" fill="none" xmlns="http://www.w3.org/2000/svg">
<path fill-rule="evenodd" clip-rule="evenodd" d="M10.1963 0C9.27016 0 8.40937 0.44394 7.83218 1.20476L0.272496 11.1783C-0.0909112 11.6583 -0.0907921 12.3418 0.272614 12.8218L7.83301 22.7961C8.40932 23.5563 9.27029 24 10.1963 24H26.4429C28.1453 24 29.4857 22.5141 29.4857 20.7429V3.25715C29.4858 1.48582 28.1453 0 26.4429 0H10.1963ZM2.83585 11.9999L9.77138 2.8498C9.88264 2.70346 10.038 2.6285 10.1963 2.6285H26.4429C26.7259 2.6285 27 2.88532 27 3.25703L27.0001 20.7429C27.0001 21.1146 26.7259 21.3714 26.4429 21.3714H10.1963C10.0377 21.3714 9.88253 21.2963 9.77238 21.1512L2.83585 11.9999Z" fill="white"/>
<path fill-rule="evenodd" clip-rule="evenodd" d="M21.1969 9.05631L19.7424 7.60181L16.7987 10.5456L13.8549 7.60181L12.4004 9.05631L15.3442 12.0001L12.4004 14.9438L13.8549 16.3983L16.7987 13.4546L19.7424 16.3983L21.1969 14.9438L18.2532 12.0001L21.1969 9.05631Z" fill="white"/>
</svg>
