<svg width="13" height="18" viewBox="0 0 13 18" fill="none" xmlns="http://www.w3.org/2000/svg">
<path d="M6.51639 8.92623C7.02459 8.40164 7.42623 7.94262 7.72131 7.54918C8.01639 7.15574 8.2377 6.80328 8.38525 6.4918C8.53279 6.18033 8.62295 5.89344 8.65574 5.63115C8.68852 5.36885 8.70492 5.11475 8.70492 4.86885V4.67213C8.70492 4.19672 8.5082 3.77049 8.11475 3.39344C7.7377 3 7.09016 2.80328 6.17213 2.80328C5.84426 2.80328 5.51639 2.83607 5.18852 2.90164C4.87705 2.96721 4.56557 3.09016 4.2541 3.27049C3.94262 3.45082 3.63115 3.70492 3.31967 4.03279C3.02459 4.36066 2.72951 4.77869 2.43443 5.28688L0.0737704 3.7377C0.286885 3.36066 0.54918 2.95082 0.860656 2.5082C1.18852 2.06557 1.59016 1.66393 2.06557 1.30328C2.55738 0.926229 3.13115 0.614753 3.78689 0.368852C4.45902 0.122951 5.2459 0 6.14754 0C7.14754 0 8.0082 0.122951 8.72951 0.368852C9.45082 0.614753 10.041 0.950819 10.5 1.37705C10.9754 1.78689 11.3197 2.27049 11.5328 2.82787C11.7623 3.36885 11.877 3.94262 11.877 4.54918V4.79508C11.877 5.76229 11.6557 6.68852 11.2131 7.57377C10.7869 8.44262 10.1557 9.29508 9.31967 10.1311L4.10656 15.3934H12.541V18H0V15.6393L6.51639 8.92623Z" fill="white"/>
</svg>
