<svg xmlns="http://www.w3.org/2000/svg" viewBox="0 0 30 30"><defs><style>.cls-1{fill:#a7acb2;}.cls-2{fill:none;}</style></defs><g id="레이어_2" data-name="레이어 2"><g id="레이어_1-2" data-name="레이어 1"><path class="cls-1" d="M25.15,13.11a10.16,10.16,0,0,0-20.3,0H3.56v.5a11.43,11.43,0,0,0,6,10.06v3H20.43v-3a11.43,11.43,0,0,0,6-10.06v-.5ZM19.49,23h-9a10.46,10.46,0,0,1-5.94-8.91H25.43A10.46,10.46,0,0,1,19.49,23Zm-.06,1v1.66H10.57V24Zm4.72-10.91H5.85a9.16,9.16,0,0,1,18.3,0Z"/><path class="cls-1" d="M12,12.16a.52.52,0,0,0,.21,0l.74-.34a.5.5,0,0,0-.41-.91l-.74.33a.5.5,0,0,0-.25.66A.49.49,0,0,0,12,12.16Z"/><path class="cls-1" d="M14.63,10.1a.41.41,0,0,0,.21,0l.73-.33a.5.5,0,0,0,.26-.66.51.51,0,0,0-.67-.25l-.73.33a.5.5,0,0,0-.26.66A.51.51,0,0,0,14.63,10.1Z"/><path class="cls-1" d="M18.82,9.69a.52.52,0,0,0,.21,0l.73-.33A.49.49,0,0,0,20,8.66a.49.49,0,0,0-.66-.25l-.73.33a.49.49,0,0,0,.2.95Z"/><path class="cls-1" d="M7.55,11.65A.51.51,0,0,0,8,12a.46.46,0,0,0,.2,0L9,11.57a.5.5,0,1,0-.41-.91L7.8,11A.5.5,0,0,0,7.55,11.65Z"/><path class="cls-1" d="M10.25,9.33l.18,0L11.19,9a.49.49,0,0,0,.29-.64.5.5,0,0,0-.64-.29l-.76.28A.5.5,0,0,0,9.79,9,.48.48,0,0,0,10.25,9.33Z"/><path class="cls-1" d="M12.44,7.26a.47.47,0,0,0,.17,0L13.28,7a.5.5,0,0,0-.35-.93l-.67.25a.49.49,0,0,0-.29.64A.51.51,0,0,0,12.44,7.26Z"/><path class="cls-1" d="M16.94,7.28l.18,0L17.87,7A.5.5,0,1,0,17.52,6l-.75.28a.52.52,0,0,0-.3.65A.51.51,0,0,0,16.94,7.28Z"/><path class="cls-1" d="M18.17,10.88l-.76.29a.49.49,0,0,0-.29.64.5.5,0,0,0,.47.33.38.38,0,0,0,.17,0l.76-.28a.5.5,0,0,0-.35-.94Z"/><path class="cls-1" d="M21.08,11.92a.47.47,0,0,0,.17,0L22,11.6a.5.5,0,1,0-.35-.93L20.9,11a.5.5,0,0,0,.18,1Z"/><rect class="cls-2" width="30" height="30"/></g></g></svg>