<svg width="106" height="32" viewBox="0 0 106 32" fill="none" xmlns="http://www.w3.org/2000/svg">
<g clip-path="url(#clip0_433_2763)">
<path d="M55.7004 24.198C52.641 28.0799 48.0804 30.7146 42.9043 31.2354C43.524 31.2967 44.1569 31.3317 44.794 31.3317C55.1331 31.3317 63.5125 22.9288 63.5125 12.5608C63.5125 17.8214 60.2829 22.3292 55.7004 24.198Z" fill="white"/>
<path d="M55.7012 0.919189C58.2237 4.11843 59.7338 8.16233 59.7338 12.5564C59.7338 16.9504 58.2281 20.9943 55.7012 24.1935C60.2837 22.3248 63.5132 17.8213 63.5132 12.5564C63.5132 7.2914 60.2837 2.78796 55.7012 0.919189Z" fill="white"/>
<path d="M49.1015 1.89505C54.9759 1.89505 59.7373 6.66984 59.7373 12.5606C59.7373 8.16661 58.2316 4.1227 55.7047 0.923464C54.2514 0.328257 52.6584 0.00439453 50.9913 0.00439453C45.9723 0.00439453 41.6473 2.96292 39.6484 7.23441H39.8885C41.7258 4.04392 45.1605 1.89505 49.1015 1.89505Z" fill="white"/>
<path d="M49.1033 23.222C45.865 23.222 42.9627 21.769 41.0163 19.4757H40.5449C42.7882 22.8719 46.6287 25.117 50.9974 25.117C52.6646 25.117 54.2532 24.7888 55.7108 24.198C58.2334 20.9987 59.7435 16.9548 59.7435 12.5608C59.7347 18.4472 54.9733 23.222 49.1033 23.222Z" fill="white"/>
<path d="M4.06727 19.0381C3.29915 19.0381 2.62705 18.9155 2.05969 18.6661C1.49233 18.421 1.03844 18.0796 0.698029 17.6464C0.357614 17.2131 0.139399 16.701 0.0477485 16.1102C-0.0439017 15.5194 -0.00462302 14.8804 0.174313 14.1889C0.388164 13.3661 0.7504 12.5696 1.26975 11.8037C1.78474 11.0378 2.40447 10.3594 3.12894 9.77299C3.85341 9.18654 4.65208 8.71387 5.5293 8.35938C6.40653 8.00488 7.3143 7.82544 8.24826 7.82544C9.01638 7.82544 9.68848 7.94798 10.2558 8.19744C10.8232 8.44691 11.2771 8.7839 11.6175 9.21717C11.9579 9.65045 12.1761 10.1625 12.2678 10.7533C12.3594 11.3442 12.3201 11.9875 12.1412 12.6746C11.9274 13.4974 11.5651 14.2939 11.0458 15.0598C10.5308 15.8257 9.91106 16.5041 9.18658 17.0905C8.46648 17.677 7.66345 18.1496 6.78622 18.5041C5.90463 18.863 5.00122 19.0381 4.06727 19.0381ZM5.02305 16.3509C5.49439 16.3509 5.94391 16.2502 6.38034 16.0402C6.81677 15.8345 7.20956 15.5631 7.56307 15.2305C7.91657 14.8979 8.21771 14.5259 8.47084 14.1189C8.72397 13.7119 8.90291 13.3092 9.00765 12.9066C9.09493 12.5652 9.12548 12.2501 9.0993 11.9569C9.07311 11.6636 8.99019 11.4098 8.84617 11.191C8.70215 10.9765 8.50139 10.8059 8.23953 10.6877C7.97767 10.5695 7.65908 10.5082 7.28375 10.5082C6.81241 10.5082 6.36288 10.6133 5.93082 10.819C5.49875 11.0247 5.10597 11.296 4.7481 11.6286C4.39022 11.9613 4.08472 12.3333 3.83159 12.7403C3.57846 13.1473 3.39953 13.5499 3.29479 13.9526C3.2075 14.2939 3.17695 14.609 3.20313 14.9023C3.22932 15.1955 3.31224 15.4493 3.45626 15.6682C3.60029 15.887 3.80104 16.0533 4.0629 16.1715C4.32912 16.2896 4.64772 16.3509 5.02305 16.3509Z" fill="white"/>
<path d="M16.1949 8.02686H20.2625C21.1659 8.02686 21.8947 8.12314 22.449 8.32008C23.0032 8.51703 23.4135 8.79275 23.6797 9.156C23.8892 9.44485 24.0158 9.77746 24.0507 10.1538C24.0856 10.5302 24.0507 10.9329 23.9372 11.3661C23.7015 12.2721 23.2389 13.0642 22.5406 13.7382C21.8467 14.4122 20.904 14.898 19.7169 15.1956L20.437 18.8412H17.142L16.5572 15.5676H15.2304L13.5065 18.8412H10.5039L16.1949 8.02686ZM18.172 13.2174C18.8484 13.2174 19.4245 13.0817 19.8915 12.8148C20.3628 12.5434 20.6553 12.1758 20.7775 11.7119C20.8517 11.4318 20.8211 11.1867 20.6902 10.981C20.5069 10.7315 20.101 10.609 19.4638 10.609H17.8447L16.4612 13.2174H18.172Z" fill="white"/>
<path d="M27.2902 8.02686H30.7729C31.8203 8.02686 32.6495 8.15377 33.2605 8.41199C33.8716 8.6702 34.3298 9.00282 34.6353 9.41421C35.2114 10.1976 35.3292 11.2524 34.9888 12.5784C34.7793 13.3925 34.4302 14.1584 33.9457 14.8805C33.4613 15.6026 32.8503 16.2547 32.1127 16.8412C31.2966 17.4889 30.3801 17.9834 29.3589 18.3248C28.3376 18.6662 27.1985 18.8325 25.946 18.8325H21.6035L27.2902 8.02686ZM26.9847 16.1803C27.6088 16.1803 28.2154 16.0884 28.7959 15.9002C29.3763 15.7164 29.8957 15.4407 30.3452 15.0818C30.7074 14.793 31.0217 14.4516 31.2879 14.0621C31.5541 13.6726 31.7418 13.2612 31.8552 12.8279C31.9425 12.4997 31.9687 12.2108 31.9382 11.9701C31.9076 11.7294 31.8291 11.5193 31.6981 11.3443C31.5454 11.1386 31.3141 10.9766 31.0086 10.8585C30.6987 10.7403 30.2841 10.679 29.7604 10.679H28.8963L25.994 16.1759H26.9847V16.1803Z" fill="white"/>
<path d="M39.0114 8.02686H47.6527L46.2997 10.574H40.6305L39.762 12.2108H44.9075L43.6637 14.5741H38.5182L37.6104 16.2897H43.3713L42.0358 18.8369H33.3203L39.0114 8.02686Z" fill="white"/>
<path d="M49.3082 8.02686H53.3758C54.2792 8.02686 55.008 8.12314 55.5623 8.32008C56.1165 8.51703 56.5268 8.79275 56.793 9.156C57.0025 9.44485 57.1291 9.77746 57.164 10.1538C57.1989 10.5302 57.164 10.9329 57.0505 11.3661C56.8148 12.2721 56.3522 13.0642 55.6539 13.7382C54.96 14.4122 54.0173 14.898 52.8302 15.1956L53.5503 18.8412H50.2553L49.6705 15.5676H48.3437L46.6198 18.8412H43.6172L49.3082 8.02686ZM51.2853 13.2174C51.9617 13.2174 52.5378 13.0817 53.0048 12.8148C53.4761 12.5434 53.7685 12.1758 53.8907 11.7119C53.9649 11.4318 53.9344 11.1867 53.8035 10.981C53.6202 10.7315 53.2143 10.609 52.5771 10.609H50.9579L49.5745 13.2174H51.2853Z" fill="white"/>
<path d="M69.589 8.02686H70.715L72.836 16.8018L77.4622 8.02686H78.6493L72.9582 18.8412H71.9894L69.8116 9.86937L65.0894 18.8412H63.9023L69.589 8.02686Z" fill="white"/>
<path d="M81.8004 8.02686H83.0181L77.327 18.8412H76.1094L81.8004 8.02686Z" fill="white"/>
<path d="M86.173 8.02686H87.299L89.42 16.8018L94.0462 8.02686H95.2333L89.5422 18.8412H88.5734L86.3956 9.86937L81.6734 18.8412H80.4863L86.173 8.02686Z" fill="white"/>
<path d="M98.2828 8.02686H105.999L105.401 9.13849H98.9026L96.9604 12.8279H102.769L102.176 13.9395H96.3844L94.3899 17.7252H100.967L100.386 18.8369H92.5918L98.2828 8.02686Z" fill="white"/>
</g>
<defs>
<clipPath id="clip0_433_2763">
<rect width="106" height="31.3271" fill="white"/>
</clipPath>
</defs>
</svg>
