<svg width="162" height="48" viewBox="0 0 162 48" fill="none" xmlns="http://www.w3.org/2000/svg">
<g clip-path="url(#clip0_284_39)">
<path d="M85.1286 36.9814C80.453 42.9142 73.4828 46.9408 65.5723 47.7367C66.5194 47.8304 67.4865 47.8839 68.4604 47.8839C84.2615 47.8839 97.0679 35.0417 97.0679 19.1963C97.0679 27.236 92.1321 34.1253 85.1286 36.9814Z" fill="#1E1F21"/>
<path d="M85.1289 1.40527C88.9841 6.29467 91.2919 12.475 91.2919 19.1904C91.2919 25.9058 88.9908 32.0861 85.1289 36.9755C92.1323 34.1194 97.0681 27.2368 97.0681 19.1904C97.0681 11.1439 92.1323 4.26133 85.1289 1.40527Z" fill="#ED1C24"/>
<path d="M75.0429 2.89633C84.0206 2.89633 91.2976 10.1936 91.2976 19.1966C91.2976 12.4812 88.9964 6.30085 85.1345 1.41145C82.9134 0.501796 80.4789 0.00683594 77.9309 0.00683594C70.2605 0.00683594 63.6505 4.52836 60.5957 11.0565H60.9626C63.7706 6.18045 69.0199 2.89633 75.0429 2.89633Z" fill="#1E1F21"/>
<path d="M75.0427 35.4898C70.0936 35.4898 65.658 33.2692 62.6832 29.7644H61.9629C65.3912 34.9547 71.2608 38.386 77.9374 38.386C80.4854 38.386 82.9132 37.8844 85.141 36.9814C88.9962 32.092 91.304 25.9117 91.304 19.1963C91.2907 28.1925 84.0138 35.4898 75.0427 35.4898Z" fill="#1E1F21"/>
<path d="M6.21601 29.0963C5.0421 29.0963 4.01492 28.909 3.14783 28.5277C2.28073 28.1532 1.58706 27.6315 1.0668 26.9693C0.546542 26.3071 0.213043 25.5245 0.0729742 24.6216C-0.067095 23.7186 -0.00706537 22.7421 0.266403 21.6852C0.593231 20.4278 1.14684 19.2105 1.94056 18.0399C2.72762 16.8694 3.67475 15.8327 4.78197 14.9364C5.88918 14.0401 7.10978 13.3178 8.45045 12.776C9.79111 12.2342 11.1785 11.96 12.6058 11.96C13.7797 11.96 14.8069 12.1472 15.674 12.5285C16.5411 12.9097 17.2348 13.4248 17.755 14.087C18.2753 14.7491 18.6088 15.5317 18.7489 16.4347C18.8889 17.3376 18.8289 18.3209 18.5554 19.371C18.2286 20.6284 17.675 21.8458 16.8813 23.0163C16.0942 24.1868 15.1471 25.2235 14.0399 26.1198C12.9393 27.0161 11.7121 27.7385 10.3714 28.2803C9.02406 28.8287 7.64338 29.0963 6.21601 29.0963ZM7.67673 24.9894C8.39709 24.9894 9.08409 24.8356 9.75109 24.5145C10.4181 24.2002 11.0184 23.7855 11.5586 23.2771C12.0989 22.7688 12.5591 22.2003 12.946 21.5782C13.3329 20.9562 13.6063 20.3408 13.7664 19.7255C13.8998 19.2038 13.9465 18.7222 13.9065 18.274C13.8665 17.8259 13.7397 17.438 13.5196 17.1035C13.2995 16.7758 12.9927 16.5149 12.5925 16.3343C12.1923 16.1537 11.7054 16.0601 11.1318 16.0601C10.4114 16.0601 9.72441 16.2206 9.06408 16.535C8.40376 16.8494 7.80346 17.2641 7.25652 17.7724C6.70959 18.2807 6.24269 18.8493 5.85583 19.4713C5.46897 20.0934 5.19551 20.7087 5.03543 21.3241C4.90203 21.8458 4.85534 22.3274 4.89536 22.7755C4.93538 23.2236 5.06211 23.6116 5.28222 23.946C5.50232 24.2804 5.80914 24.5346 6.20934 24.7152C6.61621 24.8958 7.10311 24.9894 7.67673 24.9894Z" fill="#1E1F21"/>
<path d="M24.7523 12.2676H30.9687C32.3494 12.2676 33.4633 12.4147 34.3104 12.7157C35.1575 13.0167 35.7844 13.4381 36.1913 13.9932C36.5115 14.4347 36.7049 14.943 36.7582 15.5183C36.8116 16.0935 36.7582 16.7088 36.5848 17.371C36.2246 18.7556 35.5176 19.9662 34.4504 20.9963C33.3899 22.0263 31.9492 22.7687 30.135 23.2236L31.2355 28.7952H26.1997L25.3059 23.7921H23.2783L20.6436 28.7952H16.0547L24.7523 12.2676ZM27.7738 20.2003C28.8077 20.2003 29.6881 19.993 30.4018 19.585C31.1221 19.1703 31.569 18.6084 31.7558 17.8994C31.8692 17.4713 31.8225 17.0968 31.6224 16.7824C31.3422 16.4012 30.7219 16.2139 29.7481 16.2139H27.2736L25.1592 20.2003H27.7738Z" fill="#1E1F21"/>
<path d="M41.7066 12.2676H47.0292C48.63 12.2676 49.8973 12.4615 50.8311 12.8562C51.7649 13.2508 52.4652 13.7591 52.9321 14.3879C53.8126 15.5851 53.9927 17.1971 53.4724 19.2238C53.1522 20.4679 52.6186 21.6384 51.8783 22.742C51.1379 23.8456 50.2041 24.8422 49.0769 25.7385C47.8296 26.7284 46.4289 27.4842 44.8681 28.006C43.3074 28.5277 41.5665 28.7818 39.6522 28.7818H33.0156L41.7066 12.2676ZM41.2397 24.7285C42.1935 24.7285 43.1206 24.5881 44.0077 24.3005C44.8948 24.0195 45.6886 23.5981 46.3756 23.0497C46.9292 22.6082 47.4094 22.0865 47.8163 21.4912C48.2231 20.8959 48.5099 20.2672 48.6834 19.605C48.8168 19.1034 48.8568 18.6619 48.8101 18.294C48.7634 17.9262 48.6433 17.6051 48.4432 17.3376C48.2098 17.0232 47.8563 16.7757 47.3894 16.5951C46.9158 16.4145 46.2822 16.3209 45.4818 16.3209H44.1611L39.7256 24.7218H41.2397V24.7285Z" fill="#1E1F21"/>
<path d="M59.6234 12.2676H72.8299L70.7622 16.1604H62.098L60.7706 18.6619H68.6345L66.7336 22.2738H58.8697L57.4824 24.8957H66.2867L64.2457 28.7885H50.9258L59.6234 12.2676Z" fill="#1E1F21"/>
<path d="M75.3558 12.2676H81.5723C82.9529 12.2676 84.0668 12.4147 84.9139 12.7157C85.761 13.0167 86.388 13.4381 86.7948 13.9932C87.115 14.4347 87.3084 14.943 87.3618 15.5183C87.4151 16.0935 87.3618 16.7088 87.1884 17.371C86.8282 18.7556 86.1212 19.9662 85.054 20.9963C83.9935 22.0263 82.5527 22.7687 80.7385 23.2236L81.8391 28.7952H76.8032L75.9094 23.7921H73.8818L71.2471 28.7952H66.6582L75.3558 12.2676ZM78.3773 20.2003C79.4112 20.2003 80.2916 19.993 81.0053 19.585C81.7257 19.1703 82.1726 18.6084 82.3593 17.8994C82.4727 17.4713 82.426 17.0968 82.2259 16.7824C81.9458 16.4012 81.3255 16.2139 80.3517 16.2139H77.8771L75.7627 20.2003H78.3773Z" fill="#1E1F21"/>
<path d="M106.351 12.2676H108.072L111.314 25.6783L118.384 12.2676H120.198L111.5 28.7952H110.02L106.691 15.0835L99.4744 28.7952H97.6602L106.351 12.2676Z" fill="#1E1F21"/>
<path d="M125.014 12.2676H126.875L118.177 28.7952H116.316L125.014 12.2676Z" fill="#1E1F21"/>
<path d="M131.699 12.2676H133.42L136.661 25.6783L143.731 12.2676H145.546L136.848 28.7952H135.367L132.039 15.0835L124.822 28.7952H123.008L131.699 12.2676Z" fill="#1E1F21"/>
<path d="M150.207 12.2676H162L161.086 13.9665H151.155L148.186 19.605H157.064L156.157 21.3039H147.306L144.258 27.0896H154.309L153.422 28.7885H141.51L150.207 12.2676Z" fill="#1E1F21"/>
</g>
<defs>
<clipPath id="clip0_284_39">
<rect width="162" height="47.8773" fill="white"/>
</clipPath>
</defs>
</svg>
