<svg xmlns="http://www.w3.org/2000/svg" viewBox="0 0 30 30"><defs><style>.cls-1{fill:none;}.cls-2{fill:#a7acb2;}</style></defs><g id="레이어_2" data-name="레이어 2"><g id="레이어_1-2" data-name="레이어 1"><rect class="cls-1" width="30" height="30"/><path class="cls-2" d="M6.28,18.24a1.56,1.56,0,0,1,.4,1.23h1a1.57,1.57,0,0,1,.39-1.23c.1,0,.4.45.4,1.23h1a1.54,1.54,0,0,1,.4-1.23,1.56,1.56,0,0,1,.4,1.23h1c0-1.27-.6-2.23-1.4-2.23a1.16,1.16,0,0,0-.9.51,1.16,1.16,0,0,0-.89-.51,1.16,1.16,0,0,0-.9.51,1.16,1.16,0,0,0-.9-.51c-.8,0-1.4,1-1.4,2.23h1A1.56,1.56,0,0,1,6.28,18.24Z"/><path class="cls-2" d="M12.56,16.41A1.56,1.56,0,0,1,13,15.19c.1,0,.41.44.41,1.22h1c0-.78.3-1.2.39-1.22s.4.44.4,1.22h1a1.56,1.56,0,0,1,.39-1.22c.1,0,.41.44.41,1.22h1c0-1.27-.61-2.22-1.4-2.22a1.15,1.15,0,0,0-.9.5,1.15,1.15,0,0,0-.9-.5,1.13,1.13,0,0,0-.89.5,1.15,1.15,0,0,0-.9-.5c-.8,0-1.4,1-1.4,2.22h1Z"/><path class="cls-2" d="M16.53,21.05h1c0-.79.3-1.21.39-1.23s.4.44.4,1.23h1c0-.79.31-1.21.4-1.23s.4.44.4,1.23h1c0-.79.3-1.21.39-1.23s.4.44.4,1.23h1c0-1.27-.6-2.23-1.39-2.23a1.13,1.13,0,0,0-.9.51,1,1,0,0,0-1.8,0,1.12,1.12,0,0,0-.89-.51C17.13,18.82,16.53,19.78,16.53,21.05Z"/><path class="cls-2" d="M13.15,7.65a1.27,1.27,0,0,0-.28,0,1.79,1.79,0,0,0,0-.23A1.75,1.75,0,1,0,11.14,9.2a1.27,1.27,0,0,0,.28,0,1.64,1.64,0,0,0,0,.22,1.75,1.75,0,1,0,1.75-1.74Zm-2,.55a.75.75,0,1,1,.75-.75A.74.74,0,0,1,11.14,8.2Zm2,1.94a.76.76,0,0,1-.75-.75.75.75,0,0,1,.75-.74.74.74,0,0,1,.74.74A.75.75,0,0,1,13.15,10.14Z"/><path class="cls-2" d="M25.78,8.29a.31.31,0,0,1,0-.1c1.17-1.35,1.94-2.95,1.15-3.74s-1.88-.22-3.05.62a4.55,4.55,0,0,0-.92-.5c-.25-1.37-.8-2.47-1.7-2.47S19.89,3,19.62,4.23H7.32A4.6,4.6,0,0,0,2.73,8.82V23.3a4.6,4.6,0,0,0,4.59,4.6H21.23a4.6,4.6,0,0,0,4.6-4.6V12c1.78-.13,3.44-.72,3.44-1.83S27.58,8.42,25.78,8.29ZM21.25,3.1c.22,0,.86,1.12.86,3.26,0,.15,0,.29,0,.5a.48.48,0,0,0,.07.24,2.49,2.49,0,0,0-1-.22h-.73c0-.17,0-.33,0-.52C20.39,4.22,21,3.1,21.25,3.1Zm-1.6,4.78h1.49a1.53,1.53,0,0,1,1.52,1.53v.18a1.53,1.53,0,0,1-1.52,1.53H19.65a1.53,1.53,0,0,1-1.52-1.53V9.41A1.53,1.53,0,0,1,19.65,7.88Zm-2.9-2.65h2.7a10.55,10.55,0,0,0-.06,1.13c0,.18,0,.37,0,.55a2.51,2.51,0,0,0-2.27,2.5v.18a2.53,2.53,0,0,0,1,2H16.75Zm-8,0h7.05v6.39h-7Zm-1.38,0H7.7V7.59H4A3.6,3.6,0,0,1,7.32,5.23ZM3.73,8.82c0-.08,0-.15,0-.23h4v1h-4Zm0,1.8h4v1h-4ZM24.83,23.3a3.6,3.6,0,0,1-3.6,3.6H7.32a3.6,3.6,0,0,1-3.59-3.6V22.09a4.56,4.56,0,0,0,3.59,1.77H21.23a4.56,4.56,0,0,0,3.6-1.77Zm0-4a3.6,3.6,0,0,1-3.6,3.6H7.32a3.6,3.6,0,0,1-3.59-3.6V12.62h21.1ZM25,11a8.82,8.82,0,0,1-1.69-.16,2.51,2.51,0,0,0,.34-1.24V9.41a2.52,2.52,0,0,0-1.07-2.06A.52.52,0,0,0,23,7.17l.3-.32C24.81,5.34,26.06,5,26.22,5.16s-.19,1.4-1.7,2.91l-.29.27-.08.07a.5.5,0,0,0-.08.56.53.53,0,0,0,.53.31l.41,0c2.14,0,3.26.64,3.26.86S27.15,11,25,11Z"/></g></g></svg>