<svg width="146" height="146" viewBox="0 0 146 146" fill="none" xmlns="http://www.w3.org/2000/svg">
<circle cx="73" cy="73" r="73" fill="#F5F7FA"/>
<g clip-path="url(#clip0_312_4430)">
<path d="M96.408 29H49.513C46.1004 29 43.334 31.7664 43.334 35.179V111.721C43.334 115.134 46.1004 117.9 49.513 117.9H96.408C99.8206 117.9 102.587 115.134 102.587 111.721V35.179C102.587 31.7664 99.8206 29 96.408 29Z" fill="#E6E9EE"/>
<path d="M100.295 39.3018H45.6152V107.598H100.295V39.3018Z" fill="#D5D8DC"/>
<path d="M76.6635 35.0153H69.2672C68.9958 35.0153 68.7356 34.9075 68.5437 34.7157C68.3519 34.5238 68.2441 34.2636 68.2441 33.9923C68.2441 33.721 68.3519 33.4608 68.5437 33.2689C68.7356 33.0771 68.9958 32.9693 69.2672 32.9693H76.6635C76.9349 32.9693 77.195 33.0771 77.3869 33.2689C77.5788 33.4608 77.6865 33.721 77.6865 33.9923C77.6865 34.2636 77.5788 34.5238 77.3869 34.7157C77.195 34.9075 76.9349 35.0153 76.6635 35.0153Z" fill="#D5D8DC"/>
<path d="M72.9604 116.785C75.1864 116.785 76.991 114.98 76.991 112.754C76.991 110.528 75.1864 108.724 72.9604 108.724C70.7343 108.724 68.9297 110.528 68.9297 112.754C68.9297 114.98 70.7343 116.785 72.9604 116.785Z" fill="#D5D8DC"/>
<path d="M95.6333 67.3835C95.6333 73.2249 85.0655 85.9103 85.0655 85.9103C85.0655 85.9103 74.4875 73.2249 74.4875 67.3835C74.4435 65.9674 74.6844 64.5568 75.1959 63.2356C75.7074 61.9143 76.4791 60.7093 77.4652 59.6921C78.4514 58.6748 79.6319 57.8659 80.9366 57.3136C82.2413 56.7613 83.6436 56.4766 85.0604 56.4766C86.4772 56.4766 87.8796 56.7613 89.1843 57.3136C90.489 57.8659 91.6695 58.6748 92.6556 59.6921C93.6417 60.7093 94.4134 61.9143 94.9249 63.2356C95.4364 64.5568 95.6774 65.9674 95.6333 67.3835Z" fill="#ECEFF4"/>
<path d="M85.0557 70.9334C87.0163 70.9334 88.6056 69.344 88.6056 67.3835C88.6056 65.423 87.0163 63.8336 85.0557 63.8336C83.0952 63.8336 81.5059 65.423 81.5059 67.3835C81.5059 69.344 83.0952 70.9334 85.0557 70.9334Z" fill="#D5D8DC"/>
<path d="M94.6893 107.598L58.4029 71.3221L90.4131 39.3018H88.9706L67.7328 60.5395L51.4873 44.2941L56.4694 39.3018H55.027L45.6152 48.7135V50.1559L50.761 45.0102L67.0065 61.2659L45.6152 82.6571V84.1098L57.6868 72.0382L81.2878 95.6392L69.3287 107.598H70.7712L82.0039 96.3655L93.2366 107.598H94.6893Z" fill="#E1E4E9"/>
</g>
<defs>
<clipPath id="clip0_312_4430">
<rect width="59.253" height="88.9" fill="white" transform="translate(43.334 29)"/>
</clipPath>
</defs>
</svg>
