<svg xmlns="http://www.w3.org/2000/svg" viewBox="0 0 30 30"><defs><style>.cls-1{fill:none;}.cls-2{fill:#fff;}</style></defs><g id="레이어_2" data-name="레이어 2"><g id="레이어_1-2" data-name="레이어 1"><rect class="cls-1" width="30" height="30"/><path class="cls-2" d="M26.91,23.32a12.55,12.55,0,0,0-.17-7.16A1.79,1.79,0,0,0,27.09,14a1.81,1.81,0,0,0-2.39-2.54,1.68,1.68,0,0,0-.92-.25,11.27,11.27,0,0,0-1.32-1.17,2,2,0,0,0-1.35-2.27h0a2,2,0,0,0-3.25-1h0a2,2,0,0,0-1.53.12,2.05,2.05,0,0,0-.74.66l-.57,0a12.59,12.59,0,0,0-2.62.29,2.85,2.85,0,0,0-2.89-.35l-.17.08a2.86,2.86,0,0,0-4.59,2l-.16.08a2.81,2.81,0,0,0-1.51,1.59,2.85,2.85,0,0,0,0,2.2,2.89,2.89,0,0,0,.83,1.05,12.56,12.56,0,0,0-.86,8.86v0h0a.51.51,0,0,0,.09.18.27.27,0,0,0,.08.07l0,0a.49.49,0,0,0,.29.11H26.42a.55.55,0,0,0,.3-.11v0l.09-.07a.49.49,0,0,0,.08-.18h0ZM4,13a1.82,1.82,0,0,1,0-1.43,1.85,1.85,0,0,1,1-1l.46-.2a.49.49,0,0,0,.29-.48A1.87,1.87,0,0,1,8.89,8.44a.5.5,0,0,0,.55.1l.45-.2a1.87,1.87,0,0,1,2.47.94,1.81,1.81,0,0,1,.05,1.37,3.27,3.27,0,0,0-2.65,1.59,3.18,3.18,0,0,0-.88-.14,3,3,0,0,0-2.83,2A1.87,1.87,0,0,1,4,13ZM16.76,7.74a1,1,0,0,1,.46-.11,1.12,1.12,0,0,1,.31,0l.3.1a.48.48,0,0,0,.54-.15,1,1,0,0,1,1.09-.32,1,1,0,0,1,.7.89.51.51,0,0,0,.34.45l.3.09a1,1,0,0,1,.59.51A1,1,0,0,1,21,10.61a1,1,0,0,1-.77.06l-.3-.1a.53.53,0,0,0-.37,0,3.2,3.2,0,0,0-2.08-.78h0a.46.46,0,0,0-.19-.13l-.3-.1a1,1,0,0,1-.59-.5,1,1,0,0,1-.06-.78A1,1,0,0,1,16.76,7.74ZM25,12.47a.8.8,0,0,1,1.1,1.17.51.51,0,0,0,0,.69A.8.8,0,0,1,26,15.45h0a.8.8,0,0,1-1.12,0,.49.49,0,0,0-.35-.15.46.46,0,0,0-.33.13.8.8,0,0,1-.69.17,3.13,3.13,0,0,0,0-.44,3,3,0,0,0-.32-1.33.41.41,0,0,0-.11-.26.8.8,0,0,1,.05-1.12.79.79,0,0,1,1.12,0A.5.5,0,0,0,25,12.47Zm1.26,8.85a12.58,12.58,0,0,0-.87-1.67,2.53,2.53,0,0,0,0-3h.06a1.47,1.47,0,0,0,.36,0,11.62,11.62,0,0,1,.5,3.41C26.35,20.46,26.32,20.89,26.28,21.32ZM3.64,20c0-.14,0-.28,0-.42a2.57,2.57,0,0,0,.64.5,11,11,0,0,0-.58,1.2A11.13,11.13,0,0,1,3.64,20Zm22.11,2.7H4.24c1.59-4.85,6-8.3,10.76-8.3S24.17,17.89,25.75,22.74ZM6.84,15.14a2,2,0,0,1,3.9-.84,12.58,12.58,0,0,0-3.43,2.12A2,2,0,0,1,6.84,15.14Zm5.72-3.5a2.27,2.27,0,0,1,2.22,1.81,11.3,11.3,0,0,0-3.1.51,2.94,2.94,0,0,0-1-1.28A2.29,2.29,0,0,1,12.56,11.64Zm4.87-.81a2.25,2.25,0,0,1,2.24,2.25,2.29,2.29,0,0,1-.37,1.24,11.49,11.49,0,0,0-3.51-.85,3.22,3.22,0,0,0-.44-1.25A2.26,2.26,0,0,1,17.43,10.83Zm5.16,4.31a2,2,0,0,1-.26,1,12.65,12.65,0,0,0-2.13-1.37,3.23,3.23,0,0,0,.47-1.63A2,2,0,0,1,22.59,15.14Zm2.21,3.58a13.2,13.2,0,0,0-1.7-1.94,1.62,1.62,0,0,0,.1-.18h.15a1.56,1.56,0,0,1,1.45,2.13ZM6.58,17.1a12.42,12.42,0,0,0-1.77,2.17,1.69,1.69,0,0,1,.81-3.17,1.84,1.84,0,0,1,.41.06A3.06,3.06,0,0,0,6.58,17.1Zm15.94-5.4a1.67,1.67,0,0,0-.47.81,3.06,3.06,0,0,0-1.5-.41h0c-.05-.13-.09-.26-.15-.39a2,2,0,0,0,1.05-.21A2.08,2.08,0,0,0,22,11c.23.19.45.38.66.59A1.4,1.4,0,0,0,22.52,11.7ZM15.43,9.56a2,2,0,0,0,.52.64,3.25,3.25,0,0,0-1.3,1.22,3.17,3.17,0,0,0-1.23-.65,2.85,2.85,0,0,0-.15-1.9,2.39,2.39,0,0,0-.12-.22A11.26,11.26,0,0,1,15,8.48h.22A2,2,0,0,0,15.43,9.56ZM5.85,15.1v0a1.81,1.81,0,0,0-.23,0,2.57,2.57,0,0,0-1,.19A3.54,3.54,0,0,1,4.82,15,3,3,0,0,0,5.85,15.1Z"/></g></g></svg>