<svg width="48" height="48" viewBox="0 0 48 48" fill="none" xmlns="http://www.w3.org/2000/svg">
<path d="M30.68 10.07C27.9245 10.07 25.2308 10.8872 22.9399 12.4183C20.6489 13.9494 18.8634 16.1256 17.8094 18.6715C16.7554 21.2175 16.4801 24.0189 17.0184 26.7213C17.5567 29.4237 18.8844 31.9058 20.8335 33.8535C22.7827 35.8013 25.2657 37.1272 27.9685 37.6636C30.6714 38.1999 33.4725 37.9227 36.0177 36.8668C38.5629 35.8109 40.7378 34.0239 42.2672 31.7318C43.7967 29.4398 44.612 26.7455 44.61 23.99C44.6073 20.2973 43.1386 16.7567 40.5265 14.1465C37.9144 11.5363 34.3727 10.07 30.68 10.07Z" fill="#E6E6E6"/>
<path d="M3.39062 24L11.4606 16.39V19.3H17.9906V28.7H11.4606V31.61L3.39062 24Z" fill="#4D4D4D"/>
<path d="M33.6102 26.32L34.4802 23.49H32.7402L33.6102 26.32Z" fill="#B3B3B3"/>
<path d="M30.68 10.07C27.9245 10.07 25.2308 10.8872 22.9399 12.4183C20.6489 13.9494 18.8634 16.1256 17.8094 18.6715C16.7554 21.2175 16.4801 24.0189 17.0184 26.7213C17.5567 29.4237 18.8844 31.9058 20.8335 33.8535C22.7827 35.8013 25.2657 37.1272 27.9685 37.6636C30.6714 38.1999 33.4725 37.9227 36.0177 36.8668C38.5629 35.8109 40.7378 34.0239 42.2672 31.7318C43.7967 29.4398 44.612 26.7455 44.61 23.99C44.6073 20.2973 43.1386 16.7567 40.5265 14.1465C37.9144 11.5363 34.3727 10.07 30.68 10.07ZM30.68 36.26C28.2532 36.26 25.881 35.5404 23.8632 34.1921C21.8454 32.8439 20.2727 30.9276 19.344 28.6855C18.4153 26.4435 18.1723 23.9764 18.6458 21.5963C19.1192 19.2161 20.2878 17.0298 22.0038 15.3138C23.7198 13.5978 25.9061 12.4292 28.2862 11.9558C30.6664 11.4823 33.1335 11.7253 35.3755 12.654C37.6176 13.5827 39.5339 15.1554 40.8821 17.1732C42.2304 19.191 42.95 21.5632 42.95 23.99C42.95 27.2442 41.6573 30.3652 39.3562 32.6662C37.0551 34.9673 33.9342 36.26 30.68 36.26Z" fill="#B3B3B3"/>
<path d="M27.7509 26.32L28.6209 23.49H26.8809L27.7509 26.32Z" fill="#B3B3B3"/>
<path d="M30.6806 12.71C28.4472 12.71 26.264 13.3724 24.4072 14.6134C22.5503 15.8544 21.1033 17.6183 20.2491 19.6818C19.3949 21.7454 19.1719 24.016 19.6083 26.2063C20.0447 28.3966 21.121 30.4083 22.7009 31.9868C24.2809 33.5653 26.2935 34.6398 28.4842 35.0743C30.6749 35.5088 32.9452 35.2838 35.008 34.4277C37.0708 33.5717 38.8334 32.1231 40.0728 30.2651C41.3121 28.4072 41.9726 26.2234 41.9706 23.99C41.9653 20.9983 40.7738 18.1307 38.6574 16.0162C36.541 13.9016 33.6724 12.7127 30.6806 12.71ZM37.5706 23.49H36.1106L34.3606 29.22C34.3085 29.3784 34.2082 29.5166 34.0738 29.6152C33.9393 29.7138 33.7774 29.7679 33.6106 29.77C33.4448 29.7689 33.2837 29.715 33.1507 29.6161C33.0176 29.5172 32.9195 29.3785 32.8706 29.22L31.1106 23.49H30.2506L28.5006 29.22C28.4513 29.3791 28.3524 29.5181 28.2183 29.6169C28.0843 29.7157 27.9221 29.769 27.7556 29.769C27.5891 29.769 27.427 29.7157 27.2929 29.6169C27.1589 29.5181 27.06 29.3791 27.0106 29.22L25.2606 23.49H23.8406C23.6338 23.49 23.4354 23.4078 23.2891 23.2616C23.1428 23.1153 23.0606 22.9169 23.0606 22.71C23.0606 22.5032 23.1428 22.3048 23.2891 22.1585C23.4354 22.0122 23.6338 21.93 23.8406 21.93H24.8406L24.1406 19.64C24.1029 19.54 24.0862 19.4334 24.0914 19.3267C24.0966 19.2199 24.1237 19.1154 24.171 19.0196C24.2183 18.9238 24.2848 18.8387 24.3663 18.7697C24.4478 18.7006 24.5427 18.649 24.6449 18.6181C24.7472 18.5872 24.8548 18.5777 24.9609 18.5901C25.067 18.6025 25.1695 18.6365 25.2619 18.6902C25.3543 18.7438 25.4347 18.8158 25.4982 18.9018C25.5616 18.9878 25.6067 19.0859 25.6306 19.19L26.4706 21.93H29.1606L30.0006 19.19C30.05 19.031 30.1489 18.8919 30.2829 18.7931C30.417 18.6943 30.5791 18.6411 30.7456 18.6411C30.9121 18.6411 31.0743 18.6943 31.2083 18.7931C31.3424 18.8919 31.4413 19.031 31.4906 19.19L32.3306 21.93H35.0206L35.8506 19.19C35.9103 18.9911 36.0465 18.824 36.2294 18.7256C36.4122 18.6271 36.6267 18.6053 36.8256 18.665C37.0245 18.7247 37.1916 18.8609 37.2901 19.0438C37.3885 19.2266 37.4103 19.4411 37.3506 19.64L36.6506 21.93H37.6506C37.8575 21.93 38.0559 22.0122 38.2022 22.1585C38.3484 22.3048 38.4306 22.5032 38.4306 22.71C38.4306 22.9169 38.3484 23.1153 38.2022 23.2616C38.0559 23.4078 37.8575 23.49 37.6506 23.49H37.5706Z" fill="#B3B3B3"/>
</svg>
