<svg width="98" height="98" viewBox="0 0 98 98" fill="none" xmlns="http://www.w3.org/2000/svg">
<g clip-path="url(#clip0_450_2832)">
<path d="M47.2402 45.73L48.2902 44.73C48.0407 44.8019 47.8136 44.9361 47.6302 45.12C47.4539 45.2897 47.3203 45.4987 47.2402 45.73V45.73Z" fill="#E6E6E6"/>
<path d="M52.1398 38.42C52.0071 38.2488 51.8445 38.1031 51.6598 37.99C51.4727 37.8765 51.2639 37.8035 51.0468 37.776C50.8297 37.7484 50.6093 37.7668 50.3998 37.83C50.1912 37.8948 49.9975 38.0002 49.8298 38.14C49.6611 38.2791 49.5246 38.4531 49.4298 38.65C49.3325 38.8463 49.278 39.0611 49.2698 39.28C49.253 39.4982 49.2872 39.7173 49.3698 39.92L50.2298 42.73L52.7698 40.19L52.4098 39C52.3582 38.791 52.2665 38.594 52.1398 38.42V38.42Z" fill="#E6E6E6"/>
<path d="M57.8303 24.2401C54.5243 24.8921 51.3843 26.2057 48.5989 28.102C45.8135 29.9983 43.4402 32.4381 41.6216 35.2749C39.803 38.1116 38.5767 41.2867 38.0162 44.6094C37.4557 47.9321 37.5728 51.3337 38.3603 54.6101L40.0803 52.9301C39.4798 49.6157 39.6147 46.2098 40.4753 42.9533C41.336 39.6968 42.9014 36.669 45.0609 34.084C47.2205 31.4991 49.9215 29.42 52.9729 27.9937C56.0244 26.5674 59.3519 25.8288 62.7203 25.8301C64.0924 25.8307 65.4615 25.9579 66.8103 26.2101L68.5203 24.5001C65.0174 23.6434 61.3706 23.5547 57.8303 24.2401Z" fill="#E6E6E6"/>
<path d="M85.7701 48.83C85.7965 53.3898 84.467 57.8547 81.9503 61.6573C79.4336 65.4599 75.8434 68.4285 71.6358 70.1862C67.4282 71.9438 62.7931 72.4111 58.3193 71.5286C53.8456 70.6461 49.7351 68.4537 46.5101 65.2299L45.0801 66.6099C46.2145 67.7221 47.4498 68.7264 48.7701 69.6099C53.9192 73.1893 60.2255 74.7028 66.4382 73.8502C72.651 72.9977 78.3165 69.8414 82.3111 65.0074C86.3057 60.1733 88.3377 54.0145 88.0041 47.7524C87.6705 41.4903 84.9957 35.5823 80.5101 31.2L79.0801 32.62C83.355 36.9333 85.7585 42.7571 85.7701 48.83Z" fill="#E6E6E6"/>
<path d="M67.7596 60.3C68.0326 60.5037 68.3641 60.6137 68.7046 60.6137C69.0452 60.6137 69.3767 60.5037 69.6496 60.3C69.9225 60.1012 70.1256 59.8212 70.2296 59.5L73.7996 47.83H76.9496C77.1628 47.8261 77.3728 47.7789 77.5671 47.6912C77.7614 47.6036 77.9358 47.4772 78.0796 47.32C78.2287 47.173 78.3471 46.9978 78.4279 46.8047C78.5086 46.6116 78.5502 46.4043 78.5502 46.195C78.5502 45.9856 78.5086 45.7784 78.4279 45.5852C78.3471 45.3921 78.2287 45.217 78.0796 45.07C77.9335 44.9212 77.7592 44.803 77.5669 44.7223C77.3746 44.6416 77.1682 44.6 76.9596 44.6H74.9596L76.3896 39.93C76.5079 39.522 76.4613 39.0839 76.2596 38.71C76.1094 38.4318 75.88 38.2044 75.6006 38.0564C75.3211 37.9085 75.0041 37.8467 74.6895 37.8787C74.375 37.9108 74.077 38.0354 73.8331 38.2368C73.5893 38.4381 73.4107 38.7072 73.3196 39.01L71.5796 44.6H67.0796L63.6396 48.04L67.1596 59.49C67.2703 59.816 67.4801 60.0992 67.7596 60.3V60.3ZM70.4796 47.83L68.6996 53.61L66.9196 47.83H70.4796Z" fill="#E6E6E6"/>
<path d="M55.7995 60.3C56.0897 60.5104 56.4412 60.6194 56.7995 60.61C57.138 60.61 57.4675 60.5013 57.7395 60.3C58.0127 60.0971 58.2155 59.8139 58.3195 59.49L60.9195 50.83L54.5195 57.23L55.2295 59.53C55.337 59.8385 55.5358 60.1071 55.7995 60.3V60.3Z" fill="#E6E6E6"/>
<path d="M71.7497 25.46L70.1797 27.04L71.7497 25.46Z" fill="#E6E6E6"/>
<path d="M34.83 54.39C33.8291 49.3275 34.2197 44.0883 35.96 39.23H23.48V33.29L7 48.83L23.48 64.37V58.43H34.55L35.61 57.36C35.2939 56.3856 35.0334 55.394 34.83 54.39V54.39Z" fill="#4D4D4D"/>
<path d="M70.4799 47.79H66.9199L68.6999 53.57L70.4799 47.79Z" fill="#B3B3B3"/>
<path d="M80.5104 31.2C85.007 35.577 87.6931 41.485 88.0353 47.7509C88.3775 54.0168 86.3508 60.1822 82.3576 65.0229C78.3644 69.8636 72.6968 73.0255 66.4801 73.8809C60.2635 74.7362 53.9526 73.2224 48.8004 69.64C47.4802 68.7564 46.2449 67.7521 45.1104 66.64L42.6904 69.05C48.0302 74.3534 55.2544 77.3242 62.7803 77.3114C70.3063 77.2985 77.5203 74.3032 82.842 68.9815C88.1636 63.6599 91.159 56.4458 91.1718 48.9199C91.1847 41.3939 88.2139 34.1697 82.9104 28.83L80.5104 31.2Z" fill="#B3B3B3"/>
<path d="M34.83 54.39C35.0323 55.4042 35.2928 56.4058 35.61 57.39L38.36 54.64C37.3511 50.4762 37.4292 46.123 38.5867 41.9981C39.7443 37.8731 41.9425 34.1149 44.9705 31.0839C47.9984 28.053 51.7545 25.851 55.8783 24.6894C60.0021 23.5277 64.3552 23.4453 68.52 24.45L71.26 21.71C64.4766 19.5706 57.1377 20.0515 50.6915 23.058C44.2454 26.0645 39.1604 31.378 36.44 37.95C36.27 38.37 36.12 38.8 35.96 39.23C34.2197 44.0883 33.8291 49.3275 34.83 54.39V54.39Z" fill="#B3B3B3"/>
<path d="M70.1795 27.04L53.7695 43.45L70.1795 27.04Z" fill="#B3B3B3"/>
<path d="M49.91 29.67C46.1813 32.1657 43.264 35.6974 41.5174 39.8303C39.7708 43.9632 39.2711 48.5167 40.08 52.93L47.27 45.73C47.3426 45.4808 47.4767 45.2539 47.66 45.07C47.8433 44.8861 48.0704 44.7519 48.32 44.68L50.26 42.74L49.4 39.93C49.3174 39.7273 49.2832 39.5082 49.3 39.29C49.3082 39.071 49.3627 38.8563 49.46 38.66C49.5548 38.463 49.6913 38.289 49.86 38.15C50.0277 38.0102 50.2214 37.9048 50.43 37.84C50.6388 37.7753 50.8588 37.7553 51.0759 37.7811C51.293 37.8069 51.5022 37.8781 51.69 37.99C51.8747 38.1031 52.0373 38.2488 52.17 38.42C52.2979 38.597 52.3896 38.7975 52.44 39.01L52.8 40.2L66.8 26.2C65.4542 25.9518 64.0884 25.8279 62.72 25.83C58.1639 25.813 53.7054 27.1495 49.91 29.67Z" fill="#B3B3B3"/>
<path d="M71.5497 70.12C75.047 68.679 78.1349 66.3976 80.5398 63.4781C82.9448 60.5586 84.5926 57.091 85.3373 53.3825C86.0819 49.674 85.9005 45.8391 84.809 42.2175C83.7175 38.5959 81.7496 35.2994 79.0797 32.62L67.0797 44.62H71.5797L73.2697 39.03C73.3917 38.6229 73.6705 38.2809 74.0446 38.0793C74.4187 37.8777 74.8576 37.833 75.2647 37.955C75.6718 38.077 76.0138 38.3557 76.2154 38.7299C76.417 39.104 76.4617 39.5429 76.3397 39.95L74.9097 44.62H76.9097C77.1183 44.62 77.3247 44.6616 77.517 44.7423C77.7093 44.823 77.8836 44.9412 78.0297 45.09C78.1788 45.237 78.2972 45.4121 78.3779 45.6053C78.4587 45.7984 78.5003 46.0056 78.5003 46.215C78.5003 46.4243 78.4587 46.6316 78.3779 46.8247C78.2972 47.0179 78.1788 47.193 78.0297 47.34C77.8836 47.4888 77.7093 47.607 77.517 47.6877C77.3247 47.7684 77.1183 47.81 76.9097 47.81H73.7997L70.2297 59.51C70.1256 59.8312 69.9226 60.1112 69.6497 60.31C69.3768 60.5137 69.0453 60.6237 68.7047 60.6237C68.3641 60.6237 68.0327 60.5137 67.7597 60.31C67.4913 60.1047 67.2923 59.822 67.1897 59.5L63.6697 48.04L60.9197 50.83L58.2697 59.53C58.1657 59.8539 57.9629 60.1371 57.6897 60.34C57.4177 60.5413 57.0882 60.65 56.7497 60.65C56.3914 60.6594 56.0399 60.5505 55.7497 60.34C55.4793 60.1366 55.2799 59.8532 55.1797 59.53L54.4697 57.23L46.4697 65.23C49.6893 68.4209 53.7799 70.5892 58.2278 71.4628C62.6757 72.3364 67.2825 71.8762 71.4697 70.14L71.5497 70.12Z" fill="#B3B3B3"/>
<path d="M92.34 15.13L87.22 10L74.33 22.88L71.75 25.46L70.18 27.04L53.77 43.45L49.42 47.79L40.92 56.3L39.37 57.85L36.76 60.45L14.25 82.97L19.38 88.1L92.34 15.13Z" fill="#E54939"/>
</g>
<defs>
<clipPath id="clip0_450_2832">
<rect width="85.35" height="78.1" fill="white" transform="translate(7 10)"/>
</clipPath>
</defs>
</svg>
