<svg width="48" height="48" viewBox="0 0 48 48" fill="none" xmlns="http://www.w3.org/2000/svg">
<path d="M17.3204 10.07C14.5653 10.072 11.8727 10.8909 9.58298 12.4232C7.29331 13.9555 5.50941 16.1323 4.45691 18.6785C3.40441 21.2246 3.13059 24.0257 3.67002 26.7275C4.20945 29.4292 5.53792 31.9103 7.48746 33.8571C9.43701 35.8038 11.9201 37.1288 14.6226 37.6643C17.3251 38.1999 20.1258 37.922 22.6704 36.8658C25.215 35.8097 27.3893 34.0227 28.9183 31.7308C30.4473 29.4389 31.2624 26.7451 31.2604 23.99C31.2591 22.1607 30.8975 20.3496 30.1962 18.66C29.4949 16.9704 28.4678 15.4355 27.1733 14.1429C25.8789 12.8504 24.3425 11.8254 22.6519 11.1266C20.9614 10.4277 19.1497 10.0687 17.3204 10.07Z" fill="#E6E6E6"/>
<path d="M44.6098 24L36.5398 16.39V19.3H30.0098V28.7H36.5398V31.61L44.6098 24Z" fill="#4D4D4D"/>
<path d="M20.2509 26.32L21.1209 23.49H19.3809L20.2509 26.32Z" fill="#B3B3B3"/>
<path d="M17.3204 10.07C14.5653 10.072 11.8727 10.8909 9.58298 12.4232C7.29331 13.9555 5.50941 16.1323 4.45691 18.6785C3.40441 21.2246 3.13059 24.0257 3.67002 26.7275C4.20945 29.4292 5.53792 31.9103 7.48746 33.8571C9.43701 35.8038 11.9201 37.1288 14.6226 37.6643C17.3251 38.1999 20.1258 37.922 22.6704 36.8658C25.215 35.8097 27.3893 34.0227 28.9183 31.7308C30.4473 29.4389 31.2624 26.7451 31.2604 23.99C31.2591 22.1607 30.8975 20.3496 30.1962 18.66C29.4949 16.9704 28.4678 15.4355 27.1733 14.1429C25.8789 12.8504 24.3425 11.8254 22.6519 11.1266C20.9614 10.4277 19.1497 10.0687 17.3204 10.07ZM17.3204 36.26C14.8936 36.26 12.5213 35.5404 10.5035 34.1921C8.48575 32.8439 6.91307 30.9276 5.98438 28.6856C5.05569 26.4435 4.8127 23.9764 5.28614 21.5963C5.75958 19.2161 6.92818 17.0298 8.64417 15.3138C10.3602 13.5978 12.5465 12.4292 14.9266 11.9558C17.3068 11.4823 19.7739 11.7253 22.0159 12.654C24.258 13.5827 26.1743 15.1554 27.5225 17.1732C28.8708 19.191 29.5904 21.5632 29.5904 23.99C29.5904 25.6013 29.273 27.1969 28.6564 28.6856C28.0398 30.1742 27.136 31.5269 25.9966 32.6662C24.8572 33.8056 23.5046 34.7094 22.0159 35.326C20.5272 35.9426 18.9317 36.26 17.3204 36.26Z" fill="#B3B3B3"/>
<path d="M14.3893 26.32L15.2593 23.49H13.5293L14.3893 26.32Z" fill="#B3B3B3"/>
<path d="M17.3193 12.71C15.0859 12.71 12.9027 13.3724 11.0459 14.6134C9.18904 15.8544 7.74196 17.6183 6.88775 19.6818C6.03353 21.7454 5.81053 24.016 6.24697 26.2063C6.68341 28.3966 7.75968 30.4083 9.33962 31.9868C10.9196 33.5653 12.9321 34.6398 15.1229 35.0743C17.3136 35.5088 19.5839 35.2838 21.6467 34.4277C23.7095 33.5717 25.4721 32.1231 26.7114 30.2651C27.9508 28.4072 28.6113 26.2234 28.6093 23.99C28.604 20.9983 27.4125 18.1307 25.2961 16.0162C23.1796 13.9016 20.311 12.7127 17.3193 12.71ZM24.1693 23.49H22.7093L20.9593 29.22C20.9072 29.3784 20.8069 29.5166 20.6724 29.6152C20.538 29.7138 20.376 29.7679 20.2093 29.77C20.0435 29.7689 19.8824 29.715 19.7493 29.6161C19.6163 29.5172 19.5182 29.3785 19.4693 29.22L17.7093 23.49H16.8493L15.1693 29.22C15.12 29.3791 15.0211 29.5181 14.887 29.6169C14.753 29.7157 14.5908 29.769 14.4243 29.769C14.2578 29.769 14.0956 29.7157 13.9616 29.6169C13.8275 29.5181 13.7286 29.3791 13.6793 29.22L11.9293 23.49H10.4693C10.2624 23.49 10.064 23.4078 9.91774 23.2616C9.77147 23.1153 9.68929 22.9169 9.68929 22.71C9.68929 22.5032 9.77147 22.3048 9.91774 22.1585C10.064 22.0122 10.2624 21.93 10.4693 21.93H11.4693L10.7693 19.64C10.7316 19.54 10.7149 19.4334 10.7201 19.3267C10.7253 19.2199 10.7524 19.1154 10.7997 19.0196C10.847 18.9238 10.9134 18.8387 10.995 18.7697C11.0765 18.7006 11.1714 18.649 11.2736 18.6181C11.3759 18.5872 11.4835 18.5777 11.5896 18.5901C11.6957 18.6025 11.7982 18.6365 11.8906 18.6902C11.983 18.7438 12.0634 18.8158 12.1269 18.9018C12.1903 18.9878 12.2354 19.0859 12.2593 19.19L13.0993 21.93H15.7893L16.6293 19.19C16.6786 19.031 16.7775 18.8919 16.9116 18.7931C17.0456 18.6943 17.2078 18.6411 17.3743 18.6411C17.5408 18.6411 17.7029 18.6943 17.837 18.7931C17.971 18.8919 18.07 19.031 18.1193 19.19L18.9593 21.93H21.6493L22.4793 19.19C22.539 18.9911 22.6752 18.824 22.8581 18.7256C23.0409 18.6271 23.2554 18.6053 23.4543 18.665C23.6532 18.7247 23.8203 18.8609 23.9187 19.0438C24.0172 19.2266 24.039 19.4411 23.9793 19.64L23.2793 21.93H24.2793C24.4862 21.93 24.6846 22.0122 24.8308 22.1585C24.9771 22.3048 25.0593 22.5032 25.0593 22.71C25.0593 22.9169 24.9771 23.1153 24.8308 23.2616C24.6846 23.4078 24.4862 23.49 24.2793 23.49H24.1693Z" fill="#B3B3B3"/>
</svg>
