<svg width="146" height="146" viewBox="0 0 146 146" fill="none" xmlns="http://www.w3.org/2000/svg">
<circle cx="73" cy="73" r="73" fill="#F5F7FA"/>
<g clip-path="url(#clip0_296_7301)">
<path d="M84.7501 105.994C84.7501 108.911 83.5914 111.709 81.5289 113.771C79.4663 115.834 76.6689 116.993 73.752 116.993C70.8351 116.993 68.0377 115.834 65.9752 113.771C63.9126 111.709 62.7539 108.911 62.7539 105.994" fill="#E1E4E9"/>
<path d="M73.7519 29.0076C81.7782 29.0076 89.4757 32.196 95.1512 37.8714C100.827 43.5469 104.015 51.2444 104.015 59.2707V100.495H43.5254V59.2707C43.5254 51.2508 46.7088 43.5588 52.3763 37.8844C58.0438 32.21 65.7319 29.0173 73.7519 29.0076Z" fill="#E1E4E9"/>
<path d="M43.2507 93.2732H104.272C105.218 93.2756 106.154 93.4643 107.027 93.8286C107.9 94.1928 108.693 94.7254 109.36 95.3961C110.028 96.0667 110.556 96.8622 110.916 97.7371C111.276 98.6121 111.46 99.5493 111.457 100.495H36.0469C36.0445 99.5477 36.229 98.609 36.59 97.7329C36.9509 96.8568 37.4812 96.0605 38.1503 95.3896C38.8195 94.7187 39.6145 94.1865 40.4897 93.8233C41.3649 93.4601 42.3031 93.2732 43.2507 93.2732Z" fill="#E1E4E9"/>
</g>
<defs>
<clipPath id="clip0_296_7301">
<rect width="75.4104" height="87.9849" fill="white" transform="translate(36.0469 29.0076)"/>
</clipPath>
</defs>
</svg>
