<svg width="146" height="146" viewBox="0 0 146 146" fill="none" xmlns="http://www.w3.org/2000/svg">
<path d="M73 146C113.317 146 146 113.317 146 73C146 32.6832 113.317 0 73 0C32.6832 0 0 32.6832 0 73C0 113.317 32.6832 146 73 146Z" fill="#F5F7FA"/>
<path d="M70.9191 40.1495H51.8296H41.3906V68.8203V99.3343V105.85H59.3304H76.0656L79.7521 102.163L88.8589 93.0745V88.1835C87.6726 87.709 86.5411 87.125 85.5009 86.4133C81.3946 83.621 78.5476 79.095 78.0001 73.912H47.7964C47.2854 73.912 46.8839 73.5105 46.8839 72.9995C46.8839 72.4885 47.2854 72.087 47.7964 72.087H77.9089C77.9089 64.787 82.4531 58.5273 88.8589 55.9905V46.683V40.1495H70.9191ZM47.7964 79.387H75.1714C75.6824 79.387 76.0839 79.7885 76.0839 80.2995C76.0839 80.8105 75.6824 81.212 75.1714 81.212H47.7964C47.2854 81.212 46.8839 80.8105 46.8839 80.2995C46.8839 79.7885 47.2854 79.387 47.7964 79.387ZM47.7964 86.687H82.4714C82.9824 86.687 83.3839 87.0885 83.3839 87.5995C83.3839 88.1105 82.9824 88.512 82.4714 88.512H47.7964C47.2854 88.512 46.8839 88.1105 46.8839 87.5995C46.8839 87.0885 47.2854 86.687 47.7964 86.687ZM47.7964 93.987H71.5214C72.0324 93.987 72.4339 94.3885 72.4339 94.8995C72.4339 95.4105 72.0324 95.812 71.5214 95.812H47.7964C47.2854 95.812 46.8839 95.4105 46.8839 94.8995C46.8839 94.3885 47.2854 93.987 47.7964 93.987ZM75.1714 66.612H47.7964C47.2854 66.612 46.8839 66.2105 46.8839 65.6995C46.8839 65.1885 47.2854 64.787 47.7964 64.787H75.1714C75.6824 64.787 76.0839 65.1885 76.0839 65.6995C76.0839 66.2105 75.6641 66.612 75.1714 66.612ZM75.1714 59.312H47.7964C47.2854 59.312 46.8839 58.9105 46.8839 58.3995C46.8839 57.8885 47.2854 57.487 47.7964 57.487H75.1714C75.6824 57.487 76.0839 57.8885 76.0839 58.3995C76.0839 58.9105 75.6641 59.312 75.1714 59.312ZM82.4714 52.012H47.7964C47.2854 52.012 46.8839 51.6105 46.8839 51.0995C46.8839 50.5885 47.2854 50.187 47.7964 50.187H82.4714C82.9824 50.187 83.3839 50.5885 83.3839 51.0995C83.3839 51.6105 82.9641 52.012 82.4714 52.012Z" fill="#E1E4E9"/>
<path d="M95.2442 54.7483C95.8282 54.7483 96.4123 54.7848 96.9963 54.8396L98.6752 50.2406L88.875 46.6636V55.9711C90.8278 55.1863 92.9812 54.7483 95.2442 54.7483Z" fill="#D5D8DC"/>
<path d="M54.0729 34.0169L51.8281 40.1489H70.9176L54.0729 34.0169Z" fill="#D5D8DC"/>
<path d="M31.5879 95.7573L41.4064 99.316V68.8203L31.5879 95.7573Z" fill="#D5D8DC"/>
<path d="M59.3281 105.849L76.1911 111.981L79.7499 102.162L76.0816 105.849H59.3281Z" fill="#D5D8DC"/>
<path d="M76.082 105.85V93.0746H88.857L76.082 105.85Z" fill="#ECEFF4"/>
<path d="M109.809 81.4492C106.962 85.8657 102.181 88.8952 96.6875 89.3514C96.7787 94.1694 100.703 98.0384 105.539 98.0384C110.43 98.0384 114.408 94.0599 114.408 89.1689C114.408 85.8292 112.528 82.9639 109.809 81.4492Z" fill="#D5D8DC"/>
<path d="M99.5876 75.2615L100.5 70.991H98.1094L99.5876 75.2615Z" fill="#E6E9EE"/>
<path d="M94.9355 69.1665H95.5378L95.2458 68.3088L94.9355 69.1665Z" fill="#E6E9EE"/>
<path d="M90.8852 75.2615L92.3634 70.991H89.9727L90.8852 75.2615Z" fill="#E6E9EE"/>
<path d="M96.3399 56.6293C95.9749 56.6111 95.6099 56.5746 95.2449 56.5746C92.9637 56.5746 90.8102 57.0856 88.8574 57.9616C83.4737 60.3888 79.7324 65.7908 79.7324 72.0871C79.7324 72.7076 79.7872 73.3098 79.8419 73.9121C80.3529 78.3103 82.7254 82.1428 86.1382 84.6248C86.9777 85.2453 87.8902 85.7746 88.8574 86.2126C90.8102 87.0886 92.9637 87.5996 95.2449 87.5996C95.7742 87.5996 96.3217 87.5631 96.8327 87.5266C101.541 87.0521 105.611 84.4606 108.129 80.7376C109.79 78.2738 110.757 75.2991 110.757 72.0871C110.757 63.8928 104.388 57.1951 96.3399 56.6293ZM104.37 70.9921H102.381L100.702 78.8396C100.61 79.2411 100.282 79.5331 99.8622 79.5513C99.8439 79.5513 99.8257 79.5513 99.8074 79.5513C99.4242 79.5513 99.0774 79.3141 98.9497 78.9308L96.1757 70.9921H94.2959L91.5402 78.9491C91.4124 79.3323 91.0657 79.5696 90.6277 79.5513C90.2262 79.5331 89.8794 79.2411 89.7882 78.8396L88.1092 70.9921H86.1199C85.6089 70.9921 85.2074 70.5906 85.2074 70.0796C85.2074 69.5686 85.6089 69.1671 86.1199 69.1671H87.7259L87.0689 66.0646C86.9594 65.5718 87.2697 65.0791 87.7624 64.9878C88.2552 64.8783 88.7479 65.1886 88.8392 65.6813L89.5874 69.1671H93.0184L94.3872 65.2251C94.6427 64.4951 95.8472 64.4951 96.1209 65.2251L97.4897 69.1671H100.921L101.669 65.6813C101.778 65.1886 102.271 64.8783 102.746 64.9878C103.238 65.0973 103.549 65.5718 103.439 66.0646L102.782 69.1671H104.388C104.899 69.1671 105.301 69.5686 105.301 70.0796C105.301 70.5906 104.863 70.9921 104.37 70.9921Z" fill="#E6E9EE"/>
</svg>
