<svg width="14" height="14" viewBox="0 0 14 14" fill="none" xmlns="http://www.w3.org/2000/svg">
<path d="M10.4157 13.9699L11.3743 13.8146C11.9161 13.7282 12.4169 13.4739 12.8059 13.0877L13.7022 12.1931C13.8931 11.9991 14 11.7382 14 11.4663C14 11.1944 13.8931 10.9334 13.7022 10.7395L11.6544 8.70183C11.5584 8.60584 11.4444 8.52969 11.3189 8.47774C11.1934 8.42578 11.0589 8.39904 10.923 8.39904C10.7871 8.39904 10.6526 8.42578 10.5271 8.47774C10.4016 8.52969 10.2876 8.60584 10.1916 8.70183L8.70395 10.1866L3.79901 5.29128L5.28668 3.80653C5.38286 3.71074 5.45916 3.59698 5.51121 3.47173C5.56327 3.34647 5.59007 3.2122 5.59007 3.07659C5.59007 2.94099 5.56327 2.80672 5.51121 2.68146C5.45916 2.55621 5.38286 2.44242 5.28668 2.34664L3.27616 0.302804C3.18018 0.20682 3.06617 0.130672 2.94067 0.0787154C2.81517 0.0267584 2.68065 0 2.54478 0C2.40891 0 2.27437 0.0267584 2.14887 0.0787154C2.02337 0.130672 1.90936 0.20682 1.81339 0.302804L0.923285 1.19116C0.533684 1.57827 0.276619 2.07835 0.188795 2.61998L0.0331817 3.57668C-0.0325811 3.98472 -0.000296906 4.40251 0.127401 4.79565C0.255098 5.18879 0.474551 5.54604 0.767671 5.83797L8.18109 13.2368C8.46942 13.526 8.8221 13.7431 9.21041 13.8705C9.59872 13.9978 10.0117 14.0319 10.4157 13.9699Z" fill="white"/>
</svg>
