<svg xmlns="http://www.w3.org/2000/svg" viewBox="0 0 30 30"><defs><style>.cls-1{fill:#a7acb2;}.cls-2{fill:none;}</style></defs><g id="레이어_2" data-name="레이어 2"><g id="레이어_1-2" data-name="레이어 1"><path class="cls-1" d="M26.27,16.19A23,23,0,0,0,13.76,3.67a.51.51,0,0,0-.66.27L11.89,6.88h0l-3.73,9L6.67,19.47v0L4.44,24.85a.49.49,0,0,0,.11.54.48.48,0,0,0,.54.11l5-2.06v1.43A1.54,1.54,0,0,0,10.54,26a1.44,1.44,0,0,0,1,.41h.06a1.51,1.51,0,0,0,1.48-1.49V23.26a1,1,0,0,1,.79-1h0a.64.64,0,0,1,.08.37V23.7a1.51,1.51,0,0,0,.48,1.1,1.36,1.36,0,0,0,1,.4A1.51,1.51,0,0,0,17,23.7v-3l6.11-2.6h0L26,16.84a.48.48,0,0,0,.27-.27A.42.42,0,0,0,26.27,16.19Zm-16.76-1A2.31,2.31,0,0,1,10.28,17a2.34,2.34,0,0,1-2.45,2.33l.92-2.23Zm6.74,4.65a.49.49,0,0,0-.3.46V23.7a.54.54,0,0,1-.53.51.56.56,0,0,1-.3-.13A.53.53,0,0,1,15,23.7V22.65a1.5,1.5,0,0,0-.3-1,1,1,0,0,0-.83-.4,2,2,0,0,0-1.76,2v1.61a.49.49,0,0,1-.83.37.57.57,0,0,1-.17-.37V22.7a.5.5,0,0,0-.22-.42.46.46,0,0,0-.28-.08.63.63,0,0,0-.19,0L5.83,24.11l1.6-3.87a2.92,2.92,0,0,0,.51,0,3.33,3.33,0,0,0,2-6l2.7-6.51.86.41L14,8.4c.4.22.8.47,1.19.72.11.07.24.14.35.22.44.3.86.62,1.28.95a1.09,1.09,0,0,0,.17.13A19.35,19.35,0,0,1,19.5,13l.36.47c.24.32.49.63.71,1s.29.46.43.69.35.55.5.83.28.53.41.8.2.41.29.61ZM23.14,17c-.13-.29-.29-.57-.43-.85s-.19-.4-.3-.6c-.2-.37-.42-.72-.65-1.08-.12-.18-.22-.37-.35-.55-.24-.36-.5-.7-.77-1-.12-.16-.24-.33-.37-.49-.32-.38-.66-.75-1-1.11s-.48-.48-.73-.72-.59-.56-.91-.82-.51-.39-.77-.59-.48-.37-.73-.54-.57-.36-.85-.53-.5-.32-.76-.46-.6-.3-.89-.45-.41-.22-.62-.31l.83-2A22,22,0,0,1,25.15,16.11Z"/><path class="cls-1" d="M16.9,13.14a2.31,2.31,0,1,0,2.31,2.31A2.31,2.31,0,0,0,16.9,13.14Zm0,3.62a1.31,1.31,0,1,1,1.31-1.31A1.31,1.31,0,0,1,16.9,16.76Z"/><path class="cls-1" d="M13.37,12.7l.54-.74a.51.51,0,0,0-.12-.7.52.52,0,0,0-.7.12l-.53.74a.5.5,0,0,0,.12.7.52.52,0,0,0,.29.09A.48.48,0,0,0,13.37,12.7Z"/><path class="cls-1" d="M14.14,18.66l-.58-.2a.51.51,0,0,0-.64.31.5.5,0,0,0,.31.63l.58.2a.51.51,0,0,0,.17,0,.5.5,0,0,0,.47-.33A.51.51,0,0,0,14.14,18.66Z"/><rect class="cls-2" width="30" height="30"/></g></g></svg>