<svg xmlns="http://www.w3.org/2000/svg" viewBox="0 0 30 30"><defs><style>.cls-1{fill:none;}.cls-2{fill:#a7acb2;}</style></defs><g id="레이어_2" data-name="레이어 2"><g id="레이어_1-2" data-name="레이어 1"><rect class="cls-1" width="30" height="30"/><path class="cls-2" d="M15,.06A14.94,14.94,0,1,0,29.94,15,15,15,0,0,0,15,.06ZM1.06,15A13.94,13.94,0,1,1,15,28.94,14,14,0,0,1,1.06,15Z"/><path class="cls-2" d="M20.58,6.32A3.43,3.43,0,1,0,24,9.74,3.42,3.42,0,0,0,20.58,6.32Zm0,5.85A2.43,2.43,0,1,1,23,9.74,2.43,2.43,0,0,1,20.58,12.17Z"/><path class="cls-2" d="M18.93,16.21h-.15a2.53,2.53,0,0,1-1.52-.63,2.3,2.3,0,0,1-.35-.41,6.38,6.38,0,0,0-11.23,6h0l0,0a5.9,5.9,0,0,0,.38.7,1.74,1.74,0,0,0,.11.18,6,6,0,0,0,.42.57l.09.11.06.08a6.75,6.75,0,0,0,.54.53l.08.06a6.17,6.17,0,0,0,.57.44l.19.12a5.76,5.76,0,0,0,.6.33l.13.07a7,7,0,0,0,.76.29l.2.05a4.61,4.61,0,0,0,.62.14l.24,0a5.93,5.93,0,0,0,.84.06h7.16a4.39,4.39,0,0,0,4.39-4.44A4.45,4.45,0,0,0,18.93,16.21ZM6.17,18a5.39,5.39,0,0,1,3.11-4.27c0,.36-.06.72-.08,1.06l0,.5a5.34,5.34,0,0,1-2,3.81c-.3.28-.59.57-.88.88A5.7,5.7,0,0,1,6.17,18Zm.54,3a9,9,0,0,1,1.23-1.26,6.3,6.3,0,0,0,2.23-4.41l0-.53a9.17,9.17,0,0,1,.15-1.48,4.28,4.28,0,0,1,.59-.1,5.4,5.4,0,0,1,5.13,2.47A3.25,3.25,0,0,0,17.82,17a2.16,2.16,0,0,0-.34.91,3.48,3.48,0,0,0,.65,2.28,3.57,3.57,0,0,1,.55,1.31A2.27,2.27,0,0,1,18.15,23a5.52,5.52,0,0,0-.49,1H11.53A5.39,5.39,0,0,1,6.71,21ZM19,23.53a3.12,3.12,0,0,0,.68-2.13A4.35,4.35,0,0,0,19,19.71a2.65,2.65,0,0,1-.53-1.65,1.56,1.56,0,0,1,.46-.85,3.45,3.45,0,0,1,3.15,3.33A3.38,3.38,0,0,1,18.76,24,4.64,4.64,0,0,1,19,23.53Z"/><rect class="cls-2" x="12.73" y="17.94" width="1.5" height="1" transform="translate(-9.09 14.93) rotate(-45)"/><polygon class="cls-2" points="13.02 15.18 12.67 14.82 11.61 15.88 12.31 16.59 13.38 15.53 13.02 15.18"/><rect class="cls-2" x="9.93" y="20.01" width="1.5" height="1" transform="translate(-11.37 13.56) rotate(-45)"/><rect class="cls-2" x="12.73" y="21.44" width="1.5" height="1" transform="translate(-11.57 15.96) rotate(-45)"/><line class="cls-2" x1="15.53" y1="20.69" x2="15.53" y2="20.69"/><polygon class="cls-2" points="16.24 19.28 15.18 20.34 15.53 20.69 15.89 21.05 16.95 19.99 16.24 19.28"/><polygon class="cls-2" points="12.18 9.48 16.04 5.62 15.69 5.27 15.33 4.91 11.47 8.77 12.18 9.48"/><rect class="cls-2" x="8.2" y="6.7" width="5.46" height="1" transform="translate(-1.89 9.84) rotate(-45)"/></g></g></svg>