<svg xmlns="http://www.w3.org/2000/svg" viewBox="0 0 30 30"><defs><style>.cls-1{fill:none;}.cls-2{fill:#fff;}</style></defs><g id="레이어_2" data-name="레이어 2"><g id="레이어_1-2" data-name="레이어 1"><rect class="cls-1" width="30" height="30"/><path class="cls-2" d="M28.33,11l-2.44-.5a11.77,11.77,0,0,0-21.78,0L1.67,11A2,2,0,0,0,.06,13v4a2,2,0,0,0,1.61,2l2.44.5a11.77,11.77,0,0,0,21.78,0l2.44-.5a2,2,0,0,0,1.61-2V13A2,2,0,0,0,28.33,11Zm.61,6a1,1,0,0,1-.81,1l-1.85.38a11.61,11.61,0,0,0,0-6.74l1.85.38a1,1,0,0,1,.81,1ZM15,25.78A10.78,10.78,0,1,1,25.78,15,10.8,10.8,0,0,1,15,25.78ZM1.06,17V13a1,1,0,0,1,.81-1l1.85-.38a11.61,11.61,0,0,0,0,6.74L1.87,18A1,1,0,0,1,1.06,17Z"/><path class="cls-2" d="M15,6.21A8.79,8.79,0,1,0,23.79,15,8.8,8.8,0,0,0,15,6.21Zm0,16.58A7.79,7.79,0,1,1,22.79,15,7.8,7.8,0,0,1,15,22.79Z"/><path class="cls-2" d="M16.16,13.88a2.26,2.26,0,0,0,1.95-2.47A2.25,2.25,0,0,0,16.16,9a2.25,2.25,0,0,0-2,2.46A2.26,2.26,0,0,0,16.16,13.88Zm.95-2.47c0,.8-.43,1.47-.95,1.47s-1-.67-1-1.47.44-1.46,1-1.46S17.11,10.62,17.11,11.41Z"/><path class="cls-2" d="M10.89,16.78a.5.5,0,0,0-.73.68l1.55,1.67a.5.5,0,1,0,.74-.68Z"/><path class="cls-2" d="M19.54,13a.51.51,0,0,0-.5.5V15a.51.51,0,0,0,.5.5A.5.5,0,0,0,20,15v-1.5A.5.5,0,0,0,19.54,13Z"/><path class="cls-2" d="M11.61,12.49a1.05,1.05,0,0,0-.82.43,1.05,1.05,0,0,0-.82-.43c-.75,0-1.31.89-1.31,2.07h1A1.74,1.74,0,0,1,10,13.48a1.38,1.38,0,0,1,.34,1.08h1a1.65,1.65,0,0,1,.3-1.08,1.43,1.43,0,0,1,.33,1.08h1C12.92,13.38,12.36,12.49,11.61,12.49Z"/><path class="cls-2" d="M18,17.51a1.05,1.05,0,0,0-.81.43,1.07,1.07,0,0,0-.82-.43c-.75,0-1.32.89-1.32,2.07h1a1.65,1.65,0,0,1,.3-1.08,1.38,1.38,0,0,1,.34,1.08h1a1.74,1.74,0,0,1,.29-1.08,1.38,1.38,0,0,1,.34,1.08h1C19.28,18.4,18.71,17.51,18,17.51Z"/></g></g></svg>