<svg width="34" height="34" viewBox="0 0 34 34" fill="none" xmlns="http://www.w3.org/2000/svg">
<g clip-path="url(#clip0_294_1416)">
<path d="M16.9999 7.28875H19.4295V2.42958V0H16.9999H14.5703V2.42958H16.9999V7.28875Z" fill="white"/>
<path d="M17.0003 12.1408H19.4299V9.71118H17.0003H14.5707V12.1408V14.5703H7.28906V16.9999H12.1411V19.4295H14.5707V16.9999H17.0003V14.5703V12.1408Z" fill="white"/>
<path d="M9.71124 12.1408H12.1408V0H0V12.1408H9.71124ZM2.42958 2.42958H9.71124V9.71125H2.42958V2.42958Z" fill="white"/>
<path d="M31.5423 0H21.8594V12.1408H34.0002V0H31.5423ZM31.5423 9.71125H24.289V2.42958H31.5423V9.71125Z" fill="white"/>
<path d="M7.28896 4.85913H4.85938V7.28871H7.28896V4.85913Z" fill="white"/>
<path d="M24.289 21.8591H21.8594V34H34.0002V21.8591H24.289ZM31.5423 31.5704H24.289V24.2887H31.5423V31.5704Z" fill="white"/>
<path d="M2.42958 21.8591H0V34H12.1408V21.8591H2.42958ZM9.71124 31.5704H2.42958V24.2887H9.71124V31.5704Z" fill="white"/>
<path d="M29.1405 26.7112H26.7109V29.1408H29.1405V26.7112Z" fill="white"/>
<path d="M7.28885 17H2.42969V19.4296H7.28885V17Z" fill="white"/>
<path d="M2.42958 14.5703H0V16.9999H2.42958V14.5703Z" fill="white"/>
<path d="M16.9999 31.5703H14.5703V33.9999H16.9999V31.5703Z" fill="white"/>
<path d="M21.8591 14.5703H19.4295V16.9999H16.9999V19.4295V21.8591H14.5703V29.1407H16.9999V31.5703H19.4295V26.7111H16.9999V24.2886H19.4295V19.4295H26.7111V16.9999H21.8591V14.5703Z" fill="white"/>
<path d="M33.9997 14.5703H26.7109V16.9999H33.9997V14.5703Z" fill="white"/>
</g>
<defs>
<clipPath id="clip0_294_1416">
<rect width="34" height="34" fill="white"/>
</clipPath>
</defs>
</svg>
