<svg width="18" height="18" viewBox="0 0 18 18" fill="none" xmlns="http://www.w3.org/2000/svg">
<g clip-path="url(#clip0_441_2284)">
<path d="M8.99748 1.65036e-05C8.0776 -0.000530248 7.1666 0.179045 6.31658 0.528503C5.46657 0.877962 4.69417 1.39044 4.04353 2.03667C3.39288 2.68289 2.87676 3.45019 2.52461 4.29472C2.17246 5.13925 1.99121 6.04445 1.99121 6.95862C1.99121 10.8 8.9891 18 8.9891 18C8.9891 18 15.987 10.8 15.987 6.95862C15.987 5.11524 15.251 3.34717 13.9406 2.04253C12.6302 0.737899 10.8524 0.003324 8.99748 1.65036e-05ZM8.99748 9.65965C8.43573 9.65965 7.8866 9.49407 7.41958 9.18383C6.95255 8.87358 6.58862 8.43265 6.37384 7.9168C6.15906 7.40096 6.10311 6.83337 6.21301 6.2859C6.32291 5.73842 6.59377 5.23565 6.99128 4.84119C7.38879 4.44673 7.89503 4.17832 8.44609 4.06991C8.99715 3.9615 9.56823 4.01797 10.087 4.23218C10.6057 4.44639 11.0489 4.8087 11.3604 5.27328C11.6719 5.73786 11.8377 6.28384 11.8369 6.8421C11.8358 7.58975 11.5362 8.3064 11.0038 8.83468C10.4714 9.36295 9.74981 9.65965 8.99748 9.65965Z" fill="white"/>
</g>
<defs>
<clipPath id="clip0_441_2284">
<rect width="14" height="18" fill="white" transform="translate(2)"/>
</clipPath>
</defs>
</svg>
