<svg xmlns="http://www.w3.org/2000/svg" viewBox="0 0 30 30"><defs><style>.cls-1{fill:#fff;}.cls-2{fill:none;}</style></defs><g id="레이어_2" data-name="레이어 2"><g id="레이어_1-2" data-name="레이어 1"><path class="cls-1" d="M22,23a11.9,11.9,0,0,0,5.29-8.62c0-2.41-6.17-3.68-12.26-3.68S2.74,12,2.74,14.41A11.9,11.9,0,0,0,8,23l-3.37,3.2a.5.5,0,0,0,0,.71A.5.5,0,0,0,5,27.1.49.49,0,0,0,5.34,27l3.59-3.4a13,13,0,0,0,5.57,1.32v3.88a.5.5,0,1,0,1,0V24.88a13,13,0,0,0,5.57-1.32L24.66,27a.49.49,0,0,0,.34.14.5.5,0,0,0,.36-.16.5.5,0,0,0,0-.71ZM7.49,13.91H4a8.28,8.28,0,0,1,3.78-1.5ZM8.86,12.2c1-.16,2.08-.29,3.3-.37L12,13.91H8.51ZM7.29,14.91,7,16.22a7.27,7.27,0,0,1-3-1.31Zm1,0H12L11.82,17A29.35,29.35,0,0,1,8,16.44Zm4.65,0H17L17.19,17q-1.05.06-2.19.06c-.76,0-1.49,0-2.18-.06ZM18.18,17l-.13-2.06h3.64L22,16.44A29.35,29.35,0,0,1,18.18,17Zm3.31-3.06H18l-.14-2.08c1.22.08,2.33.21,3.3.37Zm.72-1.5A8.28,8.28,0,0,1,26,13.91H22.51ZM23,16.22l-.27-1.31H26A7.27,7.27,0,0,1,23,16.22Zm-6.15-4.45L17,13.91H13l.15-2.14c.59,0,1.19,0,1.83,0S16.24,11.75,16.83,11.77ZM4.11,16.19c2.14,1.25,6.53,1.9,10.89,1.9s8.75-.65,10.89-1.9A10.81,10.81,0,0,1,15,23.9,10.81,10.81,0,0,1,4.11,16.19Z"/><path class="cls-1" d="M10.15,6.53A3,3,0,0,0,11,8.65a.48.48,0,0,0,.7,0,.48.48,0,0,0,0-.7,2,2,0,0,1,0-2.83,3,3,0,0,0,0-4.24.5.5,0,0,0-.7,0,.5.5,0,0,0,0,.71,2,2,0,0,1,0,2.83A2.93,2.93,0,0,0,10.15,6.53Z"/><path class="cls-1" d="M13.77,6.53a3,3,0,0,0,.88,2.12.48.48,0,0,0,.7,0,.48.48,0,0,0,0-.7,2,2,0,0,1,0-2.83,3,3,0,0,0,0-4.24.5.5,0,0,0-.7,0,.5.5,0,0,0,0,.71,2,2,0,0,1,0,2.83A2.93,2.93,0,0,0,13.77,6.53Z"/><path class="cls-1" d="M17.39,6.53a3,3,0,0,0,.88,2.12.48.48,0,0,0,.7,0A.48.48,0,0,0,19,8a2,2,0,0,1,0-2.83A3,3,0,0,0,19,.88a.5.5,0,0,0-.7,0,.5.5,0,0,0,0,.71,2,2,0,0,1,0,2.83A2.93,2.93,0,0,0,17.39,6.53Z"/><rect class="cls-2" width="30" height="30"/></g></g></svg>