<svg xmlns="http://www.w3.org/2000/svg" viewBox="0 0 30 30"><defs><style>.cls-1{fill:none;}.cls-2{fill:#fff;}</style></defs><g id="레이어_2" data-name="레이어 2"><g id="레이어_1-2" data-name="레이어 1"><rect class="cls-1" width="30" height="30"/><path class="cls-2" d="M28.64,12.62a3.76,3.76,0,0,0,1.18-2.53,3.38,3.38,0,0,0-.93-2.54,3.58,3.58,0,0,0-5.07,0,3.86,3.86,0,0,0-.71.91,4.6,4.6,0,0,0-1,.23A7.9,7.9,0,0,0,20.52,4.3a.5.5,0,0,0-.46-.2A8,8,0,0,0,13.7,8.85a7.56,7.56,0,0,0-.56,2l-.23,0A4.34,4.34,0,0,0,12.34,9,4.28,4.28,0,0,0,8.61,7a.5.5,0,0,0-.43.26,4.23,4.23,0,0,0-.53,2.21A4.1,4.1,0,0,0,6,8.77,3.45,3.45,0,0,0,5.46,8a3.11,3.11,0,0,0-4.38-.2,3.11,3.11,0,0,0,0,4.39,3.31,3.31,0,0,0,.75.59,3.94,3.94,0,0,0,.77,2H1.36a.87.87,0,0,0-.55,1.55L8.94,22.9v3H20v-3l8.13-6.62a.87.87,0,0,0-.55-1.55h-.33a4.72,4.72,0,0,0,.46-1.45A3.88,3.88,0,0,0,28.64,12.62ZM19,24.9h-9V23.16h9Zm.33-2.74H9.62l-7.9-6.43H27.21ZM3.66,14.44a3,3,0,0,1-.84-2A.5.5,0,0,0,2.53,12a2.47,2.47,0,0,1-.72-.51,2.16,2.16,0,0,1-.35-2.58L7,14.73H4C3.91,14.63,3.77,14.55,3.66,14.44Zm2-4.7a3,3,0,0,1,2,.93,3.19,3.19,0,0,1,.52.74.49.49,0,0,0,.32.26,3.48,3.48,0,0,1,1.56.91,2.88,2.88,0,0,0-.22,1.1A2.85,2.85,0,0,0,10,14.73H8.41L2.18,8.22A2.05,2.05,0,0,1,3.12,8a2.28,2.28,0,0,1,1.62.7,2.51,2.51,0,0,1,.47.74A.52.52,0,0,0,5.64,9.74ZM8.92,8a3.3,3.3,0,0,1,2.56,1.58,3.11,3.11,0,0,1,.43,1.35,2.85,2.85,0,0,0-1.35.84A4.49,4.49,0,0,0,9,10.81,3.28,3.28,0,0,1,8.92,8Zm15,1.19a2.85,2.85,0,0,1,.63-.88,2.78,2.78,0,0,1,1.9-.77,2.45,2.45,0,0,1,1.37.41l-7.15,6.82H19.3a2.9,2.9,0,0,0,.43-1.52,2.75,2.75,0,0,0-.39-1.42,3.79,3.79,0,0,1,.65-.21.49.49,0,0,0,.32-.24,4.43,4.43,0,0,1,.68-.87,3.74,3.74,0,0,1,2.45-1A.48.48,0,0,0,23.88,9.15ZM20.21,5.67a6.94,6.94,0,0,1,.74,2l-1.85.58Zm-5.29,7.54a1.91,1.91,0,1,1,3,1.52H15.68A1.91,1.91,0,0,1,14.92,13.21Zm5.39-3.46a4.38,4.38,0,0,0-.75.91,5.14,5.14,0,0,0-.88.33,3.09,3.09,0,0,0-.6-.39l.5-1.14,2.49-.79c0,.16,0,.32,0,.48A4.06,4.06,0,0,0,20.31,9.75Zm-1-4.48-1.85,4.3L16.07,7.1A7.05,7.05,0,0,1,19.29,5.27ZM15.38,7.92l1.33,2.4a2.86,2.86,0,0,0-2.17,1.12,3,3,0,0,0-.43-.29,6.85,6.85,0,0,1,.51-1.91A6.65,6.65,0,0,1,15.38,7.92Zm-1.32,4.43a3,3,0,0,0-.14.86,2.88,2.88,0,0,0,.4,1.46l0,.06H11.11a1.9,1.9,0,0,1,1.59-3A1.86,1.86,0,0,1,14.06,12.35Zm8,2.38,6.39-6.09a2.33,2.33,0,0,1,.35,1.4A2.77,2.77,0,0,1,28,11.89a2.82,2.82,0,0,1-.91.58.52.52,0,0,0-.32.43,3.48,3.48,0,0,1-.66,1.83Z"/><path class="cls-2" d="M11.83,13.07a.5.5,0,0,0,.67.1c.27-.14.41-.41.31-.6a.58.58,0,0,0-1,.5Z"/><path class="cls-2" d="M16.63,12.71c.26-.14.4-.41.3-.6s-.39-.24-.66-.1-.41.4-.31.59A.5.5,0,0,0,16.63,12.71Z"/></g></g></svg>