<svg xmlns="http://www.w3.org/2000/svg" viewBox="0 0 30 30"><defs><style>.cls-1{fill:#a7acb2;}.cls-2{fill:none;}</style></defs><g id="레이어_2" data-name="레이어 2"><g id="레이어_1-2" data-name="레이어 1"><path class="cls-1" d="M3.07,23.12A1.77,1.77,0,0,1,1.43,22a1.93,1.93,0,0,1,.39-2.11l.42-.43,0-.07A2.77,2.77,0,0,1,1.85,18,2.72,2.72,0,0,1,3,15.78l.05,0v-.06a2.89,2.89,0,0,1,0-.53,3.37,3.37,0,0,1,3.36-3.36h.1V9.39a.48.48,0,0,1,.47-.48H8.61l0-.05a3.28,3.28,0,0,1,2-1.55A2.3,2.3,0,0,1,12.7,6h.05l0,0a2.76,2.76,0,0,1,4.42,0l0,0h.06a2.19,2.19,0,0,1,2,1.23,3.44,3.44,0,0,1,2.54,3.28c0,.08,0,.31,0,.31l.06,0a2.75,2.75,0,0,1,1.15.93l0,0h.06a2.86,2.86,0,0,1,.53-.06A3.37,3.37,0,0,1,27,15.15a2.89,2.89,0,0,1-.05.53v.06l0,0A2.72,2.72,0,0,1,28.15,18a2.77,2.77,0,0,1-.35,1.35l0,.07.42.43A1.93,1.93,0,0,1,28.57,22a1.77,1.77,0,0,1-1.65,1.13ZM15,8.15a.82.82,0,0,0-.49.18L2.5,20.54a1,1,0,0,0-.19,1.08.83.83,0,0,0,.76.55H26.92a.83.83,0,0,0,.77-.55,1,1,0,0,0-.19-1.08L15.57,8.39A.84.84,0,0,0,15,8.15Zm-8.64,4.6A2.41,2.41,0,0,0,4,15.15a2.56,2.56,0,0,0,.12.7.47.47,0,0,1-.25.55A1.81,1.81,0,0,0,2.8,18a1.71,1.71,0,0,0,.09.55l0,.16,3.49-3.56,0-2.43ZM15,7.18a1.75,1.75,0,0,1,1.26.54l10.81,11,0-.16A1.71,1.71,0,0,0,27.2,18a1.81,1.81,0,0,0-1-1.63.47.47,0,0,1-.25-.55,2.56,2.56,0,0,0,.12-.7,2.41,2.41,0,0,0-2.41-2.4,2.44,2.44,0,0,0-.69.11l-.13,0a.48.48,0,0,1-.43-.26,1.84,1.84,0,0,0-1.23-1,.47.47,0,0,1-.36-.57,2.46,2.46,0,0,0,.06-.53,2.39,2.39,0,0,0-2-2.36.47.47,0,0,1-.37-.32A1.26,1.26,0,0,0,17.29,7l-.21,0h0a.51.51,0,0,1-.48-.24,1.8,1.8,0,0,0-3.16,0A.49.49,0,0,1,13,7l-.29,0a1.26,1.26,0,0,0-1.2.87.48.48,0,0,1-.37.32A2.44,2.44,0,0,0,10,8.74l-.2.17h2.77l1.21-1.19A1.75,1.75,0,0,1,15,7.18Zm-7.59,7,4.23-4.31H7.41Z"/><path class="cls-1" d="M6.93,20.81a.48.48,0,0,1-.47-.47A.48.48,0,0,1,6.6,20l4.61-4.61a.47.47,0,0,1,.33-.14.48.48,0,0,1,.34.82l-4.61,4.6A.48.48,0,0,1,6.93,20.81Z"/><path class="cls-1" d="M11,20.81a.48.48,0,0,1-.34-.14.47.47,0,0,1-.14-.33.48.48,0,0,1,.14-.34l4.61-4.61a.48.48,0,0,1,.34-.14.47.47,0,0,1,.33.14.48.48,0,0,1,0,.68l-4.61,4.6A.47.47,0,0,1,11,20.81Z"/><path class="cls-1" d="M15,20.81a.48.48,0,0,1-.34-.14.47.47,0,0,1-.14-.33.48.48,0,0,1,.14-.34l4.61-4.61a.48.48,0,0,1,.68.68l-4.61,4.6A.48.48,0,0,1,15,20.81Z"/><path class="cls-1" d="M19,20.81a.48.48,0,0,1-.47-.47A.48.48,0,0,1,18.7,20l2.88-2.88a.47.47,0,0,1,.33-.14.48.48,0,0,1,.48.48.47.47,0,0,1-.14.33l-2.88,2.88A.48.48,0,0,1,19,20.81Z"/><rect class="cls-2" width="30" height="30"/></g></g></svg>