<svg xmlns="http://www.w3.org/2000/svg" viewBox="0 0 30 30"><defs><style>.cls-1{fill:none;}.cls-2{fill:#fff;}</style></defs><g id="레이어_2" data-name="레이어 2"><g id="레이어_1-2" data-name="레이어 1"><rect class="cls-1" width="30" height="30"/><path class="cls-2" d="M12,22.49a.29.29,0,0,1,0-.57c6.28-.28,12.33-5.25,12.39-5.3a.27.27,0,0,1,.32,0s2.08,1.2,4,2.06c0-1.48,0-5.69,0-7.07-1.92.86-4,2.05-4,2.06a.27.27,0,0,1-.33,0,25.23,25.23,0,0,0-4.24-3c-2.33-1.32-5.87-2.8-9.54-2.36S3.92,10.84,1.4,14.71a.62.62,0,0,0,0,.78l0,0c2.37,3.65,5.11,5.71,8.37,6.23a.28.28,0,0,1,.24.32.29.29,0,0,1-.33.24C6.26,21.76,3.4,19.62.93,15.84a1.18,1.18,0,0,1,0-1.44c2.62-4,5.86-6.28,9.63-6.74s7.5,1.07,9.9,2.44a25.44,25.44,0,0,1,4.18,3,46,46,0,0,1,4.28-2.16.29.29,0,0,1,.27,0,.31.31,0,0,1,.13.24c0,2.51-.05,7.38,0,7.91a.3.3,0,0,1-.12.25.28.28,0,0,1-.28,0c-1.73-.73-3.71-1.84-4.29-2.16a31.33,31.33,0,0,1-3.75,2.48,20.86,20.86,0,0,1-8.82,2.83Z"/><path class="cls-2" d="M12,22.66a.45.45,0,0,1-.45-.44.44.44,0,0,1,.43-.47c6.15-.27,12-5.06,12.29-5.27a.45.45,0,0,1,.52,0c.21.12,2,1.14,3.73,1.93,0-1.62,0-5.27,0-6.52-1.73.8-3.53,1.82-3.73,1.94a.47.47,0,0,1-.55-.06,25.13,25.13,0,0,0-4.21-3C17.78,9.43,14.27,8,10.65,8.4S4,11,1.54,14.81c-.22.33-.06.54,0,.56l0,.05c2.37,3.63,5.07,5.64,8.26,6.16a.45.45,0,0,1,.3.18.46.46,0,0,1,.08.34.46.46,0,0,1-.53.38C6.2,21.93,3.3,19.79.79,15.94a1.35,1.35,0,0,1,0-1.64C3.43,10.24,6.71,8,10.54,7.49s7.58,1.08,10,2.46a24.74,24.74,0,0,1,4.11,2.89,46.73,46.73,0,0,1,4.19-2.11.46.46,0,0,1,.44,0,.44.44,0,0,1,.2.38c0,2.51,0,7.38,0,7.9a.46.46,0,0,1-.19.4.43.43,0,0,1-.45.05,47.06,47.06,0,0,1-4.21-2.11A29.23,29.23,0,0,1,21,19.81a21,21,0,0,1-8.9,2.85ZM24.6,16.73l-.07,0C24.28,17,18.3,21.82,12,22.1a.1.1,0,0,0-.1.11.1.1,0,0,0,.1.1h0a20.72,20.72,0,0,0,8.75-2.8A28.91,28.91,0,0,0,24.52,17l.09-.08.1.06c.57.32,2.54,1.42,4.28,2.16a.11.11,0,0,0,.11,0,.12.12,0,0,0,0-.1c-.05-.66,0-7.62,0-7.92a.11.11,0,0,0-.05-.09.12.12,0,0,0-.1,0,47.63,47.63,0,0,0-4.26,2.15l-.11.07-.1-.09a24.55,24.55,0,0,0-4.15-2.93c-2.38-1.35-6-2.87-9.79-2.41S3.66,10.53,1.07,14.5a1,1,0,0,0,0,1.23c2.47,3.78,5.29,5.87,8.64,6.4A.1.1,0,0,0,9.83,22a.09.09,0,0,0,0-.08s0,0-.07,0c-3.29-.53-6.07-2.59-8.49-6.3a.79.79,0,0,1,0-1C3.8,10.7,7,8.49,10.61,8.05s7.29,1,9.65,2.38a24.53,24.53,0,0,1,4.27,3.05.1.1,0,0,0,.13,0c.22-.13,2.2-1.26,4-2.07l.25-.11v.27c0,.91,0,5.51,0,7.06v.28l-.25-.11c-1.82-.82-3.79-1.94-4-2.06A.07.07,0,0,0,24.6,16.73Z"/><path class="cls-2" d="M21.37,11.25a.28.28,0,0,1-.26-.15.28.28,0,0,1,.13-.38A11.13,11.13,0,0,1,22.87,10a18.17,18.17,0,0,0-7.64-3.52,4.4,4.4,0,0,0-2.51.29c-1.51.66-3,1.47-3,1.48a.28.28,0,1,1-.28-.49,33.28,33.28,0,0,1,3-1.5,4.86,4.86,0,0,1,2.84-.33,18.85,18.85,0,0,1,8.34,4,.27.27,0,0,1,.1.29.28.28,0,0,1-.22.2,7.53,7.53,0,0,0-2.06.8Z"/><path class="cls-2" d="M21.37,11.43a.45.45,0,0,1-.41-.25.43.43,0,0,1,0-.35.47.47,0,0,1,.23-.27c.59-.29,1-.48,1.34-.61a17.92,17.92,0,0,0-7.3-3.28,4.15,4.15,0,0,0-2.41.27c-1.43.62-2.8,1.39-2.95,1.47a.46.46,0,0,1-.63-.17.46.46,0,0,1,.17-.62c.27-.15,1.63-.9,3-1.51a5,5,0,0,1,2.94-.34,18.93,18.93,0,0,1,8.42,4,.47.47,0,0,1,.16.47.48.48,0,0,1-.36.34,6.85,6.85,0,0,0-2,.78A.46.46,0,0,1,21.37,11.43ZM14.45,6.25a4.43,4.43,0,0,1,.81.07A18.37,18.37,0,0,1,23,9.87l.27.21-.32.1a10.92,10.92,0,0,0-1.6.7.09.09,0,0,0-.06.06.25.25,0,0,0,0,.08.1.1,0,0,0,.14.05,7.67,7.67,0,0,1,2.1-.82.1.1,0,0,0,.09-.08.1.1,0,0,0,0-.11A18.65,18.65,0,0,0,15.3,6.11a4.7,4.7,0,0,0-2.74.32,32.57,32.57,0,0,0-3,1.49.1.1,0,0,0-.05.15.1.1,0,0,0,.14,0c.16-.09,1.55-.86,3-1.49A4.5,4.5,0,0,1,14.45,6.25Z"/><path class="cls-2" d="M6.75,19.26a.27.27,0,0,1-.17-.06.28.28,0,0,1,0-.39,7.29,7.29,0,0,0,1.28-6.38,10.1,10.1,0,0,0-1.29-3.1A.28.28,0,0,1,7,9a10.57,10.57,0,0,1,1.36,3.27A7.92,7.92,0,0,1,7,19.15.3.3,0,0,1,6.75,19.26Z"/><path class="cls-2" d="M6.75,19.44a.5.5,0,0,1-.28-.1A.48.48,0,0,1,6.3,19a.52.52,0,0,1,.09-.34,7.13,7.13,0,0,0,1.25-6.23,10.45,10.45,0,0,0-1.26-3,.46.46,0,0,1,.12-.64.41.41,0,0,1,.34-.07.44.44,0,0,1,.29.19,10.83,10.83,0,0,1,1.39,3.33,8.09,8.09,0,0,1-1.4,7A.47.47,0,0,1,6.75,19.44Zm0-10.38-.06,0a.11.11,0,0,0,0,.15A10.65,10.65,0,0,1,8,12.39a7.46,7.46,0,0,1-1.31,6.52.09.09,0,0,0,0,.08.08.08,0,0,0,0,.07.1.1,0,0,0,.15,0,7.79,7.79,0,0,0,1.34-6.73A10.34,10.34,0,0,0,6.84,9.11a.13.13,0,0,0-.07,0Z"/><path class="cls-2" d="M5.44,14.71a.64.64,0,0,1-.64-.64.64.64,0,0,1,.64-.64.64.64,0,0,1,0,1.28Z"/><path class="cls-2" d="M5.44,14.89a.82.82,0,1,1,.82-.82A.82.82,0,0,1,5.44,14.89Zm0-1.28a.47.47,0,1,0,.47.46A.47.47,0,0,0,5.44,13.61Z"/><path class="cls-2" d="M11.82,24.14a.65.65,0,0,1-.19,0c-1.74-.33-2.92-3.6-3.11-4.08a.28.28,0,0,1,.17-.36.28.28,0,0,1,.36.16c.47,1.23,1.47,3.49,2.69,3.73.06,0,.13,0,.15,0s.26-.43-.5-2.4C11,20.1,11,20.08,11,20.07a.28.28,0,0,1,.12-.38.28.28,0,0,1,.38.13A10.62,10.62,0,0,1,11.91,21c.81,2.08.63,2.67.43,2.94A.61.61,0,0,1,11.82,24.14Z"/><path class="cls-2" d="M11.82,24.32l-.22,0C10,24,8.91,21.57,8.38,20.15l0,0a.46.46,0,0,1,.27-.59.46.46,0,0,1,.59.26c.8,2.14,1.73,3.45,2.55,3.62a5.14,5.14,0,0,0-.55-2.18c-.35-.91-.41-1-.42-1.06a.46.46,0,1,1,.81-.42c.06.11.29.69.47,1.15.82,2.14.65,2.79.4,3.11A.79.79,0,0,1,11.82,24.32Zm-3-4.48h0a.11.11,0,0,0-.06.14l0,.05c.87,2.33,1.92,3.72,3,3.92a.49.49,0,0,0,.53-.16c.28-.36.12-1.29-.45-2.77-.37-.95-.44-1.09-.45-1.11a.11.11,0,0,0-.15-.06.1.1,0,0,0-.05.14s.06.1.45,1.11c.71,1.84.61,2.4.48,2.56s-.26.09-.32.08c-1.22-.23-2.21-2.21-2.82-3.84A.11.11,0,0,0,8.79,19.84Z"/><path class="cls-2" d="M25.89,14.64a.28.28,0,0,1-.26-.21.29.29,0,0,1,.2-.35s1.45-.4,3.1-.66a.26.26,0,0,1,.3.24A.29.29,0,0,1,29,14c-1.63.26-3,.65-3.06.65Z"/><path class="cls-2" d="M25.89,14.82a.45.45,0,0,1-.43-.36.46.46,0,0,1,.32-.54,30,30,0,0,1,3.13-.67.42.42,0,0,1,.32.08.49.49,0,0,1,.18.3.46.46,0,0,1-.37.52c-1.62.26-3,.65-3,.65ZM29,13.59h0c-1.42.23-2.71.56-3.07.66a.12.12,0,0,0-.09.14s0,.1.11.07,1.44-.39,3.07-.65a.11.11,0,0,0,.08-.13s0-.06,0-.07Z"/><path class="cls-2" d="M25.89,15.6a.27.27,0,0,0-.26.21.28.28,0,0,0,.2.34,28.48,28.48,0,0,0,3.1.67.26.26,0,0,0,.3-.24.28.28,0,0,0-.22-.32A29.16,29.16,0,0,1,26,15.6Z"/><path class="cls-2" d="M29,17h-.06a31.36,31.36,0,0,1-3.13-.67.46.46,0,0,1-.32-.55.45.45,0,0,1,.43-.35l.11,0c.37.1,1.63.42,3,.65a.46.46,0,0,1,.37.52.49.49,0,0,1-.18.3A.43.43,0,0,1,29,17Zm-3.08-1.23a.11.11,0,0,0-.09.08.11.11,0,0,0,.07.13,30.62,30.62,0,0,0,3.09.67l.06,0s0,0,0-.07a.11.11,0,0,0-.08-.13c-1.42-.22-2.7-.56-3.06-.65Z"/><path class="cls-2" d="M18.47,22.19a22.24,22.24,0,0,1-3.12-.27.27.27,0,0,1-.23-.32.27.27,0,0,1,.32-.23,16.15,16.15,0,0,0,4.23.15c1.06-.25.74-2,.74-2a.28.28,0,0,1,.23-.33.29.29,0,0,1,.33.23c0,.09.41,2.3-1.17,2.68A5.86,5.86,0,0,1,18.47,22.19Z"/><path class="cls-2" d="M18.47,22.37a23.72,23.72,0,0,1-3.15-.27.49.49,0,0,1-.3-.19.46.46,0,0,1-.08-.34.49.49,0,0,1,.19-.3.45.45,0,0,1,.34-.08,15.56,15.56,0,0,0,4.16.16c.89-.21.61-1.81.61-1.83A.46.46,0,0,1,20.6,19a.47.47,0,0,1,.54.37c0,.1.44,2.46-1.3,2.88A5.66,5.66,0,0,1,18.47,22.37Zm-3.08-.83a.07.07,0,0,0-.06,0,.08.08,0,0,0,0,.07.08.08,0,0,0,0,.08.08.08,0,0,0,.07,0,22.92,22.92,0,0,0,3.09.27,5.53,5.53,0,0,0,1.29-.12c1.42-.34,1-2.39,1-2.48a.09.09,0,0,0-.12-.08.1.1,0,0,0-.09.12c0,.08.35,1.94-.87,2.23a16.15,16.15,0,0,1-4.3-.15Z"/></g></g></svg>