<svg width="30" height="30" viewBox="0 0 30 30" fill="none" xmlns="http://www.w3.org/2000/svg">
<path d="M26.6258 25.7835L22.6471 21.6885C24.5607 19.5955 25.7353 16.7875 25.7353 13.7C25.7353 7.2455 20.6325 2 14.3677 2C8.10282 2 3 7.2455 3 13.7C3 20.1545 8.10282 25.4 14.3677 25.4C16.7233 25.4 18.9147 24.659 20.7336 23.3915L24.8449 27.623C25.0912 27.87 25.4133 28 25.7353 28C26.0574 28 26.3795 27.87 26.6258 27.6165C27.1247 27.1095 27.1247 26.2905 26.6258 25.7835ZM5.52615 13.7C5.52615 8.682 9.4922 4.6 14.3677 4.6C19.2431 4.6 23.2092 8.682 23.2092 13.7C23.2092 18.718 19.2431 22.8 14.3677 22.8C9.4922 22.8 5.52615 18.718 5.52615 13.7Z" fill="#262626"/>
</svg>
