<svg width="36" height="34" viewBox="0 0 36 34" fill="none" xmlns="http://www.w3.org/2000/svg">
<g clip-path="url(#clip0_354_714)">
<path d="M10.6768 0H2.90842L0 7.76842H8.73474L10.6768 0Z" fill="white"/>
<path d="M32.0304 7.76842L29.1219 0H21.3535L23.2956 7.76842H32.0304Z" fill="white"/>
<path d="M21.846 7.76842L20.046 0H11.9839L10.1934 7.76842H21.846Z" fill="white"/>
<path d="M30.0594 18.9759V15.5559H31.9542V9.21802H23.3047V15.5275H28.1647V18.9759C28.7935 18.8918 29.4306 18.8918 30.0594 18.9759Z" fill="white"/>
<path d="M24.4427 20.3875H3.88477V32.0306H22.8321C22.1369 31.1767 21.6242 30.1893 21.3256 29.1294C21.0271 28.0695 20.9491 26.9596 21.0965 25.8684C21.2439 24.7772 21.6135 23.7278 22.1826 22.785C22.7516 21.8423 23.5079 21.0263 24.4048 20.3875H24.4427Z" fill="white"/>
<path d="M8.73474 15.5368V9.22729H0V15.5368H1.94211V32.0305H3.88421V15.5368H8.73474Z" fill="white"/>
<path d="M21.846 9.22729H10.1934V15.5368H21.846V9.22729Z" fill="white"/>
<path d="M35.4032 32.0115L33.8495 30.4105C34.6012 29.414 35.01 28.2008 35.0148 26.9526C35.0293 25.6213 34.5932 24.3242 33.7774 23.272C32.9616 22.2198 31.8141 21.4744 30.5211 21.1568C29.2282 20.8391 27.8658 20.968 26.6554 21.5224C25.4449 22.0767 24.4574 23.0241 23.8534 24.2106C23.2493 25.3971 23.0642 26.7529 23.328 28.0579C23.5918 29.3629 24.289 30.5403 25.3065 31.399C26.324 32.2577 27.6019 32.7471 28.9327 32.7878C30.2634 32.8285 31.5689 32.418 32.6369 31.6231L34.1906 33.1863L34.5411 33.5368C34.6198 33.6182 34.714 33.6829 34.8181 33.7271C34.9223 33.7713 35.0343 33.7941 35.1474 33.7941C35.2606 33.7941 35.3726 33.7713 35.4768 33.7271C35.5809 33.6829 35.6751 33.6182 35.7538 33.5368C35.9134 33.3754 36.003 33.1575 36.003 32.9305C36.003 32.7035 35.9134 32.4856 35.7538 32.3242L35.4032 32.0115ZM29.1222 31.0642C28.3048 31.0642 27.5059 30.8217 26.8264 30.3674C26.1469 29.9131 25.6175 29.2674 25.3052 28.5121C24.9928 27.7568 24.9116 26.9258 25.0717 26.1243C25.2319 25.3228 25.6262 24.5869 26.2048 24.0096C26.7834 23.4323 27.5203 23.0396 28.3222 22.8813C29.124 22.723 29.9548 22.8062 30.7094 23.1203C31.464 23.4343 32.1085 23.9652 32.5612 24.6457C33.0139 25.3262 33.2546 26.1258 33.2527 26.9431C33.254 27.4867 33.1477 28.0251 32.9399 28.5275C32.7322 29.0298 32.4272 29.4861 32.0423 29.87C31.6575 30.2539 31.2006 30.5579 30.6978 30.7645C30.195 30.9711 29.6563 31.0761 29.1127 31.0736L29.1222 31.0642Z" fill="white"/>
</g>
<defs>
<clipPath id="clip0_354_714">
<rect width="36" height="33.8305" fill="white"/>
</clipPath>
</defs>
</svg>
