<svg width="20" height="20" viewBox="0 0 20 20" fill="none" xmlns="http://www.w3.org/2000/svg">
<g clip-path="url(#clip0_296_5831)">
<path d="M10 1.25C11.7306 1.25 13.4223 1.76318 14.8612 2.72464C16.3002 3.6861 17.4217 5.05267 18.0839 6.65152C18.7462 8.25037 18.9195 10.0097 18.5819 11.707C18.2443 13.4044 17.4109 14.9635 16.1872 16.1872C14.9635 17.4109 13.4044 18.2443 11.707 18.5819C10.0097 18.9195 8.25038 18.7462 6.65152 18.0839C5.05267 17.4217 3.68611 16.3002 2.72465 14.8612C1.76318 13.4223 1.25001 11.7306 1.25001 10C1.25001 7.67936 2.17188 5.45376 3.81282 3.81282C5.45376 2.17187 7.67936 1.25 10 1.25M10 0C8.02219 0 6.08879 0.586487 4.4443 1.6853C2.79981 2.78412 1.51809 4.3459 0.761209 6.17317C0.00433286 8.00043 -0.193701 10.0111 0.192152 11.9509C0.578004 13.8907 1.53041 15.6725 2.92894 17.0711C4.32746 18.4696 6.10929 19.422 8.0491 19.8079C9.98891 20.1937 11.9996 19.9957 13.8268 19.2388C15.6541 18.4819 17.2159 17.2002 18.3147 15.5557C19.4135 13.9112 20 11.9778 20 10C20 7.34784 18.9464 4.80429 17.0711 2.92893C15.1957 1.05357 12.6522 0 10 0Z" fill="#8F9399"/>
<path d="M11.0371 11.7251C11.0406 11.8282 11.0031 11.9285 10.933 12.0042C10.8559 12.0722 10.7565 12.1093 10.6538 12.1084H8.96215C8.91284 12.1111 8.86353 12.1032 8.81753 12.0852C8.77153 12.0672 8.72992 12.0396 8.69548 12.0042C8.65714 11.969 8.62715 11.9257 8.60769 11.8774C8.58823 11.8291 8.57979 11.777 8.58298 11.7251V11.3084C8.57551 11.0132 8.63835 10.7204 8.76632 10.4542C8.88659 10.1983 9.03922 9.95882 9.22048 9.74174C9.40798 9.5459 9.60381 9.36257 9.81215 9.17507C10.0205 8.98757 10.2038 8.83757 10.3913 8.67923C10.5608 8.5397 10.7158 8.38335 10.8538 8.21257C10.9653 8.08907 11.0276 7.92894 11.0288 7.76257C11.0349 7.64981 11.0152 7.53714 10.9712 7.43316C10.9271 7.32918 10.8599 7.23663 10.7746 7.16257C10.5721 7.03701 10.3379 6.97195 10.0996 6.97507H9.94965C9.82554 6.97131 9.70198 6.99303 9.5866 7.0389C9.47122 7.08476 9.36647 7.1538 9.27881 7.24174C9.18647 7.33608 9.11442 7.44834 9.06713 7.5716C9.01983 7.69486 8.99829 7.8265 9.00382 7.9584V8.6084C9.00128 8.71279 8.95964 8.81242 8.88715 8.88757C8.85047 8.92399 8.80688 8.95271 8.75894 8.97203C8.71099 8.99135 8.65967 9.00088 8.60798 9.00007H6.96215C6.91199 9.00352 6.86173 8.99514 6.81541 8.9756C6.76909 8.95606 6.72801 8.9259 6.69548 8.88757C6.65997 8.85062 6.6324 8.80679 6.61448 8.75878C6.59656 8.71076 6.58868 8.65958 6.59132 8.6084V8.0209C6.58876 7.60991 6.67103 7.20281 6.83298 6.82507C6.99088 6.45994 7.22368 6.13204 7.51632 5.86257C7.80196 5.58824 8.14091 5.37551 8.51215 5.23757C8.90122 5.09173 9.31331 5.01693 9.72882 5.01674H10.3413C11.1413 4.97455 11.9288 5.22816 12.5538 5.72924C12.8172 5.96113 13.0299 6.24481 13.1788 6.56257C13.3255 6.93111 13.4004 7.32426 13.3996 7.7209C13.407 8.0342 13.3634 8.34661 13.2705 8.6459C13.1951 8.88239 13.0945 9.11009 12.9705 9.32507C12.8433 9.51839 12.6905 9.69359 12.5163 9.8459C12.3538 9.9959 12.1913 10.1334 12.0413 10.2626C11.9478 10.3334 11.8626 10.4144 11.7871 10.5042C11.6705 10.6209 11.558 10.7501 11.4538 10.8751C11.3452 11.0029 11.2515 11.1427 11.1746 11.2917C11.087 11.4194 11.0391 11.5702 11.0371 11.7251V11.7251ZM10.6538 12.7667C10.7565 12.7659 10.8559 12.803 10.933 12.8709C11.0031 12.9466 11.0406 13.0469 11.0371 13.1501V14.6209C11.0402 14.6719 11.0324 14.7229 11.0142 14.7706C10.996 14.8183 10.9678 14.8615 10.9315 14.8974C10.8952 14.9333 10.8516 14.961 10.8037 14.9788C10.7559 14.9965 10.7047 15.0037 10.6538 15.0001H8.96215C8.91284 15.0028 8.86353 14.9948 8.81753 14.9769C8.77153 14.9589 8.72992 14.9313 8.69548 14.8959C8.65878 14.8603 8.62985 14.8175 8.61049 14.7702C8.59113 14.7228 8.58176 14.672 8.58298 14.6209V13.1501C8.57979 13.0981 8.58823 13.0461 8.60769 12.9978C8.62715 12.9495 8.65714 12.9061 8.69548 12.8709C8.73053 12.8363 8.77225 12.8093 8.81809 12.7914C8.86394 12.7735 8.91295 12.7651 8.96215 12.7667H10.6538Z" fill="#8F9399"/>
</g>
<defs>
<clipPath id="clip0_296_5831">
<rect width="20" height="20" fill="white"/>
</clipPath>
</defs>
</svg>
