<svg width="20" height="20" viewBox="0 0 20 20" fill="none" xmlns="http://www.w3.org/2000/svg">
<g clip-path="url(#clip0_450_2992)">
<path d="M16.5069 10.5671C16.5069 10.3751 16.5069 10.1861 16.5069 10.0001C16.5069 9.81407 16.5069 9.62506 16.5069 9.43306L18.3069 7.76809C18.4844 7.60833 18.6019 7.39249 18.6395 7.15664C18.6772 6.92079 18.6328 6.6792 18.5139 6.47208L17.3711 4.52805C17.2784 4.37114 17.1468 4.24072 16.9892 4.1493C16.8316 4.05788 16.6533 4.00853 16.4711 4.00604C16.3665 3.99227 16.2605 3.99227 16.156 4.00604L13.7621 4.74404C13.4499 4.52549 13.1184 4.33571 12.772 4.17704L12.2229 1.77405C12.168 1.5408 12.0361 1.33294 11.8482 1.18425C11.6603 1.03557 11.4276 0.954814 11.188 0.955079H8.91093C8.67132 0.954814 8.43878 1.03557 8.25088 1.18425C8.06298 1.33294 7.93085 1.5408 7.87602 1.77405L7.32693 4.17704C6.98046 4.33571 6.64923 4.52549 6.33706 4.74404L3.94292 4.00604C3.83837 3.99227 3.7326 3.99227 3.62805 4.00604C3.44586 4.00853 3.26733 4.05788 3.10971 4.1493C2.9521 4.24072 2.82068 4.37114 2.72805 4.52805L1.58503 6.47208C1.46609 6.6792 1.42168 6.92079 1.45935 7.15664C1.49702 7.39249 1.61447 7.60833 1.79201 7.76809L3.59201 9.43306C3.59201 9.62506 3.59201 9.81407 3.59201 10.0001C3.59201 10.1861 3.59201 10.3751 3.59201 10.5671L1.79201 12.2321C1.61447 12.3918 1.49702 12.6076 1.45935 12.8434C1.42168 13.0793 1.46609 13.3209 1.58503 13.5281L2.72805 15.4721C2.82068 15.629 2.9521 15.7594 3.10971 15.8508C3.26733 15.9423 3.44586 15.9916 3.62805 15.994C3.73223 16.0126 3.83873 16.0126 3.94292 15.994L6.33706 15.256C6.64923 15.4746 6.98046 15.6644 7.32693 15.823L7.87602 18.2261C7.93085 18.4593 8.06298 18.6672 8.25088 18.8159C8.43878 18.9646 8.67132 19.0453 8.91093 19.0451H11.188C11.4276 19.0453 11.6603 18.9646 11.8482 18.8159C12.0361 18.6672 12.168 18.4593 12.2229 18.2261L12.772 15.823C13.1184 15.6644 13.4499 15.4746 13.7621 15.256L16.156 15.994C16.2602 16.0126 16.3669 16.0126 16.4711 15.994C16.6533 15.9916 16.8316 15.9423 16.9892 15.8508C17.1468 15.7594 17.2784 15.629 17.3711 15.4721L18.5139 13.5281C18.6328 13.3209 18.6772 13.0793 18.6395 12.8434C18.6019 12.6076 18.4844 12.3918 18.3069 12.2321L16.5069 10.5671ZM10.072 12.9251C9.49346 12.9251 8.92789 12.7535 8.44687 12.4321C7.96586 12.1107 7.59094 11.6539 7.36955 11.1194C7.14817 10.5849 7.09036 9.99683 7.20322 9.42944C7.31608 8.86204 7.59462 8.34085 8.00368 7.93178C8.41275 7.52271 8.93395 7.24412 9.50134 7.13126C10.0687 7.0184 10.6568 7.07632 11.1913 7.29771C11.7257 7.51909 12.1825 7.89401 12.5039 8.37503C12.8253 8.85604 12.997 9.42156 12.997 10.0001C12.997 10.7758 12.6888 11.5198 12.1403 12.0684C11.5917 12.6169 10.8477 12.9251 10.072 12.9251V12.9251Z" fill="#8F9399"/>
</g>
<defs>
<clipPath id="clip0_450_2992">
<rect width="17.244" height="18" fill="white" transform="translate(1.4502 1)"/>
</clipPath>
</defs>
</svg>
