<svg width="20" height="20" viewBox="0 0 20 20" fill="none" xmlns="http://www.w3.org/2000/svg">
<g clip-path="url(#clip0_450_2943)">
<path d="M5.93158 0H1.61579L0 4.31579H4.85263L5.93158 0Z" fill="#8F9399"/>
<path d="M17.7949 4.31579L16.1791 0H11.8633L12.9422 4.31579H17.7949Z" fill="#8F9399"/>
<path d="M12.1368 4.31579L11.1368 0H6.65782L5.66309 4.31579H12.1368Z" fill="#8F9399"/>
<path d="M16.6999 10.5421V8.64215H17.7525V5.12109H12.9473V8.62634H15.6473V10.5421C15.9966 10.4954 16.3506 10.4954 16.6999 10.5421V10.5421Z" fill="#8F9399"/>
<path d="M13.5793 11.3264H2.1582V17.7948H12.6845C12.2983 17.3205 12.0134 16.7719 11.8476 16.1831C11.6817 15.5942 11.6384 14.9776 11.7203 14.3714C11.8022 13.7652 12.0075 13.1821 12.3236 12.6584C12.6398 12.1347 13.0599 11.6813 13.5582 11.3264H13.5793Z" fill="#8F9399"/>
<path d="M4.85263 8.63148V5.12622H0V8.63148H1.07895V17.7946H2.15789V8.63148H4.85263Z" fill="#8F9399"/>
<path d="M12.1368 5.12622H5.66309V8.63148H12.1368V5.12622Z" fill="#8F9399"/>
<path d="M19.668 17.7843L18.8049 16.8948C19.2225 16.3412 19.4496 15.6672 19.4522 14.9738C19.4603 14.2342 19.218 13.5135 18.7648 12.929C18.3116 12.3445 17.6741 11.9303 16.9558 11.7539C16.2375 11.5774 15.4806 11.649 14.8081 11.957C14.1356 12.265 13.587 12.7913 13.2514 13.4504C12.9159 14.1096 12.813 14.8628 12.9595 15.5878C13.1061 16.3128 13.4935 16.967 14.0587 17.444C14.624 17.921 15.334 18.1929 16.0733 18.2155C16.8126 18.2382 17.5378 18.0101 18.1312 17.5685L18.9943 18.4369L19.1891 18.6317C19.2328 18.6769 19.2851 18.7128 19.343 18.7374C19.4008 18.7619 19.4631 18.7746 19.5259 18.7746C19.5888 18.7746 19.651 18.7619 19.7089 18.7374C19.7667 18.7128 19.8191 18.6769 19.8628 18.6317C19.9515 18.542 20.0012 18.421 20.0012 18.2948C20.0012 18.1687 19.9515 18.0476 19.8628 17.958L19.668 17.7843ZM16.1786 17.258C15.7245 17.258 15.2806 17.1233 14.9031 16.8709C14.5256 16.6185 14.2315 16.2598 14.058 15.8402C13.8845 15.4206 13.8393 14.9589 13.9283 14.5136C14.0173 14.0683 14.2363 13.6595 14.5578 13.3388C14.8792 13.018 15.2886 12.7999 15.7341 12.712C16.1796 12.624 16.6411 12.6702 17.0604 12.8447C17.4796 13.0192 17.8376 13.3141 18.0891 13.6922C18.3406 14.0702 18.4743 14.5144 18.4733 14.9685C18.474 15.2705 18.4149 15.5696 18.2995 15.8487C18.1841 16.1278 18.0147 16.3813 17.8009 16.5945C17.5871 16.8078 17.3332 16.9767 17.0539 17.0915C16.7746 17.2063 16.4753 17.2646 16.1733 17.2632L16.1786 17.258Z" fill="#8F9399"/>
</g>
<defs>
<clipPath id="clip0_450_2943">
<rect width="20" height="18.7947" fill="white"/>
</clipPath>
</defs>
</svg>
