<svg width="20" height="20" viewBox="0 0 20 20" fill="none" xmlns="http://www.w3.org/2000/svg">
<g clip-path="url(#clip0_296_5822)">
<path d="M3.23378 6.60156H0V13.4522H3.23378V6.60156Z" fill="#8F9399"/>
<path d="M4.46582 13.4521V6.60144L13.5781 2V18.3955L4.46582 13.4521Z" fill="#8F9399"/>
<path d="M19.3781 10.6426H16.0125C15.8486 10.6426 15.6914 10.5775 15.5756 10.4616C15.4597 10.3457 15.3945 10.1885 15.3945 10.0247C15.3945 9.86078 15.4597 9.7036 15.5756 9.58772C15.6914 9.47184 15.8486 9.40674 16.0125 9.40674H19.3781C19.542 9.40674 19.6991 9.47184 19.815 9.58772C19.9309 9.7036 19.996 9.86078 19.996 10.0247C19.996 10.1885 19.9309 10.3457 19.815 10.4616C19.6991 10.5775 19.542 10.6426 19.3781 10.6426Z" fill="#8F9399"/>
<path d="M16.0127 7.86604C15.8826 7.86548 15.7562 7.8239 15.6511 7.74722C15.5461 7.67054 15.4678 7.56266 15.4277 7.43896C15.3875 7.31526 15.3874 7.18206 15.4274 7.05829C15.4673 6.93453 15.5453 6.82652 15.6502 6.74966L18.6945 4.52926C18.8271 4.44664 18.986 4.41732 19.1394 4.44719C19.2928 4.47707 19.4292 4.56393 19.5211 4.69028C19.613 4.81663 19.6536 4.9731 19.6347 5.1282C19.6159 5.28329 19.539 5.4255 19.4195 5.52619L16.3753 7.74656C16.2701 7.82364 16.1431 7.86548 16.0127 7.86604V7.86604Z" fill="#8F9399"/>
<path d="M19.0485 15.6436C18.9181 15.643 18.7912 15.6012 18.686 15.5241L15.6417 13.3037C15.5697 13.2589 15.5077 13.1996 15.4596 13.1297C15.4114 13.0598 15.3782 12.9807 15.362 12.8974C15.3458 12.8141 15.3468 12.7284 15.3652 12.6455C15.3836 12.5627 15.4188 12.4845 15.4687 12.4159C15.5186 12.3472 15.5822 12.2896 15.6554 12.2466C15.7285 12.2036 15.8098 12.1761 15.894 12.1659C15.9783 12.1557 16.0637 12.1629 16.1451 12.1871C16.2264 12.2114 16.3018 12.2521 16.3667 12.3068L19.411 14.5272C19.5159 14.6041 19.5939 14.7121 19.6338 14.8358C19.6738 14.9596 19.6737 15.0928 19.6335 15.2165C19.5934 15.3402 19.5152 15.4481 19.4102 15.5248C19.3051 15.6014 19.1786 15.643 19.0485 15.6436V15.6436Z" fill="#8F9399"/>
</g>
<defs>
<clipPath id="clip0_296_5822">
<rect width="20" height="16.3955" fill="white" transform="translate(0 2)"/>
</clipPath>
</defs>
</svg>
