<svg width="20" height="20" viewBox="0 0 20 20" fill="none" xmlns="http://www.w3.org/2000/svg">
<g clip-path="url(#clip0_450_2901)">
<path d="M7.1416 13.25V14.5375H12.8541V13.25C11.959 13.6646 10.9843 13.8794 9.99784 13.8794C9.01136 13.8794 8.03672 13.6646 7.1416 13.25V13.25Z" fill="#8F9399"/>
<path d="M12.0333 17.5416H7.97493C7.75392 17.5416 7.54192 17.4538 7.38564 17.2975C7.22936 17.1413 7.1416 16.9293 7.1416 16.7083V15.325H12.8583V16.7083C12.8583 16.9279 12.7716 17.1386 12.6172 17.2946C12.4627 17.4506 12.2528 17.5394 12.0333 17.5416V17.5416Z" fill="#8F9399"/>
<path d="M11.2375 18.2542C11.192 18.5492 11.0425 18.8182 10.8159 19.0126C10.5893 19.2069 10.3006 19.3137 10.0021 19.3137C9.70353 19.3137 9.41485 19.2069 9.18825 19.0126C8.96166 18.8182 8.81207 18.5492 8.7666 18.2542" fill="#8F9399"/>
<path d="M9.99961 1.00415C8.81127 1.00415 7.64956 1.35654 6.66149 2.01675C5.67343 2.67695 4.90332 3.61533 4.44856 4.71321C3.99381 5.81109 3.87483 7.01915 4.10666 8.18466C4.3385 9.35016 4.91077 10.4207 5.75105 11.261C6.59133 12.1013 7.66193 12.6735 8.82743 12.9054C9.99293 13.1372 11.2009 13.0182 12.2988 12.5635C13.3967 12.1087 14.3351 11.3386 14.9953 10.3505C15.6555 9.36247 16.0079 8.20081 16.0079 7.01248C16.0079 5.41897 15.3748 3.89073 14.2481 2.76395C13.1213 1.63717 11.5931 1.00415 9.99961 1.00415ZM10.7537 10.5875C10.7553 10.6187 10.7506 10.6499 10.7399 10.6792C10.7291 10.7086 10.7126 10.7355 10.6912 10.7583C10.645 10.8017 10.5839 10.8256 10.5204 10.825H9.47461C9.4443 10.8264 9.41397 10.8211 9.3859 10.8096C9.35783 10.7981 9.33265 10.7806 9.31205 10.7583C9.29072 10.7355 9.27426 10.7086 9.26353 10.6792C9.25279 10.6499 9.24804 10.6187 9.24959 10.5875V9.69581C9.24804 9.6646 9.25279 9.6334 9.26353 9.60405C9.27426 9.57471 9.29072 9.54783 9.31205 9.52499C9.33293 9.50279 9.35807 9.48506 9.386 9.47288C9.41394 9.4607 9.44413 9.45435 9.47461 9.45416H10.5204C10.5839 9.457 10.6444 9.48206 10.6912 9.52499C10.7126 9.54783 10.7291 9.57471 10.7399 9.60405C10.7506 9.6334 10.7553 9.6646 10.7537 9.69581V10.5875ZM10.7537 8.81665C10.7559 8.87956 10.7335 8.94084 10.6912 8.98747C10.6436 9.028 10.583 9.05018 10.5204 9.04998H9.47461C9.4447 9.05112 9.41485 9.04618 9.38692 9.03544C9.35898 9.02469 9.33349 9.00836 9.31205 8.98747C9.26976 8.94084 9.24738 8.87956 9.24959 8.81665V4.99999C9.24863 4.93729 9.27085 4.87643 9.31205 4.82915C9.33313 4.80751 9.35846 4.79044 9.38641 4.77897C9.41436 4.7675 9.4444 4.7619 9.47461 4.76249H10.5204C10.5835 4.76382 10.644 4.78743 10.6912 4.82915C10.7324 4.87643 10.7547 4.93729 10.7537 4.99999V8.81665Z" fill="#8F9399"/>
<path d="M19.375 7.6333H18.2041C18.0383 7.6333 17.8793 7.56746 17.7621 7.45025C17.6449 7.33304 17.5791 7.17406 17.5791 7.0083C17.5791 6.84254 17.6449 6.68359 17.7621 6.56638C17.8793 6.44917 18.0383 6.3833 18.2041 6.3833H19.375C19.5407 6.3833 19.6996 6.44917 19.8169 6.56638C19.9341 6.68359 20 6.84254 20 7.0083C20 7.17406 19.9341 7.33304 19.8169 7.45025C19.6996 7.56746 19.5407 7.6333 19.375 7.6333V7.6333Z" fill="#8F9399"/>
<path d="M18.3919 11.8375C18.2962 11.8377 18.2019 11.8149 18.1169 11.7709L17.0669 11.25C16.9183 11.1766 16.8049 11.047 16.7517 10.89C16.6986 10.7329 16.71 10.5612 16.7835 10.4125C16.857 10.2639 16.9865 10.1506 17.1436 10.0974C17.3006 10.0443 17.4724 10.0557 17.621 10.1292L18.671 10.65C18.7989 10.712 18.9019 10.8156 18.9629 10.9438C19.024 11.0721 19.0396 11.2173 19.0071 11.3556C18.9746 11.4939 18.8959 11.617 18.7841 11.7046C18.6723 11.7922 18.5339 11.8391 18.3919 11.8375V11.8375Z" fill="#8F9399"/>
<path d="M17.3463 3.97501C17.2046 3.97559 17.067 3.92801 16.9559 3.84007C16.8448 3.75213 16.7668 3.62906 16.7349 3.49102C16.7029 3.35298 16.7188 3.20818 16.7799 3.08036C16.8411 2.95253 16.9438 2.84928 17.0714 2.78752L18.1214 2.26668C18.195 2.2303 18.275 2.20874 18.3569 2.20328C18.4388 2.19783 18.521 2.20858 18.5988 2.23489C18.6765 2.2612 18.7484 2.30257 18.8102 2.35663C18.8719 2.4107 18.9225 2.47642 18.9589 2.55001C18.9953 2.62361 19.0168 2.70364 19.0223 2.78556C19.0277 2.86748 19.0169 2.94967 18.9906 3.02744C18.9643 3.10521 18.9229 3.17704 18.8689 3.23882C18.8148 3.3006 18.7491 3.35111 18.6755 3.38749L17.6255 3.90833C17.539 3.95235 17.4434 3.97521 17.3463 3.97501V3.97501Z" fill="#8F9399"/>
<path d="M1.79993 7.6333H0.625C0.45924 7.6333 0.300214 7.56746 0.183004 7.45025C0.0657935 7.33304 0 7.17406 0 7.0083C0 6.84254 0.0657935 6.68359 0.183004 6.56638C0.300214 6.44917 0.45924 6.3833 0.625 6.3833H1.79993C1.96569 6.3833 2.12471 6.44917 2.24192 6.56638C2.35913 6.68359 2.42493 6.84254 2.42493 7.0083C2.42493 7.17406 2.35913 7.33304 2.24192 7.45025C2.12471 7.56746 1.96569 7.6333 1.79993 7.6333V7.6333Z" fill="#8F9399"/>
<path d="M1.60838 11.8375C1.46633 11.8391 1.32797 11.7922 1.21613 11.7046C1.1043 11.617 1.02566 11.4939 0.993149 11.3556C0.960639 11.2173 0.97621 11.0721 1.0373 10.9438C1.09839 10.8156 1.20139 10.7119 1.32925 10.65L2.37926 10.1292C2.45285 10.0928 2.53283 10.0713 2.61475 10.0658C2.69667 10.0604 2.77889 10.0711 2.85665 10.0974C2.93442 10.1237 3.00626 10.1651 3.06804 10.2192C3.12982 10.2732 3.18037 10.3389 3.21676 10.4125C3.25315 10.4861 3.27468 10.5662 3.28014 10.6481C3.28559 10.73 3.27481 10.8122 3.2485 10.89C3.22219 10.9677 3.1808 11.0396 3.12674 11.1013C3.07267 11.1631 3.00695 11.2137 2.93336 11.25L1.88335 11.7709C1.79836 11.8149 1.70407 11.8377 1.60838 11.8375Z" fill="#8F9399"/>
<path d="M2.65868 3.97499C2.56166 3.97519 2.46601 3.95233 2.37955 3.90831L1.32954 3.38747C1.18091 3.31399 1.06753 3.18448 1.0144 3.02742C0.961262 2.87035 0.97275 2.69863 1.04624 2.54999C1.11972 2.40136 1.24918 2.28801 1.40624 2.23487C1.5633 2.18174 1.73501 2.19318 1.88364 2.26666L2.93365 2.7875C3.06117 2.84926 3.16396 2.95251 3.22509 3.08034C3.28622 3.20816 3.30212 3.35297 3.27015 3.491C3.23819 3.62904 3.16031 3.75211 3.04921 3.84005C2.93811 3.92799 2.80037 3.97557 2.65868 3.97499Z" fill="#8F9399"/>
<path d="M9.99957 12.6707L5.17871 10.5874C5.17871 10.5874 7.14119 12.8499 7.14119 14.3791V14.5291H12.862V14.3791C12.862 12.8499 14.8245 10.5874 14.8245 10.5874L9.99957 12.6707Z" fill="#8F9399"/>
</g>
<defs>
<clipPath id="clip0_450_2901">
<rect width="20" height="18.4833" fill="white" transform="translate(0 1)"/>
</clipPath>
</defs>
</svg>
