<svg width="20" height="20" viewBox="0 0 20 20" fill="none" xmlns="http://www.w3.org/2000/svg">
<g clip-path="url(#clip0_450_2922)">
<path d="M7.89707 11.6661L8.51874 9.63306H7.27539L7.89707 11.6661Z" fill="#8F9399"/>
<path d="M12.1029 11.6661L12.7245 9.63306H11.4756L12.1029 11.6661Z" fill="#8F9399"/>
<path d="M9.98011 1.89868C8.37702 1.89868 6.80999 2.37413 5.47715 3.26487C4.1443 4.15562 3.10558 5.42164 2.49235 6.90281C1.87913 8.38398 1.71895 10.0137 2.0321 11.586C2.34526 13.1582 3.11764 14.6022 4.25159 15.7354C5.38554 16.8685 6.83003 17.6399 8.40246 17.952C9.97488 18.264 11.6046 18.1028 13.0854 17.4885C14.5661 16.8743 15.8313 15.8347 16.7212 14.5012C17.611 13.1678 18.0854 11.6003 18.0843 9.99723C18.0813 7.8493 17.2263 5.79029 15.707 4.27199C14.1876 2.7537 12.128 1.90016 9.98011 1.89868V1.89868ZM14.9199 9.63321H13.9006L12.646 13.7441C12.6121 13.8604 12.5413 13.9626 12.4443 14.0353C12.3474 14.108 12.2296 14.1473 12.1084 14.1473C11.9872 14.1473 11.8692 14.108 11.7723 14.0353C11.6754 13.9626 11.6047 13.8604 11.5707 13.7441L10.3162 9.63321H9.70008L8.43992 13.7441C8.40397 13.8631 8.32939 13.9669 8.22798 14.0389C8.12658 14.1108 8.00411 14.1471 7.87986 14.1417C7.7556 14.1471 7.63314 14.1108 7.53173 14.0389C7.43032 13.9669 7.35574 13.8631 7.31979 13.7441L6.05964 9.63321H5.01225C4.86371 9.63321 4.72129 9.57419 4.61626 9.46916C4.51123 9.36413 4.45218 9.22168 4.45218 9.07314C4.45218 8.9246 4.51123 8.78216 4.61626 8.67712C4.72129 8.57209 4.86371 8.51307 5.01225 8.51307H5.71794L5.21954 6.87208C5.17749 6.73097 5.19274 6.57896 5.26193 6.44899C5.33111 6.31901 5.4486 6.22153 5.58913 6.1776C5.73099 6.13386 5.88447 6.14822 6.01575 6.21753C6.14702 6.28684 6.24534 6.40542 6.28922 6.54723L6.88853 8.51307H8.85997L9.45928 6.54723C9.49524 6.42818 9.56982 6.32447 9.67122 6.25247C9.77263 6.18047 9.8951 6.14426 10.0194 6.14957C10.1389 6.15041 10.2549 6.18947 10.3507 6.26101C10.4464 6.33256 10.5167 6.43286 10.5514 6.54723L11.1563 8.51307H13.0829L13.6878 6.54723C13.7318 6.4067 13.8291 6.2891 13.9591 6.21992C14.0891 6.15074 14.2412 6.13556 14.3823 6.1776C14.5239 6.22037 14.6428 6.31738 14.7131 6.44748C14.7834 6.57759 14.7993 6.73023 14.7575 6.87208L14.2534 8.51307H14.959C15.1076 8.51307 15.2501 8.57209 15.3552 8.67712C15.4602 8.78216 15.5191 8.9246 15.5191 9.07314C15.5191 9.22168 15.4602 9.36413 15.3552 9.46916C15.2501 9.57419 15.1076 9.63321 14.959 9.63321H14.9199Z" fill="#8F9399"/>
<path d="M9.98009 1.56776e-06C8.00125 -0.0011061 6.06653 0.584755 4.42072 1.68345C2.77491 2.78215 1.49198 4.34429 0.734199 6.17229C-0.0235833 8.0003 -0.222178 10.012 0.163603 11.9529C0.549385 13.8937 1.5022 15.6766 2.90145 17.0759C4.30071 18.4751 6.0835 19.4279 8.02437 19.8137C9.96525 20.1995 11.977 20.0009 13.805 19.2431C15.633 18.4853 17.1952 17.2024 18.2939 15.5566C19.3926 13.9108 19.9785 11.976 19.9773 9.99719C19.9759 7.34622 18.922 4.80427 17.0475 2.92976C15.173 1.05524 12.6311 0.00148546 9.98009 1.56776e-06V1.56776e-06ZM9.98009 18.8015C8.23878 18.8015 6.53652 18.2851 5.08867 17.3177C3.64081 16.3503 2.51237 14.9752 1.84599 13.3664C1.17962 11.7577 1.00528 9.98745 1.345 8.27959C1.68471 6.57173 2.52324 5.00293 3.75454 3.77164C4.98584 2.54034 6.55457 1.70184 8.26243 1.36212C9.97029 1.02241 11.7406 1.19675 13.3494 1.86312C14.9582 2.52949 16.3332 3.65798 17.3006 5.10583C18.268 6.55368 18.7843 8.25587 18.7843 9.99719C18.7814 12.3313 17.8528 14.569 16.2024 16.2195C14.5519 17.87 12.3142 18.7985 9.98009 18.8015V18.8015Z" fill="#8F9399"/>
</g>
<defs>
<clipPath id="clip0_450_2922">
<rect width="20" height="20" fill="white"/>
</clipPath>
</defs>
</svg>
