<svg width="20" height="20" viewBox="0 0 20 20" fill="none" xmlns="http://www.w3.org/2000/svg">
<g clip-path="url(#clip0_296_5816)">
<path d="M7.89088 11.0522V6.47168H1.5907C1.16917 6.47278 0.765207 6.64072 0.467136 6.93879C0.169065 7.23686 0.00109918 7.64082 0 8.06236V11.0438L7.89088 11.0522Z" fill="#8F9399"/>
<path d="M7.89121 12.3013H-0.0205078V18.3392C-0.0205093 18.7614 0.147015 19.1665 0.445205 19.4654C0.743394 19.7644 1.14794 19.9329 1.57019 19.934H7.87048L7.89121 12.3013Z" fill="#8F9399"/>
<path d="M10.8552 6.47998H9.13965V19.9341H10.8552V6.47998Z" fill="#8F9399"/>
<path d="M12.1045 11.0521H19.9954V8.07063C19.9943 7.6491 19.8263 7.24516 19.5282 6.94709C19.2302 6.64902 18.8262 6.48108 18.4047 6.47998H12.1045V11.0521Z" fill="#8F9399"/>
<path d="M12.1045 12.3013V19.934H18.4047C18.8269 19.9329 19.2316 19.7644 19.5298 19.4654C19.828 19.1665 19.9954 18.7614 19.9954 18.3392V12.3013H12.1045Z" fill="#8F9399"/>
<path d="M4.776 1H7.16617C7.46256 1 7.75604 1.05838 8.02986 1.1718C8.30368 1.28522 8.55248 1.45146 8.76206 1.66104C8.97163 1.87061 9.13788 2.11941 9.2513 2.39324C9.36472 2.66706 9.4231 2.96054 9.4231 3.25692V5.06829H6.84554C6.16856 5.06829 5.5193 4.79936 5.0406 4.32066C4.5619 3.84196 4.29297 3.1927 4.29297 2.51572V1.48303C4.29297 1.35492 4.34386 1.23206 4.43445 1.14148C4.52503 1.05089 4.64789 1 4.776 1V1Z" fill="#8F9399"/>
<path d="M13.1506 5.06836H10.5731V3.25698C10.5731 2.6584 10.8108 2.08435 11.2341 1.66109C11.6573 1.23784 12.2314 1.00006 12.83 1.00006H15.2201C15.3482 1.00006 15.4711 1.05096 15.5617 1.14155C15.6523 1.23213 15.7031 1.355 15.7031 1.48311V2.51995C15.702 3.19622 15.4327 3.84439 14.9541 4.32219C14.4755 4.79999 13.8269 5.06836 13.1506 5.06836V5.06836Z" fill="#8F9399"/>
</g>
<defs>
<clipPath id="clip0_296_5816">
<rect width="20" height="18.934" fill="white" transform="translate(0 1)"/>
</clipPath>
</defs>
</svg>
