<svg xmlns="http://www.w3.org/2000/svg" viewBox="0 0 30 30"><defs><style>.cls-1{fill:#a7acb2;}.cls-2{fill:none;}</style></defs><g id="레이어_2" data-name="레이어 2"><g id="레이어_1-2" data-name="레이어 1"><path class="cls-1" d="M25.36,14.09a4.35,4.35,0,0,0-1.71-3.46c-.55-2.14-2.81-3.81-5.81-4.46a2.85,2.85,0,0,0-5.68,0c-3,.65-5.26,2.32-5.81,4.46a4.35,4.35,0,0,0,.22,7.07l2,8.41a.49.49,0,0,0,.48.39H20.93a.49.49,0,0,0,.48-.39l2-8.41A4.35,4.35,0,0,0,25.36,14.09ZM9.47,25.5,7.73,18.23A4.07,4.07,0,0,0,9,18.44a4.27,4.27,0,0,0,2.47-.79l.72,7.85Zm3-7.9a4.23,4.23,0,0,0,5.06,0l-.72,7.9H13.19Zm5.34,7.9.72-7.85a4.27,4.27,0,0,0,2.47.79,4.07,4.07,0,0,0,1.27-.21L20.53,25.5ZM21,17.44a3.35,3.35,0,0,1-2.6-1.26A.58.58,0,0,0,18,16l-.15,0a.5.5,0,0,0-.22.16,3.33,3.33,0,0,1-5.2,0,.83.83,0,0,0-.3-.18.48.48,0,0,0-.5.17,3.35,3.35,0,1,1-4.52-4.84.58.58,0,0,0,.2-.31c.37-1.79,2.36-3.25,5-3.86a2.84,2.84,0,0,0,5.46,0c2.63.61,4.62,2.07,5,3.86a.58.58,0,0,0,.2.31A3.35,3.35,0,0,1,21,17.44ZM13.14,6.37A1.86,1.86,0,1,1,15,8.23,1.87,1.87,0,0,1,13.14,6.37Z"/><rect class="cls-2" width="30" height="30"/></g></g></svg>