<svg xmlns="http://www.w3.org/2000/svg" viewBox="0 0 30 30"><defs><style>.cls-1{fill:#fff;}.cls-2{fill:none;}</style></defs><g id="레이어_2" data-name="레이어 2"><g id="레이어_1-2" data-name="레이어 1"><path class="cls-1" d="M25.06,11.52V9.58h0a4.22,4.22,0,0,0-4.18-3.73H16.46l.47-3.41H13.07l.47,3.41H9.17A4.22,4.22,0,0,0,5,9.58h0v1.94H2.29v1H4.94v4.79a3.84,3.84,0,0,0,3.84,3.83H21.22a3.84,3.84,0,0,0,3.84-3.83V12.52h2.65v-1Zm-1,5.79a2.84,2.84,0,0,1-2.84,2.83H8.78a2.84,2.84,0,0,1-2.84-2.83V10.58H24.06ZM9.17,6.85H20.83A3.24,3.24,0,0,1,24,9.58H6A3.24,3.24,0,0,1,9.17,6.85Zm5-3.41h1.58l-.34,2.41h-.9ZM5.44,12Z"/><path class="cls-1" d="M19.43,22.5l-.38.45c-.36.41-1.51,1.84-1.51,2.72a1.89,1.89,0,1,0,3.77,0c0-.88-1.15-2.31-1.5-2.72Zm0,4.06a.89.89,0,0,1-.89-.89,4.47,4.47,0,0,1,.89-1.6,4.56,4.56,0,0,1,.88,1.6A.88.88,0,0,1,19.43,26.56Z"/><path class="cls-1" d="M15,22.5l-.38.45c-.35.41-1.51,1.84-1.51,2.72a1.89,1.89,0,1,0,3.78,0c0-.88-1.16-2.31-1.51-2.72Zm0,4.06a.89.89,0,0,1-.89-.89,4.47,4.47,0,0,1,.89-1.6,4.47,4.47,0,0,1,.89,1.6A.89.89,0,0,1,15,26.56Z"/><path class="cls-1" d="M10.57,22.5l-.38.45c-.35.41-1.5,1.84-1.5,2.72a1.89,1.89,0,1,0,3.77,0c0-.88-1.15-2.31-1.51-2.72Zm0,4.06a.88.88,0,0,1-.88-.89,4.56,4.56,0,0,1,.88-1.6,4.47,4.47,0,0,1,.89,1.6A.89.89,0,0,1,10.57,26.56Z"/><rect class="cls-2" width="30" height="30"/></g></g></svg>