<svg xmlns="http://www.w3.org/2000/svg" viewBox="0 0 30 30"><defs><style>.cls-1{fill:none;}.cls-2{fill:#fff;}</style></defs><g id="레이어_2" data-name="레이어 2"><g id="레이어_1-2" data-name="레이어 1"><rect class="cls-1" width="30" height="30"/><path class="cls-2" d="M15,.06A14.94,14.94,0,1,0,29.94,15,15,15,0,0,0,15,.06Zm0,28.88A13.94,13.94,0,1,1,28.94,15,14,14,0,0,1,15,28.94Z"/><path class="cls-2" d="M15,2A13,13,0,1,0,28,15,13,13,0,0,0,15,2Zm0,25A12,12,0,1,1,27,15,12,12,0,0,1,15,27Z"/><path class="cls-2" d="M23.6,15a5.74,5.74,0,0,0-3.79-5.28l-.08,0,0-.09a2.84,2.84,0,0,0,.12-.81,3,3,0,0,0-3-3,2.8,2.8,0,0,0-1,.18l-.06,0-.05,0a3,3,0,0,0-4.44.48l0,0h-.06a2.76,2.76,0,0,0-.57-.06,3,3,0,0,0-2.42,4.79l0,.07-.06.06A5,5,0,0,0,6.4,15c0,2,0,6.11,3.37,6.11h.36v.1a3,3,0,0,0,3,3,2.8,2.8,0,0,0,1-.18l.06,0,.05,0a3,3,0,0,0,4.44-.48l0,0h.06a2.76,2.76,0,0,0,.57.06,3,3,0,0,0,3-3.06l0-.09,0,0c1.18-1.18,1.17-3.58,1.17-5.17ZM10.65,7.44a1.89,1.89,0,0,1,.69.14.58.58,0,0,0,.19,0A.52.52,0,0,0,12,7.32a1.94,1.94,0,0,1,3.28-.38.53.53,0,0,0,.65.13,2,2,0,0,1,.93-.25,2,2,0,0,1,2,2,2.12,2.12,0,0,1,0,.44l0,.1-.4-.1-.4-.1-.44-.07L17.17,9l-.57-.06-.26,0c-.27,0-.54,0-.87,0s-.76,0-1.13,0h-.18L13.71,9l-.43.07-.41.06a11.6,11.6,0,0,0-2.36.73c-.23.1-.45.21-.71.35s-.42.23-.61.36l-.08.05-.06-.08a1.93,1.93,0,0,1-.36-1.14A2,2,0,0,1,10.65,7.44ZM21.21,21.22a2,2,0,0,1-1.85,1.34,1.9,1.9,0,0,1-.7-.14.58.58,0,0,0-.19,0,.52.52,0,0,0-.47.29,1.94,1.94,0,0,1-3.28.38.53.53,0,0,0-.65-.13,2,2,0,0,1-.93.25,2,2,0,0,1-2-2c0-.07,0-.14,0-.2l.12-.1h.07l.85-.2,1-.21.67-.14.26,0,.78-.11H15c.31,0,.62-.05.93-.05a8.42,8.42,0,0,1,2.47.5,7.86,7.86,0,0,0,2.28.47l.4,0,.16,0Zm.48-1.53-.19.15a1.24,1.24,0,0,1-.41.18,1.74,1.74,0,0,1-.39.05,7,7,0,0,1-2-.43A9.6,9.6,0,0,0,16,19.09a9.08,9.08,0,0,0-1,.06l-.17,0-.77.1-.28.05-.69.14-1.75.39L10.7,20a5.37,5.37,0,0,1-.93.1c-2.15,0-2.33-2.62-2.33-5.07a4.18,4.18,0,0,1,1.93-3.27,7.1,7.1,0,0,1,.73-.48,8.22,8.22,0,0,1,.84-.42,10.48,10.48,0,0,1,2.64-.74,12,12,0,0,1,1.89-.16q.43,0,.84,0l.3,0c.17,0,.34,0,.5.06l.34,0,.44.09.31.08.53.16c2.4.8,3.82,2.51,3.82,4.57v.25C22.56,16.59,22.56,18.81,21.69,19.69Z"/><path class="cls-2" d="M18.47,11.52a.51.51,0,0,0-.36-.15.56.56,0,0,0-.37.15l-6.22,6.22a.53.53,0,0,0,0,.74.53.53,0,0,0,.74,0l6.21-6.22A.51.51,0,0,0,18.47,11.52Z"/><path class="cls-2" d="M21.11,13.14a.51.51,0,0,0-.15-.37.51.51,0,0,0-.74,0l-4.35,4.35a.52.52,0,1,0,.74.73L21,13.5A.49.49,0,0,0,21.11,13.14Z"/><path class="cls-2" d="M21.21,15.72a.51.51,0,0,0-.37.15L19,17.74a.53.53,0,0,0,0,.74.53.53,0,0,0,.74,0l1.86-1.87a.52.52,0,0,0-.37-.89Z"/><path class="cls-2" d="M10,13.24A1.76,1.76,0,1,0,11.79,15,1.76,1.76,0,0,0,10,13.24Zm0,2.48a.72.72,0,1,1,.72-.72A.72.72,0,0,1,10,15.72Z"/><path class="cls-2" d="M13.14,13.66a.5.5,0,0,0,.36-.16l1.87-1.86a.53.53,0,0,0,0-.74.53.53,0,0,0-.74,0l-1.86,1.87a.52.52,0,0,0-.16.37.5.5,0,0,0,.16.36A.52.52,0,0,0,13.14,13.66Z"/></g></g></svg>