<svg xmlns="http://www.w3.org/2000/svg" viewBox="0 0 48 48"><defs><style>.cls-1{fill:#848484;}.cls-2{fill:#fa5858;}</style></defs><g id="레이어_2" data-name="레이어 2"><g id="레이어_1-2" data-name="레이어 1"><path class="cls-1" d="M48,8.67V3.31A3.32,3.32,0,0,0,44.69,0H19.17a3.32,3.32,0,0,0-3.31,3.31V8.67c0,.12,0,.23,0,.35H15.4a3.31,3.31,0,0,0-3.31,3.31v1.36a18,18,0,0,1,3-.49v-.87A.34.34,0,0,1,15.4,12H35.17v6H29a18.83,18.83,0,0,1,2.6,3h7.39v6.05H34.29a18.22,18.22,0,0,1,.49,3h4.16v6.05H34.27a18.63,18.63,0,0,1-1,3H44.69A3.32,3.32,0,0,0,48,35.72V30.37a3.34,3.34,0,0,0-.55-1.83A3.39,3.39,0,0,0,48,26.71V21.35A3.32,3.32,0,0,0,44.69,18h-.5a1.86,1.86,0,0,0,0-.34V12.33a1.86,1.86,0,0,0,0-.34h.5A3.32,3.32,0,0,0,48,8.67ZM19.17,9a.35.35,0,0,1-.34-.35V3.31A.34.34,0,0,1,19.17,3H38.94V9Zm22.09,8.67a.34.34,0,0,1-.34.34H38.14V12h2.78a.34.34,0,0,1,.34.34Zm3.77,18a.35.35,0,0,1-.34.35H41.91V30h2.78a.35.35,0,0,1,.34.35ZM44.69,21a.35.35,0,0,1,.34.35v5.36a.34.34,0,0,1-.34.34H41.91V21ZM41.91,9V3h2.78a.34.34,0,0,1,.34.34V8.67a.35.35,0,0,1-.34.35Z"/><path class="cls-2" d="M16.49,18A13.53,13.53,0,1,1,3,31.51,13.54,13.54,0,0,1,16.49,18m0-3A16.5,16.5,0,1,0,33,31.51,16.49,16.49,0,0,0,16.49,15Z"/><path class="cls-2" d="M17.5,23.31a.55.55,0,0,1,.6.6v.48a7,7,0,0,1,1.72.51,5.32,5.32,0,0,1,1.34.9A4.48,4.48,0,0,1,22,27a3.69,3.69,0,0,1,.3,1.42v.65a.45.45,0,0,1-.19.35.75.75,0,0,1-.49.14H19.39a.78.78,0,0,1-.5-.14.37.37,0,0,1-.2-.35v-.28a1.88,1.88,0,0,0-.15-.71,1.42,1.42,0,0,0-.44-.53v3c.75.25,1.41.48,2,.7a6.21,6.21,0,0,1,1.43.76,3.34,3.34,0,0,1,.88,1.12,4.47,4.47,0,0,1,.29,1.67,3.25,3.25,0,0,1-.33,1.45,4.14,4.14,0,0,1-.93,1.19,5.76,5.76,0,0,1-1.43.88,8,8,0,0,1-1.89.47v.26a.55.55,0,0,1-.6.6h-2a.54.54,0,0,1-.42-.16A.67.67,0,0,1,15,39.1v-.26a6.92,6.92,0,0,1-1.87-.49,5.59,5.59,0,0,1-1.46-.92,3.65,3.65,0,0,1-1-1.24,3.2,3.2,0,0,1-.35-1.51v-.62a.43.43,0,0,1,.18-.36.85.85,0,0,1,.5-.13h2.43a1.11,1.11,0,0,1,.52.13.48.48,0,0,1,.2.36v.29a1.32,1.32,0,0,0,.22.77,1.24,1.24,0,0,0,.6.55V32.39a8.68,8.68,0,0,1-.88-.33,9.09,9.09,0,0,1-.93-.38,5,5,0,0,1-1.93-1.5,2.82,2.82,0,0,1-.56-2A4.73,4.73,0,0,1,11,26.62a3.22,3.22,0,0,1,.75-1.17,3.8,3.8,0,0,1,1.3-.81A6.75,6.75,0,0,1,15,24.32v-.41a.67.67,0,0,1,.17-.44.54.54,0,0,1,.42-.16Zm-3.06,5.05a.85.85,0,0,0,.18.48,1.61,1.61,0,0,0,.33.42V27.47A.68.68,0,0,0,14.44,28.36Zm4.45,6.25a.85.85,0,0,0-.2-.53,3.35,3.35,0,0,0-.59-.44v2a1.33,1.33,0,0,0,.59-.42A1,1,0,0,0,18.89,34.61Z"/></g></g></svg>