<svg xmlns="http://www.w3.org/2000/svg" viewBox="0 0 48 48"><defs><style>.cls-1{fill:#848484;}.cls-2{fill:#fa5858;}</style></defs><g id="레이어_2" data-name="레이어 2"><g id="레이어_1-2" data-name="레이어 1"><polygon class="cls-1" points="24 10.29 27.43 10.29 27.43 3.43 27.43 0 24 0 20.57 0 20.57 3.43 24 3.43 24 10.29"/><polygon class="cls-1" points="24 17.14 27.43 17.14 27.43 13.71 24 13.71 20.57 13.71 20.57 17.14 20.57 20.57 10.29 20.57 10.29 24 17.14 24 17.14 27.43 20.57 27.43 20.57 24 24 24 24 20.57 24 17.14"/><path class="cls-2" d="M13.71,17.14h3.43V0H0V17.14H13.71ZM3.43,3.43H13.71V13.71H3.43Z"/><path class="cls-1" d="M44.57,0H30.86V17.14H48V0Zm0,13.71H34.29V3.43H44.57Z"/><rect class="cls-2" x="6.86" y="6.86" width="3.43" height="3.43"/><path class="cls-2" d="M34.29,30.86H30.86V48H48V30.86H34.29ZM44.57,44.57H34.29V34.29H44.57Z"/><path class="cls-1" d="M3.43,30.86H0V48H17.14V30.86H3.43ZM13.71,44.57H3.43V34.29H13.71Z"/><rect class="cls-2" x="37.71" y="37.71" width="3.43" height="3.43"/><rect class="cls-1" x="3.43" y="24" width="6.86" height="3.43"/><rect class="cls-1" y="20.57" width="3.43" height="3.43"/><rect class="cls-1" x="20.57" y="44.57" width="3.43" height="3.43"/><polygon class="cls-1" points="30.86 20.57 27.43 20.57 27.43 24 24 24 24 27.43 24 30.86 20.57 30.86 20.57 41.14 24 41.14 24 44.57 27.43 44.57 27.43 37.71 24 37.71 24 34.29 27.43 34.29 27.43 27.43 37.71 27.43 37.71 24 30.86 24 30.86 20.57"/><rect class="cls-1" x="37.71" y="20.57" width="10.29" height="3.43"/></g></g></svg>