<svg xmlns="http://www.w3.org/2000/svg" viewBox="0 0 48 48"><defs><style>.cls-1{fill:#848484;}.cls-2{fill:#fa5858;}</style></defs><g id="레이어_2" data-name="레이어 2"><g id="레이어_1-2" data-name="레이어 1"><path class="cls-1" d="M21.75,35.91H8.64a2.17,2.17,0,0,1-2.17-2.17V19.3a5,5,0,0,0,1.89-1.13,4.89,4.89,0,0,0,6.86,0,4.88,4.88,0,0,0,6.86,0,4.86,4.86,0,0,0,6.85,0,4.89,4.89,0,0,0,6.86,0,5,5,0,0,0,1.9,1.13V22a13.16,13.16,0,0,1,3,1.17V19.32a4.93,4.93,0,0,0,3.46-4.7L41.69,3.68A4.71,4.71,0,0,0,37.08,0h-30A4.71,4.71,0,0,0,2.46,3.68L0,14.29l0,.33a4.94,4.94,0,0,0,3.47,4.7V33.74a5.17,5.17,0,0,0,5.17,5.18H22.46A12.47,12.47,0,0,1,21.75,35.91ZM7.07,3H8.61L6.88,14.4l0,.22A1.93,1.93,0,0,1,3,14.77L5.39,4.35A1.71,1.71,0,0,1,7.07,3Zm30,0a1.71,1.71,0,0,1,1.68,1.34l2.39,10.42a1.93,1.93,0,0,1-3.85-.15L35.54,3ZM34.29,14.72a1.93,1.93,0,0,1-3.85-.1L29.55,3h3Zm-6.86-.05a1.93,1.93,0,0,1-3.85-.05V3h3Zm-6.85-.05a1.93,1.93,0,0,1-3.86.05L17.61,3h3Zm-6.86-.11v.11a1.93,1.93,0,0,1-3.86.1L11.65,3H14.6Z"/><path class="cls-2" d="M47.56,45.43l-4.64-4.66a10.58,10.58,0,1,0-2.13,2.13l4.65,4.66a1.5,1.5,0,1,0,2.12-2.13ZM27,34.48A7.51,7.51,0,1,1,34.52,42,7.53,7.53,0,0,1,27,34.48Z"/></g></g></svg>