<svg xmlns="http://www.w3.org/2000/svg" viewBox="0 0 628.79 120.01"><defs><style>.cls-1{fill:#7c40e7;}.cls-2{fill:#7866f1;}.cls-3{fill:#7679f5;}.cls-4{fill:#748cfa;}.cls-5{fill:#729fff;}.cls-6{fill:#333;}</style></defs><g id="레이어_2" data-name="레이어 2"><g id="레이어_1-2" data-name="레이어 1"><circle class="cls-1" cx="47.73" cy="7.81" r="7.81"/><circle class="cls-1" cx="47.73" cy="34.67" r="7.81"/><circle class="cls-2" cx="26.24" cy="7.81" r="6.76"/><circle class="cls-2" cx="90.7" cy="7.81" r="6.76"/><circle class="cls-2" cx="47.73" cy="61.53" r="6.76"/><circle class="cls-3" cx="47.73" cy="88.4" r="6.76"/><circle class="cls-1" cx="69.22" cy="7.81" r="7.81"/><circle class="cls-1" cx="69.22" cy="34.67" r="7.81"/><circle class="cls-2" cx="69.22" cy="61.53" r="6.76"/><circle class="cls-3" cx="69.22" cy="88.4" r="6.76"/><circle class="cls-3" cx="112.19" cy="7.81" r="4.75"/><circle class="cls-2" cx="90.7" cy="34.67" r="6.76"/><circle class="cls-3" cx="112.19" cy="34.67" r="4.75"/><circle class="cls-3" cx="4.75" cy="7.81" r="4.75"/><circle class="cls-3" cx="4.75" cy="34.67" r="4.75"/><circle class="cls-4" cx="47.73" cy="115.26" r="4.75"/><circle class="cls-2" cx="26.24" cy="34.67" r="6.76"/><circle class="cls-4" cx="69.22" cy="115.26" r="4.75"/><circle class="cls-5" cx="90.7" cy="61.53" r="2.63"/><circle class="cls-5" cx="112.19" cy="61.53" r="2.63"/><circle class="cls-5" cx="90.7" cy="88.4" r="2.63"/><circle class="cls-5" cx="112.19" cy="88.4" r="2.63"/><circle class="cls-5" cx="90.7" cy="115.26" r="2.63"/><circle class="cls-5" cx="112.19" cy="115.26" r="2.63"/><circle class="cls-5" cx="26.24" cy="61.53" r="2.63"/><circle class="cls-5" cx="4.75" cy="61.53" r="2.63"/><circle class="cls-5" cx="26.24" cy="88.4" r="2.63"/><circle class="cls-5" cx="4.75" cy="88.4" r="2.63"/><circle class="cls-5" cx="26.24" cy="115.26" r="2.63"/><circle class="cls-5" cx="4.75" cy="115.26" r="2.63"/><path class="cls-6" d="M213.25,35.29h-22v63.8H173.11V35.29h-22V20.91h62.14Z"/><path class="cls-6" d="M240.67,34.86V53.11h24.58V66.52H240.67V85.14h32.09v14H222.42V20.91h50.34v14Z"/><path class="cls-6" d="M347.88,99.09H331.46q-4.56,0-6.54-3.43l-13-22.7a5.28,5.28,0,0,0-5.26-2.79h-4.61V99.09H283.92V20.91h25.43a51.93,51.93,0,0,1,14.47,1.75,27.21,27.21,0,0,1,9.76,4.85,18.43,18.43,0,0,1,5.5,7.35,24.3,24.3,0,0,1,1.72,9.23,24.74,24.74,0,0,1-1,7.19,22.13,22.13,0,0,1-3,6.25,23,23,0,0,1-4.92,5.13,26.08,26.08,0,0,1-6.73,3.7,16.68,16.68,0,0,1,3.33,2.28,16.45,16.45,0,0,1,2.79,3.25ZM309.35,57.67a18.6,18.6,0,0,0,6.31-.94,11.49,11.49,0,0,0,4.27-2.6,10,10,0,0,0,2.41-3.89,15,15,0,0,0,.75-4.81,10.11,10.11,0,0,0-3.35-8q-3.36-2.9-10.39-2.89h-7.29V57.67Z"/><path class="cls-6" d="M424.62,99.09H410.56a6.07,6.07,0,0,1-3.81-1.1,6.93,6.93,0,0,1-2.2-2.81l-4.62-13.63H370.2l-4.61,13.63a6.53,6.53,0,0,1-2.12,2.71,5.94,5.94,0,0,1-3.78,1.2H345.52l30.26-78.18h18.57ZM395.8,69.21l-7.24-21.42q-.81-2-1.72-4.8T385,37c-.53,2.18-1.11,4.2-1.71,6.06s-1.18,3.47-1.72,4.83l-7.19,21.31Z"/><path class="cls-6" d="M479.35,35.29h-22v63.8H439.21V35.29h-22V20.91h62.14Z"/><path class="cls-6" d="M544.71,35.29h-22v63.8H504.57V35.29h-22V20.91h62.14Z"/><path class="cls-6" d="M628.79,60a42,42,0,0,1-2.92,15.77,38,38,0,0,1-8.24,12.69,37.56,37.56,0,0,1-12.8,8.45,46.66,46.66,0,0,1-33.24,0,37.29,37.29,0,0,1-21.11-21.14A42,42,0,0,1,547.55,60a42,42,0,0,1,2.93-15.78,37.23,37.23,0,0,1,8.26-12.66,38.17,38.17,0,0,1,12.85-8.43,43.71,43.71,0,0,1,16.64-3.06,43.1,43.1,0,0,1,16.6,3.09,38.3,38.3,0,0,1,12.8,8.45,37.83,37.83,0,0,1,8.24,12.66A41.91,41.91,0,0,1,628.79,60Zm-18.56,0a33.82,33.82,0,0,0-1.51-10.44,22,22,0,0,0-4.32-7.86,18.56,18.56,0,0,0-6.89-4.94A23.84,23.84,0,0,0,588.23,35a24.2,24.2,0,0,0-9.37,1.72,18.59,18.59,0,0,0-6.92,4.94,22,22,0,0,0-4.32,7.86A33.83,33.83,0,0,0,566.12,60a34.07,34.07,0,0,0,1.5,10.49,22.11,22.11,0,0,0,4.32,7.86,18.41,18.41,0,0,0,6.92,4.91,24.39,24.39,0,0,0,9.37,1.69,24,24,0,0,0,9.28-1.69,18.38,18.38,0,0,0,6.89-4.91,22.11,22.11,0,0,0,4.32-7.86A34.06,34.06,0,0,0,610.23,60Z"/></g></g></svg>