<svg xmlns="http://www.w3.org/2000/svg" xmlns:xlink="http://www.w3.org/1999/xlink" viewBox="0 0 712 472.73"><defs><style>.cls-1{fill:url(#무제_그라디언트_27);}.cls-2{fill:url(#무제_그라디언트_27-2);}.cls-3{font-size:14px;}.cls-14,.cls-25,.cls-3,.cls-37,.cls-9{fill:#fff;}.cls-3,.cls-38{font-family:NotoSansCJKkr-Medium-KSCpc-EUC-H, Noto Sans CJK KR;}.cls-4{letter-spacing:-0.01em;}.cls-5{letter-spacing:-0.07em;}.cls-6{letter-spacing:-0.03em;}.cls-7{fill:url(#무제_그라디언트_27-3);}.cls-8{fill:url(#linear-gradient);}.cls-9{stroke:#cbcbcb;}.cls-19,.cls-20,.cls-21,.cls-22,.cls-23,.cls-37,.cls-9{stroke-miterlimit:10;}.cls-10{fill:#434756;}.cls-11{fill:url(#무제_그라디언트_54);}.cls-12{font-size:16.52px;fill:#161616;font-family:Rajdhani-SemiBold, Rajdhani SemiBold;font-weight:600;}.cls-13{fill:url(#무제_그라디언트_54-2);}.cls-14{font-size:12.5px;font-family:Rajdhani-Bold, Rajdhani;font-weight:700;}.cls-15{fill:url(#무제_그라디언트_27-4);}.cls-16{fill:url(#무제_그라디언트_27-5);}.cls-17{fill:url(#무제_그라디언트_27-6);}.cls-18{fill:url(#무제_그라디언트_27-7);}.cls-19,.cls-20,.cls-21,.cls-22,.cls-23{fill:none;stroke:#323647;}.cls-20{stroke-dasharray:3.97 3.97;}.cls-21{stroke-dasharray:3.98 3.98;}.cls-22{stroke-dasharray:4.03 4.03;}.cls-23{stroke-dasharray:4.03 4.03;}.cls-24{fill:url(#무제_그라디언트_64);}.cls-26{fill:url(#무제_그라디언트_64-2);}.cls-27{fill:url(#무제_그라디언트_64-3);}.cls-28{fill:url(#무제_그라디언트_64-4);}.cls-29{fill:url(#무제_그라디언트_64-5);}.cls-30,.cls-38{fill:#7c40e6;}.cls-31{fill:#7866f0;}.cls-32{fill:#7679f4;}.cls-33{fill:#748bf9;}.cls-34{fill:#729eff;}.cls-35{fill:#333;}.cls-36{fill:url(#무제_그라디언트_24);}.cls-37{stroke:#7c40e6;}.cls-38{font-size:12px;}.cls-39{fill:#8b8d96;}</style><linearGradient id="무제_그라디언트_27" x1="17.2" y1="385.66" x2="156.64" y2="469.08" gradientUnits="userSpaceOnUse"><stop offset="0" stop-color="#729eff"/><stop offset="0.13" stop-color="#748afa"/><stop offset="0.37" stop-color="#786af1"/><stop offset="0.6" stop-color="#7a53eb"/><stop offset="0.81" stop-color="#7b45e7"/><stop offset="1" stop-color="#7c40e6"/></linearGradient><linearGradient id="무제_그라디언트_27-2" x1="569.2" y1="385.66" x2="708.64" y2="469.08" xlink:href="#무제_그라디언트_27"/><linearGradient id="무제_그라디언트_27-3" x1="17.2" y1="117.59" x2="156.64" y2="201.02" xlink:href="#무제_그라디언트_27"/><linearGradient id="linear-gradient" x1="569.2" y1="117.59" x2="708.64" y2="201.02" xlink:href="#무제_그라디언트_27"/><linearGradient id="무제_그라디언트_54" x1="62.04" y1="51.39" x2="97.96" y2="51.39" gradientUnits="userSpaceOnUse"><stop offset="0" stop-color="#7c40e6"/><stop offset="0.19" stop-color="#7b45e7"/><stop offset="0.4" stop-color="#7a53eb"/><stop offset="0.63" stop-color="#786af1"/><stop offset="0.87" stop-color="#748afa"/><stop offset="1" stop-color="#729eff"/></linearGradient><linearGradient id="무제_그라디언트_54-2" x1="615.37" y1="34.65" x2="640.09" y2="59.57" xlink:href="#무제_그라디언트_54"/><linearGradient id="무제_그라디언트_27-4" x1="94.71" y1="305.64" x2="89.28" y2="300.22" xlink:href="#무제_그라디언트_27"/><linearGradient id="무제_그라디언트_27-5" x1="94.71" y1="320.71" x2="89.28" y2="315.29" xlink:href="#무제_그라디언트_27"/><linearGradient id="무제_그라디언트_27-6" x1="94.71" y1="335.78" x2="89.28" y2="330.35" xlink:href="#무제_그라디언트_27"/><linearGradient id="무제_그라디언트_27-7" x1="644.7" y1="330.7" x2="619.3" y2="305.3" xlink:href="#무제_그라디언트_27"/><radialGradient id="무제_그라디언트_64" cx="140.61" cy="68.52" r="16.33" xlink:href="#무제_그라디언트_27"/><radialGradient id="무제_그라디언트_64-2" cx="-3272.03" cy="68.52" r="16.33" gradientTransform="matrix(-1, 0, 0, 1, -2700.64, 0)" xlink:href="#무제_그라디언트_27"/><radialGradient id="무제_그라디언트_64-3" cx="140.61" cy="336.55" r="16.33" xlink:href="#무제_그라디언트_27"/><radialGradient id="무제_그라디언트_64-4" cx="-3272.03" cy="336.55" r="16.33" gradientTransform="matrix(-1, 0, 0, 1, -2700.64, 0)" xlink:href="#무제_그라디언트_27"/><radialGradient id="무제_그라디언트_64-5" cx="354.99" cy="274.89" r="177.65" xlink:href="#무제_그라디언트_27"/><linearGradient id="무제_그라디언트_24" x1="356" y1="374.33" x2="356" y2="291.36" gradientUnits="userSpaceOnUse"><stop offset="0" stop-color="#737580" stop-opacity="0"/><stop offset="0.14" stop-color="#737580" stop-opacity="0.27"/><stop offset="0.3" stop-color="#737580" stop-opacity="0.53"/><stop offset="0.47" stop-color="#737580" stop-opacity="0.74"/><stop offset="0.64" stop-color="#737580" stop-opacity="0.88"/><stop offset="0.81" stop-color="#737580" stop-opacity="0.97"/><stop offset="1" stop-color="#737580"/></linearGradient></defs><g id="레이어_2" data-name="레이어 2"><g id="레이어_1-2" data-name="레이어 1"><rect class="cls-1" y="374.23" width="160" height="98" rx="12.95"/><rect class="cls-2" x="552" y="374.23" width="160" height="98" rx="12.95"/><text class="cls-3" transform="translate(22.15 415.33)">TE<tspan class="cls-4" x="16.94" y="0">R</tspan><tspan class="cls-5" x="26.03" y="0">A</tspan><tspan x="33.78" y="0">T</tspan><tspan class="cls-6" x="42.32" y="0">T</tspan><tspan x="50.47" y="0">O 데이터를</tspan><tspan x="4.37" y="19.54">가공하여 빅데이터</tspan><tspan x="6.89" y="39.09">판매 및 수익 배분</tspan></text><text class="cls-3" transform="translate(591.4 415.07)">자사 서비스를<tspan x="-1.96" y="19.54">연동할 수 있는</tspan><tspan x="-6.18" y="39.09">API 시스템 제공</tspan></text><rect class="cls-7" y="106.16" width="160" height="98" rx="12.95"/><rect class="cls-8" x="552" y="106.16" width="160" height="98" rx="12.95"/><circle class="cls-9" cx="80" cy="61.19" r="60.69"/><path class="cls-10" d="M96.21,64.08H92.48A18.31,18.31,0,0,1,80,59.22a18.31,18.31,0,0,1-12.48,4.86H63.79A8.1,8.1,0,0,1,55.7,56V46.79a8.1,8.1,0,0,1,8.09-8.09H96.21a8.1,8.1,0,0,1,8.09,8.09V56A8.1,8.1,0,0,1,96.21,64.08ZM80,57.27a.82.82,0,0,1,.58.24,16.71,16.71,0,0,0,11.9,4.93h3.73A6.47,6.47,0,0,0,102.67,56V46.79a6.46,6.46,0,0,0-6.46-6.45H63.79a6.46,6.46,0,0,0-6.46,6.45V56a6.47,6.47,0,0,0,6.46,6.46h3.73a16.71,16.71,0,0,0,11.9-4.93A.82.82,0,0,1,80,57.27Z"/><path class="cls-11" d="M92.48,57.73a12,12,0,0,1-8.57-3.55L80,50.27l-3.91,3.91a12,12,0,0,1-8.57,3.55H63.79A1.75,1.75,0,0,1,62,56V46.79a1.74,1.74,0,0,1,1.75-1.74H96.21A1.75,1.75,0,0,1,98,46.79V56a1.75,1.75,0,0,1-1.75,1.75Z"/><path class="cls-10" d="M109.49,56.69h-6a.82.82,0,0,1-.82-.82V46.79a.81.81,0,0,1,.82-.81h6a.82.82,0,0,1,.82.81v9.08A.82.82,0,0,1,109.49,56.69Zm-5.19-1.64h4.37V47.61H104.3Z"/><path class="cls-10" d="M56.51,56.69h-6a.82.82,0,0,1-.82-.82V46.79a.82.82,0,0,1,.82-.81h6a.81.81,0,0,1,.82.81v9.08A.82.82,0,0,1,56.51,56.69Zm-5.18-1.64H55.7V47.61H51.33Z"/><text class="cls-12" transform="translate(44.69 82.29)">Metaverse</text><circle class="cls-9" cx="632" cy="61.19" r="60.69"/><text class="cls-12" transform="translate(603.13 97.33)">NFT Sale</text><path class="cls-10" d="M649,34.65h-.21v-.21a7.52,7.52,0,0,0-7.52-7.51H615.05a7.52,7.52,0,0,0-7.51,7.51V60.61a7.53,7.53,0,0,0,7.51,7.52h.21v.2a7.52,7.52,0,0,0,7.52,7.52H649a7.52,7.52,0,0,0,7.51-7.52V42.17A7.52,7.52,0,0,0,649,34.65Zm5.88,33.68A5.88,5.88,0,0,1,649,74.21H622.78a5.88,5.88,0,0,1-5.88-5.88v-.2h24.32a7.53,7.53,0,0,0,7.52-7.52V36.29H649a5.88,5.88,0,0,1,5.88,5.88Zm-45.66-7.72V34.44a5.89,5.89,0,0,1,5.88-5.88h26.17a5.89,5.89,0,0,1,5.88,5.88V60.61a5.89,5.89,0,0,1-5.88,5.88H615.05A5.89,5.89,0,0,1,609.17,60.61Z"/><rect class="cls-13" x="613.87" y="33.26" width="28.54" height="28.54" rx="3.32"/><text class="cls-14" transform="translate(618.9 51.43)">NFT</text><circle class="cls-9" cx="80" cy="329.23" r="60.69"/><text class="cls-12" transform="translate(51.36 364.07)">Big Data</text><path class="cls-10" d="M100.6,306.33v-6.8a5,5,0,0,0-4.95-4.95H64.35a5,5,0,0,0-4.95,4.95v6.8a5,5,0,0,0,2.23,4.14,4.93,4.93,0,0,0-2.23,4.13v6.8a4.93,4.93,0,0,0,2.23,4.13,5,5,0,0,0-2.23,4.14v6.8a5,5,0,0,0,4.95,4.95h31.3a5,5,0,0,0,4.95-4.95v-6.8a5,5,0,0,0-2.23-4.14,4.93,4.93,0,0,0,2.23-4.13v-6.8a4.93,4.93,0,0,0-2.23-4.13A5,5,0,0,0,100.6,306.33ZM99,321.4a3.32,3.32,0,0,1-3.31,3.32H64.35A3.32,3.32,0,0,1,61,321.4v-6.8a3.32,3.32,0,0,1,3.31-3.32h31.3A3.32,3.32,0,0,1,99,314.6Zm0,15.07a3.32,3.32,0,0,1-3.31,3.32H64.35A3.32,3.32,0,0,1,61,336.47v-6.8a3.32,3.32,0,0,1,3.31-3.32h31.3A3.32,3.32,0,0,1,99,329.67ZM64.35,309.65A3.32,3.32,0,0,1,61,306.33v-6.8a3.32,3.32,0,0,1,3.31-3.32h31.3A3.32,3.32,0,0,1,99,299.53v6.8a3.32,3.32,0,0,1-3.31,3.32Z"/><rect class="cls-10" x="65.84" y="301.36" width="1.64" height="3.32"/><rect class="cls-10" x="70.51" y="301.36" width="1.64" height="3.32"/><rect class="cls-10" x="75.18" y="301.36" width="1.64" height="3.32"/><path class="cls-15" d="M92,299.09a3.84,3.84,0,1,0,3.84,3.84A3.85,3.85,0,0,0,92,299.09Zm0,6.05a2.21,2.21,0,1,1,2.21-2.21A2.21,2.21,0,0,1,92,305.14Z"/><rect class="cls-10" x="65.84" y="316.43" width="1.64" height="3.32"/><rect class="cls-10" x="70.51" y="316.43" width="1.64" height="3.32"/><rect class="cls-10" x="75.18" y="316.43" width="1.64" height="3.32"/><path class="cls-16" d="M92,314.16A3.84,3.84,0,1,0,95.83,318,3.85,3.85,0,0,0,92,314.16Zm0,6A2.21,2.21,0,1,1,94.2,318,2.21,2.21,0,0,1,92,320.21Z"/><rect class="cls-10" x="65.84" y="331.5" width="1.64" height="3.32"/><rect class="cls-10" x="70.51" y="331.5" width="1.64" height="3.32"/><rect class="cls-10" x="75.18" y="331.5" width="1.64" height="3.32"/><path class="cls-17" d="M92,329.23a3.84,3.84,0,1,0,3.84,3.84A3.85,3.85,0,0,0,92,329.23Zm0,6a2.21,2.21,0,1,1,2.21-2.21A2.21,2.21,0,0,1,92,335.28Z"/><circle class="cls-9" cx="632" cy="329.23" r="60.69"/><text class="cls-12" transform="translate(621.02 364.07)">API</text><path class="cls-10" d="M645.08,338.6H618.92a7.52,7.52,0,0,1-7.52-7.52V304.92a7.52,7.52,0,0,1,7.52-7.52h26.16a7.52,7.52,0,0,1,7.52,7.52v26.16A7.52,7.52,0,0,1,645.08,338.6ZM618.92,299a5.88,5.88,0,0,0-5.88,5.88v26.16a5.88,5.88,0,0,0,5.88,5.88h26.16a5.88,5.88,0,0,0,5.88-5.88V304.92a5.88,5.88,0,0,0-5.88-5.88Z"/><rect class="cls-18" x="618.37" y="304.37" width="27.25" height="27.25" rx="3.17"/><text class="cls-14" transform="translate(623.54 320.97)">API</text><rect class="cls-10" x="644.81" y="291.36" width="1.64" height="4.02"/><rect class="cls-10" x="640.27" y="291.36" width="1.64" height="4.02"/><rect class="cls-10" x="635.74" y="291.36" width="1.64" height="4.02"/><rect class="cls-10" x="631.2" y="291.36" width="1.64" height="4.02"/><rect class="cls-10" x="626.66" y="291.36" width="1.64" height="4.02"/><rect class="cls-10" x="622.13" y="291.36" width="1.64" height="4.02"/><rect class="cls-10" x="617.56" y="291.36" width="1.64" height="4.02"/><rect class="cls-10" x="605.36" y="303.56" width="4.02" height="1.64"/><rect class="cls-10" x="605.36" y="308.09" width="4.02" height="1.64"/><rect class="cls-10" x="605.36" y="312.63" width="4.02" height="1.64"/><rect class="cls-10" x="605.36" y="317.17" width="4.02" height="1.64"/><rect class="cls-10" x="605.36" y="321.7" width="4.02" height="1.64"/><rect class="cls-10" x="605.36" y="326.24" width="4.02" height="1.64"/><rect class="cls-10" x="605.36" y="330.81" width="4.02" height="1.64"/><rect class="cls-10" x="617.56" y="340.63" width="1.64" height="4.02"/><rect class="cls-10" x="622.09" y="340.63" width="1.64" height="4.02"/><rect class="cls-10" x="626.63" y="340.63" width="1.64" height="4.02"/><rect class="cls-10" x="631.17" y="340.63" width="1.64" height="4.02"/><rect class="cls-10" x="635.7" y="340.63" width="1.64" height="4.02"/><rect class="cls-10" x="640.24" y="340.63" width="1.64" height="4.02"/><rect class="cls-10" x="644.81" y="340.63" width="1.64" height="4.02"/><rect class="cls-10" x="654.63" y="330.81" width="4.02" height="1.64"/><rect class="cls-10" x="654.63" y="326.27" width="4.02" height="1.64"/><rect class="cls-10" x="654.63" y="321.74" width="4.02" height="1.64"/><rect class="cls-10" x="654.63" y="317.2" width="4.02" height="1.64"/><rect class="cls-10" x="654.63" y="312.66" width="4.02" height="1.64"/><rect class="cls-10" x="654.63" y="308.13" width="4.02" height="1.64"/><rect class="cls-10" x="654.63" y="303.56" width="4.02" height="1.64"/><text class="cls-3" transform="translate(26.96 153.4)">메타버스 내 다양한<tspan x="0" y="19.54">헬스케어 업체 입점</tspan></text><text class="cls-3" transform="translate(597.84 147)">메타버스 및<tspan x="-14.97" y="19.54">헬스케어 서비스,</tspan><tspan x="-21.38" y="39.09">상품을 NFT로 판매</tspan></text><line class="cls-19" x1="140.69" y1="61.19" x2="142.69" y2="61.34"/><polyline class="cls-20" points="146.65 61.62 210.04 66.19 329.24 168.29"/><line class="cls-19" x1="330.75" y1="169.58" x2="332.27" y2="170.88"/><line class="cls-19" x1="571.31" y1="61.19" x2="569.31" y2="61.34"/><polyline class="cls-21" points="565.34 61.62 501.67 66.19 382.47 168.29"/><line class="cls-19" x1="380.96" y1="169.58" x2="379.44" y2="170.88"/><line class="cls-19" x1="140.69" y1="329.23" x2="142.69" y2="329.23"/><polyline class="cls-22" points="146.72 329.23 210.04 329.23 329.29 222.22"/><line class="cls-19" x1="330.78" y1="220.88" x2="332.27" y2="219.54"/><line class="cls-19" x1="571.31" y1="329.23" x2="569.31" y2="329.23"/><polyline class="cls-23" points="565.27 329.23 501.67 329.23 382.43 222.22"/><line class="cls-19" x1="380.93" y1="220.88" x2="379.44" y2="219.54"/><path class="cls-24" d="M140.69,53.79a7.41,7.41,0,1,0,7.41,7.4A7.4,7.4,0,0,0,140.69,53.79Z"/><path class="cls-25" d="M144.16,61.19a3.47,3.47,0,1,1-3.47-3.46A3.47,3.47,0,0,1,144.16,61.19Z"/><path class="cls-26" d="M563.9,61.19a7.41,7.41,0,1,0,7.41-7.4A7.41,7.41,0,0,0,563.9,61.19Z"/><path class="cls-25" d="M567.84,61.19a3.47,3.47,0,1,0,3.47-3.46A3.47,3.47,0,0,0,567.84,61.19Z"/><path class="cls-27" d="M140.69,321.82a7.41,7.41,0,1,0,7.41,7.41A7.4,7.4,0,0,0,140.69,321.82Z"/><path class="cls-25" d="M144.16,329.23a3.47,3.47,0,1,1-3.47-3.46A3.46,3.46,0,0,1,144.16,329.23Z"/><path class="cls-28" d="M563.9,329.23a7.41,7.41,0,1,0,7.41-7.41A7.4,7.4,0,0,0,563.9,329.23Z"/><path class="cls-25" d="M567.84,329.23a3.47,3.47,0,1,0,3.47-3.46A3.46,3.46,0,0,0,567.84,329.23Z"/><path class="cls-29" d="M355.85,114.64a80.57,80.57,0,1,0,80.57,80.57A80.56,80.56,0,0,0,355.85,114.64Zm0,149.72A69.15,69.15,0,1,1,425,195.21,69.15,69.15,0,0,1,355.85,264.36Z"/><circle class="cls-25" cx="355.85" cy="195.21" r="74.15" transform="translate(-35.33 86.98) rotate(-13.28)"/><path class="cls-30" d="M350.71,160.61a3.75,3.75,0,1,1,3.74-3.74A3.75,3.75,0,0,1,350.71,160.61Z"/><path class="cls-30" d="M350.71,173.48a3.75,3.75,0,1,1,3.74-3.74A3.74,3.74,0,0,1,350.71,173.48Z"/><path class="cls-31" d="M340.41,160.1a3.24,3.24,0,1,1,3.24-3.23A3.24,3.24,0,0,1,340.41,160.1Z"/><path class="cls-31" d="M371.3,160.1a3.24,3.24,0,1,1,3.24-3.23A3.24,3.24,0,0,1,371.3,160.1Z"/><path class="cls-31" d="M350.71,185.85a3.24,3.24,0,1,1,3.23-3.24A3.24,3.24,0,0,1,350.71,185.85Z"/><path class="cls-32" d="M350.71,198.72a3.24,3.24,0,1,1,3.23-3.24A3.24,3.24,0,0,1,350.71,198.72Z"/><path class="cls-30" d="M361,160.61a3.75,3.75,0,1,1,3.75-3.74A3.75,3.75,0,0,1,361,160.61Z"/><path class="cls-30" d="M361,173.48a3.75,3.75,0,1,1,3.75-3.74A3.74,3.74,0,0,1,361,173.48Z"/><path class="cls-31" d="M361,185.85a3.24,3.24,0,1,1,3.24-3.24A3.24,3.24,0,0,1,361,185.85Z"/><circle class="cls-32" cx="361" cy="195.48" r="3.24"/><path class="cls-32" d="M381.6,159.14a2.28,2.28,0,1,1,2.27-2.27A2.28,2.28,0,0,1,381.6,159.14Z"/><path class="cls-31" d="M374.54,169.74a3.24,3.24,0,1,1-3.24-3.24A3.24,3.24,0,0,1,374.54,169.74Z"/><path class="cls-32" d="M383.87,169.74a2.28,2.28,0,1,1-2.27-2.28A2.27,2.27,0,0,1,383.87,169.74Z"/><circle class="cls-32" cx="330.11" cy="156.87" r="2.28"/><circle class="cls-32" cx="330.11" cy="169.74" r="2.28"/><path class="cls-33" d="M353,208.35a2.28,2.28,0,1,1-2.27-2.27A2.28,2.28,0,0,1,353,208.35Z"/><path class="cls-31" d="M337.17,169.74a3.24,3.24,0,1,0,3.24-3.24A3.24,3.24,0,0,0,337.17,169.74Z"/><circle class="cls-33" cx="361" cy="208.35" r="2.28"/><path class="cls-34" d="M371.3,183.87a1.26,1.26,0,1,1,1.26-1.26A1.26,1.26,0,0,1,371.3,183.87Z"/><path class="cls-34" d="M381.6,183.87a1.26,1.26,0,0,1,0-2.52,1.26,1.26,0,0,1,0,2.52Z"/><path class="cls-34" d="M371.3,196.74a1.26,1.26,0,1,1,1.26-1.26A1.26,1.26,0,0,1,371.3,196.74Z"/><path class="cls-34" d="M381.6,196.74a1.26,1.26,0,0,1,0-2.52,1.26,1.26,0,1,1,0,2.52Z"/><path class="cls-34" d="M371.3,209.61a1.26,1.26,0,1,1,1.26-1.26A1.26,1.26,0,0,1,371.3,209.61Z"/><path class="cls-34" d="M381.6,209.61a1.26,1.26,0,1,1,1.26-1.26A1.25,1.25,0,0,1,381.6,209.61Z"/><path class="cls-34" d="M340.41,183.87a1.26,1.26,0,1,0-1.26-1.26A1.26,1.26,0,0,0,340.41,183.87Z"/><path class="cls-34" d="M330.11,183.87a1.26,1.26,0,0,0,0-2.52,1.26,1.26,0,0,0,0,2.52Z"/><path class="cls-34" d="M340.41,196.74a1.26,1.26,0,1,0-1.26-1.26A1.26,1.26,0,0,0,340.41,196.74Z"/><circle class="cls-34" cx="330.11" cy="195.48" r="1.26"/><path class="cls-34" d="M340.41,209.61a1.26,1.26,0,1,0-1.26-1.26A1.26,1.26,0,0,0,340.41,209.61Z"/><path class="cls-34" d="M330.11,209.61a1.26,1.26,0,1,0-1.26-1.26A1.25,1.25,0,0,0,330.11,209.61Z"/><path class="cls-35" d="M329.23,227.56h-3.31v9.61h-2.74v-9.61h-3.31v-2.17h9.36Z"/><path class="cls-35" d="M333.36,227.49v2.75h3.71v2h-3.71v2.81h4.84v2.1h-7.59V225.39h7.59v2.1Z"/><path class="cls-35" d="M349.52,237.17H347a1,1,0,0,1-1-.52l-2-3.42a1.06,1.06,0,0,0-.31-.32,1,1,0,0,0-.48-.1h-.7v4.36h-2.73V225.39h3.83a8.09,8.09,0,0,1,2.18.26,4.06,4.06,0,0,1,1.47.74,2.75,2.75,0,0,1,.83,1.1,3.74,3.74,0,0,1,.26,1.39,3.83,3.83,0,0,1-.15,1.09,3.57,3.57,0,0,1-.46.94,3.36,3.36,0,0,1-.74.77,3.93,3.93,0,0,1-1,.56,2.76,2.76,0,0,1,.5.34,2.22,2.22,0,0,1,.42.49Zm-5.81-6.24a2.93,2.93,0,0,0,1-.14,1.83,1.83,0,0,0,.64-.39,1.59,1.59,0,0,0,.37-.59,2.41,2.41,0,0,0,.11-.72,1.55,1.55,0,0,0-.5-1.22,2.37,2.37,0,0,0-1.57-.43h-1.1v3.49Z"/><path class="cls-35" d="M361.08,237.17H359a.9.9,0,0,1-.57-.16,1.18,1.18,0,0,1-.34-.43l-.69-2.05h-4.48l-.7,2.05a.94.94,0,0,1-.32.41.88.88,0,0,1-.57.18h-2.13l4.56-11.78h2.8Zm-4.34-4.5-1.1-3.23c-.08-.2-.16-.44-.25-.72s-.19-.58-.28-.9c-.08.33-.17.63-.26.91s-.18.52-.26.73l-1.08,3.21Z"/><path class="cls-35" d="M369.32,227.56H366v9.61h-2.73v-9.61H360v-2.17h9.36Z"/><path class="cls-35" d="M379.17,227.56h-3.31v9.61h-2.74v-9.61h-3.31v-2.17h9.36Z"/><path class="cls-35" d="M391.84,231.28a6.36,6.36,0,0,1-.44,2.37,5.57,5.57,0,0,1-3.17,3.19,7.05,7.05,0,0,1-5,0,5.74,5.74,0,0,1-1.93-1.27,5.65,5.65,0,0,1-1.25-1.92,6.63,6.63,0,0,1,0-4.75,5.6,5.6,0,0,1,1.25-1.91,5.74,5.74,0,0,1,1.93-1.27,6.76,6.76,0,0,1,2.51-.46,6.51,6.51,0,0,1,2.5.47,5.59,5.59,0,0,1,3.17,3.18A6.36,6.36,0,0,1,391.84,231.28Zm-2.8,0a5.16,5.16,0,0,0-.22-1.58,3.37,3.37,0,0,0-.65-1.18,2.87,2.87,0,0,0-1-.74,3.93,3.93,0,0,0-2.81,0,2.9,2.9,0,0,0-1.05.74,3.37,3.37,0,0,0-.65,1.18,5.78,5.78,0,0,0,0,3.16,3.37,3.37,0,0,0,.65,1.18,2.79,2.79,0,0,0,1.05.74,3.93,3.93,0,0,0,2.81,0,2.75,2.75,0,0,0,1-.74,3.37,3.37,0,0,0,.65-1.18A5.2,5.2,0,0,0,389,231.28Z"/><polygon class="cls-36" points="393.96 332.69 356 291.36 318.04 332.69 334.65 332.69 334.65 374.33 377.35 374.33 377.35 332.69 393.96 332.69"/><rect class="cls-37" x="184" y="374.33" width="344" height="97.9" rx="13.77"/><text class="cls-38" transform="translate(206.96 450.32)">병원</text><text class="cls-38" transform="translate(262.33 450.32)">건강</text><text class="cls-38" transform="translate(312.18 450.32)">뷰티샾</text><text class="cls-38" transform="translate(373.08 449.22)">대학</text><text class="cls-38" transform="translate(417.41 449.22)">연구기관</text><text class="cls-38" transform="translate(483.82 449.22)">기업</text><path class="cls-39" d="M230.28,396.37H205.72a3.48,3.48,0,0,0-3.48,3.48v24.56a3.48,3.48,0,0,0,3.48,3.47h24.56a3.48,3.48,0,0,0,3.48-3.47V399.85A3.48,3.48,0,0,0,230.28,396.37Zm2.13,28a2.14,2.14,0,0,1-2.13,2.13H205.72a2.14,2.14,0,0,1-2.13-2.13V399.85a2.14,2.14,0,0,1,2.13-2.14h24.56a2.14,2.14,0,0,1,2.13,2.14Z"/><path class="cls-39" d="M225.51,408.65h-4.23v-4.23a.7.7,0,0,0-.7-.7h-5.16a.7.7,0,0,0-.7.7v4.23h-4.23a.7.7,0,0,0-.7.7v5.16a.7.7,0,0,0,.7.7h4.23v4.23a.7.7,0,0,0,.7.7h5.16a.7.7,0,0,0,.7-.7v-4.23h4.23a.7.7,0,0,0,.7-.7v-5.16A.7.7,0,0,0,225.51,408.65Z"/><path class="cls-39" d="M286.48,407.67a3.12,3.12,0,0,0,1.71-.89,3.19,3.19,0,0,0,0-4.5l-5-5a3.19,3.19,0,0,0-5.39,1.71l-.94-.94a3.19,3.19,0,0,0-4.51,4.5l3.4,3.39-8.56,8.56-3.4-3.39a3.18,3.18,0,0,0-4.5,4.5l.95.95a3.18,3.18,0,0,0-1.72,5.38l5,5a3.19,3.19,0,0,0,5.39-1.72l.94.95a3.18,3.18,0,0,0,4.5-4.5l-3.39-3.4,8.56-8.56,3.39,3.4a3.18,3.18,0,0,0,5.43-2.25,3.2,3.2,0,0,0-.93-2.26Zm-6.81-9.41a1.87,1.87,0,0,1,2.6,0l5,5a1.83,1.83,0,0,1,0,2.6,1.87,1.87,0,0,1-2.6,0l-5-5A1.83,1.83,0,0,1,279.67,398.26ZM267.08,426a1.84,1.84,0,0,1-2.6,0l-5-5a1.83,1.83,0,0,1,0-2.6,1.83,1.83,0,0,1,1.3-.54,1.87,1.87,0,0,1,1.28.52l5,5a1.83,1.83,0,0,1,0,2.6Zm6.87-2.07a1.82,1.82,0,0,1-.54,1.3,1.89,1.89,0,0,1-2.6,0l-5.89-5.89-1.87-1.87,0,0-2.75-2.75a1.84,1.84,0,0,1,2.6-2.6l10.54,10.54A1.79,1.79,0,0,1,274,423.93Zm-3.93-6.6-1.85-1.85,8.56-8.56,1.85,1.85Zm16.45-5.16a1.89,1.89,0,0,1-2.6,0l-10.54-10.54a1.86,1.86,0,0,1,0-2.6,1.85,1.85,0,0,1,2.61,0l10.53,10.53a1.85,1.85,0,0,1,0,2.61Z"/><path class="cls-39" d="M345.47,415.78h0a11,11,0,0,0-6.15-8.63h0a10.78,10.78,0,0,0-4.67-1.06,12.92,12.92,0,0,0-1.93-1.69v-3.29h4a1.81,1.81,0,0,0,1.81-1.81v-1.14a1.81,1.81,0,0,0-1.81-1.8H313.76a1.81,1.81,0,0,0-1.81,1.8v1.14a1.81,1.81,0,0,0,1.81,1.81h4v3.29a12.92,12.92,0,0,0,12.36,22.51,10.88,10.88,0,0,0,15.22-7.83,10.5,10.5,0,0,0,.2-2.09C345.53,416.6,345.51,416.19,345.47,415.78ZM313.3,399.3v-1.14a.47.47,0,0,1,.46-.46H336.7a.47.47,0,0,1,.47.46v1.14a.46.46,0,0,1-.47.46H313.76A.46.46,0,0,1,313.3,399.3Zm18.08,1.81v2.44a12.88,12.88,0,0,0-12.29,0v-2.44Zm-6.15,2.23a11.55,11.55,0,0,1,7.65,2.9,10.25,10.25,0,0,0-2.08.54,9.9,9.9,0,1,0-3.93,17.87,11.51,11.51,0,0,0,1.67,1.39,11.59,11.59,0,1,1-3.31-22.7Zm0,3.06a8.52,8.52,0,0,1,4.11,1.06,10.86,10.86,0,0,0-5.55,8.32h0c0,.41-.07.82-.07,1.21a10.51,10.51,0,0,0,.21,2.09h0a10.69,10.69,0,0,0,1.9,4.35l-.6,0a8.53,8.53,0,0,1,0-17.06Zm19,10.59a9.32,9.32,0,0,1-.09,1.29H325.16a9.32,9.32,0,0,1-.09-1.29c0-.15,0-.31,0-.46h19.1C344.19,416.68,344.19,416.84,344.19,417Zm-18.95-1.81a9.54,9.54,0,0,1,9.39-7.75,9.4,9.4,0,0,1,4.11.93,9.65,9.65,0,0,1,5.28,6.82Zm2.57,8.51a9.5,9.5,0,0,1-2.37-4.06h18.38a9.56,9.56,0,0,1-16,4.06Z"/><path class="cls-39" d="M404.19,402.86a.43.43,0,0,0,0-.07.55.55,0,0,0-.09-.14l-.05,0a.78.78,0,0,0-.15-.1l-.05,0h0l-19.44-7.17a.76.76,0,0,0-.47,0l-19.44,7.17h0l-.05,0a.71.71,0,0,0-.14.1l-.06,0a1.1,1.1,0,0,0-.09.14l0,.07a.59.59,0,0,0-.05.23v3.07a.67.67,0,0,0,.44.63l9.16,3.38L372,418.75a3.88,3.88,0,0,0-.24,1.32c0,3.77,5.43,6.72,12.37,6.72s12.37-3,12.37-6.72a3.88,3.88,0,0,0-.24-1.32l-1.62-8.58,5.56-2.05V420a3.7,3.7,0,0,0-1.44,3.06,2.12,2.12,0,1,0,4.24,0,3.69,3.69,0,0,0-1.45-3.06V408a.64.64,0,0,0-.1-.33l2.35-.87a.66.66,0,0,0,.44-.63v-3.07A.85.85,0,0,0,404.19,402.86ZM400.87,424c-.39,0-.78-.11-.78-.93,0-1,.56-1.88.78-1.88s.77.89.77,1.88C401.64,423.92,401.25,424,400.87,424Zm-5.9-4.87a2.75,2.75,0,0,1,.17.91c0,2.92-5.05,5.38-11,5.38s-11-2.46-11-5.38a2.75,2.75,0,0,1,.17-.91.49.49,0,0,0,0-.11l1.58-8.41,9,3.32a.67.67,0,0,0,.24,0,.66.66,0,0,0,.23,0l9-3.32,1.59,8.41A.23.23,0,0,0,395,419.16Zm-10.85-6.54-18.78-6.92v-1.64l18.54,6.83a.67.67,0,0,0,.24,0,.66.66,0,0,0,.23,0l18.54-6.83v1.64Zm17.5-9.53-17.5,6.46-17.51-6.46,17.51-6.45Z"/><path class="cls-39" d="M384.12,413.89a.72.72,0,0,1-.72-.72v-2.68a.72.72,0,0,1,1.43,0v2.68A.71.71,0,0,1,384.12,413.89Z"/><path class="cls-39" d="M438.24,405.67v-9.09h1.58v-1.34H429.07v1.34h1.58v9.09l-8.76,15.75a3.62,3.62,0,0,0,3.17,5.39h18.77a3.62,3.62,0,0,0,3.17-5.39ZM432,406v-9.44h4.91V406l1.78,3.21h-8.47Zm5.25,5.61a1.06,1.06,0,1,1-1.06-1.06A1.06,1.06,0,0,1,437.24,411.63Zm8.56,12.71a2.26,2.26,0,0,1-2,1.12H425.06a2.26,2.26,0,0,1-2-1.12,2.3,2.3,0,0,1,0-2.27l4-7.23H430v-1.35h-2.18l1.63-2.92H434a2.37,2.37,0,0,0-.26,1.06,2.41,2.41,0,0,0,4.82,0,2.37,2.37,0,0,0-.26-1.06h1.1l6.4,11.5A2.3,2.3,0,0,1,445.8,424.34Z"/><path class="cls-39" d="M438.21,416A1.81,1.81,0,1,0,440,417.8,1.82,1.82,0,0,0,438.21,416Zm0,2.28a.47.47,0,1,1,.46-.47A.47.47,0,0,1,438.21,418.27Z"/><rect class="cls-39" x="426.73" y="416.25" width="3.27" height="1.34"/><rect class="cls-39" x="426.73" y="419" width="3.27" height="1.34"/><path class="cls-39" d="M457.55,395.24H446.79v1.34h1.6V423a3.78,3.78,0,1,0,7.56,0V396.58h1.6Zm-5.38,30.21a2.44,2.44,0,0,1-2.44-2.44V403.48h4.88V423A2.44,2.44,0,0,1,452.17,425.45Zm2.44-23.31h-4.88v-5.56h4.88Z"/><path class="cls-39" d="M495,395.2h-14a.67.67,0,0,0-.67.67V426.1a.67.67,0,0,0,.67.67h14a.67.67,0,0,0,.67-.67V395.87A.67.67,0,0,0,495,395.2Zm-.67,30.23H481.73V396.54h12.64Z"/><path class="cls-39" d="M509.05,409.65l-10.82-7.4a.67.67,0,0,0-1.05.55v23.37a.67.67,0,0,0,.67.67h10.82a.67.67,0,0,0,.67-.67v-16A.68.68,0,0,0,509.05,409.65ZM508,425.5h-9.47V404.08l9.47,6.48Z"/><rect class="cls-39" x="483.94" y="400.52" width="1.34" height="2.28"/><rect class="cls-39" x="487.38" y="400.52" width="1.34" height="2.28"/><rect class="cls-39" x="490.81" y="400.52" width="1.34" height="2.28"/><rect class="cls-39" x="483.94" y="406.1" width="1.34" height="2.28"/><rect class="cls-39" x="487.38" y="406.1" width="1.34" height="2.28"/><rect class="cls-39" x="490.81" y="406.1" width="1.34" height="2.28"/><rect class="cls-39" x="500.79" y="411.67" width="1.34" height="2.28"/><rect class="cls-39" x="504.23" y="411.67" width="1.34" height="2.28"/><rect class="cls-39" x="500.79" y="416.64" width="1.34" height="2.28"/><rect class="cls-39" x="504.23" y="416.64" width="1.34" height="2.28"/><rect class="cls-39" x="483.94" y="411.67" width="1.34" height="2.28"/><rect class="cls-39" x="487.38" y="411.67" width="1.34" height="2.28"/><rect class="cls-39" x="490.81" y="411.67" width="1.34" height="2.28"/></g></g></svg>