<svg xmlns="http://www.w3.org/2000/svg" xmlns:xlink="http://www.w3.org/1999/xlink" viewBox="0 0 680 185.72"><defs><style>.cls-1{fill:#212121;}.cls-2{fill:url(#무제_그라디언트_52);}.cls-3{fill:url(#무제_그라디언트_55);}.cls-4{fill:none;}</style><linearGradient id="무제_그라디언트_52" x1="113.88" y1="117.63" x2="113.88" y2="34.82" gradientUnits="userSpaceOnUse"><stop offset="0" stop-color="#7731ff"/><stop offset="1" stop-color="#00a6ff"/></linearGradient><linearGradient id="무제_그라디언트_55" x1="151.35" y1="151.47" x2="151.35" y2="68.67" gradientUnits="userSpaceOnUse"><stop offset="0" stop-color="#00a6ff"/><stop offset="1" stop-color="#7731ff"/></linearGradient></defs><g id="레이어_2" data-name="레이어 2"><g id="레이어_1-2" data-name="레이어 1"><path class="cls-1" d="M274.1,118.5a15.63,15.63,0,0,1-6.75-5.25,13.81,13.81,0,0,1-2.55-8.1h10.94a7.08,7.08,0,0,0,2.23,5,7.85,7.85,0,0,0,5.51,1.83,8.52,8.52,0,0,0,5.62-1.72,5.58,5.58,0,0,0,2-4.49,5.18,5.18,0,0,0-1.39-3.72,9.76,9.76,0,0,0-3.46-2.3c-1.39-.55-3.3-1.18-5.73-1.86A60.92,60.92,0,0,1,272.49,95a14.14,14.14,0,0,1-5.32-4.3,12.25,12.25,0,0,1-2.23-7.7,13.8,13.8,0,0,1,2.26-7.88,14.48,14.48,0,0,1,6.35-5.15,23.16,23.16,0,0,1,9.34-1.79q7.89,0,12.81,3.84a14.19,14.19,0,0,1,5.43,10.69H289.9a5.85,5.85,0,0,0-2.23-4.35,8.39,8.39,0,0,0-5.51-1.71,7.13,7.13,0,0,0-4.78,1.53,5.54,5.54,0,0,0-1.78,4.45A4.6,4.6,0,0,0,277,86a10.07,10.07,0,0,0,3.35,2.18A59.82,59.82,0,0,0,286,90.12a58.86,58.86,0,0,1,8.1,2.92,14.51,14.51,0,0,1,5.4,4.38,12.2,12.2,0,0,1,2.26,7.66,14.45,14.45,0,0,1-2.12,7.59,15,15,0,0,1-6.2,5.58,21.22,21.22,0,0,1-9.7,2.08A24.13,24.13,0,0,1,274.1,118.5Z"/><path class="cls-1" d="M341.49,80.81a13.85,13.85,0,0,1,5.58,5.92,20.22,20.22,0,0,1,2,9.37v23.72H338.86V97.49q0-4.81-2.41-7.41a8.54,8.54,0,0,0-6.57-2.59,8.75,8.75,0,0,0-6.67,2.59q-2.44,2.6-2.45,7.41v22.33H310.55v-54h10.21V84.43A13.43,13.43,0,0,1,326,80.3a17.5,17.5,0,0,1,7.29-1.49A16.52,16.52,0,0,1,341.49,80.81Z"/><path class="cls-1" d="M358.6,88.59a17.5,17.5,0,0,1,16-9.85,16.42,16.42,0,0,1,7.92,1.82,16.11,16.11,0,0,1,5.44,4.6V79.39h10.29v40.43H388v-5.91a15.32,15.32,0,0,1-5.44,4.7,16.62,16.62,0,0,1-8,1.86,17.17,17.17,0,0,1-9.3-2.62,18.34,18.34,0,0,1-6.64-7.41,23.8,23.8,0,0,1-2.45-11A23.37,23.37,0,0,1,358.6,88.59Zm27.91,4.63a10.35,10.35,0,0,0-3.94-4.09,10.53,10.53,0,0,0-5.33-1.42A10.26,10.26,0,0,0,372,89.1a10.38,10.38,0,0,0-3.91,4.05,12.75,12.75,0,0,0-1.49,6.31,13.16,13.16,0,0,0,1.49,6.38A10.74,10.74,0,0,0,372,110a10,10,0,0,0,5.22,1.46,10.64,10.64,0,0,0,5.33-1.42,10.35,10.35,0,0,0,3.94-4.09,14.69,14.69,0,0,0,0-12.77Z"/><path class="cls-1" d="M423.61,80.63a14.39,14.39,0,0,1,7.26-1.82V89.53h-2.7q-4.82,0-7.26,2.27c-1.63,1.51-2.44,4.13-2.44,7.88v20.14H408.25V79.39h10.22v6.28A14.42,14.42,0,0,1,423.61,80.63Z"/><path class="cls-1" d="M475,102.67H445.47a10,10,0,0,0,3.06,6.86,9.46,9.46,0,0,0,6.64,2.48,8.33,8.33,0,0,0,8.1-4.89h11a18.5,18.5,0,0,1-6.71,9.6,19.64,19.64,0,0,1-12.19,3.75,21.06,21.06,0,0,1-10.47-2.59,18.13,18.13,0,0,1-7.22-7.33,22.44,22.44,0,0,1-2.6-11,22.89,22.89,0,0,1,2.56-11,17.77,17.77,0,0,1,7.15-7.3,23,23,0,0,1,20.91-.07,17.43,17.43,0,0,1,7.07,7,21.29,21.29,0,0,1,2.52,10.47A24.66,24.66,0,0,1,475,102.67Zm-10.29-6.86a8.09,8.09,0,0,0-2.85-6.31,10.06,10.06,0,0,0-6.78-2.37,9.3,9.3,0,0,0-6.39,2.29,10.18,10.18,0,0,0-3.17,6.39Z"/><path class="cls-1" d="M550.83,68.88,536.6,119.82h-12L515,83.55l-10,36.27-12,.07-13.72-51h10.95l9,39.55,10.37-39.55H521l9.78,39.33,9.05-39.33Z"/><path class="cls-1" d="M593.45,98a12.61,12.61,0,0,1,2.77,8,12.89,12.89,0,0,1-2,7.18,13.38,13.38,0,0,1-5.8,4.86,21.36,21.36,0,0,1-9,1.75h-22V68.88h21a21.81,21.81,0,0,1,8.94,1.68,12.79,12.79,0,0,1,5.69,4.67A12.24,12.24,0,0,1,595.05,82a11.59,11.59,0,0,1-2.37,7.44,12.58,12.58,0,0,1-6.31,4.23A11.46,11.46,0,0,1,593.45,98Zm-25.76-8.1H577a8.6,8.6,0,0,0,5.62-1.64,5.81,5.81,0,0,0,2-4.71,5.9,5.9,0,0,0-2-4.74A8.44,8.44,0,0,0,577,77.13h-9.34Zm16.09,19.85a6.15,6.15,0,0,0,2.08-5,6.39,6.39,0,0,0-2.19-5.14,8.83,8.83,0,0,0-5.91-1.86H567.69V111.5H578A8.79,8.79,0,0,0,583.78,109.75Z"/><path class="cls-1" d="M612.38,118.5a15.69,15.69,0,0,1-6.75-5.25,13.89,13.89,0,0,1-2.55-8.1H614a7.08,7.08,0,0,0,2.23,5,7.87,7.87,0,0,0,5.51,1.83,8.52,8.52,0,0,0,5.62-1.72,5.58,5.58,0,0,0,2-4.49A5.18,5.18,0,0,0,628,102a9.76,9.76,0,0,0-3.46-2.3c-1.39-.55-3.3-1.18-5.73-1.86A60.2,60.2,0,0,1,610.78,95a14.1,14.1,0,0,1-5.33-4.3,12.25,12.25,0,0,1-2.23-7.7,13.73,13.73,0,0,1,2.27-7.88,14.39,14.39,0,0,1,6.34-5.15,23.16,23.16,0,0,1,9.34-1.79q7.89,0,12.81,3.84a14.2,14.2,0,0,1,5.44,10.69H628.18A5.85,5.85,0,0,0,626,78.33a8.39,8.39,0,0,0-5.51-1.71,7.13,7.13,0,0,0-4.78,1.53,5.54,5.54,0,0,0-1.78,4.45,4.6,4.6,0,0,0,1.35,3.4,10.18,10.18,0,0,0,3.35,2.18q2,.84,5.66,1.94a57.9,57.9,0,0,1,8.1,2.92,14.51,14.51,0,0,1,5.4,4.38,12.14,12.14,0,0,1,2.26,7.66,14.45,14.45,0,0,1-2.12,7.59,14.94,14.94,0,0,1-6.2,5.58,21.22,21.22,0,0,1-9.7,2.08A24.13,24.13,0,0,1,612.38,118.5Z"/><path class="cls-2" d="M66.46,76.23A13.23,13.23,0,1,1,53.23,63,13.23,13.23,0,0,1,66.46,76.23Zm78.05,26.28H96.19a3.6,3.6,0,0,1-3.6-3.6V53.54a3.6,3.6,0,0,1,3.6-3.6h91.56a15.12,15.12,0,0,0-15.12-15.12H96.19A18.72,18.72,0,0,0,77.47,53.54V98.91a18.72,18.72,0,0,0,18.72,18.72h56.58Z"/><path class="cls-3" d="M169,151.47H92.59a15.12,15.12,0,0,1-15.12-15.12H169a3.6,3.6,0,0,0,3.6-3.6V87.39a3.6,3.6,0,0,0-3.6-3.6H120.72l-8.27-15.12H169a18.72,18.72,0,0,1,18.72,18.72v45.36A18.72,18.72,0,0,1,169,151.47Zm43-28.17a13.23,13.23,0,1,0-13.23-13.23A13.23,13.23,0,0,0,212,123.3Z"/><rect class="cls-4" width="680" height="185.72"/></g></g></svg>