<svg xmlns="http://www.w3.org/2000/svg" viewBox="0 0 53 53"><defs><style>.cls-1{opacity:0.65;}.cls-2{fill:#fff;}</style></defs><g id="레이어_2" data-name="레이어 2"><g id="레이어_2-2" data-name="레이어 2"><circle class="cls-1" cx="26.5" cy="26.5" r="26"/><path class="cls-2" d="M26.5,53A26.5,26.5,0,1,1,53,26.5,26.53,26.53,0,0,1,26.5,53Zm0-52A25.5,25.5,0,1,0,52,26.5,25.53,25.53,0,0,0,26.5,1Z"/><rect class="cls-2" x="26.92" y="22.55" width="1.71" height="8.79"/><polygon class="cls-2" points="43.8 26.94 37.29 19.95 37.29 22.55 30.15 22.55 30.15 31.33 37.29 31.33 37.29 33.93 43.8 26.94"/><path class="cls-2" d="M23.05,40a.87.87,0,0,1-.28-.05L20.25,39a.83.83,0,0,1-.49-.48l-.9-2.21h-.39a1.19,1.19,0,0,1-.08.16l-.7,1H16.17a.68.68,0,0,1-.49-.22l-.51-.54a.75.75,0,0,1-.19-.4H13.13c-1.48.08-2.36,0-2.74-.29a.71.71,0,0,1-.22-.46c0-.63.54-1.16,1-1.58l.19-.19.53-1.94,2-1.2.81-2,.54-.2.11-1.45.81-1.52,1.08-.12.8-2.05L19.6,24,21,22.31A11.08,11.08,0,0,1,20.79,21c0-.06,0-.16.34-3.13l.07-.76.86,0c.08-.41.25-1.2.6-2.74a.81.81,0,0,1,.74-.65l.38,0,.11-.06L25.31,13h.24l2,.38,1.1,3.8.93.19.69,3.26-.06.44-1-.13.05-.35-.52-2.37-.42-.09a.8.8,0,0,1-.61-.58l-1-3.3L25.51,14l-1.67.68h-.23c-.36,1.6-.62,2.77-.64,2.92v.47H22.5l-.39,0c-.27,2.4-.32,2.89-.32,3s.26,1.31.26,1.31l.05.24-2.19,2.52-1.3-.46L18,26.37l-1.17.13-.5.95-.07,1.79-.77.28-.76,1.87-1.94,1.16-.49,1.79-.08.09c-.08.09-.2.2-.33.32a5.79,5.79,0,0,0-.57.61,11.07,11.07,0,0,0,1.81,0H16l0,.81.34.35h.86L17.5,36l-.06-.69h1.73c.4,0,.53.37.6.57l.89,2.21,2.45.9,4-.39.93-.6.79-3.3h1.94L32,34l.57.82-1.4,1H29.66l-.61,2.56a.87.87,0,0,1-.39.55l-1.07.67a1.12,1.12,0,0,1-.35.12L23.12,40Zm5-1.94h0Zm.06-.08h0Zm-12-1.49h0Zm1.34-.36Zm-1.61-.09ZM17.56,36Z"/></g></g></svg>