<svg xmlns="http://www.w3.org/2000/svg" viewBox="0 0 100 134"><defs><style>.cls-1{fill:#fff;}.cls-2{fill:#cccce0;}.cls-3{fill:#ffb500;opacity:0.25;}.cls-4{fill:#ffa800;opacity:0.63;}.cls-5{fill:#ff9a00;}.cls-6{fill:#4d4d4d;}</style></defs><g id="레이어_2" data-name="레이어 2"><g id="레이어_2-2" data-name="레이어 2"><path class="cls-1" d="M62.32,134h0a35.46,35.46,0,0,1-35.27-33.15L24.73,67.1A37.83,37.83,0,0,1,62.32,26.53h0A37.84,37.84,0,0,1,99.91,67.1l-2.32,33.75A35.46,35.46,0,0,1,62.32,134Z"/><path class="cls-2" d="M83.72,33.27a37.85,37.85,0,0,1,6.71,24.28L88.11,91.3a35.47,35.47,0,0,1-35.28,33.15,35,35,0,0,1-19.77-6.13,35.27,35.27,0,0,0,64.53-17.47L99.91,67.1A38,38,0,0,0,83.72,33.27Z"/><path class="cls-3" d="M.15,67.1C-2.34,30.82,26.21,0,62.32,0h0V67.1Z"/><path class="cls-4" d="M12.44,67.1C10.44,38,33.35,13.26,62.32,13.26h0V67.1Z"/><path class="cls-5" d="M24.73,67.1A37.83,37.83,0,0,1,62.32,26.53h0V67.1Z"/><rect class="cls-6" x="24.73" y="66.13" width="75.18" height="1.95"/><rect class="cls-6" x="61.35" y="26.53" width="1.94" height="40.58"/><rect class="cls-1" x="58.94" y="49.81" width="6.76" height="22.16" rx="0.87"/><path class="cls-6" d="M62.32,73A4.37,4.37,0,0,1,58,68.57V53.21a4.35,4.35,0,1,1,8.7,0V68.57A4.37,4.37,0,0,1,62.32,73Zm0-22.16a2.42,2.42,0,0,0-2.41,2.42V68.57a2.41,2.41,0,1,0,4.82,0V53.21A2.42,2.42,0,0,0,62.32,50.79Z"/></g></g></svg>