<svg xmlns="http://www.w3.org/2000/svg" viewBox="0 0 53 53"><defs><style>.cls-1{opacity:0.65;}.cls-2{fill:#fff;}.cls-3{fill:none;}</style></defs><g id="레이어_2" data-name="레이어 2"><g id="레이어_2-2" data-name="레이어 2"><circle class="cls-1" cx="26.5" cy="26.5" r="26"/><path class="cls-2" d="M26.5,53A26.5,26.5,0,1,1,53,26.5,26.53,26.53,0,0,1,26.5,53Zm0-52A25.5,25.5,0,1,0,52,26.5,25.53,25.53,0,0,0,26.5,1Z"/><rect class="cls-2" x="34.43" y="34.84" width="2.59" height="2.96" transform="translate(-15.22 35.9) rotate(-45)"/><rect class="cls-2" x="26.38" y="19.57" width="2.59" height="17.39" transform="translate(-11.88 27.85) rotate(-45)"/><rect class="cls-2" x="15.09" y="16.47" width="2.59" height="1" transform="translate(-7.21 16.55) rotate(-45)"/><path class="cls-3" d="M18.34,22.78a.39.39,0,0,0,.28.12.4.4,0,0,0,.29-.12A.4.4,0,0,1,18.34,22.78Z"/><path class="cls-3" d="M22.19,18.94l-2.27-2.28-.14-.08.14.08Z"/><path class="cls-2" d="M30.93,13.77a9,9,0,0,0-2.74-.19,15.13,15.13,0,0,0-7,2.51L23.06,18A24.57,24.57,0,0,1,30.93,13.77Z"/><path class="cls-2" d="M13,30.65a6.74,6.74,0,0,0,.15.88v0a17.88,17.88,0,0,1,.58-1.71,25.43,25.43,0,0,1,3.61-6.13l-1.89-1.89A14.05,14.05,0,0,0,13,30.65Z"/><path class="cls-2" d="M19.92,16.66l-.14-.08a.37.37,0,0,0-.15,0,.43.43,0,0,0-.28.11l-3.28,3.28a.4.4,0,0,0,0,.57l2.27,2.27a.4.4,0,0,0,.57,0l3.28-3.28a.4.4,0,0,0,0-.56Z"/></g></g></svg>