<svg xmlns="http://www.w3.org/2000/svg" xmlns:xlink="http://www.w3.org/1999/xlink" viewBox="0 0 200 179.57"><defs><style>.cls-1{isolation:isolate;}.cls-2{fill:url(#무제_그라디언트_2782);}.cls-3{fill:url(#무제_그라디언트_2782-2);}.cls-4{fill:url(#무제_그라디언트_2782-3);}.cls-5{fill:url(#무제_그라디언트_2782-4);}.cls-6{fill:url(#무제_그라디언트_2782-5);}.cls-7{fill:url(#무제_그라디언트_2782-6);}.cls-8{fill:url(#무제_그라디언트_2782-7);}.cls-9{fill:url(#무제_그라디언트_2782-8);}.cls-10{fill:url(#무제_그라디언트_2782-9);}.cls-11{fill:url(#무제_그라디언트_2782-10);}.cls-12{fill:url(#무제_그라디언트_2782-11);}.cls-13{fill:url(#무제_그라디언트_2782-12);}.cls-14{fill:url(#未命名漸層_9);}.cls-15{fill:url(#무제_그라디언트_2782-13);}.cls-16{fill:url(#무제_그라디언트_2782-14);}.cls-17{fill:url(#무제_그라디언트_2782-15);}.cls-18{fill:url(#무제_그라디언트_2782-16);}.cls-19{fill:url(#무제_그라디언트_2782-17);}.cls-20{fill:url(#무제_그라디언트_2782-18);}.cls-21{fill:url(#무제_그라디언트_2782-19);}.cls-22{fill:url(#무제_그라디언트_2782-20);}.cls-23{fill:url(#무제_그라디언트_2782-21);}.cls-24{fill:url(#未命名漸層_7);}.cls-25{fill:url(#무제_그라디언트_2782-22);}.cls-26{fill:url(#무제_그라디언트_2782-23);}.cls-27{fill:url(#무제_그라디언트_2782-24);}.cls-28{fill:url(#무제_그라디언트_2782-25);}.cls-29{fill:url(#무제_그라디언트_2782-26);}.cls-30{fill:url(#무제_그라디언트_2782-27);}.cls-31{fill:url(#무제_그라디언트_2782-28);}.cls-32{fill:url(#무제_그라디언트_2782-29);}.cls-33{fill:url(#무제_그라디언트_2782-30);}.cls-34{fill:url(#무제_그라디언트_2782-31);}.cls-35{fill:url(#무제_그라디언트_2782-32);}.cls-36{fill:url(#무제_그라디언트_2782-33);}.cls-37{fill:url(#未命名漸層_9-2);}.cls-38{fill:url(#무제_그라디언트_2782-34);}.cls-39{fill:url(#무제_그라디언트_2782-35);}.cls-40{fill:url(#무제_그라디언트_2782-36);}.cls-41{fill:url(#무제_그라디언트_2782-37);}.cls-42{fill:url(#무제_그라디언트_2782-38);}.cls-43{fill:url(#무제_그라디언트_2782-39);}.cls-44{fill:url(#무제_그라디언트_2782-40);}.cls-45{fill:url(#무제_그라디언트_2782-41);}.cls-46{fill:url(#무제_그라디언트_2782-42);}.cls-47{fill:url(#未命名漸層_7-2);}.cls-48{fill:url(#未命名漸層_6);}.cls-49{fill:url(#未命名漸層_6-2);}.cls-50{fill:url(#未命名漸層_6-3);}.cls-51{fill:url(#未命名漸層_6-4);}.cls-52{fill:url(#未命名漸層_6-5);}.cls-53{fill:#822700;}.cls-54{fill:url(#무제_그라디언트_2778);}.cls-55{fill:url(#무제_그라디언트_2778-2);}.cls-56{fill:url(#무제_그라디언트_2778-3);}.cls-57{fill:url(#무제_그라디언트_2778-4);}.cls-58{fill:url(#무제_그라디언트_2778-5);}.cls-59{fill:url(#무제_그라디언트_2778-6);}.cls-60{fill:url(#무제_그라디언트_2778-7);}.cls-61{fill:url(#무제_그라디언트_2778-8);}.cls-62{fill:url(#未命名漸層_2);}.cls-63{fill:url(#未命名漸層_4);}.cls-64{fill:url(#未命名漸層_3);}.cls-65{fill:url(#무제_그라디언트_2729);}.cls-66{mix-blend-mode:screen;}.cls-67{fill:url(#무제_그라디언트_71);}.cls-68{fill:url(#무제_그라디언트_74);}.cls-69{fill:url(#무제_그라디언트_74-2);}.cls-70{fill:url(#무제_그라디언트_71-2);}.cls-71{fill:url(#무제_그라디언트_74-3);}.cls-72{fill:url(#무제_그라디언트_74-4);}.cls-73{fill:url(#무제_그라디언트_71-3);}.cls-74{fill:url(#무제_그라디언트_74-5);}.cls-75{fill:url(#무제_그라디언트_74-6);}.cls-76{fill:url(#무제_그라디언트_71-4);}.cls-77{fill:url(#무제_그라디언트_74-7);}.cls-78{fill:url(#무제_그라디언트_74-8);}</style><linearGradient id="무제_그라디언트_2782" x1="51.27" y1="23.86" x2="45.4" y2="39.26" gradientUnits="userSpaceOnUse"><stop offset="0" stop-color="#954200"/><stop offset="0.04" stop-color="#9b4a04"/><stop offset="0.11" stop-color="#aa5f0e"/><stop offset="0.15" stop-color="#b87218"/><stop offset="0.26" stop-color="#a85206"/><stop offset="0.29" stop-color="#a34700"/><stop offset="0.43" stop-color="#a34000"/><stop offset="0.55" stop-color="#a84400"/><stop offset="0.66" stop-color="#a85200"/><stop offset="0.75" stop-color="#842800"/><stop offset="0.78" stop-color="#6b1d00"/><stop offset="0.83" stop-color="#3f0800"/><stop offset="0.85" stop-color="#2e0000"/><stop offset="0.86" stop-color="#2d0000"/><stop offset="0.95" stop-color="#0c0000"/><stop offset="1"/></linearGradient><linearGradient id="무제_그라디언트_2782-2" x1="40.96" y1="28" x2="35.09" y2="48.17" xlink:href="#무제_그라디언트_2782"/><linearGradient id="무제_그라디언트_2782-3" x1="23.53" y1="169.66" x2="50.13" y2="163.47" xlink:href="#무제_그라디언트_2782"/><linearGradient id="무제_그라디언트_2782-4" x1="10.27" y1="151.86" x2="37.76" y2="150.75" xlink:href="#무제_그라디언트_2782"/><linearGradient id="무제_그라디언트_2782-5" x1="5.14" y1="134.06" x2="28.28" y2="138.64" xlink:href="#무제_그라디언트_2782"/><linearGradient id="무제_그라디언트_2782-6" x1="2.92" y1="117.75" x2="21.69" y2="124.89" xlink:href="#무제_그라디언트_2782"/><linearGradient id="무제_그라디언트_2782-7" x1="1.13" y1="100.99" x2="17.93" y2="110.7" xlink:href="#무제_그라디언트_2782"/><linearGradient id="무제_그라디언트_2782-8" x1="4.48" y1="83.17" x2="18.94" y2="98" xlink:href="#무제_그라디언트_2782"/><linearGradient id="무제_그라디언트_2782-9" x1="-133.63" y1="162.53" x2="-124.72" y2="180.55" gradientTransform="translate(132.29 -104.39) rotate(-3.94)" xlink:href="#무제_그라디언트_2782"/><linearGradient id="무제_그라디언트_2782-10" x1="-38.6" y1="88.89" x2="-31.56" y2="107.18" gradientTransform="matrix(1, -0.03, 0.03, 1, 51.9, -38.1)" xlink:href="#무제_그라디언트_2782"/><linearGradient id="무제_그라디언트_2782-11" x1="110.26" y1="32.42" x2="109.24" y2="53.48" gradientTransform="matrix(0.94, 0, 0, 1, -75.49, 6.05)" xlink:href="#무제_그라디언트_2782"/><linearGradient id="무제_그라디언트_2782-12" x1="62.09" y1="34.57" x2="48.17" y2="37.6" xlink:href="#무제_그라디언트_2782"/><linearGradient id="未命名漸層_9" x1="55.95" y1="42.62" x2="38.87" y2="43.31" gradientUnits="userSpaceOnUse"><stop offset="0" stop-color="#7f1600"/><stop offset="0.03" stop-color="#841e02"/><stop offset="0.07" stop-color="#913308"/><stop offset="0.12" stop-color="#a65611"/><stop offset="0.15" stop-color="#b87218"/><stop offset="0.26" stop-color="#a85206"/><stop offset="0.29" stop-color="#a34700"/><stop offset="0.43" stop-color="#a34000"/><stop offset="0.55" stop-color="#a84400"/><stop offset="0.66" stop-color="#a85200"/><stop offset="0.75" stop-color="#842800"/><stop offset="0.78" stop-color="#6b1d00"/><stop offset="0.83" stop-color="#3f0800"/><stop offset="0.85" stop-color="#2e0000"/><stop offset="0.85" stop-color="#2d0000"/><stop offset="0.92" stop-color="#0c0000"/><stop offset="0.96"/></linearGradient><linearGradient id="무제_그라디언트_2782-13" x1="135.1" y1="142.92" x2="131.58" y2="164.65" gradientTransform="matrix(0.95, 0, 0, 1, -72.29, -0.75)" xlink:href="#무제_그라디언트_2782"/><linearGradient id="무제_그라디언트_2782-14" x1="61.59" y1="135.2" x2="59.25" y2="157.93" gradientTransform="matrix(0.99, 0, 0, 1, -17.91, -3.01)" xlink:href="#무제_그라디언트_2782"/><linearGradient id="무제_그라디언트_2782-15" x1="36.85" y1="120.56" x2="28.78" y2="139.27" xlink:href="#무제_그라디언트_2782"/><linearGradient id="무제_그라디언트_2782-16" x1="33.54" y1="108.47" x2="21.06" y2="124.61" xlink:href="#무제_그라디언트_2782"/><linearGradient id="무제_그라디언트_2782-17" x1="73.97" y1="222.6" x2="59.34" y2="237.23" gradientTransform="matrix(0.99, -0.02, -0.02, 0.95, -38.42, -115.8)" xlink:href="#무제_그라디언트_2782"/><linearGradient id="무제_그라디언트_2782-18" x1="33.07" y1="82.44" x2="16.7" y2="91.91" xlink:href="#무제_그라디언트_2782"/><linearGradient id="무제_그라디언트_2782-19" x1="37.53" y1="70.22" x2="20.34" y2="77.33" xlink:href="#무제_그라디언트_2782"/><linearGradient id="무제_그라디언트_2782-20" x1="447.05" y1="637.3" x2="430.25" y2="640.06" gradientTransform="matrix(0.95, -0.07, -0.12, 0.83, -307.14, -437.07)" xlink:href="#무제_그라디언트_2782"/><linearGradient id="무제_그라디언트_2782-21" x1="346.88" y1="184.5" x2="329.49" y2="187.35" gradientTransform="matrix(0.98, 0.03, -0.12, 0.91, -268.02, -127.61)" xlink:href="#무제_그라디언트_2782"/><linearGradient id="未命名漸層_7" x1="29.97" y1="23.23" x2="58.34" y2="195.89" gradientUnits="userSpaceOnUse"><stop offset="0" stop-color="#7f1600"/><stop offset="0.02" stop-color="#8f3007"/><stop offset="0.07" stop-color="#ad6013"/><stop offset="0.09" stop-color="#b87218"/><stop offset="0.16" stop-color="#a85206"/><stop offset="0.18" stop-color="#a34700"/><stop offset="0.26" stop-color="#a34000"/><stop offset="0.27" stop-color="#852c00"/><stop offset="0.29" stop-color="#681900"/><stop offset="0.31" stop-color="#530b00"/><stop offset="0.33" stop-color="#460300"/><stop offset="0.34" stop-color="#420000"/><stop offset="0.36" stop-color="#560d00"/><stop offset="0.39" stop-color="#822b00"/><stop offset="0.42" stop-color="#9e3d00"/><stop offset="0.44" stop-color="#a84400"/><stop offset="0.47" stop-color="#a84c00"/><stop offset="0.52" stop-color="#a85200"/><stop offset="0.59" stop-color="#500000"/><stop offset="0.72" stop-color="#b85e00"/><stop offset="0.76" stop-color="#8e4100"/><stop offset="0.84" stop-color="#491200"/><stop offset="0.88" stop-color="#2e0000"/><stop offset="0.89" stop-color="#370000"/><stop offset="0.89" stop-color="#3d0000"/><stop offset="0.94" stop-color="#7a3300"/><stop offset="0.98" stop-color="#a75900"/><stop offset="1" stop-color="#b86700"/></linearGradient><linearGradient id="무제_그라디언트_2782-22" x1="-2934.86" y1="23.86" x2="-2940.73" y2="39.26" gradientTransform="matrix(-1, 0, 0, 1, -2795.8, 0)" xlink:href="#무제_그라디언트_2782"/><linearGradient id="무제_그라디언트_2782-23" x1="-2945.17" y1="28" x2="-2951.04" y2="48.17" gradientTransform="matrix(-1, 0, 0, 1, -2795.8, 0)" xlink:href="#무제_그라디언트_2782"/><linearGradient id="무제_그라디언트_2782-24" x1="-2962.59" y1="169.66" x2="-2936" y2="163.47" gradientTransform="matrix(-1, 0, 0, 1, -2795.8, 0)" xlink:href="#무제_그라디언트_2782"/><linearGradient id="무제_그라디언트_2782-25" x1="-2975.86" y1="151.86" x2="-2948.37" y2="150.75" gradientTransform="matrix(-1, 0, 0, 1, -2795.8, 0)" xlink:href="#무제_그라디언트_2782"/><linearGradient id="무제_그라디언트_2782-26" x1="-2980.98" y1="134.06" x2="-2957.84" y2="138.64" gradientTransform="matrix(-1, 0, 0, 1, -2795.8, 0)" xlink:href="#무제_그라디언트_2782"/><linearGradient id="무제_그라디언트_2782-27" x1="-2983.21" y1="117.75" x2="-2964.44" y2="124.89" gradientTransform="matrix(-1, 0, 0, 1, -2795.8, 0)" xlink:href="#무제_그라디언트_2782"/><linearGradient id="무제_그라디언트_2782-28" x1="-2985" y1="100.99" x2="-2968.2" y2="110.7" gradientTransform="matrix(-1, 0, 0, 1, -2795.8, 0)" xlink:href="#무제_그라디언트_2782"/><linearGradient id="무제_그라디언트_2782-29" x1="-2981.64" y1="83.17" x2="-2967.19" y2="98" gradientTransform="matrix(-1, 0, 0, 1, -2795.8, 0)" xlink:href="#무제_그라디언트_2782"/><linearGradient id="무제_그라디언트_2782-30" x1="-3112.81" y1="-42.63" x2="-3103.9" y2="-24.61" gradientTransform="matrix(-1, -0.07, -0.07, 1, -2928.09, -104.39)" xlink:href="#무제_그라디언트_2782"/><linearGradient id="무제_그라디언트_2782-31" x1="-3023.56" y1="10.36" x2="-3016.52" y2="28.65" gradientTransform="matrix(-1, -0.03, -0.03, 1, -2847.7, -38.1)" xlink:href="#무제_그라디언트_2782"/><linearGradient id="무제_그라디언트_2782-32" x1="-3063.51" y1="47.34" x2="-3064.53" y2="68.4" gradientTransform="matrix(-0.94, 0, 0, 1, -2720.31, 6.05)" xlink:href="#무제_그라디언트_2782"/><linearGradient id="무제_그라디언트_2782-33" x1="-2924.04" y1="34.57" x2="-2937.96" y2="37.6" gradientTransform="matrix(-1, 0, 0, 1, -2795.8, 0)" xlink:href="#무제_그라디언트_2782"/><linearGradient id="未命名漸層_9-2" x1="-2930.17" y1="42.62" x2="-2947.26" y2="43.31" gradientTransform="matrix(-1, 0, 0, 1, -2795.8, 0)" xlink:href="#未命名漸層_9"/><linearGradient id="무제_그라디언트_2782-34" x1="-3006.07" y1="139.89" x2="-3009.67" y2="162.1" gradientTransform="matrix(-0.95, 0, 0, 1, -2723.52, -0.75)" xlink:href="#무제_그라디언트_2782"/><linearGradient id="무제_그라디언트_2782-35" x1="-2954.38" y1="130.93" x2="-2956.61" y2="152.62" gradientTransform="matrix(-0.99, 0, 0, 1, -2777.89, -3.01)" xlink:href="#무제_그라디언트_2782"/><linearGradient id="무제_그라디언트_2782-36" x1="-2949.28" y1="120.56" x2="-2957.35" y2="139.27" gradientTransform="matrix(-1, 0, 0, 1, -2795.8, 0)" xlink:href="#무제_그라디언트_2782"/><linearGradient id="무제_그라디언트_2782-37" x1="-2952.59" y1="108.47" x2="-2965.06" y2="124.61" gradientTransform="matrix(-1, 0, 0, 1, -2795.8, 0)" xlink:href="#무제_그라디언트_2782"/><linearGradient id="무제_그라디언트_2782-38" x1="-2928.23" y1="173.77" x2="-2942.85" y2="188.4" gradientTransform="matrix(-0.99, -0.02, 0.02, 0.95, -2757.38, -115.8)" xlink:href="#무제_그라디언트_2782"/><linearGradient id="무제_그라디언트_2782-39" x1="-2953.06" y1="82.44" x2="-2969.43" y2="91.91" gradientTransform="matrix(-1, 0, 0, 1, -2795.8, 0)" xlink:href="#무제_그라디언트_2782"/><linearGradient id="무제_그라디언트_2782-40" x1="-2948.6" y1="70.22" x2="-2965.79" y2="77.33" gradientTransform="matrix(-1, 0, 0, 1, -2795.8, 0)" xlink:href="#무제_그라디언트_2782"/><linearGradient id="무제_그라디언트_2782-41" x1="-2731.97" y1="376.19" x2="-2748.77" y2="378.95" gradientTransform="matrix(-0.95, -0.07, 0.12, 0.83, -2488.67, -437.07)" xlink:href="#무제_그라디언트_2782"/><linearGradient id="무제_그라디언트_2782-42" x1="-2703.18" y1="287.36" x2="-2720.57" y2="290.21" gradientTransform="matrix(-0.98, 0.03, 0.12, 0.91, -2527.79, -127.61)" xlink:href="#무제_그라디언트_2782"/><linearGradient id="未命名漸層_7-2" x1="-2956.16" y1="23.23" x2="-2927.79" y2="195.89" gradientTransform="matrix(-1, 0, 0, 1, -2795.8, 0)" xlink:href="#未命名漸層_7"/><linearGradient id="未命名漸層_6" x1="95.16" y1="169.02" x2="95.16" y2="182.05" gradientUnits="userSpaceOnUse"><stop offset="0.12" stop-color="#801700"/><stop offset="0.2" stop-color="#811a00"/><stop offset="0.26" stop-color="#832300"/><stop offset="0.28" stop-color="#842800"/><stop offset="0.41" stop-color="#a34700"/><stop offset="0.45" stop-color="#ab5609"/><stop offset="0.55" stop-color="#b87218"/><stop offset="0.59" stop-color="#b66e16"/><stop offset="0.63" stop-color="#b16010"/><stop offset="0.67" stop-color="#a74b05"/><stop offset="0.68" stop-color="#a34000"/><stop offset="0.83" stop-color="#842800"/><stop offset="0.96" stop-color="#650900"/><stop offset="1" stop-color="#5b0000"/></linearGradient><linearGradient id="未命名漸層_6-2" x1="72.36" y1="169.97" x2="72.36" y2="179.56" xlink:href="#未命名漸層_6"/><linearGradient id="未命名漸層_6-3" x1="82.88" y1="171.44" x2="82.88" y2="184.47" xlink:href="#未命名漸層_6"/><linearGradient id="未命名漸層_6-4" x1="-2936.71" y1="169.97" x2="-2936.71" y2="179.56" gradientTransform="matrix(-1, 0, 0, 1, -2818.76, 0)" xlink:href="#未命名漸層_6"/><linearGradient id="未命名漸層_6-5" x1="-2926.2" y1="171.44" x2="-2926.2" y2="184.47" gradientTransform="matrix(-1, 0, 0, 1, -2818.76, 0)" xlink:href="#未命名漸層_6"/><linearGradient id="무제_그라디언트_2778" x1="72.72" y1="6.85" x2="117.73" y2="6.85" gradientUnits="userSpaceOnUse"><stop offset="0" stop-color="#773100"/><stop offset="0.04" stop-color="#7b3603"/><stop offset="0.09" stop-color="#87440b"/><stop offset="0.14" stop-color="#9b5c19"/><stop offset="0.19" stop-color="#b67d2c"/><stop offset="0.23" stop-color="#ce9a3d"/><stop offset="0.34" stop-color="#9f4e00"/><stop offset="0.47" stop-color="#9e4900"/><stop offset="0.62" stop-color="#a24c00"/><stop offset="0.66" stop-color="#ab5d0a"/><stop offset="0.72" stop-color="#b46f16"/><stop offset="0.84" stop-color="#823200"/><stop offset="1" stop-color="#773100"/></linearGradient><linearGradient id="무제_그라디언트_2778-2" x1="72.71" y1="24.83" x2="117.76" y2="24.83" xlink:href="#무제_그라디언트_2778"/><linearGradient id="무제_그라디언트_2778-3" x1="72.71" y1="13.1" x2="117.76" y2="13.1" xlink:href="#무제_그라디언트_2778"/><linearGradient id="무제_그라디언트_2778-4" x1="72.71" y1="6.95" x2="117.76" y2="6.95" xlink:href="#무제_그라디언트_2778"/><linearGradient id="무제_그라디언트_2778-5" x1="72.71" y1="6.95" x2="117.76" y2="6.95" xlink:href="#무제_그라디언트_2778"/><linearGradient id="무제_그라디언트_2778-6" x1="72.71" y1="13.1" x2="117.76" y2="13.1" xlink:href="#무제_그라디언트_2778"/><linearGradient id="무제_그라디언트_2778-7" x1="72.71" y1="1.12" x2="117.76" y2="1.12" xlink:href="#무제_그라디언트_2778"/><linearGradient id="무제_그라디언트_2778-8" x1="72.71" y1="12.96" x2="117.76" y2="12.96" xlink:href="#무제_그라디언트_2778"/><linearGradient id="未命名漸層_2" x1="128.53" y1="49.15" x2="62.64" y2="145.85" gradientUnits="userSpaceOnUse"><stop offset="0" stop-color="#b88617"/><stop offset="0.01" stop-color="#b78116"/><stop offset="0.04" stop-color="#ae600c"/><stop offset="0.08" stop-color="#a74805"/><stop offset="0.11" stop-color="#a33901"/><stop offset="0.14" stop-color="#a23400"/><stop offset="0.19" stop-color="#a23700"/><stop offset="0.22" stop-color="#a34000"/><stop offset="0.23" stop-color="#a34700"/><stop offset="0.3" stop-color="#a85505"/><stop offset="0.5" stop-color="#b47912"/><stop offset="0.6" stop-color="#b88617"/><stop offset="0.9" stop-color="#923200"/><stop offset="1" stop-color="#8a1300"/></linearGradient><linearGradient id="未命名漸層_4" x1="93.19" y1="90.98" x2="113.19" y2="145.72" gradientUnits="userSpaceOnUse"><stop offset="0.13" stop-color="#801700"/><stop offset="0.19" stop-color="#821a00"/><stop offset="0.23" stop-color="#8a2300"/><stop offset="0.26" stop-color="#973400"/><stop offset="0.3" stop-color="#a94a00"/><stop offset="0.32" stop-color="#b85d00"/><stop offset="0.38" stop-color="#b45900"/><stop offset="0.44" stop-color="#a74b00"/><stop offset="0.45" stop-color="#a34700"/><stop offset="0.55" stop-color="#9e3a00"/><stop offset="0.65" stop-color="#a84400"/><stop offset="0.73" stop-color="#b37110"/><stop offset="0.77" stop-color="#b88617"/><stop offset="0.83" stop-color="#b78417"/><stop offset="0.85" stop-color="#b37d15"/><stop offset="0.86" stop-color="#ad7212"/><stop offset="0.87" stop-color="#a3610e"/><stop offset="0.88" stop-color="#974b08"/><stop offset="0.89" stop-color="#883002"/><stop offset="0.89" stop-color="#842800"/><stop offset="0.98" stop-color="#650900"/><stop offset="1" stop-color="#5b0000"/></linearGradient><linearGradient id="未命名漸層_3" x1="83.31" y1="57.59" x2="99.7" y2="100.53" gradientUnits="userSpaceOnUse"><stop offset="0.04" stop-color="#801700"/><stop offset="0.1" stop-color="#831a00"/><stop offset="0.16" stop-color="#8b2400"/><stop offset="0.2" stop-color="#983500"/><stop offset="0.25" stop-color="#ab4d00"/><stop offset="0.28" stop-color="#b85d00"/><stop offset="0.32" stop-color="#b45900"/><stop offset="0.37" stop-color="#a74b00"/><stop offset="0.38" stop-color="#a34700"/><stop offset="0.53" stop-color="#9e3a00"/><stop offset="0.65" stop-color="#a84400"/><stop offset="0.75" stop-color="#b37110"/><stop offset="0.8" stop-color="#b88617"/><stop offset="0.83" stop-color="#a97013"/><stop offset="1" stop-color="#5b0000"/></linearGradient><linearGradient id="무제_그라디언트_2729" x1="128.53" y1="49.15" x2="62.64" y2="145.85" gradientUnits="userSpaceOnUse"><stop offset="0" stop-color="#e0ad62"/><stop offset="0" stop-color="#dfac61"/><stop offset="0.03" stop-color="#ca813e"/><stop offset="0.06" stop-color="#b86023"/><stop offset="0.09" stop-color="#ac4810"/><stop offset="0.12" stop-color="#a53904"/><stop offset="0.14" stop-color="#a23400"/><stop offset="0.19" stop-color="#a23700"/><stop offset="0.22" stop-color="#a34000"/><stop offset="0.23" stop-color="#a34700"/><stop offset="0.4" stop-color="#c37c33"/><stop offset="0.53" stop-color="#d8a055"/><stop offset="0.6" stop-color="#e0ad62"/><stop offset="0.63" stop-color="#d9a25a"/><stop offset="0.9" stop-color="#923200"/><stop offset="1" stop-color="#8a1300"/></linearGradient><radialGradient id="무제_그라디언트_71" cx="18.02" cy="50.66" r="7.98" gradientTransform="translate(20.1 -15.49) rotate(-0.58)" gradientUnits="userSpaceOnUse"><stop offset="0" stop-color="#fff"/><stop offset="0.03" stop-color="#fff" stop-opacity="0.96"/><stop offset="0.24" stop-color="#fff" stop-opacity="0.67"/><stop offset="0.44" stop-color="#fff" stop-opacity="0.43"/><stop offset="0.62" stop-color="#fff" stop-opacity="0.25"/><stop offset="0.78" stop-color="#fff" stop-opacity="0.11"/><stop offset="0.91" stop-color="#fff" stop-opacity="0.03"/><stop offset="1" stop-color="#fff" stop-opacity="0"/></radialGradient><radialGradient id="무제_그라디언트_74" cx="18.37" cy="50.81" r="38.07" gradientTransform="translate(20.1 -15.49) rotate(-0.58)" gradientUnits="userSpaceOnUse"><stop offset="0" stop-color="#fff"/><stop offset="0.08" stop-color="#fff" stop-opacity="0.82"/><stop offset="0.17" stop-color="#fff" stop-opacity="0.63"/><stop offset="0.26" stop-color="#fff" stop-opacity="0.46"/><stop offset="0.36" stop-color="#fff" stop-opacity="0.32"/><stop offset="0.46" stop-color="#fff" stop-opacity="0.2"/><stop offset="0.57" stop-color="#fff" stop-opacity="0.11"/><stop offset="0.69" stop-color="#fff" stop-opacity="0.05"/><stop offset="0.82" stop-color="#fff" stop-opacity="0.01"/><stop offset="1" stop-color="#fff" stop-opacity="0"/></radialGradient><radialGradient id="무제_그라디언트_74-2" cx="1055.9" cy="-1512.87" r="24.98" gradientTransform="matrix(0.71, 0.7, -0.7, 0.71, -1774.1, 376.75)" xlink:href="#무제_그라디언트_74"/><radialGradient id="무제_그라디언트_71-2" cx="209.42" cy="123.57" r="2.39" gradientTransform="translate(-38.36 26.61) rotate(1.12)" xlink:href="#무제_그라디언트_71"/><radialGradient id="무제_그라디언트_74-3" cx="209.52" cy="123.62" r="11.4" gradientTransform="translate(-38.36 26.61) rotate(1.12)" xlink:href="#무제_그라디언트_74"/><radialGradient id="무제_그라디언트_74-4" cx="1243.16" cy="-1596.42" r="7.48" gradientTransform="matrix(0.69, 0.72, -0.72, 0.69, -1843.74, 364.86)" xlink:href="#무제_그라디언트_74"/><radialGradient id="무제_그라디언트_71-3" cx="217.66" cy="117.81" r="5.43" gradientTransform="translate(-38.36 26.61) rotate(1.12)" xlink:href="#무제_그라디언트_71"/><radialGradient id="무제_그라디언트_74-5" cx="217.89" cy="117.91" r="25.9" gradientTransform="translate(-38.36 26.61) rotate(1.12)" xlink:href="#무제_그라디언트_74"/><radialGradient id="무제_그라디언트_74-6" cx="1245.04" cy="-1606.37" r="17" gradientTransform="matrix(0.69, 0.72, -0.72, 0.69, -1843.74, 364.86)" xlink:href="#무제_그라디언트_74"/><radialGradient id="무제_그라디언트_71-4" cx="151.81" cy="28.8" r="7.6" gradientTransform="translate(-38.36 26.61) rotate(1.12)" xlink:href="#무제_그라디언트_71"/><radialGradient id="무제_그라디언트_74-7" cx="152.14" cy="28.94" r="36.23" gradientTransform="translate(-38.36 26.61) rotate(1.12)" xlink:href="#무제_그라디언트_74"/><radialGradient id="무제_그라디언트_74-8" cx="1135.64" cy="-1622.79" r="23.78" gradientTransform="matrix(0.69, 0.72, -0.72, 0.69, -1843.74, 364.86)" xlink:href="#무제_그라디언트_74"/></defs><g class="cls-1"><g id="레이어_2" data-name="레이어 2"><g id="레이어_2-2" data-name="레이어 2"><path class="cls-2" d="M52.23,25.86c-.08-.48-2.84.51-3.71,1a7.77,7.77,0,0,0-4,4,9.28,9.28,0,0,0,0,5.73,4,4,0,0,0,1.24,1.61c.6.35,1.13-.31,2.81-1.33C48.67,36.87,53.69,34.55,52.23,25.86ZM46.69,37.74l-.58-.16A18.36,18.36,0,0,1,50,29.48S47.12,34.53,46.69,37.74Z"/><path class="cls-3" d="M37.12,46.75h-.35a24,24,0,0,1,1.67-11.63s-1.54,7.19-.91,11.41c.65-.42,1.3-1.15,2.16-1.66,0,0,7.09-3.55.32-15.35-.32-.55-3.86,2.23-4.14,2.51a11.28,11.28,0,0,0-3.33,7,9.79,9.79,0,0,0,2.8,7.22A1.57,1.57,0,0,0,37.12,46.75Z"/><path class="cls-4" d="M29.78,167c12.84-3.09,18.6-3.45,20.64-3.43a16.91,16.91,0,0,0-9.09-4.81c-7-1.25-12.27.47-18.59,9,0,0,15,16.69,29.35-2.2a11.29,11.29,0,0,0-.81-1C44,165.3,29.78,167,29.78,167Z"/><path class="cls-5" d="M37.42,154.1a4.51,4.51,0,0,0-.26-.73c-4.15-2.46-20.81-2.43-20.81-2.43,16.93-1.91,19.67.67,19.67.67l1.13,1.72c-.6-1.42-2.43-4.56-7.54-7.33-5.78-3.14-13.16-2-19.71,3.95C9.9,150,21.28,165.54,37.42,154.1Z"/><path class="cls-6" d="M19.06,142.77a10.72,10.72,0,0,0,7.73-2.23,4.11,4.11,0,0,0,.1-1.52c-5.16-1.61-17-3.87-17-3.87,10.43.77,14.92,1.89,16.74,2.54-.5-1.48.19-2.23-3.48-5-4.55-3.42-11.12-3.53-18.71.36C4.4,133.07,7.13,142.06,19.06,142.77Z"/><path class="cls-7" d="M13.94,127.57a15.18,15.18,0,0,0,7.29-1.07,5.09,5.09,0,0,0,.07-1.6l0,.38c-3.67-2.36-14.79-5.88-14.79-5.88,10,1.43,13.72,3.74,14.63,4.4a11.38,11.38,0,0,0-3.88-5.89c-4-3.54-8.76-4.54-16-1.35C1.19,116.56,3.62,126.78,13.94,127.57Z"/><path class="cls-8" d="M9.16,111.69a20.12,20.12,0,0,0,7.58.24,5.67,5.67,0,0,0,.13-.69c-2.39-2.71-9.82-7.41-9.82-7.41,6.48,2.56,9,4.9,9.91,6a11.29,11.29,0,0,0-2.19-6.55c-2.83-4-8-5.55-14.77-3.23C0,100.06,0,109.41,9.16,111.69Z"/><path class="cls-9" d="M11.11,96.87a15.72,15.72,0,0,0,5.67.8s.18.21.46-.92A118.24,118.24,0,0,1,7.7,85.38c6.36,6.36,9.17,9.17,9.79,10a22.81,22.81,0,0,0-.43-6.36c-1.1-4-5.55-7.2-12.66-7.7C4.4,81.35,1.47,93.27,11.11,96.87Z"/><path class="cls-10" d="M20.13,83.74s.82-2.62.5-8.55c-.24-4.54-4.22-8.1-10.32-9.4,0,0-4.35,7.9.85,14A10.1,10.1,0,0,0,20.13,83.74Zm-.57-1.54-.48.61c-2.45-4.28-5.75-11.25-5.75-11.25C20.18,81.35,19.56,82.2,19.56,82.2Z"/><path class="cls-11" d="M22.07,69.1l.21-.16C20.42,64.54,18,57.71,18,57.71c3.79,7.74,4.59,10.08,4.76,10.75.78-.91,2-2.93,2.09-7,.14-4.58-2.75-8.17-9-10.94,0,0-5.79,7.42-.05,15A9.31,9.31,0,0,0,22.07,69.1Z"/><path class="cls-12" d="M28.39,59.09s2.19-.85,4.3-6.4c1.62-4.23.17-9.07-4.44-13.87,0,0-8,3.61-4.87,14.44C23.94,55.23,25.84,57.45,28.39,59.09Zm-.63-12.46c1,9.25,2.42,10.24,2.42,10.24l-.59.73C27.27,53.66,27.76,46.63,27.76,46.63Z"/><path class="cls-13" d="M51,34.8c-1.16,1.18-1.8,1.48-1.63,2a3.36,3.36,0,0,0,1.08,1.32,7.73,7.73,0,0,0,4.68,1.13,6.53,6.53,0,0,0,4.05-2.45c.54-.63,1.88-2.7,1.5-2.86C53.87,31.13,51,34.8,51,34.8Zm6.28.35A15.29,15.29,0,0,1,50,36.75l0-.5C52.63,36.51,57.3,35.15,57.3,35.15Z"/><path class="cls-14" d="M41.28,43.15l0,.28a19.5,19.5,0,0,0,9.52-.89s-5.91,1-9.31.28c.36-.51,1-1,1.44-1.69,0,0,3.16-5.62,12.48.36.44.28-2,3-2.21,3.26a9.17,9.17,0,0,1-5.81,2.43,8,8,0,0,1-5.76-2.57A1.25,1.25,0,0,1,41.28,43.15Z"/><path class="cls-15" d="M54.39,148.66c-2.43,9.83-2.76,14.25-2.78,15.82a13.35,13.35,0,0,1-3.39-7c-.82-5.42.71-10.11,7-14.86,0,0,12.69,11.18-2.2,23.21a8.23,8.23,0,0,1-.76-.64C53,159.6,54.39,148.66,54.39,148.66Z"/><path class="cls-16" d="M41.59,155.93a5.28,5.28,0,0,1-.54-.3c-1.33-3.64,1.07-16.82,1.07-16.82-3.91,13.13-2.28,15.66-2.28,15.66L41,155.61c-1-.68-3.23-2.56-4.68-7-1.63-5,.59-11.41,6.19-15.75C42.54,132.86,53.58,143.7,41.59,155.93Z"/><path class="cls-17" d="M36.23,136.83a8.28,8.28,0,0,1-5.74,3.66,4.44,4.44,0,0,1-1.29-.76c1.23-4.66,5.23-14.6,5.23-14.6-4.26,7.85-5.17,11.15-5.63,12.71a8.15,8.15,0,0,1-2.48-5.24c-.55-4.94,2-8.63,9.36-12.73C35.68,119.87,42.19,128.67,36.23,136.83Z"/><path class="cls-18" d="M28.66,122.68a12.94,12.94,0,0,1-6.05,2.43,4.83,4.83,0,0,1-.84-1.13l.21.26c1.54-3.52,8-11.54,8-11.54-6.62,5.92-8.26,9.45-8.61,10.38a10.07,10.07,0,0,1,0-6.23c1.23-4.56,4.21-7.87,11.14-8.82C32.49,108,36.77,117.51,28.66,122.68Z"/><path class="cls-19" d="M26,107.83a20.56,20.56,0,0,1-6.66,2.43,6.51,6.51,0,0,1-.33-.58c1.33-3.15,6.54-9.56,6.54-9.56-5,4.2-6.55,7-7,8.31a10.83,10.83,0,0,1,0-6.55c1.34-4.44,5.64-7.44,12.35-7.71C30.83,94.17,34.44,103,26,107.83Z"/><path class="cls-20" d="M22.74,93.65a13.07,13.07,0,0,1-5-.35,4.24,4.24,0,0,1-.28-1.55,51.3,51.3,0,0,1,10.37-7.4c-6.85,2.52-9.35,4.61-10.26,5.79A14.28,14.28,0,0,1,19,85.81c1.69-3.29,6.56-5.56,12.78-4.7C31.81,81.11,32.78,91.86,22.74,93.65Z"/><path class="cls-21" d="M28.54,78.65c6.89-1.47,7.87-8.34,7.87-8.34-5-1.94-9.71-1.52-12.24,1.19C20.87,75.05,20.1,77,20.1,77,21.21,78,24.07,79.61,28.54,78.65Zm3.62-6.35s-6.94,3.21-10.7,4.83l-.05-.45S22.77,74.82,32.16,72.3Z"/><path class="cls-22" d="M26.15,64.6l.06-.18c3.9-.75,9.81-2.16,9.81-2.16A78,78,0,0,0,26.41,64c.43-.82,1.54-2.35,4.52-4.09,3.38-2,7-1.79,11.15.67,0,0-3.63,6.42-11.19,6.24A6.11,6.11,0,0,1,26.15,64.6Z"/><path class="cls-23" d="M33.1,53.87a1.79,1.79,0,0,1,.06-.2c4-.4,10.07-1.31,10.07-1.31-7.22.33-9.29.67-9.86.81.43-.87,1.57-2.46,4.62-4.06,3.46-1.83,7.2-1.21,11.46,2,0,0-3.7,6.76-11.47,5.7A7,7,0,0,1,33.1,53.87Z"/><path class="cls-24" d="M58.69,171.75c-.54-.25-1.24-.64-2.09-1.12C46,164.75,15.41,143,16.75,98.22,18.22,49.31,58.33,30,58.33,30,35.58,43.2,19,69.42,19,98.21a79.39,79.39,0,0,0,40.13,69.38S65,170.53,64,172.37C64,172.37,63.65,174,58.69,171.75Z"/><path class="cls-25" d="M141.65,36.87c1.69,1,2.21,1.68,2.82,1.33a4.2,4.2,0,0,0,1.24-1.61,9.2,9.2,0,0,0,0-5.73,7.75,7.75,0,0,0-3.94-4c-.87-.46-3.63-1.45-3.72-1C136.63,34.55,141.65,36.87,141.65,36.87Zm-1.28-7.39a18.4,18.4,0,0,1,3.84,8.1l-.58.16C143.21,34.53,140.37,29.48,140.37,29.48Z"/><path class="cls-26" d="M153.21,46.75h.35a24.14,24.14,0,0,0-1.67-11.63s1.54,7.19.9,11.41c-.65-.42-1.3-1.15-2.16-1.66,0,0-7.09-3.55-.32-15.35.32-.55,3.87,2.23,4.14,2.51a11.29,11.29,0,0,1,3.34,7A9.85,9.85,0,0,1,155,46.25,1.56,1.56,0,0,1,153.21,46.75Z"/><path class="cls-27" d="M160.55,167c-12.84-3.09-18.6-3.45-20.64-3.43a16.87,16.87,0,0,1,9.08-4.81c7-1.25,12.27.47,18.59,9,0,0-15,16.69-29.35-2.2a13,13,0,0,1,.82-1C146.29,165.3,160.55,167,160.55,167Z"/><path class="cls-28" d="M152.91,154.1a5,5,0,0,1,.25-.73c4.15-2.46,20.82-2.43,20.82-2.43-16.94-1.91-19.67.67-19.67.67l-1.13,1.72c.6-1.42,2.42-4.56,7.54-7.33,5.77-3.14,13.15-2,19.7,3.95C180.42,150,169.05,165.54,152.91,154.1Z"/><path class="cls-29" d="M171.27,142.77a10.73,10.73,0,0,1-7.74-2.23,4.27,4.27,0,0,1-.09-1.52c5.15-1.61,17-3.87,17-3.87-10.42.77-14.92,1.89-16.73,2.54.49-1.48-.2-2.23,3.47-5,4.56-3.42,11.12-3.53,18.71.36C185.92,133.07,183.19,142.06,171.27,142.77Z"/><path class="cls-30" d="M176.38,127.57a15.14,15.14,0,0,1-7.28-1.07,5.25,5.25,0,0,1-.08-1.6l0,.38c3.66-2.36,14.79-5.88,14.79-5.88-10,1.43-13.73,3.74-14.64,4.4a11.38,11.38,0,0,1,3.88-5.89c4-3.54,8.76-4.54,16-1.35C189.13,116.56,186.7,126.78,176.38,127.57Z"/><path class="cls-31" d="M181.16,111.69a20.08,20.08,0,0,1-7.57.24,4.48,4.48,0,0,1-.14-.69c2.39-2.71,9.83-7.41,9.83-7.41-6.49,2.56-9,4.9-9.91,6a11.19,11.19,0,0,1,2.18-6.55c2.84-4,8-5.55,14.77-3.23C190.32,100.06,190.32,109.41,181.16,111.69Z"/><path class="cls-32" d="M179.22,96.87a15.81,15.81,0,0,1-5.68.8s-.17.21-.46-.92a116.62,116.62,0,0,0,9.54-11.37c-6.36,6.36-9.17,9.17-9.78,10a22.07,22.07,0,0,1,.43-6.36c1.1-4,5.55-7.2,12.65-7.7C185.92,81.35,188.86,93.27,179.22,96.87Z"/><path class="cls-33" d="M179.17,79.83c5.2-6.14.84-14,.84-14-6.1,1.3-10.07,4.86-10.32,9.4-.32,5.93.5,8.55.5,8.55C171.91,84,175.79,83.8,179.17,79.83ZM177,71.56s-3.31,7-5.75,11.25l-.49-.61S170.15,81.35,177,71.56Z"/><path class="cls-34" d="M168.25,69.1a1.9,1.9,0,0,1-.2-.16c1.85-4.4,4.29-11.23,4.29-11.23-3.79,7.74-4.59,10.08-4.75,10.75-.78-.91-2-2.93-2.1-7-.14-4.58,2.75-8.17,9-10.94,0,0,5.8,7.42,0,15A9.29,9.29,0,0,1,168.25,69.1Z"/><path class="cls-35" d="M166.94,53.26c3.11-10.83-4.87-14.44-4.87-14.44-4.61,4.8-6,9.64-4.44,13.87,2.11,5.55,4.3,6.4,4.3,6.4C164.48,57.45,166.38,55.23,166.94,53.26Zm-6.21,4.34-.59-.73s1.47-1,2.42-10.24C162.56,46.63,163.05,53.66,160.73,57.6Z"/><path class="cls-36" d="M129.63,34c-.38.16,1,2.23,1.49,2.86a6.56,6.56,0,0,0,4,2.45,7.71,7.71,0,0,0,4.68-1.13,3.36,3.36,0,0,0,1.08-1.32c.17-.56-.46-.86-1.62-2C139.31,34.8,136.46,31.13,129.63,34Zm10.77,2.27,0,.5a15.34,15.34,0,0,1-7.36-1.6S137.69,36.51,140.4,36.25Z"/><path class="cls-37" d="M149,43.15l0,.28a19.54,19.54,0,0,1-9.53-.89s5.91,1,9.32.28c-.37-.51-1-1-1.44-1.69,0,0-3.17-5.62-12.49.36-.44.28,2,3,2.21,3.26A9.17,9.17,0,0,0,143,47.18a8,8,0,0,0,5.76-2.57A1.25,1.25,0,0,0,149,43.15Z"/><path class="cls-38" d="M135.21,148.29c2.48,10.05,2.82,14.57,2.84,16.17a13.5,13.5,0,0,0,3.46-7.19c.84-5.55-.72-10.33-7.17-15.19,0,0-13,11.42,2.25,23.72a8.74,8.74,0,0,0,.77-.65C136.66,159.47,135.21,148.29,135.21,148.29Z"/><path class="cls-39" d="M148.34,156a3.31,3.31,0,0,0,.52-.29c1.27-3.47-1-16.05-1-16.05,3.73,12.53,2.18,15,2.18,15l-1.14,1.08c1-.64,3.08-2.44,4.46-6.68,1.56-4.78-.56-10.88-5.91-15C147.43,134,136.9,144.33,148.34,156Z"/><path class="cls-40" d="M154.1,136.83c1.74,2.39,3.12,3,5.74,3.66a4.33,4.33,0,0,0,1.28-.76c-1.22-4.66-5.23-14.6-5.23-14.6,4.26,7.85,5.18,11.15,5.64,12.71A8.19,8.19,0,0,0,164,132.6c.55-4.94-2-8.63-9.35-12.73C154.65,119.87,148.14,128.67,154.1,136.83Z"/><path class="cls-41" d="M161.66,122.68a12.94,12.94,0,0,0,6.06,2.43,4.67,4.67,0,0,0,.83-1.13l-.2.26c-1.55-3.52-8-11.54-8-11.54,6.63,5.92,8.27,9.45,8.61,10.38a10.05,10.05,0,0,0,0-6.23c-1.24-4.56-4.21-7.87-11.14-8.82C157.84,108,153.56,117.51,161.66,122.68Z"/><path class="cls-42" d="M164.36,107.83a20.65,20.65,0,0,0,6.66,2.43,6.51,6.51,0,0,0,.33-.58c-1.32-3.15-6.54-9.56-6.54-9.56,5,4.2,6.55,7,7,8.31a10.76,10.76,0,0,0,0-6.55c-1.33-4.44-5.64-7.44-12.34-7.71C159.5,94.17,155.89,103,164.36,107.83Z"/><path class="cls-43" d="M167.59,93.65a13,13,0,0,0,5-.35,4.34,4.34,0,0,0,.29-1.55,51.6,51.6,0,0,0-10.37-7.4c6.85,2.52,9.34,4.61,10.25,5.79a14.28,14.28,0,0,0-1.51-4.33c-1.68-3.29-6.55-5.56-12.78-4.7C158.51,81.11,157.54,91.86,167.59,93.65Z"/><path class="cls-44" d="M170.23,77s-.78-2-4.08-5.54c-2.53-2.71-7.21-3.13-12.24-1.19,0,0,1,6.87,7.88,8.34A9.85,9.85,0,0,0,170.23,77Zm-1.32-.36,0,.45c-3.77-1.62-10.71-4.83-10.71-4.83C167.55,74.82,168.91,76.68,168.91,76.68Z"/><path class="cls-45" d="M164.17,64.6s0-.07-.06-.18c-3.9-.75-9.8-2.16-9.8-2.16a78,78,0,0,1,9.6,1.69c-.42-.82-1.54-2.35-4.52-4.09-3.38-2-7-1.79-11.14.67,0,0,3.63,6.42,11.18,6.24A6.11,6.11,0,0,0,164.17,64.6Z"/><path class="cls-46" d="M157.22,53.87a1.79,1.79,0,0,0-.06-.2c-4-.4-10.07-1.31-10.07-1.31,7.23.33,9.3.67,9.87.81-.43-.87-1.57-2.46-4.62-4.06-3.47-1.83-7.21-1.21-11.46,2,0,0,3.69,6.76,11.46,5.7A7,7,0,0,0,157.22,53.87Z"/><path class="cls-47" d="M131.63,171.75c.55-.25,1.25-.64,2.1-1.12,10.59-5.88,41.19-27.61,39.84-72.41C172.1,49.31,132,30,132,30c22.74,13.21,39.37,39.43,39.37,68.22a79.37,79.37,0,0,1-40.13,69.38s-5.94,2.94-4.93,4.78C126.31,172.37,126.68,174,131.63,171.75Z"/><polygon class="cls-48" points="95.16 167.33 96.68 172 101.59 172 97.62 174.89 99.14 179.57 95.16 176.68 91.19 179.57 92.7 174.89 88.73 172 93.64 172 95.16 167.33"/><polygon class="cls-49" points="72.36 170.55 72.87 172.11 74.52 172.11 73.19 173.08 73.69 174.64 72.36 173.68 71.03 174.64 71.54 173.08 70.21 172.11 71.86 172.11 72.36 170.55"/><polygon class="cls-50" points="82.88 172.23 83.57 174.36 85.81 174.36 84 175.67 84.69 177.79 82.88 176.48 81.07 177.79 81.76 175.67 79.96 174.36 82.19 174.36 82.88 172.23"/><polygon class="cls-51" points="117.96 170.55 117.45 172.11 115.81 172.11 117.14 173.08 116.63 174.64 117.96 173.68 119.29 174.64 118.78 173.08 120.11 172.11 118.47 172.11 117.96 170.55"/><polygon class="cls-52" points="107.44 172.23 106.75 174.36 104.52 174.36 106.33 175.67 105.64 177.79 107.44 176.48 109.25 177.79 108.56 175.67 110.37 174.36 108.13 174.36 107.44 172.23"/><polygon class="cls-53" points="65.19 27.68 66.25 29.14 67.96 28.59 66.89 30.04 67.95 31.5 66.24 30.94 65.17 32.39 65.18 30.59 63.47 30.02 65.19 29.48 65.19 27.68"/><polygon class="cls-53" points="124.46 27.68 123.41 29.14 121.7 28.59 122.76 30.04 121.71 31.5 123.42 30.94 124.48 32.39 124.48 30.59 126.19 30.02 124.47 29.48 124.46 27.68"/><path class="cls-54" d="M82.46,6.72c0,.1,0,.16,0,.26l.14,0Z"/><path class="cls-55" d="M95.16,21.86c-7.92,0-14.53,1.54-19.25,4.45l.71,1.49c4.47-2.8,10.84-4.29,18.54-4.29S109.24,25,113.7,27.8l.71-1.5C109.69,23.4,103.08,21.86,95.16,21.86Z"/><path class="cls-56" d="M71.18,13.1A1.13,1.13,0,1,1,70.05,12,1.13,1.13,0,0,1,71.18,13.1Z"/><path class="cls-57" d="M83.69,7a1.13,1.13,0,1,1-1.13-1.13A1.13,1.13,0,0,1,83.69,7Z"/><path class="cls-58" d="M108.89,7a1.13,1.13,0,1,1-1.13-1.13A1.13,1.13,0,0,1,108.89,7Z"/><path class="cls-59" d="M121.4,13.1A1.13,1.13,0,1,1,120.27,12,1.13,1.13,0,0,1,121.4,13.1Z"/><path class="cls-60" d="M96.29,1.12A1.13,1.13,0,1,1,95.16,0,1.13,1.13,0,0,1,96.29,1.12Z"/><path class="cls-61" d="M111.26,15.47s-2.71-.34-3.36-8.49l-.14,0c-.49,1.08-3.33,5-6.9,3.92,0,0-4.55-1.51-5.7-9.75-1.22,8.86-5.7,9.75-5.7,9.75C85.89,12,83.05,8,82.56,7l-.14,0c-.65,8.15-3.36,8.49-3.36,8.49-4.53,2.27-9-2.37-9-2.37l5.53,11.69C80.18,21.67,86.9,20,95.16,20s15,1.67,19.59,4.79l5.52-11.69S115.79,17.74,111.26,15.47ZM85.79,18.15A1.24,1.24,0,1,1,87,16.91,1.24,1.24,0,0,1,85.79,18.15Zm9.37-1a2.27,2.27,0,1,1,2.27-2.27A2.26,2.26,0,0,1,95.16,17.12Zm9.37,1a1.24,1.24,0,1,1,1.24-1.24A1.23,1.23,0,0,1,104.53,18.15Z"/><path class="cls-62" d="M117.62,96.35a22.44,22.44,0,0,0-9.87-9c6.23-3.13,9.4-9,9.4-17.42,0-6.26-2.23-10.89-6.47-14.16a24.31,24.31,0,0,0-14.11-4c-11.17,0-19.52,6.94-25,20.69l2.7,1.91c3.76-7.9,8.23-11.84,13.29-11.84a13.31,13.31,0,0,1,9.41,3.54c2.35,2.45,3.64,5.71,3.64,10.07,0,8.57-5.26,14.36-15.62,17.53-.17,0-.31.12-.49.17v2.45q11.3,3.87,16.23,7.76,7.75,6.12,7.76,17.15c0,8.55-3.78,12.87-11.23,13.26-.38,0-.72.08-1.12.08-3.88,0-7.52-1.77-10.81-5.44s-6.59-5.31-9.41-5.31a6.26,6.26,0,0,0-4.82,2.31,8.5,8.5,0,0,0-2.12,5.72c0,4.63,2.24,7.9,6.82,9.8a29.59,29.59,0,0,0,11.76,2.18c9.52,0,17.4-2.72,23.63-8.3q10.25-9.19,10.23-25.33A26.31,26.31,0,0,0,117.62,96.35Z"/><path class="cls-63" d="M111.87,128.52c4.31-6.74,1.88-17.76-3-23.6-5.21-6.3-14.76-9.18-24.46-8.57q11.3,3.87,16.23,7.76,7.75,6.12,7.76,17.15c0,8.55-3.78,12.87-11.23,13.26A13.19,13.19,0,0,0,111.87,128.52Z"/><path class="cls-64" d="M103,80c3.28-12.13-3.27-19.87-12.45-20.32C81,59.2,76.18,65.47,74.23,74.43c3.76-7.9,8.23-11.84,13.29-11.84a13.31,13.31,0,0,1,9.41,3.54c2.35,2.45,3.64,5.71,3.64,10.07,0,8.57-5.26,14.36-15.62,17.53C92.37,93,100.65,88.76,103,80Z"/><path class="cls-65" d="M117.62,96.35a22.44,22.44,0,0,0-9.87-9c6.23-3.13,9.4-9,9.4-17.42,0-6.26-2.23-10.89-6.47-14.16a24.31,24.31,0,0,0-14.11-4c-11.17,0-19.52,6.94-25,20.69l2.7,1.91c2-9,6.74-15.23,16.33-14.75,9.18.45,15.73,8.19,12.45,20.32C100.65,88.76,92.37,93,85,93.73c-.17,0-.31.12-.49.17v2.45c9.7-.61,19.25,2.27,24.46,8.57,4.83,5.84,7.26,16.86,3,23.6a13.19,13.19,0,0,1-14.65,6c-.38,0-.72.08-1.12.08-3.88,0-7.52-1.77-10.81-5.44s-6.59-5.31-9.41-5.31a6.26,6.26,0,0,0-4.82,2.31,8.5,8.5,0,0,0-2.12,5.72c0,4.63,2.24,7.9,6.82,9.8a29.59,29.59,0,0,0,11.76,2.18c9.52,0,17.4-2.72,23.63-8.3q10.25-9.19,10.23-25.33A26.31,26.31,0,0,0,117.62,96.35Z"/><g class="cls-66"><path class="cls-67" d="M45.67,34.91a7,7,0,1,1-7.1-7A7,7,0,0,1,45.67,34.91Z"/><polygon class="cls-68" points="38.65 1.6 39.58 34.52 72.51 34.78 39.59 35.72 39.33 68.65 38.4 35.73 5.47 35.47 38.39 34.53 38.65 1.6"/><polygon class="cls-69" points="54.39 19.41 39.55 35.12 54.7 50.52 39 35.68 23.59 50.84 38.44 35.13 23.27 19.73 38.98 34.57 54.39 19.41"/></g><g class="cls-66"><path class="cls-70" d="M170.72,154.29a2.11,2.11,0,1,1-2.07-2.15A2.12,2.12,0,0,1,170.72,154.29Z"/><polygon class="cls-71" points="168.91 144.25 168.9 154.12 178.75 154.49 168.89 154.47 168.52 164.33 168.53 154.47 158.68 154.1 168.54 154.11 168.91 144.25"/><polygon class="cls-72" points="173.47 149.72 168.88 154.29 173.28 159.04 168.71 154.46 163.97 158.86 168.55 154.29 164.15 149.54 168.72 154.13 173.47 149.72"/></g><g class="cls-66"><path class="cls-73" d="M181.74,148.74a4.78,4.78,0,1,1-4.69-4.88A4.78,4.78,0,0,1,181.74,148.74Z"/><polygon class="cls-74" points="177.64 125.94 177.61 148.35 200 149.19 177.59 149.16 176.75 171.56 176.78 149.15 154.39 148.31 176.8 148.34 177.64 125.94"/><polygon class="cls-75" points="187.99 138.37 177.57 148.76 187.57 159.54 177.19 149.13 166.41 159.13 176.82 148.74 166.82 137.96 177.2 148.37 187.99 138.37"/></g><g class="cls-66"><path class="cls-76" d="M119.55,58.5A6.69,6.69,0,1,1,113,51.68,6.69,6.69,0,0,1,119.55,58.5Z"/><polygon class="cls-77" points="113.81 26.61 113.77 57.96 145.09 59.14 113.75 59.09 112.57 90.42 112.61 59.07 81.28 57.89 112.63 57.94 113.81 26.61"/><polygon class="cls-78" points="128.28 44 113.72 58.53 127.71 73.61 113.18 59.04 98.09 73.03 112.66 58.51 98.67 43.42 113.2 57.99 128.28 44"/></g></g></g></g></svg>