<svg xmlns="http://www.w3.org/2000/svg" xmlns:xlink="http://www.w3.org/1999/xlink" viewBox="0 0 200 186.2"><metadata><?xpacket begin="﻿" id="W5M0MpCehiHzreSzNTczkc9d"?>
<x:xmpmeta xmlns:x="adobe:ns:meta/" x:xmptk="Adobe XMP Core 7.1-c000 79.4d2f597, 2021/09/01-20:51:22        ">
   <rdf:RDF xmlns:rdf="http://www.w3.org/1999/02/22-rdf-syntax-ns#">
      <rdf:Description rdf:about=""
            xmlns:xmp="http://ns.adobe.com/xap/1.0/"
            xmlns:xmpMM="http://ns.adobe.com/xap/1.0/mm/"
            xmlns:stEvt="http://ns.adobe.com/xap/1.0/sType/ResourceEvent#">
         <xmp:MetadataDate>2022-02-28T18:09:34+09:00</xmp:MetadataDate>
         <xmp:Rating>4</xmp:Rating>
         <xmpMM:InstanceID>xmp.iid:77adc6b8-170d-4a46-a7d5-ae2850343b31</xmpMM:InstanceID>
         <xmpMM:DocumentID>xmp.did:5954eead-5558-1b48-a0f6-970d60b0d42d</xmpMM:DocumentID>
         <xmpMM:OriginalDocumentID>xmp.did:5954eead-5558-1b48-a0f6-970d60b0d42d</xmpMM:OriginalDocumentID>
         <xmpMM:History>
            <rdf:Seq>
               <rdf:li>
                  <rdf:Description>
                     <stEvt:action>saved</stEvt:action>
                     <stEvt:instanceID>xmp.iid:5954eead-5558-1b48-a0f6-970d60b0d42d</stEvt:instanceID>
                     <stEvt:when>2022-02-28T17:59:41+09:00</stEvt:when>
                     <stEvt:softwareAgent>Adobe Bridge 2022 (Windows)</stEvt:softwareAgent>
                     <stEvt:changed>/metadata</stEvt:changed>
                  </rdf:Description>
               </rdf:li>
               <rdf:li>
                  <rdf:Description>
                     <stEvt:action>saved</stEvt:action>
                     <stEvt:instanceID>xmp.iid:77adc6b8-170d-4a46-a7d5-ae2850343b31</stEvt:instanceID>
                     <stEvt:when>2022-02-28T18:09:34+09:00</stEvt:when>
                     <stEvt:softwareAgent>Adobe Bridge 2022 (Windows)</stEvt:softwareAgent>
                     <stEvt:changed>/metadata</stEvt:changed>
                  </rdf:Description>
               </rdf:li>
            </rdf:Seq>
         </xmpMM:History>
      </rdf:Description>
   </rdf:RDF>
</x:xmpmeta>
                                                                                                    
                                                                                                    
                                                                                                    
                                                                                                    
                                                                                                    
                                                                                                    
                                                                                                    
                                                                                                    
                                                                                                    
                                                                                                    
                                                                                                    
                                                                                                    
                                                                                                    
                                                                                                    
                                                                                                    
                         
<?xpacket end="w"?></metadata>
<defs><style>.cls-1{isolation:isolate;}.cls-2{fill:url(#무제_그라디언트_71);}.cls-3{fill:url(#무제_그라디언트_74);}.cls-4,.cls-98{opacity:0.6;}.cls-4{fill:url(#무제_그라디언트_74-2);}.cls-5{mix-blend-mode:screen;}.cls-6{fill:url(#무제_그라디언트_71-2);}.cls-7{fill:url(#무제_그라디언트_74-3);}.cls-8{fill:url(#무제_그라디언트_74-4);}.cls-9{fill:url(#무제_그라디언트_71-3);}.cls-10{fill:url(#무제_그라디언트_74-5);}.cls-11{fill:url(#무제_그라디언트_74-6);}.cls-12{fill:url(#未命名漸層_421);}.cls-13{fill:url(#未命名漸層_421-2);}.cls-14{fill:url(#未命名漸層_421-3);}.cls-15{fill:url(#未命名漸層_421-4);}.cls-16{fill:url(#未命名漸層_421-5);}.cls-17{fill:url(#未命名漸層_421-6);}.cls-18{fill:url(#未命名漸層_421-7);}.cls-19{fill:url(#未命名漸層_421-8);}.cls-20{fill:url(#未命名漸層_421-9);}.cls-21{fill:url(#未命名漸層_421-10);}.cls-22{fill:url(#未命名漸層_421-11);}.cls-23{fill:url(#未命名漸層_421-12);}.cls-24{fill:url(#未命名漸層_422);}.cls-25{fill:url(#未命名漸層_421-13);}.cls-26{fill:url(#未命名漸層_421-14);}.cls-27{fill:url(#未命名漸層_421-15);}.cls-28{fill:url(#未命名漸層_421-16);}.cls-29{fill:url(#未命名漸層_421-17);}.cls-30{fill:url(#未命名漸層_421-18);}.cls-31{fill:url(#未命名漸層_421-19);}.cls-32{fill:url(#未命名漸層_421-20);}.cls-33{fill:url(#未命名漸層_421-21);}.cls-34{fill:url(#未命名漸層_420);}.cls-35{fill:url(#未命名漸層_421-22);}.cls-36{fill:url(#未命名漸層_421-23);}.cls-37{fill:url(#未命名漸層_421-24);}.cls-38{fill:url(#未命名漸層_421-25);}.cls-39{fill:url(#未命名漸層_421-26);}.cls-40{fill:url(#未命名漸層_421-27);}.cls-41{fill:url(#未命名漸層_421-28);}.cls-42{fill:url(#未命名漸層_421-29);}.cls-43{fill:url(#未命名漸層_421-30);}.cls-44{fill:url(#未命名漸層_421-31);}.cls-45{fill:url(#未命名漸層_421-32);}.cls-46{fill:url(#未命名漸層_421-33);}.cls-47{fill:url(#未命名漸層_422-2);}.cls-48{fill:url(#未命名漸層_421-34);}.cls-49{fill:url(#未命名漸層_421-35);}.cls-50{fill:url(#未命名漸層_421-36);}.cls-51{fill:url(#未命名漸層_421-37);}.cls-52{fill:url(#未命名漸層_421-38);}.cls-53{fill:url(#未命名漸層_421-39);}.cls-54{fill:url(#未命名漸層_421-40);}.cls-55{fill:url(#未命名漸層_421-41);}.cls-56{fill:url(#未命名漸層_421-42);}.cls-57{fill:url(#未命名漸層_420-2);}.cls-58{fill:url(#未命名漸層_1036);}.cls-59{fill:url(#未命名漸層_1036-2);}.cls-60{fill:url(#未命名漸層_1036-3);}.cls-61{fill:url(#未命名漸層_1036-4);}.cls-62{fill:url(#未命名漸層_1036-5);}.cls-63{fill:#c98d00;}.cls-64{fill:url(#未命名漸層_1105);}.cls-65{fill:url(#未命名漸層_1105-2);}.cls-66{fill:url(#未命名漸層_1105-3);}.cls-67{fill:url(#未命名漸層_1105-4);}.cls-68{fill:url(#未命名漸層_1105-5);}.cls-69{fill:url(#未命名漸層_1105-6);}.cls-70{fill:url(#未命名漸層_1105-7);}.cls-71{fill:url(#未命名漸層_1105-8);}.cls-72{fill:url(#未命名漸層_1105-9);}.cls-73{fill:url(#未命名漸層_1105-10);}.cls-74{fill:url(#未命名漸層_1105-11);}.cls-75{fill:url(#未命名漸層_1105-12);}.cls-76{fill:url(#未命名漸層_1105-13);}.cls-77{fill:url(#未命名漸層_1105-14);}.cls-78{fill:url(#未命名漸層_1105-15);}.cls-79{fill:url(#未命名漸層_1105-16);}.cls-80{fill:url(#未命名漸層_1105-17);}.cls-81{fill:url(#未命名漸層_1105-18);}.cls-82{fill:url(#未命名漸層_1105-19);}.cls-83{fill:url(#未命名漸層_1105-20);}.cls-84{fill:url(#未命名漸層_1105-21);}.cls-85{fill:url(#未命名漸層_1105-22);}.cls-86{fill:url(#未命名漸層_1105-23);}.cls-87{fill:url(#未命名漸層_1105-24);}.cls-88{fill:url(#未命名漸層_1105-25);}.cls-89{fill:url(#未命名漸層_1105-26);}.cls-90{fill:url(#未命名漸層_1105-27);}.cls-91{fill:url(#未命名漸層_1105-28);}.cls-92{fill:url(#未命名漸層_1016);}.cls-93{fill:url(#未命名漸層_1244);}.cls-94{fill:url(#未命名漸層_1016-2);}.cls-95{fill:url(#未命名漸層_1016-3);}.cls-96{fill:url(#무제_그라디언트_71-4);}.cls-97{fill:url(#무제_그라디언트_74-7);}.cls-98{fill:url(#무제_그라디언트_74-8);}</style><radialGradient id="무제_그라디언트_71" cx="17.91" cy="52.73" r="7.98" gradientTransform="translate(20.2 -10.92) rotate(-0.58)" gradientUnits="userSpaceOnUse"><stop offset="0" stop-color="#fff"/><stop offset="0.03" stop-color="#fff" stop-opacity="0.96"/><stop offset="0.24" stop-color="#fff" stop-opacity="0.67"/><stop offset="0.44" stop-color="#fff" stop-opacity="0.43"/><stop offset="0.62" stop-color="#fff" stop-opacity="0.25"/><stop offset="0.78" stop-color="#fff" stop-opacity="0.11"/><stop offset="0.91" stop-color="#fff" stop-opacity="0.03"/><stop offset="1" stop-color="#fff" stop-opacity="0"/></radialGradient><radialGradient id="무제_그라디언트_74" cx="18.26" cy="52.88" r="38.07" gradientTransform="translate(20.2 -10.92) rotate(-0.58)" gradientUnits="userSpaceOnUse"><stop offset="0" stop-color="#fff"/><stop offset="0.08" stop-color="#fff" stop-opacity="0.82"/><stop offset="0.17" stop-color="#fff" stop-opacity="0.63"/><stop offset="0.26" stop-color="#fff" stop-opacity="0.46"/><stop offset="0.36" stop-color="#fff" stop-opacity="0.32"/><stop offset="0.46" stop-color="#fff" stop-opacity="0.2"/><stop offset="0.57" stop-color="#fff" stop-opacity="0.11"/><stop offset="0.69" stop-color="#fff" stop-opacity="0.05"/><stop offset="0.82" stop-color="#fff" stop-opacity="0.01"/><stop offset="1" stop-color="#fff" stop-opacity="0"/></radialGradient><radialGradient id="무제_그라디언트_74-2" cx="1191.84" cy="-1196.02" r="24.98" gradientTransform="matrix(0.71, 0.7, -0.7, 0.71, -1649.44, 61.91)" xlink:href="#무제_그라디언트_74"/><radialGradient id="무제_그라디언트_71-2" cx="209.72" cy="138.94" r="2.39" gradientTransform="translate(-38.36 17.88) rotate(1.12)" xlink:href="#무제_그라디언트_71"/><radialGradient id="무제_그라디언트_74-3" cx="209.83" cy="138.99" r="11.4" gradientTransform="translate(-38.36 17.88) rotate(1.12)" xlink:href="#무제_그라디언트_74"/><radialGradient id="무제_그라디언트_74-4" cx="1388.79" cy="-1270.44" r="7.48" gradientTransform="matrix(0.69, 0.72, -0.72, 0.69, -1709.73, 40.56)" xlink:href="#무제_그라디언트_74"/><radialGradient id="무제_그라디언트_71-3" cx="217.96" cy="133.18" r="5.43" gradientTransform="translate(-38.36 17.88) rotate(1.12)" xlink:href="#무제_그라디언트_71"/><radialGradient id="무제_그라디언트_74-5" cx="218.2" cy="133.28" r="25.9" gradientTransform="translate(-38.36 17.88) rotate(1.12)" xlink:href="#무제_그라디언트_74"/><radialGradient id="무제_그라디언트_74-6" cx="1390.67" cy="-1280.39" r="17" gradientTransform="matrix(0.69, 0.72, -0.72, 0.69, -1709.73, 40.56)" xlink:href="#무제_그라디언트_74"/><linearGradient id="未命名漸層_421" x1="51.27" y1="30.49" x2="45.4" y2="45.9" gradientUnits="userSpaceOnUse"><stop offset="0" stop-color="#c67c16"/><stop offset="0.02" stop-color="#ca821e"/><stop offset="0.06" stop-color="#d59433"/><stop offset="0.11" stop-color="#e7b156"/><stop offset="0.15" stop-color="#ffd884"/><stop offset="0.21" stop-color="#f6c764"/><stop offset="0.29" stop-color="#eaad35"/><stop offset="0.43" stop-color="#eaa623"/><stop offset="0.45" stop-color="#eba726"/><stop offset="0.55" stop-color="#efaa2e"/><stop offset="0.57" stop-color="#efad34"/><stop offset="0.66" stop-color="#efb846"/><stop offset="0.75" stop-color="#cb8e29"/><stop offset="0.78" stop-color="#b27b24"/><stop offset="0.83" stop-color="#865a1b"/><stop offset="0.85" stop-color="#754d18"/><stop offset="0.87" stop-color="#674416"/><stop offset="0.93" stop-color="#33230d"/><stop offset="0.97" stop-color="#120e08"/><stop offset="1" stop-color="#060606"/></linearGradient><linearGradient id="未命名漸層_421-2" x1="40.96" y1="34.63" x2="35.09" y2="54.81" xlink:href="#未命名漸層_421"/><linearGradient id="未命名漸層_421-3" x1="23.53" y1="176.29" x2="50.13" y2="170.11" xlink:href="#未命名漸層_421"/><linearGradient id="未命名漸層_421-4" x1="10.27" y1="158.5" x2="37.76" y2="157.38" xlink:href="#未命名漸層_421"/><linearGradient id="未命名漸層_421-5" x1="5.14" y1="140.69" x2="28.28" y2="145.28" xlink:href="#未命名漸層_421"/><linearGradient id="未命名漸層_421-6" x1="2.92" y1="124.38" x2="21.69" y2="131.53" xlink:href="#未命名漸層_421"/><linearGradient id="未命名漸層_421-7" x1="1.13" y1="107.62" x2="17.93" y2="117.33" xlink:href="#未命名漸層_421"/><linearGradient id="未命名漸層_421-8" x1="4.48" y1="89.8" x2="18.94" y2="104.64" xlink:href="#未命名漸層_421"/><linearGradient id="未命名漸層_421-9" x1="-133.37" y1="138.37" x2="-124.46" y2="156.39" gradientTransform="translate(133.68 -73.63) rotate(-3.94)" xlink:href="#未命名漸層_421"/><linearGradient id="未命名漸層_421-10" x1="-38.73" y1="83.75" x2="-31.68" y2="102.03" gradientTransform="matrix(1, -0.03, 0.03, 1, 52.15, -26.32)" xlink:href="#未命名漸層_421"/><linearGradient id="未命名漸層_421-11" x1="82.05" y1="41.3" x2="81.03" y2="62.36" gradientTransform="matrix(0.94, 0, 0, 1, -49, 3.94)" xlink:href="#未命名漸層_421"/><linearGradient id="未命名漸層_421-12" x1="62.09" y1="41.2" x2="48.17" y2="44.24" xlink:href="#未命名漸層_421"/><linearGradient id="未命名漸層_422" x1="55.95" y1="49.25" x2="38.87" y2="49.95" gradientUnits="userSpaceOnUse"><stop offset="0" stop-color="#c67c16"/><stop offset="0.02" stop-color="#ca821e"/><stop offset="0.06" stop-color="#d59433"/><stop offset="0.11" stop-color="#e7b156"/><stop offset="0.15" stop-color="#ffd884"/><stop offset="0.21" stop-color="#f6c764"/><stop offset="0.29" stop-color="#eaad35"/><stop offset="0.43" stop-color="#eaa623"/><stop offset="0.45" stop-color="#eba726"/><stop offset="0.55" stop-color="#efaa2e"/><stop offset="0.57" stop-color="#efad34"/><stop offset="0.66" stop-color="#efb846"/><stop offset="0.75" stop-color="#cb8e29"/><stop offset="0.78" stop-color="#b27b24"/><stop offset="0.83" stop-color="#865a1b"/><stop offset="0.85" stop-color="#754d18"/><stop offset="0.86" stop-color="#674416"/><stop offset="0.91" stop-color="#33230d"/><stop offset="0.94" stop-color="#120e08"/><stop offset="0.96" stop-color="#060606"/></linearGradient><linearGradient id="未命名漸層_421-13" x1="111.73" y1="149.18" x2="108.22" y2="170.9" gradientTransform="matrix(0.95, 0, 0, 1, -50.07, -0.39)" xlink:href="#未命名漸層_421"/><linearGradient id="未命名漸層_421-14" x1="57.08" y1="141.03" x2="54.74" y2="163.75" gradientTransform="matrix(0.99, 0, 0, 1, -13.44, -2.21)" xlink:href="#未命名漸層_421"/><linearGradient id="未命名漸層_421-15" x1="36.85" y1="127.2" x2="28.78" y2="145.91" xlink:href="#未命名漸層_421"/><linearGradient id="未命名漸層_421-16" x1="33.54" y1="115.1" x2="21.06" y2="131.25" xlink:href="#未命名漸層_421"/><linearGradient id="未命名漸層_421-17" x1="71.75" y1="222.48" x2="57.12" y2="237.11" gradientTransform="matrix(0.99, -0.02, -0.02, 0.95, -36.21, -109.08)" xlink:href="#未命名漸層_421"/><linearGradient id="未命名漸層_421-18" x1="33.07" y1="89.08" x2="16.7" y2="98.55" xlink:href="#未命名漸層_421"/><linearGradient id="未命名漸層_421-19" x1="37.53" y1="76.86" x2="20.34" y2="83.96" xlink:href="#未命名漸層_421"/><linearGradient id="未命名漸層_421-20" x1="419.83" y1="607.25" x2="403.04" y2="610.02" gradientTransform="matrix(0.95, -0.07, -0.12, 0.83, -284.85, -407.38)" xlink:href="#未命名漸層_421"/><linearGradient id="未命名漸層_421-21" x1="338.78" y1="207.59" x2="321.39" y2="210.45" gradientTransform="matrix(0.98, 0.03, -0.12, 0.91, -257.42, -141.82)" xlink:href="#未命名漸層_421"/><linearGradient id="未命名漸層_420" x1="29.97" y1="29.86" x2="58.34" y2="202.52" gradientUnits="userSpaceOnUse"><stop offset="0" stop-color="#c67c16"/><stop offset="0.03" stop-color="#dda142"/><stop offset="0.07" stop-color="#f5c972"/><stop offset="0.09" stop-color="#ffd884"/><stop offset="0.13" stop-color="#f6c764"/><stop offset="0.18" stop-color="#eaad35"/><stop offset="0.21" stop-color="#eaaa2d"/><stop offset="0.26" stop-color="#eaa623"/><stop offset="0.27" stop-color="#cc8f21"/><stop offset="0.29" stop-color="#af771e"/><stop offset="0.31" stop-color="#9a661c"/><stop offset="0.33" stop-color="#8d5c1b"/><stop offset="0.34" stop-color="#89591b"/><stop offset="0.36" stop-color="#9d691f"/><stop offset="0.39" stop-color="#c98c27"/><stop offset="0.42" stop-color="#e5a22c"/><stop offset="0.44" stop-color="#efaa2e"/><stop offset="0.49" stop-color="#efb440"/><stop offset="0.52" stop-color="#efb846"/><stop offset="0.59" stop-color="#97621d"/><stop offset="0.72" stop-color="#ffc44a"/><stop offset="0.76" stop-color="#d5a03b"/><stop offset="0.84" stop-color="#906422"/><stop offset="0.88" stop-color="#754d18"/><stop offset="0.89" stop-color="#7e551b"/><stop offset="0.89" stop-color="#845a1d"/><stop offset="0.94" stop-color="#c19343"/><stop offset="0.98" stop-color="#eebd5f"/><stop offset="1" stop-color="#ffcd6a"/></linearGradient><linearGradient id="未命名漸層_421-22" x1="-2039.04" y1="30.49" x2="-2044.91" y2="45.9" gradientTransform="matrix(-1, 0, 0, 1, -1899.99, 0)" xlink:href="#未命名漸層_421"/><linearGradient id="未命名漸層_421-23" x1="-2049.35" y1="34.63" x2="-2055.22" y2="54.81" gradientTransform="matrix(-1, 0, 0, 1, -1899.99, 0)" xlink:href="#未命名漸層_421"/><linearGradient id="未命名漸層_421-24" x1="-2066.78" y1="176.29" x2="-2040.18" y2="170.11" gradientTransform="matrix(-1, 0, 0, 1, -1899.99, 0)" xlink:href="#未命名漸層_421"/><linearGradient id="未命名漸層_421-25" x1="-2080.04" y1="158.5" x2="-2052.55" y2="157.38" gradientTransform="matrix(-1, 0, 0, 1, -1899.99, 0)" xlink:href="#未命名漸層_421"/><linearGradient id="未命名漸層_421-26" x1="-2085.17" y1="140.69" x2="-2062.03" y2="145.28" gradientTransform="matrix(-1, 0, 0, 1, -1899.99, 0)" xlink:href="#未命名漸層_421"/><linearGradient id="未命名漸層_421-27" x1="-2087.39" y1="124.38" x2="-2068.62" y2="131.53" gradientTransform="matrix(-1, 0, 0, 1, -1899.99, 0)" xlink:href="#未命名漸層_421"/><linearGradient id="未命名漸層_421-28" x1="-2089.18" y1="107.62" x2="-2072.38" y2="117.33" gradientTransform="matrix(-1, 0, 0, 1, -1899.99, 0)" xlink:href="#未命名漸層_421"/><linearGradient id="未命名漸層_421-29" x1="-2085.83" y1="89.8" x2="-2071.37" y2="104.64" gradientTransform="matrix(-1, 0, 0, 1, -1899.99, 0)" xlink:href="#未命名漸層_421"/><linearGradient id="未命名漸層_421-30" x1="-2218.81" y1="-5.24" x2="-2209.91" y2="12.77" gradientTransform="matrix(-1, -0.07, -0.07, 1, -2033.67, -73.63)" xlink:href="#未命名漸層_421"/><linearGradient id="未命名漸層_421-31" x1="-2128.22" y1="28.78" x2="-2121.17" y2="47.06" gradientTransform="matrix(-1, -0.03, -0.03, 1, -1952.14, -26.32)" xlink:href="#未命名漸層_421"/><linearGradient id="未命名漸層_421-32" x1="-2139.61" y1="51.74" x2="-2140.63" y2="72.8" gradientTransform="matrix(-0.94, 0, 0, 1, -1850.99, 3.94)" xlink:href="#未命名漸層_421"/><linearGradient id="未命名漸層_421-33" x1="-2028.22" y1="41.2" x2="-2042.14" y2="44.24" gradientTransform="matrix(-1, 0, 0, 1, -1899.99, 0)" xlink:href="#未命名漸層_421"/><linearGradient id="未命名漸層_422-2" x1="-2034.36" y1="49.25" x2="-2051.44" y2="49.95" gradientTransform="matrix(-1, 0, 0, 1, -1899.99, 0)" xlink:href="#未命名漸層_422"/><linearGradient id="未命名漸層_421-34" x1="-2086.87" y1="146.9" x2="-2090.46" y2="169.11" gradientTransform="matrix(-0.95, 0, 0, 1, -1849.91, -0.39)" xlink:href="#未命名漸層_421"/><linearGradient id="未命名漸層_421-35" x1="-2054.01" y1="138.38" x2="-2056.25" y2="160.08" gradientTransform="matrix(-0.99, 0, 0, 1, -1886.54, -2.21)" xlink:href="#未命名漸層_421"/><linearGradient id="未命名漸層_421-36" x1="-2053.46" y1="127.2" x2="-2061.54" y2="145.91" gradientTransform="matrix(-1, 0, 0, 1, -1899.99, 0)" xlink:href="#未命名漸層_421"/><linearGradient id="未命名漸層_421-37" x1="-2056.77" y1="115.1" x2="-2069.25" y2="131.25" gradientTransform="matrix(-1, 0, 0, 1, -1899.99, 0)" xlink:href="#未命名漸層_421"/><linearGradient id="未命名漸層_421-38" x1="-2029.81" y1="188.29" x2="-2044.44" y2="202.92" gradientTransform="matrix(-0.99, -0.02, 0.02, 0.95, -1863.78, -109.08)" xlink:href="#未命名漸層_421"/><linearGradient id="未命名漸層_421-39" x1="-2057.24" y1="89.08" x2="-2073.61" y2="98.55" gradientTransform="matrix(-1, 0, 0, 1, -1899.99, 0)" xlink:href="#未命名漸層_421"/><linearGradient id="未命名漸層_421-40" x1="-2052.78" y1="76.86" x2="-2069.97" y2="83.96" gradientTransform="matrix(-1, 0, 0, 1, -1899.99, 0)" xlink:href="#未命名漸層_421"/><linearGradient id="未命名漸層_421-41" x1="-1805.5" y1="424.47" x2="-1822.3" y2="427.23" gradientTransform="matrix(-0.95, -0.07, 0.12, 0.83, -1615.14, -407.38)" xlink:href="#未命名漸層_421"/><linearGradient id="未命名漸層_421-42" x1="-1796.29" y1="279.59" x2="-1813.68" y2="282.45" gradientTransform="matrix(-0.98, 0.03, 0.12, 0.91, -1642.57, -141.82)" xlink:href="#未命名漸層_421"/><linearGradient id="未命名漸層_420-2" x1="-2060.34" y1="29.86" x2="-2031.97" y2="202.52" gradientTransform="matrix(-1, 0, 0, 1, -1899.99, 0)" xlink:href="#未命名漸層_420"/><linearGradient id="未命名漸層_1036" x1="95.16" y1="175.66" x2="95.16" y2="188.69" gradientUnits="userSpaceOnUse"><stop offset="0.12" stop-color="#c77d18"/><stop offset="0.2" stop-color="#c8801b"/><stop offset="0.26" stop-color="#ca8924"/><stop offset="0.28" stop-color="#cb8e29"/><stop offset="0.41" stop-color="#eaad35"/><stop offset="0.5" stop-color="#f8c968"/><stop offset="0.55" stop-color="#ffd884"/><stop offset="0.58" stop-color="#fed680"/><stop offset="0.6" stop-color="#fbcf72"/><stop offset="0.63" stop-color="#f6c45c"/><stop offset="0.66" stop-color="#f0b43e"/><stop offset="0.68" stop-color="#eaa623"/><stop offset="0.83" stop-color="#cb8e29"/><stop offset="0.94" stop-color="#b16f20"/><stop offset="1" stop-color="#a25d1b"/></linearGradient><linearGradient id="未命名漸層_1036-2" x1="72.36" y1="176.6" x2="72.36" y2="186.19" xlink:href="#未命名漸層_1036"/><linearGradient id="未命名漸層_1036-3" x1="82.88" y1="178.08" x2="82.88" y2="191.1" xlink:href="#未命名漸層_1036"/><linearGradient id="未命名漸層_1036-4" x1="-2040.9" y1="176.6" x2="-2040.9" y2="186.19" gradientTransform="matrix(-1, 0, 0, 1, -1922.94, 0)" xlink:href="#未命名漸層_1036"/><linearGradient id="未命名漸層_1036-5" x1="-2030.38" y1="178.08" x2="-2030.38" y2="191.1" gradientTransform="matrix(-1, 0, 0, 1, -1922.94, 0)" xlink:href="#未命名漸層_1036"/><linearGradient id="未命名漸層_1105" x1="69.27" y1="10.92" x2="121.08" y2="10.92" gradientUnits="userSpaceOnUse"><stop offset="0" stop-color="#a2670c"/><stop offset="0.03" stop-color="#a66b11"/><stop offset="0.08" stop-color="#b0781f"/><stop offset="0.12" stop-color="#c18e37"/><stop offset="0.17" stop-color="#d8ac59"/><stop offset="0.21" stop-color="#f6d283"/><stop offset="0.23" stop-color="#ffdd8f"/><stop offset="0.34" stop-color="#e6b449"/><stop offset="0.47" stop-color="#e5af3a"/><stop offset="0.48" stop-color="#e5af3b"/><stop offset="0.62" stop-color="#e9b243"/><stop offset="0.64" stop-color="#ebb749"/><stop offset="0.72" stop-color="#f3c75b"/><stop offset="0.84" stop-color="#c9983d"/><stop offset="0.92" stop-color="#b27927"/><stop offset="1" stop-color="#99560f"/></linearGradient><linearGradient id="未命名漸層_1105-2" x1="69.27" y1="4.53" x2="121.08" y2="4.53" xlink:href="#未命名漸層_1105"/><linearGradient id="未命名漸層_1105-3" x1="69.27" y1="4.53" x2="121.08" y2="4.53" xlink:href="#未命名漸層_1105"/><linearGradient id="未命名漸層_1105-4" x1="69.27" y1="1.01" x2="121.07" y2="1.01" xlink:href="#未命名漸層_1105"/><linearGradient id="未命名漸層_1105-5" x1="69.27" y1="4.53" x2="121.08" y2="4.53" xlink:href="#未命名漸層_1105"/><linearGradient id="未命名漸層_1105-6" x1="69.26" y1="2.85" x2="121.08" y2="2.85" xlink:href="#未命名漸層_1105"/><linearGradient id="未命名漸層_1105-7" x1="69.27" y1="4.53" x2="121.08" y2="4.53" xlink:href="#未命名漸層_1105"/><linearGradient id="未命名漸層_1105-8" x1="69.27" y1="13.79" x2="121.08" y2="13.79" xlink:href="#未命名漸層_1105"/><linearGradient id="未命名漸層_1105-9" x1="69.27" y1="19.22" x2="121.08" y2="19.22" xlink:href="#未命名漸層_1105"/><linearGradient id="未命名漸層_1105-10" x1="69.27" y1="26.73" x2="121.08" y2="26.73" xlink:href="#未命名漸層_1105"/><linearGradient id="未命名漸層_1105-11" x1="69.27" y1="10.92" x2="121.08" y2="10.92" xlink:href="#未命名漸層_1105"/><linearGradient id="未命名漸層_1105-12" x1="69.27" y1="13.79" x2="121.08" y2="13.79" xlink:href="#未命名漸層_1105"/><linearGradient id="未命名漸層_1105-13" x1="69.27" y1="19.22" x2="121.08" y2="19.22" xlink:href="#未命名漸層_1105"/><linearGradient id="未命名漸層_1105-14" x1="69.27" y1="26.73" x2="121.08" y2="26.73" xlink:href="#未命名漸層_1105"/><linearGradient id="未命名漸層_1105-15" x1="69.27" y1="20.5" x2="121.08" y2="20.5" xlink:href="#未命名漸層_1105"/><linearGradient id="未命名漸層_1105-16" x1="72.27" y1="34.13" x2="114.47" y2="34.13" xlink:href="#未命名漸層_1105"/><linearGradient id="未命名漸層_1105-17" x1="72.27" y1="34.41" x2="114.47" y2="34.41" xlink:href="#未命名漸層_1105"/><linearGradient id="未命名漸層_1105-18" x1="72.27" y1="34.96" x2="114.47" y2="34.96" xlink:href="#未命名漸層_1105"/><linearGradient id="未命名漸層_1105-19" x1="72.27" y1="35.65" x2="114.47" y2="35.65" xlink:href="#未命名漸層_1105"/><linearGradient id="未命名漸層_1105-20" x1="72.27" y1="36.66" x2="114.47" y2="36.66" xlink:href="#未命名漸層_1105"/><linearGradient id="未命名漸層_1105-21" x1="72.27" y1="37.93" x2="114.48" y2="37.93" xlink:href="#未命名漸層_1105"/><linearGradient id="未命名漸層_1105-22" x1="72.27" y1="34.06" x2="114.47" y2="34.06" xlink:href="#未命名漸層_1105"/><linearGradient id="未命名漸層_1105-23" x1="72.26" y1="34.13" x2="114.47" y2="34.13" xlink:href="#未命名漸層_1105"/><linearGradient id="未命名漸層_1105-24" x1="72.27" y1="34.41" x2="114.47" y2="34.41" xlink:href="#未命名漸層_1105"/><linearGradient id="未命名漸層_1105-25" x1="72.27" y1="34.96" x2="114.47" y2="34.96" xlink:href="#未命名漸層_1105"/><linearGradient id="未命名漸層_1105-26" x1="72.26" y1="35.65" x2="114.47" y2="35.65" xlink:href="#未命名漸層_1105"/><linearGradient id="未命名漸層_1105-27" x1="72.27" y1="36.66" x2="114.47" y2="36.66" xlink:href="#未命名漸層_1105"/><linearGradient id="未命名漸層_1105-28" x1="72.27" y1="37.93" x2="114.47" y2="37.93" xlink:href="#未命名漸層_1105"/><linearGradient id="未命名漸層_1016" x1="50.11" y1="83.5" x2="138.83" y2="121.81" gradientUnits="userSpaceOnUse"><stop offset="0" stop-color="#ffec83"/><stop offset="0.01" stop-color="#fee77e"/><stop offset="0.04" stop-color="#f5c65e"/><stop offset="0.08" stop-color="#eeae48"/><stop offset="0.11" stop-color="#ea9f3a"/><stop offset="0.14" stop-color="#e99a35"/><stop offset="0.19" stop-color="#e99d35"/><stop offset="0.22" stop-color="#eaa635"/><stop offset="0.23" stop-color="#eaad35"/><stop offset="0.35" stop-color="#f2c552"/><stop offset="0.52" stop-color="#fbe176"/><stop offset="0.6" stop-color="#ffec83"/><stop offset="0.9" stop-color="#d9982d"/><stop offset="1" stop-color="#d17926"/></linearGradient><linearGradient id="未命名漸層_1244" x1="56.87" y1="58.47" x2="114.56" y2="156.82" gradientUnits="userSpaceOnUse"><stop offset="0.13" stop-color="#c77d18"/><stop offset="0.19" stop-color="#c9801a"/><stop offset="0.23" stop-color="#d18921"/><stop offset="0.26" stop-color="#de9a2c"/><stop offset="0.3" stop-color="#f0b03c"/><stop offset="0.32" stop-color="#ffc34a"/><stop offset="0.37" stop-color="#fbbf46"/><stop offset="0.41" stop-color="#eeb139"/><stop offset="0.43" stop-color="#eaad35"/><stop offset="0.49" stop-color="#e5a01d"/><stop offset="0.59" stop-color="#efaa2e"/><stop offset="0.6" stop-color="#f1b238"/><stop offset="0.67" stop-color="#fbdc6e"/><stop offset="0.7" stop-color="#ffec83"/><stop offset="0.8" stop-color="#cb8e29"/><stop offset="0.93" stop-color="#b16f20"/><stop offset="1" stop-color="#a25d1b"/></linearGradient><linearGradient id="未命名漸層_1016-2" x1="118.33" y1="51.13" x2="72.44" y2="131.78" xlink:href="#未命名漸層_1016"/><linearGradient id="未命名漸層_1016-3" x1="93.5" y1="134.98" x2="117.82" y2="145.48" xlink:href="#未命名漸層_1016"/><radialGradient id="무제_그라디언트_71-4" cx="142.4" cy="34.16" r="7.6" gradientTransform="translate(-38.36 17.88) rotate(1.12)" xlink:href="#무제_그라디언트_71"/><radialGradient id="무제_그라디언트_74-7" cx="142.73" cy="34.31" r="36.23" gradientTransform="translate(-38.36 17.88) rotate(1.12)" xlink:href="#무제_그라디언트_74"/><radialGradient id="무제_그라디언트_74-8" cx="1267.33" cy="-1297.02" r="23.78" gradientTransform="matrix(0.69, 0.72, -0.72, 0.69, -1709.73, 40.56)" xlink:href="#무제_그라디언트_74"/></defs><g class="cls-1"><g id="레이어_2" data-name="레이어 2"><g id="레이어_2-2" data-name="레이어 2"><path class="cls-2" d="M45.67,41.54a7,7,0,1,1-7.1-6.95A7,7,0,0,1,45.67,41.54Z"/><polygon class="cls-3" points="38.65 8.24 39.58 41.16 72.51 41.42 39.59 42.35 39.33 75.28 38.4 42.37 5.47 42.1 38.39 41.17 38.65 8.24"/><polygon class="cls-4" points="54.39 26.05 39.55 41.76 54.7 57.16 39 42.32 23.59 57.48 38.44 41.77 23.28 26.36 38.98 41.21 54.39 26.05"/><g class="cls-5"><path class="cls-6" d="M170.72,160.92a2.11,2.11,0,1,1-4.21-.08,2.11,2.11,0,0,1,4.21.08Z"/><polygon class="cls-7" points="168.91 150.89 168.9 160.75 178.75 161.12 168.89 161.11 168.52 170.97 168.53 161.1 158.68 160.73 168.54 160.75 168.91 150.89"/><polygon class="cls-8" points="173.47 156.36 168.88 160.93 173.28 165.68 168.71 161.09 163.97 165.5 168.55 160.93 164.15 156.18 168.72 160.76 173.47 156.36"/></g><g class="cls-5"><path class="cls-9" d="M181.74,155.37a4.78,4.78,0,1,1-4.69-4.87A4.78,4.78,0,0,1,181.74,155.37Z"/><polygon class="cls-10" points="177.64 132.58 177.61 154.99 200 155.83 177.59 155.8 176.75 178.19 176.78 155.78 154.39 154.94 176.8 154.97 177.64 132.58"/><polygon class="cls-11" points="187.99 145.01 177.57 155.39 187.57 166.18 177.19 155.76 166.41 165.76 176.82 155.38 166.82 144.6 177.2 155.01 187.99 145.01"/></g><path class="cls-12" d="M52.23,32.5c-.08-.48-2.84.5-3.71,1a7.79,7.79,0,0,0-4,4,9.28,9.28,0,0,0,0,5.73,4,4,0,0,0,1.24,1.6c.6.35,1.13-.3,2.81-1.33C48.67,43.5,53.69,41.19,52.23,32.5ZM46.69,44.38l-.58-.17A18.3,18.3,0,0,1,50,36.12S47.12,41.16,46.69,44.38Z"/><path class="cls-13" d="M37.12,53.39h-.35a24,24,0,0,1,1.67-11.62S36.9,49,37.53,53.18c.65-.42,1.3-1.15,2.16-1.67,0,0,7.09-3.54.32-15.34-.32-.56-3.86,2.23-4.14,2.51a11.22,11.22,0,0,0-3.33,7,9.82,9.82,0,0,0,2.8,7.23A1.57,1.57,0,0,0,37.12,53.39Z"/><path class="cls-14" d="M29.78,173.62c12.84-3.09,18.6-3.44,20.64-3.43a17,17,0,0,0-9.09-4.8c-7-1.25-12.27.47-18.59,9,0,0,15,16.7,29.35-2.2a13.2,13.2,0,0,0-.81-1C44,171.94,29.78,173.62,29.78,173.62Z"/><path class="cls-15" d="M37.42,160.74a4.76,4.76,0,0,0-.26-.74c-4.15-2.45-20.81-2.42-20.81-2.42,16.93-1.92,19.67.66,19.67.66L37.15,160c-.6-1.42-2.43-4.56-7.54-7.34-5.78-3.13-13.16-2-19.71,4C9.9,156.58,21.28,172.17,37.42,160.74Z"/><path class="cls-16" d="M19.06,149.41a10.76,10.76,0,0,0,7.73-2.24,4.07,4.07,0,0,0,.1-1.52c-5.16-1.6-17-3.86-17-3.86,10.43.76,14.92,1.89,16.74,2.53-.5-1.47.19-2.23-3.48-5-4.55-3.41-11.12-3.52-18.71.37C4.4,139.71,7.13,148.7,19.06,149.41Z"/><path class="cls-17" d="M13.94,134.21a15.08,15.08,0,0,0,7.29-1.08,5,5,0,0,0,.07-1.59l0,.37C17.61,129.56,6.49,126,6.49,126c10,1.43,13.72,3.74,14.63,4.4a11.38,11.38,0,0,0-3.88-5.89c-4-3.54-8.76-4.54-16-1.36C1.19,123.19,3.62,133.42,13.94,134.21Z"/><path class="cls-18" d="M9.16,118.33a20.12,20.12,0,0,0,7.58.24,6.26,6.26,0,0,0,.13-.69c-2.39-2.72-9.82-7.42-9.82-7.42,6.48,2.56,9,4.9,9.91,6a11.31,11.31,0,0,0-2.19-6.55c-2.83-4-8-5.55-14.77-3.23C0,106.69,0,116.05,9.16,118.33Z"/><path class="cls-19" d="M11.11,103.51a15.72,15.72,0,0,0,5.67.8s.18.2.46-.92A118.24,118.24,0,0,1,7.7,92c6.36,6.36,9.17,9.17,9.79,10a22.79,22.79,0,0,0-.43-6.36c-1.1-4-5.55-7.2-12.66-7.71C4.4,88,1.47,99.91,11.11,103.51Z"/><path class="cls-20" d="M20.13,90.38s.82-2.62.5-8.56c-.24-4.54-4.22-8.1-10.32-9.39,0,0-4.35,7.89.85,14A10.12,10.12,0,0,0,20.13,90.38Zm-.57-1.54-.48.61c-2.45-4.28-5.75-11.25-5.75-11.25C20.18,88,19.56,88.84,19.56,88.84Z"/><path class="cls-21" d="M22.07,75.74l.21-.17C20.42,71.17,18,64.35,18,64.35c3.79,7.73,4.59,10.08,4.76,10.75.78-.91,2-2.93,2.09-7,.14-4.59-2.75-8.18-9-10.94,0,0-5.79,7.42-.05,15A9.35,9.35,0,0,0,22.07,75.74Z"/><path class="cls-22" d="M28.39,65.73s2.19-.86,4.3-6.4c1.62-4.24.17-9.07-4.44-13.87,0,0-8,3.61-4.87,14.44C23.94,61.87,25.84,64.09,28.39,65.73Zm-.63-12.46c1,9.24,2.42,10.23,2.42,10.23l-.59.73C27.27,60.3,27.76,53.27,27.76,53.27Z"/><path class="cls-23" d="M51,41.43c-1.16,1.18-1.8,1.49-1.63,2a3.43,3.43,0,0,0,1.08,1.32,7.8,7.8,0,0,0,4.68,1.13,6.5,6.5,0,0,0,4.05-2.46c.54-.62,1.88-2.69,1.5-2.85C53.87,37.76,51,41.43,51,41.43Zm6.28.36A15.44,15.44,0,0,1,50,43.39l0-.51C52.63,43.15,57.3,41.79,57.3,41.79Z"/><path class="cls-24" d="M41.28,49.78l0,.29a19.64,19.64,0,0,0,9.52-.89s-5.91,1-9.31.27c.36-.5,1-1,1.44-1.69,0,0,3.16-5.61,12.48.36.44.29-2,3.05-2.21,3.27a9.17,9.17,0,0,1-5.81,2.43,8,8,0,0,1-5.76-2.57A1.27,1.27,0,0,1,41.28,49.78Z"/><path class="cls-25" d="M54.39,155.3c-2.43,9.83-2.76,14.25-2.78,15.82a13.39,13.39,0,0,1-3.39-7.05c-.82-5.42.71-10.1,7-14.85,0,0,12.69,11.17-2.2,23.21,0,0-.31-.23-.76-.64C53,166.23,54.39,155.3,54.39,155.3Z"/><path class="cls-26" d="M41.59,162.57a4.59,4.59,0,0,1-.54-.31c-1.33-3.63,1.07-16.81,1.07-16.81-3.91,13.13-2.28,15.66-2.28,15.66L41,162.24c-1-.67-3.23-2.56-4.67-7-1.64-5,.58-11.4,6.18-15.74C42.54,139.5,53.58,150.34,41.59,162.57Z"/><path class="cls-27" d="M36.23,143.47a8.31,8.31,0,0,1-5.74,3.66,4.65,4.65,0,0,1-1.29-.77c1.23-4.65,5.23-14.59,5.23-14.59-4.26,7.85-5.17,11.15-5.63,12.71a8.2,8.2,0,0,1-2.48-5.24c-.55-4.94,2-8.63,9.36-12.74C35.68,126.5,42.19,135.31,36.23,143.47Z"/><path class="cls-28" d="M28.66,129.31a12.83,12.83,0,0,1-6.05,2.44,4.78,4.78,0,0,1-.84-1.14l.21.27c1.55-3.52,8-11.54,8-11.54-6.62,5.92-8.26,9.45-8.61,10.38a10.07,10.07,0,0,1,0-6.23c1.23-4.56,4.21-7.87,11.14-8.83C32.49,114.66,36.77,124.14,28.66,129.31Z"/><path class="cls-29" d="M26,114.47a20.34,20.34,0,0,1-6.66,2.42,5,5,0,0,1-.33-.58c1.33-3.15,6.54-9.56,6.54-9.56-5,4.21-6.55,7-7,8.32a10.83,10.83,0,0,1,0-6.55c1.34-4.44,5.64-7.45,12.35-7.71C30.83,100.81,34.44,109.62,26,114.47Z"/><path class="cls-30" d="M22.74,100.28a13.08,13.08,0,0,1-5-.35,4.24,4.24,0,0,1-.28-1.55A51,51,0,0,1,27.78,91c-6.85,2.52-9.35,4.61-10.26,5.79A14.41,14.41,0,0,1,19,92.44c1.69-3.28,6.56-5.56,12.78-4.7C31.81,87.74,32.78,98.49,22.74,100.28Z"/><path class="cls-31" d="M28.54,85.29c6.89-1.47,7.87-8.35,7.87-8.35-5-1.94-9.71-1.52-12.24,1.2-3.3,3.54-4.07,5.54-4.07,5.54C21.21,84.59,24.07,86.24,28.54,85.29Zm3.62-6.36s-6.94,3.22-10.7,4.84l-.05-.45S22.77,81.45,32.16,78.93Z"/><path class="cls-32" d="M26.15,71.24s0-.08.06-.19c3.9-.74,9.81-2.16,9.81-2.16-7,1-9.05,1.52-9.61,1.7.43-.83,1.54-2.36,4.52-4.09,3.38-2,7-1.79,11.15.67,0,0-3.63,6.42-11.19,6.23A6.1,6.1,0,0,1,26.15,71.24Z"/><path class="cls-33" d="M33.1,60.5s0-.08.06-.2c4-.39,10.07-1.31,10.07-1.31-7.22.34-9.29.68-9.86.82.43-.88,1.57-2.46,4.62-4.07,3.46-1.83,7.2-1.21,11.46,2,0,0-3.7,6.77-11.47,5.71A7,7,0,0,1,33.1,60.5Z"/><path class="cls-34" d="M58.69,178.38c-.54-.25-1.24-.64-2.09-1.11C46,171.38,15.41,149.66,16.75,104.86,18.22,56,58.33,36.63,58.33,36.63,35.58,49.83,19,76.06,19,104.84a79.41,79.41,0,0,0,40.13,69.39S65,177.16,64,179C64,179,63.65,180.64,58.69,178.38Z"/><path class="cls-35" d="M141.65,43.5c1.69,1,2.21,1.68,2.82,1.33a4.16,4.16,0,0,0,1.24-1.6,9.2,9.2,0,0,0,0-5.73,7.77,7.77,0,0,0-3.94-4c-.87-.46-3.63-1.44-3.72-1C136.63,41.19,141.65,43.5,141.65,43.5Zm-1.28-7.38a18.34,18.34,0,0,1,3.84,8.09l-.58.17C143.21,41.16,140.37,36.12,140.37,36.12Z"/><path class="cls-36" d="M153.21,53.39h.35a24.1,24.1,0,0,0-1.67-11.62s1.54,7.18.9,11.41c-.64-.42-1.3-1.15-2.16-1.67,0,0-7.09-3.54-.32-15.34.32-.56,3.87,2.23,4.14,2.51a11.24,11.24,0,0,1,3.34,7A9.87,9.87,0,0,1,155,52.89,1.56,1.56,0,0,1,153.21,53.39Z"/><path class="cls-37" d="M160.55,173.62c-12.84-3.09-18.6-3.44-20.64-3.43a16.94,16.94,0,0,1,9.08-4.8c7-1.25,12.27.47,18.59,9,0,0-15,16.7-29.35-2.2,0,0,.29-.42.82-1C146.29,171.94,160.55,173.62,160.55,173.62Z"/><path class="cls-38" d="M152.91,160.74a5.26,5.26,0,0,1,.25-.74c4.15-2.45,20.82-2.42,20.82-2.42-16.94-1.92-19.67.66-19.67.66L153.18,160c.6-1.42,2.42-4.56,7.54-7.34,5.77-3.13,13.15-2,19.7,4C180.42,156.58,169.05,172.17,152.91,160.74Z"/><path class="cls-39" d="M171.27,149.41a10.78,10.78,0,0,1-7.74-2.24,4.23,4.23,0,0,1-.09-1.52c5.15-1.6,17-3.86,17-3.86-10.42.76-14.92,1.89-16.73,2.53.49-1.47-.2-2.23,3.47-5,4.56-3.41,11.13-3.52,18.71.37C185.92,139.71,183.19,148.7,171.27,149.41Z"/><path class="cls-40" d="M176.38,134.21a15,15,0,0,1-7.28-1.08,5.15,5.15,0,0,1-.08-1.59l0,.37c3.67-2.35,14.79-5.87,14.79-5.87-10,1.43-13.73,3.74-14.64,4.4a11.38,11.38,0,0,1,3.88-5.89c4-3.54,8.76-4.54,16-1.36C189.13,123.19,186.7,133.42,176.38,134.21Z"/><path class="cls-41" d="M181.16,118.33a20.08,20.08,0,0,1-7.57.24,4.88,4.88,0,0,1-.14-.69c2.39-2.72,9.83-7.42,9.83-7.42-6.49,2.56-9,4.9-9.91,6a11.21,11.21,0,0,1,2.18-6.55c2.84-4,8-5.55,14.77-3.23C190.32,106.69,190.32,116.05,181.16,118.33Z"/><path class="cls-42" d="M179.22,103.51a15.81,15.81,0,0,1-5.68.8s-.17.2-.46-.92A116.62,116.62,0,0,0,182.62,92c-6.36,6.36-9.17,9.17-9.78,10a22.05,22.05,0,0,1,.43-6.36c1.1-4,5.55-7.2,12.65-7.71C185.92,88,188.86,99.91,179.22,103.51Z"/><path class="cls-43" d="M179.17,86.46c5.2-6.14.84-14,.84-14-6.1,1.29-10.07,4.85-10.32,9.39-.32,5.94.5,8.56.5,8.56A10.14,10.14,0,0,0,179.17,86.46ZM177,78.2s-3.31,7-5.75,11.25l-.49-.61S170.15,88,177,78.2Z"/><path class="cls-44" d="M168.25,75.74l-.2-.17c1.86-4.4,4.29-11.22,4.29-11.22-3.79,7.73-4.59,10.08-4.75,10.75-.78-.91-2-2.93-2.1-7-.14-4.59,2.75-8.18,9-10.94,0,0,5.8,7.42,0,15A9.33,9.33,0,0,1,168.25,75.74Z"/><path class="cls-45" d="M166.94,59.9c3.11-10.83-4.87-14.44-4.87-14.44-4.61,4.8-6,9.63-4.44,13.87,2.11,5.54,4.3,6.4,4.3,6.4C164.48,64.09,166.38,61.87,166.94,59.9Zm-6.21,4.33-.59-.73s1.47-1,2.42-10.23C162.56,53.27,163.05,60.3,160.73,64.23Z"/><path class="cls-46" d="M129.63,40.62c-.38.16,1,2.23,1.49,2.85a6.53,6.53,0,0,0,4,2.46,7.78,7.78,0,0,0,4.68-1.13,3.43,3.43,0,0,0,1.08-1.32c.17-.56-.46-.87-1.62-2C139.31,41.43,136.46,37.76,129.63,40.62Zm10.77,2.26,0,.51a15.49,15.49,0,0,1-7.36-1.6S137.69,43.15,140.4,42.88Z"/><path class="cls-47" d="M149,49.78l0,.29a19.69,19.69,0,0,1-9.53-.89s5.91,1,9.32.27c-.37-.5-1-1-1.44-1.69,0,0-3.17-5.61-12.49.36-.44.29,2,3.05,2.21,3.27A9.17,9.17,0,0,0,143,53.82a8,8,0,0,0,5.76-2.57A1.27,1.27,0,0,0,149,49.78Z"/><path class="cls-48" d="M135.21,154.93c2.48,10,2.82,14.57,2.84,16.17a13.58,13.58,0,0,0,3.46-7.2c.84-5.54-.72-10.33-7.17-15.18,0,0-13,11.42,2.25,23.72a8.74,8.74,0,0,0,.77-.65C136.66,166.11,135.21,154.93,135.21,154.93Z"/><path class="cls-49" d="M148.34,162.64a4.87,4.87,0,0,0,.52-.29c1.27-3.47-1-16-1-16,3.73,12.53,2.18,14.94,2.18,14.94l-1.14,1.09c1-.65,3.08-2.45,4.46-6.68,1.56-4.78-.56-10.89-5.91-15C147.43,140.62,136.9,151,148.34,162.64Z"/><path class="cls-50" d="M154.1,143.47a8.29,8.29,0,0,0,5.74,3.66,4.54,4.54,0,0,0,1.28-.77c-1.22-4.65-5.23-14.59-5.23-14.59,4.26,7.85,5.18,11.15,5.64,12.71a8.25,8.25,0,0,0,2.47-5.24c.55-4.94-2-8.63-9.35-12.74C154.65,126.5,148.14,135.31,154.1,143.47Z"/><path class="cls-51" d="M161.66,129.31a12.83,12.83,0,0,0,6.06,2.44,4.62,4.62,0,0,0,.83-1.14l-.2.27c-1.55-3.52-8-11.54-8-11.54,6.63,5.92,8.27,9.45,8.61,10.38a10.05,10.05,0,0,0,0-6.23c-1.24-4.56-4.21-7.87-11.14-8.83C157.84,114.66,153.56,124.14,161.66,129.31Z"/><path class="cls-52" d="M164.36,114.47a20.51,20.51,0,0,0,6.66,2.42,5,5,0,0,0,.33-.58c-1.32-3.15-6.54-9.56-6.54-9.56,5,4.21,6.55,7,7,8.32a10.76,10.76,0,0,0,0-6.55c-1.33-4.44-5.64-7.45-12.34-7.71C159.5,100.81,155.89,109.62,164.36,114.47Z"/><path class="cls-53" d="M167.59,100.28a13,13,0,0,0,5-.35,4.34,4.34,0,0,0,.29-1.55A51.33,51.33,0,0,0,162.55,91c6.85,2.52,9.34,4.61,10.25,5.79a14.41,14.41,0,0,0-1.51-4.34c-1.68-3.28-6.55-5.56-12.78-4.7C158.51,87.74,157.54,98.49,167.59,100.28Z"/><path class="cls-54" d="M170.23,83.68s-.78-2-4.08-5.54c-2.53-2.72-7.21-3.14-12.24-1.2,0,0,1,6.88,7.88,8.35C166.26,86.24,169.11,84.59,170.23,83.68Zm-1.32-.36,0,.45c-3.77-1.62-10.71-4.84-10.71-4.84C167.55,81.45,168.91,83.32,168.91,83.32Z"/><path class="cls-55" d="M164.17,71.24s0-.08-.06-.19c-3.9-.74-9.8-2.16-9.8-2.16a76.4,76.4,0,0,1,9.6,1.7c-.42-.83-1.54-2.36-4.52-4.09-3.38-2-7-1.79-11.14.67,0,0,3.63,6.42,11.18,6.23A6.1,6.1,0,0,0,164.17,71.24Z"/><path class="cls-56" d="M157.22,60.5s0-.08-.06-.2c-4-.39-10.07-1.31-10.07-1.31,7.23.34,9.3.68,9.87.82-.43-.88-1.57-2.46-4.62-4.07-3.47-1.83-7.21-1.21-11.46,2,0,0,3.69,6.77,11.46,5.71A7,7,0,0,0,157.22,60.5Z"/><path class="cls-57" d="M131.63,178.38c.55-.25,1.25-.64,2.1-1.11,10.59-5.89,41.19-27.61,39.84-72.41C172.1,56,132,36.63,132,36.63c22.74,13.2,39.37,39.43,39.37,68.21a79.39,79.39,0,0,1-40.13,69.39s-5.94,2.93-4.93,4.78C126.31,179,126.68,180.64,131.63,178.38Z"/><polygon class="cls-58" points="95.16 173.97 96.68 178.64 101.59 178.64 97.62 181.53 99.14 186.2 95.16 183.31 91.19 186.2 92.7 181.53 88.73 178.64 93.64 178.64 95.16 173.97"/><polygon class="cls-59" points="72.36 177.18 72.87 178.75 74.52 178.75 73.19 179.72 73.69 181.28 72.36 180.31 71.03 181.28 71.54 179.72 70.21 178.75 71.86 178.75 72.36 177.18"/><polygon class="cls-60" points="82.88 178.87 83.57 180.99 85.81 180.99 84 182.31 84.69 184.43 82.88 183.12 81.07 184.43 81.76 182.31 79.96 180.99 82.19 180.99 82.88 178.87"/><polygon class="cls-61" points="117.96 177.18 117.45 178.75 115.81 178.75 117.14 179.72 116.63 181.28 117.96 180.31 119.29 181.28 118.78 179.72 120.11 178.75 118.47 178.75 117.96 177.18"/><polygon class="cls-62" points="107.44 178.87 106.75 180.99 104.52 180.99 106.33 182.31 105.64 184.43 107.44 183.12 109.25 184.43 108.56 182.31 110.37 180.99 108.13 180.99 107.44 178.87"/><polygon class="cls-63" points="65.19 34.31 66.25 35.77 67.96 35.23 66.9 36.68 67.95 38.14 66.24 37.57 65.17 39.02 65.18 37.23 63.47 36.66 65.19 36.11 65.19 34.31"/><polygon class="cls-63" points="124.46 34.31 123.41 35.77 121.7 35.23 122.76 36.68 121.71 38.14 123.42 37.57 124.48 39.02 124.48 37.23 126.19 36.66 124.47 36.11 124.46 34.31"/><path class="cls-64" d="M87,10.92A1.12,1.12,0,1,1,85.88,9.8,1.12,1.12,0,0,1,87,10.92Z"/><path class="cls-65" d="M91.63,4.53a.72.72,0,1,1-.71-.72A.72.72,0,0,1,91.63,4.53Z"/><path class="cls-66" d="M99.46,4.53a.72.72,0,1,1-.72-.72A.72.72,0,0,1,99.46,4.53Z"/><circle class="cls-67" cx="94.83" cy="1.01" r="1.01"/><path class="cls-68" d="M96.27,4.53a1.44,1.44,0,1,1-1.44-1.44A1.44,1.44,0,0,1,96.27,4.53Z"/><ellipse class="cls-69" cx="94.83" cy="2.85" rx="0.43" ry="2.64"/><path class="cls-70" d="M98.74,4.53c0-.27-1.75-.48-3.91-.48s-3.91.21-3.91.48S92.67,5,94.83,5,98.74,4.79,98.74,4.53Z"/><path class="cls-71" d="M80.45,13.79a1.12,1.12,0,1,1-1.12-1.12A1.12,1.12,0,0,1,80.45,13.79Z"/><path class="cls-72" d="M74.22,19.22a1.12,1.12,0,1,1-1.12-1.11A1.12,1.12,0,0,1,74.22,19.22Z"/><path class="cls-73" d="M68.47,26.73a1.12,1.12,0,1,1-1.12-1.12A1.12,1.12,0,0,1,68.47,26.73Z"/><path class="cls-74" d="M102.66,10.92a1.12,1.12,0,1,0,1.12-1.12A1.12,1.12,0,0,0,102.66,10.92Z"/><path class="cls-75" d="M109.21,13.79a1.12,1.12,0,1,0,1.12-1.12A1.12,1.12,0,0,0,109.21,13.79Z"/><path class="cls-76" d="M115.44,19.22a1.12,1.12,0,1,0,1.12-1.11A1.12,1.12,0,0,0,115.44,19.22Z"/><path class="cls-77" d="M121.19,26.73a1.12,1.12,0,1,0,1.12-1.12A1.12,1.12,0,0,0,121.19,26.73Z"/><path class="cls-78" d="M122.31,26.73s-4.16,1.92-5.75.8c0,0-2.4-.64,0-8.31,0,0-3.73,5.52-6.23,4.48-1.92-.8,0-9.91,0-9.91-5,7.35-6.24,6.23-6.24,6.23-2.23-1.44-.15-9.42-.15-9.42-3.36,7.83-5.76,6.07-5.76,6.07-2.71-1.12-3.35-12.78-3.35-12.78s-.64,11.66-3.36,12.78c0,0-2.39,1.76-5.75-6.07,0,0,2.08,8-.16,9.42,0,0-1.27,1.12-6.23-6.23,0,0,1.92,9.11,0,9.91-2.5,1-6.23-4.48-6.23-4.48,2.4,7.67,0,8.31,0,8.31-1.6,1.12-5.75-.8-5.75-.8l4.47,5.91,3.42,4.47c4.61-3.12,11.33-4.79,19.59-4.79s15,1.67,19.59,4.79l3.41-4.47ZM79.84,32.64A1.23,1.23,0,0,1,78.27,32a1.13,1.13,0,1,1,1.57.68Zm4-1.37c-.87.24-1.84-.52-2.17-1.7a2,2,0,0,1,1-2.58c.87-.24,1.84.52,2.17,1.7A2,2,0,0,1,83.82,31.27Zm4.74-1c-1.08.11-2.1-1.27-2.28-3.07s.54-3.36,1.62-3.47S90,25,90.17,26.78,89.63,30.14,88.56,30.24ZM95,30.09c-1.47,0-2.66-2.34-2.66-5.22s1.19-5.22,2.66-5.22S97.7,22,97.7,24.87,96.51,30.09,95,30.09Zm6.06.15c-1.07-.1-1.79-1.66-1.61-3.46s1.2-3.19,2.27-3.08,1.8,1.66,1.62,3.47S102.18,30.35,101.1,30.24Zm6.91-.67c-.33,1.18-1.3,1.94-2.17,1.7a2,2,0,0,1-1-2.58c.33-1.18,1.3-1.94,2.16-1.7A2,2,0,0,1,108,29.57ZM111.38,32a1.13,1.13,0,1,1-.44-1.65A1.22,1.22,0,0,1,111.38,32Z"/><circle class="cls-79" cx="91.89" cy="34.13" r="0.65"/><circle class="cls-80" cx="89.01" cy="34.41" r="0.65"/><path class="cls-81" d="M86,34.31a.65.65,0,1,0,.65.65A.65.65,0,0,0,86,34.31Z"/><circle class="cls-82" cx="83" cy="35.65" r="0.65"/><circle class="cls-83" cx="79.79" cy="36.66" r="0.65"/><path class="cls-84" d="M77.22,37.28a.65.65,0,1,0,.65.65A.65.65,0,0,0,77.22,37.28Z"/><path class="cls-85" d="M94.83,33.32a.74.74,0,1,0,.73.74A.73.73,0,0,0,94.83,33.32Z"/><path class="cls-86" d="M97.76,33.48a.65.65,0,0,0-.65.65.66.66,0,0,0,.65.66.67.67,0,0,0,.66-.66A.66.66,0,0,0,97.76,33.48Z"/><circle class="cls-87" cx="100.65" cy="34.41" r="0.65"/><path class="cls-88" d="M103.68,34.31a.65.65,0,1,0,.65.65A.65.65,0,0,0,103.68,34.31Z"/><path class="cls-89" d="M106.66,35a.66.66,0,0,0-.65.66.65.65,0,0,0,1.3,0A.66.66,0,0,0,106.66,35Z"/><circle class="cls-90" cx="109.87" cy="36.66" r="0.65"/><circle class="cls-91" cx="112.44" cy="37.93" r="0.65"/><path class="cls-92" d="M105.35,134.43a13.76,13.76,0,0,1-.88-5.05V55.19H102L73.55,69.35v5.17a88.43,88.43,0,0,1,9-3.47A1.64,1.64,0,0,1,83,71c2.59,0,3.88,2.45,3.88,7.08v51.32c0,7.22-4.47,11.3-13.17,12.12v3.95h42.45V141.5C110.45,140.71,106.88,138.37,105.35,134.43Z"/><path class="cls-93" d="M95.47,65.93c-2.2.89-7.08,2.79-12.93,5.12A1.64,1.64,0,0,1,83,71c2.59,0,3.88,2.45,3.88,7.08v51.32c0,7.22-4.47,11.3-13.17,12.12v3.95h42.45V141.5H95.47Z"/><path class="cls-94" d="M104.47,129.38V55.19H102L73.55,69.35v5.17a88.43,88.43,0,0,1,9-3.47c5.85-2.33,10.73-4.23,12.93-5.12v75.5l9.88-7A13.76,13.76,0,0,1,104.47,129.38Z"/><path class="cls-95" d="M116.11,141.5c-5.66-.79-9.23-3.13-10.76-7.07l-9.88,7v.07Z"/><g class="cls-5"><path class="cls-96" d="M110,54.94a6.69,6.69,0,1,1-6.56-6.82A6.69,6.69,0,0,1,110,54.94Z"/><polygon class="cls-97" points="104.3 23.05 104.26 54.4 135.58 55.58 104.24 55.54 103.06 86.86 103.1 55.52 71.77 54.34 103.12 54.38 104.3 23.05"/><polygon class="cls-98" points="118.77 40.44 104.21 54.97 118.2 70.05 103.67 55.49 88.58 69.48 103.15 54.95 89.16 39.86 103.69 54.43 118.77 40.44"/></g></g></g></g></svg>