<svg xmlns="http://www.w3.org/2000/svg" viewBox="0 0 53 53"><defs><style>.cls-1{opacity:0.65;}.cls-2{fill:#fff;}</style></defs><g id="레이어_2" data-name="레이어 2"><g id="레이어_2-2" data-name="레이어 2"><circle class="cls-1" cx="26.5" cy="26.5" r="26"/><path class="cls-2" d="M26.5,53A26.5,26.5,0,1,1,53,26.5,26.53,26.53,0,0,1,26.5,53Zm0-52A25.5,25.5,0,1,0,52,26.5,25.53,25.53,0,0,0,26.5,1Z"/><path class="cls-2" d="M28.81,26.72a.41.41,0,0,1-.16,0l-2.15-.77-2.15.77a.41.41,0,0,1-.16,0,.47.47,0,0,1-.47-.49L23.79,24l-1.4-1.8a.47.47,0,0,1,.24-.75l2.2-.63,1.28-1.89a.47.47,0,0,1,.78,0l1.28,1.89,2.2.63a.47.47,0,0,1,.24.75L29.21,24l.07,2.28a.47.47,0,0,1-.47.49ZM26.5,24.94a.41.41,0,0,1,.16,0l1.65.6,0-1.76a.45.45,0,0,1,.1-.31l1.07-1.38-1.68-.49a.46.46,0,0,1-.26-.19L26.5,20l-1,1.45a.46.46,0,0,1-.26.19l-1.68.49,1.07,1.38a.45.45,0,0,1,.1.31l0,1.76,1.65-.6A.45.45,0,0,1,26.5,24.94Z"/><path class="cls-2" d="M31.54,38.21V34.88H21.46v2.39h6v.94H17.94v-.94h2.58V33.94H26V31h-.61a7.5,7.5,0,0,1-7.14-5.32l-.05-.2L18,25.4c-2.45-.78-4.51-2.81-4.92-4.82a2.42,2.42,0,0,1,.81-2.5,2.45,2.45,0,0,1,1.53-.56l.35,0a3.4,3.4,0,0,1,1.55.72l.62.47v-3H16.61v-.94H36.39v.94H35v3l.62-.47a3.44,3.44,0,0,1,1.55-.72l.35,0a2.45,2.45,0,0,1,1.53.56,2.42,2.42,0,0,1,.81,2.5c-.41,2-2.47,4-4.91,4.82l-.2.06-.05.2A7.5,7.5,0,0,1,27.58,31H27v3h5.51v3.33h2.58v.94ZM18.92,23.54a6.51,6.51,0,0,0,6.5,6.5h2.16a6.51,6.51,0,0,0,6.5-6.5V15.73H18.92Zm-3.46-5.08a1.53,1.53,0,0,0-1,.36,1.47,1.47,0,0,0-.46,1.57,6.1,6.1,0,0,0,3.39,3.76l.57.27,0-.88V20.38s-.25-.4-.28-.43a3.86,3.86,0,0,0-2-1.47Zm22.08,0-.21,0a3.7,3.7,0,0,0-2,1.46l-.28.38v3.22l0,.83.56-.22A6.08,6.08,0,0,0,39,20.39a1.45,1.45,0,0,0-.46-1.57A1.53,1.53,0,0,0,37.54,18.46Z"/></g></g></svg>