<svg xmlns="http://www.w3.org/2000/svg" xmlns:xlink="http://www.w3.org/1999/xlink" viewBox="0 0 200 185.74"><defs><style>.cls-1{isolation:isolate;}.cls-2{mix-blend-mode:screen;}.cls-3{fill:url(#무제_그라디언트_71);}.cls-4{fill:url(#무제_그라디언트_74);}.cls-5{fill:url(#무제_그라디언트_74-2);}.cls-6{fill:url(#무제_그라디언트_71-2);}.cls-7{fill:url(#무제_그라디언트_74-3);}.cls-8{fill:url(#무제_그라디언트_74-4);}.cls-9{fill:url(#무제_그라디언트_71-3);}.cls-10{fill:url(#무제_그라디언트_74-5);}.cls-11{fill:url(#무제_그라디언트_74-6);}.cls-12{fill:url(#무제_그라디언트_1365);}.cls-13{fill:url(#무제_그라디언트_1365-2);}.cls-14{fill:url(#무제_그라디언트_1365-3);}.cls-15{fill:url(#무제_그라디언트_1365-4);}.cls-16{fill:url(#무제_그라디언트_1365-5);}.cls-17{fill:url(#무제_그라디언트_1365-6);}.cls-18{fill:url(#무제_그라디언트_1365-7);}.cls-19{fill:url(#무제_그라디언트_1365-8);}.cls-20{fill:url(#무제_그라디언트_1365-9);}.cls-21{fill:url(#무제_그라디언트_1365-10);}.cls-22{fill:url(#무제_그라디언트_1365-11);}.cls-23{fill:url(#무제_그라디언트_1365-12);}.cls-24{fill:url(#무제_그라디언트_1365-13);}.cls-25{fill:url(#무제_그라디언트_1365-14);}.cls-26{fill:url(#무제_그라디언트_1365-15);}.cls-27{fill:url(#무제_그라디언트_1365-16);}.cls-28{fill:url(#무제_그라디언트_1365-17);}.cls-29{fill:url(#무제_그라디언트_1365-18);}.cls-30{fill:url(#무제_그라디언트_1365-19);}.cls-31{fill:url(#무제_그라디언트_1365-20);}.cls-32{fill:url(#무제_그라디언트_1365-21);}.cls-33{fill:url(#무제_그라디언트_1365-22);}.cls-34{fill:url(#무제_그라디언트_1476);}.cls-35{fill:url(#무제_그라디언트_1365-23);}.cls-36{fill:url(#무제_그라디언트_1365-24);}.cls-37{fill:url(#무제_그라디언트_1365-25);}.cls-38{fill:url(#무제_그라디언트_1365-26);}.cls-39{fill:url(#무제_그라디언트_1365-27);}.cls-40{fill:url(#무제_그라디언트_1365-28);}.cls-41{fill:url(#무제_그라디언트_1365-29);}.cls-42{fill:url(#무제_그라디언트_1365-30);}.cls-43{fill:url(#무제_그라디언트_1365-31);}.cls-44{fill:url(#무제_그라디언트_1365-32);}.cls-45{fill:url(#무제_그라디언트_1365-33);}.cls-46{fill:url(#무제_그라디언트_1365-34);}.cls-47{fill:url(#무제_그라디언트_1365-35);}.cls-48{fill:url(#무제_그라디언트_1365-36);}.cls-49{fill:url(#무제_그라디언트_1365-37);}.cls-50{fill:url(#무제_그라디언트_1365-38);}.cls-51{fill:url(#무제_그라디언트_1365-39);}.cls-52{fill:url(#무제_그라디언트_1365-40);}.cls-53{fill:url(#무제_그라디언트_1365-41);}.cls-54{fill:url(#무제_그라디언트_1365-42);}.cls-55{fill:url(#무제_그라디언트_1365-43);}.cls-56{fill:url(#무제_그라디언트_1365-44);}.cls-57{fill:url(#무제_그라디언트_1476-2);}.cls-58{fill:url(#무제_그라디언트_1414);}.cls-59{fill:url(#무제_그라디언트_1414-2);}.cls-60{fill:url(#무제_그라디언트_1414-3);}.cls-61{fill:url(#무제_그라디언트_1414-4);}.cls-62{fill:url(#무제_그라디언트_1414-5);}.cls-63{fill:#9999ab;}.cls-64{fill:url(#무제_그라디언트_1533);}.cls-65{fill:url(#무제_그라디언트_1533-2);}.cls-66{fill:url(#무제_그라디언트_1533-3);}.cls-67{fill:url(#무제_그라디언트_1533-4);}.cls-68{fill:url(#무제_그라디언트_1533-5);}.cls-69{fill:url(#무제_그라디언트_1533-6);}.cls-70{fill:url(#무제_그라디언트_1533-7);}.cls-71{fill:url(#무제_그라디언트_1533-8);}.cls-72{fill:url(#무제_그라디언트_1533-9);}.cls-73{fill:url(#무제_그라디언트_1533-10);}.cls-74{fill:url(#무제_그라디언트_1533-11);}.cls-75{fill:url(#무제_그라디언트_1533-12);}.cls-76{fill:url(#무제_그라디언트_1533-13);}.cls-77{fill:url(#무제_그라디언트_1533-14);}.cls-78{fill:url(#무제_그라디언트_1533-15);}.cls-79{fill:url(#무제_그라디언트_1669);}.cls-80{fill:url(#무제_그라디언트_1682);}.cls-81{fill:url(#무제_그라디언트_1717);}.cls-82{fill:url(#무제_그라디언트_71-4);}.cls-83{fill:url(#무제_그라디언트_74-7);}.cls-84{fill:url(#무제_그라디언트_74-8);}</style><radialGradient id="무제_그라디언트_71" cx="17.95" cy="54.85" r="7.98" gradientTransform="translate(20.13 -13.51) rotate(-0.58)" gradientUnits="userSpaceOnUse"><stop offset="0" stop-color="#fff"/><stop offset="0.03" stop-color="#fff" stop-opacity="0.96"/><stop offset="0.24" stop-color="#fff" stop-opacity="0.67"/><stop offset="0.44" stop-color="#fff" stop-opacity="0.43"/><stop offset="0.62" stop-color="#fff" stop-opacity="0.25"/><stop offset="0.78" stop-color="#fff" stop-opacity="0.11"/><stop offset="0.91" stop-color="#fff" stop-opacity="0.03"/><stop offset="1" stop-color="#fff" stop-opacity="0"/></radialGradient><radialGradient id="무제_그라디언트_74" cx="18.3" cy="55" r="38.07" gradientTransform="translate(20.13 -13.51) rotate(-0.58)" gradientUnits="userSpaceOnUse"><stop offset="0" stop-color="#fff"/><stop offset="0.08" stop-color="#fff" stop-opacity="0.82"/><stop offset="0.17" stop-color="#fff" stop-opacity="0.63"/><stop offset="0.26" stop-color="#fff" stop-opacity="0.46"/><stop offset="0.36" stop-color="#fff" stop-opacity="0.32"/><stop offset="0.46" stop-color="#fff" stop-opacity="0.2"/><stop offset="0.57" stop-color="#fff" stop-opacity="0.11"/><stop offset="0.69" stop-color="#fff" stop-opacity="0.05"/><stop offset="0.82" stop-color="#fff" stop-opacity="0.01"/><stop offset="1" stop-color="#fff" stop-opacity="0"/></radialGradient><radialGradient id="무제_그라디언트_74-2" cx="1116.47" cy="-1372.53" r="24.98" gradientTransform="matrix(0.71, 0.7, -0.7, 0.71, -1719.14, 240.28)" xlink:href="#무제_그라디언트_74"/><radialGradient id="무제_그라디언트_71-2" cx="209.59" cy="133.55" r="2.39" gradientTransform="translate(-38.33 22.82) rotate(1.12)" xlink:href="#무제_그라디언트_71"/><radialGradient id="무제_그라디언트_74-3" cx="209.7" cy="133.59" r="11.4" gradientTransform="translate(-38.33 22.82) rotate(1.12)" xlink:href="#무제_그라디언트_74"/><radialGradient id="무제_그라디언트_74-4" cx="1307.98" cy="-1452.16" r="7.48" gradientTransform="matrix(0.69, 0.72, -0.72, 0.69, -1784.69, 224.31)" xlink:href="#무제_그라디언트_74"/><radialGradient id="무제_그라디언트_71-3" cx="217.83" cy="127.78" r="5.43" gradientTransform="translate(-38.33 22.82) rotate(1.12)" xlink:href="#무제_그라디언트_71"/><radialGradient id="무제_그라디언트_74-5" cx="218.07" cy="127.88" r="25.9" gradientTransform="translate(-38.33 22.82) rotate(1.12)" xlink:href="#무제_그라디언트_74"/><radialGradient id="무제_그라디언트_74-6" cx="1309.87" cy="-1462.11" r="17" gradientTransform="matrix(0.69, 0.72, -0.72, 0.69, -1784.69, 224.31)" xlink:href="#무제_그라디언트_74"/><linearGradient id="무제_그라디언트_1365" x1="51.27" y1="30.03" x2="45.4" y2="45.44" gradientUnits="userSpaceOnUse"><stop offset="0" stop-color="#ddecf1"/><stop offset="0.05" stop-color="#e5f0f4"/><stop offset="0.14" stop-color="#fafcfd"/><stop offset="0.15" stop-color="#fff"/><stop offset="0.23" stop-color="#dfe6ee"/><stop offset="0.29" stop-color="#c4d1e0"/><stop offset="0.32" stop-color="#b7c4d4"/><stop offset="0.43" stop-color="#929fb3"/><stop offset="0.55" stop-color="#929fb3"/><stop offset="0.59" stop-color="#9eadbf"/><stop offset="0.66" stop-color="#aebfcf"/><stop offset="0.75" stop-color="#929fb3"/><stop offset="0.76" stop-color="#8b97aa"/><stop offset="0.82" stop-color="#65707e"/><stop offset="0.85" stop-color="#56616d"/><stop offset="0.86" stop-color="#515c67"/><stop offset="0.92" stop-color="#292e33"/><stop offset="0.97" stop-color="#101112"/><stop offset="1" stop-color="#060606"/></linearGradient><linearGradient id="무제_그라디언트_1365-2" x1="40.96" y1="34.17" x2="35.09" y2="54.35" xlink:href="#무제_그라디언트_1365"/><linearGradient id="무제_그라디언트_1365-3" x1="23.53" y1="175.83" x2="50.13" y2="169.65" xlink:href="#무제_그라디언트_1365"/><linearGradient id="무제_그라디언트_1365-4" x1="10.27" y1="158.04" x2="37.76" y2="156.92" xlink:href="#무제_그라디언트_1365"/><linearGradient id="무제_그라디언트_1365-5" x1="5.14" y1="140.23" x2="28.29" y2="144.82" xlink:href="#무제_그라디언트_1365"/><linearGradient id="무제_그라디언트_1365-6" x1="2.92" y1="123.92" x2="21.69" y2="131.07" xlink:href="#무제_그라디언트_1365"/><linearGradient id="무제_그라디언트_1365-7" x1="1.13" y1="107.16" x2="17.93" y2="116.87" xlink:href="#무제_그라디언트_1365"/><linearGradient id="무제_그라디언트_1365-8" x1="4.48" y1="89.34" x2="18.94" y2="104.18" xlink:href="#무제_그라디언트_1365"/><linearGradient id="무제_그라디언트_1365-9" x1="-133.66" y1="155.32" x2="-124.75" y2="173.34" gradientTransform="translate(132.82 -91.02) rotate(-3.94)" xlink:href="#무제_그라디언트_1365"/><linearGradient id="무제_그라디언트_1365-10" x1="-38.71" y1="89.95" x2="-31.67" y2="108.23" gradientTransform="matrix(1, -0.03, 0.03, 1, 51.98, -32.98)" xlink:href="#무제_그라디언트_1365"/><linearGradient id="무제_그라디언트_1365-11" x1="97.99" y1="39.57" x2="96.97" y2="60.63" gradientTransform="matrix(0.94, 0, 0, 1, -63.99, 5.14)" xlink:href="#무제_그라디언트_1365"/><linearGradient id="무제_그라디언트_1365-12" x1="62.09" y1="40.74" x2="48.17" y2="43.78" xlink:href="#무제_그라디언트_1365"/><linearGradient id="무제_그라디언트_1365-13" x1="55.95" y1="48.79" x2="38.87" y2="49.49" xlink:href="#무제_그라디언트_1365"/><linearGradient id="무제_그라디언트_1365-14" x1="124.95" y1="148.93" x2="121.43" y2="170.66" gradientTransform="matrix(0.95, 0, 0, 1, -62.64, -0.59)" xlink:href="#무제_그라디언트_1365"/><linearGradient id="무제_그라디언트_1365-15" x1="59.63" y1="141.03" x2="57.29" y2="163.75" gradientTransform="matrix(0.99, 0, 0, 1, -15.97, -2.66)" xlink:href="#무제_그라디언트_1365"/><linearGradient id="무제_그라디언트_1365-16" x1="36.85" y1="126.74" x2="28.78" y2="145.45" xlink:href="#무제_그라디언트_1365"/><linearGradient id="무제_그라디언트_1365-17" x1="33.54" y1="114.64" x2="21.06" y2="130.79" xlink:href="#무제_그라디언트_1365"/><linearGradient id="무제_그라디언트_1365-18" x1="73.04" y1="225.95" x2="58.41" y2="240.58" gradientTransform="matrix(0.99, -0.02, -0.02, 0.95, -37.44, -112.83)" xlink:href="#무제_그라디언트_1365"/><linearGradient id="무제_그라디언트_1365-19" x1="33.07" y1="88.62" x2="16.7" y2="98.09" xlink:href="#무제_그라디언트_1365"/><linearGradient id="무제_그라디언트_1365-20" x1="37.53" y1="76.4" x2="20.34" y2="83.5" xlink:href="#무제_그라디언트_1365"/><linearGradient id="무제_그라디언트_1365-21" x1="435.55" y1="628.01" x2="418.75" y2="630.77" gradientTransform="matrix(0.95, -0.07, -0.12, 0.83, -297.32, -423.98)" xlink:href="#무제_그라디언트_1365"/><linearGradient id="무제_그라디언트_1365-22" x1="343.64" y1="198.02" x2="326.25" y2="200.88" gradientTransform="matrix(0.98, 0.03, -0.12, 0.91, -263.28, -133.68)" xlink:href="#무제_그라디언트_1365"/><linearGradient id="무제_그라디언트_1476" x1="29.97" y1="29.4" x2="58.34" y2="202.06" gradientUnits="userSpaceOnUse"><stop offset="0" stop-color="#636d78"/><stop offset="0.04" stop-color="#9daab2"/><stop offset="0.08" stop-color="#cbdadf"/><stop offset="0.09" stop-color="#ddecf1"/><stop offset="0.18" stop-color="#c4d1e0"/><stop offset="0.19" stop-color="#bfcdde"/><stop offset="0.23" stop-color="#a6b9d0"/><stop offset="0.26" stop-color="#9cb2cb"/><stop offset="0.27" stop-color="#889bb0"/><stop offset="0.29" stop-color="#728293"/><stop offset="0.31" stop-color="#63707e"/><stop offset="0.33" stop-color="#596571"/><stop offset="0.34" stop-color="#56616d"/><stop offset="0.35" stop-color="#5f6b79"/><stop offset="0.39" stop-color="#8092a5"/><stop offset="0.42" stop-color="#94a9c1"/><stop offset="0.44" stop-color="#9cb2cb"/><stop offset="0.46" stop-color="#acbfd3"/><stop offset="0.49" stop-color="#beccdd"/><stop offset="0.52" stop-color="#c4d1e0"/><stop offset="0.52" stop-color="#c2cfde"/><stop offset="0.59" stop-color="#56616d"/><stop offset="0.72" stop-color="#c4d1e0"/><stop offset="0.85" stop-color="#67727e"/><stop offset="0.94" stop-color="#56616d"/><stop offset="0.94" stop-color="#5c6773"/><stop offset="0.97" stop-color="#a1aeb6"/><stop offset="0.99" stop-color="#ccdbe1"/><stop offset="1" stop-color="#ddecf1"/></linearGradient><linearGradient id="무제_그라디언트_1365-23" x1="-2545.65" y1="30.03" x2="-2551.52" y2="45.44" gradientTransform="matrix(-1, 0, 0, 1, -2406.59, 0)" xlink:href="#무제_그라디언트_1365"/><linearGradient id="무제_그라디언트_1365-24" x1="-2555.96" y1="34.17" x2="-2561.83" y2="54.35" gradientTransform="matrix(-1, 0, 0, 1, -2406.59, 0)" xlink:href="#무제_그라디언트_1365"/><linearGradient id="무제_그라디언트_1365-25" x1="-2573.38" y1="175.83" x2="-2546.79" y2="169.65" gradientTransform="matrix(-1, 0, 0, 1, -2406.59, 0)" xlink:href="#무제_그라디언트_1365"/><linearGradient id="무제_그라디언트_1365-26" x1="-2586.65" y1="158.04" x2="-2559.15" y2="156.92" gradientTransform="matrix(-1, 0, 0, 1, -2406.59, 0)" xlink:href="#무제_그라디언트_1365"/><linearGradient id="무제_그라디언트_1365-27" x1="-2591.77" y1="140.23" x2="-2568.63" y2="144.82" gradientTransform="matrix(-1, 0, 0, 1, -2406.59, 0)" xlink:href="#무제_그라디언트_1365"/><linearGradient id="무제_그라디언트_1365-28" x1="-2594" y1="123.92" x2="-2575.23" y2="131.07" gradientTransform="matrix(-1, 0, 0, 1, -2406.59, 0)" xlink:href="#무제_그라디언트_1365"/><linearGradient id="무제_그라디언트_1365-29" x1="-2595.79" y1="107.16" x2="-2578.99" y2="116.87" gradientTransform="matrix(-1, 0, 0, 1, -2406.59, 0)" xlink:href="#무제_그라디언트_1365"/><linearGradient id="무제_그라디언트_1365-30" x1="-2592.43" y1="89.34" x2="-2577.98" y2="104.18" gradientTransform="matrix(-1, 0, 0, 1, -2406.59, 0)" xlink:href="#무제_그라디언트_1365"/><linearGradient id="무제_그라디언트_1365-31" x1="-2724.54" y1="-23.1" x2="-2715.63" y2="-5.08" gradientTransform="matrix(-1, -0.07, -0.07, 1, -2539.41, -91.02)" xlink:href="#무제_그라디언트_1365"/><linearGradient id="무제_그라디언트_1365-32" x1="-2634.61" y1="21.66" x2="-2627.57" y2="39.94" gradientTransform="matrix(-1, -0.03, -0.03, 1, -2458.57, -32.98)" xlink:href="#무제_그라디언트_1365"/><linearGradient id="무제_그라디언트_1365-33" x1="-2662.11" y1="52.55" x2="-2663.13" y2="73.61" gradientTransform="matrix(-0.94, 0, 0, 1, -2342.61, 5.14)" xlink:href="#무제_그라디언트_1365"/><linearGradient id="무제_그라디언트_1365-34" x1="-2534.83" y1="40.74" x2="-2548.75" y2="43.78" gradientTransform="matrix(-1, 0, 0, 1, -2406.59, 0)" xlink:href="#무제_그라디언트_1365"/><linearGradient id="무제_그라디언트_1365-35" x1="-2540.96" y1="48.79" x2="-2558.05" y2="49.49" gradientTransform="matrix(-1, 0, 0, 1, -2406.59, 0)" xlink:href="#무제_그라디언트_1365"/><linearGradient id="무제_그라디언트_1365-36" x1="-2606.7" y1="146.23" x2="-2610.29" y2="168.44" gradientTransform="matrix(-0.95, 0, 0, 1, -2343.96, -0.59)" xlink:href="#무제_그라디언트_1365"/><linearGradient id="무제_그라디언트_1365-37" x1="-2563.19" y1="137.46" x2="-2565.42" y2="159.15" gradientTransform="matrix(-0.99, 0, 0, 1, -2390.62, -2.66)" xlink:href="#무제_그라디언트_1365"/><linearGradient id="무제_그라디언트_1365-38" x1="-2560.07" y1="126.74" x2="-2568.14" y2="145.45" gradientTransform="matrix(-1, 0, 0, 1, -2406.59, 0)" xlink:href="#무제_그라디언트_1365"/><linearGradient id="무제_그라디언트_1365-39" x1="-2563.38" y1="114.64" x2="-2575.85" y2="130.79" gradientTransform="matrix(-1, 0, 0, 1, -2406.59, 0)" xlink:href="#무제_그라디언트_1365"/><linearGradient id="무제_그라디언트_1365-40" x1="-2537.85" y1="183.48" x2="-2552.48" y2="198.11" gradientTransform="matrix(-0.99, -0.02, 0.02, 0.95, -2369.15, -112.83)" xlink:href="#무제_그라디언트_1365"/><linearGradient id="무제_그라디언트_1365-41" x1="-2563.85" y1="88.62" x2="-2580.22" y2="98.09" gradientTransform="matrix(-1, 0, 0, 1, -2406.59, 0)" xlink:href="#무제_그라디언트_1365"/><linearGradient id="무제_그라디언트_1365-42" x1="-2559.39" y1="76.4" x2="-2576.58" y2="83.5" gradientTransform="matrix(-1, 0, 0, 1, -2406.59, 0)" xlink:href="#무제_그라디언트_1365"/><linearGradient id="무제_그라디언트_1365-43" x1="-2329.12" y1="400.93" x2="-2345.91" y2="403.69" gradientTransform="matrix(-0.95, -0.07, 0.12, 0.83, -2109.27, -423.98)" xlink:href="#무제_그라디언트_1365"/><linearGradient id="무제_그라디언트_1365-44" x1="-2308.88" y1="287.47" x2="-2326.26" y2="290.33" gradientTransform="matrix(-0.98, 0.03, 0.12, 0.91, -2143.32, -133.68)" xlink:href="#무제_그라디언트_1365"/><linearGradient id="무제_그라디언트_1476-2" x1="-2566.94" y1="29.4" x2="-2538.58" y2="202.06" gradientTransform="matrix(-1, 0, 0, 1, -2406.59, 0)" xlink:href="#무제_그라디언트_1476"/><linearGradient id="무제_그라디언트_1414" x1="95.16" y1="175.2" x2="95.16" y2="188.23" gradientUnits="userSpaceOnUse"><stop offset="0.12" stop-color="#8190a7"/><stop offset="0.2" stop-color="#8493a9"/><stop offset="0.26" stop-color="#8d9bb0"/><stop offset="0.28" stop-color="#929fb3"/><stop offset="0.36" stop-color="#b1becf"/><stop offset="0.41" stop-color="#c4d1e0"/><stop offset="0.55" stop-color="#c4d1e0"/><stop offset="0.59" stop-color="#c0cddc"/><stop offset="0.63" stop-color="#b2bfd0"/><stop offset="0.67" stop-color="#9daabc"/><stop offset="0.68" stop-color="#929fb3"/><stop offset="0.83" stop-color="#929fb3"/><stop offset="0.94" stop-color="#778094"/><stop offset="1" stop-color="#686f83"/></linearGradient><linearGradient id="무제_그라디언트_1414-2" x1="72.36" y1="176.14" x2="72.36" y2="185.73" xlink:href="#무제_그라디언트_1414"/><linearGradient id="무제_그라디언트_1414-3" x1="82.88" y1="177.62" x2="82.88" y2="190.65" xlink:href="#무제_그라디언트_1414"/><linearGradient id="무제_그라디언트_1414-4" x1="-2547.5" y1="176.14" x2="-2547.5" y2="185.73" gradientTransform="matrix(-1, 0, 0, 1, -2429.54, 0)" xlink:href="#무제_그라디언트_1414"/><linearGradient id="무제_그라디언트_1414-5" x1="-2536.99" y1="177.62" x2="-2536.99" y2="190.65" gradientTransform="matrix(-1, 0, 0, 1, -2429.54, 0)" xlink:href="#무제_그라디언트_1414"/><linearGradient id="무제_그라디언트_1533" x1="72.71" y1="32.36" x2="117.76" y2="32.36" gradientUnits="userSpaceOnUse"><stop offset="0" stop-color="#56616d"/><stop offset="0.04" stop-color="#5b6672"/><stop offset="0.08" stop-color="#697480"/><stop offset="0.13" stop-color="#7f8b98"/><stop offset="0.18" stop-color="#9fabb9"/><stop offset="0.23" stop-color="#c4d1e0"/><stop offset="0.34" stop-color="#c4d1e0"/><stop offset="0.36" stop-color="#bfcbdb"/><stop offset="0.47" stop-color="#9fa6bd"/><stop offset="0.5" stop-color="#a9b2c7"/><stop offset="0.57" stop-color="#bdc9d9"/><stop offset="0.62" stop-color="#c4d1e0"/><stop offset="0.72" stop-color="#c4d1e0"/><stop offset="0.84" stop-color="#9fa6bd"/><stop offset="0.91" stop-color="#828b9e"/><stop offset="1" stop-color="#56616d"/></linearGradient><linearGradient id="무제_그라디언트_1533-2" x1="73.16" y1="32.91" x2="116.23" y2="32.91" xlink:href="#무제_그라디언트_1533"/><linearGradient id="무제_그라디언트_1533-3" x1="73.16" y1="32.96" x2="116.23" y2="32.96" xlink:href="#무제_그라디언트_1533"/><linearGradient id="무제_그라디언트_1533-4" x1="73.16" y1="33.22" x2="116.23" y2="33.22" xlink:href="#무제_그라디언트_1533"/><linearGradient id="무제_그라디언트_1533-5" x1="73.16" y1="33.78" x2="116.23" y2="33.78" xlink:href="#무제_그라디언트_1533"/><linearGradient id="무제_그라디언트_1533-6" x1="73.16" y1="34.45" x2="116.23" y2="34.45" xlink:href="#무제_그라디언트_1533"/><linearGradient id="무제_그라디언트_1533-7" x1="73.16" y1="35.38" x2="116.23" y2="35.38" xlink:href="#무제_그라디언트_1533"/><linearGradient id="무제_그라디언트_1533-8" x1="73.16" y1="36.51" x2="116.23" y2="36.51" xlink:href="#무제_그라디언트_1533"/><linearGradient id="무제_그라디언트_1533-9" x1="-2440.8" y1="32.96" x2="-2397.74" y2="32.96" gradientTransform="matrix(-1, 0, 0, 1, -2324.89, 0)" xlink:href="#무제_그라디언트_1533"/><linearGradient id="무제_그라디언트_1533-10" x1="-2440.8" y1="33.22" x2="-2397.74" y2="33.22" gradientTransform="matrix(-1, 0, 0, 1, -2324.89, 0)" xlink:href="#무제_그라디언트_1533"/><linearGradient id="무제_그라디언트_1533-11" x1="-2440.8" y1="33.78" x2="-2397.74" y2="33.78" gradientTransform="matrix(-1, 0, 0, 1, -2324.89, 0)" xlink:href="#무제_그라디언트_1533"/><linearGradient id="무제_그라디언트_1533-12" x1="-2440.8" y1="34.45" x2="-2397.74" y2="34.45" gradientTransform="matrix(-1, 0, 0, 1, -2324.89, 0)" xlink:href="#무제_그라디언트_1533"/><linearGradient id="무제_그라디언트_1533-13" x1="-2440.8" y1="35.38" x2="-2397.74" y2="35.38" gradientTransform="matrix(-1, 0, 0, 1, -2324.89, 0)" xlink:href="#무제_그라디언트_1533"/><linearGradient id="무제_그라디언트_1533-14" x1="-2440.8" y1="36.51" x2="-2397.74" y2="36.51" gradientTransform="matrix(-1, 0, 0, 1, -2324.89, 0)" xlink:href="#무제_그라디언트_1533"/><linearGradient id="무제_그라디언트_1533-15" x1="68.22" y1="16.17" x2="121.9" y2="16.17" xlink:href="#무제_그라디언트_1533"/><linearGradient id="무제_그라디언트_1669" x1="130.34" y1="50.28" x2="70.02" y2="146.01" gradientUnits="userSpaceOnUse"><stop offset="0" stop-color="#e7f2f5"/><stop offset="0.03" stop-color="#ccd7e0"/><stop offset="0.07" stop-color="#b5c0cd"/><stop offset="0.11" stop-color="#a6b1c1"/><stop offset="0.14" stop-color="#a1acbd"/><stop offset="0.22" stop-color="#a1acbd"/><stop offset="0.23" stop-color="#a1acbd"/><stop offset="0.33" stop-color="#b6c1ce"/><stop offset="0.51" stop-color="#dae5ea"/><stop offset="0.6" stop-color="#e7f2f5"/><stop offset="0.9" stop-color="#a1acbd"/><stop offset="1" stop-color="#929fb3"/></linearGradient><linearGradient id="무제_그라디언트_1682" x1="75.19" y1="57.78" x2="97.31" y2="121.68" gradientUnits="userSpaceOnUse"><stop offset="0" stop-color="#404c5a"/><stop offset="0.08" stop-color="#434f5d"/><stop offset="0.15" stop-color="#4c5867"/><stop offset="0.21" stop-color="#5c6878"/><stop offset="0.26" stop-color="#717e90"/><stop offset="0.32" stop-color="#8d9aae"/><stop offset="0.33" stop-color="#929fb3"/><stop offset="0.43" stop-color="#929fb3"/><stop offset="0.49" stop-color="#7c8ca4"/><stop offset="0.59" stop-color="#7c8ca4"/><stop offset="0.61" stop-color="#92a2b5"/><stop offset="0.67" stop-color="#c8d7e0"/><stop offset="0.7" stop-color="#ddecf1"/><stop offset="0.8" stop-color="#929fb3"/><stop offset="0.88" stop-color="#768294"/><stop offset="1" stop-color="#45515e"/></linearGradient><linearGradient id="무제_그라디언트_1717" x1="85.67" y1="118.83" x2="130" y2="151.24" gradientUnits="userSpaceOnUse"><stop offset="0.13" stop-color="#576277"/><stop offset="0.19" stop-color="#5a657a"/><stop offset="0.24" stop-color="#636e83"/><stop offset="0.28" stop-color="#737f94"/><stop offset="0.31" stop-color="#8895aa"/><stop offset="0.32" stop-color="#8e9bb0"/><stop offset="0.35" stop-color="#929fb3"/><stop offset="0.39" stop-color="#a0abbc"/><stop offset="0.43" stop-color="#b5becc"/><stop offset="0.45" stop-color="#c4cbd6"/><stop offset="0.55" stop-color="#9aa6b8"/><stop offset="0.65" stop-color="#acb6c5"/><stop offset="0.72" stop-color="#cad7e0"/><stop offset="0.77" stop-color="#ddecf1"/><stop offset="0.82" stop-color="#dbeaef"/><stop offset="0.84" stop-color="#d5e3e9"/><stop offset="0.86" stop-color="#c9d8de"/><stop offset="0.87" stop-color="#b9c7cd"/><stop offset="0.87" stop-color="#a3b1b9"/><stop offset="0.88" stop-color="#89959f"/><stop offset="0.89" stop-color="#6a7681"/><stop offset="0.89" stop-color="#56616d"/><stop offset="1" stop-color="#56616d"/></linearGradient><radialGradient id="무제_그라디언트_71-4" cx="151.16" cy="39.36" r="7.6" gradientTransform="translate(-38.33 22.82) rotate(1.12)" xlink:href="#무제_그라디언트_71"/><radialGradient id="무제_그라디언트_74-7" cx="151.49" cy="39.51" r="36.23" gradientTransform="translate(-38.33 22.82) rotate(1.12)" xlink:href="#무제_그라디언트_74"/><radialGradient id="무제_그라디언트_74-8" cx="1200.3" cy="-1477.52" r="23.78" gradientTransform="matrix(0.69, 0.72, -0.72, 0.69, -1784.69, 224.31)" xlink:href="#무제_그라디언트_74"/></defs><g class="cls-1"><g id="레이어_2" data-name="레이어 2"><g id="레이어_2-2" data-name="레이어 2"><g class="cls-2"><path class="cls-3" d="M45.67,41.08a7,7,0,1,1-7.1-6.95A7,7,0,0,1,45.67,41.08Z"/><polygon class="cls-4" points="38.65 7.78 39.58 40.7 72.51 40.96 39.59 41.89 39.33 74.82 38.4 41.91 5.47 41.64 38.39 40.71 38.65 7.78"/><polygon class="cls-5" points="54.39 25.59 39.55 41.3 54.7 56.7 39 41.86 23.59 57.02 38.44 41.31 23.28 25.9 38.98 40.75 54.39 25.59"/></g><g class="cls-2"><path class="cls-6" d="M170.72,160.46a2.11,2.11,0,1,1-2.07-2.14A2.11,2.11,0,0,1,170.72,160.46Z"/><polygon class="cls-7" points="168.91 150.43 168.9 160.29 178.75 160.66 168.89 160.65 168.52 170.51 168.53 160.64 158.68 160.27 168.54 160.29 168.91 150.43"/><polygon class="cls-8" points="173.47 155.9 168.88 160.47 173.28 165.22 168.71 160.63 163.97 165.04 168.55 160.47 164.15 155.72 168.72 160.3 173.47 155.9"/></g><g class="cls-2"><path class="cls-9" d="M181.74,154.91a4.78,4.78,0,1,1-4.69-4.87A4.77,4.77,0,0,1,181.74,154.91Z"/><polygon class="cls-10" points="177.64 132.12 177.61 154.53 200 155.37 177.59 155.34 176.75 177.73 176.78 155.32 154.39 154.48 176.8 154.51 177.64 132.12"/><polygon class="cls-11" points="187.99 144.55 177.57 154.93 187.57 165.72 177.19 155.3 166.41 165.3 176.82 154.92 166.82 144.14 177.2 154.55 187.99 144.55"/></g><path class="cls-12" d="M52.23,32c-.08-.48-2.84.5-3.71,1a7.79,7.79,0,0,0-4,4,9.28,9.28,0,0,0,0,5.73,4,4,0,0,0,1.24,1.6c.6.36,1.13-.3,2.81-1.33C48.67,43,53.69,40.73,52.23,32ZM46.69,43.92l-.58-.17A18.3,18.3,0,0,1,50,35.66S47.12,40.7,46.69,43.92Z"/><path class="cls-13" d="M37.12,52.93h-.35a24,24,0,0,1,1.67-11.62s-1.54,7.18-.91,11.41c.65-.42,1.3-1.15,2.16-1.67,0,0,7.09-3.54.32-15.34-.32-.56-3.86,2.23-4.14,2.51a11.23,11.23,0,0,0-3.33,7,9.81,9.81,0,0,0,2.8,7.22A1.57,1.57,0,0,0,37.12,52.93Z"/><path class="cls-14" d="M29.78,173.16c12.84-3.09,18.6-3.44,20.64-3.43a17,17,0,0,0-9.09-4.8c-7-1.25-12.27.47-18.59,9,0,0,15,16.69,29.35-2.21a13.2,13.2,0,0,0-.81-1.05C44,171.48,29.78,173.16,29.78,173.16Z"/><path class="cls-15" d="M37.42,160.28a4.76,4.76,0,0,0-.26-.74c-4.15-2.45-20.81-2.42-20.81-2.42,16.93-1.92,19.67.66,19.67.66l1.13,1.73c-.6-1.42-2.43-4.56-7.54-7.34-5.78-3.13-13.16-2-19.71,4C9.9,156.12,21.28,171.71,37.42,160.28Z"/><path class="cls-16" d="M19.06,149a10.76,10.76,0,0,0,7.73-2.24,4.07,4.07,0,0,0,.1-1.52c-5.16-1.6-17-3.86-17-3.86,10.43.76,14.92,1.89,16.74,2.53-.5-1.47.19-2.23-3.48-5-4.55-3.41-11.12-3.52-18.71.37C4.4,139.25,7.13,148.24,19.06,149Z"/><path class="cls-17" d="M13.94,133.75a15.08,15.08,0,0,0,7.29-1.08,5,5,0,0,0,.07-1.59l0,.37c-3.67-2.35-14.79-5.87-14.79-5.87,10,1.43,13.72,3.74,14.63,4.4a11.38,11.38,0,0,0-3.88-5.89c-4-3.54-8.76-4.54-16-1.35C1.19,122.74,3.62,133,13.94,133.75Z"/><path class="cls-18" d="M9.16,117.87a20.12,20.12,0,0,0,7.58.24,5.67,5.67,0,0,0,.13-.69C14.48,114.7,7.05,110,7.05,110c6.48,2.56,9,4.9,9.91,6a11.31,11.31,0,0,0-2.19-6.55c-2.83-4-8-5.55-14.77-3.23C0,106.23,0,115.59,9.16,117.87Z"/><path class="cls-19" d="M11.11,103.05a15.72,15.72,0,0,0,5.67.8s.18.2.46-.92A118.24,118.24,0,0,1,7.7,91.56c6.36,6.36,9.17,9.17,9.79,10a22.79,22.79,0,0,0-.43-6.36c-1.1-4-5.55-7.2-12.66-7.71C4.4,87.52,1.47,99.45,11.11,103.05Z"/><path class="cls-20" d="M20.13,89.92s.82-2.62.5-8.56c-.24-4.54-4.22-8.1-10.32-9.39,0,0-4.35,7.9.85,14A10.12,10.12,0,0,0,20.13,89.92Zm-.56-1.54-.49.61c-2.45-4.28-5.75-11.25-5.75-11.25C20.18,87.52,19.57,88.38,19.57,88.38Z"/><path class="cls-21" d="M22.07,75.28l.21-.16C20.42,70.72,18,63.89,18,63.89c3.79,7.74,4.59,10.08,4.76,10.75.78-.91,2-2.93,2.09-7,.14-4.59-2.75-8.18-9-10.94,0,0-5.79,7.42-.05,15A9.35,9.35,0,0,0,22.07,75.28Z"/><path class="cls-22" d="M28.39,65.27s2.19-.86,4.3-6.4c1.62-4.24.17-9.07-4.44-13.87,0,0-8,3.61-4.87,14.44C23.94,61.41,25.84,63.63,28.39,65.27Zm-.63-12.46c1,9.24,2.42,10.23,2.42,10.23l-.59.73C27.27,59.84,27.76,52.81,27.76,52.81Z"/><path class="cls-23" d="M51,41c-1.16,1.18-1.8,1.49-1.63,2.05a3.43,3.43,0,0,0,1.08,1.32,7.8,7.8,0,0,0,4.68,1.13A6.5,6.5,0,0,0,59.2,43c.54-.62,1.88-2.69,1.5-2.85C53.87,37.3,51,41,51,41Zm6.28.36A15.44,15.44,0,0,1,50,42.93l0-.51C52.63,42.69,57.3,41.33,57.3,41.33Z"/><path class="cls-24" d="M41.28,49.32l0,.29a19.64,19.64,0,0,0,9.52-.89s-5.91,1-9.31.27c.36-.5,1-1,1.44-1.69,0,0,3.16-5.61,12.48.36.44.29-2,3.05-2.21,3.27a9.17,9.17,0,0,1-5.81,2.43,8,8,0,0,1-5.76-2.57A1.27,1.27,0,0,1,41.28,49.32Z"/><path class="cls-25" d="M54.39,154.84c-2.43,9.83-2.76,14.25-2.78,15.82a13.39,13.39,0,0,1-3.39-7c-.82-5.42.71-10.1,7-14.85,0,0,12.69,11.17-2.2,23.21,0,0-.31-.23-.76-.64C53,165.77,54.39,154.84,54.39,154.84Z"/><path class="cls-26" d="M41.59,162.11a4.59,4.59,0,0,1-.54-.31C39.72,158.17,42.12,145,42.12,145c-3.91,13.13-2.28,15.66-2.28,15.66L41,161.78c-1-.67-3.23-2.56-4.68-7-1.63-5,.59-11.4,6.19-15.74C42.54,139,53.58,149.88,41.59,162.11Z"/><path class="cls-27" d="M36.23,143a8.31,8.31,0,0,1-5.74,3.66,4.65,4.65,0,0,1-1.29-.77c1.23-4.65,5.23-14.59,5.23-14.59-4.26,7.85-5.17,11.15-5.63,12.71a8.2,8.2,0,0,1-2.48-5.24c-.55-4.94,2-8.63,9.36-12.74C35.68,126,42.19,134.85,36.23,143Z"/><path class="cls-28" d="M28.66,128.85a12.83,12.83,0,0,1-6.05,2.44,4.78,4.78,0,0,1-.84-1.14l.21.27c1.54-3.52,8-11.54,8-11.54-6.62,5.92-8.26,9.45-8.61,10.38a10.07,10.07,0,0,1,0-6.23c1.23-4.56,4.21-7.87,11.14-8.83C32.49,114.2,36.77,123.68,28.66,128.85Z"/><path class="cls-29" d="M26,114a20.34,20.34,0,0,1-6.66,2.42,5,5,0,0,1-.33-.58c1.33-3.15,6.54-9.56,6.54-9.56-5,4.21-6.55,7-7,8.32a10.83,10.83,0,0,1,0-6.55c1.34-4.44,5.64-7.45,12.35-7.71C30.83,100.35,34.44,109.16,26,114Z"/><path class="cls-30" d="M22.74,99.82a13.26,13.26,0,0,1-5-.34,4.33,4.33,0,0,1-.28-1.56,51,51,0,0,1,10.37-7.39c-6.85,2.52-9.35,4.61-10.26,5.79A14.41,14.41,0,0,1,19,92c1.69-3.28,6.56-5.56,12.78-4.7C31.81,87.28,32.78,98,22.74,99.82Z"/><path class="cls-31" d="M28.54,84.83c6.89-1.47,7.87-8.35,7.87-8.35-5-1.94-9.71-1.52-12.24,1.2-3.3,3.54-4.07,5.54-4.07,5.54C21.21,84.13,24.07,85.78,28.54,84.83Zm3.62-6.35s-6.93,3.21-10.7,4.83l-.05-.45S22.77,81,32.16,78.48Z"/><path class="cls-32" d="M26.15,70.78s0-.08.06-.19c3.9-.74,9.81-2.16,9.81-2.16-7,1-9.05,1.52-9.61,1.7.43-.83,1.54-2.36,4.52-4.09,3.38-2,7-1.79,11.15.67,0,0-3.63,6.42-11.19,6.23A6.1,6.1,0,0,1,26.15,70.78Z"/><path class="cls-33" d="M33.1,60.05s0-.09.06-.21c4-.39,10.07-1.31,10.07-1.31-7.22.34-9.29.68-9.86.82.43-.88,1.57-2.46,4.62-4.07,3.46-1.83,7.2-1.21,11.46,2,0,0-3.7,6.77-11.47,5.71A7.05,7.05,0,0,1,33.1,60.05Z"/><path class="cls-34" d="M58.69,177.92c-.54-.25-1.24-.64-2.09-1.11C46,170.92,15.41,149.2,16.75,104.4c1.47-48.91,41.58-68.23,41.58-68.23C35.58,49.37,19,75.6,19,104.38a79.41,79.41,0,0,0,40.13,69.39S65,176.7,64,178.55C64,178.55,63.65,180.18,58.69,177.92Z"/><path class="cls-35" d="M141.65,43c1.69,1,2.21,1.69,2.82,1.33a4.16,4.16,0,0,0,1.24-1.6,9.2,9.2,0,0,0,0-5.73,7.77,7.77,0,0,0-3.94-4c-.87-.46-3.63-1.44-3.72-1C136.63,40.73,141.65,43,141.65,43Zm-1.28-7.38a18.34,18.34,0,0,1,3.84,8.09l-.58.17C143.21,40.7,140.37,35.66,140.37,35.66Z"/><path class="cls-36" d="M153.21,52.93h.35a24.1,24.1,0,0,0-1.67-11.62s1.54,7.18.9,11.41c-.64-.42-1.3-1.15-2.16-1.67,0,0-7.09-3.54-.32-15.34.32-.56,3.87,2.23,4.14,2.51a11.24,11.24,0,0,1,3.34,7A9.86,9.86,0,0,1,155,52.43,1.56,1.56,0,0,1,153.21,52.93Z"/><path class="cls-37" d="M160.55,173.16c-12.84-3.09-18.6-3.44-20.64-3.43a16.94,16.94,0,0,1,9.08-4.8c7-1.25,12.27.47,18.59,9,0,0-15,16.69-29.35-2.21,0,0,.29-.42.82-1.05C146.29,171.48,160.55,173.16,160.55,173.16Z"/><path class="cls-38" d="M152.91,160.28a5.26,5.26,0,0,1,.25-.74c4.15-2.45,20.82-2.42,20.82-2.42-16.94-1.92-19.67.66-19.67.66l-1.13,1.73c.6-1.42,2.42-4.56,7.54-7.34,5.77-3.13,13.15-2,19.7,4C180.42,156.12,169.05,171.71,152.91,160.28Z"/><path class="cls-39" d="M171.27,149a10.78,10.78,0,0,1-7.74-2.24,4.23,4.23,0,0,1-.09-1.52c5.15-1.6,17-3.86,17-3.86-10.42.76-14.92,1.89-16.73,2.53.5-1.47-.2-2.23,3.47-5,4.56-3.41,11.13-3.52,18.71.37C185.92,139.25,183.19,148.24,171.27,149Z"/><path class="cls-40" d="M176.38,133.75a15,15,0,0,1-7.28-1.08,5.15,5.15,0,0,1-.08-1.59l0,.37c3.67-2.35,14.79-5.87,14.79-5.87-10,1.43-13.73,3.74-14.64,4.4a11.38,11.38,0,0,1,3.88-5.89c4-3.54,8.76-4.54,16-1.35C189.13,122.74,186.7,133,176.38,133.75Z"/><path class="cls-41" d="M181.16,117.87a20.08,20.08,0,0,1-7.57.24,4.48,4.48,0,0,1-.14-.69c2.39-2.72,9.83-7.42,9.83-7.42-6.49,2.56-9,4.9-9.91,6a11.21,11.21,0,0,1,2.18-6.55c2.84-4,8-5.55,14.77-3.23C190.32,106.23,190.32,115.59,181.16,117.87Z"/><path class="cls-42" d="M179.22,103.05a15.81,15.81,0,0,1-5.68.8s-.17.2-.46-.92a116.62,116.62,0,0,0,9.54-11.37c-6.36,6.36-9.17,9.17-9.78,10a22.05,22.05,0,0,1,.43-6.36c1.1-4,5.55-7.2,12.65-7.71C185.92,87.52,188.86,99.45,179.22,103.05Z"/><path class="cls-43" d="M179.17,86c5.2-6.13.84-14,.84-14-6.1,1.29-10.07,4.85-10.32,9.39-.32,5.94.5,8.56.5,8.56A10.14,10.14,0,0,0,179.17,86ZM177,77.74s-3.31,7-5.75,11.25l-.49-.61S170.15,87.52,177,77.74Z"/><path class="cls-44" d="M168.25,75.28a1.9,1.9,0,0,1-.2-.16c1.86-4.4,4.29-11.23,4.29-11.23-3.79,7.74-4.59,10.08-4.75,10.75-.78-.91-2-2.93-2.1-7-.14-4.59,2.75-8.18,9-10.94,0,0,5.8,7.42,0,15A9.33,9.33,0,0,1,168.25,75.28Z"/><path class="cls-45" d="M166.94,59.44C170.05,48.61,162.07,45,162.07,45c-4.61,4.8-6,9.63-4.44,13.87,2.11,5.54,4.3,6.4,4.3,6.4C164.48,63.63,166.38,61.41,166.94,59.44Zm-6.21,4.33-.59-.73s1.47-1,2.42-10.23C162.56,52.81,163.05,59.84,160.73,63.77Z"/><path class="cls-46" d="M129.63,40.16c-.38.16,1,2.23,1.49,2.85a6.53,6.53,0,0,0,4,2.46,7.83,7.83,0,0,0,4.69-1.13A3.48,3.48,0,0,0,140.93,43c.17-.56-.46-.87-1.62-2.05C139.31,41,136.46,37.3,129.63,40.16Zm10.77,2.26,0,.51a15.49,15.49,0,0,1-7.36-1.6S137.69,42.69,140.4,42.42Z"/><path class="cls-47" d="M149,49.32l0,.29a19.65,19.65,0,0,1-9.52-.89s5.9,1,9.31.27c-.37-.5-1-1-1.44-1.69,0,0-3.17-5.61-12.49.36-.44.29,2,3.05,2.21,3.27A9.17,9.17,0,0,0,143,53.36a8,8,0,0,0,5.76-2.57A1.27,1.27,0,0,0,149,49.32Z"/><path class="cls-48" d="M135.21,154.47c2.48,10.05,2.82,14.57,2.84,16.17a13.54,13.54,0,0,0,3.46-7.2c.84-5.54-.72-10.33-7.17-15.18,0,0-13,11.42,2.25,23.72a8.74,8.74,0,0,0,.77-.65C136.66,165.65,135.21,154.47,135.21,154.47Z"/><path class="cls-49" d="M148.34,162.18a4.87,4.87,0,0,0,.52-.29c1.27-3.47-1-16-1-16,3.73,12.53,2.18,14.94,2.18,14.94l-1.14,1.09c1-.64,3.08-2.45,4.46-6.68,1.56-4.78-.56-10.88-5.91-15C147.43,140.16,136.9,150.51,148.34,162.18Z"/><path class="cls-50" d="M154.1,143a8.29,8.29,0,0,0,5.74,3.66,4.54,4.54,0,0,0,1.28-.77c-1.22-4.65-5.23-14.59-5.23-14.59,4.26,7.85,5.18,11.15,5.64,12.71a8.25,8.25,0,0,0,2.47-5.24c.55-4.94-2-8.63-9.35-12.74C154.65,126,148.14,134.85,154.1,143Z"/><path class="cls-51" d="M161.66,128.85a12.83,12.83,0,0,0,6.06,2.44,4.62,4.62,0,0,0,.83-1.14l-.2.27c-1.55-3.52-8-11.54-8-11.54,6.63,5.92,8.27,9.45,8.61,10.38a10.05,10.05,0,0,0,0-6.23c-1.24-4.56-4.21-7.87-11.14-8.83C157.84,114.2,153.56,123.68,161.66,128.85Z"/><path class="cls-52" d="M164.36,114a20.51,20.51,0,0,0,6.66,2.42,5,5,0,0,0,.33-.58c-1.32-3.15-6.54-9.56-6.54-9.56,5,4.21,6.55,7,7,8.32a10.76,10.76,0,0,0,0-6.55c-1.33-4.44-5.64-7.45-12.34-7.71C159.5,100.35,155.89,109.16,164.36,114Z"/><path class="cls-53" d="M167.59,99.82a13.21,13.21,0,0,0,5-.34,4.45,4.45,0,0,0,.29-1.56,51,51,0,0,0-10.37-7.39c6.85,2.52,9.34,4.61,10.25,5.79A14.41,14.41,0,0,0,171.29,92c-1.68-3.28-6.55-5.56-12.78-4.7C158.51,87.28,157.54,98,167.59,99.82Z"/><path class="cls-54" d="M170.23,83.22s-.78-2-4.08-5.54c-2.53-2.72-7.21-3.14-12.24-1.2,0,0,1,6.88,7.88,8.35C166.26,85.78,169.11,84.13,170.23,83.22Zm-1.32-.36,0,.45c-3.77-1.62-10.71-4.83-10.71-4.83C167.55,81,168.91,82.86,168.91,82.86Z"/><path class="cls-55" d="M164.17,70.78s0-.08-.06-.19c-3.9-.74-9.8-2.16-9.8-2.16a76.4,76.4,0,0,1,9.6,1.7c-.42-.83-1.54-2.36-4.51-4.09-3.39-2-7-1.79-11.15.67,0,0,3.63,6.42,11.18,6.23A6.1,6.1,0,0,0,164.17,70.78Z"/><path class="cls-56" d="M157.22,60.05s0-.09-.06-.21c-4-.39-10.07-1.31-10.07-1.31,7.23.34,9.3.68,9.87.82-.43-.88-1.57-2.46-4.62-4.07-3.47-1.83-7.21-1.21-11.46,2,0,0,3.69,6.77,11.46,5.71A7,7,0,0,0,157.22,60.05Z"/><path class="cls-57" d="M131.63,177.92c.55-.25,1.25-.64,2.1-1.11,10.59-5.89,41.19-27.61,39.84-72.41C172.1,55.49,132,36.17,132,36.17c22.74,13.2,39.37,39.43,39.37,68.21a79.39,79.39,0,0,1-40.13,69.39s-5.94,2.93-4.93,4.78C126.31,178.55,126.68,180.18,131.63,177.92Z"/><polygon class="cls-58" points="95.16 173.51 96.68 178.18 101.59 178.18 97.62 181.07 99.14 185.74 95.16 182.85 91.19 185.74 92.7 181.07 88.73 178.18 93.64 178.18 95.16 173.51"/><polygon class="cls-59" points="72.36 176.72 72.87 178.29 74.52 178.29 73.19 179.25 73.69 180.82 72.36 179.85 71.03 180.82 71.54 179.25 70.21 178.29 71.86 178.29 72.36 176.72"/><polygon class="cls-60" points="82.88 178.41 83.57 180.53 85.81 180.53 84 181.85 84.69 183.97 82.88 182.66 81.07 183.97 81.76 181.85 79.96 180.53 82.19 180.53 82.88 178.41"/><polygon class="cls-61" points="117.96 176.72 117.45 178.29 115.81 178.29 117.14 179.25 116.63 180.82 117.96 179.85 119.29 180.82 118.78 179.25 120.11 178.29 118.47 178.29 117.96 176.72"/><polygon class="cls-62" points="107.44 178.41 106.75 180.53 104.52 180.53 106.33 181.85 105.64 183.97 107.44 182.66 109.25 183.97 108.56 181.85 110.37 180.53 108.13 180.53 107.44 178.41"/><polygon class="cls-63" points="65.19 33.85 66.25 35.31 67.96 34.77 66.89 36.22 67.95 37.68 66.24 37.11 65.17 38.56 65.18 36.77 63.47 36.2 65.19 35.65 65.19 33.85"/><polygon class="cls-63" points="124.46 33.85 123.41 35.31 121.7 34.77 122.76 36.22 121.71 37.68 123.42 37.11 124.48 38.56 124.48 36.77 126.19 36.2 124.47 35.65 124.46 33.85"/><path class="cls-64" d="M95.16,29.27c-7.92,0-14.53,1.55-19.25,4.45l.55,1.59c4.46-2.8,11-4.39,18.7-4.39s14.32,1.73,18.78,4.53l.47-1.73C109.69,30.82,103.08,29.27,95.16,29.27Z"/><circle class="cls-65" cx="95.21" cy="32.91" r="0.82"/><circle class="cls-66" cx="92.39" cy="32.96" r="0.82"/><circle class="cls-67" cx="89.45" cy="33.22" r="0.82"/><circle class="cls-68" cx="86.41" cy="33.78" r="0.82"/><circle class="cls-69" cx="83.58" cy="34.45" r="0.82"/><circle class="cls-70" cx="80.8" cy="35.38" r="0.82"/><circle class="cls-71" cx="78.07" cy="36.51" r="0.82"/><circle class="cls-72" cx="98.04" cy="32.96" r="0.82"/><circle class="cls-73" cx="100.98" cy="33.22" r="0.82"/><circle class="cls-74" cx="104.01" cy="33.78" r="0.82"/><circle class="cls-75" cx="106.85" cy="34.45" r="0.82"/><circle class="cls-76" cx="109.63" cy="35.38" r="0.82"/><circle class="cls-77" cx="112.36" cy="36.51" r="0.82"/><path class="cls-78" d="M120.86,14.33a1,1,0,0,0-1,.91.87.87,0,0,0,.3.66c-.17.49-.32,1-.56,1.5-3,6.42-5.38,7-8,5.92s-2.71-5.61-1.52-12.54a17.82,17.82,0,0,1,.55-2.51.87.87,0,0,0,.45-.72,1,1,0,0,0-2,0,.84.84,0,0,0,.36.67,40.78,40.78,0,0,1-2,5.2c-1.2,2.74-3.57,8.4-7.45,7.9-1.38-.17-2.2-.87-2.77-2.63-.7-2.3-1-6.29-1.66-13,0-.44-.06-.84-.08-1.23A1,1,0,0,0,96,3.93h1.07a.42.42,0,0,0,.41-.41.41.41,0,0,0-.41-.41H96a1,1,0,0,0-.57-.52V.44h0a.45.45,0,1,0-.89,0s0,0,0,0V2.59a1,1,0,0,0-.56.52H92.91a.41.41,0,0,0-.42.41.42.42,0,0,0,.42.42H94a1,1,0,0,0,.56.52v1c-1.12,12.34-1.33,15.49-4.49,15.88-3.88.5-6.25-5.16-7.45-7.9a40.78,40.78,0,0,1-2-5.2.84.84,0,0,0,.36-.67,1,1,0,0,0-2,0,.89.89,0,0,0,.45.72A19.21,19.21,0,0,1,80,10.78c1.18,6.93.85,11.37-1.53,12.54s-5,.5-8-5.92c-.23-.53-.39-1-.56-1.5a.87.87,0,0,0,.3-.66,1,1,0,0,0-2,0,.87.87,0,0,0,.6.77l5.23,11.54,1.53,4.79c4.58-3.11,11.25-4.77,19.46-4.78s14.87,1.67,19.46,4.78L116,27.55,121.26,16a.87.87,0,0,0,.59-.77A1,1,0,0,0,120.86,14.33ZM84.76,26.21a1.24,1.24,0,0,1,0-2.47,1.24,1.24,0,1,1,0,2.47ZM95,25.76a2,2,0,0,1-1.86-2,2.06,2.06,0,0,1,2-2l.09,0a2.06,2.06,0,1,1,0,4.12A1.42,1.42,0,0,1,95,25.76Zm10.35.45a1.24,1.24,0,0,1,0-2.47,1.24,1.24,0,1,1,0,2.47Z"/><path class="cls-79" d="M117.17,118c-1.65,4.63-3.53,7.76-5.77,9.4s-5.76,2.58-10,2.58H83.3c12.7-12.52,19.17-18.92,19.29-19.05,9.64-9.81,14.58-19.88,14.58-30.23,0-7.62-2.12-13.75-6.24-18.24s-9.52-6.53-16.11-6.53-12.11,2.85-16.93,8.44c-4.35,5-7.29,11.43-8.82,19.06h3.76a33.77,33.77,0,0,1,5.7-9.18C81.15,71.43,84,70,87.18,70a12.15,12.15,0,0,1,10.35,5q3.16,4.71,3.17,12.67c0,6.8-4.7,16.61-13.87,29.27C85.34,119,82,123.26,76.72,129.67q-4.55,5.55-10.94,13.26v3.4h44.8c3.29,0,5.17-1.77,5.88-5.44l.55-3.08,3.57-19.8Z"/><path class="cls-80" d="M88.9,115.85c10.16-11.8,23.6-26.71,14.92-41.55-6.57-11.23-18.67-9.46-25.29,0C81.15,71.43,84,70,87.18,70a12.15,12.15,0,0,1,10.35,5q3.16,4.71,3.17,12.67c0,6.8-4.7,16.61-13.87,29.27C85.34,119,82,123.26,76.72,129.67A161.53,161.53,0,0,0,88.9,115.85Z"/><path class="cls-81" d="M117,137.81l3.57-19.8h-3.41c-1.65,4.63-3.53,7.76-5.77,9.4s-5.76,2.58-10,2.58H83.3l-7.63,7.86Z"/><g class="cls-2"><path class="cls-82" d="M118.72,65.25a6.69,6.69,0,1,1-6.56-6.82A6.69,6.69,0,0,1,118.72,65.25Z"/><polygon class="cls-83" points="112.98 33.36 112.94 64.71 144.26 65.89 112.91 65.85 111.73 97.17 111.78 65.83 80.45 64.65 111.8 64.69 112.98 33.36"/><polygon class="cls-84" points="127.45 50.75 112.88 65.28 126.87 80.36 112.35 65.8 97.26 79.79 111.83 65.26 97.84 50.17 112.37 64.74 127.45 50.75"/></g></g></g></g></svg>