<svg xmlns="http://www.w3.org/2000/svg" viewBox="0 0 53 53"><defs><style>.cls-1{opacity:0.65;}.cls-2{fill:#fff;}</style></defs><g id="레이어_2" data-name="레이어 2"><g id="레이어_2-2" data-name="레이어 2"><circle class="cls-1" cx="26.5" cy="26.5" r="26"/><path class="cls-2" d="M26.5,53A26.5,26.5,0,1,1,53,26.5,26.53,26.53,0,0,1,26.5,53Zm0-52A25.5,25.5,0,1,0,52,26.5,25.53,25.53,0,0,0,26.5,1Z"/><polygon class="cls-2" points="37.68 39.52 15.32 39.52 15.32 28.53 16.07 28.53 16.07 38.77 36.93 38.77 36.93 28.53 37.68 28.53 37.68 39.52"/><path class="cls-2" d="M29.9,39.52H17.53V30.81H29.9Zm-11.62-.75H29.15V31.56H18.28Z"/><path class="cls-2" d="M31.63,32.72v6.42h3.9V32.72Zm1.9,4H32.21V35.55h1.32Z"/><path class="cls-2" d="M16.24,29a2.06,2.06,0,0,1-2-2.44l1.18-6.23h3.82l-.92,6.88A2.08,2.08,0,0,1,16.24,29ZM16,21.07,15,26.69a1.31,1.31,0,1,0,2.59.41l.81-6Z"/><path class="cls-2" d="M19.67,29a2.07,2.07,0,0,1-2.07-2.34l.86-6.33h3.82l-.55,6.77A2.08,2.08,0,0,1,19.67,29Zm-.56-7.92-.76,5.68a1.31,1.31,0,0,0,1.3,1.49A1.32,1.32,0,0,0,21,27l.48-6Z"/><path class="cls-2" d="M23.1,29A2.06,2.06,0,0,1,21,26.76l.52-6.44h3.82L25.16,27A2,2,0,0,1,23.1,29Zm-.88-7.92-.47,5.75a1.28,1.28,0,0,0,.35,1,1.29,1.29,0,0,0,1,.42A1.31,1.31,0,0,0,24.41,27l.16-5.89Z"/><path class="cls-2" d="M26.52,29A2.08,2.08,0,0,1,25,28.37a2,2,0,0,1-.58-1.5l.17-6.55h3.82l.17,6.55A2.05,2.05,0,0,1,26.52,29Zm-1.2-7.92-.15,5.82a1.28,1.28,0,0,0,.37.95,1.38,1.38,0,0,0,1.92,0,1.28,1.28,0,0,0,.37-.95l-.15-5.82Z"/><path class="cls-2" d="M29.94,29a2.06,2.06,0,0,1-2.1-2l-.18-6.66h3.82L32,26.76A2.06,2.06,0,0,1,29.94,29Zm-1.51-7.92L28.59,27a1.3,1.3,0,0,0,1.31,1.28,1.32,1.32,0,0,0,1-.42,1.28,1.28,0,0,0,.35-1l-.47-5.75Z"/><path class="cls-2" d="M33.35,29a2.08,2.08,0,0,1-2.08-1.9l-.55-6.77h3.82l.86,6.33a2.07,2.07,0,0,1-2,2.34Zm-1.81-7.92L32,27a1.33,1.33,0,0,0,2.32.76,1.3,1.3,0,0,0,.31-1l-.76-5.68Z"/><path class="cls-2" d="M36.76,29a2.08,2.08,0,0,1-2-1.79l-.92-6.88h3.82l1.18,6.23a2.1,2.1,0,0,1-.44,1.7A2.07,2.07,0,0,1,36.76,29Zm-2.11-7.92.81,6a1.31,1.31,0,1,0,2.59-.41L37,21.07Z"/><rect class="cls-2" x="17.91" y="33.08" width="11.62" height="0.75"/><path class="cls-2" d="M21.79,17.1a.72.72,0,0,1-.83.83H18.37v-.88h2.18a.19.19,0,0,0,.24-.24v-.33a.59.59,0,0,0,0-.23.33.33,0,0,0-.17-.18l-1.67-.79a2.27,2.27,0,0,1-.28-.18.72.72,0,0,1-.19-.2.69.69,0,0,1-.1-.25,1.72,1.72,0,0,1,0-.34v-.5a.81.81,0,0,1,.91-.91h2.41v.88H19.55a.29.29,0,0,0-.19.05.26.26,0,0,0-.05.19v.13a.8.8,0,0,0,0,.23.37.37,0,0,0,.18.17l1.66.79a1.72,1.72,0,0,1,.28.17.76.76,0,0,1,.19.21.69.69,0,0,1,.1.25,1.18,1.18,0,0,1,0,.34Z"/><path class="cls-2" d="M26.08,17.93h-1V15.71H23.33v2.22h-1v-5h1v1.95h1.75V12.9h1Z"/><path class="cls-2" d="M30.52,16.62a1.53,1.53,0,0,1-.1.54,1.18,1.18,0,0,1-.69.69,1.37,1.37,0,0,1-.54.1H28a1.33,1.33,0,0,1-.54-.1,1.18,1.18,0,0,1-.69-.69,1.33,1.33,0,0,1-.1-.54V14.21a1.33,1.33,0,0,1,.1-.54,1.18,1.18,0,0,1,.69-.69,1.33,1.33,0,0,1,.54-.1h1.18a1.37,1.37,0,0,1,.54.1,1.18,1.18,0,0,1,.69.69,1.53,1.53,0,0,1,.1.54ZM29,17.07a.44.44,0,0,0,.48-.48V14.24a.44.44,0,0,0-.48-.48h-.88a.42.42,0,0,0-.48.48v2.35a.42.42,0,0,0,.48.48Z"/><path class="cls-2" d="M32.12,17.93h-1v-5h2.3a1.45,1.45,0,0,1,1,.3,1.08,1.08,0,0,1,.35.85v.76a1.08,1.08,0,0,1-.35.85,1.45,1.45,0,0,1-1,.3h-1.3Zm1.2-2.85a.46.46,0,0,0,.32-.1.46.46,0,0,0,.11-.34v-.42a.46.46,0,0,0-.11-.34.46.46,0,0,0-.32-.1h-1.2v1.3Z"/></g></g></svg>