<svg xmlns="http://www.w3.org/2000/svg" viewBox="0 0 53 53"><defs><style>.cls-2{fill:#fff}</style></defs><g id="레이어_2" data-name="레이어 2"><g id="레이어_2-2" data-name="레이어 2"><circle cx="26.5" cy="26.5" r="26" style="opacity:.65"/><path class="cls-2" d="M26.5 53A26.5 26.5 0 1 1 53 26.5 26.53 26.53 0 0 1 26.5 53Zm0-52A25.5 25.5 0 1 0 52 26.5 25.53 25.53 0 0 0 26.5 1Z"/><path class="cls-2" d="M14.55 22.34h1.98v8.31h-1.98zM27.21 37.18l-8.69-6.52v-8.32l8.69-6.52v21.36zM29.56 29.62l-.76-1.32a2.09 2.09 0 0 0 0-3.6l.76-1.32a3.6 3.6 0 0 1 0 6.24Z"/><path class="cls-2" d="m31.31 32.62-.77-1.32a5.54 5.54 0 0 0 0-9.6l.77-1.32a7.08 7.08 0 0 1 0 12.24Z"/><path class="cls-2" d="m33.13 35.75-.77-1.32a9.17 9.17 0 0 0 0-15.86l.77-1.32a10.7 10.7 0 0 1 0 18.5Z"/></g></g></svg>