<svg xmlns="http://www.w3.org/2000/svg" viewBox="0 0 53 53"><defs><style>.cls-3{fill:#999}</style></defs><g id="레이어_2" data-name="레이어 2"><g id="레이어_2-2" data-name="레이어 2"><circle cx="26.5" cy="26.5" r="26" style="opacity:.65"/><path d="M26.5 53A26.5 26.5 0 1 1 53 26.5 26.53 26.53 0 0 1 26.5 53Zm0-52A25.5 25.5 0 1 0 52 26.5 25.53 25.53 0 0 0 26.5 1Z" style="fill:#fff"/><path class="cls-3" d="M14.4 22.34h1.98v8.31H14.4zM27.06 37.18l-8.7-6.52v-8.32l8.7-6.52v21.36zM34.3 31.27a4.77 4.77 0 1 1 4.77-4.77 4.78 4.78 0 0 1-4.77 4.77Zm0-8.6a3.83 3.83 0 1 0 3.83 3.83 3.83 3.83 0 0 0-3.83-3.83Z"/><path class="cls-3" transform="rotate(-45 34.307 26.5)" d="M30.01 26.03h8.59v.94h-8.59z"/></g></g></svg>