<svg xmlns="http://www.w3.org/2000/svg" xmlns:xlink="http://www.w3.org/1999/xlink" viewBox="0 0 712 472.73"><defs><style>.cls-1{fill:url(#무제_그라디언트_27);}.cls-2{fill:url(#무제_그라디언트_27-2);}.cls-3,.cls-32,.cls-6{fill:#fff;}.cls-4{fill:url(#무제_그라디언트_27-3);}.cls-5{fill:url(#linear-gradient);}.cls-6{stroke:#cbcbcb;}.cls-15,.cls-16,.cls-17,.cls-18,.cls-19,.cls-32,.cls-6{stroke-miterlimit:10;}.cls-7{fill:#434756;}.cls-8{fill:url(#무제_그라디언트_54);}.cls-9{fill:#161616;}.cls-10{fill:url(#무제_그라디언트_54-2);}.cls-11{fill:url(#무제_그라디언트_27-4);}.cls-12{fill:url(#무제_그라디언트_27-5);}.cls-13{fill:url(#무제_그라디언트_27-6);}.cls-14{fill:url(#무제_그라디언트_27-7);}.cls-15,.cls-16,.cls-17,.cls-18,.cls-19{fill:none;stroke:#323647;}.cls-16{stroke-dasharray:3.97 3.97;}.cls-17{stroke-dasharray:3.98 3.98;}.cls-18{stroke-dasharray:4.03 4.03;}.cls-19{stroke-dasharray:4.03 4.03;}.cls-20{fill:url(#무제_그라디언트_64);}.cls-21{fill:url(#무제_그라디언트_64-2);}.cls-22{fill:url(#무제_그라디언트_64-3);}.cls-23{fill:url(#무제_그라디언트_64-4);}.cls-24{fill:url(#무제_그라디언트_64-5);}.cls-25{fill:#7c40e6;}.cls-26{fill:#7866f0;}.cls-27{fill:#7679f4;}.cls-28{fill:#748bf9;}.cls-29{fill:#729eff;}.cls-30{fill:#333;}.cls-31{fill:url(#무제_그라디언트_24);}.cls-32{stroke:#7c40e6;}.cls-33{fill:#8b8d96;}</style><linearGradient id="무제_그라디언트_27" x1="17.2" y1="385.66" x2="156.64" y2="469.08" gradientUnits="userSpaceOnUse"><stop offset="0" stop-color="#729eff"/><stop offset="0.13" stop-color="#748afa"/><stop offset="0.37" stop-color="#786af1"/><stop offset="0.6" stop-color="#7a53eb"/><stop offset="0.81" stop-color="#7b45e7"/><stop offset="1" stop-color="#7c40e6"/></linearGradient><linearGradient id="무제_그라디언트_27-2" x1="569.2" y1="385.66" x2="708.64" y2="469.08" xlink:href="#무제_그라디언트_27"/><linearGradient id="무제_그라디언트_27-3" x1="17.2" y1="117.59" x2="156.64" y2="201.02" xlink:href="#무제_그라디언트_27"/><linearGradient id="linear-gradient" x1="569.2" y1="117.59" x2="708.64" y2="201.02" xlink:href="#무제_그라디언트_27"/><linearGradient id="무제_그라디언트_54" x1="62.04" y1="51.39" x2="97.96" y2="51.39" gradientUnits="userSpaceOnUse"><stop offset="0" stop-color="#7c40e6"/><stop offset="0.19" stop-color="#7b45e7"/><stop offset="0.4" stop-color="#7a53eb"/><stop offset="0.63" stop-color="#786af1"/><stop offset="0.87" stop-color="#748afa"/><stop offset="1" stop-color="#729eff"/></linearGradient><linearGradient id="무제_그라디언트_54-2" x1="615.37" y1="34.65" x2="640.09" y2="59.57" xlink:href="#무제_그라디언트_54"/><linearGradient id="무제_그라디언트_27-4" x1="94.71" y1="305.64" x2="89.28" y2="300.22" xlink:href="#무제_그라디언트_27"/><linearGradient id="무제_그라디언트_27-5" x1="94.71" y1="320.71" x2="89.28" y2="315.29" xlink:href="#무제_그라디언트_27"/><linearGradient id="무제_그라디언트_27-6" x1="94.71" y1="335.78" x2="89.28" y2="330.35" xlink:href="#무제_그라디언트_27"/><linearGradient id="무제_그라디언트_27-7" x1="644.7" y1="330.7" x2="619.3" y2="305.3" xlink:href="#무제_그라디언트_27"/><radialGradient id="무제_그라디언트_64" cx="140.61" cy="68.52" r="16.33" xlink:href="#무제_그라디언트_27"/><radialGradient id="무제_그라디언트_64-2" cx="-3272.03" cy="68.52" r="16.33" gradientTransform="matrix(-1, 0, 0, 1, -2700.64, 0)" xlink:href="#무제_그라디언트_27"/><radialGradient id="무제_그라디언트_64-3" cx="140.61" cy="336.55" r="16.33" xlink:href="#무제_그라디언트_27"/><radialGradient id="무제_그라디언트_64-4" cx="-3272.03" cy="336.55" r="16.33" gradientTransform="matrix(-1, 0, 0, 1, -2700.64, 0)" xlink:href="#무제_그라디언트_27"/><radialGradient id="무제_그라디언트_64-5" cx="354.99" cy="274.89" r="177.65" xlink:href="#무제_그라디언트_27"/><linearGradient id="무제_그라디언트_24" x1="356" y1="374.33" x2="356" y2="291.36" gradientUnits="userSpaceOnUse"><stop offset="0" stop-color="#737580" stop-opacity="0"/><stop offset="0.14" stop-color="#737580" stop-opacity="0.27"/><stop offset="0.3" stop-color="#737580" stop-opacity="0.53"/><stop offset="0.47" stop-color="#737580" stop-opacity="0.74"/><stop offset="0.64" stop-color="#737580" stop-opacity="0.88"/><stop offset="0.81" stop-color="#737580" stop-opacity="0.97"/><stop offset="1" stop-color="#737580"/></linearGradient></defs><g id="레이어_2" data-name="레이어 2"><g id="레이어_1-2" data-name="레이어 1"><rect class="cls-1" y="374.23" width="160" height="98" rx="12.95"/><rect class="cls-2" x="552" y="374.23" width="160" height="98" rx="12.95"/><path class="cls-3" d="M25.61,406.38h-3V405h7.69v1.36h-3v8.95H25.61Z"/><path class="cls-3" d="M32.05,405h6.09v1.36H33.68v2.88h3.78v1.37H33.68V414H38.3v1.37H32.05Z"/><path class="cls-3" d="M46.08,415.33l-2.34-4.16H42.08v4.16H40.45V405h3.38c2.13,0,3.72.76,3.72,3A2.86,2.86,0,0,1,45.4,411l2.52,4.37Zm-4-5.46h1.55c1.5,0,2.31-.61,2.31-1.86s-.81-1.68-2.31-1.68H42.08Z"/><path class="cls-3" d="M54.3,412.39H50.71l-.88,2.94H48.18L51.6,405h1.87l3.42,10.31H55.17Zm-.39-1.27-.41-1.39c-.35-1.12-.66-2.27-1-3.43h-.06c-.29,1.18-.61,2.31-1,3.43l-.42,1.39Z"/><path class="cls-3" d="M59.39,406.38h-3V405h7.69v1.36H61v8.95H59.39Z"/><path class="cls-3" d="M67.93,406.38h-3V405H72.6v1.36h-3v8.95H67.93Z"/><path class="cls-3" d="M73.42,410.14c0-3.32,1.84-5.31,4.48-5.31s4.5,2,4.5,5.31-1.85,5.38-4.5,5.38S73.42,413.46,73.42,410.14Zm7.31,0c0-2.43-1.12-3.9-2.83-3.9s-2.81,1.47-2.81,3.9,1.1,4,2.81,4S80.73,412.56,80.73,410.14Z"/><path class="cls-3" d="M88.89,412.28a17.62,17.62,0,0,0,3.89-.35l.13,1.19a22.19,22.19,0,0,1-4.59.35h-.86v-8.22h4.79v1.18H88.89Zm5-8.25h1.36v11.78H93.88v-6.13h-2.5V408.5h2.5Zm4-.28V416.4H96.46V403.75Z"/><path class="cls-3" d="M106.86,409.14c0,2.75-1.38,4.47-3.27,4.47s-3.25-1.72-3.25-4.47,1.37-4.45,3.25-4.45S106.86,406.43,106.86,409.14Zm-5.13,0c0,2,.77,3.18,1.86,3.18s1.88-1.19,1.88-3.18-.77-3.15-1.88-3.15S101.73,407.18,101.73,409.14Zm8.6-5.39v12.69h-1.46V403.75Z"/><path class="cls-3" d="M114.81,412.29a29.67,29.67,0,0,0,5.11-.36l.12,1.16a29.8,29.8,0,0,1-5.68.38h-1v-8.61h5.87v1.19h-4.42v2.36h3.9v1.15h-3.9Zm8.5-8.55v12.69h-1.46v-6.85h-2.42v-1.19h2.42v-4.65Z"/><path class="cls-3" d="M137.14,409.56v1.07H125.67v-1.07Zm-8.68,5.72h7.66v1H127v-2.9h7.28v-.89H127v-1h8.74v2.83h-7.28Zm5.81-10.21h-7.16v-1h8.59v2.79h-7.15v.9h7.37v1h-8.78v-2.85h7.13Z"/><path class="cls-3" d="M33.72,424.64a9.53,9.53,0,0,1-5.7,9l-.8-1.11c3.1-1.58,4.76-3.81,5.06-6.72H27.85v-1.18ZM39,429.5H37v6.44H35.58V423.3H37v5H39Z"/><path class="cls-3" d="M51.53,429.09v1.17H40.13v-1.17h4.48v-2.32h1.46v2.32Zm-1.32,4.5c0,1.47-1.73,2.37-4.42,2.37s-4.46-.9-4.46-2.37,1.73-2.35,4.46-2.35S50.21,432.13,50.21,433.59Zm-1.84-5.41a11.29,11.29,0,0,0,.33-3.11H41.45v-1.16h8.68V425a12,12,0,0,1-.35,3.36Zm.4,5.41c0-.78-1.12-1.25-3-1.25s-3,.47-3,1.25,1.15,1.26,3,1.26S48.77,434.39,48.77,433.59Z"/><path class="cls-3" d="M57.38,425.26h3v1.17H52.92v-1.17h3v-1.77h1.44Zm2.44,5a3.15,3.15,0,1,1-3.14-2.95A2.94,2.94,0,0,1,59.82,430.28Zm-1.38,0a1.77,1.77,0,1,0-1.76,1.77A1.68,1.68,0,0,0,58.44,430.28Zm6.32-.68h-2V436H61.36V423.31h1.45v5.08h2Z"/><path class="cls-3" d="M76.38,423.3V436H74.92v-4.81H72a3,3,0,0,1-2.73,2c-1.86,0-3.19-1.73-3.19-4.47s1.33-4.46,3.19-4.46a2.94,2.94,0,0,1,2.66,1.8h3V423.3Zm-5.27,5.39c0-2-.74-3.15-1.83-3.15s-1.84,1.19-1.84,3.15.76,3.18,1.84,3.18S71.11,430.68,71.11,428.69Zm3.81,1.3v-2.77H72.33a6.83,6.83,0,0,1,.16,1.47,7.56,7.56,0,0,1-.12,1.3Z"/><path class="cls-3" d="M84.75,424.05v1.86H87.9v-1.86h1.44v6.08h-6v-6.08Zm8.35,7.51V436H91.65v-3.24H84.57v-1.16ZM84.75,429H87.9V427H84.75Zm8.35-5.66v7.61H91.65v-7.61Z"/><path class="cls-3" d="M97.4,431.83a18.36,18.36,0,0,0,3.9-.36l.12,1.2a22.14,22.14,0,0,1-4.59.35H96v-8.23h4.79V426H97.4Zm5-8.25h1.36v11.78h-1.36v-6.14H99.9V428h2.49Zm4-.28v12.64H105V423.3Z"/><path class="cls-3" d="M115.37,428.69c0,2.74-1.37,4.47-3.26,4.47s-3.25-1.73-3.25-4.47,1.37-4.46,3.25-4.46S115.37,426,115.37,428.69Zm-5.13,0c0,2,.77,3.18,1.87,3.18s1.87-1.19,1.87-3.18-.77-3.15-1.87-3.15S110.24,426.73,110.24,428.69Zm8.6-5.39V436h-1.45V423.3Z"/><path class="cls-3" d="M123.32,431.84a28.58,28.58,0,0,0,5.11-.37l.13,1.17a30.75,30.75,0,0,1-5.69.38h-1V424.4h5.86v1.19h-4.42V428h3.91v1.15h-3.91Zm8.5-8.56V436h-1.46v-6.85h-2.42v-1.19h2.42v-4.65Z"/><path class="cls-3" d="M37.46,449.9a49.56,49.56,0,0,1-7.57.48l-.15-1.2h1.49v-4H30.08V444h6.76v1.18H35.69V449c.58,0,1.14-.1,1.67-.17Zm-4.39,4.19h7.06v1.17H31.62v-4h1.45Zm-.46-4.93,1.68-.07v-3.95H32.61Zm8.81-2.57v1.19H39.63v4.39H38.19v-9.32h1.44v3.74Z"/><path class="cls-3" d="M43.05,444.24h4.88v8H43.05Zm1.35,6.82h2.18v-5.67H44.4Zm9-8.21v12.64H52.06V449H50.62v5.94H49.26V443.09h1.36v4.69h1.44v-4.93Z"/><path class="cls-3" d="M66.07,448.89h-6v-5.25h6Zm.41,3.07c.11,1,1.74,2.17,4.08,2.42l-.48,1.09a6.11,6.11,0,0,1-4.34-2.14,6.12,6.12,0,0,1-4.39,2.14l-.47-1.09c2.36-.24,4-1.34,4.12-2.42H61.37v-1.11H65v-1.13h1.47v1.13h3.62V452Zm-1.81-7.17H61.49v2.95h3.18Zm5.19,5.28H68.4v-7.23h1.46Z"/><path class="cls-3" d="M87.66,451.05h-5v4.47H81.19v-4.47h-5v-1.18H87.66Zm-1-2.37A6.41,6.41,0,0,1,82,445.82a6.36,6.36,0,0,1-4.66,2.86l-.56-1.16c2.58-.37,4.45-1.92,4.45-3.59v-.67h1.53v.67c0,1.64,1.9,3.22,4.45,3.59Z"/><path class="cls-3" d="M96.06,446.62a3.37,3.37,0,1,1-3.35-3A3.1,3.1,0,0,1,96.06,446.62Zm-5.29,0a1.95,1.95,0,1,0,1.94-1.82A1.79,1.79,0,0,0,90.77,446.62ZM99.54,451v4.54H98.09v-3.37H91V451Zm0-8.13v7.48H98.09v-7.48Z"/><path class="cls-3" d="M109.88,444h1.34v8.4h-4.88V444h1.35v3h2.19Zm0,4.11h-2.19v3.11h2.19Zm6.83-5.28V455.5h-1.37V449H113.9v6h-1.36V443.09h1.36v4.69h1.44v-4.94Z"/><path class="cls-3" d="M130.25,449.44v1.16h-4.9v2.25h-1.44V450.6h-5.13v-1.16Zm-8.63,4.65H129v1.17h-8.8V451.8h1.44Zm7.13-5.72h-8.48v-5.12h1.42v1.47h5.64v-1.47h1.42Zm-1.42-2.55h-5.64v1.42h5.64Z"/><path class="cls-3" d="M596.54,407.17a6,6,0,0,0,3.17,5.12l-.8,1.13a6.34,6.34,0,0,1-3.07-3.67,6.55,6.55,0,0,1-3.14,4l-.82-1.15a6.28,6.28,0,0,0,3.22-5.42V406h-2.76v-1.19h6.88V406h-2.68Zm7.34,2.51h-2v6.47h-1.45V403.5h1.45v5h2Z"/><path class="cls-3" d="M609.42,406.63a6.14,6.14,0,0,0,3.08,5.47l-.88,1.15a6.26,6.26,0,0,1-2.91-3.72,6.56,6.56,0,0,1-3.06,4l-.88-1.16a6.42,6.42,0,0,0,3.21-5.7v-2.08h1.44Zm7.34,3.08h-2v6.44h-1.45V403.5h1.45v5h2Z"/><path class="cls-3" d="M626.37,406.61a6.09,6.09,0,0,0,3.14,5.55l-.85,1.16a6.24,6.24,0,0,1-3-3.79,6.54,6.54,0,0,1-3,4l-.91-1.15a6.48,6.48,0,0,0,3.21-5.77v-2.09h1.45Zm5.93-3.14v12.7h-1.46v-7.36h-2.7v-1.18h2.7v-4.16Z"/><path class="cls-3" d="M636.77,404.54v3.22H640v-3.22h1.44v8.63h-6.07v-8.63Zm0,7.47H640v-3.1h-3.21Zm8.31-8.52v12.69h-1.46V403.49Z"/><path class="cls-3" d="M659,413.34v1.19H647.55v-1.19Zm-1.12-2.47a6.61,6.61,0,0,1-4.66-3.47,6.65,6.65,0,0,1-4.67,3.47l-.61-1.19c2.49-.46,4.52-2.41,4.52-4.41v-1H654v1c0,2,2,4,4.52,4.41Z"/><path class="cls-3" d="M671.89,409.3v1.07H660.42V409.3ZM663.21,415h7.66v1h-9.09v-2.9h7.28v-.89h-7.31v-1h8.74v2.83h-7.28ZM669,404.81h-7.16v-1h8.59v2.79h-7.14v.89h7.36v1h-8.78v-2.84H669Z"/><path class="cls-3" d="M596.15,429.15a3.23,3.23,0,0,1-2.52,1.1,3.21,3.21,0,1,1,0-6.42,3.33,3.33,0,0,1,2.52,1.09h3v-1.86h1.44v9.3h-1.44v-3.21Zm-2.52-.15a1.95,1.95,0,1,0-1.94-2A1.85,1.85,0,0,0,593.63,429Zm7.32,5.28v1.18h-8.51v-4h1.44v2.86Zm-4.18-8.18a3.14,3.14,0,0,1,.14.94,3.19,3.19,0,0,1-.14.94h2.42V426.1Z"/><path class="cls-3" d="M614.48,429.15v1.18H603.05v-1.18h5v-1.26h-3.57v-4.28h8.62v1.15h-7.19v2h7.27v1.16h-3.68v1.26Zm-1.4,4.25c0,1.47-1.64,2.31-4.36,2.31s-4.36-.84-4.36-2.31,1.66-2.3,4.36-2.3S613.08,431.94,613.08,433.4Zm-1.46,0c0-.77-1-1.19-2.9-1.19s-2.88.42-2.88,1.19,1,1.19,2.88,1.19S611.62,434.18,611.62,433.4Z"/><path class="cls-3" d="M623.39,425.2h-7.46v-1.09h3v-1.19h1.44v1.19h3Zm-3.74,4.58c-1.85,0-3.06-.78-3.06-2s1.21-2.09,3.06-2.09,3.07.8,3.07,2.09S621.52,429.78,619.65,429.78Zm-.58,4.73h7.14v1.07h-8.56V432.5h6.71v-.91h-6.74v-1.06h8.17v3h-6.72Zm.58-5.76c1,0,1.7-.38,1.7-1s-.66-1-1.7-1-1.68.38-1.68,1S618.63,428.75,619.65,428.75Zm7.93-2.85v1.2h-1.79V430h-1.44V423h1.44v2.88Z"/><path class="cls-3" d="M644.14,431.24h-5v4.47h-1.45v-4.47h-5v-1.18h11.43Zm-1-2.37a6.4,6.4,0,0,1-4.65-2.85,6.33,6.33,0,0,1-4.66,2.85l-.56-1.16c2.58-.36,4.45-1.92,4.45-3.58v-.68h1.53v.68c0,1.64,1.9,3.22,4.45,3.58Z"/><path class="cls-3" d="M649.75,426.73a3.38,3.38,0,1,1,3.36,3A3.07,3.07,0,0,1,649.75,426.73Zm8.84,4.62a3.27,3.27,0,0,0,2.47,3.11l-.72,1.07a4.12,4.12,0,0,1-2.48-2.27,4.27,4.27,0,0,1-2.31,2.38,4,4,0,0,1-2.32-2.35,4.33,4.33,0,0,1-2.46,2.24l-.7-1.07a3.41,3.41,0,0,0,2.45-3.11v-.56h1.41v.56a3.4,3.4,0,0,0,1.59,2.9,3.64,3.64,0,0,0,1.66-2.9v-.56h1.41Zm-7.42-4.62a2,2,0,1,0,1.94-1.79A1.78,1.78,0,0,0,651.17,426.73Zm8.76,3.52h-1.44v-7.19h1.44Z"/><path class="cls-3" d="M673.87,429.36v1.17H662.38v-1.17Zm-8.65,4.89h7.4v1.17h-8.84v-3.73h1.44Zm7.33-6.4h-8.68V423.5h1.44v3.18h7.24Z"/><path class="cls-3" d="M591.34,451.22h-3.59l-.88,2.94h-1.65l3.42-10.31h1.87l3.42,10.31h-1.72ZM591,450l-.41-1.39c-.35-1.12-.66-2.27-1-3.43h-.06c-.29,1.17-.61,2.31-1,3.43l-.42,1.39Z"/><path class="cls-3" d="M595.29,443.85h3.12c2.3,0,3.94.79,3.94,3.11s-1.64,3.29-3.89,3.29h-1.55v3.91h-1.62Zm3,5.1c1.65,0,2.44-.63,2.44-2s-.86-1.81-2.5-1.81h-1.34V449Z"/><path class="cls-3" d="M604.34,443.85H606v10.31h-1.63Z"/><path class="cls-3" d="M615.84,445.72a6.12,6.12,0,0,0,3.28,5.54l-.84,1.15a6.31,6.31,0,0,1-3.14-3.8,6.6,6.6,0,0,1-3.22,4.08l-.86-1.2a6.37,6.37,0,0,0,3.34-5.77v-2.08h1.44Zm5.74-3.14v12.69h-1.45V442.58Z"/><path class="cls-3" d="M635.51,452.42v1.2H624.05v-1.2ZM634.39,450a6.61,6.61,0,0,1-4.66-3.47,6.65,6.65,0,0,1-4.67,3.47l-.61-1.19c2.49-.46,4.52-2.41,4.52-4.41v-1h1.53v1c0,2,2,4,4.52,4.41Z"/><path class="cls-3" d="M642.9,449.23a23.29,23.29,0,0,1-4.61.31h-.82v-6.16h4.76v1.16h-3.38v1.31h2.92V447h-2.92v1.43a20.73,20.73,0,0,0,3.91-.31Zm-3.68,1.5h8.42v4.36h-8.42Zm1.43,3.21h5.59v-2.06h-5.59Zm3.18-7.08h-1.5V445.7h1.5v-2.91h1.34v7.28h-1.34Zm3.81-4.28v7.6h-1.38v-7.6Z"/><path class="cls-3" d="M657.57,446.06c0,2.16.82,4.35,2.58,5.37l-.84,1.05a5.77,5.77,0,0,1-2.42-3.42,6.27,6.27,0,0,1-2.48,3.73l-.87-1.07c1.79-1.12,2.63-3.4,2.63-5.66v-.91H654V444h5.71v1.19h-2.09Zm3-3.23H662v11.79H660.6v-6.41h-1.86V447h1.86Zm3.92-.25v12.65h-1.37V442.58Z"/><path class="cls-3" d="M678,448.38v1.16h-11.4v-1.16h4.48v-2.33h1.46v2.33Zm-1.32,4.49c0,1.47-1.73,2.37-4.42,2.37s-4.46-.9-4.46-2.37,1.73-2.35,4.46-2.35S676.71,451.42,676.71,452.87Zm-1.84-5.4a11.36,11.36,0,0,0,.33-3.11H668v-1.17h8.68v1.07a12,12,0,0,1-.35,3.36Zm.4,5.4c0-.78-1.12-1.24-3-1.24s-3,.46-3,1.24,1.15,1.26,3,1.26S675.27,453.67,675.27,452.87Z"/><rect class="cls-4" y="106.16" width="160" height="98" rx="12.95"/><rect class="cls-5" x="552" y="106.16" width="160" height="98" rx="12.95"/><circle class="cls-6" cx="80" cy="61.19" r="60.69"/><path class="cls-7" d="M96.21,64.08H92.48A18.31,18.31,0,0,1,80,59.22a18.31,18.31,0,0,1-12.48,4.86H63.79A8.1,8.1,0,0,1,55.7,56V46.79a8.1,8.1,0,0,1,8.09-8.09H96.21a8.1,8.1,0,0,1,8.09,8.09V56A8.1,8.1,0,0,1,96.21,64.08ZM80,57.27a.82.82,0,0,1,.58.24,16.71,16.71,0,0,0,11.9,4.93h3.73A6.47,6.47,0,0,0,102.67,56V46.79a6.46,6.46,0,0,0-6.46-6.45H63.79a6.46,6.46,0,0,0-6.46,6.45V56a6.47,6.47,0,0,0,6.46,6.46h3.73a16.71,16.71,0,0,0,11.9-4.93A.82.82,0,0,1,80,57.27Z"/><path class="cls-8" d="M92.48,57.73a12,12,0,0,1-8.57-3.55L80,50.27l-3.91,3.91a12,12,0,0,1-8.57,3.55H63.79A1.75,1.75,0,0,1,62,56V46.79a1.74,1.74,0,0,1,1.75-1.74H96.21A1.75,1.75,0,0,1,98,46.79V56a1.75,1.75,0,0,1-1.75,1.75Z"/><path class="cls-7" d="M109.49,56.69h-6a.82.82,0,0,1-.82-.82V46.79a.81.81,0,0,1,.82-.81h6a.82.82,0,0,1,.82.81v9.08A.82.82,0,0,1,109.49,56.69Zm-5.19-1.64h4.37V47.61H104.3Z"/><path class="cls-7" d="M56.51,56.69h-6a.82.82,0,0,1-.82-.82V46.79a.82.82,0,0,1,.82-.81h6a.81.81,0,0,1,.82.81v9.08A.82.82,0,0,1,56.51,56.69Zm-5.18-1.64H55.7V47.61H51.33Z"/><path class="cls-9" d="M53.16,71.67H55a.24.24,0,0,1,.28.28V82a.24.24,0,0,1-.28.28H54a.24.24,0,0,1-.28-.28V73.67h-.07l-2.15,6a.35.35,0,0,1-.36.27H50.07a.35.35,0,0,1-.34-.27l-2.2-6.06h-.07V82a.37.37,0,0,1-.05.22.33.33,0,0,1-.23.06h-1a.25.25,0,0,1-.28-.28V72a.25.25,0,0,1,.28-.28H48a.28.28,0,0,1,.27.18l2.26,6.38h.08l2.29-6.38A.21.21,0,0,1,53.16,71.67Z"/><path class="cls-9" d="M63.5,82.29H59.94a2.49,2.49,0,0,1-1.89-.68,2.54,2.54,0,0,1-.67-1.88v-3.3a2.32,2.32,0,0,1,2.56-2.56h1.35a2.6,2.6,0,0,1,1.9.66,2.57,2.57,0,0,1,.68,1.9v2.09a.27.27,0,0,1-.3.3H59.14c-.12,0-.18.06-.18.17v.71a1.06,1.06,0,0,0,1.21,1.2H63.5a.27.27,0,0,1,.3.3V82C63.8,82.2,63.7,82.29,63.5,82.29ZM59.14,77.7h3a.15.15,0,0,0,.17-.17v-1a1.31,1.31,0,0,0-.28-.92,1.24,1.24,0,0,0-.91-.29h-.91a1.24,1.24,0,0,0-.91.29,1.27,1.27,0,0,0-.28.92v1C59,77.64,59,77.7,59.14,77.7Z"/><path class="cls-9" d="M65.93,75.27h-.79a.3.3,0,0,1-.22-.06.28.28,0,0,1-.06-.2v-.86a.24.24,0,0,1,.28-.28h.79a.15.15,0,0,0,.17-.17V72.21c0-.18.1-.28.3-.28h1a.25.25,0,0,1,.28.28V73.7c0,.11.06.17.18.17h1.54c.19,0,.29.09.29.28V75c0,.17-.1.26-.29.26H67.9c-.12,0-.18.06-.18.16v4.25A1.08,1.08,0,0,0,69,80.89h.64c.2,0,.3.09.3.28V82c0,.17-.1.26-.3.26h-.89a2.66,2.66,0,0,1-1.92-.66,2.46,2.46,0,0,1-.69-1.87V75.43A.15.15,0,0,0,65.93,75.27Z"/><path class="cls-9" d="M74.52,82.29h-.64A2.49,2.49,0,0,1,72,81.61a2.54,2.54,0,0,1-.67-1.88v-3.3a2.32,2.32,0,0,1,2.56-2.56h3.7c.2,0,.3.09.3.28V82c0,.19-.1.28-.3.28h-1a.24.24,0,0,1-.28-.28v-.59h-.07A1.64,1.64,0,0,1,74.52,82.29Zm1.74-2.81v-4c0-.1-.06-.16-.18-.16h-2a1.07,1.07,0,0,0-1.19,1.22v3.17a1.07,1.07,0,0,0,1.19,1.23h.79C75.81,80.89,76.26,80.42,76.26,79.48Z"/><path class="cls-9" d="M79.41,73.87h1.11a.3.3,0,0,1,.32.28l1.71,6.64h.12l1.68-6.64a.33.33,0,0,1,.35-.28h1.09c.2,0,.27.09.2.28L83.76,82a.34.34,0,0,1-.36.3H81.81a.33.33,0,0,1-.36-.3l-2.23-7.84C79.17,74,79.24,73.87,79.41,73.87Z"/><path class="cls-9" d="M93.31,82.29H89.74a2.5,2.5,0,0,1-1.89-.68,2.54,2.54,0,0,1-.67-1.88v-3.3a2.32,2.32,0,0,1,2.56-2.56h1.35a2.64,2.64,0,0,1,1.91.66,2.56,2.56,0,0,1,.67,1.9v2.09a.26.26,0,0,1-.29.3H89c-.12,0-.18.06-.18.17v.71A1.06,1.06,0,0,0,90,80.9h3.34a.27.27,0,0,1,.3.3V82C93.61,82.2,93.51,82.29,93.31,82.29ZM89,77.7h3a.15.15,0,0,0,.17-.17v-1a1.27,1.27,0,0,0-.28-.92,1.24,1.24,0,0,0-.91-.29H90a1.24,1.24,0,0,0-.91.29,1.31,1.31,0,0,0-.28.92v1A.15.15,0,0,0,89,77.7Z"/><path class="cls-9" d="M96.81,82.29h-1a.24.24,0,0,1-.28-.28V74.15a.24.24,0,0,1,.28-.28h1a.24.24,0,0,1,.28.28v.62h.07a1.32,1.32,0,0,1,.64-.66,2.24,2.24,0,0,1,1-.24h.62a.25.25,0,0,1,.28.28V75c0,.21-.1.29-.28.26h-1c-.91,0-1.37.5-1.37,1.5V82A.24.24,0,0,1,96.81,82.29Z"/><path class="cls-9" d="M104,82.29h-3a.24.24,0,0,1-.28-.28V81.2c0-.18.09-.26.28-.26h2.78c.71,0,1.07-.25,1.07-.75V80a1.09,1.09,0,0,0-.78-1l-1.8-.86a3.4,3.4,0,0,1-1.22-.88,2,2,0,0,1-.38-1.25c0-1.42.79-2.13,2.36-2.13h2.75c.17,0,.26.09.26.28V75c0,.18-.09.28-.26.28h-2.42a1.36,1.36,0,0,0-.76.17.54.54,0,0,0-.26.45v.19c0,.35.28.66.84.92l1.82.93a2.49,2.49,0,0,1,1.18.9,2.44,2.44,0,0,1,.32,1.34C106.49,81.58,105.67,82.29,104,82.29Z"/><path class="cls-9" d="M114.17,82.29h-3.56a2.53,2.53,0,0,1-1.9-.68,2.58,2.58,0,0,1-.66-1.88v-3.3a2.31,2.31,0,0,1,2.56-2.56H112a2.6,2.6,0,0,1,1.9.66,2.57,2.57,0,0,1,.68,1.9v2.09a.27.27,0,0,1-.3.3h-4.43c-.12,0-.18.06-.18.17v.71a1.06,1.06,0,0,0,1.21,1.2h3.33a.27.27,0,0,1,.3.3V82C114.47,82.2,114.37,82.29,114.17,82.29Zm-4.36-4.59h3a.15.15,0,0,0,.17-.17v-1a1.31,1.31,0,0,0-.28-.92,1.24,1.24,0,0,0-.91-.29h-.91a1.24,1.24,0,0,0-.91.29,1.27,1.27,0,0,0-.28.92v1C109.65,77.64,109.7,77.7,109.81,77.7Z"/><circle class="cls-6" cx="632" cy="61.19" r="60.69"/><path class="cls-9" d="M605.64,97.33h-1a.24.24,0,0,1-.28-.28V87a.25.25,0,0,1,.28-.28h.92a.39.39,0,0,1,.37.18l4,7.19H610V87a.25.25,0,0,1,.28-.28h1a.26.26,0,0,1,.29.28V97.05c0,.19-.1.28-.29.28h-.89a.49.49,0,0,1-.43-.26L606,90h-.07v7.08A.24.24,0,0,1,605.64,97.33Z"/><path class="cls-9" d="M615.29,97.33h-1a.24.24,0,0,1-.28-.28V87a.25.25,0,0,1,.28-.28h5.19a.25.25,0,0,1,.28.28v.84a.26.26,0,0,1-.28.29h-3.67c-.13,0-.2,0-.2.16V91.4a.18.18,0,0,0,.2.19H619c.2,0,.29.09.29.28v.82c0,.2-.09.3-.29.3h-3.19c-.13,0-.2.05-.2.16v3.9A.24.24,0,0,1,615.29,97.33Z"/><path class="cls-9" d="M624.38,97.33h-1c-.2,0-.3-.09-.3-.28V88.28c0-.11-.06-.16-.17-.16h-2.08a.26.26,0,0,1-.3-.29V87c0-.18.1-.28.3-.28h6.13c.2,0,.3.1.3.28v.84a.26.26,0,0,1-.3.29h-2.08c-.12,0-.18,0-.18.16v8.77A.25.25,0,0,1,624.38,97.33Z"/><path class="cls-9" d="M632.37,94.76v-.43a.25.25,0,0,1,.28-.28h1.06a.24.24,0,0,1,.28.28v.3a1.32,1.32,0,0,0,.31,1,1.36,1.36,0,0,0,1,.31h1.14a1.41,1.41,0,0,0,1-.32,1.48,1.48,0,0,0,.31-1v-.38a1,1,0,0,0-.4-.84,2.24,2.24,0,0,0-1-.39c-.4-.06-.84-.15-1.31-.26a10,10,0,0,1-1.3-.38,2,2,0,0,1-1-.81,2.62,2.62,0,0,1-.41-1.52v-.69A2.39,2.39,0,0,1,635,86.71h1.75a2.57,2.57,0,0,1,1.91.69,2.52,2.52,0,0,1,.68,1.89v.36a.24.24,0,0,1-.28.28h-1a.24.24,0,0,1-.28-.28v-.21a1.43,1.43,0,0,0-.31-1,1.41,1.41,0,0,0-1-.3h-1a1.32,1.32,0,0,0-1,.32,1.54,1.54,0,0,0-.31,1.1v.51c0,.49.36.83,1.08,1,.31.07.66.14,1,.19a9.46,9.46,0,0,1,1.15.25,4.81,4.81,0,0,1,1.06.44,2,2,0,0,1,.78.83,2.88,2.88,0,0,1,.29,1.34v.65a2.36,2.36,0,0,1-2.57,2.57H635a2.56,2.56,0,0,1-1.9-.68A2.52,2.52,0,0,1,632.37,94.76Z"/><path class="cls-9" d="M644.5,97.33h-.65a2.55,2.55,0,0,1-1.89-.67,2.59,2.59,0,0,1-.67-1.89v-3.3a2.33,2.33,0,0,1,2.56-2.56h3.7c.2,0,.3.09.3.28v7.86c0,.19-.1.28-.3.28h-1a.25.25,0,0,1-.28-.28v-.59h-.06A1.65,1.65,0,0,1,644.5,97.33Zm1.73-2.8v-4c0-.11-.06-.17-.18-.17h-2c-.8,0-1.19.41-1.19,1.23v3.17a1.06,1.06,0,0,0,1.19,1.22h.79A1.22,1.22,0,0,0,646.23,94.53Z"/><path class="cls-9" d="M651.32,97.33h-1a.24.24,0,0,1-.28-.28V86a.24.24,0,0,1,.28-.28h1a.24.24,0,0,1,.28.28v11A.24.24,0,0,1,651.32,97.33Z"/><path class="cls-9" d="M659.73,97.33h-3.57a2.33,2.33,0,0,1-2.56-2.56v-3.3a2.52,2.52,0,0,1,.67-1.89,2.55,2.55,0,0,1,1.89-.67h1.36a2.59,2.59,0,0,1,1.9.67,2.52,2.52,0,0,1,.67,1.89v2.1c0,.2-.09.29-.29.29h-4.43c-.12,0-.18.06-.18.17v.71a1.07,1.07,0,0,0,1.2,1.21h3.34a.26.26,0,0,1,.3.29v.83C660,97.25,659.93,97.33,659.73,97.33Zm-4.36-4.59h3a.14.14,0,0,0,.16-.16V91.52a1.28,1.28,0,0,0-.28-.92,1.24,1.24,0,0,0-.91-.29h-.91a1.24,1.24,0,0,0-.91.29,1.33,1.33,0,0,0-.28.92v1.06C655.2,92.69,655.26,92.74,655.37,92.74Z"/><path class="cls-7" d="M649,34.65h-.21v-.21a7.52,7.52,0,0,0-7.52-7.51H615.05a7.52,7.52,0,0,0-7.51,7.51V60.61a7.53,7.53,0,0,0,7.51,7.52h.21v.2a7.52,7.52,0,0,0,7.52,7.52H649a7.52,7.52,0,0,0,7.51-7.52V42.17A7.52,7.52,0,0,0,649,34.65Zm5.88,33.68A5.88,5.88,0,0,1,649,74.21H622.78a5.88,5.88,0,0,1-5.88-5.88v-.2h24.32a7.53,7.53,0,0,0,7.52-7.52V36.29H649a5.88,5.88,0,0,1,5.88,5.88Zm-45.66-7.72V34.44a5.89,5.89,0,0,1,5.88-5.88h26.17a5.89,5.89,0,0,1,5.88,5.88V60.61a5.89,5.89,0,0,1-5.88,5.88H615.05A5.89,5.89,0,0,1,609.17,60.61Z"/><rect class="cls-10" x="613.87" y="33.26" width="28.54" height="28.54" rx="3.32"/><path class="cls-3" d="M621,51.43h-1a.23.23,0,0,1-.26-.26V43.66a.24.24,0,0,1,.26-.27h.94a.35.35,0,0,1,.35.18l2.53,4.74h.05V43.66c0-.18.08-.27.26-.27h1a.24.24,0,0,1,.26.27v7.51a.23.23,0,0,1-.26.26h-.92a.4.4,0,0,1-.39-.25l-2.51-4.65h-.05v4.64A.23.23,0,0,1,621,51.43Z"/><path class="cls-3" d="M628.35,51.43h-1.06a.23.23,0,0,1-.26-.26V43.66c0-.18.08-.27.26-.27h4c.16,0,.25.09.25.27v.85a.23.23,0,0,1-.25.26h-2.52c-.1,0-.15,0-.15.14v1.93a.13.13,0,0,0,.15.15h2.14c.18,0,.26.09.26.27v.83c0,.19-.08.28-.26.28h-2.14c-.1,0-.15.05-.15.14v2.66A.23.23,0,0,1,628.35,51.43Z"/><path class="cls-3" d="M635.14,51.43h-1c-.19,0-.28-.09-.28-.26V44.91c0-.1,0-.14-.13-.14h-1.43a.23.23,0,0,1-.26-.26v-.85a.24.24,0,0,1,.26-.27H637a.24.24,0,0,1,.26.27v.85a.23.23,0,0,1-.26.26h-1.43c-.1,0-.15,0-.15.14v6.26A.23.23,0,0,1,635.14,51.43Z"/><circle class="cls-6" cx="80" cy="329.23" r="60.69"/><path class="cls-9" d="M52.57,363.79V353.73a.24.24,0,0,1,.28-.28h3.91a2.64,2.64,0,0,1,1.91.66,2.48,2.48,0,0,1,.67,1.86v.81A1.77,1.77,0,0,1,58,358.64a1.61,1.61,0,0,1,1.06.56,1.89,1.89,0,0,1,.42,1.29v1.05a2.49,2.49,0,0,1-.67,1.87,2.61,2.61,0,0,1-1.89.66H52.85A.24.24,0,0,1,52.57,363.79ZM54.35,358H56.5q1.26,0,1.26-1.2V356a1.07,1.07,0,0,0-1.23-1.19H54.35c-.12,0-.18.05-.18.16v2.83C54.17,357.92,54.23,358,54.35,358Zm0,4.73h2.32a1.07,1.07,0,0,0,1.23-1.19v-1c0-.8-.43-1.19-1.3-1.19H54.35c-.12,0-.18.05-.18.16v3.07C54.17,362.64,54.23,362.7,54.35,362.7Z"/><path class="cls-9" d="M61.6,354.24v-1.5a.24.24,0,0,1,.27-.27h1.07a.24.24,0,0,1,.27.27v1.5c0,.19-.09.28-.27.28H61.87C61.69,354.52,61.6,354.43,61.6,354.24Zm0,9.55v-7.86c0-.19.09-.29.27-.29h1.06a.26.26,0,0,1,.28.29v7.86a.3.3,0,0,1-.06.22.29.29,0,0,1-.21.06h-1C61.7,364.07,61.6,364,61.6,363.79Z"/><path class="cls-9" d="M68.44,363.66H67.7a2.41,2.41,0,0,1-1.82-.67,2.62,2.62,0,0,1-.64-1.89v-2.89a2.34,2.34,0,0,1,2.56-2.57h3.7a.26.26,0,0,1,.3.29v8.17a2.5,2.5,0,0,1-.69,1.88,2.55,2.55,0,0,1-1.89.67h-3.1c-.19,0-.28-.09-.28-.27v-.86a.25.25,0,0,1,.28-.28H69A1.07,1.07,0,0,0,70.18,364v-1.25h-.07A1.65,1.65,0,0,1,68.44,363.66Zm1.74-2.81v-3.64c0-.11-.06-.16-.18-.16H68c-.78,0-1.17.41-1.17,1.22V361q0,1.23,1.17,1.23h.8A1.21,1.21,0,0,0,70.18,360.85Z"/><path class="cls-9" d="M78,363.79V353.73a.24.24,0,0,1,.28-.28h4.07a2.58,2.58,0,0,1,1.89.67,2.53,2.53,0,0,1,.68,1.89v5.5a2.36,2.36,0,0,1-2.57,2.56H78.24A.24.24,0,0,1,78,363.79Zm1.79-1.12h2.32c.8,0,1.19-.41,1.19-1.23v-5.37a1.06,1.06,0,0,0-1.19-1.22H79.75c-.13,0-.19.06-.19.17v7.46A.17.17,0,0,0,79.75,362.67Z"/><path class="cls-9" d="M90,364.07h-.64a2.52,2.52,0,0,1-1.89-.68,2.54,2.54,0,0,1-.67-1.88v-3.3a2.56,2.56,0,0,1,.67-1.9,2.59,2.59,0,0,1,1.89-.67h3.7a.26.26,0,0,1,.3.29v7.86c0,.19-.1.28-.3.28H92a.24.24,0,0,1-.28-.28v-.6h-.07A1.63,1.63,0,0,1,90,364.07Zm1.74-2.81v-4.05c0-.11-.06-.16-.18-.16h-2a1.07,1.07,0,0,0-1.19,1.22v3.17a1.07,1.07,0,0,0,1.19,1.23h.79C91.29,362.67,91.74,362.2,91.74,361.26Z"/><path class="cls-9" d="M95.67,357.05h-.79a.29.29,0,0,1-.22-.06.29.29,0,0,1-.06-.21v-.85c0-.19.09-.29.28-.29h.79c.11,0,.17-.05.17-.16V354a.26.26,0,0,1,.29-.28h1a.26.26,0,0,1,.29.28v1.49c0,.11.06.16.18.16h1.53a.26.26,0,0,1,.3.29v.85q0,.27-.3.27H97.64c-.12,0-.18.05-.18.16v4.25a1.08,1.08,0,0,0,1.24,1.21h.64c.2,0,.3.09.3.28v.86c0,.17-.1.26-.3.26h-.89a2.66,2.66,0,0,1-1.92-.66,2.46,2.46,0,0,1-.69-1.87v-4.33C95.84,357.1,95.78,357.05,95.67,357.05Z"/><path class="cls-9" d="M104.26,364.07h-.64a2.49,2.49,0,0,1-1.89-.68,2.54,2.54,0,0,1-.67-1.88v-3.3a2.33,2.33,0,0,1,2.56-2.57h3.7a.26.26,0,0,1,.3.29v7.86c0,.19-.1.28-.3.28h-1a.24.24,0,0,1-.28-.28v-.6h-.07A1.63,1.63,0,0,1,104.26,364.07Zm1.74-2.81v-4.05c0-.11-.06-.16-.18-.16h-2a1.07,1.07,0,0,0-1.19,1.22v3.17a1.07,1.07,0,0,0,1.19,1.23h.79C105.55,362.67,106,362.2,106,361.26Z"/><path class="cls-7" d="M100.6,306.33v-6.8a5,5,0,0,0-4.95-4.95H64.35a5,5,0,0,0-4.95,4.95v6.8a5,5,0,0,0,2.23,4.14,4.93,4.93,0,0,0-2.23,4.13v6.8a4.93,4.93,0,0,0,2.23,4.13,5,5,0,0,0-2.23,4.14v6.8a5,5,0,0,0,4.95,4.95h31.3a5,5,0,0,0,4.95-4.95v-6.8a5,5,0,0,0-2.23-4.14,4.93,4.93,0,0,0,2.23-4.13v-6.8a4.93,4.93,0,0,0-2.23-4.13A5,5,0,0,0,100.6,306.33ZM99,321.4a3.32,3.32,0,0,1-3.31,3.32H64.35A3.32,3.32,0,0,1,61,321.4v-6.8a3.32,3.32,0,0,1,3.31-3.32h31.3A3.32,3.32,0,0,1,99,314.6Zm0,15.07a3.32,3.32,0,0,1-3.31,3.32H64.35A3.32,3.32,0,0,1,61,336.47v-6.8a3.32,3.32,0,0,1,3.31-3.32h31.3A3.32,3.32,0,0,1,99,329.67ZM64.35,309.65A3.32,3.32,0,0,1,61,306.33v-6.8a3.32,3.32,0,0,1,3.31-3.32h31.3A3.32,3.32,0,0,1,99,299.53v6.8a3.32,3.32,0,0,1-3.31,3.32Z"/><rect class="cls-7" x="65.84" y="301.36" width="1.64" height="3.32"/><rect class="cls-7" x="70.51" y="301.36" width="1.64" height="3.32"/><rect class="cls-7" x="75.18" y="301.36" width="1.64" height="3.32"/><path class="cls-11" d="M92,299.09a3.84,3.84,0,1,0,3.84,3.84A3.85,3.85,0,0,0,92,299.09Zm0,6.05a2.21,2.21,0,1,1,2.21-2.21A2.21,2.21,0,0,1,92,305.14Z"/><rect class="cls-7" x="65.84" y="316.43" width="1.64" height="3.32"/><rect class="cls-7" x="70.51" y="316.43" width="1.64" height="3.32"/><rect class="cls-7" x="75.18" y="316.43" width="1.64" height="3.32"/><path class="cls-12" d="M92,314.16A3.84,3.84,0,1,0,95.83,318,3.85,3.85,0,0,0,92,314.16Zm0,6A2.21,2.21,0,1,1,94.2,318,2.21,2.21,0,0,1,92,320.21Z"/><rect class="cls-7" x="65.84" y="331.5" width="1.64" height="3.32"/><rect class="cls-7" x="70.51" y="331.5" width="1.64" height="3.32"/><rect class="cls-7" x="75.18" y="331.5" width="1.64" height="3.32"/><path class="cls-13" d="M92,329.23a3.84,3.84,0,1,0,3.84,3.84A3.85,3.85,0,0,0,92,329.23Zm0,6a2.21,2.21,0,1,1,2.21-2.21A2.21,2.21,0,0,1,92,335.28Z"/><circle class="cls-6" cx="632" cy="329.23" r="60.69"/><path class="cls-9" d="M622.81,364.07h-1.19c-.16,0-.21-.09-.17-.28l2.88-10.06a.36.36,0,0,1,.39-.28h1.65a.35.35,0,0,1,.4.28l2.88,10.06c0,.19,0,.28-.19.28h-1.17a.29.29,0,0,1-.21-.06.69.69,0,0,1-.09-.22l-.62-2.15h-3.64l-.63,2.15C623.06,364,623,364.07,622.81,364.07Zm2.71-9-1.46,5.29h3L625.58,355Z"/><path class="cls-9" d="M632.6,364.07h-1a.25.25,0,0,1-.28-.28V353.73a.25.25,0,0,1,.28-.28h3.93a2.55,2.55,0,0,1,1.89.67,2.52,2.52,0,0,1,.67,1.89v1.72a2.34,2.34,0,0,1-2.56,2.56h-2.41c-.13,0-.2,0-.2.16v3.34A.24.24,0,0,1,632.6,364.07Zm.47-5.2h2.19c.79,0,1.18-.41,1.18-1.23v-1.57a1.06,1.06,0,0,0-1.18-1.22h-2.19c-.13,0-.19.06-.19.17v3.68C632.88,358.81,632.94,358.87,633.07,358.87Z"/><path class="cls-9" d="M641.69,353.73v10.06a.24.24,0,0,1-.28.28h-1a.24.24,0,0,1-.28-.28V353.73a.24.24,0,0,1,.28-.28h1A.24.24,0,0,1,641.69,353.73Z"/><path class="cls-7" d="M645.08,338.6H618.92a7.52,7.52,0,0,1-7.52-7.52V304.92a7.52,7.52,0,0,1,7.52-7.52h26.16a7.52,7.52,0,0,1,7.52,7.52v26.16A7.52,7.52,0,0,1,645.08,338.6ZM618.92,299a5.88,5.88,0,0,0-5.88,5.88v26.16a5.88,5.88,0,0,0,5.88,5.88h26.16a5.88,5.88,0,0,0,5.88-5.88V304.92a5.88,5.88,0,0,0-5.88-5.88Z"/><rect class="cls-14" x="618.37" y="304.37" width="27.25" height="27.25" rx="3.17"/><path class="cls-3" d="M625.19,321H624c-.15,0-.2-.08-.15-.26l2-7.51a.37.37,0,0,1,.38-.27h1.66a.35.35,0,0,1,.38.27l2,7.51c0,.18,0,.26-.15.26h-1.2a.31.31,0,0,1-.19-.05.43.43,0,0,1-.07-.21l-.35-1.37H625.8l-.35,1.37a.42.42,0,0,1-.08.21A.3.3,0,0,1,625.19,321Zm1.81-6.52-.9,3.61H628l-.9-3.61Z"/><path class="cls-3" d="M632.64,321h-1.06c-.18,0-.27-.08-.27-.26V313.2a.24.24,0,0,1,.27-.27h3a2,2,0,0,1,1.51.54,2,2,0,0,1,.54,1.5v1.2a2,2,0,0,1-.54,1.51,2.07,2.07,0,0,1-1.51.53h-1.58c-.1,0-.15.05-.15.14v2.36A.23.23,0,0,1,632.64,321Zm.4-4.15h1.32a.75.75,0,0,0,.57-.17.8.8,0,0,0,.16-.55v-1.05a.84.84,0,0,0-.16-.57.79.79,0,0,0-.57-.17H633a.13.13,0,0,0-.14.14v2.23A.12.12,0,0,0,633,316.82Z"/><path class="cls-3" d="M639.59,313.2v7.51a.23.23,0,0,1-.26.26h-1.07a.23.23,0,0,1-.26-.26V313.2a.24.24,0,0,1,.26-.27h1.07A.24.24,0,0,1,639.59,313.2Z"/><rect class="cls-7" x="644.81" y="291.36" width="1.64" height="4.02"/><rect class="cls-7" x="640.27" y="291.36" width="1.64" height="4.02"/><rect class="cls-7" x="635.74" y="291.36" width="1.64" height="4.02"/><rect class="cls-7" x="631.2" y="291.36" width="1.64" height="4.02"/><rect class="cls-7" x="626.66" y="291.36" width="1.64" height="4.02"/><rect class="cls-7" x="622.13" y="291.36" width="1.64" height="4.02"/><rect class="cls-7" x="617.56" y="291.36" width="1.64" height="4.02"/><rect class="cls-7" x="605.36" y="303.56" width="4.02" height="1.64"/><rect class="cls-7" x="605.36" y="308.09" width="4.02" height="1.64"/><rect class="cls-7" x="605.36" y="312.63" width="4.02" height="1.64"/><rect class="cls-7" x="605.36" y="317.17" width="4.02" height="1.64"/><rect class="cls-7" x="605.36" y="321.7" width="4.02" height="1.64"/><rect class="cls-7" x="605.36" y="326.24" width="4.02" height="1.64"/><rect class="cls-7" x="605.36" y="330.81" width="4.02" height="1.64"/><rect class="cls-7" x="617.56" y="340.63" width="1.64" height="4.02"/><rect class="cls-7" x="622.09" y="340.63" width="1.64" height="4.02"/><rect class="cls-7" x="626.63" y="340.63" width="1.64" height="4.02"/><rect class="cls-7" x="631.17" y="340.63" width="1.64" height="4.02"/><rect class="cls-7" x="635.7" y="340.63" width="1.64" height="4.02"/><rect class="cls-7" x="640.24" y="340.63" width="1.64" height="4.02"/><rect class="cls-7" x="644.81" y="340.63" width="1.64" height="4.02"/><rect class="cls-7" x="654.63" y="330.81" width="4.02" height="1.64"/><rect class="cls-7" x="654.63" y="326.27" width="4.02" height="1.64"/><rect class="cls-7" x="654.63" y="321.74" width="4.02" height="1.64"/><rect class="cls-7" x="654.63" y="317.2" width="4.02" height="1.64"/><rect class="cls-7" x="654.63" y="312.66" width="4.02" height="1.64"/><rect class="cls-7" x="654.63" y="308.13" width="4.02" height="1.64"/><rect class="cls-7" x="654.63" y="303.56" width="4.02" height="1.64"/><path class="cls-3" d="M34.57,142.07h1.34v11.81H34.57V147.7H33v3.49H28.09v-8H33v3.31h1.6Zm-2.95,2.3H29.44V150h2.18Zm6.85-2.54v12.64H37.1V141.83Z"/><path class="cls-3" d="M42.51,150.35a31.22,31.22,0,0,0,5.34-.38l.14,1.18a35.33,35.33,0,0,1-5.9.38h-1v-8.6H47v1.19H42.51v2.35h4.23v1.16H42.51ZM52.32,148h-2v6.52H48.9V141.82h1.44v5h2Z"/><path class="cls-3" d="M63.94,141.82v12.69H62.48v-6.93H59.84v3.84H53.91v-8.61h1.43V146h3.08v-3.18h1.42v3.58h2.64v-4.6Zm-5.52,5.32H55.34v3.1h3.08Z"/><path class="cls-3" d="M77.77,151.67v1.19H66.31v-1.19Zm-1.12-2.47A6.59,6.59,0,0,1,72,145.73a6.62,6.62,0,0,1-4.67,3.47L66.71,148c2.49-.46,4.52-2.41,4.52-4.41v-.95h1.53v.95c0,2,2,4,4.52,4.41Z"/><path class="cls-3" d="M85.12,150.06a23.94,23.94,0,0,0,3.71-.38l.15,1.23a24.12,24.12,0,0,1-4.47.38h-.84v-8h1.45Zm8.75-8.23v12.65H92.5v-6.43H91v5.8H89.64V142.09H91v4.77h1.5v-5Z"/><path class="cls-3" d="M101.86,150.18a29.93,29.93,0,0,0,5.35-.4l.16,1.19a31.29,31.29,0,0,1-5.92.42h-1V143h5.88v1.18h-4.44Zm9.82-2.29h-2v6.61h-1.45V141.82h1.45v4.87h2Z"/><path class="cls-3" d="M116.31,148.6a3,3,0,1,1,3.38-3A3.1,3.1,0,0,1,116.31,148.6Zm0-1.22a1.81,1.81,0,1,0-2-1.81A1.8,1.8,0,0,0,116.31,147.38Zm6.5,4.68c0,1.51-1.61,2.42-4.22,2.42s-4.21-.91-4.21-2.42,1.62-2.44,4.21-2.44S122.81,150.53,122.81,152.06Zm-1.43,0c0-.84-1-1.29-2.79-1.29s-2.79.45-2.79,1.29,1,1.27,2.79,1.27S121.38,152.89,121.38,152.06Zm1.29-7.31v1.54h1.75v1.19h-1.75v1.79h-1.44v-7.45h1.44v1.74h1.75v1.19Z"/><path class="cls-3" d="M133.15,144.43h-7.46v-1.15h3v-1.46h1.44v1.46h3Zm-3.74,5.38c-1.8,0-3.06-1-3.06-2.4s1.26-2.4,3.06-2.4,3.07,1,3.07,2.4S131.23,149.81,129.41,149.81Zm-.42,3.26h7.06v1.18h-8.51v-3.66H129Zm.42-4.39c1,0,1.7-.47,1.7-1.27s-.69-1.27-1.7-1.27-1.68.47-1.68,1.27S128.42,148.68,129.41,148.68Zm7.93-2.81v1.19h-1.79v4.26h-1.44v-9.49h1.44v4Z"/><path class="cls-3" d="M33.74,163.61H27.6V162.5H30v-1.16h1.43v1.16h2.35Zm-3.06,4.61c-1.52,0-2.63-.86-2.63-2.11s1.11-2.1,2.63-2.1,2.62.86,2.62,2.1S32.21,168.22,30.68,168.22Zm0-1c.8,0,1.36-.42,1.36-1.08S31.48,165,30.68,165s-1.35.42-1.35,1.07S29.87,167.19,30.68,167.19Zm8.12,5.65v1.08H30v-3h7V170h-7v-1.06h8.45v3h-7v1Zm-4.12-8.25v-3H36v6.74H34.68v-2.59H33.46v-1.15Zm3.7,3.84H37v-7.05h1.38Z"/><path class="cls-3" d="M52,171.21v1.19H40.55v-1.19Zm-1.12-2.46a6.6,6.6,0,0,1-4.66-3.48,6.64,6.64,0,0,1-4.67,3.48L41,167.56c2.49-.47,4.52-2.41,4.52-4.42v-.95H47v.95c0,2,2,4,4.52,4.42Z"/><path class="cls-3" d="M60.24,161.67h1.35v11.74H60.24v-6H58.13a8.89,8.89,0,0,1-3.87,4l-.81-1a7.61,7.61,0,0,0,3.47-3.58l-3.25.35L53.48,166l3.83-.23a10.1,10.1,0,0,0,.28-1.76h-3.5v-1.16H59a12.41,12.41,0,0,1-.42,3.43h1.68Zm4-.3V174H62.86V161.37Z"/><path class="cls-3" d="M76.82,161.37v12.69H75.36v-6.8H72.91c-.17,2.45-1.46,4-3.19,4s-3.2-1.73-3.2-4.47,1.33-4.46,3.2-4.46c1.69,0,3,1.46,3.18,3.79h2.46v-4.72Zm-5.27,5.39c0-2-.74-3.15-1.83-3.15s-1.82,1.19-1.82,3.15.74,3.18,1.82,3.18S71.55,168.76,71.55,166.76Z"/><path class="cls-3" d="M93.59,161.38v6.78H92.15v-2.69H89.81a3,3,0,1,1,0-1.18h2.34v-2.91Zm-5.1,3.51a1.91,1.91,0,1,0-1.9,1.78A1.75,1.75,0,0,0,88.49,164.89Zm3.67,3.87h1.43v5.11H85.37v-5.11H86.8v1.43h5.36Zm0,2.55H86.8v1.4h5.36Z"/><path class="cls-3" d="M99.79,165.25a5.5,5.5,0,0,0,2.59,4.93l-.8,1.07a5.42,5.42,0,0,1-2.46-3.18,5.8,5.8,0,0,1-2.45,3.46l-.83-1.09a6,6,0,0,0,2.58-5.19v-.45H96.23v-1.19h2.19v-1.8h1.37v1.8H102v1.19H99.79Zm3.07-3.62h1.36v11.78h-1.36v-5.95h-1.71v-1.18h1.71Zm3.92-.25V174h-1.37V161.38Z"/><path class="cls-3" d="M119.74,164.89a3.38,3.38,0,1,1-3.35-2.94A3,3,0,0,1,119.74,164.89Zm-5.29,0a2,2,0,0,0,3.89,0,2,2,0,0,0-3.89,0Zm1.93,3.87v1.4h5.41v-1.4h1.42v5.11H115v-5.11Zm0,4h5.41v-1.43h-5.41Zm6.83-11.33v6.79h-1.44v-6.79Z"/><path class="cls-3" d="M132.48,168.41a4.91,4.91,0,0,1-2.95-2.7,5.22,5.22,0,0,1-3.13,3l-.74-1.13a4.42,4.42,0,0,0,3.11-4.08v-.21h-2.68v-1.16h6.77v1.16h-2.63v.21a4.16,4.16,0,0,0,3,3.81Zm-4.64.9h8.31v4.56h-8.31Zm1.42,3.41h5.48v-2.26h-5.48Zm6.89-11.35v7.36h-1.44v-3.11h-2.24v-1.17h2.24v-3.08Z"/><path class="cls-3" d="M605.45,135.67h1.34v11.81h-1.34V141.3h-1.6v3.49H599v-8h4.88v3.3h1.6Zm-3,2.3h-2.18v5.67h2.18Zm6.85-2.54v12.64H608V135.43Z"/><path class="cls-3" d="M613.4,144a33.34,33.34,0,0,0,5.33-.38l.14,1.18a35.33,35.33,0,0,1-5.9.38h-1v-8.61h5.91v1.2H613.4v2.35h4.23v1.16H613.4Zm9.8-2.37h-2v6.52h-1.45V135.42h1.45v5h2Z"/><path class="cls-3" d="M634.82,135.42v12.69h-1.46v-6.93h-2.64V145h-5.93v-8.6h1.43v3.2h3.08v-3.18h1.42V140h2.64V135.4Zm-5.52,5.32h-3.08v3.1h3.08Z"/><path class="cls-3" d="M648.65,145.27v1.19H637.19v-1.19Zm-1.12-2.47a6.61,6.61,0,0,1-4.66-3.47,6.65,6.65,0,0,1-4.67,3.47l-.61-1.19c2.49-.46,4.52-2.41,4.52-4.41v-1h1.53v1c0,2,2,4,4.52,4.41Z"/><path class="cls-3" d="M660.63,141.47h-6v-5.25h6Zm.41,3.07c.11,1,1.74,2.17,4.08,2.42l-.48,1.09a6.15,6.15,0,0,1-4.34-2.14,6.16,6.16,0,0,1-4.39,2.14l-.47-1.09c2.36-.24,4-1.34,4.11-2.42h-3.62v-1.11h3.62V142.3H661v1.13h3.62v1.11Zm-1.81-7.17h-3.18v2.95h3.18Zm5.19,5.28H663v-7.23h1.46Z"/><path class="cls-3" d="M589.65,157.2h-6.13v-1.1h2.35v-1.17h1.43v1.17h2.35Zm-3,4.61c-1.53,0-2.63-.85-2.63-2.1s1.1-2.1,2.63-2.1,2.62.86,2.62,2.1S588.13,161.81,586.6,161.81Zm0-1c.8,0,1.36-.42,1.36-1.08s-.56-1.08-1.36-1.08-1.36.42-1.36,1.08S585.79,160.79,586.6,160.79Zm8.11,5.64v1.08h-8.84v-3h7v-.88h-7v-1.06h8.45v2.95h-7v1Zm-4.12-8.25v-3H592v6.74h-1.36v-2.6h-1.22v-1.15Zm3.7,3.84h-1.37v-7h1.37Z"/><path class="cls-3" d="M607.93,164.81V166H596.47v-1.19Zm-1.12-2.46a6.64,6.64,0,0,1-4.67-3.48,6.62,6.62,0,0,1-4.66,3.48l-.62-1.2c2.49-.46,4.52-2.4,4.52-4.41v-1h1.53v1c0,2,2,4,4.53,4.41Z"/><path class="cls-3" d="M616.16,155.27h1.34V167h-1.34v-6H614a8.78,8.78,0,0,1-3.87,4l-.81-1a7.63,7.63,0,0,0,3.48-3.57l-3.25.35-.2-1.24,3.84-.23a10.1,10.1,0,0,0,.28-1.76H610v-1.17h4.89a12.43,12.43,0,0,1-.43,3.44h1.69Zm4-.31v12.67h-1.38V155Z"/><path class="cls-3" d="M632.73,155v12.69h-1.45v-6.79h-2.45c-.17,2.45-1.46,4-3.2,4s-3.19-1.72-3.19-4.46,1.33-4.46,3.19-4.46c1.7,0,3,1.46,3.18,3.78h2.47V155Zm-5.26,5.4c0-2-.75-3.16-1.84-3.16s-1.82,1.19-1.82,3.16.74,3.18,1.82,3.18S627.47,162.36,627.47,160.36Z"/><path class="cls-3" d="M643.61,158.09a6.06,6.06,0,0,0,3.14,5.54l-.86,1.17a6.28,6.28,0,0,1-3-3.8,6.55,6.55,0,0,1-3,4l-.91-1.15a6.49,6.49,0,0,0,3.21-5.77V156h1.46Zm5.92-3.14v12.69h-1.45v-7.35h-2.71v-1.18h2.71V155Z"/><path class="cls-3" d="M654,156v3.23h3.21V156h1.44v8.63h-6.08V156Zm0,7.47h3.21v-3.1H654Zm8.31-8.52v12.69h-1.46V155Z"/><path class="cls-3" d="M676.25,164.81V166H664.79v-1.19Zm-1.12-2.46a6.64,6.64,0,0,1-4.67-3.48,6.62,6.62,0,0,1-4.66,3.48l-.62-1.2c2.49-.46,4.53-2.4,4.53-4.41v-1h1.52v1c0,2,2,4,4.53,4.41Z"/><path class="cls-3" d="M677.7,168.44a2.16,2.16,0,0,0,1.52-1.92h-.15a1,1,0,0,1-1.08-1,1.05,1.05,0,0,1,1.12-1c.79,0,1.25.66,1.25,1.74a3.29,3.29,0,0,1-2.3,3.15Z"/><path class="cls-3" d="M583.77,181.44a5,5,0,0,1-2.9-2.65,5.18,5.18,0,0,1-3.06,3l-.77-1.15a4.42,4.42,0,0,0,3.07-4.23v-1.24h1.46v1.35a4.05,4.05,0,0,0,2.95,3.79Zm3.41,3.35c0,1.5-1.59,2.38-4.21,2.38s-4.22-.88-4.22-2.38,1.61-2.37,4.22-2.37S587.18,183.3,587.18,184.79Zm-1.42,0c0-.79-1-1.23-2.79-1.23s-2.79.44-2.79,1.23,1,1.25,2.79,1.25S585.76,185.6,585.76,184.79Zm3.08-7.15v1.2h-1.79v3.27H585.6v-7.6h1.45v3.13Z"/><path class="cls-3" d="M596.48,181.71V183h3.61v4h-8.68v-4H595v-1.29h-5v-1.17h11.44v1.17Zm-3.63-5.66h-1.79v-1.16h9.37v1.16h-1.78v2.32h1.71v1.17h-9.23v-1.17h1.72Zm5.83,8.09h-5.84v1.73h5.84Zm-1.47-8.09h-2.92v2.32h2.92Z"/><path class="cls-3" d="M614.37,179.82V181H602.92v-1.14Zm-10.24-2.92c0-1.41,1.67-2.18,4.51-2.18s4.51.77,4.51,2.18-1.68,2.17-4.51,2.17S604.13,178.3,604.13,176.9Zm1.6,9h7.57v1.11h-9v-3.18h7.22V183h-7.25v-1.09h8.66v3h-7.2Zm-.1-9c0,.72,1,1.09,3,1.09s3-.37,3-1.09-1-1.1-3-1.1S605.63,176.17,605.63,176.9Z"/><path class="cls-3" d="M619.6,175.78h1.67l3.42,6.05,1.08,2.19h.07c-.09-1.07-.21-2.31-.21-3.43v-4.81h1.54v10.31H625.5L622.08,180,621,177.85h-.07c.09,1.07.21,2.26.21,3.38v4.86H619.6Z"/><path class="cls-3" d="M629.88,175.78H636v1.36H631.5v3.15h3.81v1.36H631.5v4.44h-1.62Z"/><path class="cls-3" d="M639.9,177.14h-3v-1.36h7.69v1.36h-3v9H639.9Z"/><path class="cls-3" d="M657.16,184.49v1.19H645.7v-1.19h5v-2.15h-3.6v-4.08h7.28v-1.69h-7.31V175.4h8.74v4h-7.3v1.76h7.58v1.17h-4v2.15Z"/><path class="cls-3" d="M670.2,181.57a50.58,50.58,0,0,1-7.56.47l-.16-1.19H664v-4h-1.15v-1.17h6.77v1.17h-1.15v3.88c.57,0,1.13-.09,1.66-.16Zm-4.38,4.19h7.06v1.17h-8.52v-4h1.46Zm-.46-4.94c.54,0,1.12,0,1.68-.07V176.8h-1.68Zm8.81-2.56v1.19h-1.8v4.39h-1.44v-9.32h1.44v3.74Z"/><path class="cls-3" d="M675.8,175.91h4.87v8H675.8Zm1.34,6.82h2.19v-5.67h-2.19Zm9-8.21v12.64h-1.37v-6.53h-1.45v5.94H682V174.76h1.36v4.69h1.45v-4.93Z"/><line class="cls-15" x1="140.69" y1="61.19" x2="142.69" y2="61.34"/><polyline class="cls-16" points="146.65 61.62 210.04 66.19 329.24 168.29"/><line class="cls-15" x1="330.75" y1="169.58" x2="332.27" y2="170.88"/><line class="cls-15" x1="571.31" y1="61.19" x2="569.31" y2="61.34"/><polyline class="cls-17" points="565.34 61.62 501.67 66.19 382.47 168.29"/><line class="cls-15" x1="380.96" y1="169.58" x2="379.44" y2="170.88"/><line class="cls-15" x1="140.69" y1="329.23" x2="142.69" y2="329.23"/><polyline class="cls-18" points="146.72 329.23 210.04 329.23 329.29 222.22"/><line class="cls-15" x1="330.78" y1="220.88" x2="332.27" y2="219.54"/><line class="cls-15" x1="571.31" y1="329.23" x2="569.31" y2="329.23"/><polyline class="cls-19" points="565.27 329.23 501.67 329.23 382.43 222.22"/><line class="cls-15" x1="380.93" y1="220.88" x2="379.44" y2="219.54"/><path class="cls-20" d="M140.69,53.79a7.41,7.41,0,1,0,7.41,7.4A7.4,7.4,0,0,0,140.69,53.79Z"/><path class="cls-3" d="M144.16,61.19a3.47,3.47,0,1,1-3.47-3.46A3.47,3.47,0,0,1,144.16,61.19Z"/><path class="cls-21" d="M563.9,61.19a7.41,7.41,0,1,0,7.41-7.4A7.41,7.41,0,0,0,563.9,61.19Z"/><path class="cls-3" d="M567.84,61.19a3.47,3.47,0,1,0,3.47-3.46A3.47,3.47,0,0,0,567.84,61.19Z"/><path class="cls-22" d="M140.69,321.82a7.41,7.41,0,1,0,7.41,7.41A7.4,7.4,0,0,0,140.69,321.82Z"/><path class="cls-3" d="M144.16,329.23a3.47,3.47,0,1,1-3.47-3.46A3.46,3.46,0,0,1,144.16,329.23Z"/><path class="cls-23" d="M563.9,329.23a7.41,7.41,0,1,0,7.41-7.41A7.4,7.4,0,0,0,563.9,329.23Z"/><path class="cls-3" d="M567.84,329.23a3.47,3.47,0,1,0,3.47-3.46A3.46,3.46,0,0,0,567.84,329.23Z"/><path class="cls-24" d="M355.85,114.64a80.57,80.57,0,1,0,80.57,80.57A80.56,80.56,0,0,0,355.85,114.64Zm0,149.72A69.15,69.15,0,1,1,425,195.21,69.15,69.15,0,0,1,355.85,264.36Z"/><circle class="cls-3" cx="355.85" cy="195.21" r="74.15" transform="translate(-35.33 86.98) rotate(-13.28)"/><path class="cls-25" d="M350.71,160.61a3.75,3.75,0,1,1,3.74-3.74A3.75,3.75,0,0,1,350.71,160.61Z"/><path class="cls-25" d="M350.71,173.48a3.75,3.75,0,1,1,3.74-3.74A3.74,3.74,0,0,1,350.71,173.48Z"/><path class="cls-26" d="M340.41,160.1a3.24,3.24,0,1,1,3.24-3.23A3.24,3.24,0,0,1,340.41,160.1Z"/><path class="cls-26" d="M371.3,160.1a3.24,3.24,0,1,1,3.24-3.23A3.24,3.24,0,0,1,371.3,160.1Z"/><path class="cls-26" d="M350.71,185.85a3.24,3.24,0,1,1,3.23-3.24A3.24,3.24,0,0,1,350.71,185.85Z"/><path class="cls-27" d="M350.71,198.72a3.24,3.24,0,1,1,3.23-3.24A3.24,3.24,0,0,1,350.71,198.72Z"/><path class="cls-25" d="M361,160.61a3.75,3.75,0,1,1,3.75-3.74A3.75,3.75,0,0,1,361,160.61Z"/><path class="cls-25" d="M361,173.48a3.75,3.75,0,1,1,3.75-3.74A3.74,3.74,0,0,1,361,173.48Z"/><path class="cls-26" d="M361,185.85a3.24,3.24,0,1,1,3.24-3.24A3.24,3.24,0,0,1,361,185.85Z"/><circle class="cls-27" cx="361" cy="195.48" r="3.24"/><path class="cls-27" d="M381.6,159.14a2.28,2.28,0,1,1,2.27-2.27A2.28,2.28,0,0,1,381.6,159.14Z"/><path class="cls-26" d="M374.54,169.74a3.24,3.24,0,1,1-3.24-3.24A3.24,3.24,0,0,1,374.54,169.74Z"/><path class="cls-27" d="M383.87,169.74a2.28,2.28,0,1,1-2.27-2.28A2.27,2.27,0,0,1,383.87,169.74Z"/><circle class="cls-27" cx="330.11" cy="156.87" r="2.28"/><circle class="cls-27" cx="330.11" cy="169.74" r="2.28"/><path class="cls-28" d="M353,208.35a2.28,2.28,0,1,1-2.27-2.27A2.28,2.28,0,0,1,353,208.35Z"/><path class="cls-26" d="M337.17,169.74a3.24,3.24,0,1,0,3.24-3.24A3.24,3.24,0,0,0,337.17,169.74Z"/><circle class="cls-28" cx="361" cy="208.35" r="2.28"/><path class="cls-29" d="M371.3,183.87a1.26,1.26,0,1,1,1.26-1.26A1.26,1.26,0,0,1,371.3,183.87Z"/><path class="cls-29" d="M381.6,183.87a1.26,1.26,0,0,1,0-2.52,1.26,1.26,0,0,1,0,2.52Z"/><path class="cls-29" d="M371.3,196.74a1.26,1.26,0,1,1,1.26-1.26A1.26,1.26,0,0,1,371.3,196.74Z"/><path class="cls-29" d="M381.6,196.74a1.26,1.26,0,0,1,0-2.52,1.26,1.26,0,1,1,0,2.52Z"/><path class="cls-29" d="M371.3,209.61a1.26,1.26,0,1,1,1.26-1.26A1.26,1.26,0,0,1,371.3,209.61Z"/><path class="cls-29" d="M381.6,209.61a1.26,1.26,0,1,1,1.26-1.26A1.25,1.25,0,0,1,381.6,209.61Z"/><path class="cls-29" d="M340.41,183.87a1.26,1.26,0,1,0-1.26-1.26A1.26,1.26,0,0,0,340.41,183.87Z"/><path class="cls-29" d="M330.11,183.87a1.26,1.26,0,0,0,0-2.52,1.26,1.26,0,0,0,0,2.52Z"/><path class="cls-29" d="M340.41,196.74a1.26,1.26,0,1,0-1.26-1.26A1.26,1.26,0,0,0,340.41,196.74Z"/><circle class="cls-29" cx="330.11" cy="195.48" r="1.26"/><path class="cls-29" d="M340.41,209.61a1.26,1.26,0,1,0-1.26-1.26A1.26,1.26,0,0,0,340.41,209.61Z"/><path class="cls-29" d="M330.11,209.61a1.26,1.26,0,1,0-1.26-1.26A1.25,1.25,0,0,0,330.11,209.61Z"/><path class="cls-30" d="M329.23,227.56h-3.31v9.61h-2.74v-9.61h-3.31v-2.17h9.36Z"/><path class="cls-30" d="M333.36,227.49v2.75h3.71v2h-3.71v2.81h4.84v2.1h-7.59V225.39h7.59v2.1Z"/><path class="cls-30" d="M349.52,237.17H347a1,1,0,0,1-1-.52l-2-3.42a1.06,1.06,0,0,0-.31-.32,1,1,0,0,0-.48-.1h-.7v4.36h-2.73V225.39h3.83a8.09,8.09,0,0,1,2.18.26,4.06,4.06,0,0,1,1.47.74,2.75,2.75,0,0,1,.83,1.1,3.74,3.74,0,0,1,.26,1.39,3.83,3.83,0,0,1-.15,1.09,3.57,3.57,0,0,1-.46.94,3.36,3.36,0,0,1-.74.77,3.93,3.93,0,0,1-1,.56,2.76,2.76,0,0,1,.5.34,2.22,2.22,0,0,1,.42.49Zm-5.81-6.24a2.93,2.93,0,0,0,1-.14,1.83,1.83,0,0,0,.64-.39,1.59,1.59,0,0,0,.37-.59,2.41,2.41,0,0,0,.11-.72,1.55,1.55,0,0,0-.5-1.22,2.37,2.37,0,0,0-1.57-.43h-1.1v3.49Z"/><path class="cls-30" d="M361.08,237.17H359a.9.9,0,0,1-.57-.16,1.18,1.18,0,0,1-.34-.43l-.69-2.05h-4.48l-.7,2.05a.94.94,0,0,1-.32.41.88.88,0,0,1-.57.18h-2.13l4.56-11.78h2.8Zm-4.34-4.5-1.1-3.23c-.08-.2-.16-.44-.25-.72s-.19-.58-.28-.9c-.08.33-.17.63-.26.91s-.18.52-.26.73l-1.08,3.21Z"/><path class="cls-30" d="M369.32,227.56H366v9.61h-2.73v-9.61H360v-2.17h9.36Z"/><path class="cls-30" d="M379.17,227.56h-3.31v9.61h-2.74v-9.61h-3.31v-2.17h9.36Z"/><path class="cls-30" d="M391.84,231.28a6.36,6.36,0,0,1-.44,2.37,5.57,5.57,0,0,1-3.17,3.19,7.05,7.05,0,0,1-5,0,5.74,5.74,0,0,1-1.93-1.27,5.65,5.65,0,0,1-1.25-1.92,6.63,6.63,0,0,1,0-4.75,5.6,5.6,0,0,1,1.25-1.91,5.74,5.74,0,0,1,1.93-1.27,6.76,6.76,0,0,1,2.51-.46,6.51,6.51,0,0,1,2.5.47,5.59,5.59,0,0,1,3.17,3.18A6.36,6.36,0,0,1,391.84,231.28Zm-2.8,0a5.16,5.16,0,0,0-.22-1.58,3.37,3.37,0,0,0-.65-1.18,2.87,2.87,0,0,0-1-.74,3.93,3.93,0,0,0-2.81,0,2.9,2.9,0,0,0-1.05.74,3.37,3.37,0,0,0-.65,1.18,5.78,5.78,0,0,0,0,3.16,3.37,3.37,0,0,0,.65,1.18,2.79,2.79,0,0,0,1.05.74,3.93,3.93,0,0,0,2.81,0,2.75,2.75,0,0,0,1-.74,3.37,3.37,0,0,0,.65-1.18A5.2,5.2,0,0,0,389,231.28Z"/><polygon class="cls-31" points="393.96 332.69 356 291.36 318.04 332.69 334.65 332.69 334.65 374.33 377.35 374.33 377.35 332.69 393.96 332.69"/><rect class="cls-32" x="184" y="374.33" width="344" height="97.9" rx="13.77"/><path class="cls-25" d="M213.05,446.22h-5v-5.14h1.23v1.6h2.55v-1.6h1.21v1h2.26v-1.68h1.23v6.52h-1.23v-1.62h-2.26Zm-1.21-2.57h-2.55v1.59h2.55Zm4.75,5.55c0,1.29-1.39,2.05-3.66,2.05s-3.64-.76-3.64-2.05,1.39-2.06,3.64-2.06S216.59,447.91,216.59,449.2Zm-1.23,0c0-.71-.89-1.1-2.43-1.1s-2.41.39-2.41,1.1.88,1.09,2.41,1.09S215.36,449.9,215.36,449.2Zm-2.31-6.1v1.21h2.26V443.1Z"/><path class="cls-25" d="M221.57,446.28c-1,.05-2,.06-2.86.06l-.16-1a60.66,60.66,0,0,0,6.95-.32l.09.89a26,26,0,0,1-2.78.31v2.09h-1.24Zm-2.19-3.55c0-1.15,1.09-1.91,2.69-1.91s2.67.76,2.67,1.91-1.09,1.91-2.67,1.91S219.38,443.88,219.38,442.73Zm8.46,7.3v1H220v-3.2h1.24V450Zm-7.29-7.3c0,.61.62,1,1.52,1s1.5-.39,1.5-1-.62-1-1.5-1S220.55,442.12,220.55,442.73Zm5.8,4V440.4h1.23v8.24h-1.23v-1h-2.13v-.87Z"/><path class="cls-25" d="M268.6,441.24c0,2.86-1.9,5-5,6l-.54-1c2.38-.77,4-2.21,4.19-4h-3.63v-1Zm3.59,8.79v1H265v-3.45h1.24V450Zm-1.51-6.36v-3.25h1.24v8h-1.24v-3.7h-2.13v-1Z"/><path class="cls-25" d="M279.49,441.17c0,2.83-1.87,4.85-5,5.76l-.5-1c2.5-.72,4-2.08,4.2-3.76h-3.72v-1Zm3.07,7.93c0,1.33-1.4,2.15-3.57,2.15s-3.58-.82-3.58-2.15,1.42-2.17,3.58-2.17S282.56,447.76,282.56,449.1Zm-1.22,0c0-.76-.9-1.19-2.35-1.19s-2.36.43-2.36,1.19.92,1.17,2.36,1.17S281.34,449.84,281.34,449.1Zm2.63-6v1h-1.53v2.67H281.2v-6.36h1.24v2.67Z"/><path class="cls-25" d="M322.61,447.66h-2.37v3.6H319v-3.6h-2.63v3.6h-1.25v-3.6h-2.35v-1h9.83Zm-1.22-2.16H314v-4.66h1.24v1.33h5v-1.33h1.23Zm-1.23-2.35h-5v1.34h5Z"/><path class="cls-25" d="M325.71,447.71a28.21,28.21,0,0,0,4.72-.33l.12,1a30,30,0,0,1-5.18.34h-.9v-7.37h5.35v1h-4.11v2h3.69v1h-3.69Zm7.06-7.31v10.86h-1.23V440.4Z"/><path class="cls-25" d="M340.57,446.06a4.18,4.18,0,0,1-2.54-2.24,4.36,4.36,0,0,1-2.63,2.51l-.68-1a3.64,3.64,0,0,0,2.65-3.55v-.86h1.26v1a3.44,3.44,0,0,0,2.58,3.22Zm1.53,4.11h1.51v1H336v-1h1.51v-2.1h-1.42v-1h7.38v1H342.1Zm-3.31,0h2.07v-2.1h-2.07Zm4.49-7.21v1.38h1.55v1h-1.55v1.33H342v-6.28h1.26v1.51h1.55v1Z"/><path class="cls-25" d="M375.26,446.54a16.38,16.38,0,0,0,3.35-.3l.1,1a18.89,18.89,0,0,1-3.94.3h-.72v-7h4v1h-2.79Zm7.66-7.24v10.83h-1.17v-5.54h-1.29v5H379.3V439.53h1.16v4.05h1.29V439.3Z"/><path class="cls-25" d="M391.13,441.35h-6.39v-1h2.58v-1.12h1.23v1.12h2.58Zm-3.2,4.41c-1.56,0-2.63-.79-2.63-2s1.07-2,2.63-2,2.63.79,2.63,2S389.49,445.76,387.93,445.76Zm-1.87.86h7.12v3.52H392v-2.53h-5.89Zm1.87-1.8c.86,0,1.45-.39,1.45-1s-.59-1-1.45-1-1.44.38-1.44,1S387.07,444.82,387.93,444.82Zm6.79-1.59h-1.54v2.86H392v-6.78h1.23v2.9h1.54Z"/><path class="cls-25" d="M423.15,444.54a2.87,2.87,0,0,1-5-1.81A2.72,2.72,0,0,1,421,440a2.82,2.82,0,0,1,2.16.94h2.61v-1.6H427v8h-1.23v-2.75Zm-2.16-.13a1.67,1.67,0,1,0-1.65-1.68A1.6,1.6,0,0,0,421,444.41Zm6.28,4.52v1H420v-3.46h1.24v2.45Zm-3.59-7a2.73,2.73,0,0,1,0,1.6h2.08v-1.6Z"/><path class="cls-25" d="M438.86,445.62h-4.32v4.52h-1.25v-4.52h-4.23v-1h7a16.56,16.56,0,0,0,.31-3.63h-6.17v-1h7.38v.95a19.38,19.38,0,0,1-.27,3.68h1.51Z"/><path class="cls-25" d="M445.84,440.45c0,3.23-1.29,6-5,7.76l-.66-1c2.84-1.37,4.19-3.28,4.4-5.77h-3.86v-1Zm3.2-1.14v10.83H447.8V439.31Z"/><path class="cls-25" d="M457.84,445.39a40,40,0,0,1-6.69.46l-.13-1c.65,0,1.39,0,2.16,0V442.6h1.22v2.18a30.42,30.42,0,0,0,3.36-.29Zm-2.19-1.57a14.7,14.7,0,0,0,.26-2.69h-4.23v-1h5.45v.62a15.78,15.78,0,0,1-.27,3.2Zm-1.75,5.11H460v1h-7.36v-3.22h1.25Zm7.21-6.19v1h-1.44v3.68h-1.25v-8.13h1.25v3.43Z"/><path class="cls-25" d="M490.18,440.45c0,3.23-1.3,6-5,7.76l-.66-1c2.85-1.37,4.19-3.28,4.41-5.77H485v-1Zm3.19-1.14v10.83h-1.24V439.31Z"/><path class="cls-25" d="M504.44,439.31v5.81h-1.23v-2.31h-2a2.81,2.81,0,1,1-2.76-3,2.65,2.65,0,0,1,2.76,2h2v-2.5Zm-4.36,3a1.65,1.65,0,0,0-3.28,0,1.64,1.64,0,0,0,3.28,0Zm3.14,3.31h1.22V450h-7v-4.38h1.23v1.23h4.59Zm0,2.18h-4.59V449h4.59Z"/><path class="cls-33" d="M230.28,396.37H205.72a3.48,3.48,0,0,0-3.48,3.48v24.56a3.48,3.48,0,0,0,3.48,3.47h24.56a3.48,3.48,0,0,0,3.48-3.47V399.85A3.48,3.48,0,0,0,230.28,396.37Zm2.13,28a2.14,2.14,0,0,1-2.13,2.13H205.72a2.14,2.14,0,0,1-2.13-2.13V399.85a2.14,2.14,0,0,1,2.13-2.14h24.56a2.14,2.14,0,0,1,2.13,2.14Z"/><path class="cls-33" d="M225.51,408.65h-4.23v-4.23a.7.7,0,0,0-.7-.7h-5.16a.7.7,0,0,0-.7.7v4.23h-4.23a.7.7,0,0,0-.7.7v5.16a.7.7,0,0,0,.7.7h4.23v4.23a.7.7,0,0,0,.7.7h5.16a.7.7,0,0,0,.7-.7v-4.23h4.23a.7.7,0,0,0,.7-.7v-5.16A.7.7,0,0,0,225.51,408.65Z"/><path class="cls-33" d="M286.48,407.67a3.12,3.12,0,0,0,1.71-.89,3.19,3.19,0,0,0,0-4.5l-5-5a3.19,3.19,0,0,0-5.39,1.71l-.94-.94a3.19,3.19,0,0,0-4.51,4.5l3.4,3.39-8.56,8.56-3.4-3.39a3.18,3.18,0,0,0-4.5,4.5l.95.95a3.18,3.18,0,0,0-1.72,5.38l5,5a3.19,3.19,0,0,0,5.39-1.72l.94.95a3.18,3.18,0,0,0,4.5-4.5l-3.39-3.4,8.56-8.56,3.39,3.4a3.18,3.18,0,0,0,5.43-2.25,3.2,3.2,0,0,0-.93-2.26Zm-6.81-9.41a1.87,1.87,0,0,1,2.6,0l5,5a1.83,1.83,0,0,1,0,2.6,1.87,1.87,0,0,1-2.6,0l-5-5A1.83,1.83,0,0,1,279.67,398.26ZM267.08,426a1.84,1.84,0,0,1-2.6,0l-5-5a1.83,1.83,0,0,1,0-2.6,1.83,1.83,0,0,1,1.3-.54,1.87,1.87,0,0,1,1.28.52l5,5a1.83,1.83,0,0,1,0,2.6Zm6.87-2.07a1.82,1.82,0,0,1-.54,1.3,1.89,1.89,0,0,1-2.6,0l-5.89-5.89-1.87-1.87,0,0-2.75-2.75a1.84,1.84,0,0,1,2.6-2.6l10.54,10.54A1.79,1.79,0,0,1,274,423.93Zm-3.93-6.6-1.85-1.85,8.56-8.56,1.85,1.85Zm16.45-5.16a1.89,1.89,0,0,1-2.6,0l-10.54-10.54a1.86,1.86,0,0,1,0-2.6,1.85,1.85,0,0,1,2.61,0l10.53,10.53a1.85,1.85,0,0,1,0,2.61Z"/><path class="cls-33" d="M345.47,415.78h0a11,11,0,0,0-6.15-8.63h0a10.78,10.78,0,0,0-4.67-1.06,12.92,12.92,0,0,0-1.93-1.69v-3.29h4a1.81,1.81,0,0,0,1.81-1.81v-1.14a1.81,1.81,0,0,0-1.81-1.8H313.76a1.81,1.81,0,0,0-1.81,1.8v1.14a1.81,1.81,0,0,0,1.81,1.81h4v3.29a12.92,12.92,0,0,0,12.36,22.51,10.88,10.88,0,0,0,15.22-7.83,10.5,10.5,0,0,0,.2-2.09C345.53,416.6,345.51,416.19,345.47,415.78ZM313.3,399.3v-1.14a.47.47,0,0,1,.46-.46H336.7a.47.47,0,0,1,.47.46v1.14a.46.46,0,0,1-.47.46H313.76A.46.46,0,0,1,313.3,399.3Zm18.08,1.81v2.44a12.88,12.88,0,0,0-12.29,0v-2.44Zm-6.15,2.23a11.55,11.55,0,0,1,7.65,2.9,10.25,10.25,0,0,0-2.08.54,9.9,9.9,0,1,0-3.93,17.87,11.51,11.51,0,0,0,1.67,1.39,11.59,11.59,0,1,1-3.31-22.7Zm0,3.06a8.52,8.52,0,0,1,4.11,1.06,10.86,10.86,0,0,0-5.55,8.32h0c0,.41-.07.82-.07,1.21a10.51,10.51,0,0,0,.21,2.09h0a10.69,10.69,0,0,0,1.9,4.35l-.6,0a8.53,8.53,0,0,1,0-17.06Zm19,10.59a9.32,9.32,0,0,1-.09,1.29H325.16a9.32,9.32,0,0,1-.09-1.29c0-.15,0-.31,0-.46h19.1C344.19,416.68,344.19,416.84,344.19,417Zm-18.95-1.81a9.54,9.54,0,0,1,9.39-7.75,9.4,9.4,0,0,1,4.11.93,9.65,9.65,0,0,1,5.28,6.82Zm2.57,8.51a9.5,9.5,0,0,1-2.37-4.06h18.38a9.56,9.56,0,0,1-16,4.06Z"/><path class="cls-33" d="M404.19,402.86a.43.43,0,0,0,0-.07.55.55,0,0,0-.09-.14l-.05,0a.78.78,0,0,0-.15-.1l-.05,0h0l-19.44-7.17a.76.76,0,0,0-.47,0l-19.44,7.17h0l-.05,0a.71.71,0,0,0-.14.1l-.06,0a1.1,1.1,0,0,0-.09.14l0,.07a.59.59,0,0,0-.05.23v3.07a.67.67,0,0,0,.44.63l9.16,3.38L372,418.75a3.88,3.88,0,0,0-.24,1.32c0,3.77,5.43,6.72,12.37,6.72s12.37-3,12.37-6.72a3.88,3.88,0,0,0-.24-1.32l-1.62-8.58,5.56-2.05V420a3.7,3.7,0,0,0-1.44,3.06,2.12,2.12,0,1,0,4.24,0,3.69,3.69,0,0,0-1.45-3.06V408a.64.64,0,0,0-.1-.33l2.35-.87a.66.66,0,0,0,.44-.63v-3.07A.85.85,0,0,0,404.19,402.86ZM400.87,424c-.39,0-.78-.11-.78-.93,0-1,.56-1.88.78-1.88s.77.89.77,1.88C401.64,423.92,401.25,424,400.87,424Zm-5.9-4.87a2.75,2.75,0,0,1,.17.91c0,2.92-5.05,5.38-11,5.38s-11-2.46-11-5.38a2.75,2.75,0,0,1,.17-.91.49.49,0,0,0,0-.11l1.58-8.41,9,3.32a.67.67,0,0,0,.24,0,.66.66,0,0,0,.23,0l9-3.32,1.59,8.41A.23.23,0,0,0,395,419.16Zm-10.85-6.54-18.78-6.92v-1.64l18.54,6.83a.67.67,0,0,0,.24,0,.66.66,0,0,0,.23,0l18.54-6.83v1.64Zm17.5-9.53-17.5,6.46-17.51-6.46,17.51-6.45Z"/><path class="cls-33" d="M384.12,413.89a.72.72,0,0,1-.72-.72v-2.68a.72.72,0,0,1,1.43,0v2.68A.71.71,0,0,1,384.12,413.89Z"/><path class="cls-33" d="M438.24,405.67v-9.09h1.58v-1.34H429.07v1.34h1.58v9.09l-8.76,15.75a3.62,3.62,0,0,0,3.17,5.39h18.77a3.62,3.62,0,0,0,3.17-5.39ZM432,406v-9.44h4.91V406l1.78,3.21h-8.47Zm5.25,5.61a1.06,1.06,0,1,1-1.06-1.06A1.06,1.06,0,0,1,437.24,411.63Zm8.56,12.71a2.26,2.26,0,0,1-2,1.12H425.06a2.26,2.26,0,0,1-2-1.12,2.3,2.3,0,0,1,0-2.27l4-7.23H430v-1.35h-2.18l1.63-2.92H434a2.37,2.37,0,0,0-.26,1.06,2.41,2.41,0,0,0,4.82,0,2.37,2.37,0,0,0-.26-1.06h1.1l6.4,11.5A2.3,2.3,0,0,1,445.8,424.34Z"/><path class="cls-33" d="M438.21,416A1.81,1.81,0,1,0,440,417.8,1.82,1.82,0,0,0,438.21,416Zm0,2.28a.47.47,0,1,1,.46-.47A.47.47,0,0,1,438.21,418.27Z"/><rect class="cls-33" x="426.73" y="416.25" width="3.27" height="1.34"/><rect class="cls-33" x="426.73" y="419" width="3.27" height="1.34"/><path class="cls-33" d="M457.55,395.24H446.79v1.34h1.6V423a3.78,3.78,0,1,0,7.56,0V396.58h1.6Zm-5.38,30.21a2.44,2.44,0,0,1-2.44-2.44V403.48h4.88V423A2.44,2.44,0,0,1,452.17,425.45Zm2.44-23.31h-4.88v-5.56h4.88Z"/><path class="cls-33" d="M495,395.2h-14a.67.67,0,0,0-.67.67V426.1a.67.67,0,0,0,.67.67h14a.67.67,0,0,0,.67-.67V395.87A.67.67,0,0,0,495,395.2Zm-.67,30.23H481.73V396.54h12.64Z"/><path class="cls-33" d="M509.05,409.65l-10.82-7.4a.67.67,0,0,0-1.05.55v23.37a.67.67,0,0,0,.67.67h10.82a.67.67,0,0,0,.67-.67v-16A.68.68,0,0,0,509.05,409.65ZM508,425.5h-9.47V404.08l9.47,6.48Z"/><rect class="cls-33" x="483.94" y="400.52" width="1.34" height="2.28"/><rect class="cls-33" x="487.38" y="400.52" width="1.34" height="2.28"/><rect class="cls-33" x="490.81" y="400.52" width="1.34" height="2.28"/><rect class="cls-33" x="483.94" y="406.1" width="1.34" height="2.28"/><rect class="cls-33" x="487.38" y="406.1" width="1.34" height="2.28"/><rect class="cls-33" x="490.81" y="406.1" width="1.34" height="2.28"/><rect class="cls-33" x="500.79" y="411.67" width="1.34" height="2.28"/><rect class="cls-33" x="504.23" y="411.67" width="1.34" height="2.28"/><rect class="cls-33" x="500.79" y="416.64" width="1.34" height="2.28"/><rect class="cls-33" x="504.23" y="416.64" width="1.34" height="2.28"/><rect class="cls-33" x="483.94" y="411.67" width="1.34" height="2.28"/><rect class="cls-33" x="487.38" y="411.67" width="1.34" height="2.28"/><rect class="cls-33" x="490.81" y="411.67" width="1.34" height="2.28"/></g></g></svg>