<svg width="64" height="64" viewBox="0 0 64 64" fill="none" xmlns="http://www.w3.org/2000/svg">
<path d="M31.5 64L4 47.9986V16.0014L31.5 0L59 16.0014V47.9986L31.5 64ZM5.496 47.1118L31.5 62.2596L57.504 47.1118V16.8716L31.5 1.74037L5.496 16.8716V47.1118Z" fill="url(#paint0_linear_325_214)"/>
<path d="M35.35 31.998C35.35 27.3872 33.5331 22.965 30.2988 19.7036C27.0645 16.4421 22.6775 14.6084 18.102 14.6055V30.0526L20.038 31.998H35.35Z" fill="url(#paint1_linear_325_214)"/>
<path d="M27.65 31.998C27.65 27.3872 29.4669 22.965 32.7012 19.7036C35.9355 16.4421 40.3226 14.6084 44.898 14.6055V30.0526L42.962 31.998H27.65Z" fill="url(#paint2_linear_325_214)"/>
<path d="M27.65 31.998C27.6486 36.6099 29.4648 41.0335 32.6992 44.2961C35.9337 47.5587 40.3216 49.3932 44.898 49.3962V33.949L42.962 31.998H27.65Z" fill="url(#paint3_linear_325_214)"/>
<path d="M35.35 31.998C35.3514 36.6099 33.5352 41.0335 30.3008 44.2961C27.0663 47.5587 22.6784 49.3932 18.102 49.3962V33.949L20.038 31.998H35.35Z" fill="url(#paint4_linear_325_214)"/>
<defs>
<linearGradient id="paint0_linear_325_214" x1="31.5" y1="64" x2="31.5" y2="0" gradientUnits="userSpaceOnUse">
<stop stop-color="#6D54D3"/>
<stop offset="0.48" stop-color="#17B0FF"/>
<stop offset="1" stop-color="#00DDDB"/>
</linearGradient>
<linearGradient id="paint1_linear_325_214" x1="15.979" y1="16.4678" x2="33.2232" y2="33.8161" gradientUnits="userSpaceOnUse">
<stop stop-color="#6D54D3"/>
<stop offset="0.48" stop-color="#17B0FF"/>
<stop offset="1" stop-color="#07D0E5"/>
</linearGradient>
<linearGradient id="paint2_linear_325_214" x1="47.021" y1="16.4678" x2="29.7768" y2="33.8161" gradientUnits="userSpaceOnUse">
<stop stop-color="#6D54D3"/>
<stop offset="0.48" stop-color="#17B0FF"/>
<stop offset="1" stop-color="#00FFDB"/>
</linearGradient>
<linearGradient id="paint3_linear_325_214" x1="47.021" y1="47.5283" x2="29.7768" y2="30.18" gradientUnits="userSpaceOnUse">
<stop stop-color="#6D54D3"/>
<stop offset="0.48" stop-color="#17B0FF"/>
<stop offset="1" stop-color="#07D0E5"/>
</linearGradient>
<linearGradient id="paint4_linear_325_214" x1="15.979" y1="47.5283" x2="33.2232" y2="30.18" gradientUnits="userSpaceOnUse">
<stop stop-color="#6D54D3"/>
<stop offset="0.48" stop-color="#17B0FF"/>
<stop offset="1" stop-color="#00FFDB"/>
</linearGradient>
</defs>
</svg>
