<svg width="64" height="64" viewBox="0 0 64 64" fill="none" xmlns="http://www.w3.org/2000/svg">
<g clip-path="url(#clip0_370_260)">
<path d="M48.6297 11.7578C49.8537 11.7597 51.0269 12.2472 51.8917 13.1133C52.7565 13.9795 53.2422 15.1534 53.2422 16.3773V48.6297C53.2422 49.853 52.7563 51.0262 51.8913 51.8912C51.0263 52.7562 49.853 53.2422 48.6297 53.2422H18.986C17.762 53.2422 16.5881 52.7565 15.722 51.8916C14.8558 51.0268 14.3683 49.8536 14.3665 48.6297V16.3773C14.3683 15.1527 14.8556 13.9788 15.7215 13.1129C16.5875 12.247 17.7614 11.7597 18.986 11.7578H48.6297V11.7578ZM48.6297 10H18.986C17.2946 10 15.6725 10.6719 14.4765 11.8679C13.2805 13.0639 12.6086 14.686 12.6086 16.3773V48.6297C12.6086 49.4668 12.7736 50.2958 13.0942 51.0691C13.4148 51.8425 13.8847 52.545 14.4769 53.1367C15.0692 53.7283 15.7723 54.1974 16.546 54.5171C17.3197 54.8368 18.1488 55.0009 18.986 55H48.6297C50.3192 55 51.9396 54.3288 53.1342 53.1342C54.3289 51.9395 55 50.3192 55 48.6297V16.3773C55.0001 14.6872 54.3291 13.0662 53.1347 11.8704C51.9402 10.6746 50.3199 10.0019 48.6297 10Z" fill="#FF8A00"/>
<path d="M44.5304 19.5205C44.7809 19.5224 45.0206 19.6232 45.1971 19.801C45.3736 19.9788 45.4726 20.2192 45.4726 20.4697V36.7752C45.4735 36.8995 45.4499 37.0228 45.4029 37.1379C45.356 37.253 45.2867 37.3577 45.1991 37.446C45.1116 37.5342 45.0074 37.6042 44.8926 37.652C44.7778 37.6998 44.6547 37.7244 44.5304 37.7244H23.5984C23.4741 37.7244 23.351 37.6998 23.2362 37.652C23.1214 37.6042 23.0172 37.5342 22.9297 37.446C22.8421 37.3577 22.7728 37.253 22.7259 37.1379C22.679 37.0228 22.6553 36.8995 22.6562 36.7752V20.4697C22.6562 20.3451 22.6808 20.2216 22.7285 20.1065C22.7762 19.9913 22.8461 19.8867 22.9342 19.7985C23.0224 19.7104 23.127 19.6405 23.2422 19.5928C23.3573 19.5451 23.4808 19.5205 23.6054 19.5205H44.5304ZM44.5304 17.7627H23.5984C22.8804 17.7627 22.1919 18.0479 21.6842 18.5556C21.1766 19.0632 20.8914 19.7518 20.8914 20.4697V36.7752C20.8914 37.4932 21.1766 38.1817 21.6842 38.6894C22.1919 39.197 22.8804 39.4822 23.5984 39.4822H44.5304C44.8885 39.4869 45.244 39.4203 45.5761 39.2862C45.9082 39.1522 46.2103 38.9534 46.4649 38.7015C46.7194 38.4496 46.9213 38.1495 47.0588 37.8188C47.1962 37.4881 47.2665 37.1333 47.2656 36.7752V20.4697C47.2665 20.1146 47.1973 19.7627 47.0621 19.4343C46.9268 19.1059 46.7281 18.8075 46.4773 18.556C46.2264 18.3045 45.9285 18.105 45.6004 17.9689C45.2724 17.8328 44.9207 17.7627 44.5656 17.7627H44.5304Z" fill="#FF8A00"/>
<path d="M39.0532 44.8467H29.0688V46.6045H39.0532V44.8467Z" fill="#FF8A00"/>
<path d="M16.3984 21.2988H10.8789C10.6458 21.2988 10.4223 21.2062 10.2574 21.0414C10.0926 20.8766 10 20.653 10 20.4199C10 20.1868 10.0926 19.9633 10.2574 19.7984C10.4223 19.6336 10.6458 19.541 10.8789 19.541H16.3984C16.6315 19.541 16.8551 19.6336 17.0199 19.7984C17.1847 19.9633 17.2773 20.1868 17.2773 20.4199C17.2773 20.653 17.1847 20.8766 17.0199 21.0414C16.8551 21.2062 16.6315 21.2988 16.3984 21.2988Z" fill="#FF8A00"/>
<path d="M16.3984 29.3574H10.8789C10.6458 29.3574 10.4223 29.2648 10.2574 29.1C10.0926 28.9352 10 28.7116 10 28.4785C10 28.2454 10.0926 28.0219 10.2574 27.857C10.4223 27.6922 10.6458 27.5996 10.8789 27.5996H16.3984C16.6315 27.5996 16.8551 27.6922 17.0199 27.857C17.1847 28.0219 17.2773 28.2454 17.2773 28.4785C17.2773 28.7116 17.1847 28.9352 17.0199 29.1C16.8551 29.2648 16.6315 29.3574 16.3984 29.3574Z" fill="#FF8A00"/>
<path d="M16.3984 37.4082H10.8789C10.6458 37.4082 10.4223 37.3156 10.2574 37.1508C10.0926 36.9859 10 36.7624 10 36.5293C10 36.2962 10.0926 36.0726 10.2574 35.9078C10.4223 35.743 10.6458 35.6504 10.8789 35.6504H16.3984C16.6315 35.6504 16.8551 35.743 17.0199 35.9078C17.1847 36.0726 17.2773 36.2962 17.2773 36.5293C17.2773 36.7624 17.1847 36.9859 17.0199 37.1508C16.8551 37.3156 16.6315 37.4082 16.3984 37.4082V37.4082Z" fill="#FF8A00"/>
<path d="M16.3984 45.4658H10.8789C10.6458 45.4658 10.4223 45.3732 10.2574 45.2084C10.0926 45.0436 10 44.82 10 44.5869C10 44.3538 10.0926 44.1303 10.2574 43.9654C10.4223 43.8006 10.6458 43.708 10.8789 43.708H16.3984C16.6315 43.708 16.8551 43.8006 17.0199 43.9654C17.1847 44.1303 17.2773 44.3538 17.2773 44.5869C17.2773 44.82 17.1847 45.0436 17.0199 45.2084C16.8551 45.3732 16.6315 45.4658 16.3984 45.4658Z" fill="#FF8A00"/>
</g>
<defs>
<clipPath id="clip0_370_260">
<rect width="45" height="45" fill="white" transform="translate(10 10)"/>
</clipPath>
</defs>
</svg>
