<svg width="64" height="64" viewBox="0 0 64 64" fill="none" xmlns="http://www.w3.org/2000/svg">
<g clip-path="url(#clip0_370_193)">
<path d="M31.5 30.7842C32.6278 30.7842 33.7303 31.1186 34.668 31.7452C35.6058 32.3718 36.3366 33.2624 36.7682 34.3043C37.1998 35.3463 37.3128 36.4929 37.0927 37.599C36.8727 38.7051 36.3296 39.7212 35.5321 40.5187C34.7346 41.3162 33.7186 41.8593 32.6124 42.0793C31.5063 42.2993 30.3597 42.1864 29.3178 41.7548C28.2758 41.3232 27.3852 40.5923 26.7586 39.6546C26.132 38.7168 25.7976 37.6143 25.7976 36.4865C25.7995 34.9747 26.4009 33.5254 27.4698 32.4564C28.5388 31.3874 29.9882 30.786 31.5 30.7842V30.7842ZM31.5 29.0264C30.0245 29.0264 28.5821 29.4639 27.3553 30.2836C26.1285 31.1034 25.1723 32.2685 24.6077 33.6316C24.043 34.9948 23.8953 36.4948 24.1831 37.9419C24.471 39.3891 25.1815 40.7183 26.2248 41.7616C27.2681 42.805 28.5974 43.5155 30.0446 43.8033C31.4917 44.0912 32.9917 43.9434 34.3548 43.3788C35.718 42.8142 36.8831 41.858 37.7028 40.6312C38.5226 39.4043 38.9601 37.962 38.9601 36.4865C38.9601 35.5068 38.7671 34.5368 38.3922 33.6316C38.0173 32.7265 37.4678 31.9041 36.7751 31.2114C36.0823 30.5187 35.2599 29.9691 34.3548 29.5942C33.4497 29.2193 32.4796 29.0264 31.5 29.0264V29.0264Z" fill="#00AEFF"/>
<path d="M31.5 26.3965C33.4956 26.3965 35.4464 26.9882 37.1056 28.0969C38.7649 29.2056 40.0581 30.7814 40.8218 32.6251C41.5855 34.4688 41.7853 36.4975 41.396 38.4548C41.0067 40.412 40.0457 42.2098 38.6346 43.6209C37.2235 45.032 35.4257 45.993 33.4684 46.3823C31.5112 46.7716 29.4825 46.5718 27.6388 45.8081C25.7951 45.0445 24.2193 43.7512 23.1106 42.0919C22.0019 40.4327 21.4102 38.4819 21.4102 36.4863C21.4139 33.8115 22.4781 31.2472 24.3695 29.3558C26.2609 27.4644 28.8252 26.4002 31.5 26.3965ZM31.5 24.6387C29.1568 24.6387 26.8661 25.3335 24.9178 26.6354C22.9695 27.9372 21.4509 29.7875 20.5542 31.9524C19.6575 34.1173 19.4229 36.4995 19.88 38.7977C20.3371 41.0959 21.4655 43.207 23.1224 44.8639C24.7794 46.5208 26.8904 47.6492 29.1886 48.1063C31.4869 48.5635 33.869 48.3289 36.0339 47.4321C38.1988 46.5354 40.0491 45.0169 41.351 43.0685C42.6528 41.1202 43.3477 38.8296 43.3477 36.4863C43.3486 34.9302 43.0428 33.3892 42.4477 31.9513C41.8526 30.5135 40.98 29.2071 39.8796 28.1067C38.7793 27.0064 37.4728 26.1337 36.035 25.5386C34.5972 24.9436 33.0561 24.6377 31.5 24.6387V24.6387Z" fill="#00AEFF"/>
<path d="M20.5031 37.8438H9V39.6016H20.5031V37.8438Z" fill="#00AEFF"/>
<path d="M54 37.8438H42.4968V39.6016H54V37.8438Z" fill="#00AEFF"/>
<path d="M36.1266 11.7578C36.492 11.7577 36.8502 11.8597 37.1608 12.0523C37.4713 12.2448 37.722 12.5203 37.8844 12.8477L40.507 18.0578L40.9992 19.0281H48.375C49.4001 19.03 50.3826 19.438 51.1075 20.1629C51.8323 20.8877 52.2403 21.8702 52.2422 22.8953V49.375C52.2422 50.4006 51.8348 51.3843 51.1095 52.1095C50.3843 52.8348 49.4006 53.2422 48.375 53.2422H14.625C13.5994 53.2422 12.6157 52.8348 11.8905 52.1095C11.1652 51.3843 10.7578 50.4006 10.7578 49.375V22.8953C10.7597 21.8702 11.1677 20.8877 11.8925 20.1629C12.6174 19.438 13.5999 19.03 14.625 19.0281H22.0008L22.493 18.0578L25.1156 12.8477C25.278 12.5203 25.5287 12.2448 25.8392 12.0523C26.1498 11.8597 26.508 11.7577 26.8734 11.7578H36.1266V11.7578ZM36.1266 10H26.8734C26.1823 10.0002 25.5048 10.1923 24.9164 10.5548C24.328 10.9173 23.8517 11.436 23.5406 12.0531L20.9531 17.2703H14.625C13.1332 17.2703 11.7024 17.8629 10.6475 18.9178C9.59263 19.9727 9 21.4035 9 22.8953L9 49.375C9 50.8668 9.59263 52.2976 10.6475 53.3525C11.7024 54.4074 13.1332 55 14.625 55H48.375C49.8668 55 51.2976 54.4074 52.3525 53.3525C53.4074 52.2976 54 50.8668 54 49.375V22.8953C54 21.4035 53.4074 19.9727 52.3525 18.9178C51.2976 17.8629 49.8668 17.2703 48.375 17.2703H42.0469L39.4242 12.0531C39.1131 11.436 38.6369 10.9173 38.0485 10.5548C37.46 10.1923 36.7825 10.0002 36.0914 10H36.1266Z" fill="#00AEFF"/>
<path d="M48.5649 27.3107H44.9016C44.6685 27.3107 44.445 27.2181 44.2801 27.0533C44.1153 26.8885 44.0227 26.6649 44.0227 26.4318V22.7686C44.0227 22.5355 44.1153 22.3119 44.2801 22.1471C44.445 21.9822 44.6685 21.8896 44.9016 21.8896H48.5649C48.798 21.8896 49.0215 21.9822 49.1864 22.1471C49.3512 22.3119 49.4438 22.5355 49.4438 22.7686V26.4318C49.4438 26.6649 49.3512 26.8885 49.1864 27.0533C49.0215 27.2181 48.798 27.3107 48.5649 27.3107V27.3107ZM45.7524 25.5529H47.6719V23.6475H45.7805L45.7524 25.5529Z" fill="#00AEFF"/>
</g>
<defs>
<clipPath id="clip0_370_193">
<rect width="45" height="45" fill="white" transform="translate(9 10)"/>
</clipPath>
</defs>
</svg>
