<svg width="64" height="64" viewBox="0 0 64 64" fill="none" xmlns="http://www.w3.org/2000/svg">
<g clip-path="url(#clip0_325_216)">
<path d="M48.3017 21.1043C47.6895 20.7573 46.9981 20.5749 46.2949 20.5749C45.5916 20.5749 44.9002 20.7573 44.288 21.1043L35.072 26.5219L28.8183 30.1061L19.6023 35.5512C18.9915 35.9026 18.2996 36.0875 17.5954 36.0875C16.8912 36.0875 16.1993 35.9026 15.5886 35.5512L8.27428 31.2887C7.67617 30.9363 7.1781 30.4362 6.82757 29.8361C6.47705 29.2359 6.28577 28.5556 6.27199 27.8603V19.4543C6.26167 18.7528 6.44274 18.0618 6.79563 17.4559C7.14852 16.8501 7.65981 16.3525 8.27428 16.0168L15.4697 11.855C16.0819 11.508 16.7733 11.3256 17.4766 11.3256C18.1799 11.3256 18.8712 11.508 19.4834 11.855L26.688 15.9984C27.2868 16.3531 27.7856 16.8548 28.1375 17.4562C28.4894 18.0576 28.6828 18.7389 28.6994 19.436V24.8811L34.9531 21.2143V15.7784C34.9648 15.0779 34.7842 14.3876 34.4311 13.7829C34.078 13.1783 33.5659 12.6826 32.9508 12.35L19.6023 4.5216C18.9901 4.17456 18.2987 3.99219 17.5954 3.99219C16.8921 3.99219 16.2008 4.17456 15.5886 4.5216L2.01142 12.3409C1.39531 12.673 0.881944 13.1684 0.527267 13.7729C0.172589 14.3774 -0.00979346 15.068 -7.37799e-06 15.7693V31.527C-0.00979346 32.2283 0.172589 32.9188 0.527267 33.5234C0.881944 34.1279 1.39531 34.6232 2.01142 34.9554L15.5886 42.7747C16.2008 43.1217 16.8921 43.3041 17.5954 43.3041C18.2987 43.3041 18.9901 43.1217 19.6023 42.7747L28.8183 37.4488L35.072 33.782L44.288 28.447C44.9002 28.0999 45.5916 27.9175 46.2949 27.9175C46.9981 27.9175 47.6895 28.0999 48.3017 28.447L55.4971 32.5903C56.0977 32.943 56.5979 33.4442 56.9501 34.0461C57.3022 34.6479 57.4945 35.3303 57.5086 36.0279V44.4339C57.5204 45.1356 57.3389 45.8269 56.984 46.4318C56.6291 47.0367 56.1146 47.5317 55.4971 47.8622L48.3017 52.1248C47.6909 52.4762 46.999 52.6611 46.2949 52.6611C45.5907 52.6611 44.8988 52.4762 44.288 52.1248L37.0834 47.9814C36.4842 47.6296 35.9848 47.1298 35.6327 46.5297C35.2806 45.9296 35.0876 45.2491 35.072 44.553V39.1079L28.8183 42.7747V48.2197C28.808 48.9213 28.989 49.6123 29.3419 50.2181C29.6948 50.824 30.2061 51.3216 30.8206 51.6573L44.3977 59.4674C45.0116 59.8144 45.7044 59.9967 46.4091 59.9967C47.1139 59.9967 47.8067 59.8144 48.4206 59.4674L61.9977 51.6573C62.5954 51.3022 63.0928 50.8002 63.4432 50.1987C63.7935 49.5972 63.9852 48.9161 64 48.2197V32.4712C64.0117 31.7706 63.8311 31.0803 63.478 30.4757C63.1249 29.8711 62.6128 29.3754 61.9977 29.0428L48.3017 21.1043Z" fill="#8247E5"/>
</g>
<defs>
<clipPath id="clip0_325_216">
<rect width="64" height="56" fill="white" transform="translate(0 4)"/>
</clipPath>
</defs>
</svg>
