<svg width="64" height="64" viewBox="0 0 64 64" fill="none" xmlns="http://www.w3.org/2000/svg">
<g clip-path="url(#clip0_370_247)">
<path d="M54 17.5586H9V19.3164H54V17.5586Z" fill="#FF67F0"/>
<path d="M54 45.6836H9V47.4414H54V45.6836Z" fill="#FF67F0"/>
<path d="M27.8438 42.3653C27.0978 42.3653 26.3825 42.069 25.855 41.5416C25.3276 41.0141 25.0312 40.2987 25.0312 39.5528V25.4411C25.0367 24.9235 25.1849 24.4175 25.4594 23.9788C25.734 23.54 26.1243 23.1855 26.5874 22.9543C27.0505 22.7232 27.5684 22.6242 28.0841 22.6685C28.5997 22.7128 29.0932 22.8985 29.5102 23.2052L38.918 30.2364C39.2633 30.4988 39.5432 30.8374 39.736 31.2259C39.9287 31.6144 40.029 32.0422 40.029 32.4759C40.029 32.9095 39.9287 33.3373 39.736 33.7258C39.5432 34.1143 39.2633 34.453 38.918 34.7153L29.5102 41.7466C29.0377 42.1303 28.4521 42.3477 27.8438 42.3653V42.3653ZM27.8438 24.4005C27.5671 24.4005 27.3017 24.5099 27.1054 24.7048C26.9091 24.8998 26.7979 25.1645 26.7961 25.4411V39.5669C26.7964 39.7601 26.8506 39.9495 26.9524 40.1137C27.0543 40.2779 27.1999 40.4105 27.3729 40.4967C27.5459 40.5828 27.7395 40.6191 27.9319 40.6014C28.1244 40.5837 28.3081 40.5128 28.4625 40.3966L37.8703 33.3653C38.0007 33.2686 38.1063 33.1423 38.1784 32.9969C38.2505 32.8514 38.2871 32.6909 38.2852 32.5286C38.2865 32.3673 38.2497 32.2081 38.1776 32.0638C38.1054 31.9196 38.0001 31.7945 37.8703 31.6989L28.4625 24.6677C28.2928 24.5106 28.0745 24.4163 27.8438 24.4005V24.4005Z" fill="#FF67F0"/>
<path d="M17.4937 13.7832H14.6812V15.541H17.4937V13.7832Z" fill="#FF67F0"/>
<path d="M39.9376 15.541H34.3126V13.7832H39.9376V15.541ZM28.7368 15.541H23.1118V13.7832H28.7368V15.541Z" fill="#FF67F0"/>
<path d="M48.3188 13.7832H45.5063V15.541H48.3188V13.7832Z" fill="#FF67F0"/>
<path d="M17.4937 49.459H14.6812V51.2168H17.4937V49.459Z" fill="#FF67F0"/>
<path d="M39.9376 51.2246H34.3126V49.4668H39.9376V51.2246ZM28.7368 51.2246H23.1118V49.4668H28.7368V51.2246Z" fill="#FF67F0"/>
<path d="M48.3188 49.459H45.5063V51.2168H48.3188V49.459Z" fill="#FF67F0"/>
<path d="M47.9883 11.7578C49.1171 11.7597 50.1991 12.2094 50.9967 13.0083C51.7942 13.8072 52.2422 14.8899 52.2422 16.0188V48.9883C52.2422 49.5469 52.1322 50.1001 51.9184 50.6162C51.7046 51.1323 51.3913 51.6012 50.9963 51.9963C50.6012 52.3913 50.1323 52.7046 49.6162 52.9184C49.1001 53.1322 48.5469 53.2422 47.9883 53.2422H15.0117C13.8896 53.2329 12.8166 52.7806 12.0265 51.9839C11.2363 51.1871 10.7929 50.1104 10.793 48.9883V16.0188C10.7929 14.896 11.236 13.8185 12.026 13.0206C12.816 12.2228 13.889 11.7689 15.0117 11.7578H47.9883ZM47.9883 10H15.0117C14.2217 10 13.4393 10.1557 12.7095 10.4583C11.9797 10.7608 11.3166 11.2043 10.7583 11.7633C10.2 12.3223 9.7573 12.9858 9.4556 13.716C9.1539 14.4462 8.99908 15.2287 9 16.0188V48.9883C9 50.5827 9.63338 52.1118 10.7608 53.2392C11.8882 54.3666 13.4173 55 15.0117 55H47.9883C49.5827 55 51.1118 54.3666 52.2392 53.2392C53.3666 52.1118 54 50.5827 54 48.9883V16.0188C54.0009 15.2287 53.8461 14.4462 53.5444 13.716C53.2427 12.9858 52.8 12.3223 52.2417 11.7633C51.6834 11.2043 51.0203 10.7608 50.2905 10.4583C49.5607 10.1557 48.7783 10 47.9883 10V10Z" fill="#FF67F0"/>
</g>
<defs>
<clipPath id="clip0_370_247">
<rect width="45" height="45" fill="white" transform="translate(9 10)"/>
</clipPath>
</defs>
</svg>
