<svg width="64" height="64" viewBox="0 0 64 64" fill="none" xmlns="http://www.w3.org/2000/svg">
<path d="M41.3407 24.6839C43.3722 24.7448 45.3001 25.5951 46.7155 27.0543C48.131 28.5135 48.9226 30.4669 48.9226 32.5003C48.9226 34.5337 48.131 36.4871 46.7155 37.9463C45.3001 39.4056 43.3722 40.2558 41.3407 40.3168H34.895V39.1564C34.895 38.2556 34.5373 37.3917 33.9007 36.7547C33.264 36.1177 32.4004 35.7598 31.5 35.7598C30.5996 35.7598 29.736 36.1177 29.0994 36.7547C28.4627 37.3917 28.105 38.2556 28.105 39.1564V40.3168H21.6945C19.663 40.2558 17.7351 39.4056 16.3196 37.9463C14.9042 36.4871 14.1125 34.5337 14.1125 32.5003C14.1125 30.4669 14.9042 28.5135 16.3196 27.0543C17.7351 25.5951 19.663 24.7448 21.6945 24.6839H41.3407ZM41.3407 22.9258H21.6945C19.1573 22.9258 16.724 23.9341 14.9299 25.7291C13.1358 27.524 12.1279 29.9584 12.1279 32.4968V32.4968C12.127 33.7543 12.3738 34.9996 12.8541 36.1616C13.3345 37.3237 14.039 38.3796 14.9274 39.2691C15.8158 40.1586 16.8708 40.8642 18.0319 41.3456C19.193 41.8271 20.4376 42.0749 21.6945 42.0749H29.8622V39.1564C29.8622 38.7219 30.0348 38.3051 30.3419 37.9978C30.6491 37.6905 31.0656 37.5179 31.5 37.5179C31.9344 37.5179 32.3509 37.6905 32.6581 37.9978C32.9652 38.3051 33.1378 38.7219 33.1378 39.1564V42.0749H41.3407C42.5976 42.0749 43.8421 41.8271 45.0033 41.3456C46.1644 40.8642 47.2193 40.1586 48.1077 39.2691C48.9962 38.3796 49.7007 37.3237 50.181 36.1616C50.6614 34.9996 50.9081 33.7543 50.9072 32.4968V32.4968C50.9072 29.9584 49.8993 27.524 48.1052 25.7291C46.3112 23.9341 43.8779 22.9258 41.3407 22.9258V22.9258Z" fill="#A861FF"/>
<path d="M35.1059 29.5498H27.894V31.3079H35.1059V29.5498Z" fill="#A861FF"/>
<path d="M13.7095 36.9756H9V28.0234H13.7095V29.7815H10.7573V35.2175H13.7095V36.9756Z" fill="#A861FF"/>
<path d="M54 36.9756H49.2905V35.2175H52.2427V29.7815H49.2905V28.0234H54V36.9756Z" fill="#A861FF"/>
<path d="M10.7643 16.8636H9.00708V10H15.8674V11.7581H10.7643V16.8636Z" fill="#A861FF"/>
<path d="M53.9858 16.8636H52.2356V11.7581H47.1255V10H53.9858V16.8636Z" fill="#A861FF"/>
<path d="M15.8674 55.0003H9.00708V48.1367H10.7643V53.2422H15.8674V55.0003Z" fill="#A861FF"/>
<path d="M53.9858 55.0003H47.1255V53.2422H52.2356V48.1367H53.9858V55.0003Z" fill="#A861FF"/>
</svg>
